<svg width="61" height="61" viewBox="0 0 61 61" fill="none" xmlns="http://www.w3.org/2000/svg">
<path d="M61 30.5C61 13.6553 47.3447 0 30.5 0C13.6553 0 0 13.6553 0 30.5C0 47.3447 13.6553 61 30.5 61C47.3447 61 61 47.3447 61 30.5Z" fill="#18A5DF"/>
<path d="M27.0789 25.2874C27.0925 23.592 28.1836 22.4845 29.3726 21.4074C31.1411 19.8057 32.8661 18.1584 34.6156 16.539C36.8385 14.4811 39.5485 14.4887 41.7795 16.5516C42.3754 17.1016 42.9794 17.6439 43.5562 18.2116C45.4663 20.0845 45.4935 22.5935 43.5644 24.446C41.4802 26.4482 39.3389 28.3996 37.2194 30.3713C36.3352 31.1949 35.2523 31.6156 33.9218 31.7069C33.9327 33.6456 32.5015 34.781 31.1873 35.9924C29.5685 37.4826 27.9713 38.993 26.3552 40.4857C24.1649 42.5107 21.4413 42.5031 19.2429 40.4731C18.647 39.9231 18.0457 39.3782 17.4662 38.8156C15.5235 36.9276 15.5018 34.4034 17.458 32.5305C19.5313 30.5487 21.6536 28.6099 23.754 26.6509C24.6546 25.8095 25.7593 25.3837 27.0789 25.2874ZM32.5178 28.4832C33.5735 29.2435 34.4197 29.2283 35.2931 28.4249C37.3718 26.514 39.4369 24.593 41.4857 22.6543C42.389 21.7977 42.3672 20.8752 41.4721 19.9983C40.9116 19.4484 40.3266 18.9212 39.7471 18.389C38.6751 17.4108 37.701 17.4057 36.6344 18.389C35.4264 19.5016 34.2292 20.6243 33.0293 21.7445C32.1668 22.5478 31.2853 23.336 30.4473 24.1622C29.6854 24.9124 29.7507 25.954 30.5779 26.5673C31.8757 25.3559 33.1735 24.1394 34.4795 22.9305C35.2849 22.1829 36.1148 22.0866 36.746 22.6543C37.3854 23.2321 37.2793 24.0406 36.4603 24.8135C36.3596 24.9098 36.2563 25.0036 36.1556 25.0974C34.9584 26.2125 33.7585 27.3276 32.5206 28.4807L32.5178 28.4832ZM28.4692 28.5263C27.4734 27.7736 26.6055 27.7559 25.7675 28.5238C23.6452 30.4625 21.542 32.419 19.4633 34.3958C18.6334 35.1839 18.6416 36.1039 19.4334 36.9047C20.0809 37.5611 20.7639 38.1922 21.4685 38.7979C22.3147 39.5252 23.2942 39.5658 24.1077 38.8283C26.3035 36.8338 28.472 34.8114 30.6132 32.7662C31.3288 32.0845 31.2309 31.1189 30.4663 30.4296C30.2976 30.5766 30.1208 30.721 29.9548 30.8756C28.7495 31.9958 27.5578 33.1261 26.3388 34.231C25.6613 34.8443 24.7907 34.8596 24.2247 34.3172C23.6806 33.7926 23.7132 33.0222 24.3227 32.3962C24.5812 32.1326 24.8614 31.8868 25.1335 31.6359C26.2327 30.612 27.3319 29.5882 28.472 28.5288L28.4692 28.5263Z" fill="white"/>
</svg>
