<svg width="61" height="61" viewBox="0 0 61 61" fill="none" xmlns="http://www.w3.org/2000/svg">
<path d="M60.255 30.1011C60.255 13.4767 46.7783 0 30.1539 0C13.5295 0 0.0527344 13.4767 0.0527344 30.1011C0.0527344 46.7255 13.5295 60.2023 30.1539 60.2023C46.7783 60.2023 60.255 46.7255 60.255 30.1011Z" fill="url(#paint0_linear_171320_9037)"/>
<path d="M30.1538 44.0771C40.7561 44.0771 49.351 37.3073 49.351 28.9563C49.351 20.6053 40.7561 13.8354 30.1538 13.8354C19.5514 13.8354 10.9565 20.6053 10.9565 28.9563C10.9565 37.3073 19.5514 44.0771 30.1538 44.0771Z" fill="white"/>
<path d="M19.3101 38.1736C19.7518 41.6676 19.5912 46.3465 19.5912 46.3465L27.9448 41.3062L19.3101 38.1736Z" fill="white"/>
<defs>
<linearGradient id="paint0_linear_171320_9037" x1="3.7476" y1="-2.04824" x2="47.1824" y2="50.8245" gradientUnits="userSpaceOnUse">
<stop stop-color="#08F053"/>
<stop offset="1" stop-color="#4CAF50"/>
</linearGradient>
</defs>
</svg>
