<svg width="61" height="61" viewBox="0 0 61 61" fill="none" xmlns="http://www.w3.org/2000/svg">
<path d="M30.6275 60.2023C47.2519 60.2023 60.7286 46.7255 60.7286 30.1011C60.7286 13.4767 47.2519 0 30.6275 0C14.0031 0 0.526367 13.4767 0.526367 30.1011C0.526367 46.7255 14.0031 60.2023 30.6275 60.2023Z" fill="url(#paint0_linear_171320_9036)"/>
<path d="M20.9014 32.2998L24.4734 42.1864C24.4734 42.1864 24.9194 43.1095 25.3965 43.1095C25.8737 43.1095 32.9865 35.7113 32.9865 35.7113L40.893 20.4377L21.0263 29.749L20.897 32.2998H20.9014Z" fill="#C8DAEA"/>
<path d="M25.6376 34.8372L24.9508 42.1239C24.9508 42.1239 24.6654 44.358 26.8951 42.1239C29.1293 39.8897 31.2654 38.1683 31.2654 38.1683L25.6376 34.8372Z" fill="#A9C6D8"/>
<path d="M20.9684 32.652L13.6238 30.2573C13.6238 30.2573 12.7453 29.9005 13.0307 29.0934C13.0886 28.9284 13.2046 28.7857 13.5569 28.5404C15.1846 27.4077 43.6848 17.16 43.6848 17.16C43.6848 17.16 44.4875 16.8879 44.9646 17.0708C45.1831 17.151 45.3214 17.2447 45.4373 17.5881C45.4819 17.7129 45.5042 17.976 45.4998 18.2347C45.4998 18.422 45.473 18.6004 45.4552 18.8724C45.2812 21.6729 40.086 42.5742 40.086 42.5742C40.086 42.5742 39.7738 43.7961 38.6635 43.8407C38.2576 43.8541 37.7626 43.7738 37.174 43.2654C34.9889 41.3836 27.4346 36.3087 25.7668 35.1939C25.6731 35.1314 25.6464 35.0512 25.6285 34.9709C25.6063 34.855 25.7311 34.7078 25.7311 34.7078C25.7311 34.7078 38.882 23.0196 39.2298 21.7933C39.2566 21.6997 39.154 21.6506 39.0157 21.6907C38.1417 22.0118 23.0019 31.5728 21.3297 32.6297C21.2316 32.6921 20.9595 32.652 20.9595 32.652H20.9684Z" fill="white"/>
<defs>
<linearGradient id="paint0_linear_171320_9036" x1="30.6275" y1="60.2023" x2="30.6275" y2="0" gradientUnits="userSpaceOnUse">
<stop stop-color="#1D93D2"/>
<stop offset="1" stop-color="#38B0E3"/>
</linearGradient>
</defs>
</svg>
