<svg width="61" height="61" viewBox="0 0 61 61" fill="none" xmlns="http://www.w3.org/2000/svg">
<path d="M30.1011 60.2023C46.7255 60.2023 60.2023 46.7255 60.2023 30.1011C60.2023 13.4767 46.7255 0 30.1011 0C13.4767 0 0 13.4767 0 30.1011C0 46.7255 13.4767 60.2023 30.1011 60.2023Z" fill="url(#paint0_linear_171320_9035)"/>
<path fill-rule="evenodd" clip-rule="evenodd" d="M44.5807 15.9916C40.9775 12.3839 36.1792 10.395 31.0731 10.395C20.5489 10.395 11.9823 18.9571 11.9779 29.4814C11.9779 32.8438 12.8564 36.1304 14.5287 39.0245L11.8218 48.9156L21.9447 46.2622C24.7318 47.7829 27.8757 48.5855 31.0687 48.5855H31.0776C41.6018 48.5855 50.1684 40.0235 50.1728 29.4947C50.1728 24.3932 48.1884 19.5993 44.5852 15.9916H44.5807ZM31.0731 45.3614H31.0687C28.2191 45.3614 25.4275 44.5944 22.9926 43.1495L22.4129 42.8061L16.4061 44.3803L18.0115 38.5251L17.6324 37.9231C16.0449 35.399 15.2065 32.4781 15.2065 29.4814C15.2065 20.732 22.3282 13.6147 31.0865 13.6147C35.3274 13.6147 39.3097 15.2692 42.3064 18.2659C45.3032 21.2671 46.9531 25.2494 46.9487 29.4903C46.9487 38.2397 39.827 45.3569 31.0776 45.3569L31.0731 45.3614ZM39.7779 33.477C39.3008 33.2362 36.9551 32.0857 36.5181 31.9251C36.0811 31.7646 35.7644 31.6843 35.4434 32.1659C35.1267 32.6431 34.2126 33.7178 33.9316 34.0344C33.6551 34.3511 33.3742 34.3912 32.897 34.1548C32.4199 33.914 30.8814 33.4146 29.0619 31.7869C27.6438 30.5204 26.685 28.9596 26.4086 28.4825C26.1321 28.0053 26.3773 27.7466 26.6182 27.5103C26.8322 27.2962 27.0953 26.9529 27.3317 26.6764C27.568 26.3999 27.6483 26.1992 27.8088 25.8826C27.9694 25.566 27.8891 25.285 27.7687 25.0487C27.6483 24.8079 26.694 22.4622 26.2971 21.5079C25.9091 20.5759 25.5167 20.7052 25.2224 20.6874C24.9459 20.674 24.6248 20.6695 24.3082 20.6695C23.9916 20.6695 23.4743 20.7899 23.0372 21.2671C22.6002 21.7443 21.3694 22.8993 21.3694 25.2449C21.3694 27.5906 23.0774 29.8604 23.3182 30.177C23.5545 30.4937 26.6806 35.3143 31.47 37.379C32.6072 37.8695 33.499 38.1639 34.1903 38.3824C35.3319 38.7436 36.3754 38.6945 37.1959 38.5697C38.1146 38.4314 40.0187 37.4147 40.4156 36.2998C40.8125 35.185 40.8125 34.2307 40.6921 34.03C40.5717 33.8293 40.2551 33.7134 39.7779 33.4726V33.477Z" fill="white"/>
<defs>
<linearGradient id="paint0_linear_171320_9035" x1="30.1011" y1="55.8276" x2="30.1011" y2="-4.3747" gradientUnits="userSpaceOnUse">
<stop stop-color="#78CD51"/>
<stop offset="1" stop-color="#A0FC84"/>
</linearGradient>
</defs>
</svg>
