<svg width="214" height="39" viewBox="0 0 214 39" fill="none" xmlns="http://www.w3.org/2000/svg">
<path d="M17.5164 0.585834L17.8094 4.62809H17.9265C19.6255 1.46459 22.0274 0 25.0737 0C28.9402 0 30.9906 1.58175 32.3381 4.62809H32.4552C34.8571 0.937335 37.6691 0 40.1297 0C47.4526 0 48.8586 5.03817 48.8586 10.2521V28.12H39.4852V12.4197C39.4852 9.9006 39.6024 7.44009 36.9076 7.44009C34.2127 7.44009 33.6269 9.66626 33.6269 12.2439V28.12H24.2535V12.4197C24.2535 9.9006 24.3707 7.44009 21.6759 7.44009C18.981 7.44009 18.3952 9.66626 18.3952 12.2439V28.12H9.13902V11.5995C6.79568 11.6581 4.27659 10.3107 4.39376 6.79568C1.7575 6.61993 0 4.80384 0 1.406V0.585834H17.5164Z" fill="#E72270"/>
<path d="M60.8683 28.5887C56.416 28.5887 52.0808 26.5969 52.0808 20.5042C52.0808 9.5491 68.4842 14.8216 68.4842 8.96326C68.4842 7.61585 67.664 6.79568 65.555 6.79568C63.446 6.79568 62.04 8.02593 61.5713 10.6036L53.1939 9.25618C54.6585 2.75342 59.6381 0 65.9065 0C73.1123 0 77.8575 2.34334 77.8575 10.1935V18.1023C77.8575 18.981 78.0333 25.9525 78.209 28.12H69.8316L69.4801 25.0737H69.3629C67.3711 27.5342 64.3833 28.5887 60.8683 28.5887ZM61.6885 19.5669C61.6885 21.2072 62.8602 22.086 64.5005 22.086C67.1368 22.086 68.6013 20.387 68.6013 17.7508V15.5246C66.1408 17.4579 61.6885 16.3448 61.6885 19.5669Z" fill="#E72270"/>
<path d="M94.9 31.6936C97.8877 31.6936 99.4109 30.4634 99.4109 26.9484V23.7849H99.2937C97.8877 25.7181 95.1343 27.1827 92.088 27.1827C84.8822 27.1827 81.4844 21.4415 81.4844 13.6499C81.4844 5.85834 85.3509 0 92.4981 0C95.6616 0 98.2392 1.93325 99.5867 3.63217H99.7038L99.8796 0.585834H108.784V24.0192C108.784 34.3299 103.98 38.4893 94.7828 38.4893C89.7446 38.4893 84.8822 36.7318 82.5389 30.8735L90.4476 28.8816C91.2678 30.8149 92.5566 31.6936 94.9 31.6936ZM99.7038 13.7085C99.7038 9.37335 98.2978 7.20576 95.4272 7.20576C92.5566 7.20576 91.0335 9.37335 91.0335 13.7085C91.0335 18.0437 92.4981 20.387 95.4272 20.387C98.3564 20.387 99.7038 18.2194 99.7038 13.7085Z" fill="#E72270"/>
<path d="M131.105 0C137.607 0 139.13 4.92101 139.13 10.6622V28.12H129.757V12.4783C129.757 9.95918 129.64 7.44009 126.476 7.44009C123.489 7.44009 122.844 9.95918 122.844 12.5369V28.12H113.471V0.585834H122.376L122.61 4.45234H122.727C125.012 1.406 127.648 0 131.105 0Z" fill="#E72270"/>
<path d="M151.726 28.7055C145.34 28.7055 143.817 23.7845 143.817 18.0433V0.585449H153.19V16.2272C153.19 18.7463 153.308 21.2654 156.354 21.2654C159.225 21.2654 159.869 18.7463 159.869 16.1686V0.585449H169.242V28.1197H160.338L160.103 24.2532H159.986C157.76 27.2995 155.124 28.7055 151.726 28.7055Z" fill="#E72270"/>
<path d="M182.365 0.585834L182.658 4.62809H182.775C184.474 1.46459 186.993 0 190.039 0C193.964 0 196.015 1.58175 197.362 4.62809H197.479C199.881 0.937335 202.752 0 205.213 0C212.594 0 214 5.03817 214 10.2521V28.12H204.627V12.4197C204.627 9.9006 204.744 7.44009 201.99 7.44009C199.237 7.44009 198.651 9.66626 198.651 12.2439V28.12H189.278V12.4197C189.278 9.9006 189.395 7.44009 186.642 7.44009C183.888 7.44009 183.302 9.66626 183.302 12.2439V28.12H173.929V0.585834H182.365Z" fill="#E72270"/>
</svg>
