<svg width="159" height="35" viewBox="0 0 159 35" fill="none" xmlns="http://www.w3.org/2000/svg">
<path fill-rule="evenodd" clip-rule="evenodd" d="M0 23.3477L6.62352 22.6899C7.02198 24.904 7.82267 26.5279 9.03686 27.5692C10.251 28.6104 11.8862 29.1292 13.9462 29.1292C16.1227 29.1292 17.7655 28.6668 18.8706 27.7421C19.9758 26.8174 20.5322 25.7385 20.5322 24.5018C20.5322 23.7048 20.2991 23.0282 19.8367 22.4643C19.3744 21.908 18.5586 21.4231 17.4008 21.0171C16.6114 20.7351 14.8108 20.2502 11.9915 19.5435C8.36774 18.6338 5.82283 17.5249 4.35679 16.2017C2.2968 14.3447 1.27057 12.0817 1.27057 9.41277C1.27057 7.69862 1.7555 6.08597 2.71782 4.58985C3.68767 3.09373 5.08229 1.95849 6.90545 1.1766C8.72861 0.390946 10.9239 0 13.5064 0C17.7128 0 20.8818 0.932255 23.0056 2.80428C25.137 4.67631 26.246 7.16483 26.355 10.2886L19.5435 10.5255C19.2541 8.78876 18.6338 7.54074 17.6865 6.7814C16.7392 6.02207 15.3145 5.63864 13.42 5.63864C11.5254 5.63864 9.92776 6.04462 8.82259 6.86034C8.10836 7.38661 7.75125 8.08205 7.75125 8.95792C7.75125 9.7586 8.08956 10.439 8.76244 11.0029C9.61576 11.7321 11.6908 12.4839 14.9875 13.2658C18.2842 14.0402 20.7201 14.8559 22.2914 15.6867C23.874 16.525 25.1107 17.6602 26.0016 19.1075C26.8925 20.5547 27.3399 22.3403 27.3399 24.4642C27.3399 26.3888 26.8061 28.2007 25.7347 29.881C24.6634 31.5651 23.1522 32.8169 21.1938 33.6326C19.2353 34.4558 16.7919 34.8618 13.8748 34.8618C9.62327 34.8618 6.35662 33.8845 4.07861 31.9184C1.80061 29.96 0.447332 27.103 0 23.3515L0 23.3477ZM33.0274 34.2453V0.608973H43.2295L49.2591 23.5507L55.2135 0.608973H65.4383V34.2453H59.1418L59.1192 7.76628L52.4882 34.2453H45.9436L39.3427 7.76628L39.3201 34.2453H33.0236H33.0274ZM102.552 34.2453H95.214L92.3082 26.5881H78.8169L76.0201 34.2453H68.8177L81.8843 0.608973H89.0792L102.556 34.2453H102.552ZM90.1054 20.9043L85.4329 8.4542L80.8919 20.9043H90.1092H90.1054ZM106.367 34.2453V0.890905H113.179V28.5616H130.046V34.2453H106.367ZM135.06 34.2453V0.890905H141.872V28.5616H158.735V34.2453H135.057H135.06Z" fill="#E30613"/>
</svg>
