<svg width="18" height="72" viewBox="0 0 18 72" fill="none" xmlns="http://www.w3.org/2000/svg">
<path d="M12.4124 42.7473C12.1251 44.2703 11.9243 44.486 11.206 44.0724C10.3001 43.555 10.3261 43.7 10.6024 38.2111C10.9186 32.1482 10.9193 32.1322 11.9422 32.9103C12.7942 33.5694 13.0832 39.3055 12.4124 42.7473Z" fill="white"/>
<path d="M12.1278 1.1627C12.4936 1.9774 12.4896 2.07317 12.0429 6.27582C11.8834 7.80418 11.7306 9.94042 11.7174 11.0272C11.673 14.7829 9.95303 13.0805 9.82841 9.1579C9.6265 2.86562 10.8972 -1.54275 12.1278 1.1627Z" fill="white"/>
<path d="M10.0035 55.6786C9.63383 56.8784 9.54608 57.4503 9.53877 57.6259C9.52616 57.9292 13.3498 59.4154 14.1479 59.4486C14.1798 59.45 16.8461 60.3124 12.3497 63.0834C9.1495 65.0609 7.97702 65.9555 4.86664 68.8481C1.93914 71.5725 1.89059 71.5864 1.33652 70.6839C0.901519 69.9943 0.91345 69.3233 1.33688 65.6793C1.70978 62.4809 1.63984 60.7032 0.952597 57.2368C0.449638 54.7216 0.562683 54.3105 1.61354 54.8019C2.53868 55.2401 6.99945 56.7849 7.09921 56.6931C7.29872 56.5095 8.53483 52.1638 9.04015 50.0102C9.60465 47.5873 11.026 49.5493 11.09 50.7032C11.1106 51.7434 10.7602 53.2477 10.0035 55.6786Z" fill="white"/>
<path d="M11.9363 18.4551C12.5317 21.8217 12.7549 28.3707 12.2601 28.3501C11.1587 28.3043 10.8242 27.507 10.6451 24.5095C10.2789 18.3224 9.6856 17.594 10.6978 17.0924C11.2033 16.8576 11.7533 17.4721 11.9363 18.4551Z" fill="white"/>
</svg>
