<svg width="1919" height="982" viewBox="0 0 1919 982" fill="none" xmlns="http://www.w3.org/2000/svg">
<path d="M131.5 20L0 34V674L88.5 707.5L166 728.5L213 707.5L328.5 747L432 767H528.5H622.5L742.5 788L841 815L1022 834.5L1119.5 855L1196.5 889.5L1250.5 871.5L1370.5 909.5L1504.5 928L1681 934L1744.5 954L1848 968L1918.5 982V26.5L1865 20H1762.5L1658.5 34.5L1579.5 26.5L1480.5 12.5L1453 26.5L1357 12.5L1119.5 20L1005 45L914 28.5H771.5H683.5L528.5 20L455 0.5L363 11.5L238.5 28.5L201 11.5L131.5 20Z" fill="url(#paint0_linear_171375_13734)"/>
<defs>
<linearGradient id="paint0_linear_171375_13734" x1="959" y1="-257" x2="808" y2="806.5" gradientUnits="userSpaceOnUse">
<stop stop-color="#2A2B81"/>
<stop offset="1" stop-color="#2A2B81" stop-opacity="0"/>
</linearGradient>
</defs>
</svg>
