<svg width="1920" height="65" viewBox="0 0 1920 65" fill="none" xmlns="http://www.w3.org/2000/svg">
<path d="M1895.97 17.9604C1896.68 23.5745 1910.24 22.0714 1913.43 22.0072C1921.48 20.4184 1930.68 23.6473 1938.45 21.1679C1944.2 19.1766 1949.25 16.6757 1955.31 16.9283C1960.5 21.7032 1965.82 16.0547 1970.72 17.7634C1974.11 18.6884 1977.42 22.748 1980.79 21.0522C1981.96 21.3434 1982.33 21.1936 1983.37 21.7974C1984.04 21.6132 1984.34 21.1379 1985.28 23.6131C1987.49 21.4762 1992.91 23.7972 1995.23 23.7501C1998.58 24.5937 2001.14 23.8957 2004.01 21.7802C2006.85 20.0373 2008.03 16.5558 2011.77 19.8189C2014.1 17.3994 2023.32 17.7334 2025.77 20.397C2027.2 24.0456 2026.41 22.838 2027.05 23.9899C2027.82 25.0862 2029.49 27.2531 2031.17 27.0989C2035.91 30.2122 2043.91 30.7603 2049.04 27.934C2056.08 30.4049 2064.49 32.3063 2071.17 28.4393C2073.51 28.5592 2073.58 27.1417 2075.92 23.2833C2077.64 18.8939 2079.98 23.6002 2081.94 22.8294C2085.31 23.2534 2091.26 22.7138 2094.23 22.3626C2097.12 19.6348 2097.31 20.3714 2100.86 18.9282C2108.42 17.6007 2116.21 19.4507 2123.4 18.0332C2128.13 16.7142 2133.98 19.198 2138.85 17.8148C2144.85 9.99952 2154.29 22.1699 2158.81 15.2625C2160.44 13.0314 2161.3 9.2287 2163.8 11.4769C2165.23 12.0294 2166.57 9.98239 2167.96 9.31863C2173.31 8.74051 2176.45 13.8922 2181.5 11.4769C2184.08 16.089 2186.47 12.6674 2188.88 11.4512C2192.12 10.432 2196.54 11.19 2199.69 11.2714C2202.05 8.69341 2203.45 10.098 2206.11 7.83694C2208.21 6.50941 2210.44 8.99745 2212.57 7.58856C2218.73 7.16889 2225.26 12.6417 2231.42 9.07454C2236.46 6.66358 2241.9 4.76222 2247.25 5.28466C2246.71 12.0936 2266.23 4.2826 2270.55 9.21158C2277.06 12.5989 2283.14 6.26104 2289.43 6.32528C2294.64 0.137288 2300.03 7.76843 2305.51 5.40886C2309.44 4.23549 2312.05 4.30401 2315.67 6.77921C2317.73 8.71911 2316.63 8.30801 2318.88 8.14099C2319.69 14.3161 2320.73 8.89469 2321.42 8.12815C2324.93 11.1044 2328.78 6.62076 2332.17 8.27803C2334.57 6.36382 2336.51 7.76415 2338.51 4.89498C2342.32 5.98269 2346.08 2.4155 2350.51 1.66609C2356.79 1.83738 2363.08 3.42614 2368.92 0.693999C2373.79 -1.7084 2379.38 2.83517 2384.2 3.13494C2386.92 5.67437 2387.49 4.24407 2389.73 5.04486C2390.95 4.65945 2392.05 8.57352 2393.36 5.89705C2396.66 4.5267 2400.05 3.95287 2403.46 5.88421C2406.79 9.89248 2410.05 4.11988 2413.3 5.79428C2416.8 -1.12171 2420.09 8.25663 2423.7 8.68486C2430.24 7.25028 2437.31 6.23964 2444.02 8.7234C2446.68 7.93117 2449.95 9.05315 2452.54 9.03602C2455.34 9.12166 2455.75 11.9009 2457.94 13.5496C2462.49 17.6007 2470.13 10.6034 2475.21 14.0892C2477.67 12.4019 2479.23 17.6221 2481.91 15.481C2486.65 17.1425 2486.17 16.1747 2489.76 18.9582C2493.77 23.4461 2501.42 19.9432 2505.36 18.5899C2508.37 14.3761 2509.9 16.6372 2511.29 15.3568C2512.74 14.8001 2512.78 12.2692 2515.46 9.6227C2517.76 9.14736 2519.5 3.75589 2522.66 5.0877C2526.14 2.58253 2528.55 6.42379 2531.22 6.39382C2535.59 11.2072 2541.93 7.19033 2546.4 6.58224C2552.55 5.28041 2558.8 7.47725 2564.96 6.67217C2569.42 9.5285 2573.72 6.89485 2578.1 6.72356C2580.55 7.08328 2585.03 5.50737 2585.04 9.18591C2589.57 11.1686 2594.74 10.1494 2599.31 9.67838C2599.74 12.4491 2599.05 15.1384 2599.65 15.8578C2603.88 13.7723 2608.14 20.4956 2612.54 18.8554C2615.67 19.5578 2618.72 15.3268 2621.95 18.8383C2629.12 19.986 2636.18 16.8042 2643.39 18.9411C2646.23 19.4079 2648.05 19.5535 2650.5 20.4099C2654.23 21.9473 2656.65 25.9813 2660.88 22.9879C2664.85 23.96 2668.69 21.669 2672.54 22.3713C2677.18 22.3541 2675.7 24.3411 2678.98 24.4953C2681.41 27.6814 2686 22.928 2688.57 24.4439C2692.78 19.8275 2697.4 27.2788 2701.66 24.5338C2705.35 23.1164 2705.62 23.4119 2708.37 20.6369C2711.27 22.5683 2715.22 19.2837 2718.61 17.9819C2722.3 15.421 2725.39 18.9026 2729.08 16.4231C2731.62 17.241 2732.47 12.9544 2735.05 16.2861C2736.83 16.0205 2737.55 17.3181 2739.15 19.8532C2740.94 25.0392 2741.46 22.337 2743.53 20.7697C2746.04 21.9602 2748.46 19.5021 2750.98 20.7825C2753.7 18.0889 2756.68 24.551 2759.37 20.8211C2762.12 22.7909 2766.26 20.6369 2768.68 20.7311C2770.96 19.5321 2772.48 20.2772 2775.03 23.8958C2777.95 25.4674 2779.33 28.2723 2782.3 23.9643C2788.34 20.9538 2792.04 19.4293 2799.26 17.0569C2804.23 18.667 2809.05 14.8857 2814.04 17.1211C2818.34 18.3373 2821.45 12.3806 2825.66 15.8321C2829.07 15.451 2832.55 16.6543 2835.96 15.9135C2839.25 16.5173 2842.62 18.8598 2845.81 15.9906C2848 16.0719 2851.59 17.468 2853.39 14.7787C2858.47 9.46857 2861.8 8.92043 2867.68 8.14532C2870.61 7.84128 2873.52 5.23333 2876.48 7.8841C2878.88 10.4792 2881.13 6.85634 2883.48 5.5074C2889.12 3.56322 2895.99 4.7794 2899.53 9.58848C2904.03 15.4681 2909.94 15.1941 2916.94 14.9928C2920.21 12.7317 2923.01 16.4488 2926.2 16.3888C2926.89 13.9136 2928.21 15.1684 2928.92 16.2689C2930.21 16.4831 2929.98 16.74 2931 18.196C2936.3 22.0886 2941.67 22.8509 2946.04 16.4488C2946.04 16.5901 2947.94 25.0349 2949.74 30.3407C2951.58 36.8756 2953.43 43.6203 2953.44 44.2327C2949.4 41.6504 2945.32 36.6015 2941.1 36.0834C2938.77 37.064 2933.35 33.6852 2931.09 36.1005C2927.41 36.8071 2925.17 40.9053 2921.68 38.0233C2918.13 39.9203 2914.53 41.1751 2910.94 37.8091C2907.09 36.2247 2904.26 27.4587 2900.23 32.028C2894.1 31.8738 2890.3 31.1843 2885.32 26.932C2880.19 22.5897 2872.52 27.0433 2866.91 29.7712C2861.74 30.4135 2856.33 33.8308 2850.79 30.3236C2845.38 31.6897 2839.98 31.21 2835.04 32.2635C2829.38 37.3937 2823.77 39.7019 2817.11 37.9933C2811.04 36.7814 2805.64 34.1006 2799.55 38.2117C2796.57 34.3404 2794.5 38.0104 2791.68 39.3893C2785.42 40.4727 2779.7 41.6161 2773.74 43.449C2768.97 44.8921 2766.48 51.6925 2761.89 51.033C2758.67 57.4437 2754.54 48.2024 2751.14 51.0501C2747.49 49.2002 2744.83 51.7439 2741.14 53.915C2737.86 50.4249 2734.56 55.2126 2731.3 53.7266C2725.08 54.1677 2715.92 55.5552 2710.3 52.0436C2708.6 53.8122 2707.54 53.5553 2705.37 48.515C2702.89 48.5321 2699.79 51.6026 2697.13 48.3094C2693.91 48.2966 2692.49 43.5603 2689.49 45.5473C2687.96 43.1406 2686.66 45.3246 2685.21 45.346C2684.54 45.2476 2683.3 47.3844 2682.12 42.5582C2679.54 42.3912 2676.04 44.8878 2673.17 40.5755C2670.81 38.8797 2668.63 35.6722 2666.34 39.2651C2663.57 42.1214 2662.92 46.0655 2659.43 44.1299C2657.29 43.5689 2655.97 42.3912 2654.38 40.0445C2650.86 34.8029 2646.01 39.5006 2641.94 38.7598C2633.81 36.897 2625.62 34.4518 2617.66 38.6313C2615.6 37.8305 2614.02 38.7983 2612.03 38.0917C2608.97 34.6145 2609.18 36.443 2605.82 34.456C2600.28 34.7686 2594.57 38.9439 2588.83 35.8821C2585.58 31.0773 2583.07 35.4453 2579.86 34.4517C2578.01 36.3874 2575.58 36.1476 2573.77 33.9978C2571.51 31.801 2572.43 30.2765 2571.15 28.0068C2568.97 25.5488 2561.54 24.9535 2557.72 26.4566C2554.41 31.3513 2550.89 29.2401 2547.35 26.3924C2542.27 24.3069 2538.56 25.6215 2534.45 29.2401C2532.16 36.6272 2530.85 31.1843 2528.24 32.9529C2525.72 31.4669 2524.25 36.7556 2522.01 35.8906C2518.27 39.0381 2513.3 35.6551 2508.33 39.8047C2503.29 41.0851 2498.07 42.8922 2493.37 39.3507C2487.65 40.447 2481.76 38.4557 2476.26 37.9461C2473.38 34.1563 2473.54 35.2054 2470.56 36.67C2467.6 36.0062 2466.33 35.5523 2463.87 34.1477C2459.94 38.7384 2454.75 37.398 2450.38 33.8565C2446.32 35.4024 2442.12 33.9935 2438.01 33.7323C2432.45 31.8438 2426.57 35.6808 2420.63 36.2418C2414.58 33.1627 2408.61 31.6382 2403.26 33.6552C2401.5 30.8117 2400.42 32.5118 2398.86 29.9381C2398.59 32.2121 2396.11 27.6642 2395.92 27.2146C2392.48 24.3197 2389.36 28.2894 2386.25 28.1481C2382.08 29.4285 2378.55 25.6001 2374.93 30.8546C2372.17 32.075 2369.46 33.865 2366.05 37.1753C2362.22 37.6721 2358.88 37.1325 2355.4 35.6465C2351.9 35.3382 2350.15 35.4238 2347.4 38.1774C2345.83 41.5304 2345.86 42.7509 2343.37 39.5477C2340.96 41.7274 2338.17 32.1264 2335.79 34.4903C2332.38 32.3919 2328.36 34.319 2324.68 33.5396C2319.76 34.7601 2314.77 40.1729 2309.44 34.7129C2304.23 33.3383 2299.12 36.306 2294 34.4175C2292.05 38.1517 2287.47 31.013 2285.85 34.2462C2284.09 32.696 2284.2 32.6831 2282.31 28.9104C2280.36 22.6881 2276.76 22.7609 2274.69 27.6257C2271.64 27.6771 2269.73 27.6299 2266.53 29.0003C2262.87 34.0663 2258.82 29.253 2255.03 29.0817C2251.14 29.4542 2248.72 28.7519 2245.02 26.4694C2239.56 24.0328 2236.57 27.6899 2232.56 30.5591C2230.23 34.1134 2229.83 32.1992 2227.05 33.3854C2225.3 36.3616 2223.66 33.5053 2221.84 36.4773C2218.56 35.2354 2214.48 40.0059 2210.98 36.6528C2207.65 37.869 2205.56 35.7064 2202.56 35.1711C2200.47 35.8949 2199.21 32.272 2197.71 36.8884C2195.18 41.6161 2194.93 33.4154 2191.9 39.2651C2187.77 34.8328 2183.66 39.2308 2179.62 39.1494C2177.66 41.6632 2175.24 38.1602 2173.25 39.1751C2170.06 39.6334 2171.53 38.3187 2168.98 36.7513C2165.87 33.4068 2162.88 30.3578 2159.13 35.0898C2156.18 32.1778 2153.36 33.9635 2150.52 35.0512C2148.29 35.6893 2145.91 34.7301 2143.73 35.2439C2141.61 33.5096 2139.7 36.8627 2137.51 38.0275C2135.4 41.2692 2132.94 37.4065 2130.8 39.4021C2126.84 38.0617 2124.08 43.6416 2120.22 45.2261C2116.5 51.2299 2112.03 45.4145 2108.05 45.6029C2104.97 48.3179 2102.59 44.922 2099.53 49.0759C2097.38 42.6567 2095.68 50.4805 2093.8 49.9195C2092.57 49.6112 2091.44 55.3324 2089.96 52.065C2088.81 53.9878 2087.24 48.4164 2086.11 51.8337C2082.24 51.3242 2081.01 51.6967 2078.22 55.872C2072.14 59.5934 2065.06 64.5523 2057.27 59.6961C2053.32 60.5526 2049.31 59.3407 2045.34 59.6362C2039.98 61.9701 2034.46 58.8011 2029.05 59.5206C2023.68 61.5675 2018.19 59.5163 2012.76 59.4734C2009.52 58.5014 2007.27 57.0368 2004.39 58.086C2002.15 57.0282 1999.71 60.2057 1997.41 58.1759C1993.33 59.5077 1987.62 60.6083 1983.98 54.3389C1982.4 52.0864 1981.91 49.35 1980.63 51.2C1979.84 52.6602 1978.96 51.277 1978.06 48.7376C1976.56 45.3931 1975.88 43.359 1976.09 44.6437C1971.57 40.2457 1959.44 44.2026 1952.57 41.7188C1947.64 40.8581 1942.74 39.2265 1937.5 40.7168C1934.61 42.7338 1933 38.8283 1930.28 38.1645C1926.44 37.3508 1921.83 39.9631 1917.87 37.8776C1912.47 36.7556 1907.29 40.7425 1901.93 38.46C1896.63 38.2501 1891.3 37.0896 1885.98 39.0466C1885.95 37.9161 1895.99 18.8982 1895.96 17.9561L1895.97 17.9604Z" fill="white" style="fill:white;fill-opacity:1;"/>
<path d="M845.027 20.9836C844.319 26.5978 830.764 25.0946 827.571 25.0304C819.517 23.4417 810.322 26.6706 802.547 24.1911C796.801 22.1998 791.747 19.6989 785.688 19.9515C780.496 24.7264 775.184 19.0779 770.275 20.7866C766.89 21.7116 763.581 25.7713 760.209 24.0754C759.037 24.3666 758.672 24.2168 757.634 24.8206C756.956 24.6364 756.656 24.1611 755.72 26.6363C753.515 24.4994 748.091 26.8204 745.765 26.7733C742.423 27.6169 739.857 26.9189 736.995 24.8034C734.154 23.0605 732.97 19.579 729.233 22.8421C726.903 20.4226 717.682 20.7566 715.227 23.4202C713.798 27.0688 714.592 25.8612 713.948 27.0131C713.18 28.1094 711.511 30.2763 709.834 30.1221C705.092 33.2354 697.085 33.7835 691.958 30.9572C684.925 33.4281 676.51 35.3294 669.825 31.4625C667.487 31.5824 667.418 30.1649 665.084 26.3065C663.359 21.9171 661.016 26.6234 659.064 25.8526C655.687 26.2766 649.735 25.737 646.766 25.3858C643.883 22.658 643.694 23.3945 640.137 21.9514C632.576 20.6239 624.792 22.4738 617.601 21.0564C612.872 19.7374 607.024 22.2212 602.145 20.838C596.155 13.0227 586.706 25.1931 582.188 18.2857C580.558 16.0546 579.704 12.2519 577.202 14.5001C575.773 15.0525 574.434 13.0056 573.044 12.3418C567.689 11.7637 564.548 16.9153 559.498 14.5001C556.923 19.1122 554.529 15.6906 552.118 14.4744C548.878 13.4552 544.462 14.2132 541.313 14.2945C538.953 11.7166 537.55 13.1212 534.885 10.8601C532.787 9.53258 530.56 12.0206 528.428 10.6117C522.274 10.1921 515.744 15.6649 509.578 12.0977C504.544 9.68674 499.099 7.78538 493.748 8.30782C494.293 15.1168 474.77 7.30575 470.449 12.2347C463.94 15.6221 457.864 9.2842 451.569 9.34843C446.36 3.16044 440.97 10.7916 435.491 8.43201C431.56 7.25865 428.952 7.32716 425.334 9.80236C423.275 11.7423 424.373 11.3312 422.116 11.1641C421.305 17.3393 420.271 11.9178 419.576 11.1513C416.07 14.1275 412.217 9.64391 408.832 11.3012C406.429 9.38697 404.489 10.7873 402.49 7.91812C398.684 9.00584 394.916 5.43864 390.488 4.68923C384.206 4.86053 377.924 6.44928 372.084 3.71714C367.21 1.31474 361.623 5.85831 356.796 6.15808C354.084 8.69751 353.513 7.2672 351.274 8.068C350.051 7.68259 348.952 11.5967 347.635 8.92019C344.335 7.54984 340.95 6.976 337.543 8.90734C334.213 12.9156 330.948 7.14301 327.704 8.81741C324.203 1.90142 320.907 11.2798 317.303 11.708C310.763 10.2734 303.688 9.26277 296.977 11.7465C294.316 10.9543 291.051 12.0763 288.455 12.0591C285.662 12.1448 285.245 14.924 283.061 16.5727C278.509 20.6238 270.871 13.6265 265.795 17.1123C263.332 15.4251 261.774 20.6452 259.088 18.5041C254.351 20.1656 254.827 19.1978 251.24 21.9813C247.232 26.4692 239.582 22.9663 235.643 21.613C232.626 17.3992 231.099 19.6603 229.713 18.3799C228.262 17.8232 228.224 15.2923 225.538 12.6458C223.238 12.1705 221.496 6.779 218.342 8.11081C214.862 5.60564 212.45 9.4469 209.781 9.41693C205.409 14.2303 199.067 10.2134 194.596 9.60535C188.447 8.30352 182.204 10.5004 176.042 9.69528C171.584 12.5516 167.276 9.91796 162.903 9.74666C160.449 10.1064 155.974 8.53048 155.961 12.209C151.425 14.1917 146.259 13.1725 141.694 12.7015C141.256 15.4722 141.947 18.1615 141.35 18.8809C137.124 16.7954 132.863 23.5187 128.465 21.8785C125.328 22.5808 122.277 18.3499 119.055 21.8614C111.876 23.0091 104.818 19.8273 97.6134 21.9642C94.7728 22.431 92.9492 22.5766 90.499 23.433C86.766 24.9704 84.3544 29.0044 80.115 26.011C76.1459 26.9831 72.3057 24.692 68.4611 25.3943C63.8184 25.3772 65.3029 27.3642 62.0203 27.5184C59.5874 30.7045 55.0004 25.9511 52.4302 27.467C48.2165 22.8506 43.6039 30.3019 39.3387 27.5569C35.6486 26.1395 35.3783 26.435 32.6321 23.66C29.7272 25.5913 25.7794 22.3068 22.3939 21.0049C18.7037 18.4441 15.61 21.9256 11.9242 19.4462C9.3797 20.2641 8.53003 15.9775 5.9469 19.3091C4.17047 19.0436 3.44537 20.3412 1.84918 22.8763C0.0556008 28.0622 -0.463686 25.3601 -2.52765 23.7927C-5.04212 24.9832 -7.46198 22.5252 -9.98071 23.8056C-12.7012 21.112 -15.6791 27.5741 -18.3652 23.8441C-21.1156 25.814 -25.2651 23.66 -27.6851 23.7542C-29.9636 22.5551 -31.4782 23.3003 -34.027 26.9189C-36.9534 28.4905 -38.335 31.2954 -41.2957 26.9874C-47.3416 23.9769 -51.0361 22.4524 -58.2578 20.0799C-63.2266 21.6901 -68.0452 17.9088 -73.0355 20.1442C-77.3436 21.3604 -80.4503 15.4036 -84.6553 18.8552C-88.0666 18.4741 -91.5551 19.6774 -94.962 18.9366C-98.2532 19.5404 -101.617 21.8828 -104.81 19.0136C-107.002 19.095 -110.589 20.491 -112.391 17.8017C-117.472 12.4916 -120.802 11.9435 -126.684 11.1684C-129.611 10.8643 -132.524 8.25638 -135.477 10.9072C-137.884 13.5023 -140.132 9.87939 -142.479 8.53045C-148.122 6.58627 -154.992 7.80245 -158.532 12.6115C-163.033 18.4912 -168.941 18.2171 -175.94 18.0158C-179.214 15.7548 -182.007 19.4718 -185.195 19.4119C-185.89 16.9367 -187.212 18.1914 -187.916 19.292C-189.211 19.5061 -188.984 19.763 -190.001 21.219C-195.3 25.1117 -200.668 25.8739 -205.045 19.4718C-205.045 19.6132 -206.941 28.0579 -208.744 33.3638C-210.58 39.8986 -212.425 46.6433 -212.442 47.2557C-208.4 44.6734 -204.324 39.6246 -200.102 39.1064C-197.772 40.0871 -192.352 36.7083 -190.091 39.1235C-186.409 39.8301 -184.174 43.9283 -180.677 41.0463C-177.133 42.9434 -173.533 44.1981 -169.937 40.8322C-166.092 39.2477 -163.26 30.4818 -159.227 35.051C-153.099 34.8969 -149.298 34.2074 -144.316 29.955C-139.188 25.6127 -131.52 30.0664 -125.912 32.7942C-120.737 33.4366 -115.331 36.8539 -109.787 33.3466C-104.38 34.7127 -98.9783 34.2331 -94.0352 35.2866C-88.3798 40.4168 -82.7673 42.725 -76.1079 41.0163C-70.0363 39.8044 -64.6382 37.1237 -58.5452 41.2347C-55.5716 37.3635 -53.4991 41.0335 -50.6799 42.4124C-44.4152 43.4958 -38.6956 44.6392 -32.7355 46.472C-27.9683 47.9152 -25.4795 54.7156 -20.8926 54.0561C-17.6701 60.4668 -13.538 51.2254 -10.1354 54.0732C-6.4881 52.2232 -3.82776 54.7669 -0.14185 56.9381C3.14068 53.448 6.44476 58.2357 9.6972 56.7497C15.919 57.1908 25.0801 58.5782 30.6968 55.0667C32.4003 56.8353 33.4603 56.5784 35.6272 51.5381C38.1073 51.5552 41.2052 54.6256 43.8655 51.3325C47.088 51.3197 48.5083 46.5834 51.5076 48.5704C53.0395 46.1637 54.3354 48.3477 55.7944 48.3691C56.4595 48.2706 57.7038 50.4075 58.8795 45.5813C61.4626 45.4143 64.9554 47.9109 67.8347 43.5986C70.1903 41.9028 72.3657 38.6953 74.6613 42.2882C77.4332 45.1445 78.0813 49.0886 81.5655 47.1529C83.7067 46.592 85.0323 45.4143 86.6243 43.0676C90.1428 37.826 94.9915 42.5237 99.0593 41.7829C107.19 39.9201 115.378 37.4748 123.337 41.6544C125.401 40.8536 126.98 41.8214 128.971 41.1148C132.026 37.6376 131.82 39.4661 135.176 37.4791C140.724 37.7917 146.426 41.967 152.168 38.9052C155.42 34.1004 157.926 38.4684 161.136 37.4749C162.994 39.4105 165.422 39.1707 167.229 37.0209C169.49 34.8241 168.568 33.2996 169.855 31.0299C172.035 28.5719 179.462 27.9766 183.277 29.4797C186.593 34.3744 190.108 32.2632 193.648 29.4155C198.733 27.33 202.435 28.6447 206.546 32.2632C208.837 39.6503 210.146 34.2074 212.76 35.976C215.278 34.4901 216.754 39.7788 218.99 38.9137C222.727 42.0613 227.705 38.6782 232.669 42.8278C237.711 44.1082 242.933 45.9154 247.631 42.3739C253.347 43.4701 259.238 41.4789 264.744 40.9693C267.623 37.1794 267.456 38.2286 270.438 39.6931C273.403 39.0294 274.673 38.5754 277.131 37.1708C281.057 41.7615 286.245 40.4211 290.618 36.8796C294.681 38.4255 298.882 37.0167 302.988 36.7554C308.554 34.8669 314.428 38.7039 320.371 39.2649C326.416 36.1859 332.389 34.6614 337.736 36.6784C339.504 33.8349 340.581 35.535 342.143 32.9613C342.409 35.2352 344.893 30.6873 345.078 30.2377C348.523 27.3428 351.638 31.3126 354.754 31.1713C358.924 32.4517 362.447 28.6233 366.073 33.8777C368.832 35.0982 371.544 36.8882 374.947 40.1984C378.778 40.6952 382.121 40.1556 385.601 38.6696C389.102 38.3613 390.849 38.447 393.603 41.2005C395.174 44.5536 395.14 45.7741 397.628 42.5709C400.04 44.7506 402.833 35.1496 405.21 37.5134C408.617 35.4151 412.638 37.3421 416.315 36.5627C421.241 37.7832 426.231 43.1961 431.556 37.7361C436.765 36.3615 441.88 39.3291 447.003 37.4406C448.947 41.1748 453.534 34.0362 455.152 37.2693C456.907 35.7191 456.8 35.7063 458.692 31.9335C460.64 25.7113 464.24 25.7841 466.308 30.6488C469.359 30.7002 471.273 30.6531 474.474 32.0235C478.13 37.0895 482.18 32.2761 485.969 32.1048C489.857 32.4774 492.277 31.7751 495.975 29.4926C501.438 27.0559 504.433 30.7131 508.445 33.5822C510.77 37.1366 511.174 35.2224 513.95 36.4086C515.696 39.3848 517.34 36.5285 519.159 39.5004C522.442 38.2586 526.518 43.0291 530.019 39.676C533.353 40.8922 535.439 38.7296 538.438 38.1943C540.532 38.918 541.794 35.2952 543.287 39.9115C545.818 44.6392 546.067 36.4386 549.101 42.2882C553.233 37.856 557.335 42.254 561.377 42.1726C563.343 44.6864 565.758 41.1834 567.754 42.1983C570.942 42.6565 569.47 41.3418 572.023 39.7745C575.125 36.43 578.125 33.381 581.875 38.113C584.823 35.201 587.642 36.9867 590.482 38.0744C592.709 38.7125 595.087 37.7532 597.271 38.2671C599.386 36.5328 601.3 39.8859 603.488 41.0506C605.599 44.2924 608.058 40.4297 610.199 42.4253C614.159 41.0849 616.923 46.6648 620.776 48.2493C624.505 54.2531 628.967 48.4377 632.949 48.6261C636.026 51.3411 638.412 47.9452 641.471 52.0991C643.621 45.6799 645.32 53.5037 647.204 52.9427C648.427 52.6344 649.564 58.3556 651.044 55.0882C652.185 57.011 653.764 51.4396 654.893 54.8569C658.759 54.3473 659.99 54.7199 662.775 58.8952C668.855 62.6165 675.944 67.5755 683.728 62.7193C687.68 63.5758 691.692 62.3639 695.661 62.6594C701.024 64.9933 706.542 61.8243 711.949 62.5438C717.321 64.5907 722.809 62.5395 728.237 62.4966C731.477 61.5246 733.725 60.06 736.609 61.1092C738.853 60.0514 741.286 63.2289 743.59 61.1991C747.671 62.5309 753.382 63.6315 757.025 57.3621C758.6 55.1096 759.089 52.3732 760.367 54.2232C761.161 55.6834 762.037 54.3002 762.942 51.7608C764.444 48.4163 765.122 46.3822 764.911 47.6669C769.434 43.2689 781.556 47.2258 788.425 44.742C793.36 43.8813 798.256 42.2497 803.504 43.74C806.391 45.757 808.001 41.8515 810.717 41.1877C814.557 40.3741 819.174 42.9863 823.126 40.9008C828.532 39.7788 833.712 43.7657 839.067 41.4832C844.366 41.2734 849.695 40.1128 855.024 42.0699C855.054 40.9393 845.014 21.9214 845.039 20.9793L845.027 20.9836Z" fill="white" style="fill:white;fill-opacity:1;"/>
<path d="M845.507 20.9836C846.215 26.5978 859.77 25.0947 862.963 25.0304C871.016 23.4417 880.212 26.6706 887.987 24.1911C893.733 22.1998 898.787 19.6989 904.846 19.9516C910.038 24.7264 915.35 19.078 920.259 20.7866C923.644 21.7116 926.953 25.7713 930.325 24.0755C931.497 24.3667 931.861 24.2168 932.9 24.8206C933.578 24.6365 933.878 24.1611 934.814 26.6363C937.019 24.4994 942.443 26.8205 944.769 26.7734C948.111 27.617 950.677 26.919 953.539 24.8035C956.38 23.0606 957.564 19.579 961.301 22.8422C963.631 20.4227 972.852 20.7567 975.307 23.4203C976.736 27.0689 975.942 25.8612 976.585 27.0132C977.354 28.1095 979.023 30.2763 980.7 30.1222C985.442 33.2354 993.449 33.7836 998.576 30.9572C1005.61 33.4281 1014.02 35.3295 1020.71 31.4625C1023.05 31.5825 1023.12 30.165 1025.45 26.3066C1027.18 21.9172 1029.52 26.6235 1031.47 25.8527C1034.85 26.2766 1040.8 25.737 1043.77 25.3859C1046.65 22.658 1046.84 23.3946 1050.4 21.9515C1057.96 20.6239 1065.74 22.4739 1072.93 21.0564C1077.66 19.7375 1083.51 22.2212 1088.39 20.8381C1094.38 13.0228 1103.83 25.1932 1108.35 18.2858C1109.98 16.0547 1110.83 12.2519 1113.33 14.5002C1114.76 15.0526 1116.1 13.0056 1117.49 12.3419C1122.84 11.7638 1125.99 16.9154 1131.04 14.5002C1133.61 19.1123 1136 15.6907 1138.42 14.4745C1141.66 13.4553 1146.07 14.2133 1149.22 14.2946C1151.58 11.7167 1152.98 13.1213 1155.65 10.8602C1157.75 9.53266 1159.97 12.0207 1162.11 10.6118C1168.26 10.1921 1174.79 15.665 1180.96 12.0978C1185.99 9.68683 1191.43 7.78547 1196.79 8.30792C1196.24 15.1168 1215.76 7.30585 1220.08 12.2348C1226.59 15.6222 1232.67 9.2843 1238.96 9.34853C1244.17 3.16054 1249.56 10.7917 1255.04 8.43211C1258.97 7.25875 1261.58 7.32727 1265.2 9.80246C1267.26 11.7424 1266.16 11.3313 1268.42 11.1642C1269.23 17.3394 1270.26 11.9179 1270.96 11.1514C1274.46 14.1276 1278.32 9.64402 1281.7 11.3013C1284.11 9.38708 1286.04 10.7874 1288.04 7.91823C1291.85 9.00595 1295.62 5.43875 1300.05 4.68934C1306.33 4.86064 1312.61 6.44939 1318.45 3.71725C1323.32 1.31486 1328.91 5.85843 1333.74 6.15819C1336.45 8.69762 1337.02 7.26732 1339.26 8.06812C1340.48 7.68271 1341.58 11.5968 1342.9 8.92031C1346.2 7.54995 1349.58 6.97612 1352.99 8.90746C1356.32 12.9157 1359.59 7.14313 1362.83 8.81753C1366.33 1.90154 1369.63 11.2799 1373.23 11.7081C1379.77 10.2735 1386.85 9.2629 1393.56 11.7467C1396.22 10.9544 1399.48 12.0764 1402.08 12.0593C1404.87 12.1449 1405.29 14.9242 1407.47 16.5729C1412.03 20.624 1419.66 13.6266 1424.74 17.1124C1427.2 15.4252 1428.76 20.6454 1431.45 18.5042C1436.18 20.1658 1435.71 19.1979 1439.29 21.9815C1443.3 26.4694 1450.95 22.9664 1454.89 21.6132C1457.91 17.3994 1459.44 19.6604 1460.82 18.38C1462.27 17.8233 1462.31 15.2924 1465 12.646C1467.3 12.1706 1469.04 6.77914 1472.19 8.11095C1475.67 5.60578 1478.08 9.44705 1480.75 9.41707C1485.12 14.2304 1491.47 10.2136 1495.94 9.60549C1502.09 8.30366 1508.33 10.5005 1514.49 9.69542C1518.95 12.5517 1523.26 9.91811 1527.63 9.74681C1530.08 10.1065 1534.56 8.53063 1534.57 12.2092C1539.11 14.1919 1544.27 13.1727 1548.84 12.7016C1549.28 15.4723 1548.59 18.1616 1549.18 18.8811C1553.41 16.7956 1557.67 23.5188 1562.07 21.8787C1565.21 22.581 1568.26 18.35 1571.48 21.8616C1578.66 23.0092 1585.72 19.8275 1592.92 21.9644C1595.76 22.4311 1597.58 22.5767 1600.03 23.4332C1603.77 24.9706 1606.18 29.0045 1610.42 26.0112C1614.39 26.9833 1618.23 24.6922 1622.07 25.3945C1626.72 25.3774 1625.23 27.3644 1628.51 27.5186C1630.95 30.7046 1635.53 25.9512 1638.1 27.4672C1642.32 22.8508 1646.93 30.3021 1651.2 27.5571C1654.89 26.1396 1655.16 26.4351 1657.9 23.6602C1660.81 25.5915 1664.75 22.3069 1668.14 21.0051C1671.83 18.4443 1674.92 21.9258 1678.61 19.4463C1681.15 20.2643 1682 15.9776 1684.59 19.3093C1686.36 19.0438 1687.09 20.3413 1688.68 22.8765C1690.48 28.0624 1691 25.3603 1693.06 23.7929C1695.58 24.9834 1698 22.5253 1700.51 23.8058C1703.24 21.1122 1706.21 27.5742 1708.9 23.8443C1711.65 25.8142 1715.8 23.6602 1718.22 23.7544C1720.5 22.5553 1722.01 23.3005 1724.56 26.919C1727.49 28.4907 1728.87 31.2956 1731.83 26.9876C1737.88 23.9771 1741.57 22.4526 1748.79 20.0801C1753.76 21.6903 1758.58 17.909 1763.57 20.1444C1767.88 21.3606 1770.98 15.4038 1775.19 18.8554C1778.6 18.4743 1782.09 19.6776 1785.5 18.9368C1788.79 19.5406 1792.15 21.883 1795.34 19.0138C1797.54 19.0952 1801.12 20.4912 1802.93 17.8019C1808.01 12.4918 1811.34 11.9437 1817.22 11.1686C1820.14 10.8645 1823.06 8.25658 1826.01 10.9074C1828.42 13.5025 1830.67 9.87959 1833.01 8.53065C1838.66 6.58647 1845.53 7.80266 1849.07 12.6117C1853.57 18.4914 1859.47 18.2173 1866.47 18.0161C1869.75 15.755 1872.54 19.4721 1875.73 19.4121C1876.42 16.9369 1877.75 18.1916 1878.45 19.2922C1879.75 19.5063 1879.52 19.7633 1880.53 21.2192C1885.83 25.1119 1891.2 25.8742 1895.58 19.4721C1895.58 19.6134 1897.48 28.0582 1899.28 33.364C1901.11 39.8988 1902.96 46.6435 1902.98 47.2559C1898.93 44.6737 1894.86 39.6248 1890.64 39.1066C1888.31 40.0873 1882.89 36.7085 1880.62 39.1237C1876.94 39.8303 1874.71 43.9285 1871.21 41.0465C1867.67 42.9436 1864.07 44.1983 1860.47 40.8324C1856.63 39.2479 1853.79 30.482 1849.76 35.0512C1843.63 34.8971 1839.83 34.2076 1834.85 29.9552C1829.72 25.6129 1822.05 30.0666 1816.45 32.7944C1811.27 33.4368 1805.86 36.8541 1800.32 33.3468C1794.91 34.7129 1789.51 34.2333 1784.57 35.2867C1778.91 40.417 1773.3 42.7252 1766.64 41.0165C1760.57 39.8046 1755.17 37.1239 1749.08 41.2349C1746.11 37.3637 1744.03 41.0337 1741.21 42.4126C1734.95 43.496 1729.23 44.6394 1723.27 46.4722C1718.5 47.9154 1716.01 54.7157 1711.43 54.0563C1708.2 60.4669 1704.07 51.2256 1700.67 54.0734C1697.02 52.2234 1694.36 54.7671 1690.68 56.9383C1687.39 53.4482 1684.09 58.2358 1680.84 56.7499C1674.61 57.1909 1665.45 58.5784 1659.84 55.0669C1658.13 56.8355 1657.07 56.5786 1654.91 51.5382C1652.43 51.5554 1649.33 54.6258 1646.67 51.3327C1643.45 51.3198 1642.03 46.5836 1639.03 48.5706C1637.49 46.1639 1636.2 48.3479 1634.74 48.3693C1634.07 48.2708 1632.83 50.4077 1631.65 45.5815C1629.07 45.4145 1625.58 47.9111 1622.7 43.5988C1620.34 41.903 1618.17 38.6955 1615.87 42.2884C1613.1 45.1447 1612.45 49.0887 1608.97 47.1531C1606.83 46.5921 1605.5 45.4145 1603.91 43.0678C1600.39 37.8262 1595.54 42.5239 1591.47 41.783C1583.34 39.9202 1575.16 37.475 1567.2 41.6546C1565.13 40.8538 1563.55 41.8216 1561.56 41.115C1558.51 37.6377 1558.71 39.4663 1555.36 37.4793C1549.81 37.7919 1544.11 41.9672 1538.37 38.9053C1535.11 34.1005 1532.61 38.4685 1529.4 37.475C1527.54 39.4106 1525.11 39.1708 1523.31 37.0211C1521.04 34.8242 1521.97 33.2997 1520.68 31.0301C1518.5 28.572 1511.07 27.9768 1507.26 29.4799C1503.94 34.3746 1500.43 32.2634 1496.89 29.4156C1491.8 27.3301 1488.1 28.6448 1483.99 32.2634C1481.7 39.6504 1480.39 34.2076 1477.77 35.9762C1475.26 34.4902 1473.78 39.7789 1471.54 38.9139C1467.81 42.0614 1462.83 38.6783 1457.86 42.8279C1452.82 44.1084 1447.6 45.9155 1442.9 42.374C1437.19 43.4703 1431.3 41.479 1425.79 40.9694C1422.91 37.1795 1423.08 38.2287 1420.1 39.6932C1417.13 39.0295 1415.86 38.5756 1413.4 37.1709C1409.48 41.7616 1404.29 40.4212 1399.92 36.8797C1395.85 38.4257 1391.65 37.0168 1387.55 36.7556C1381.98 34.867 1376.11 38.704 1370.16 39.265C1364.12 36.186 1358.14 34.6615 1352.8 36.6785C1351.03 33.835 1349.95 35.5351 1348.39 32.9614C1348.13 35.2353 1345.64 30.6875 1345.46 30.2378C1342.01 27.343 1338.9 31.3127 1335.78 31.1714C1331.61 32.4518 1328.09 28.6234 1324.46 33.8778C1321.7 35.0983 1318.99 36.8883 1315.59 40.1986C1311.76 40.6953 1308.41 40.1557 1304.93 38.6698C1301.43 38.3614 1299.69 38.4471 1296.93 41.2006C1295.36 44.5537 1295.39 45.7742 1292.91 42.571C1290.49 44.7507 1287.7 35.1497 1285.32 37.5135C1281.92 35.4152 1277.9 37.3422 1274.22 36.5628C1269.29 37.7833 1264.3 43.1962 1258.98 37.7362C1253.77 36.3616 1248.65 39.3292 1243.53 37.4407C1241.59 41.1749 1237 34.0363 1235.38 37.2694C1233.63 35.7192 1233.73 35.7064 1231.84 31.9336C1229.89 25.7114 1226.29 25.7842 1224.23 30.6489C1221.17 30.7003 1219.26 30.6532 1216.06 32.0235C1212.4 37.0896 1208.35 32.2762 1204.56 32.1049C1200.68 32.4775 1198.26 31.7752 1194.56 29.4927C1189.1 27.056 1186.1 30.7131 1182.09 33.5823C1179.76 37.1367 1179.36 35.2225 1176.58 36.4087C1174.84 39.3849 1173.19 36.5286 1171.37 39.5005C1168.09 38.2586 1164.02 43.0292 1160.51 39.6761C1157.18 40.8923 1155.1 38.7297 1152.1 38.1944C1150 38.9181 1148.74 35.2953 1147.25 39.9116C1144.72 44.6393 1144.47 36.4386 1141.43 42.2883C1137.3 37.8561 1133.2 42.2541 1129.16 42.1727C1127.19 44.6864 1124.78 41.1835 1122.78 42.1984C1119.59 42.6566 1121.06 41.3419 1118.51 39.7746C1115.41 36.4301 1112.41 33.381 1108.66 38.113C1105.71 35.201 1102.89 36.9868 1100.05 38.0745C1097.82 38.7126 1095.45 37.7533 1093.26 38.2672C1091.15 36.5328 1089.23 39.8859 1087.05 41.0507C1084.93 44.2925 1082.48 40.4298 1080.33 42.4254C1076.37 41.085 1073.61 46.6649 1069.76 48.2493C1066.03 54.2532 1061.57 48.4378 1057.58 48.6262C1054.51 51.3412 1052.12 47.9453 1049.06 52.0992C1046.91 45.6799 1045.21 53.5038 1043.33 52.9428C1042.11 52.6345 1040.97 58.3557 1039.49 55.0882C1038.35 57.011 1036.77 51.4397 1035.64 54.857C1031.77 54.3474 1030.54 54.72 1027.76 58.8953C1021.68 62.6166 1014.59 67.5756 1006.81 62.7194C1002.85 63.5759 998.842 62.3639 994.873 62.6594C989.51 64.9933 983.991 61.8244 978.585 62.5438C973.213 64.5908 967.725 62.5395 962.297 62.4967C959.057 61.5246 956.809 60.06 953.925 61.1092C951.681 60.0515 949.248 63.229 946.944 61.1991C942.863 62.531 937.152 63.6315 933.509 57.3622C931.934 55.1096 931.445 52.3732 930.166 54.2232C929.373 55.6835 928.497 54.3003 927.592 51.7609C926.09 48.4163 925.412 46.3822 925.623 47.6669C921.1 43.269 908.978 47.2258 902.108 44.7421C897.174 43.8813 892.278 42.2498 887.03 43.74C884.143 45.757 882.533 41.8515 879.817 41.1877C875.977 40.3741 871.36 42.9863 867.408 40.9008C862.001 39.7788 856.822 43.7657 851.467 41.4832C846.168 41.2734 840.839 40.1129 835.509 42.0699C835.479 40.9394 845.52 21.9215 845.494 20.9793L845.507 20.9836Z" fill="white" style="fill:white;fill-opacity:1;"/>
</svg>
