<svg width="155" height="55" viewBox="0 0 155 55" fill="none" xmlns="http://www.w3.org/2000/svg">
<rect x="0.752427" y="11.2862" width="136.942" height="33.1068" rx="16.5534" fill="#2A2B81" stroke="#F7F7F7" stroke-width="1.50485"/>
<path d="M43.9867 35L46.8083 20.8694L48.3658 22.6527H43.5127L44.2124 19.199H51.6163L48.4561 35H43.9867ZM58.1235 35.316C56.9196 35.316 55.8737 35.0752 54.9858 34.5937C54.098 34.1121 53.4133 33.4199 52.9317 32.517C52.4502 31.6141 52.2094 30.5155 52.2094 29.2214C52.2094 27.7767 52.4125 26.4299 52.8189 25.1808C53.2252 23.9167 53.8045 22.8182 54.557 21.8852C55.3094 20.9371 56.1973 20.1998 57.2206 19.6731C58.2439 19.1464 59.3725 18.883 60.6065 18.883C61.8104 18.883 62.8487 19.1238 63.7215 19.6053C64.6094 20.0869 65.2941 20.7791 65.7757 21.682C66.2723 22.585 66.5206 23.6835 66.5206 24.9777C66.5206 26.4223 66.3099 27.7767 65.8885 29.0408C65.4822 30.2898 64.9028 31.3883 64.1504 32.3364C63.413 33.2694 62.5327 33.9993 61.5094 34.526C60.4861 35.0527 59.3574 35.316 58.1235 35.316ZM58.5524 31.6592C59.1392 31.6592 59.6509 31.441 60.0873 31.0046C60.5237 30.5532 60.8849 29.9888 61.1708 29.3117C61.4567 28.6345 61.6674 27.9197 61.8028 27.1672C61.9533 26.4148 62.0286 25.7226 62.0286 25.0905C62.0286 24.1726 61.8555 23.518 61.5094 23.1267C61.1783 22.7354 60.7344 22.5398 60.1776 22.5398C59.5907 22.5398 59.079 22.7655 58.6426 23.217C58.2062 23.6534 57.8451 24.2102 57.5591 24.8874C57.2732 25.5646 57.055 26.2794 56.9045 27.0318C56.7691 27.7842 56.7014 28.4765 56.7014 29.1085C56.7014 30.0265 56.8669 30.6811 57.198 31.0723C57.5441 31.4636 57.9956 31.6592 58.5524 31.6592ZM80.1452 35.316C78.9413 35.316 77.8954 35.0752 77.0076 34.5937C76.1197 34.1121 75.435 33.4199 74.9534 32.517C74.4719 31.6141 74.2311 30.5155 74.2311 29.2214C74.2311 27.7767 74.4343 26.4299 74.8406 25.1808C75.2469 23.9167 75.8263 22.8182 76.5787 21.8852C77.3311 20.9371 78.219 20.1998 79.2423 19.6731C80.2656 19.1464 81.3942 18.883 82.6282 18.883C83.8321 18.883 84.8704 19.1238 85.7432 19.6053C86.6311 20.0869 87.3158 20.7791 87.7974 21.682C88.294 22.585 88.5423 23.6835 88.5423 24.9777C88.5423 26.4223 88.3316 27.7767 87.9102 29.0408C87.5039 30.2898 86.9246 31.3883 86.1721 32.3364C85.4348 33.2694 84.5544 33.9993 83.5311 34.526C82.5078 35.0527 81.3792 35.316 80.1452 35.316ZM80.5741 31.6592C81.161 31.6592 81.6726 31.441 82.109 31.0046C82.5454 30.5532 82.9066 29.9888 83.1925 29.3117C83.4784 28.6345 83.6891 27.9197 83.8246 27.1672C83.975 26.4148 84.0503 25.7226 84.0503 25.0905C84.0503 24.1726 83.8772 23.518 83.5311 23.1267C83.2 22.7354 82.7561 22.5398 82.1993 22.5398C81.6124 22.5398 81.1008 22.7655 80.6644 23.217C80.228 23.6534 79.8668 24.2102 79.5809 24.8874C79.2949 25.5646 79.0767 26.2794 78.9263 27.0318C78.7908 27.7842 78.7231 28.4765 78.7231 29.1085C78.7231 30.0265 78.8886 30.6811 79.2197 31.0723C79.5658 31.4636 80.0173 31.6592 80.5741 31.6592ZM95.5979 35.316C94.394 35.316 93.3481 35.0752 92.4602 34.5937C91.5724 34.1121 90.8877 33.4199 90.4061 32.517C89.9246 31.6141 89.6838 30.5155 89.6838 29.2214C89.6838 27.7767 89.8869 26.4299 90.2933 25.1808C90.6996 23.9167 91.2789 22.8182 92.0314 21.8852C92.7838 20.9371 93.6717 20.1998 94.695 19.6731C95.7183 19.1464 96.8469 18.883 98.0809 18.883C99.2848 18.883 100.323 19.1238 101.196 19.6053C102.084 20.0869 102.768 20.7791 103.25 21.682C103.747 22.585 103.995 23.6835 103.995 24.9777C103.995 26.4223 103.784 27.7767 103.363 29.0408C102.957 30.2898 102.377 31.3883 101.625 32.3364C100.887 33.2694 100.007 33.9993 98.9838 34.526C97.9605 35.0527 96.8318 35.316 95.5979 35.316ZM96.0268 31.6592C96.6136 31.6592 97.1253 31.441 97.5617 31.0046C97.9981 30.5532 98.3593 29.9888 98.6452 29.3117C98.9311 28.6345 99.1418 27.9197 99.2772 27.1672C99.4277 26.4148 99.503 25.7226 99.503 25.0905C99.503 24.1726 99.3299 23.518 98.9838 23.1267C98.6527 22.7354 98.2088 22.5398 97.652 22.5398C97.0651 22.5398 96.5535 22.7655 96.117 23.217C95.6806 23.6534 95.3195 24.2102 95.0335 24.8874C94.7476 25.5646 94.5294 26.2794 94.3789 27.0318C94.2435 27.7842 94.1758 28.4765 94.1758 29.1085C94.1758 30.0265 94.3413 30.6811 94.6724 31.0723C95.0185 31.4636 95.47 31.6592 96.0268 31.6592ZM111.051 35.316C109.847 35.316 108.801 35.0752 107.913 34.5937C107.025 34.1121 106.34 33.4199 105.859 32.517C105.377 31.6141 105.136 30.5155 105.136 29.2214C105.136 27.7767 105.34 26.4299 105.746 25.1808C106.152 23.9167 106.732 22.8182 107.484 21.8852C108.236 20.9371 109.124 20.1998 110.148 19.6731C111.171 19.1464 112.3 18.883 113.534 18.883C114.737 18.883 115.776 19.1238 116.649 19.6053C117.536 20.0869 118.221 20.7791 118.703 21.682C119.199 22.585 119.448 23.6835 119.448 24.9777C119.448 26.4223 119.237 27.7767 118.816 29.0408C118.409 30.2898 117.83 31.3883 117.077 32.3364C116.34 33.2694 115.46 33.9993 114.436 34.526C113.413 35.0527 112.285 35.316 111.051 35.316ZM111.479 31.6592C112.066 31.6592 112.578 31.441 113.014 31.0046C113.451 30.5532 113.812 29.9888 114.098 29.3117C114.384 28.6345 114.594 27.9197 114.73 27.1672C114.88 26.4148 114.956 25.7226 114.956 25.0905C114.956 24.1726 114.783 23.518 114.436 23.1267C114.105 22.7354 113.661 22.5398 113.105 22.5398C112.518 22.5398 112.006 22.7655 111.57 23.217C111.133 23.6534 110.772 24.2102 110.486 24.8874C110.2 25.5646 109.982 26.2794 109.832 27.0318C109.696 27.7842 109.628 28.4765 109.628 29.1085C109.628 30.0265 109.794 30.6811 110.125 31.0723C110.471 31.4636 110.923 31.6592 111.479 31.6592Z" fill="white"/>
<path d="M24.0778 37.6214C23.5826 32.0839 19.145 27.6602 13.5439 27.0875C19.145 26.5145 23.5826 22.091 24.0778 16.5535C24.5731 22.091 29.0109 26.5145 34.6119 27.0875C29.0107 27.6604 24.5731 32.0839 24.0778 37.6214Z" fill="white"/>
</svg>
