<svg width="172" height="47" viewBox="0 0 172 47" fill="none" xmlns="http://www.w3.org/2000/svg">
<g clip-path="url(#clip0_171565_4777)">
<path opacity="0.22" d="M2 33.1992L2 41.8008C2 44.12 3.9154 46 6.27816 46L117.722 46C120.085 46 122 44.12 122 41.8008V33.1992C122 30.88 120.085 29 117.722 29L6.27816 29C3.9154 29 2 30.88 2 33.1992Z" fill="white"/>
<path d="M142.85 40.5451C142.85 44.1016 139.705 46.2718 135.223 46.2718C130.741 46.2718 128.062 44.323 128.062 41.3734C128.062 39.1323 129.328 37.5246 131.375 36.6211C130.569 35.9125 130.108 34.9647 130.108 33.8663C130.108 30.5269 133.031 28.5294 137.123 28.5294C141.216 28.5294 143.727 30.332 143.727 33.0602C143.727 34.9868 142.753 36.4218 141.118 37.2766C142.217 38.0782 142.85 39.1766 142.85 40.5407V40.5451ZM138 40.5939C138 39.3759 137.075 38.6451 135.613 38.6451C134.005 38.6451 132.885 39.5221 132.885 40.9349C132.885 42.1528 133.881 42.8836 135.299 42.8836C136.906 42.8836 138.005 42.0067 138.005 40.5939H138ZM134.904 33.8929C134.904 34.916 135.635 35.5006 136.804 35.5006C138.071 35.5006 138.948 34.7432 138.948 33.5253C138.948 32.5022 138.169 31.9176 137.048 31.9176C135.781 31.9176 134.904 32.6483 134.904 33.8929Z" fill="white"/>
<path d="M145.552 39.6947C145.552 33.41 149.303 28.5382 154.613 28.5382C158.488 28.5382 160.995 30.952 160.995 35.1152C160.995 41.3999 157.244 46.2717 151.934 46.2717C148.036 46.2717 145.552 43.8579 145.552 39.6947ZM156.15 35.2348C156.15 33.2595 155.344 32.48 154.153 32.48C151.641 32.48 150.401 36.8425 150.401 39.5707C150.401 41.546 151.181 42.3255 152.399 42.3255C154.91 42.3255 156.15 37.963 156.15 35.2348Z" fill="white"/>
<path d="M106.028 28.5204H5.79635C3.4313 28.5204 1.49585 30.4558 1.49585 32.8209V41.6301C1.49585 43.9951 3.4313 45.9306 5.79635 45.9306H80.269L106.028 28.5204Z" fill="#2A2B81"/>
<path d="M2.49585 41.6302L2.49585 32.821C2.49585 30.9982 3.97353 29.5205 5.79635 29.5205L117.822 29.5205C119.645 29.5205 121.123 30.9982 121.123 32.821V41.6302C121.123 43.453 119.645 44.9307 117.822 44.9307L5.79635 44.9307C3.97354 44.9307 2.49585 43.453 2.49585 41.6302Z" stroke="white" stroke-width="2" stroke-miterlimit="10"/>
</g>
<path d="M165 33C164.671 29.3202 161.722 26.3806 158 26C161.722 25.6193 164.671 22.6798 165 19C165.329 22.6798 168.278 25.6193 172 26C168.278 26.3807 165.329 29.3202 165 33Z" fill="white"/>
<path d="M45.7809 34.7131C55.0905 34.7131 62.6374 27.1662 62.6374 17.8566C62.6374 8.54694 55.0905 1 45.7809 1C36.4713 1 28.9243 8.54694 28.9243 17.8566C28.9243 27.1662 36.4713 34.7131 45.7809 34.7131Z" fill="#EFBD20" stroke="white" stroke-width="1.07623" stroke-miterlimit="10"/>
<path d="M57.996 13.9546C57.9251 13.9236 56.2156 13.184 46.0999 8.79934C45.9006 8.71077 45.6703 8.71077 45.471 8.79934L33.5748 13.9546C32.937 14.2292 32.9415 15.1372 33.5748 15.4118C35.8867 16.4127 39.6646 18.0514 45.471 20.567C45.6703 20.6556 45.9006 20.6556 46.0999 20.567C46.6535 20.3279 54.165 17.0726 54.5104 16.922V25.368C54.5104 25.7932 54.8382 26.1608 55.2678 26.1829C55.724 26.2051 56.1004 25.8419 56.1004 25.3902V16.6341C56.1004 16.5101 56.0074 16.4038 55.8834 16.3906C54.3953 16.2001 47.371 15.2922 45.688 15.0752C45.2008 15.0132 44.8952 14.5215 45.0236 14.0786C45.1255 13.7066 45.4754 13.4719 45.8341 13.494C45.8696 13.494 57.1722 14.9556 57.1678 14.9556C57.3804 14.9821 57.5531 15.1194 57.6373 15.301C57.6948 15.4295 57.8454 15.487 57.9694 15.4295C58.182 15.3276 58.368 15.1992 58.4522 14.898C58.5585 14.5127 58.3636 14.1096 58.0049 13.9546H57.996Z" fill="white"/>
<path d="M44.8331 22.0198L38.1941 19.141C38.0302 19.0701 37.8486 19.1897 37.8486 19.3668V22.2147C37.8486 24.8853 41.3342 26.9758 45.7809 26.9758C50.2275 26.9758 53.7131 24.8853 53.7131 22.2147V19.3668C53.7131 19.1897 53.5315 19.0701 53.3677 19.141L46.7287 22.0198C46.1263 22.2811 45.4398 22.2811 44.8375 22.0198H44.8331Z" fill="white"/>
<path d="M17.8566 35.6255C27.1662 35.6255 34.7131 28.0785 34.7131 18.7689C34.7131 9.45929 27.1662 1.91235 17.8566 1.91235C8.54694 1.91235 1 9.45929 1 18.7689C1 28.0785 8.54694 35.6255 17.8566 35.6255Z" fill="#E971A7" stroke="white" stroke-width="0.912362" stroke-miterlimit="10"/>
<path d="M20.8416 13.5074C20.3722 13.5074 19.9913 13.1265 19.9913 12.657V11.3815H16.5943V12.657C16.5943 13.1265 16.2134 13.5074 15.7439 13.5074C15.2744 13.5074 14.8936 13.1265 14.8936 12.657V11.3815C14.8936 10.4426 15.6553 9.68079 16.5943 9.68079H19.9913C20.9302 9.68079 21.692 10.4426 21.692 11.3815V12.657C21.692 13.1265 21.3111 13.5074 20.8416 13.5074Z" fill="white"/>
<path d="M18.8974 21.0498C18.7424 21.1074 18.5253 21.1517 18.295 21.1517C18.0647 21.1517 17.8433 21.1074 17.6396 21.0321L8.09961 17.8566V24.3405C8.09961 25.6338 9.14484 26.6746 10.4337 26.6746H26.152C27.4452 26.6746 28.486 25.6294 28.486 24.3405V17.8566L18.8929 21.0498H18.8974Z" fill="white"/>
<path d="M28.4905 14.5659V16.5102L18.4988 19.8407C18.4323 19.8673 18.3615 19.8762 18.295 19.8762C18.2286 19.8762 18.1577 19.8673 18.0913 19.8407L8.09961 16.5102V14.5659C8.09961 13.2726 9.14484 12.2318 10.4337 12.2318H26.152C27.4452 12.2318 28.486 13.277 28.486 14.5659H28.4905Z" fill="white"/>
<defs>
<clipPath id="clip0_171565_4777">
<rect width="160" height="44.4267" fill="white" transform="translate(1 2)"/>
</clipPath>
</defs>
</svg>
