<svg width="172" height="47" viewBox="0 0 172 47" fill="none" xmlns="http://www.w3.org/2000/svg">
<g clip-path="url(#clip0_171565_4777)">
<path opacity="0.22" d="M2 33.1992L2 41.8008C2 44.12 3.9154 46 6.27816 46L117.722 46C120.085 46 122 44.12 122 41.8008V33.1992C122 30.88 120.085 29 117.722 29L6.27816 29C3.9154 29 2 30.88 2 33.1992Z" fill="white"/>
<path d="M120.5 29.5L6.35459 29C3.68481 29 1.5 30.8898 1.5 33.1992V41.8008C1.5 44.1102 3.68481 46 6.35459 46L120 44.5L120.5 29.5Z" fill="#2A2B81"/>
<path d="M2.49585 41.6302L2.49585 32.821C2.49585 30.9982 3.97353 29.5205 5.79635 29.5205L117.822 29.5205C119.645 29.5205 121.123 30.9982 121.123 32.821V41.6302C121.123 43.453 119.645 44.9307 117.822 44.9307L5.79635 44.9307C3.97354 44.9307 2.49585 43.453 2.49585 41.6302Z" stroke="white" stroke-width="2" stroke-miterlimit="10"/>
<path d="M134.19 30.35L131.46 44H127.599L129.725 33.3335H127.19L127.794 30.35H134.19ZM139.811 44.273C138.238 44.273 136.99 43.8115 136.067 42.8885C135.157 41.9525 134.702 40.659 134.702 39.008C134.702 37.344 135.008 35.836 135.619 34.484C136.243 33.119 137.107 32.0465 138.212 31.2665C139.317 30.4735 140.565 30.077 141.956 30.077C143.529 30.077 144.771 30.545 145.681 31.481C146.604 32.404 147.065 33.691 147.065 35.342C147.065 37.006 146.753 38.5205 146.129 39.8855C145.518 41.2375 144.66 42.31 143.555 43.103C142.45 43.883 141.202 44.273 139.811 44.273ZM140.182 41.114C140.806 41.114 141.345 40.8085 141.8 40.1975C142.255 39.5865 142.6 38.839 142.834 37.955C143.068 37.071 143.185 36.2325 143.185 35.4395C143.185 34.6855 143.042 34.133 142.756 33.782C142.483 33.418 142.093 33.236 141.586 33.236C140.962 33.236 140.422 33.5415 139.967 34.1525C139.512 34.7635 139.168 35.511 138.934 36.395C138.7 37.279 138.583 38.1175 138.583 38.9105C138.583 40.3795 139.116 41.114 140.182 41.114ZM153.16 44.273C151.587 44.273 150.339 43.8115 149.416 42.8885C148.506 41.9525 148.051 40.659 148.051 39.008C148.051 37.344 148.357 35.836 148.968 34.484C149.592 33.119 150.456 32.0465 151.561 31.2665C152.666 30.4735 153.914 30.077 155.305 30.077C156.878 30.077 158.12 30.545 159.03 31.481C159.953 32.404 160.414 33.691 160.414 35.342C160.414 37.006 160.102 38.5205 159.478 39.8855C158.867 41.2375 158.009 42.31 156.904 43.103C155.799 43.883 154.551 44.273 153.16 44.273ZM153.531 41.114C154.155 41.114 154.694 40.8085 155.149 40.1975C155.604 39.5865 155.949 38.839 156.183 37.955C156.417 37.071 156.534 36.2325 156.534 35.4395C156.534 34.6855 156.391 34.133 156.105 33.782C155.832 33.418 155.442 33.236 154.935 33.236C154.311 33.236 153.771 33.5415 153.316 34.1525C152.861 34.7635 152.517 35.511 152.283 36.395C152.049 37.279 151.932 38.1175 151.932 38.9105C151.932 40.3795 152.465 41.114 153.531 41.114Z" fill="white"/>
</g>
<path d="M165 33C164.671 29.3202 161.722 26.3806 158 26C161.722 25.6193 164.671 22.6798 165 19C165.329 22.6798 168.278 25.6193 172 26C168.278 26.3807 165.329 29.3202 165 33Z" fill="white"/>
<path d="M45.7809 34.7131C55.0905 34.7131 62.6374 27.1662 62.6374 17.8566C62.6374 8.54694 55.0905 1 45.7809 1C36.4713 1 28.9243 8.54694 28.9243 17.8566C28.9243 27.1662 36.4713 34.7131 45.7809 34.7131Z" fill="#EFBD20" stroke="white" stroke-width="1.07623" stroke-miterlimit="10"/>
<path d="M57.996 13.9546C57.9251 13.9236 56.2156 13.184 46.0999 8.79934C45.9006 8.71077 45.6703 8.71077 45.471 8.79934L33.5748 13.9546C32.937 14.2292 32.9415 15.1372 33.5748 15.4118C35.8867 16.4127 39.6646 18.0514 45.471 20.567C45.6703 20.6556 45.9006 20.6556 46.0999 20.567C46.6535 20.3279 54.165 17.0726 54.5104 16.922V25.368C54.5104 25.7932 54.8382 26.1608 55.2678 26.1829C55.724 26.2051 56.1004 25.8419 56.1004 25.3902V16.6341C56.1004 16.5101 56.0074 16.4038 55.8834 16.3906C54.3953 16.2001 47.371 15.2922 45.688 15.0752C45.2008 15.0132 44.8952 14.5215 45.0236 14.0786C45.1255 13.7066 45.4754 13.4719 45.8341 13.494C45.8696 13.494 57.1722 14.9556 57.1678 14.9556C57.3804 14.9821 57.5531 15.1194 57.6373 15.301C57.6948 15.4295 57.8454 15.487 57.9694 15.4295C58.182 15.3276 58.368 15.1992 58.4522 14.898C58.5585 14.5127 58.3636 14.1096 58.0049 13.9546H57.996Z" fill="white"/>
<path d="M44.8331 22.0198L38.1941 19.141C38.0302 19.0701 37.8486 19.1897 37.8486 19.3668V22.2147C37.8486 24.8853 41.3342 26.9758 45.7809 26.9758C50.2275 26.9758 53.7131 24.8853 53.7131 22.2147V19.3668C53.7131 19.1897 53.5315 19.0701 53.3677 19.141L46.7287 22.0198C46.1263 22.2811 45.4398 22.2811 44.8375 22.0198H44.8331Z" fill="white"/>
<path d="M17.8566 35.6255C27.1662 35.6255 34.7131 28.0785 34.7131 18.7689C34.7131 9.45929 27.1662 1.91235 17.8566 1.91235C8.54694 1.91235 1 9.45929 1 18.7689C1 28.0785 8.54694 35.6255 17.8566 35.6255Z" fill="#E971A7" stroke="white" stroke-width="0.912362" stroke-miterlimit="10"/>
<path d="M20.8416 13.5074C20.3722 13.5074 19.9913 13.1265 19.9913 12.657V11.3815H16.5943V12.657C16.5943 13.1265 16.2134 13.5074 15.7439 13.5074C15.2744 13.5074 14.8936 13.1265 14.8936 12.657V11.3815C14.8936 10.4426 15.6553 9.68079 16.5943 9.68079H19.9913C20.9302 9.68079 21.692 10.4426 21.692 11.3815V12.657C21.692 13.1265 21.3111 13.5074 20.8416 13.5074Z" fill="white"/>
<path d="M18.8974 21.0498C18.7424 21.1074 18.5253 21.1517 18.295 21.1517C18.0647 21.1517 17.8433 21.1074 17.6396 21.0321L8.09961 17.8566V24.3405C8.09961 25.6338 9.14484 26.6746 10.4337 26.6746H26.152C27.4452 26.6746 28.486 25.6294 28.486 24.3405V17.8566L18.8929 21.0498H18.8974Z" fill="white"/>
<path d="M28.4905 14.5659V16.5102L18.4988 19.8407C18.4323 19.8673 18.3615 19.8762 18.295 19.8762C18.2286 19.8762 18.1577 19.8673 18.0913 19.8407L8.09961 16.5102V14.5659C8.09961 13.2726 9.14484 12.2318 10.4337 12.2318H26.152C27.4452 12.2318 28.486 13.277 28.486 14.5659H28.4905Z" fill="white"/>
<defs>
<clipPath id="clip0_171565_4777">
<rect width="160" height="44.4267" fill="white" transform="translate(1 2)"/>
</clipPath>
</defs>
</svg>
