<svg width="223" height="338" viewBox="0 0 223 338" fill="none" xmlns="http://www.w3.org/2000/svg">
<g clip-path="url(#clip0_171902_813)">
<path d="M148.235 319.51C148.441 319.52 148.435 319.299 147.96 319.078L147.479 319.19L148.235 319.51Z" fill="white"/>
<path d="M145.425 317.269C144.803 317.113 144.044 317.018 144.254 317.474C144.941 317.489 145.009 317.677 145.771 317.664C146.246 317.884 146.521 318.199 146.387 318.27C146.593 318.279 147.064 318.725 147.411 318.683C146.93 318.124 146.181 317.706 145.291 317.456C145.16 317.302 145.366 317.312 145.428 317.278L145.425 317.269Z" fill="white"/>
<path d="M104.836 286.465L105.037 286.722C104.987 286.644 104.921 286.551 104.836 286.465Z" fill="white"/>
<path d="M85.5 261.54C85.626 261.739 85.7073 261.815 85.7355 261.805C85.6036 261.619 85.4982 261.477 85.5 261.54Z" fill="white"/>
<path d="M83.083 256.706C83.1336 256.815 83.1739 256.896 83.2211 256.996C83.1799 256.884 83.1352 256.761 83.083 256.706Z" fill="white"/>
<path d="M104.837 286.465L104.314 285.794C104.201 285.835 104.565 286.16 104.837 286.465Z" fill="white"/>
<path d="M138.872 314.491C139.029 314.571 139.176 314.624 139.316 314.658L138.925 314.461C138.925 314.461 138.897 314.471 138.872 314.491Z" fill="white"/>
<path d="M115.194 295.774L115.391 295.936C115.474 295.959 115.56 295.96 115.639 295.973L115.184 295.778L115.194 295.774Z" fill="white"/>
<path d="M123.594 302.381C123.409 302.225 123.173 302.396 123.02 302.442C123.197 302.431 123.379 302.492 123.559 302.607C123.596 302.561 123.603 302.495 123.594 302.381Z" fill="white"/>
<path d="M137.393 312.252L137.672 312.374C137.595 312.338 137.48 312.285 137.393 312.252Z" fill="white"/>
<path d="M109.534 290.635C109.534 290.635 109.544 290.546 109.527 290.499C109.506 290.528 109.51 290.569 109.534 290.635Z" fill="white"/>
<path d="M106.603 10.8968C106.603 10.8968 106.628 10.9088 106.645 10.9241C106.652 10.8575 106.642 10.8293 106.603 10.8968Z" fill="white"/>
<path d="M113.843 0.646835L113.771 0.80075C113.807 0.84084 113.847 0.890322 113.888 0.917586L113.843 0.646835Z" fill="white"/>
<path d="M78.8848 247.817C78.8848 247.817 78.8951 247.845 78.8985 247.855C79.0313 248.072 78.9738 247.944 78.8848 247.817Z" fill="white"/>
<path d="M63.8314 159.686C63.5282 160.692 63.596 157.994 63.2382 159.52C63.3576 159.381 63.6022 160.952 63.8314 159.686Z" fill="white"/>
<path d="M138.645 314.307L138.265 314.084C138.433 314.193 138.546 314.269 138.645 314.307Z" fill="white"/>
<path d="M63.2381 159.52L63.2016 159.682C63.2186 159.612 63.2271 159.577 63.2381 159.52Z" fill="white"/>
<path d="M70.6184 226.755C70.5852 226.81 70.5786 226.908 70.5719 227.006C70.6001 226.996 70.617 226.926 70.6184 226.755Z" fill="white"/>
<path d="M75.9777 242.779L75.8523 242.378C75.8919 242.544 75.9365 242.666 75.9777 242.779Z" fill="white"/>
<path d="M67.9187 218.383C67.8901 218.159 67.9096 218.067 67.8125 217.772C67.8041 217.807 67.8015 217.829 67.7965 217.874C67.8565 217.98 67.908 218.121 67.9187 218.383Z" fill="white"/>
<path d="M66.0598 209.427C66.0598 209.427 66.0378 209.541 66.0303 209.608C66.0518 209.696 66.0802 209.802 66.0923 209.894L66.0504 209.43L66.0598 209.427Z" fill="white"/>
<path d="M94.5224 36.1838C94.6793 36.0306 94.8099 35.9509 94.9285 35.8968C94.6894 35.9417 95.175 34.6781 94.5224 36.1838Z" fill="white"/>
<path d="M138.947 314.346C138.862 314.377 138.783 314.363 138.655 314.304C138.748 314.355 138.841 314.406 138.921 314.451C138.968 314.434 138.986 314.395 138.947 314.346Z" fill="white"/>
<path d="M65.6833 218.53L65.4073 217.076C65.4695 217.479 65.567 218.008 65.6833 218.53Z" fill="white"/>
<path d="M72.1465 98.3925L72.2065 98.0618C72.1657 98.1832 72.1437 98.2977 72.1465 98.3925Z" fill="white"/>
<path d="M64.4367 212.82C64.4729 212.541 64.4681 212.266 64.4659 211.969C64.4359 211.916 64.4024 211.853 64.3665 211.813C64.3825 212.148 64.4078 212.48 64.446 212.817L64.4367 212.82Z" fill="white"/>
<path d="M98.3595 26.8481C97.7569 28.1119 98.4096 27.5964 98.4769 27.9551C97.8602 29.5009 97.9021 28.538 97.4842 28.9676C97.1332 29.9585 97.1074 30.8197 96.7763 31.5158C96.7011 31.5432 96.61 31.6724 96.6139 31.4793C96.4151 32.5955 95.2762 34.46 95.0864 35.7752C95.019 35.8531 94.9661 35.8831 94.9379 35.8934C95.194 35.7785 95.3727 35.8303 95.4796 35.9189C95.2303 36.4892 95.2186 37.0685 94.8992 37.1853C95.0601 36.839 94.9822 36.7716 94.9955 36.5751L94.8241 37.2127C94.2661 37.6085 95.084 36.3511 94.8437 36.2473C94.4136 37.4587 94.0925 38.939 93.6079 39.7977C93.2107 39.8471 94.4225 37.6577 93.6213 38.728L94.3451 37.3879C93.3855 38.2286 94.7546 36.5567 93.8016 37.2992C92.9137 39.0932 93.0621 39.4116 92.1802 41.1929C92.1751 41.6739 92.4929 41.1743 92.4878 41.6554C91.687 44.3865 90.8351 43.3671 90.4305 45.4635C90.4316 46.0488 90.7424 46.4036 89.9664 47.6883L89.8063 47.076C89.0381 48.8476 89.8957 48.3104 88.8899 50.073C88.8849 49.6809 89.3478 48.6172 89.197 48.8747C88.4155 49.9696 89.0407 49.8156 88.6656 50.7407L88.2752 50.8089C87.5653 52.7402 86.9388 54.9285 86.178 57.07C86.123 56.9197 86.165 56.5104 85.8873 56.974C85.0046 59.7138 83.6541 62.6886 82.5156 65.2238L82.427 66.3209C82.342 66.5543 82.1534 66.7085 82.1803 66.4325C81.7087 67.4141 82.3385 66.5449 82.2686 67.0816C82.08 67.6723 81.8367 67.7932 81.8821 67.3933C81.4746 69.2779 80.5572 72.6799 79.6318 74.4877L79.6772 74.0878C79.0544 75.5293 79.6771 75.9511 78.955 77.2374L78.9912 76.9579C77.8017 80.14 76.8975 83.7821 75.7347 86.1345C75.9955 86.7312 74.5571 89.2909 75.0679 89.6685C74.2492 91.4479 74.2994 90.8865 73.3421 93.4513C73.1152 94.1412 73.3877 94.5952 73.2107 95.4798L72.9116 95.4188L72.8977 96.691L72.3689 97.2251L72.2192 98.0677C72.3272 97.7514 72.5453 97.4161 72.6138 97.4869C72.4017 98.7996 71.5564 100.535 71.395 100.531L70.864 103.621C70.763 103.519 70.8527 103.008 70.8784 102.583C70.7627 104.276 70.4892 102.8 70.3852 104.35C70.5002 104.169 70.5384 104.507 70.5872 104.553C70.2245 105.25 69.773 106.927 69.566 108.195L69.4185 107.908C68.8476 110.161 68.3541 112.684 67.8264 115.23C68.117 114.336 68.4353 114.624 68.3085 115.384L67.9228 115.61C68.0168 116.13 68.211 114.855 68.2411 115.899C67.9993 116.839 67.7415 116.454 67.7601 115.893L67.617 117.074C67.5043 117.116 67.5217 116.843 67.4113 116.745C67.5054 117.264 66.657 118.671 66.8498 119.431L66.7371 119.472C66.2257 122.034 66.1142 123.214 65.7155 125.298C65.984 125.391 65.7539 126.189 65.8807 126.856C65.5194 128.372 65.0107 130.038 64.7099 131.894C64.6183 133.216 64.8832 132.31 64.9484 132.925C64.6811 132.98 64.4213 134.832 64.3896 133.843C64.0998 136.078 63.9941 136.692 63.7916 139.545C63.9286 139.25 64.0297 138.915 64.089 139.106C64.066 139.626 63.8279 140.256 63.721 140.167L63.7139 140.031C63.6972 141.645 63.2809 143.448 62.8817 145.18C62.514 146.912 62.1983 148.582 62.3271 149.866L62.3166 149.721L62.3171 152.372C62.1749 153.584 62.1816 151.623 61.9508 152.506C62.1508 155.382 61.5172 156.998 61.6454 159.357C60.8139 161.131 61.3187 165.801 60.8259 168.239L61.0085 168.098C61.1659 168.732 60.8851 168.867 60.8321 169.333C60.9696 169.272 61.0086 168.651 61.099 169.044C61.1369 174.418 60.8115 180.138 60.8762 185.672C60.9661 187.694 61.8726 186.766 61.6269 189.326L61.2429 188.626C61.5763 190.644 61.7057 192.716 61.9392 194.781C62.16 196.84 62.2953 198.899 62.7721 200.844C62.6674 200.616 62.5632 200.622 62.5078 200.238C62.3872 201.102 62.9227 203.323 63.1217 203.314C63.1869 203.929 62.9682 203.476 62.9228 203.876C62.897 204.738 63.5135 205.928 63.3691 206.407C63.3462 206.49 63.2457 206.186 63.2035 206.042C63.4146 206.561 63.6276 208.57 63.8043 208.005C63.936 209.501 64.4322 210.799 64.4796 212.006C64.9268 212.705 64.8755 214.545 65.3542 214.689C64.892 214.677 65.5538 217.331 65.9714 218.211C65.7736 217.932 66.0114 219.048 65.746 218.73C66.0136 219.782 66.3536 220.712 66.524 220.479C66.5013 222.543 67.961 224.234 67.5737 225.505C68.1642 227.003 68.7153 228.452 69.2433 229.867C69.5009 230.571 69.7551 231.266 70.0092 231.961C70.2787 232.64 70.5576 233.315 70.8236 233.984C70.3632 234.035 69.7093 230.995 69.3338 231.25C70.3722 233.798 71.3093 235.138 72.1085 237.731C72.2832 238.412 71.7927 237.42 71.6386 237.232C72.7546 239.731 73.5775 242.155 74.6998 244.322C74.6622 244.336 74.5165 244.112 74.3931 243.891C74.5768 244.335 74.7684 244.946 74.9322 244.812C74.8525 244.681 74.76 244.545 74.6897 244.411C74.6472 243.596 76.0516 245.893 76.2353 245.9C75.3604 245.401 77.1065 248.137 75.8952 247.271C76.0674 247.538 76.3235 247.859 76.4146 247.73C76.5761 248.172 76.5653 248.346 76.2288 247.979C77.0569 249.486 76.9908 248.84 77.6452 250.251C77.5513 250.285 77.3919 250.024 77.2183 249.928C77.7081 250.569 78.2603 251.176 78.7947 252.375C78.7049 252.334 78.7035 252.504 78.5226 252.155C79.6172 254.13 80.7216 255.344 81.7918 257.572C81.0426 257.154 82.0931 258.367 81.8391 258.662L82.6108 259.753L82.4936 259.2C83.0764 260.211 83.8381 260.955 84.2414 261.883L83.6686 261.219C84.0627 261.831 84.4321 262.463 84.8509 263.055C84.6538 262.69 84.5001 262.299 84.3311 261.925C85.1009 262.836 84.6441 261.587 85.3856 262.945C85.1792 262.701 86.0178 263.917 86.1625 264.545C86.5793 264.957 87.003 265.388 87.3982 266.148C87.4278 266.404 86.9575 266.224 86.9655 266.392C87.553 266.688 88.5049 268.65 89.2335 269.012C89.0298 268.863 88.8651 268.966 88.8738 269.048L89.3647 269.284C89.6159 269.767 89.6374 269.855 89.4512 269.87C90.3754 271.203 89.5294 269.181 90.5012 270.848C90.3968 270.738 90.4055 270.82 90.1932 270.588C91.2615 272.2 92.4831 273.531 93.5152 274.985C93.5462 275.623 92.4665 273.835 92.5899 274.493C94.2722 276.444 96.2663 278.344 97.8 280.296L97.5268 279.928C98.1537 279.837 98.5582 281.467 99.5866 282.241C99.353 282.039 99.0994 282.132 99.1951 282.161C99.7328 282.816 100.336 283.447 101.042 284.126C101.739 284.808 102.526 285.564 103.512 286.396L103.189 286.269C103.81 287.064 104.997 288.185 105.719 288.996C106.043 289.122 106.464 289.575 106.338 289.174C106.796 289.901 107.308 290.544 107.88 291.091C108.462 291.634 109.087 292.119 109.695 292.589C110.915 293.538 112.109 294.443 112.995 295.673C112.729 295.44 112.289 295.197 112.497 295.387C113.132 295.932 113.808 296.441 114.49 296.937C114.484 296.63 114.323 296.625 114.031 296.146C114.366 296.247 114.981 296.619 115.463 297.007C114.487 296.405 115.228 297.295 115.528 297.707C115.509 297.597 115.687 297.649 115.701 297.569C116.452 298.721 116.166 297.356 117.372 298.704L117.225 298.737C117.78 299.119 118.357 299.388 118.896 299.872C118.958 300.275 118.266 299.517 118.093 299.655C118.899 300.286 119.944 300.553 120.522 301.29C120.13 301.092 119.632 300.721 119.262 300.494C119.832 301.382 120.005 301.362 120.557 301.852L120.505 301.796L121.797 302.942L121.497 302.616C122.936 302.824 123.655 304.062 125.3 304.717C123.712 304.073 124.931 304.756 124.651 304.923C124.951 305.249 125.433 305.723 125.226 305.681C126.016 305.978 126.212 306.63 127.371 306.973C127.358 307.084 128.084 307.468 127.789 307.566C128.706 308.093 127.686 307.284 127.818 307.236C129.348 307.869 130.765 309.704 132.955 310.628C134.775 311.527 135.263 311.434 136.941 312.268C137.397 312.73 136.316 312.305 136.316 312.305C137.107 312.953 137.779 313.336 138.648 313.731C138.435 313.703 138.569 313.867 138.766 314.114C139.438 314.496 139.391 314.077 140.182 314.725C139.98 314.724 139.696 314.764 139.329 314.664C140.138 315.071 141.016 315.346 141.887 315.72C142.019 315.991 141.263 315.671 140.919 315.605C141.881 316.052 143.396 316.787 143.805 316.712L143.261 316.303C143.602 316.477 143.318 316.602 143.049 316.509C142.159 316.259 141.95 315.803 141.953 315.696L142.571 315.959C142.25 315.14 140.174 314.76 139.054 313.998L139.741 313.928L138.385 313.508C138.188 313.261 138.141 312.958 138.738 313.251C138.023 312.576 137.932 312.939 137.351 312.31C137.292 312.236 137.336 312.241 137.419 312.264L136.554 311.878C136.754 311.901 136.573 311.551 137.038 311.892C135.729 310.817 134.553 310.746 134.175 310.15L134.31 310.196C132.259 309.072 133.95 310.349 132.289 309.679L131.72 308.385L131.363 308.516C131.169 308.363 130.787 308.077 130.928 308.025C130.065 307.702 130.978 308.22 130.443 308.096C129.633 307.221 127.709 306.413 127.775 305.867C127.303 305.827 128.598 306.631 127.477 306.072C127.485 305.452 126.232 305.345 125.531 304.505C125.948 304.48 126.668 305.197 125.96 304.369C125.179 304.357 124.363 303.058 123.597 302.593C123.342 302.857 121.95 301.555 120.668 300.757C120.794 300.754 118.591 298.833 117.601 297.843L117.666 297.819C117.23 297.936 116.161 296.964 115.302 296.363C115.476 296.225 115.676 296.279 116.184 296.562L115.423 295.935C115.168 295.879 114.889 295.726 114.368 295.352L114.734 295.303C113.726 294.469 112.561 293.787 111.427 292.52C111.184 292.641 111.949 293.947 110.504 292.879C110.547 292.735 110.658 292.514 111.045 292.787C110.916 292.696 110.56 292.507 110.372 292.256L111.058 292.559C110.554 291.966 110.627 292.429 110.185 292.005C110.326 291.868 109.939 291.595 110.111 291.542C110.24 291.634 110.455 291.959 110.673 292.061C110.185 291.569 109.65 290.923 109.544 290.632C109.513 290.75 109.36 290.827 108.964 290.503C107.984 289.626 108.793 290.033 108.326 289.427C108.003 289.3 107.515 288.605 107.299 288.802C107.028 288.528 107.081 288.381 107.032 288.218C106.464 287.829 104.776 286.008 105.095 286.764L105.2 286.907C105.2 286.907 105.142 286.864 105.11 286.834C104.229 286.144 103.415 285.313 102.683 284.42C101.961 283.524 101.255 282.611 100.47 281.833L100.544 281.774C99.5849 280.868 98.5157 279.662 97.7644 279.064C97.5153 278.761 97.323 278.235 97.5144 278.293C96.8194 277.557 96.6638 277.539 95.8756 276.315C96.6449 276.992 95.7733 275.948 96.6305 277.04C95.8784 275.973 95.812 275.646 94.7194 274.726C95.2221 274.936 94.3503 273.775 93.9103 273.328C94.045 273.609 94.195 273.874 94.339 274.151C93.8656 273.643 93.5187 273.131 93.1717 272.619L93.6324 272.685C92.396 270.294 90.2138 269.218 89.6103 267.16C89.0183 266.706 90.2867 268.457 89.7128 268.081C89.0565 267.043 88.7644 265.691 88.5434 265.378C87.782 263.878 87.2796 264.339 86.4156 262.792C86.4417 263.038 86.2937 263.39 85.4665 262.351C84.8691 261.27 85.1177 260.785 85.5913 261.411C85.7472 261.662 85.7893 261.807 85.7389 261.815C85.9821 262.13 86.3195 262.529 86.1606 262.065L85.9751 261.994C85.7621 261.412 84.9009 259.96 85.2653 260.199C84.6966 259.459 84.9009 259.96 85.1908 260.578C84.5448 259.131 83.9464 258.456 83.2244 257.006C83.2949 257.257 83.2997 257.532 83.1669 257.314C82.0934 255.194 82.423 256.532 81.6234 255.131C81.3569 254.228 82.1541 255.214 81.2733 253.854C80.9299 252.915 81.4504 253.523 81.7184 253.819C80.8328 252.62 80.5767 251.308 80.2225 250.544L80.6713 251.189C80.4041 250.807 80.2266 250.467 80.0491 250.128L80.0415 250.631C79.8647 250.206 79.6873 249.866 79.7812 249.832C79.4294 249.481 79.5805 250.331 78.9862 249.579C78.839 248.973 78.0913 247.948 78.2812 247.623C78.9876 249.409 78.4805 247.294 79.2025 248.744C79.0397 248.474 78.881 248.127 78.7231 247.695C78.7272 247.619 78.8094 247.728 78.8788 247.83C78.3655 246.048 78.2002 247.226 77.4068 245.493C77.6736 245.641 77.5305 244.958 77.3583 244.691C77.6757 245.384 77.2481 245.147 76.8198 244.558C76.429 243.402 76.1915 243.393 75.9623 242.795L76.1754 243.495C75.9146 243.335 75.7051 242.762 75.338 241.991C75.442 241.868 75.7152 242.673 75.6557 242.364C75.0076 241.611 75.1427 240.263 74.452 239.131C74.3364 238.524 74.7379 238.952 74.6122 238.434C73.8256 237.156 74.2634 236.868 73.562 235.474C73.4911 235.979 73.575 236.034 72.9812 235.08L73.9944 237.414L73.1247 235.996C73.3891 236.72 73.7937 237.477 73.9423 237.912C73.4678 237.255 73.5704 237.303 73.5003 237.722C73.4743 236.603 72.604 235.825 72.4198 234.593L72.9877 234.428C72.635 232.619 71.571 231.486 71.0388 229.157L71.1683 229.919C70.8483 229.684 70.701 228.524 70.3896 227.818C70.5955 227.828 70.528 227.352 70.5496 227.004C70.419 227.083 70.0494 225.345 69.61 225.25C69.5838 224.887 69.5797 224.526 69.5722 224.156C69.192 222.272 68.4776 222.182 68.0745 220.381C68.424 220.871 68.349 220.025 68.8124 221.176C68.6593 220.582 68.5549 220.035 68.4165 220.064C68.4594 219.687 67.7097 218.481 67.7872 217.877C67.6475 217.641 67.4313 217.603 67.2917 216.93C67.3146 216.847 67.389 216.905 67.389 216.905C67.2917 216.93 67.0241 215.878 66.9475 216.513C67.137 214.527 65.7445 211.331 66.0233 209.589C65.7228 208.272 65.3799 206.694 65.1428 205.492C65.2113 205.563 65.2436 205.477 65.2662 205.713C65.1888 204.017 64.5494 204.772 64.4844 202.847C64.6671 201.833 64.7912 203.832 64.8302 203.211C65.4336 202.852 64.4229 200.932 64.6187 199.604L64.697 199.906C64.7567 198.904 64.1673 197.554 64.0448 195.938C64.0448 195.938 64.1132 196.009 64.1396 195.935C63.7105 194.879 63.3377 192.811 63.1572 191.269C63.4425 191.729 63.3353 191.96 63.5731 191.649C63.4898 190.956 63.172 191.892 63.0054 190.505C63.1122 190.04 63.1685 189.029 63.4331 188.879L63.5371 190.182C63.846 189.484 63.4093 188.494 63.4243 187.807L63.5817 187.888C63.3944 185.89 62.9766 185.883 62.9334 183.727L62.8261 183.958C62.4003 182.793 63.0063 182.966 62.6753 181.798L63.0599 181.424C62.9364 180.649 62.5578 178.711 62.5049 177.314C62.7934 178.103 62.9731 179.73 63.2014 180.733C63.1667 179.968 63.0881 178.123 62.9089 177.72C62.9461 178.026 63.0459 178.415 62.9884 178.724C62.6766 177.784 62.5112 176.545 62.5109 175.002C63.2684 175.268 62.6865 170.998 63.3381 169.897C63.2263 168.543 63.2948 167.187 63.3811 165.793C63.5084 164.394 63.6818 162.946 63.7311 161.363C63.0761 162.454 63.7644 160.435 63.1428 160.598C63.1406 159.865 63.164 159.579 63.216 159.518C63.3625 158.783 63.5722 158.046 63.7409 157.313C63.9569 156.798 63.8182 158.02 63.9591 157.968C64.1279 156.362 64.2723 157.311 64.5173 156.263C64.2827 156.466 64.2505 155.679 64.4078 154.769L64.0205 156.04C63.8823 153.769 64.6681 154.142 64.5546 151.852L64.6738 152.585C64.6717 151.415 65.1266 148.32 64.7537 147.126C64.843 146.933 65.0382 146.681 65.034 147.194C65.4007 144.44 65.2851 140.979 65.8665 138.871L65.984 139.105C66.0163 138.582 65.843 138.167 66.0845 137.546C66.1427 137.589 66.1986 137.77 66.2426 137.541C66.2344 137.257 66.1862 136.135 66.3789 135.468L66.4535 136.08C67.0476 133.424 66.6903 131.894 66.9921 129.633C67.4245 129.709 67.9342 127.638 68.1921 126.596L68.2503 126.639C68.9205 123.551 68.8933 121.293 69.3537 118.388C69.7819 117.55 70.1594 116.049 70.5332 114.421C70.9259 112.787 71.3558 111.022 71.8155 109.63C71.6377 110.046 71.4949 109.481 71.5717 108.963C71.8157 108.32 71.7126 107.048 72.082 107.243L72.0192 107.479C72.5294 107.069 72.7772 105.679 73.0598 104.617L72.5953 104.308C74.0259 101.698 74.2873 96.9388 75.3528 95.6015C75.4148 94.8974 75.6662 94.0708 75.7316 93.3761L75.9975 93.4918C76.6187 91.6675 76.8896 90.7485 77.5288 88.4492L77.5818 88.9728C77.9973 87.6922 77.3068 87.1142 77.649 85.9243L78.1612 85.6944C78.8303 83.4479 79.9457 81.3152 80.2866 78.9864C80.3295 79.0453 80.4305 79.1468 80.3303 79.5135C80.6702 78.4629 81.9627 75.5625 81.2753 75.75C81.642 75.8502 82.0828 73.4743 82.3471 72.217L82.5449 72.496C82.5694 71.3691 82.4821 71.3052 82.893 69.8665C83.042 69.5459 83.2062 69.6456 82.978 70.0697C83.5169 69.0102 83.0327 69.1127 83.6566 67.8198L83.6473 68.3769C84.0733 67.2415 83.9452 67.299 83.9884 66.6018C84.1502 65.8505 84.8569 64.4634 85.1583 64.3852C85.0733 64.182 85.1071 63.4882 85.4238 62.84C85.5424 62.786 85.5122 63.0526 85.4936 63.1765C86.3643 61.3355 86.2632 60.2438 87.0128 59.0327C87.1111 59.0393 87.1819 58.9708 87.2518 58.8708C86.6624 60.3746 86.1879 61.581 86.2064 61.4571C86.4433 61.5515 86.9529 60.3536 86.9147 61.443C87.1093 60.4029 87.3572 58.5767 87.9224 57.4436C87.9685 57.3948 88.0145 57.3461 88.0674 57.3161L88.0523 57.4494C88.1808 57.1894 88.2555 56.9278 88.3055 56.686C88.4945 56.3294 88.624 56.101 88.7686 55.7394C89.0231 55.6782 89.4257 54.3917 89.6775 53.7992C89.3912 53.7441 89.758 52.9712 89.2423 53.6282C89.2969 53.5444 89.2238 53.7521 89.0741 54.1582C89.0453 54.254 89.0104 54.3625 89.0029 54.4292C88.9994 54.4198 88.9926 54.401 88.9951 54.3788C88.842 54.7755 88.6388 55.297 88.4186 55.8886C88.4791 55.3554 88.5584 54.8153 88.9743 54.2054C88.9317 53.827 88.8883 53.417 88.8913 53.1923C89.5804 52.5144 90.4226 51.0032 90.7385 50.8771C91.3451 48.9836 92.4163 46.5262 92.4309 45.1686C92.5922 44.6198 92.8204 44.6322 92.9833 44.4662C92.9069 44.7816 92.7495 45.1373 92.7456 45.3303C93.0623 44.2456 93.9976 42.2319 93.7714 41.8461C94.4919 40.6137 93.7584 42.7133 94.4907 40.9016L94.4896 41.1895C96.5589 37.9093 96.1419 35.0804 98.6115 31.5261C98.4479 31.7776 98.3661 31.9033 98.2816 31.9342C100.607 27.6659 102.256 22.7401 104.885 18.6909C105.598 17.5251 105.445 17.2827 105.665 16.457L106.066 16.3315L106.408 14.9076C107.103 12.9925 108.666 12.1439 109.437 9.67939L109.104 9.87564C109.568 9.07768 110.373 7.26071 110.507 7.50994C110.523 7.40825 110.468 7.14093 110.723 6.87733L110.879 6.9266L111.73 4.82676C112.684 3.35981 112.141 5.36853 113.412 3.16797C113.824 2.31457 114.354 0.619422 114.083 0.867675C113.88 1.18672 113.508 1.65302 113.351 1.60375L113.711 0.81196C113.394 0.438324 113.316 -0.385137 111.954 1.30554L111.467 2.74003L111.036 3.04667L111.647 1.95028C111.111 2.46557 111.056 2.95436 110.918 3.45185C110.755 3.50084 110.582 3.63871 110.393 3.87827L110.075 5.36799C109.833 5.43507 110.079 4.62128 109.514 5.43479C109.366 6.1382 110.186 5.06108 109.761 6.111C109.238 6.63225 109.187 6.37432 108.941 7.18812C108.778 7.23711 108.791 7.04059 108.909 6.72084C108.683 7.44233 108.029 8.47985 108.068 8.9343C107.485 9.46676 106.953 11.1841 106.597 10.9097C106.585 11.1694 106.293 12.2345 105.994 12.8442C106.098 11.4967 104.797 15.1027 104.446 14.5497C104.441 15.5843 103.12 17.6218 102.635 19.205C102.641 19.1067 102.655 18.9102 102.74 18.7938C102.301 19.6037 102.047 19.7819 101.704 20.2695C102.009 20.5517 101.446 21.865 101.327 22.6752C100.497 23.5216 101.208 21.8561 100.735 22.0184C101.045 22.1075 100.164 23.9204 100.572 23.6966C99.9869 24.3684 100.15 24.3194 99.6574 24.574C100.031 24.927 99.382 25.3349 99.3475 26.1141C98.5924 27.1356 98.7966 26.2091 98.347 27.5128C97.9319 28.0373 98.2997 26.8593 98.2997 26.8593L98.3595 26.8481ZM86.2524 57.128C86.3459 56.8595 86.425 56.639 86.4777 56.4919C86.4309 56.6261 86.3698 56.8082 86.2524 57.128ZM85.2694 59.6809C85.3902 59.3705 85.5467 58.9832 85.7057 58.5737C85.8372 58.5256 85.8853 58.6571 85.7849 58.9067C85.7769 58.7393 85.49 59.3233 85.2694 59.6809ZM89.1807 55.003C89.0568 55.421 88.9493 55.5348 88.8742 55.5623C88.9413 55.3674 89.0204 55.1468 89.1258 54.8527C89.1189 54.834 89.1121 54.8152 89.1052 54.7964C89.1386 54.8587 89.1686 54.9116 89.1807 55.003Z" fill="white"/>
<path d="M89.1281 54.1598C89.1485 54.0991 89.1475 54.0675 89.1705 53.9846C89.1125 54.0591 89.0639 54.1301 89.0154 54.2011C89.0266 54.2608 89.0284 54.3241 89.0362 54.3744C89.0625 54.3009 89.0889 54.2274 89.1152 54.1539L89.1281 54.1598Z" fill="white"/>
<path d="M105.076 286.771L105.04 286.731C105.04 286.731 105.09 286.809 105.094 286.85C105.081 286.812 105.081 286.812 105.07 286.784L105.076 286.771Z" fill="white"/>
<path d="M72.8228 95.4087L72.8929 95.4257L72.8984 95.1788L72.8228 95.4087Z" fill="white"/>
<path d="M115.486 297.68C115.486 297.68 115.52 297.774 115.596 297.863C115.598 297.841 115.561 297.769 115.486 297.68Z" fill="white"/>
<path d="M120.525 301.821L121.204 302.456C120.921 302.177 120.7 301.981 120.525 301.821Z" fill="white"/>
<path d="M124.465 304.938C124.55 304.938 124.584 304.915 124.609 304.895L124.465 304.938Z" fill="white"/>
<path d="M74.3759 243.844C74.3518 243.778 74.3218 243.725 74.2918 243.672C74.0715 243.274 74.2062 243.555 74.3759 243.844Z" fill="white"/>
<path d="M86.1325 264.492C85.9502 264.314 85.7773 264.132 85.6069 263.928C85.8263 264.295 86.002 264.572 86.1325 264.492Z" fill="white"/>
<path d="M65.7101 218.69C65.6929 218.643 65.6851 218.593 65.6739 218.533L65.7007 218.694L65.7101 218.69Z" fill="white"/>
<path d="M85.0012 263C85.183 263.381 85.3878 263.679 85.6069 263.928C85.4338 263.63 85.2307 263.278 85.0012 263Z" fill="white"/>
<path d="M142.736 316.73L142.942 316.857C142.942 316.857 142.967 316.837 142.989 316.839L142.739 316.739L142.736 316.73Z" fill="white"/>
<path d="M142.998 316.836L143.248 316.936C143.142 316.879 143.049 316.828 142.998 316.836Z" fill="white"/>
<path d="M143.773 317.149L143.239 316.94C143.412 317.036 143.619 317.163 143.773 317.149Z" fill="white"/>
<path d="M137.062 313.268L136.94 313.312C136.94 313.312 137.022 313.304 137.062 313.268Z" fill="white"/>
<path d="M135.324 312.242C135.721 312.512 136.24 313.057 136.849 313.356L136.943 313.322C136.591 313.291 135.804 312.333 135.324 312.242Z" fill="white"/>
<path d="M128.979 306.598L130.328 307.606C130.15 307.352 129.909 307.014 130.556 307.416C128.983 305.968 130.784 307.865 128.979 306.598Z" fill="white"/>
<path d="M124.821 303.466C125.579 303.966 124.909 303.327 124.978 303.312C124.458 303.055 124.336 302.983 124.821 303.466Z" fill="white"/>
<path d="M97.3396 277.931L97.5932 277.838C97.1292 277.326 97.5095 277.9 97.3396 277.931Z" fill="white"/>
<path d="M91.8125 273.095L92.0939 273.748L92.4675 273.867L91.8125 273.095Z" fill="white"/>
<path d="M90.7715 268.588L90.9804 268.81L90.2209 267.927L90.7715 268.588Z" fill="white"/>
<path d="M66.5854 210.981L66.3116 211.251C66.4448 211.703 66.8157 211.727 66.5854 210.981Z" fill="white"/>
<path d="M63.1491 183.968C63.2921 183.66 63.3744 182.895 63.1933 182.429C63.1953 183.046 63.0896 183.659 63.1491 183.968Z" fill="white"/>
<path d="M73.3603 103.081L73.3289 103.635L73.4988 102.615L73.3603 103.081Z" fill="white"/>
<path d="M134.541 320.642C134.41 320.69 134.613 320.839 134.455 320.727C134.475 320.634 134.504 320.57 134.541 320.642Z" fill="white"/>
<path d="M137.84 304.795C138.558 304.809 138.423 305.604 138.994 305.768C139.049 305.801 138.727 305.94 138.864 305.996C139.491 306.108 139.696 306.843 139.752 307.493L139.668 307.523C139.677 307.637 139.986 307.578 140.023 307.681C139.974 307.72 139.935 307.702 139.887 307.773C140.049 307.693 140.067 307.888 140.202 307.85C140.176 307.923 140.058 308.009 140.026 308.095L140.223 308.023C140.719 307.895 140.455 308.396 140.795 308.453C140.748 308.47 140.707 308.474 140.68 308.516C141.15 308.664 141.39 309.087 141.734 309.387C141.668 309.411 141.553 309.475 141.504 309.546C141.687 309.436 141.813 309.518 141.913 309.588C141.763 309.76 142.196 309.633 142.176 309.811L142.129 309.828C142.378 309.78 142.106 310.028 142.382 309.938L142.279 310.093C142.556 309.949 142.241 310.309 142.411 310.279L142.46 310.24C142.566 310.265 142.471 310.385 142.554 310.408L142.533 310.437C142.703 310.524 142.623 310.713 142.815 310.568C142.693 310.73 142.645 310.481 142.478 310.723C143.009 311.04 143.317 311.534 143.656 311.996C143.621 312.104 143.62 312.158 143.549 312.227C143.619 312.244 143.708 312.371 143.837 312.345C143.83 312.326 143.758 312.448 143.768 312.476C143.753 312.61 144.045 312.418 144.027 312.573C143.951 312.569 143.88 312.606 143.818 312.671C144.029 312.637 144.077 312.768 144.193 312.822C144.155 312.835 144.117 312.818 144.052 312.873C144.298 312.847 144.149 313.082 144.324 313.093L144.192 313.141C144.161 313.376 144.454 313.014 144.466 313.19C144.412 313.189 144.372 313.225 144.319 313.255C144.606 313.224 144.67 313.456 144.833 313.525C144.814 313.531 144.777 313.545 144.777 313.545C144.89 313.653 144.924 313.832 145.11 313.903C145.099 313.991 144.824 314.082 144.96 314.192C145.186 314.024 145.221 314.352 145.412 314.09C145.464 314.231 145.499 314.473 145.633 314.489C145.51 314.502 145.396 314.745 145.312 314.659L145.225 314.829C145.128 314.886 145.2 314.732 145.102 314.842C145.147 314.879 145.336 314.959 145.329 315.026C145.528 315.017 145.85 314.909 145.98 315.032C145.841 315.03 145.762 315.25 145.692 315.233L146.268 315.119C146.313 315.155 146.095 315.257 146.209 315.279C146.268 315.236 146.322 315.237 146.387 315.213C146.379 315.248 146.582 315.366 146.381 315.546C146.305 315.627 146.279 315.498 146.234 315.61C146.297 315.694 146.375 315.644 146.447 315.724L146.418 315.735C146.43 315.826 146.64 315.845 146.715 315.701C146.698 315.654 146.594 315.808 146.611 315.707C146.77 315.648 146.874 315.728 146.949 315.817C146.895 315.816 146.836 315.858 146.761 315.886C147.023 315.875 147.162 315.963 147.329 316.04C147.441 315.968 147.103 316.123 147.146 316.065C147.119 316.341 147.601 316.26 147.495 316.554C147.46 316.546 147.631 316.43 147.61 316.459C147.654 316.55 147.502 316.659 147.59 316.669C147.501 316.744 147.671 316.714 147.735 316.744C147.823 316.722 147.698 316.789 147.662 316.749C147.796 316.764 148.15 316.975 148.151 317.241C148.21 317.198 148.45 317.185 148.467 317.232L148.318 317.318C148.257 317.415 148.429 317.448 148.311 317.534C148.545 317.502 147.932 317.311 148.141 317.33C148.043 317.44 148.483 317.333 148.268 317.443C148.327 317.518 148.547 317.48 148.473 317.656C148.482 317.621 148.235 317.732 148.287 317.788C148.397 317.886 148.379 317.775 148.494 317.829L148.596 317.845C148.732 317.753 148.65 317.964 148.775 317.811C148.673 317.912 148.965 317.923 148.735 318.082L148.542 318.195C148.591 318.241 148.811 318.171 148.931 318.18C148.919 318.206 148.901 318.244 148.864 318.258C149.169 318.104 148.964 318.445 149.264 318.421C149.263 318.623 149.558 318.846 149.387 318.961C149.579 319.051 149.801 319.161 149.821 319.303C149.77 319.279 149.724 319.243 149.639 319.242C149.588 319.335 149.699 319.348 149.821 319.42C149.751 319.403 149.703 319.591 149.61 319.657C149.812 319.775 150.03 319.759 150.189 319.786C149.811 319.828 150.738 320.181 150.411 320.248C150.315 320.187 150.057 320.036 150.005 320.098C149.584 320.082 150.513 320.381 150.393 320.489L150.784 320.569C150.572 320.572 151.231 320.917 150.768 320.756C150.97 320.874 150.769 320.905 151.194 321.048C151.008 321.18 151.994 321.926 151.207 321.639C151.266 321.681 151.289 321.716 151.334 321.752C151.325 321.756 151.348 321.79 151.489 321.855C151.562 321.882 151.601 321.9 151.623 321.902C151.613 321.874 151.317 321.705 151.458 321.771C151.497 321.82 151.651 321.892 151.722 321.94L151.704 321.947C151.528 321.905 151.407 321.864 151.114 321.673C150.593 321.502 151.728 322.13 151.2 322.025C151.023 321.919 150.929 321.868 150.873 321.889C150.919 321.957 150.962 322.016 151.005 322.075C150.722 322.029 150.498 321.824 150.195 321.636C150.151 321.663 150.022 321.657 150.168 321.795L149.718 321.555C150.036 321.726 149.791 321.667 149.808 321.714L149.791 321.667C149.665 321.585 149.619 321.634 149.598 321.663C149.756 321.776 149.935 321.827 150.053 321.859C150.106 321.946 150.001 321.92 150.048 322.02C149.843 321.84 149.712 321.888 149.597 321.866C149.454 321.822 149.669 322.031 149.634 322.023C149.523 321.925 149.446 322.006 149.386 321.869C149.385 321.837 149.559 321.965 149.528 321.88C149.384 321.805 149.218 321.642 149.218 321.76C149.208 321.848 149.617 322.124 149.307 322.004C149.312 321.959 149.253 321.885 149.229 321.819L148.97 321.722L149.117 321.892C149.059 321.849 149.056 321.84 149.023 321.809C149.129 321.983 148.797 321.86 148.913 322.062C148.825 322.084 148.625 321.944 148.524 321.928L148.533 321.925C148.356 321.819 148.272 321.882 148.237 321.99L148.224 321.953C148.154 321.936 148.037 321.968 147.999 322.067C147.793 321.94 147.693 321.433 147.62 321.641C147.494 321.645 147.486 321.945 147.578 322.05C147.418 321.992 147.283 322.03 147.132 322.054C146.99 322.074 146.81 322.076 146.753 321.948C146.723 322.012 146.74 322.059 146.69 322.098C146.432 322.033 146.136 322.301 145.927 321.962C146.007 321.89 145.932 321.8 145.929 321.706C145.867 321.856 145.852 321.553 145.828 321.807C145.829 321.955 145.825 322.031 145.899 322.089C145.746 322.166 145.503 322.17 145.42 322.03C145.466 322.099 145.429 322.144 145.393 322.189C145.402 321.952 145.29 321.908 145.204 321.992L145.192 322.135L145.137 321.985C145.137 321.985 145.102 322.296 145.015 322.146C145.017 322.093 145.005 322.033 144.988 321.986C144.894 322.106 144.767 322.312 144.668 322.188L144.589 321.972C144.589 321.972 144.473 322.121 144.551 322.188C144.386 322.057 144.275 322.044 144.229 321.859C143.935 322.307 143.514 322.323 143.184 322.294L143.197 322.183C143.105 322.078 143.149 322.371 143.09 322.297C143.115 322.192 143.026 322.065 143.098 321.942C142.972 321.829 142.933 322.131 142.846 322.184C142.834 322.326 142.919 322.093 142.899 322.271C142.885 322.319 142.719 322.156 142.703 322.374C142.672 322.29 142.699 322.131 142.718 322.039L142.639 322.142C142.546 321.889 142.857 321.69 142.762 321.373L142.687 321.4C142.627 321.178 142.883 321.148 142.706 321.074C142.627 321.178 142.554 321.502 142.63 321.592C142.461 321.654 142.553 322.11 142.375 322.09C142.327 321.958 142.513 322.06 142.48 321.881C142.396 321.709 142.312 321.974 142.237 321.917C142.322 322.003 142.252 322.22 142.193 322.263C142.102 322.158 142.257 322.058 142.13 322.03C142.111 322.154 141.987 322.253 142.094 322.341C142.049 322.624 141.959 322.263 141.89 322.48C141.849 322.282 142.028 322.014 141.886 321.917C141.904 322.113 141.716 322.181 141.788 322.464C141.736 322.409 141.731 322.251 141.766 322.142C141.69 322.021 141.574 322.489 141.553 322.113L141.53 322.313C141.506 322.248 141.467 322.198 141.429 322.095C141.363 322.087 141.206 322.357 141.216 322.066C141.195 322.095 141.04 322.078 141.096 322.291C141.195 322.415 141.212 322.142 141.262 322.422C141.189 322.193 141.123 322.452 141.065 322.526L141.056 322.412C141.056 322.412 140.945 322.431 140.927 322.555C140.957 322.491 140.939 322.413 140.915 322.379L140.882 322.55C140.742 322.633 140.855 322.241 140.714 322.293L140.814 322.16C140.814 322.16 140.744 322.026 140.679 322.082C140.643 322.244 140.607 322.438 140.589 322.562C140.518 322.63 140.555 322.383 140.477 322.549L140.576 322.354C140.576 322.354 140.512 322.09 140.417 322.092C140.352 322.148 140.254 322.375 140.352 322.468C140.298 322.466 140.232 322.373 140.273 322.252C140.154 322.306 140.284 322.428 140.192 322.526C140.154 322.423 140.033 322.265 139.956 322.112L140.058 321.84L139.992 321.833C140.084 321.618 139.952 321.666 140 321.446C139.954 321.41 139.896 321.484 139.854 321.542C139.988 321.909 139.694 322.037 139.732 322.375C139.542 322.466 139.617 321.565 139.423 322.083C139.454 322.168 139.367 322.423 139.481 322.328C139.363 322.297 139.399 322.656 139.265 322.524C139.366 322.392 139.164 322.189 139.303 321.988C139.291 322.1 139.388 322.075 139.409 322.045C139.361 321.914 139.425 321.71 139.299 321.713C139.224 321.741 139.132 321.753 139.14 321.92C139.146 322.11 139.25 321.901 139.202 322.089C139.055 322.154 139.034 321.863 138.977 322.203C139.062 322.173 139.093 322.374 139.087 322.504L138.979 322.586L138.998 322.462C138.827 322.375 138.944 322.695 138.782 322.658L138.692 322.414C138.749 322.191 138.948 322.502 138.919 322.161C138.808 322.148 138.775 322.32 138.678 322.228C138.699 322.199 138.727 322.189 138.758 322.156C138.723 322.148 138.681 321.684 138.534 321.951C138.454 322.054 138.515 322.074 138.509 322.204C138.333 322.247 138.283 322.372 138.173 322.391C138.197 322.137 137.973 322.368 138.102 322.109C138.157 322.259 138.406 322.242 138.469 322.006C138.413 321.707 138.603 322.053 138.638 321.742C138.499 321.74 138.506 321.439 138.488 321.243C138.449 321.225 138.417 321.312 138.386 321.344C138.37 321.531 138.42 321.524 138.426 321.713C138.269 321.664 138.123 321.76 138.04 321.939C137.987 321.852 138.003 321.665 138.073 321.651C137.891 321.707 137.687 321.674 137.518 321.619C137.628 321.92 137.321 321.691 137.401 321.939C137.491 322.012 137.567 322.219 137.52 322.353C137.459 322.333 137.526 322.223 137.502 322.157C137.424 322.324 137.384 321.892 137.309 322.154C137.477 322.06 137.346 321.789 137.377 321.554C137.254 321.684 137.382 321.392 137.261 321.383C137.138 321.513 136.993 321.609 136.855 321.67C136.687 321.444 136.428 321.666 136.279 321.668C136.203 321.546 136.256 321.282 136.175 321.237C136.071 321.243 136.247 321.52 136.098 321.404L136.112 321.356C136.069 321.414 135.844 321.177 135.792 321.558L135.838 321.275C135.838 321.275 135.788 321.315 135.758 321.347C135.755 321.252 135.724 321.168 135.766 321.11C135.672 320.91 135.574 321.137 135.474 321.153L135.535 321.322C135.362 321.46 135.256 321.286 135.087 321.348L135.092 321.186L134.99 321.287C135.017 321.128 134.926 321.023 134.879 321.157L135.136 320.755C135.206 320.857 135.06 320.953 135.099 321.119C135.141 321.264 135.286 321.222 135.313 321.063C135.252 321.042 135.256 321.083 135.204 321.145C135.185 320.918 135.274 320.928 135.323 320.771C135.295 320.782 135.249 320.713 135.241 320.78C135.304 320.661 135.364 320.65 135.459 320.647C135.395 320.734 135.492 320.795 135.471 320.856C135.481 320.65 135.578 320.593 135.702 320.643C135.788 320.878 135.935 320.494 136.076 320.56C136.013 320.764 135.945 320.927 135.859 321.012C135.95 321.117 135.963 321.006 136.045 321.114C136.085 320.961 136.125 320.723 136.24 320.628L136.241 320.777C136.349 320.694 136.352 320.47 136.487 320.516C136.716 320.592 136.951 320.592 137.128 320.612L137.129 320.76C137.234 320.435 137.458 320.64 137.587 320.497C137.813 320.649 138.076 320.35 138.195 320.616C138.59 320.503 138.941 320.385 139.357 320.446L139.287 320.663C139.365 320.497 139.335 320.795 139.407 320.758C139.323 320.586 139.505 320.531 139.561 320.393C139.74 320.562 139.981 320.378 140.138 320.224L140.139 320.373C140.302 320.09 140.499 320.337 140.709 320.388C140.733 320.454 140.763 320.592 140.832 320.578C140.945 320.334 141.006 320.354 141.163 320.201C141.28 320.201 141.475 320.268 141.594 320.363C142.043 320.018 142.499 320.245 142.968 320.042L143.001 320.221C143.459 319.841 144.003 320.195 144.39 320.001L144.351 320.302C144.471 320.397 144.631 320.221 144.596 320.01C144.716 320.105 144.896 319.869 144.976 320.117C145.104 320.176 145.127 319.976 145.23 319.938C145.477 320.061 145.571 320.027 145.807 319.972L145.746 319.952C145.716 320.016 145.714 320.155 145.771 320.166C145.857 320.082 146.09 320.252 146.01 319.887C146.256 320.095 146.587 319.719 146.829 320.003C146.804 319.906 146.883 319.888 146.887 319.812C146.915 319.801 147.035 320.013 147.014 319.839C147.044 319.892 147.067 320.012 147.092 320.024C147.088 319.983 147.044 319.892 147.024 319.836C146.968 319.654 147.308 320.03 147.398 319.987C147.349 319.823 147.471 319.864 147.588 319.864C147.581 319.845 147.565 319.83 147.536 319.809L147.677 319.874C147.4 319.73 147.525 319.78 147.605 319.794C147.688 319.817 147.725 319.803 147.367 319.668C147.476 319.703 147.405 319.654 147.638 319.739C147.309 319.625 147.839 319.708 147.44 319.577C147.44 319.577 147.453 319.583 147.501 319.598C147.684 319.573 147.359 319.501 147.5 319.449C147.544 319.454 147.579 319.463 147.665 319.463C147.806 319.412 147.262 319.44 147.653 319.372C147.646 319.353 147.448 319.394 147.47 319.396C147.496 319.323 147.411 319.236 147.322 319.195C147.196 319.113 146.939 318.877 146.773 318.714C146.726 318.294 147.247 318.349 146.855 318.269C146.898 318.21 146.74 318.332 146.789 318.293C146.64 318.262 147.003 317.916 146.809 317.966C146.652 318.119 146.68 317.992 146.571 318.074C146.551 317.815 146.686 317.66 146.444 317.61L146.54 317.553C146.155 317.577 146.153 317.28 145.753 317.351C145.022 316.458 144.209 315.691 143.526 314.812C142.939 313.877 142.163 313.095 141.662 312.075C141.752 311.68 141.73 311.678 141.456 311.512C141.503 311.495 141.525 311.497 141.543 311.459C141.335 311.588 141.403 311.308 141.201 311.424C140.994 311.063 140.714 310.793 140.461 310.449C140.519 310.492 140.709 310.401 140.644 310.339L140.471 310.36L140.517 310.311C140.517 310.311 140.324 310.307 140.291 310.394C139.489 309.655 139.269 308.5 138.6 307.69C138.536 307.426 138.251 307.201 138.052 307.007C137.851 306.165 137.633 305.425 136.969 304.89C136.969 304.89 137.546 304.605 137.858 304.789L137.84 304.795Z" fill="white"/>
<path d="M134.702 320.615C134.728 320.744 134.824 320.805 134.747 320.971C134.737 320.858 134.689 320.726 134.702 320.615Z" fill="white"/>
<path d="M137.194 321.897C137.194 321.897 137.233 321.947 137.24 321.966C137.212 321.976 137.174 322.075 137.153 322.019C137.181 322.009 137.183 321.955 137.194 321.897Z" fill="white"/>
<path d="M137.829 321.974C137.816 322.085 137.676 322.168 137.598 322.186L137.829 321.974Z" fill="white"/>
<path d="M138.421 322.428C138.474 322.515 138.454 322.576 138.387 322.569C138.385 322.505 138.406 322.476 138.421 322.428Z" fill="white"/>
<path d="M138.458 322.181C138.458 322.181 138.532 322.238 138.556 322.304C138.554 322.209 138.441 322.368 138.458 322.181Z" fill="white"/>
<path d="M139.749 322.507C139.749 322.507 139.85 322.406 139.876 322.535C139.845 322.451 139.725 322.675 139.749 322.507Z" fill="white"/>
<path d="M140.351 322.351C140.351 322.351 140.384 322.381 140.402 322.343C140.441 322.392 140.396 322.473 140.368 322.483L140.351 322.351Z" fill="white"/>
<path d="M150.55 320.452L150.683 320.553L150.513 320.498L150.55 320.452Z" fill="white"/>
<path d="M147.147 315.777C147.058 315.767 147.208 315.68 147.21 315.658C147.255 315.695 147.086 315.725 147.147 315.777Z" fill="white"/>
<path d="M145.188 314.002L145.204 314.017L145.018 314.149L145.188 314.002Z" fill="white"/>
</g>
<defs>
<clipPath id="clip0_171902_813">
<rect width="121.27" height="315.39" fill="white" transform="translate(0 41.6491) rotate(-20.0867)"/>
</clipPath>
</defs>
</svg>
