<svg width="401" height="270" viewBox="0 0 401 270" fill="none" xmlns="http://www.w3.org/2000/svg">
<path d="M329.778 93.2975C320.502 157.515 260.922 202.054 196.704 192.778C132.486 183.503 87.9462 123.923 97.2219 59.7025C106.498 -4.51483 166.078 -49.0537 230.296 -39.7781C294.514 -30.5026 339.054 29.0769 329.778 93.2943" fill="#3EB5F1"/>
<path d="M213.85 241C205.835 241 197.775 240.424 189.698 239.258C145.689 232.9 106.792 209.786 80.1681 174.172C53.5477 138.558 42.3869 94.7073 48.7416 50.7023C55.0996 6.69396 78.2136 -32.207 113.827 -58.8274C149.441 -85.4511 193.293 -96.6152 237.301 -90.2572C281.309 -83.8992 320.207 -60.7852 346.83 -25.1713C373.454 10.4426 384.615 54.2938 378.257 98.3021C371.899 142.31 348.785 181.208 313.171 207.832C284.092 229.571 249.513 241 213.85 241ZM213.178 -77.7442C180.567 -77.7442 148.954 -67.2938 122.359 -47.4144C89.7935 -23.0694 68.6602 12.4987 62.8457 52.7386C57.0312 92.9786 67.2394 133.075 91.5811 165.637C115.926 198.203 151.491 219.336 191.734 225.151C231.974 230.962 272.07 220.76 304.636 196.415C337.202 172.07 358.335 136.506 364.15 96.2657C369.961 56.0257 359.756 15.9297 335.414 -16.6329C311.069 -49.1987 275.501 -70.332 235.261 -76.1465C227.882 -77.2138 220.502 -77.7409 213.178 -77.7409" fill="#3EB5F1"/>
<path d="M362.632 119L359.775 139.353L364.753 140.093L367.61 119.74L362.632 119Z" fill="white"/>
<path d="M353.445 184.452L350.588 204.805L355.566 205.545L358.423 185.192L353.445 184.452Z" fill="white"/>
<path d="M381.222 162.883L380.503 168.006L400.281 170.946L401 165.823L381.222 162.883Z" fill="white"/>
<path d="M397.862 145.354L378.963 152.036L380.596 156.928L399.495 150.246L397.862 145.354Z" fill="white"/>
<path d="M383.734 127.092L371.371 143.248L375.32 146.448L387.683 130.292L383.734 127.092Z" fill="white"/>
<path d="M326.46 134.496L323.547 138.716L339.835 150.628L342.749 146.409L326.46 134.496Z" fill="white"/>
<path d="M345.007 121.111L340.34 123.03L347.754 142.127L352.422 140.208L345.007 121.111Z" fill="white"/>
<path d="M317.719 153.442L317 158.565L336.778 161.505L337.497 156.382L317.719 153.442Z" fill="white"/>
<path d="M369.771 182.296L365.037 184.036L371.757 203.403L376.491 201.663L369.771 182.296Z" fill="white"/>
<path d="M378.048 174.203L374.984 178.308L390.831 190.835L393.895 186.731L378.048 174.203Z" fill="white"/>
<path d="M337.245 167.305L318.688 174.935L320.555 179.742L339.111 172.112L337.245 167.305Z" fill="white"/>
<path d="M342.894 178.202L330.167 194.057L334.042 197.351L346.769 181.497L342.894 178.202Z" fill="white"/>
<path d="M46.4603 87.1253C48.286 88.8666 48.353 91.7588 46.6117 93.5845C44.8704 95.4102 41.9782 95.4772 40.1524 93.7359C38.3267 91.9946 38.2597 89.1024 40.0011 87.2767C41.7424 85.451 44.6346 85.3839 46.4603 87.1253Z" fill="#2A2B81"/>
<path d="M46.4603 87.1253C48.286 88.8666 48.353 91.7588 46.6117 93.5845C44.8704 95.4102 41.9782 95.4772 40.1524 93.7359C38.3267 91.9946 38.2597 89.1024 40.0011 87.2767C41.7424 85.451 44.6346 85.3839 46.4603 87.1253Z" stroke="#2A2B81" stroke-width="1.73" stroke-miterlimit="10"/>
<path d="M52.3646 105.876C54.1903 107.618 54.2573 110.51 52.516 112.336C50.7747 114.161 47.8825 114.228 46.0567 112.487C44.231 110.746 44.164 107.854 45.9054 106.028C47.6467 104.202 50.5389 104.135 52.3646 105.876Z" fill="#2A2B81"/>
<path d="M52.3646 105.876C54.1903 107.618 54.2573 110.51 52.516 112.336C50.7747 114.161 47.8825 114.228 46.0567 112.487C44.231 110.746 44.164 107.854 45.9054 106.028C47.6467 104.202 50.5389 104.135 52.3646 105.876Z" stroke="#2A2B81" stroke-width="1.73" stroke-miterlimit="10"/>
<path d="M58.2806 125.126C60.1063 126.868 60.1733 129.76 58.432 131.586C56.6907 133.411 53.7985 133.478 51.9728 131.737C50.147 129.996 50.08 127.103 51.8214 125.278C53.5627 123.452 56.4549 123.385 58.2806 125.126Z" fill="#2A2B81"/>
<path d="M58.2806 125.126C60.1063 126.868 60.1733 129.76 58.432 131.586C56.6907 133.411 53.7985 133.478 51.9728 131.737C50.147 129.996 50.08 127.103 51.8214 125.278C53.5627 123.452 56.4549 123.385 58.2806 125.126Z" stroke="#2A2B81" stroke-width="1.73" stroke-miterlimit="10"/>
<path d="M63.7115 144.884C65.5373 146.626 65.6042 149.518 63.8629 151.343C62.1216 153.169 59.2294 153.236 57.4037 151.495C55.578 149.754 55.5109 146.861 57.2523 145.036C58.9936 143.21 61.8858 143.143 63.7115 144.884Z" fill="#2A2B81"/>
<path d="M63.7115 144.884C65.5373 146.626 65.6042 149.518 63.8629 151.343C62.1216 153.169 59.2294 153.236 57.4037 151.495C55.578 149.754 55.5109 146.861 57.2523 145.036C58.9936 143.21 61.8858 143.143 63.7115 144.884Z" stroke="#2A2B81" stroke-width="1.73" stroke-miterlimit="10"/>
<path d="M69.6183 163.637C71.444 165.379 71.511 168.271 69.7696 170.096C68.0283 171.922 65.1361 171.989 63.3104 170.248C61.4847 168.507 61.4177 165.614 63.159 163.789C64.9003 161.963 67.7925 161.896 69.6183 163.637Z" fill="#2A2B81"/>
<path d="M69.6182 163.637C71.444 165.379 71.511 168.271 69.7696 170.096C68.0283 171.922 65.1361 171.989 63.3104 170.248C61.4847 168.507 61.4177 165.614 63.159 163.789C64.9003 161.963 67.7925 161.896 69.6182 163.637Z" stroke="#2A2B81" stroke-width="1.73" stroke-miterlimit="10"/>
<path d="M75.2677 182.147C77.0934 183.888 77.1604 186.781 75.4191 188.606C73.6778 190.432 70.7856 190.499 68.9598 188.758C67.1341 187.016 67.0671 184.124 68.8084 182.299C70.5497 180.473 73.442 180.406 75.2677 182.147Z" fill="#2A2B81"/>
<path d="M75.2677 182.147C77.0934 183.888 77.1604 186.781 75.4191 188.606C73.6778 190.432 70.7856 190.499 68.9598 188.758C67.1341 187.016 67.0671 184.124 68.8084 182.299C70.5497 180.473 73.442 180.406 75.2677 182.147Z" stroke="#2A2B81" stroke-width="1.73" stroke-miterlimit="10"/>
<path d="M81.4251 201.142C83.2508 202.884 83.3178 205.776 81.5765 207.601C79.8352 209.427 76.943 209.494 75.1173 207.753C73.2916 206.012 73.2246 203.119 74.9659 201.294C76.7072 199.468 79.5994 199.401 81.4251 201.142Z" fill="#2A2B81"/>
<path d="M81.4251 201.142C83.2508 202.884 83.3178 205.776 81.5765 207.601C79.8352 209.427 76.943 209.494 75.1173 207.753C73.2916 206.012 73.2246 203.119 74.9659 201.294C76.7072 199.468 79.5994 199.401 81.4251 201.142Z" stroke="#2A2B81" stroke-width="1.73" stroke-miterlimit="10"/>
<path d="M60.2125 208.101C62.0382 209.843 62.1052 212.735 60.3639 214.561C58.6226 216.386 55.7304 216.453 53.9047 214.712C52.0789 212.971 52.0119 210.079 53.7532 208.253C55.4946 206.427 58.3868 206.36 60.2125 208.101Z" fill="#2A2B81"/>
<path d="M60.2125 208.101C62.0382 209.843 62.1052 212.735 60.3639 214.561C58.6226 216.386 55.7304 216.453 53.9047 214.712C52.0789 212.971 52.0119 210.079 53.7532 208.253C55.4946 206.427 58.3868 206.36 60.2125 208.101Z" stroke="#2A2B81" stroke-width="1.73" stroke-miterlimit="10"/>
<path d="M53.5675 189.613C55.3932 191.354 55.4602 194.246 53.7188 196.072C51.9775 197.897 49.0853 197.964 47.2596 196.223C45.4339 194.482 45.3669 191.59 47.1082 189.764C48.8496 187.938 51.7417 187.871 53.5675 189.613Z" fill="#2A2B81"/>
<path d="M53.5675 189.613C55.3932 191.354 55.4602 194.246 53.7188 196.072C51.9775 197.897 49.0853 197.964 47.2596 196.223C45.4339 194.482 45.3669 191.59 47.1082 189.764C48.8496 187.938 51.7417 187.871 53.5675 189.613Z" stroke="#2A2B81" stroke-width="1.73" stroke-miterlimit="10"/>
<path d="M48.3805 169.602C50.2062 171.343 50.2732 174.235 48.5319 176.061C46.7905 177.886 43.8983 177.953 42.0726 176.212C40.2469 174.471 40.1799 171.579 41.9212 169.753C43.6625 167.927 46.5547 167.86 48.3805 169.602Z" fill="#2A2B81"/>
<path d="M48.3805 169.602C50.2062 171.343 50.2732 174.235 48.5319 176.061C46.7905 177.886 43.8983 177.953 42.0726 176.212C40.2469 174.471 40.1799 171.579 41.9212 169.753C43.6625 167.927 46.5547 167.86 48.3805 169.602Z" stroke="#2A2B81" stroke-width="1.73" stroke-miterlimit="10"/>
<path d="M41.9791 150.86C43.8048 152.601 43.8718 155.493 42.1305 157.319C40.3892 159.145 37.497 159.212 35.6712 157.47C33.8455 155.729 33.7785 152.837 35.5199 151.011C37.2612 149.185 40.1534 149.118 41.9791 150.86Z" fill="#2A2B81"/>
<path d="M41.9791 150.86C43.8048 152.601 43.8718 155.493 42.1305 157.319C40.3892 159.145 37.497 159.212 35.6712 157.47C33.8455 155.729 33.7785 152.837 35.5199 151.011C37.2612 149.185 40.1534 149.118 41.9791 150.86Z" stroke="#2A2B81" stroke-width="1.73" stroke-miterlimit="10"/>
<path d="M36.8013 131.345C38.6271 133.087 38.6941 135.979 36.9527 137.805C35.2114 139.63 32.3192 139.697 30.4935 137.956C28.6678 136.215 28.6008 133.323 30.3421 131.497C32.0834 129.671 34.9756 129.604 36.8013 131.345Z" fill="#2A2B81"/>
<path d="M36.8013 131.345C38.6271 133.087 38.6941 135.979 36.9527 137.805C35.2114 139.63 32.3192 139.697 30.4935 137.956C28.6678 136.215 28.6008 133.323 30.3421 131.497C32.0834 129.671 34.9756 129.604 36.8013 131.345Z" stroke="#2A2B81" stroke-width="1.73" stroke-miterlimit="10"/>
<path d="M30.4002 112.604C32.2259 114.345 32.293 117.237 30.5516 119.063C28.8103 120.889 25.9181 120.956 24.0924 119.214C22.2667 117.473 22.1997 114.581 23.941 112.755C25.6823 110.929 28.5745 110.862 30.4002 112.604Z" fill="#2A2B81"/>
<path d="M30.4002 112.604C32.226 114.345 32.293 117.237 30.5516 119.063C28.8103 120.889 25.9181 120.956 24.0924 119.214C22.2667 117.473 22.1997 114.581 23.941 112.755C25.6823 110.929 28.5745 110.862 30.4002 112.604Z" stroke="#2A2B81" stroke-width="1.73" stroke-miterlimit="10"/>
<path d="M4.51863 100.695C6.34435 102.437 6.41136 105.329 4.67004 107.155C2.92871 108.98 0.0365167 109.047 -1.7892 107.306C-3.61492 105.565 -3.68193 102.673 -1.94061 100.847C-0.199281 99.0212 2.69291 98.9542 4.51863 100.695Z" fill="#2A2B81"/>
<path d="M4.51863 100.695C6.34435 102.437 6.41136 105.329 4.67004 107.155C2.92871 108.98 0.0365168 109.047 -1.7892 107.306C-3.61492 105.565 -3.68193 102.673 -1.94061 100.847C-0.199281 99.0212 2.69291 98.9542 4.51863 100.695Z" stroke="#2A2B81" stroke-width="1.73" stroke-miterlimit="10"/>
<path d="M31.0951 195.854C32.9208 197.596 32.9878 200.488 31.2465 202.314C29.5051 204.139 26.6129 204.206 24.7872 202.465C22.9615 200.724 22.8945 197.832 24.6358 196.006C26.3771 194.18 29.2693 194.113 31.0951 195.854Z" fill="#2A2B81"/>
<path d="M31.0951 195.854C32.9208 197.596 32.9878 200.488 31.2465 202.314C29.5051 204.139 26.6129 204.206 24.7872 202.465C22.9615 200.724 22.8945 197.832 24.6358 196.006C26.3771 194.18 29.2693 194.113 31.0951 195.854Z" stroke="#2A2B81" stroke-width="1.73" stroke-miterlimit="10"/>
<path d="M26.9122 176.315C28.7379 178.056 28.8049 180.949 27.0636 182.774C25.3223 184.6 22.4301 184.667 20.6044 182.926C18.7786 181.184 18.7116 178.292 20.453 176.466C22.1943 174.641 25.0865 174.574 26.9122 176.315Z" fill="#2A2B81"/>
<path d="M26.9122 176.315C28.7379 178.056 28.8049 180.949 27.0636 182.774C25.3223 184.6 22.4301 184.667 20.6044 182.926C18.7786 181.184 18.7116 178.292 20.453 176.466C22.1943 174.641 25.0865 174.574 26.9122 176.315Z" stroke="#2A2B81" stroke-width="1.73" stroke-miterlimit="10"/>
<path d="M21.1207 151.843C22.9464 153.584 23.0134 156.476 21.2721 158.302C19.5308 160.128 16.6386 160.195 14.8128 158.453C12.9871 156.712 12.9201 153.82 14.6614 151.994C16.4028 150.169 19.295 150.102 21.1207 151.843Z" fill="#2A2B81"/>
<path d="M21.1207 151.843C22.9464 153.584 23.0134 156.476 21.2721 158.302C19.5308 160.128 16.6386 160.195 14.8128 158.453C12.9871 156.712 12.9201 153.82 14.6614 151.994C16.4028 150.169 19.295 150.102 21.1207 151.843Z" stroke="#2A2B81" stroke-width="1.73" stroke-miterlimit="10"/>
<path d="M13.0348 124.689C14.8605 126.431 14.9275 129.323 13.1861 131.149C11.4448 132.974 8.55261 133.041 6.7269 131.3C4.90118 129.559 4.83419 126.666 6.57552 124.841C8.31684 123.015 11.209 122.948 13.0348 124.689Z" fill="#2A2B81"/>
<path d="M13.0348 124.689C14.8605 126.431 14.9275 129.323 13.1861 131.149C11.4448 132.974 8.55261 133.041 6.7269 131.3C4.90118 129.559 4.83419 126.666 6.57552 124.841C8.31684 123.015 11.209 122.948 13.0348 124.689Z" stroke="#2A2B81" stroke-width="1.73" stroke-miterlimit="10"/>
<path d="M37.7393 214.339C39.5651 216.08 39.632 218.973 37.8907 220.798C36.1494 222.624 33.2572 222.691 31.4315 220.95C29.6058 219.208 29.5388 216.316 31.2801 214.49C33.0214 212.665 35.9136 212.598 37.7393 214.339Z" fill="#2A2B81"/>
<path d="M37.7393 214.339C39.5651 216.08 39.632 218.973 37.8907 220.798C36.1494 222.624 33.2572 222.691 31.4315 220.95C29.6058 219.208 29.5388 216.316 31.2801 214.49C33.0214 212.665 35.9136 212.598 37.7393 214.339Z" stroke="#2A2B81" stroke-width="1.73" stroke-miterlimit="10"/>
<path d="M16.5015 220.303C18.3273 222.045 18.3943 224.937 16.653 226.763C14.9116 228.588 12.0194 228.655 10.1937 226.914C8.36798 225.173 8.30098 222.28 10.0423 220.455C11.7836 218.629 14.6758 218.562 16.5015 220.303Z" fill="#2A2B81"/>
<path d="M16.5015 220.303C18.3273 222.045 18.3943 224.937 16.653 226.763C14.9116 228.588 12.0194 228.655 10.1937 226.914C8.36798 225.173 8.30098 222.28 10.0423 220.455C11.7836 218.629 14.6758 218.562 16.5015 220.303Z" stroke="#2A2B81" stroke-width="1.73" stroke-miterlimit="10"/>
<path d="M10.5509 199.562C12.3766 201.303 12.4436 204.195 10.7023 206.021C8.96094 207.846 6.06874 207.914 4.24303 206.172C2.41731 204.431 2.3503 201.539 4.09162 199.713C5.83295 197.887 8.72516 197.82 10.5509 199.562Z" fill="#2A2B81"/>
<path d="M10.5509 199.562C12.3766 201.303 12.4436 204.195 10.7023 206.021C8.96094 207.846 6.06874 207.914 4.24303 206.172C2.41731 204.431 2.3503 201.539 4.09162 199.713C5.83295 197.887 8.72516 197.82 10.5509 199.562Z" stroke="#2A2B81" stroke-width="1.73" stroke-miterlimit="10"/>
<path d="M7.10605 179.758C8.93176 181.499 8.99878 184.392 7.25745 186.217C5.51613 188.043 2.62392 188.11 0.798201 186.369C-1.02752 184.627 -1.09453 181.735 0.6468 179.909C2.38813 178.084 5.28033 178.017 7.10605 179.758Z" fill="#2A2B81"/>
<path d="M7.10605 179.758C8.93176 181.499 8.99878 184.392 7.25745 186.217C5.51613 188.043 2.62392 188.11 0.798201 186.369C-1.02752 184.627 -1.09453 181.735 0.6468 179.909C2.38813 178.084 5.28033 178.017 7.10605 179.758Z" stroke="#2A2B81" stroke-width="1.73" stroke-miterlimit="10"/>
<path d="M3.33968 156.731C5.1654 158.473 5.23241 161.365 3.49108 163.19C1.74976 165.016 -1.14244 165.083 -2.96816 163.342C-4.79387 161.601 -4.86088 158.708 -3.11956 156.883C-1.37823 155.057 1.51396 154.99 3.33968 156.731Z" fill="#2A2B81"/>
<path d="M3.33968 156.731C5.1654 158.473 5.23241 161.365 3.49108 163.19C1.74976 165.016 -1.14244 165.083 -2.96816 163.342C-4.79387 161.601 -4.86088 158.708 -3.11956 156.883C-1.37823 155.057 1.51396 154.99 3.33968 156.731Z" stroke="#2A2B81" stroke-width="1.73" stroke-miterlimit="10"/>
<path d="M44.1405 233.081C45.9662 234.822 46.0332 237.714 44.2918 239.54C42.5505 241.366 39.6583 241.433 37.8326 239.692C36.0069 237.95 35.9399 235.058 37.6812 233.232C39.4226 231.407 42.3147 231.34 44.1405 233.081Z" fill="#2A2B81"/>
<path d="M44.1405 233.081C45.9662 234.822 46.0332 237.714 44.2918 239.54C42.5505 241.366 39.6583 241.433 37.8326 239.692C36.0069 237.95 35.9399 235.058 37.6812 233.232C39.4226 231.407 42.3147 231.34 44.1405 233.081Z" stroke="#2A2B81" stroke-width="1.73" stroke-miterlimit="10"/>
<path d="M66.6153 226.841C68.441 228.582 68.5081 231.474 66.7667 233.3C65.0254 235.126 62.1332 235.193 60.3075 233.451C58.4818 231.71 58.4148 228.818 60.1561 226.992C61.8974 225.166 64.7896 225.099 66.6153 226.841Z" fill="#2A2B81"/>
<path d="M66.6153 226.841C68.441 228.582 68.5081 231.474 66.7667 233.3C65.0254 235.126 62.1332 235.193 60.3075 233.451C58.4818 231.71 58.4148 228.818 60.1561 226.992C61.8974 225.166 64.7896 225.099 66.6153 226.841Z" stroke="#2A2B81" stroke-width="1.73" stroke-miterlimit="10"/>
<path d="M97.0001 176.172C98.8258 177.913 98.8928 180.805 97.1515 182.631C95.4101 184.457 92.5179 184.524 90.6922 182.782C88.8665 181.041 88.7995 178.149 90.5408 176.323C92.2822 174.497 95.1744 174.43 97.0001 176.172Z" fill="#2A2B81"/>
<path d="M97.0001 176.172C98.8258 177.913 98.8928 180.805 97.1515 182.631C95.4101 184.457 92.5179 184.524 90.6922 182.782C88.8665 181.041 88.7995 178.149 90.5408 176.323C92.2822 174.497 95.1744 174.43 97.0001 176.172Z" stroke="#2A2B81" stroke-width="1.73" stroke-miterlimit="10"/>
<path d="M91.5943 157.409C93.42 159.15 93.487 162.042 91.7457 163.868C90.0044 165.694 87.1122 165.761 85.2865 164.02C83.4607 162.278 83.3938 159.386 85.1351 157.56C86.8764 155.735 89.7686 155.668 91.5943 157.409Z" fill="#2A2B81"/>
<path d="M91.5943 157.409C93.42 159.15 93.487 162.042 91.7457 163.868C90.0044 165.694 87.1122 165.761 85.2865 164.02C83.4607 162.278 83.3938 159.386 85.1351 157.56C86.8764 155.735 89.7686 155.668 91.5943 157.409Z" stroke="#2A2B81" stroke-width="1.73" stroke-miterlimit="10"/>
<path d="M86.4395 138.888C88.2653 140.629 88.3322 143.521 86.5909 145.347C84.8496 147.173 81.9574 147.24 80.1317 145.499C78.306 143.757 78.239 140.865 79.9803 139.039C81.7216 137.214 84.6138 137.147 86.4395 138.888Z" fill="#2A2B81"/>
<path d="M86.4395 138.888C88.2653 140.629 88.3322 143.521 86.5909 145.347C84.8496 147.173 81.9574 147.24 80.1317 145.499C78.306 143.757 78.239 140.865 79.9803 139.039C81.7216 137.214 84.6138 137.147 86.4395 138.888Z" stroke="#2A2B81" stroke-width="1.73" stroke-miterlimit="10"/>
<path d="M80.2433 118.402C82.069 120.143 82.136 123.035 80.3947 124.861C78.6533 126.687 75.7611 126.754 73.9354 125.012C72.1097 123.271 72.0427 120.379 73.784 118.553C75.5253 116.728 78.4175 116.661 80.2433 118.402Z" fill="#2A2B81"/>
<path d="M80.2432 118.402C82.069 120.143 82.136 123.035 80.3947 124.861C78.6533 126.687 75.7611 126.754 73.9354 125.012C72.1097 123.271 72.0427 120.379 73.784 118.553C75.5253 116.728 78.4175 116.661 80.2432 118.402Z" stroke="#2A2B81" stroke-width="1.73" stroke-miterlimit="10"/>
<path d="M74.5821 99.3932C76.4078 101.134 76.4749 104.027 74.7335 105.852C72.9922 107.678 70.1 107.745 68.2743 106.004C66.4486 104.262 66.3815 101.37 68.1229 99.5446C69.8642 97.7188 72.7564 97.6518 74.5821 99.3932Z" fill="#2A2B81"/>
<path d="M74.5821 99.3932C76.4078 101.134 76.4749 104.027 74.7335 105.852C72.9922 107.678 70.1 107.745 68.2743 106.004C66.4486 104.262 66.3815 101.37 68.1229 99.5446C69.8642 97.7188 72.7564 97.6518 74.5821 99.3932Z" stroke="#2A2B81" stroke-width="1.73" stroke-miterlimit="10"/>
<path d="M105.029 139.493C102.544 139.929 100.177 138.266 99.7426 135.779C99.307 133.294 100.97 130.926 103.457 130.492C104.604 132.993 105.398 136.53 105.029 139.493Z" fill="#2A2B81"/>
<path d="M105.029 139.493C102.544 139.929 100.177 138.266 99.7426 135.779C99.307 133.294 100.97 130.926 103.457 130.492C104.604 132.993 105.398 136.53 105.029 139.493Z" stroke="#2A2B81" stroke-width="1.73" stroke-miterlimit="10"/>
<path d="M109.657 157.95C107.173 158.386 104.805 156.722 104.371 154.235C103.935 151.751 105.598 149.383 108.086 148.949C109.232 151.449 110.027 154.987 109.657 157.95Z" fill="#2A2B81"/>
<path d="M109.657 157.95C107.173 158.386 104.805 156.722 104.371 154.235C103.935 151.751 105.598 149.383 108.086 148.949C109.232 151.449 110.027 154.987 109.657 157.95Z" stroke="#2A2B81" stroke-width="1.73" stroke-miterlimit="10"/>
<path d="M98.8319 202.878C96.6489 201.612 95.9054 198.819 97.1712 196.636C98.437 194.453 101.231 193.709 103.414 194.975C102.683 197.626 101.019 200.846 98.8319 202.878Z" fill="#2A2B81"/>
<path d="M98.8319 202.878C96.6489 201.612 95.9054 198.819 97.1712 196.636C98.437 194.453 101.231 193.709 103.414 194.975C102.683 197.626 101.019 200.846 98.8319 202.878Z" stroke="#2A2B81" stroke-width="1.73" stroke-miterlimit="10"/>
<path d="M80.7557 225.794C79.0312 223.953 79.1259 221.06 80.9673 219.335C82.8087 217.611 85.6994 217.704 87.4239 219.545C85.9617 221.873 83.435 224.476 80.755 225.79" fill="#2A2B81"/>
<path d="M80.7557 225.794C79.0312 223.953 79.1259 221.06 80.9673 219.335C82.8087 217.611 85.6994 217.704 87.4239 219.545C85.9617 221.873 83.435 224.476 80.755 225.79L80.7557 225.794Z" stroke="#2A2B81" stroke-width="1.73" stroke-miterlimit="10"/>
<path d="M14.4648 242.691C14.7625 240.186 17.0366 238.395 19.5427 238.697C22.048 238.994 23.8346 241.269 23.5387 243.772C20.8147 244.15 17.1971 243.895 14.4648 242.691Z" fill="#2A2B81"/>
<path d="M14.4648 242.691C14.7625 240.186 17.0366 238.395 19.5427 238.697C22.048 238.994 23.8346 241.269 23.5387 243.772C20.8147 244.15 17.1971 243.895 14.4648 242.691Z" stroke="#2A2B81" stroke-width="1.73" stroke-miterlimit="10"/>
<path d="M24.7484 94.092C26.5741 95.8333 26.6411 98.7255 24.8998 100.551C23.1584 102.377 20.2663 102.444 18.4405 100.703C16.6148 98.9613 16.5478 96.0691 18.2891 94.2434C20.0305 92.4177 22.9226 92.3507 24.7484 94.092Z" fill="#2A2B81"/>
<path d="M24.7484 94.092C26.5741 95.8333 26.6411 98.7255 24.8998 100.551C23.1584 102.377 20.2663 102.444 18.4405 100.703C16.6148 98.9613 16.5478 96.0691 18.2891 94.2434C20.0305 92.4177 22.9226 92.3507 24.7484 94.092Z" stroke="#2A2B81" stroke-width="1.73" stroke-miterlimit="10"/>
</svg>
