<svg width="332" height="248" viewBox="0 0 332 248" fill="none" xmlns="http://www.w3.org/2000/svg">
<path d="M323.36 110.137C319.106 163.254 272.596 202.866 219.477 198.612C166.359 194.359 126.747 147.849 131.001 94.7284C135.254 41.611 181.765 1.9992 234.883 6.25282C288.001 10.5064 327.614 57.0164 323.36 110.134" fill="url(#paint0_linear_171902_717)"/>
<path d="M98.4832 242.386C94.4479 242.643 90.3712 242.611 86.2672 242.283C63.906 240.492 43.5811 230.1 29.0357 213.022C14.4918 195.944 7.46779 174.223 9.25767 151.863C11.0491 129.502 21.4406 109.175 38.5189 94.6314C55.5972 80.086 77.3181 73.0603 99.6793 74.8517C122.041 76.6431 142.365 87.0347 156.911 104.113C171.456 121.191 178.48 142.912 176.689 165.273C174.898 187.635 164.506 207.96 147.428 222.505C133.483 234.382 116.439 241.244 98.4832 242.386ZM87.9348 81.9245C71.5153 82.9692 55.9332 89.2435 43.1802 100.104C27.5636 113.405 18.0627 131.99 16.4241 152.437C14.7856 172.883 21.2097 192.744 34.5085 208.359C47.8091 223.976 66.3924 233.477 86.8406 235.115C107.287 236.752 127.148 230.331 142.765 217.031C158.381 203.73 167.882 185.147 169.521 164.7C171.158 144.254 164.735 124.393 151.436 108.778C138.136 93.161 119.551 83.6601 99.1044 82.0216C95.3547 81.7206 91.6224 81.6916 87.9349 81.9262" fill="#3EB5F1"/>
<path d="M114.84 21.903C114.61 32.716 106.958 41.829 96.6815 43.5996C107.1 44.0542 115.845 52.1237 117.444 62.8203C117.674 52.0073 125.326 42.8946 135.603 41.1233C125.184 40.6691 116.44 32.5996 114.84 21.903Z" fill="white"/>
<defs>
<linearGradient id="paint0_linear_171902_717" x1="212.007" y1="60.812" x2="233.308" y2="198.738" gradientUnits="userSpaceOnUse">
<stop stop-color="#60C6F9"/>
<stop offset="1" stop-color="#60C6F9" stop-opacity="0"/>
</linearGradient>
</defs>
</svg>
