<svg width="118" height="55" viewBox="0 0 118 55" fill="none" xmlns="http://www.w3.org/2000/svg">
<g clip-path="url(#clip0_171548_12914)">
<path d="M27.4106 54.4002C12.6252 54.4002 0.597656 42.3312 0.597656 27.5053C0.597656 12.6794 12.6252 0.59977 27.4106 0.59977C42.196 0.59977 54.2235 12.6688 54.2235 27.5053C54.2235 42.3417 42.196 54.4108 27.4106 54.4108V54.4002Z" fill="#2A2B82"/>
<g style="mix-blend-mode:darken">
<path d="M27.4106 0C12.2897 0 0 12.3321 0 27.5053C0 42.6784 12.2897 55.0105 27.4106 55.0105C42.5316 55.0105 54.8213 42.6784 54.8213 27.5053C54.8213 12.3321 42.5211 0 27.4106 0Z" fill="#2A2B82"/>
</g>
<path d="M78.5198 9.37536C78.3415 9.37536 77.4816 9.33327 76.9468 8.85977L76.8105 8.7335C76.7057 8.6388 76.5589 8.57566 76.4121 8.57566C76.3806 8.57566 76.3491 8.57566 76.3177 8.57566C76.1394 8.60723 75.9821 8.71245 75.8982 8.87029C75.7409 9.15439 75.4473 9.3017 75.0698 9.3017H74.965C74.7553 9.3017 74.5665 9.24909 74.4092 9.15439C74.3148 9.09126 74.1995 9.05969 74.0946 9.05969C73.9898 9.05969 73.8744 9.09126 73.7801 9.15439C73.6228 9.24909 73.434 9.3017 73.2138 9.3017H71.6094C71.4941 9.3017 71.3787 9.29118 71.2739 9.25961C71.2214 9.24909 71.169 9.23857 71.1166 9.23857C71.0642 9.23857 71.0117 9.23857 70.9488 9.25961C70.844 9.29118 70.7286 9.3017 70.6132 9.3017H69.2815C69.1452 9.3017 69.0194 9.28066 68.904 9.24909C68.8411 9.22804 68.7782 9.21752 68.7258 9.21752C68.6733 9.21752 68.5999 9.21752 68.5475 9.24909C68.4741 9.27013 68.3273 9.3017 68.17 9.3017C68.0232 9.3017 67.8869 9.28066 67.782 9.23857C67.7086 9.207 67.6457 9.19648 67.5723 9.19648C67.5094 9.19648 67.436 9.207 67.373 9.22805C67.1738 9.3017 66.9536 9.33327 66.7229 9.33327C66.3559 9.33327 65.9784 9.23857 65.6638 9.07021C65.5799 9.02812 65.4856 9.00708 65.3912 9.00708C65.2653 9.00708 65.1395 9.04917 65.0451 9.12282C64.8878 9.23857 64.6781 9.3017 64.4474 9.3017H64.3321C64.1958 9.3017 64.0699 9.28066 63.9546 9.23857C63.8917 9.21752 63.8183 9.207 63.7553 9.207C63.6924 9.207 63.6295 9.207 63.5666 9.23857C63.4303 9.28066 63.2835 9.31222 63.1262 9.31222C62.8955 9.31222 62.6753 9.25961 62.497 9.15439C62.4026 9.10178 62.2978 9.07021 62.2034 9.07021C62.0985 9.07021 61.9832 9.10178 61.8888 9.16491C61.7315 9.25961 61.5428 9.31222 61.3331 9.31222H61.2177C61.008 9.31222 60.8297 9.25961 60.6724 9.16491C60.5781 9.10178 60.4627 9.07021 60.3579 9.07021C60.253 9.07021 60.1481 9.10178 60.0642 9.15439C59.8965 9.24909 59.6553 9.3017 59.4141 9.3017C59.1729 9.3017 58.9317 9.24909 58.764 9.15439C58.6696 9.10178 58.5647 9.07021 58.4599 9.07021C58.355 9.07021 58.2501 9.10178 58.1558 9.15439C57.988 9.25961 57.7678 9.3017 57.5161 9.3017C56.9499 9.3017 56.5514 9.02812 56.4151 8.53357L55.5972 5.6189L55.7545 5.38741C55.9537 5.07174 56.3731 4.87182 56.7821 4.87182C56.9499 4.87182 57.1911 4.90338 57.4113 5.07174C57.5161 5.1454 57.642 5.18749 57.7678 5.18749C57.8412 5.18749 57.9146 5.17696 57.988 5.1454C58.1243 5.09279 58.3026 5.06122 58.4808 5.06122C58.6591 5.06122 58.8164 5.09279 58.9527 5.1454C59.0261 5.17696 59.0995 5.18749 59.1624 5.18749C59.2883 5.18749 59.4141 5.1454 59.519 5.07174C59.6867 4.94547 59.9174 4.87182 60.1586 4.87182C60.2949 4.87182 60.4208 4.89286 60.5466 4.93495C60.6095 4.956 60.662 4.96652 60.7249 4.96652C60.7878 4.96652 60.8507 4.96652 60.9136 4.93495C61.0394 4.89286 61.1653 4.87182 61.3016 4.87182H62.2873C62.6438 4.87182 62.9584 4.93495 63.231 5.06122C63.3149 5.09279 63.3988 5.11383 63.4827 5.11383C63.5981 5.11383 63.7029 5.08226 63.7973 5.01913C63.9546 4.92443 64.1433 4.87182 64.3426 4.87182H64.4474C64.6991 4.87182 64.9088 4.93495 65.0661 5.07174C65.171 5.15592 65.3073 5.19801 65.4331 5.19801C65.5275 5.19801 65.6324 5.17696 65.7162 5.12435C66.0518 4.93495 66.4922 4.82973 66.9641 4.82973C67.373 4.82973 67.761 4.91391 68.0651 5.0507C68.149 5.09279 68.2329 5.11383 68.3273 5.11383C68.4426 5.11383 68.5475 5.08226 68.6524 5.01913C68.8096 4.92443 68.9879 4.87182 69.2081 4.87182H69.3235C69.6066 4.87182 69.8583 4.96652 70.026 5.15592C70.1309 5.27166 70.2882 5.34532 70.4455 5.34532H70.456C70.6133 5.34532 70.7601 5.28219 70.8754 5.17696C71.0746 4.97704 71.3368 4.87182 71.6409 4.87182H72.9831C73.1194 4.87182 73.2453 4.89286 73.3501 4.92443C73.413 4.94547 73.4655 4.956 73.5284 4.956C73.5808 4.956 73.6437 4.956 73.6962 4.93495C73.8115 4.90338 73.9478 4.88234 74.0737 4.88234C74.3358 4.88234 74.577 4.956 74.7553 5.08226C74.8601 5.15592 74.9755 5.18749 75.1013 5.18749C75.2271 5.18749 75.3425 5.1454 75.4473 5.07174C75.678 4.90338 75.9087 4.87182 76.0765 4.87182C76.1709 4.87182 76.2757 4.89286 76.3806 4.92443C76.433 4.94547 76.496 4.94547 76.5484 4.94547C76.6008 4.94547 76.6637 4.94547 76.7162 4.92443C76.8105 4.89286 76.9049 4.88234 76.9993 4.88234C77.1356 4.88234 77.2614 4.91391 77.3873 4.97704C77.4712 5.01913 77.555 5.02965 77.6389 5.02965C77.7123 5.02965 77.7857 5.01913 77.8591 4.98756C78.2471 4.82973 78.6037 4.81921 78.6666 4.81921C78.8134 4.81921 79.5789 4.84025 80.1451 5.30323L80.4387 5.54524L80.3758 5.92405C80.3443 6.06084 80.2919 6.20815 80.208 6.33442C80.0927 6.52382 80.0927 6.75531 80.208 6.94471C80.25 7.00784 80.2814 7.07098 80.3024 7.14463C80.3653 7.32351 80.4073 7.53396 80.4073 7.7444C80.4073 8.24947 80.2185 8.68089 79.862 8.96499C79.5369 9.23857 79.0965 9.37536 78.5407 9.37536H78.5198Z" fill="#2A2B82"/>
<g style="mix-blend-mode:darken">
<path d="M80.701 6.63956C80.8164 6.46069 80.9003 6.25024 80.9422 6.01875L81.0261 5.53472C81.0471 5.38741 80.9946 5.22958 80.8793 5.13488L80.5018 4.82973C79.7992 4.25101 78.9079 4.20892 78.6458 4.20892C78.5094 4.20892 78.0795 4.22996 77.6181 4.41936C77.2616 4.251 76.8946 4.22996 76.5276 4.33518C76.3598 4.28257 76.2025 4.26153 76.0452 4.26153C75.8145 4.26153 75.437 4.30362 75.07 4.5772C74.6296 4.26153 74.0214 4.18787 73.4971 4.34571C73.3293 4.29309 73.1406 4.26153 72.9518 4.26153H71.6096C71.1482 4.26153 70.7497 4.41936 70.4352 4.73503C70.152 4.44041 69.7536 4.26153 69.2922 4.26153H69.1768C68.8518 4.26153 68.5477 4.34571 68.3065 4.50354C67.5095 4.11422 66.2722 4.10369 65.4123 4.58772C65.1502 4.37727 64.8041 4.26153 64.4266 4.26153H64.3218C63.9967 4.26153 63.7031 4.34571 63.4514 4.50354C63.1054 4.34571 62.7069 4.26153 62.2665 4.26153H61.2808C61.0816 4.26153 60.8823 4.29309 60.7041 4.35623C60.1693 4.18787 59.5716 4.26153 59.1311 4.58772C58.7117 4.42988 58.1559 4.42988 57.7365 4.58772C56.9605 3.99847 55.7441 4.27205 55.2303 5.0507L55.0311 5.35585C54.9577 5.46107 54.9367 5.58734 54.9787 5.70308L55.8175 8.70193C56.0273 9.44902 56.6564 9.90147 57.4953 9.90147C57.8623 9.90147 58.1769 9.82782 58.4391 9.66998C58.9739 9.98565 59.8127 9.97513 60.337 9.66998C60.5363 9.79625 60.8194 9.90147 61.1969 9.90147H61.3123C61.6373 9.90147 61.9414 9.8173 62.1826 9.65946C62.623 9.92252 63.2102 9.97513 63.7345 9.80677C63.9128 9.86991 64.112 9.90147 64.3113 9.90147H64.4266C64.7831 9.90147 65.1187 9.79625 65.3809 9.60685C66.01 9.94356 66.8489 10.0488 67.562 9.79625C67.9499 9.94356 68.4533 9.90147 68.7259 9.8173C68.9042 9.86991 69.0929 9.90147 69.2817 9.90147H70.6134C70.7917 9.90147 70.9595 9.88043 71.1167 9.82782C71.274 9.86991 71.4418 9.90147 71.6201 9.90147H73.2245C73.602 9.90147 73.8851 9.79625 74.1053 9.65946C74.357 9.8173 74.6506 9.90147 74.9756 9.90147H75.0805C75.6782 9.90147 76.1606 9.61737 76.4227 9.16491L76.5695 9.29118C77.2616 9.912 78.2997 9.95409 78.5304 9.96461C79.2225 9.96461 79.7888 9.78573 80.2292 9.42797C80.722 9.02812 80.9946 8.42835 80.9946 7.7444C80.9946 7.4603 80.9527 7.18672 80.8583 6.93419C80.8164 6.82897 80.7744 6.73426 80.722 6.63956H80.701Z" fill="#2A2B82"/>
</g>
<path d="M77.2512 5.59786C77.1778 5.5242 77.0834 5.49263 76.9785 5.49263C76.8737 5.49263 76.7898 5.5242 76.7268 5.57681C76.6639 5.62942 76.622 5.70308 76.622 5.79778C76.622 5.86091 76.643 5.91352 76.6639 5.95561C76.6849 5.9977 76.7164 6.02927 76.7583 6.05031C76.8003 6.07136 76.8317 6.0924 76.8632 6.10293C76.8946 6.12397 76.9051 6.14501 76.9051 6.1871C76.9051 6.22919 76.8737 6.26076 76.8317 6.29233C76.7793 6.32389 76.7164 6.34494 76.622 6.35546V6.65008C77.1148 6.608 77.356 6.36598 77.356 5.91352C77.356 5.76621 77.3141 5.66099 77.2407 5.59786H77.2512ZM79.7049 7.3656C79.663 7.26038 79.6 7.16568 79.5266 7.0815C79.4427 7.00784 79.3379 6.93419 79.2016 6.8921C79.0757 6.83949 78.9184 6.78687 78.7402 6.74478C78.6563 6.72374 78.5829 6.7027 78.52 6.68165C78.4466 6.66061 78.3941 6.62904 78.3522 6.608C78.3103 6.57643 78.2788 6.54486 78.2473 6.51329C78.2264 6.47121 78.2159 6.41859 78.2159 6.36598C78.2159 6.34494 78.2159 6.33442 78.2159 6.31337C78.2473 6.16606 78.3627 6.0924 78.5829 6.0924C78.8241 6.0924 79.0757 6.17658 79.0757 6.1871C79.0757 6.1871 79.1701 6.21867 79.2855 6.21867C79.5266 6.21867 79.6944 6.07136 79.7573 5.81882V5.79778L79.7468 5.78726C79.3379 5.45054 78.7297 5.44002 78.6668 5.44002C78.6143 5.44002 78.1215 5.44002 77.7964 5.7136C77.7021 5.79778 77.6287 5.88196 77.5762 5.98718C77.5238 6.10293 77.4818 6.26076 77.4818 6.42912C77.4818 6.56591 77.5028 6.67113 77.5448 6.77635C77.5762 6.88157 77.6391 6.97628 77.7125 7.04993C77.7859 7.12359 77.8803 7.18672 77.9957 7.24985C78.111 7.30247 78.2368 7.35508 78.3837 7.38664L78.8555 7.53396C79.0548 7.61813 79.0233 7.80754 79.0233 7.81806C79.0233 7.81806 79.0233 8.08112 78.5724 8.08112C78.4466 8.08112 78.2893 8.06007 78.111 8.01798C78.111 8.01798 77.4923 7.81806 77.377 8.38626V8.40731V8.41783C77.7545 8.76506 78.499 8.77559 78.5305 8.77559C78.9289 8.77559 79.2435 8.68089 79.4637 8.50201C79.6734 8.33365 79.7888 8.08112 79.7888 7.75492C79.7888 7.60761 79.7678 7.48135 79.7259 7.37612L79.7049 7.3656ZM73.2035 8.00746H71.9871V7.41821H72.8051C72.9414 7.41821 73.0462 7.38664 73.1091 7.34456C73.1616 7.29194 73.193 7.20777 73.193 7.10254V7.0815C73.193 6.97628 73.1616 6.90262 73.1091 6.86053C73.0567 6.80792 72.9519 6.78687 72.8051 6.78687H71.9871V6.20815H72.9519C73.0882 6.20815 73.193 6.17658 73.256 6.12397C73.3084 6.07136 73.3398 5.98718 73.3398 5.87144V5.83987C73.3398 5.73465 73.3084 5.65047 73.256 5.58733C73.193 5.5242 73.0987 5.49263 72.9519 5.49263H71.6096C71.4628 5.49263 71.358 5.53472 71.2846 5.60838C71.2112 5.69256 71.1692 5.81882 71.1692 5.97666V8.23895C71.1692 8.39678 71.2112 8.52305 71.2846 8.59671C71.358 8.67036 71.4733 8.71245 71.6096 8.71245H73.214C73.3503 8.71245 73.4552 8.68089 73.5076 8.61775C73.5705 8.55462 73.5915 8.47044 73.5915 8.34417C73.5915 8.23895 73.5705 8.16529 73.5076 8.10216C73.4552 8.03903 73.3503 8.00746 73.214 8.00746H73.2035ZM76.0453 5.48211C75.8565 5.48211 75.6992 5.58733 75.5839 5.79778C75.5 5.96614 75.0805 6.7974 75.0596 6.83949C75.0386 6.7974 74.6296 5.94509 74.5457 5.78726C74.4514 5.59786 74.2941 5.48211 74.0634 5.48211C73.7698 5.48211 73.5915 5.6189 73.5286 5.7136L74.5982 7.53396V8.31261C74.5982 8.57566 74.703 8.70193 74.9547 8.70193H75.0596C75.3007 8.70193 75.4161 8.58619 75.4161 8.31261V7.53396L76.4857 5.73465C76.4123 5.59786 76.2864 5.47159 76.0453 5.47159V5.48211ZM60.0959 5.48211C59.8442 5.48211 59.687 5.66099 59.624 5.94509C59.5506 6.30285 59.3199 7.4603 59.299 7.51291C59.278 7.48135 58.9215 6.12397 58.9005 5.98718C58.8585 5.82935 58.7747 5.68203 58.4286 5.68203C58.0721 5.68203 57.9777 5.86091 57.9463 5.98718C57.9148 6.11345 57.5688 7.44978 57.5478 7.51291C57.5268 7.43926 57.2542 6.11345 57.2122 5.95561C57.1598 5.67151 56.9815 5.48211 56.7299 5.48211C56.4677 5.48211 56.2895 5.60838 56.2056 5.73465L56.9396 8.37574C57.013 8.6388 57.1808 8.70193 57.4639 8.70193C57.7051 8.70193 57.8938 8.65984 57.9567 8.37574C57.9567 8.36522 58.3867 6.78687 58.3972 6.75531C58.4076 6.78687 58.8376 8.36522 58.8376 8.36522C58.911 8.62827 59.0788 8.69141 59.3514 8.69141C59.6555 8.69141 59.8128 8.60723 59.8652 8.36522L60.5783 5.72412C60.4944 5.56629 60.3161 5.47159 60.0854 5.47159L60.0959 5.48211ZM70.603 7.99694H69.6383V5.87144C69.6383 5.60838 69.5229 5.48211 69.2817 5.48211H69.1664C68.9252 5.48211 68.8099 5.59786 68.8099 5.87144V8.22843C68.8099 8.38626 68.8413 8.51253 68.9147 8.58619C68.9881 8.67036 69.1139 8.70193 69.2503 8.70193H70.582C70.8442 8.70193 70.9595 8.58619 70.9595 8.34417V8.32313C70.9595 8.09164 70.8442 7.99694 70.582 7.99694H70.603ZM62.1407 7.00784C62.4762 7.00784 62.7069 6.87105 62.7069 6.57643C62.7069 6.2818 62.4972 6.15554 62.1302 6.15554H61.6374V7.00784H62.1407ZM63.5353 6.55538C63.5353 6.99732 63.2627 7.3656 62.8223 7.49187L63.6087 8.45992C63.5458 8.57566 63.3781 8.70193 63.1054 8.70193C62.8642 8.70193 62.7279 8.62828 62.5706 8.43887C62.4238 8.24947 61.9624 7.66022 61.9624 7.66022H61.6479V8.32313C61.6479 8.4494 61.6164 8.55462 61.564 8.61775C61.5115 8.68089 61.4172 8.71245 61.2913 8.71245H61.176C61.0606 8.71245 60.9663 8.68089 60.9033 8.61775C60.8404 8.55462 60.8194 8.4494 60.8194 8.32313V5.97666C60.8194 5.8083 60.8509 5.69256 60.9348 5.60838C61.0082 5.53472 61.134 5.49263 61.2704 5.49263H62.256C63.2732 5.49263 63.5353 6.13449 63.5353 6.56591V6.55538ZM64.4162 5.48211H64.3113C64.0701 5.48211 63.9548 5.59786 63.9548 5.87144V8.32313C63.9548 8.58619 64.0597 8.71245 64.3008 8.71245H64.4162C64.6574 8.71245 64.7727 8.59671 64.7727 8.32313V5.87144C64.7727 5.60838 64.6678 5.48211 64.4162 5.48211ZM68.1178 7.00784C68.2646 7.00784 68.3904 7.03941 68.3904 7.26038V8.65984C68.3904 8.65984 68.2751 8.71245 68.1597 8.71245C67.9185 8.71245 67.7508 8.56514 67.7508 8.36522V8.18634C67.541 8.53357 67.1635 8.7335 66.7336 8.7335C65.7165 8.7335 65.1712 8.03903 65.1712 7.15515C65.1712 6.37651 65.6745 5.44002 66.9119 5.44002C67.8032 5.44002 68.1702 5.8083 68.1702 6.12397C68.1702 6.31337 68.0339 6.43964 67.7403 6.50277C67.562 6.26076 67.3103 6.13449 66.9748 6.13449C66.3561 6.13449 66.0205 6.63956 66.0205 7.15515C66.0205 7.67075 66.3351 8.04955 66.7965 8.04955C67.1006 8.04955 67.3208 7.88119 67.3942 7.63918H67.1111C66.8699 7.63918 66.7755 7.44978 66.7755 7.26038C66.7755 7.13411 66.807 7.07098 66.828 7.02889H68.1073L68.1178 7.00784Z" fill="white"/>
<path d="M115.074 21.3497C115.316 21.3497 115.525 21.2235 115.525 21.013C115.525 20.7289 115.253 20.6763 114.97 20.6763H114.865V21.3497H115.074ZM115.714 21.8653L116.322 22.6755C116.396 22.7702 116.322 22.9175 116.207 22.9175H115.662C115.588 22.9175 115.515 22.8755 115.473 22.8123L114.98 22.0126H114.875V22.7702C114.875 22.8544 114.812 22.9175 114.728 22.9175H114.246C114.162 22.9175 114.099 22.8544 114.099 22.7702V20.1397C114.099 20.0555 114.162 19.9923 114.246 19.9923H115.064C115.829 19.9923 116.333 20.3817 116.333 21.0341C116.333 21.4023 116.05 21.7285 115.714 21.8758V21.8653ZM115.116 23.5594C113.942 23.5594 112.988 22.6124 112.988 21.4549C112.988 20.2975 113.942 19.3505 115.116 19.3505C116.291 19.3505 117.245 20.2975 117.245 21.4549C117.245 22.6124 116.291 23.5594 115.116 23.5594ZM115.116 18.6139C113.522 18.6139 112.233 19.8871 112.233 21.4549C112.233 23.0228 113.522 24.296 115.116 24.296C116.71 24.296 118 23.0228 118 21.4549C118 19.8871 116.71 18.6139 115.116 18.6139Z" fill="#2A2B82"/>
<path d="M27.4106 1.48364C41.7242 1.48364 53.3323 13.1318 53.3323 27.4947C53.3323 41.8577 41.7242 53.5058 27.4106 53.5058V1.48364Z" fill="#00AAE9"/>
<g style="mix-blend-mode:darken">
<path d="M27.4107 54.1056C27.0856 54.1056 26.813 53.8425 26.813 53.5058V1.48364C26.813 1.15745 27.0751 0.883873 27.4107 0.883873C42.0283 0.883873 53.93 12.8161 53.93 27.4947C53.93 42.1733 42.0388 54.1056 27.4107 54.1056Z" fill="#00AAE9"/>
</g>
<path d="M45.1322 12.511C44.8281 12.511 44.4401 12.3216 44.3457 11.806C44.1675 10.8064 43.3915 8.40731 40.2352 7.7444C39.8472 7.66022 39.585 7.32351 39.5955 6.92366C39.606 6.53434 39.8996 6.20815 40.2981 6.15554C40.4449 6.13449 43.6746 5.60838 44.3667 2.0308C44.4401 1.652 44.7757 1.37842 45.1532 1.37842C45.5726 1.38894 45.8977 1.68356 45.9501 2.07289C45.9711 2.2202 46.4744 5.38741 50.0502 6.16606C50.4277 6.25024 50.7003 6.59747 50.6793 6.9868C50.6583 7.37612 50.3752 7.70231 49.9872 7.75492C49.8404 7.77597 46.6631 8.31261 45.9501 11.8586C45.8767 12.2374 45.5411 12.511 45.1636 12.511H45.1532H45.1322Z" fill="#2A2B82"/>
<g style="mix-blend-mode:darken">
<path d="M50.1654 5.58734C46.9986 4.89286 46.5477 2.14655 46.5268 1.99924C46.4324 1.32581 45.8661 0.810217 45.1846 0.789172C44.503 0.768128 43.8948 1.24163 43.7689 1.92558C43.1503 5.09279 40.319 5.55577 40.2141 5.56629C39.543 5.65047 39.0187 6.21867 38.9978 6.90262C38.9768 7.58657 39.4382 8.18634 40.1093 8.32313C42.9196 8.91238 43.6012 11.0274 43.7584 11.9112C43.9052 12.732 44.5554 13.1002 45.1321 13.1108H45.1426C45.8032 13.1108 46.38 12.6373 46.5163 11.9849C47.1455 8.8282 49.9452 8.36522 50.0501 8.3547C50.7212 8.26 51.235 7.70232 51.2665 7.01837C51.2979 6.33442 50.8261 5.73465 50.1654 5.58734Z" fill="#2A2B82"/>
</g>
<path d="M45.1425 2.18863C45.1425 2.18863 45.6249 6.02927 49.8613 6.95523C49.8613 6.95523 45.9919 7.47082 45.1425 11.7008C45.132 11.7744 44.7441 7.86015 40.3923 6.94471C40.3923 6.94471 44.3141 6.42912 45.1425 2.17811V2.18863Z" fill="white"/>
<path d="M73.0565 26.8003C71.2215 26.8003 69.7849 28.305 69.7849 30.2305C69.7849 32.1561 71.2215 33.6608 73.0565 33.6608C74.8916 33.6608 76.4436 32.1245 76.4436 30.2305C76.4436 28.3365 74.8916 26.8003 73.0565 26.8003ZM27.442 20.2659C23.6041 20.2659 20.4793 23.4857 20.4793 27.4421C20.4793 31.3985 23.6041 34.6183 27.442 34.6183C31.28 34.6183 34.4048 31.3985 34.4048 27.4421C34.4048 23.4857 31.28 20.2659 27.442 20.2659ZM27.442 44.6776C18.1828 44.6776 10.6538 36.9438 10.6538 27.4421C10.6538 17.9405 18.1828 10.2066 27.442 10.2066C35.4639 10.2066 42.3952 16.0675 43.9262 24.1487C43.9786 24.4328 44.2303 24.6327 44.5134 24.6327C44.5344 24.6327 44.5553 24.6327 44.5658 24.6327C44.8699 24.6011 45.1006 24.3486 45.1006 24.0434V23.4752C45.1006 22.2652 45.5725 21.1182 46.4219 20.2659C47.2817 19.4031 48.4142 18.9401 49.6201 18.9401H51.969C52.336 18.9401 52.6506 19.1927 52.7345 19.5504C52.7764 19.7398 52.9128 19.8871 53.0805 19.9608C53.1539 19.9923 53.2273 20.0029 53.3112 20.0029C53.4161 20.0029 53.5314 19.9713 53.6258 19.9187C54.8946 19.1295 56.4885 18.6771 57.988 18.6771C58.7116 18.6771 59.2988 18.7507 59.9175 18.9296C60.0014 18.9506 60.0748 18.9927 60.1377 19.0348C60.2425 19.098 60.3579 19.14 60.4732 19.14C60.5676 19.14 60.662 19.119 60.7564 19.0664C60.9556 18.9612 61.0709 18.7612 61.0709 18.5403V16.8883C61.0709 14.384 63.1052 12.3426 65.6009 12.3426H68.9565C69.3969 12.3426 69.7534 12.7004 69.7534 13.1423V18.8033C69.7534 19.0138 69.8688 19.2137 70.047 19.3189C70.1414 19.3715 70.2463 19.4031 70.3511 19.4031C70.4455 19.4031 70.5504 19.3821 70.6343 19.3294C71.8402 18.6665 73.2872 18.3509 75.0804 18.3509C77.7963 18.3509 80.3444 19.5399 82.2424 21.7075C83.3749 23.0017 84.2138 24.5695 84.7171 26.3794C84.7905 26.6424 85.0212 26.8108 85.2833 26.8108C85.3148 26.8108 85.3358 26.8108 85.3672 26.8108C85.6608 26.7687 85.881 26.5162 85.881 26.2215V23.349C85.881 21.5812 86.9296 19.9923 88.5445 19.2979C88.7647 19.2032 88.9115 18.9822 88.901 18.7402C88.901 18.4982 88.7542 18.2877 88.534 18.193C86.8248 17.488 85.7133 15.8466 85.7133 13.9946C85.7133 11.4903 87.7371 9.45954 90.2328 9.45954C92.7285 9.45954 94.7523 11.4903 94.7523 13.9946C94.7523 15.5625 93.9553 16.9935 92.6236 17.8353C92.4034 17.9721 92.2985 18.2456 92.3719 18.5087C92.4453 18.7612 92.676 18.9401 92.9382 18.9401H95.4968C95.6331 18.9401 95.7694 18.8875 95.8743 18.8033L102.564 13.237C102.711 13.1213 102.889 13.0582 103.068 13.0582C103.183 13.0582 103.298 13.0792 103.403 13.1318C103.676 13.2581 103.854 13.5422 103.854 13.8473V18.3614C103.854 18.6876 104.116 18.9612 104.452 18.9612H109.097C109.538 18.9612 109.894 19.3189 109.894 19.7609V23.6225C109.894 24.4328 109.58 25.2009 109.003 25.7796C108.426 26.3583 107.671 26.674 106.853 26.674H104.452C104.127 26.674 103.854 26.9371 103.854 27.2738V31.4406C103.854 33.5135 105.154 33.7345 105.721 33.7345C106.35 33.7345 107.147 33.5135 108.028 33.1031C108.133 33.0505 108.248 33.0295 108.363 33.0295C108.479 33.0295 108.583 33.0505 108.688 33.1031C108.898 33.1978 109.055 33.3872 109.129 33.6082L110.775 39.2692C110.859 39.5638 110.775 39.8689 110.544 40.0794C109.192 41.321 106.874 42.0576 104.337 42.0576C101.306 42.0576 98.8838 41.0054 97.3214 39.0061C96.6398 38.1328 96.1155 37.0911 95.7589 35.902C95.6855 35.6495 95.4444 35.4812 95.1927 35.4812C95.1612 35.4812 95.1403 35.4812 95.1088 35.4812C94.8152 35.5232 94.6055 35.7758 94.6055 36.0704V40.7949C94.6055 41.2368 94.2489 41.5946 93.8085 41.5946H86.678C86.2376 41.5946 85.881 41.2368 85.881 40.7949V34.4184C85.881 34.1238 85.6608 33.8712 85.3672 33.8292C85.3358 33.8292 85.3148 33.8292 85.2833 33.8292C85.0212 33.8292 84.7905 33.9975 84.7171 34.2606C84.2138 36.0388 83.3749 37.5856 82.2424 38.8693C80.3339 41.0264 77.7963 42.2049 75.0804 42.2049C73.3816 42.2049 71.7877 41.784 70.477 40.9843C70.3826 40.9317 70.2777 40.9001 70.1729 40.9001C70.1204 40.9001 70.068 40.9001 70.0261 40.9212C69.8688 40.9633 69.7429 41.0685 69.6591 41.2053C69.5227 41.4578 69.2501 41.6051 68.967 41.6051H61.8784C61.438 41.6051 61.0814 41.2474 61.0814 40.8054V28.3786C61.0814 28.1156 60.9137 27.8946 60.6725 27.8104C59.8021 27.5263 59.173 27.3159 57.7468 27.3159C55.2721 27.3159 54.0662 28.6522 54.0662 31.409V40.8054C54.0662 41.2474 53.7097 41.6051 53.2693 41.6051H45.8871C45.4467 41.6051 45.0901 41.2474 45.0901 40.8054V30.904C45.0901 30.5988 44.8594 30.3358 44.5553 30.3147C44.5344 30.3147 44.5134 30.3147 44.5029 30.3147C44.2198 30.3147 43.9681 30.5146 43.9157 30.7987C42.3847 38.8693 35.4534 44.7408 27.4316 44.7408L27.442 44.6776Z" fill="#2A2B82"/>
<g style="mix-blend-mode:darken">
<path d="M73.0566 33.0716C71.5571 33.0716 70.3827 31.8299 70.3827 30.2305C70.3827 28.6311 71.5571 27.3895 73.0566 27.3895C74.5561 27.3895 75.8459 28.6838 75.8459 30.2305C75.8459 31.7773 74.5981 33.0716 73.0566 33.0716ZM27.4421 34.0186C23.9293 34.0186 21.0666 31.0723 21.0666 27.4421C21.0666 23.8119 23.9293 20.8657 27.4421 20.8657C30.955 20.8657 33.8177 23.8225 33.8177 27.4421C33.8177 31.0618 30.955 34.0186 27.4421 34.0186ZM111.352 39.0272L109.706 33.3662C109.59 32.9769 109.318 32.6507 108.94 32.4823C108.762 32.3981 108.563 32.356 108.374 32.356C108.185 32.356 107.965 32.3981 107.787 32.4928C106.99 32.8716 106.277 33.0716 105.742 33.0716C104.903 33.0716 104.473 32.5139 104.473 31.4196C104.473 31.409 104.473 31.388 104.473 31.3775V27.2106H106.874C107.839 27.2106 108.751 26.8318 109.443 26.1479C110.125 25.4639 110.502 24.5485 110.502 23.5699V19.7082C110.502 18.9401 109.884 18.3193 109.118 18.3193H104.473V13.8052C104.473 13.2686 104.158 12.7741 103.676 12.5426C103.487 12.4584 103.288 12.4058 103.089 12.4058C102.774 12.4058 102.46 12.511 102.208 12.7214L95.5178 18.2877H92.9592C94.4063 17.3828 95.371 15.7729 95.371 13.942C95.371 11.1115 93.0746 8.80716 90.2538 8.80716C87.4331 8.80716 85.1366 11.1115 85.1366 13.942C85.1366 16.0886 86.4578 17.93 88.3244 18.6981C86.5522 19.4662 85.3044 21.234 85.3044 23.2963V26.1689C84.7801 24.317 83.8992 22.6334 82.7038 21.2655C80.6905 18.9717 77.9851 17.6985 75.0909 17.6985C73.2139 17.6985 71.6725 18.0352 70.3617 18.7507V13.0897C70.3617 12.3216 69.743 11.7008 68.9775 11.7008H65.622C62.8012 11.7008 60.5048 14.0052 60.5048 16.8357V18.4877C60.3894 18.4035 60.2531 18.3403 60.1063 18.2983C59.4352 18.1089 58.7955 18.0247 58.0196 18.0247C56.6249 18.0247 54.8737 18.4035 53.3428 19.3505C53.196 18.7402 52.6507 18.2877 51.9901 18.2877H49.6412C48.278 18.2877 46.9882 18.8244 46.0235 19.7924C45.0588 20.7605 44.524 22.0547 44.524 23.4226V23.9908C42.972 15.7834 35.9149 9.56476 27.4631 9.56476C17.8788 9.56476 10.0771 17.5617 10.0771 27.4C10.0771 37.2384 17.8788 45.2353 27.4631 45.2353C35.9149 45.2353 42.972 39.0166 44.524 30.8093V40.7107C44.524 41.4789 45.1426 42.0997 45.9081 42.0997H53.2903C54.0558 42.0997 54.6745 41.4789 54.6745 40.7107V31.3143C54.6745 28.8942 55.6287 27.8209 57.7574 27.8209C59.0891 27.8209 59.6554 28.0103 60.5048 28.2839V40.7107C60.5048 41.4789 61.1234 42.0997 61.8889 42.0997H68.9775C69.4913 42.0997 69.9422 41.8156 70.1834 41.3947C71.5676 42.2365 73.2663 42.6994 75.0909 42.6994C77.9746 42.6994 80.68 41.4473 82.6933 39.164C83.8992 37.8066 84.7801 36.1546 85.2939 34.3237V40.7002C85.2939 41.4683 85.9126 42.0892 86.6781 42.0892H93.8086C94.5741 42.0892 95.1928 41.4683 95.1928 40.7002V35.9757C95.5703 37.2384 96.126 38.3432 96.8601 39.2797C98.5378 41.4263 101.128 42.5521 104.347 42.5521C107.032 42.5521 109.496 41.7524 110.964 40.4161C111.352 40.0584 111.509 39.5112 111.362 38.9956L111.352 39.0272Z" fill="#2A2B82"/>
</g>
<path d="M57.9987 19.4557C58.6698 19.4557 59.1836 19.5294 59.7079 19.6767V26.6845C59.0368 26.5372 58.3657 26.4636 57.7365 26.4636C55.3981 26.4636 53.259 27.5789 53.259 31.3459V40.7423H45.8768V23.4542C45.8768 21.3813 47.5545 19.7082 49.6098 19.7082H51.9587V22.6966C53.3324 20.2764 56.0902 19.4557 57.9882 19.4557H57.9987ZM93.8087 19.6977V40.7318H86.6781V23.3174C86.6781 21.3182 88.293 19.6977 90.2854 19.6977H93.8087ZM73.0567 34.4605C70.8337 34.4605 68.9986 32.6612 68.9986 30.2305C68.9986 27.7999 70.8337 26.0006 73.0567 26.0006C75.2798 26.0006 77.2302 27.9577 77.2302 30.2305C77.2302 32.5033 75.3532 34.4605 73.0567 34.4605ZM75.091 19.119C72.2807 19.119 70.4562 19.9292 68.9776 21.7706V13.1213H65.6221C63.5563 13.1213 61.889 14.7943 61.889 16.8672V40.7423H68.9776V38.4169C70.1311 40.1636 72.3856 41.3421 75.091 41.3421C80.0929 41.3421 84.4761 36.828 84.4761 30.3042C84.4761 23.7804 80.1034 19.119 75.091 19.119ZM90.2434 10.2171C92.2987 10.2171 93.966 11.8902 93.966 13.9526C93.966 16.0149 92.2987 17.688 90.2434 17.688C88.1881 17.688 86.5209 16.0149 86.5209 13.9526C86.5209 11.8902 88.1881 10.2171 90.2434 10.2171ZM103.089 13.8158V19.7188H109.118V23.5804C109.118 24.8221 108.112 25.8322 106.874 25.8322H103.089V31.4301C103.089 32.9768 103.844 34.4815 105.742 34.4815C106.455 34.4815 107.325 34.2711 108.384 33.766L110.031 39.427C108.888 40.4792 106.811 41.2053 104.358 41.2053C98.4435 41.2053 96.0108 37.1016 96.0108 31.5458V19.7188L103.099 13.8158H103.089ZM27.4422 35.4075C23.1534 35.4075 19.6825 31.8404 19.6825 27.4316C19.6825 23.0228 23.1534 19.4557 27.4422 19.4557C31.731 19.4557 35.2019 23.0228 35.2019 27.4316C35.2019 31.8404 31.731 35.4075 27.4422 35.4075ZM27.4422 10.9958C18.6024 10.9958 11.4404 18.3509 11.4404 27.4316C11.4404 36.5123 18.6024 43.8674 27.4422 43.8674C36.282 43.8674 43.444 36.5123 43.444 27.4316C43.444 18.3509 36.282 10.9958 27.4422 10.9958Z" fill="white"/>
</g>
<defs>
<clipPath id="clip0_171548_12914">
<rect width="118" height="55" fill="white"/>
</clipPath>
</defs>
</svg>
