<svg width="355" height="354" viewBox="0 0 355 354" fill="none" xmlns="http://www.w3.org/2000/svg">
<g style="mix-blend-mode:multiply" filter="url(#filter0_f_174005_3461)">
<path d="M314.059 300.774L70.6429 318.556C66.5616 235.403 63.5375 153.883 55.0565 71.0336L293.524 53.6129C297.934 137.589 306.323 218.717 314.059 300.774Z" fill="#525252" fill-opacity="0.35"/>
</g>
<path d="M302.633 299.944L53.6934 301.156C55.3203 218.814 56.1974 136.492 53.326 54.1718L300.613 52.9681C299.263 136.127 300.464 218.455 302.633 299.944Z" fill="#EA2C86"/>
<mask id="mask0_174005_3461" style="mask-type:alpha" maskUnits="userSpaceOnUse" x="53" y="52" width="250" height="250">
<path d="M302.633 299.944L53.6934 301.156C55.3203 218.814 56.1974 136.492 53.326 54.1719L300.613 52.9683C299.263 136.127 300.464 218.456 302.633 299.944Z" fill="#EA2C86"/>
</mask>
<g mask="url(#mask0_174005_3461)">
<path d="M299.945 53.1045L54.0679 54.0397L54.2387 98.9447L300.116 98.0094L299.945 53.1045Z" fill="#DA1D76"/>
</g>
<mask id="mask1_174005_3461" style="mask-type:luminance" maskUnits="userSpaceOnUse" x="73" y="210" width="219" height="57">
<path d="M291.704 210.751H73.103V266.672H291.704V210.751Z" fill="white"/>
</mask>
<g mask="url(#mask1_174005_3461)">
<path d="M76.6542 228.688C87.4536 228.444 98.253 228.327 109.052 228.141C102.659 228.916 96.2724 229.743 89.8912 230.623C88.4087 230.833 87.6118 231.8 87.3716 232.913C86.6333 232.902 85.8832 232.884 85.139 232.872C82.3674 232.82 81.172 235.705 81.9514 237.587C81.5646 237.587 81.1837 237.587 80.797 237.587C76.9999 237.616 76.244 243.514 80.0997 243.496C82.2443 243.484 84.3831 243.519 86.5219 243.514C86.0942 244.126 85.8656 244.842 85.8656 245.571C84.3245 245.681 82.7834 245.746 81.2423 245.862C77.1464 246.159 78.125 252.436 82.2092 252.138C83.0764 252.074 83.9437 252.022 84.8168 251.964C84.137 253.863 85.4262 256.666 88.1744 256.544C89.8737 256.468 91.5847 256.433 93.284 256.363C91.7605 258.129 93.0262 261.882 96.1963 261.731C97.3916 261.678 98.5929 261.643 99.7824 261.591C98.6866 263.438 99.9816 266.754 102.964 266.661C146.894 265.262 190.848 264.522 234.807 264.458C240.854 264.446 246.902 264.446 252.949 264.47C259.142 264.481 265.776 265.163 271.899 264.19C274.782 263.729 274.882 260.087 272.655 258.939C273.598 258.869 274.542 258.834 275.473 258.712C278.643 258.298 278.374 253.782 275.38 253.281C275.063 253.228 274.747 253.217 274.436 253.17C275.579 252.366 275.837 250.874 275.245 249.702C275.673 249.714 276.1 249.737 276.522 249.749C277.723 249.772 278.573 249.137 278.983 248.31C280.718 248.31 282.446 248.321 284.169 248.298C287.134 248.246 286.952 243.444 284.081 243.158C282.376 242.989 280.659 242.931 278.954 242.797C279.657 242.686 280.372 242.581 281.069 242.412C283.788 241.736 283.917 237.902 280.976 237.418C279.569 237.185 278.151 237.092 276.721 237.045C276.71 236.439 276.505 235.85 276.1 235.39C280.56 235.303 285.019 235.238 289.478 235.035C292.472 234.9 292.39 229.889 289.384 229.755C282.927 229.475 276.458 229.358 269.995 229.306C269.801 228.583 269.344 227.96 268.53 227.744C267.112 227.36 265.647 227.132 264.182 226.87C266.432 226.87 268.676 226.888 270.92 226.87C274.155 226.841 274.94 222.016 271.53 221.748C271.495 221.748 271.459 221.748 271.418 221.748C271.043 221.095 270.463 220.553 269.438 220.413C265.623 219.929 261.797 219.562 257.959 219.242C257.801 218.012 257.015 216.87 255.562 216.777C249.228 216.375 242.876 216.276 236.524 216.217C236.987 214.603 236.225 212.558 234.204 212.459C222.197 211.882 210.062 212.604 198.049 212.82C186.271 213.035 174.493 213.251 162.715 213.473C158.526 213.554 154.336 213.624 150.146 213.706C144.058 213.426 137.97 213.181 131.882 212.855C120.18 212.225 108.472 211.526 96.7588 210.757C94.2684 210.594 93.032 212.872 93.3602 214.737C92.5457 214.755 91.7429 214.766 90.9284 214.784C89.4635 214.813 88.6724 215.64 88.4263 216.689C84.4242 216.847 80.4161 216.987 76.414 217.173C73.3376 217.325 73.1267 220.891 74.9315 222.587C71.8082 223.443 72.8864 228.776 76.6542 228.694V228.688Z" fill="white"/>
</g>
<path d="M77.2577 151.013C75.985 151.018 74.8037 150.815 73.7136 150.404C72.6389 149.994 71.7015 149.415 70.9016 148.666C70.1171 147.917 69.5007 147.038 69.0526 146.027C68.6198 145.017 68.4014 143.914 68.3973 142.718C68.3932 141.522 68.6041 140.417 69.03 139.403C69.4712 138.39 70.0892 137.506 70.8839 136.752C71.6787 135.998 72.612 135.412 73.6839 134.994C74.7559 134.577 75.9205 134.366 77.1778 134.362C78.4505 134.357 79.6165 134.56 80.6759 134.971C81.7506 135.381 82.6803 135.96 83.4649 136.709C84.2648 137.458 84.8888 138.337 85.3369 139.348C85.785 140.343 86.0111 141.446 86.0152 142.657C86.0193 143.853 85.8008 144.966 85.3596 145.995C84.9184 147.008 84.3004 147.892 83.5056 148.646C82.7262 149.385 81.8005 149.963 80.7286 150.38C79.672 150.798 78.515 151.009 77.2577 151.013ZM77.2239 147.839C77.9445 147.837 78.6034 147.712 79.2006 147.465C79.8131 147.217 80.3485 146.863 80.807 146.401C81.2654 145.94 81.6162 145.394 81.8594 144.765C82.1179 144.135 82.2458 143.437 82.2432 142.67C82.2406 141.904 82.1079 141.206 81.8451 140.579C81.5976 139.951 81.2431 139.408 80.7815 138.949C80.3353 138.491 79.8051 138.14 79.1909 137.897C78.5767 137.653 77.9093 137.533 77.1886 137.536C76.468 137.538 75.8014 137.663 75.1889 137.91C74.5918 138.158 74.064 138.512 73.6055 138.974C73.1471 139.435 72.7886 139.981 72.5301 140.61C72.2869 141.24 72.1667 141.938 72.1693 142.705C72.1718 143.456 72.2969 144.153 72.5444 144.796C72.8072 145.424 73.1618 145.967 73.608 146.426C74.0696 146.884 74.6074 147.235 75.2216 147.478C75.8358 147.722 76.5032 147.842 77.2239 147.839ZM88.8429 150.698L88.7879 134.598L95.7569 134.574C97.1982 134.569 98.441 134.803 99.4853 135.274C100.53 135.731 101.337 136.395 101.907 137.267C102.477 138.139 102.765 139.181 102.769 140.392C102.773 141.588 102.493 142.624 101.928 143.5C101.364 144.361 100.561 145.023 99.5202 145.486C98.4791 145.95 97.2379 146.184 95.7966 146.189L90.8976 146.206L92.548 144.567L92.5689 150.685L88.8429 150.698ZM99.0779 150.663L95.0329 144.835L99.0119 144.821L103.103 150.649L99.0779 150.663ZM92.5494 144.981L90.8875 143.239L95.5794 143.223C96.7294 143.219 97.5872 142.971 98.1529 142.478C98.7185 141.97 98.9998 141.279 98.9968 140.405C98.9938 139.516 98.7078 138.827 98.1388 138.338C97.5697 137.849 96.7102 137.607 95.5603 137.611L90.8683 137.627L92.5182 135.85L92.5494 144.981ZM105.756 150.64L105.701 134.54L113.567 134.513C115.591 134.506 117.11 134.884 118.125 135.648C119.155 136.411 119.672 137.421 119.676 138.678C119.679 139.522 119.475 140.258 119.063 140.888C118.651 141.503 118.085 141.98 117.366 142.32C116.646 142.66 115.819 142.832 114.883 142.835L115.317 141.89C116.329 141.887 117.227 142.052 118.01 142.387C118.793 142.706 119.4 143.187 119.832 143.83C120.279 144.472 120.504 145.261 120.507 146.197C120.512 147.577 119.971 148.659 118.885 149.445C117.799 150.215 116.198 150.604 114.082 150.612L105.756 150.64ZM109.449 147.821L113.796 147.806C114.762 147.803 115.49 147.647 115.98 147.339C116.485 147.015 116.736 146.508 116.734 145.818C116.731 145.144 116.477 144.646 115.969 144.326C115.478 143.99 114.749 143.824 113.783 143.827L109.16 143.843L109.15 141.129L113.129 141.116C114.034 141.113 114.724 140.957 115.198 140.649C115.687 140.325 115.931 139.841 115.929 139.197C115.927 138.568 115.68 138.102 115.188 137.797C114.712 137.476 114.021 137.318 113.116 137.321L109.413 137.333L109.449 147.821ZM123.343 150.58L123.288 134.48L127.014 134.467L127.069 150.567L123.343 150.58ZM134.225 150.543L134.18 137.479L129.028 137.496L129.018 134.46L143.047 134.412L143.058 137.448L137.906 137.466L137.951 150.53L134.225 150.543ZM151.967 150.551C150.817 150.555 149.75 150.352 148.768 149.941C147.785 149.53 146.924 148.958 146.186 148.225C145.447 147.476 144.869 146.612 144.452 145.632C144.05 144.652 143.847 143.594 143.843 142.46C143.839 141.325 144.043 140.266 144.453 139.284C144.864 138.301 145.436 137.44 146.169 136.702C146.903 135.948 147.76 135.362 148.739 134.945C149.735 134.528 150.807 134.317 151.957 134.313C153.107 134.309 154.174 134.512 155.156 134.923C156.154 135.318 157.015 135.883 157.738 136.616C158.477 137.35 159.047 138.206 159.449 139.186C159.866 140.151 160.077 141.208 160.081 142.358C160.085 143.508 159.881 144.582 159.471 145.58C159.06 146.563 158.481 147.431 157.732 148.185C156.998 148.924 156.142 149.502 155.162 149.919C154.182 150.336 153.117 150.547 151.967 150.551ZM154.116 146.887L151.897 143.49L154.289 143.482L156.508 146.879L154.116 146.887ZM151.962 149.056C152.897 149.053 153.763 148.881 154.559 148.541C155.355 148.186 156.051 147.708 156.647 147.108C157.243 146.508 157.701 145.801 158.02 144.987C158.354 144.174 158.52 143.299 158.517 142.364C158.514 141.428 158.342 140.563 158.002 139.766C157.677 138.955 157.223 138.259 156.638 137.678C156.068 137.082 155.385 136.624 154.586 136.305C153.788 135.97 152.913 135.805 151.962 135.808C151.027 135.811 150.154 135.983 149.342 136.323C148.546 136.663 147.85 137.141 147.254 137.756C146.673 138.356 146.224 139.055 145.904 139.854C145.585 140.652 145.427 141.519 145.43 142.454C145.433 143.39 145.597 144.263 145.922 145.075C146.247 145.871 146.702 146.567 147.286 147.163C147.871 147.759 148.563 148.224 149.361 148.559C150.159 148.894 151.026 149.059 151.962 149.056ZM148.458 146.906L148.428 137.982L152.315 137.969C153.526 137.965 154.478 138.245 155.17 138.81C155.862 139.375 156.209 140.148 156.213 141.129C156.216 142.157 155.874 142.948 155.186 143.502C154.498 144.041 153.548 144.313 152.337 144.317L150.842 144.322L150.85 146.898L148.458 146.906ZM150.812 142.528L152.169 142.523C152.706 142.521 153.12 142.397 153.41 142.151C153.716 141.905 153.868 141.567 153.867 141.138C153.865 140.693 153.711 140.348 153.403 140.104C153.111 139.86 152.697 139.738 152.16 139.74L150.803 139.745L150.812 142.528ZM174.515 150.589C173.35 150.593 172.299 150.336 171.362 149.818C170.425 149.284 169.678 148.543 169.123 147.594C168.583 146.646 168.311 145.527 168.307 144.239C168.302 142.936 168.567 141.808 169.1 140.855C169.649 139.903 170.39 139.164 171.324 138.64C172.257 138.115 173.306 137.851 174.472 137.847C175.514 137.844 176.428 138.07 177.211 138.528C177.995 138.985 178.603 139.681 179.035 140.614C179.468 141.548 179.687 142.744 179.692 144.2C179.696 145.642 179.494 146.838 179.083 147.79C178.672 148.727 178.076 149.427 177.296 149.889C176.531 150.352 175.604 150.585 174.515 150.589ZM175.126 147.643C175.709 147.641 176.237 147.501 176.712 147.223C177.186 146.946 177.561 146.554 177.835 146.047C178.124 145.524 178.268 144.91 178.266 144.205C178.263 143.484 178.115 142.872 177.822 142.367C177.545 141.862 177.168 141.472 176.691 141.198C176.215 140.923 175.686 140.787 175.103 140.789C174.505 140.791 173.969 140.931 173.494 141.208C173.02 141.486 172.638 141.878 172.348 142.385C172.074 142.892 171.938 143.506 171.941 144.227C171.943 144.932 172.083 145.545 172.361 146.065C172.654 146.57 173.039 146.96 173.515 147.234C173.991 147.509 174.528 147.645 175.126 147.643ZM178.379 150.392L178.37 147.862L178.426 144.182L178.184 140.525L178.159 133.326L181.747 133.314L181.806 150.38L178.379 150.392ZM192.716 150.343L192.708 147.928L192.476 147.4L192.462 143.076C192.459 142.309 192.219 141.712 191.742 141.284C191.281 140.856 190.567 140.644 189.601 140.647C188.942 140.65 188.291 140.759 187.647 140.976C187.019 141.178 186.484 141.455 186.04 141.81L184.744 139.307C185.417 138.829 186.228 138.459 187.178 138.195C188.128 137.931 189.093 137.797 190.075 137.794C191.961 137.787 193.426 138.227 194.472 139.113C195.518 139.999 196.044 141.384 196.05 143.27L196.074 150.331L192.716 150.343ZM188.945 150.54C187.979 150.543 187.151 150.385 186.459 150.065C185.768 149.73 185.238 149.28 184.868 148.714C184.498 148.148 184.312 147.512 184.309 146.807C184.307 146.071 184.481 145.426 184.832 144.873C185.198 144.319 185.771 143.888 186.552 143.579C187.333 143.254 188.352 143.09 189.61 143.085L192.899 143.074L192.906 145.167L190.008 145.177C189.164 145.18 188.582 145.32 188.261 145.597C187.955 145.874 187.803 146.22 187.805 146.634C187.806 147.094 187.984 147.461 188.337 147.736C188.706 147.995 189.205 148.124 189.834 148.122C190.432 148.12 190.968 147.98 191.442 147.702C191.917 147.409 192.26 146.986 192.473 146.434L193.031 148.088C192.773 148.886 192.3 149.493 191.611 149.91C190.922 150.326 190.034 150.536 188.945 150.54ZM206.8 137.737C207.781 137.733 208.656 137.93 209.424 138.326C210.207 138.706 210.822 139.302 211.27 140.113C211.717 140.909 211.943 141.936 211.947 143.193L211.972 150.277L208.384 150.289L208.361 143.757C208.358 142.761 208.133 142.025 207.687 141.552C207.256 141.078 206.642 140.842 205.844 140.845C205.277 140.847 204.764 140.971 204.305 141.218C203.861 141.45 203.509 141.811 203.25 142.303C203.007 142.794 202.886 143.423 202.889 144.19L202.91 150.308L199.322 150.32L199.279 137.946L202.706 137.935L202.718 141.362L202.071 140.329C202.512 139.499 203.147 138.861 203.973 138.413C204.8 137.966 205.742 137.74 206.8 137.737ZM229.328 150.218L229.319 147.803L229.087 147.274L229.073 142.951C229.07 142.184 228.83 141.587 228.354 141.159C227.892 140.731 227.178 140.519 226.212 140.522C225.553 140.525 224.902 140.634 224.259 140.851C223.631 141.052 223.095 141.33 222.651 141.684L221.355 139.182C222.028 138.704 222.839 138.333 223.789 138.07C224.739 137.806 225.704 137.672 226.686 137.669C228.572 137.662 230.037 138.102 231.083 138.988C232.129 139.873 232.655 141.259 232.661 143.145L232.686 150.206L229.328 150.218ZM225.556 150.415C224.59 150.418 223.762 150.26 223.071 149.94C222.379 149.605 221.849 149.155 221.479 148.589C221.109 148.022 220.923 147.387 220.92 146.681C220.918 145.945 221.092 145.301 221.443 144.748C221.809 144.194 222.382 143.763 223.163 143.454C223.944 143.129 224.963 142.965 226.221 142.96L229.51 142.949L229.517 145.042L226.619 145.052C225.776 145.055 225.193 145.195 224.872 145.472C224.567 145.749 224.414 146.094 224.416 146.508C224.417 146.968 224.595 147.336 224.949 147.611C225.317 147.87 225.816 147.999 226.445 147.997C227.043 147.994 227.579 147.855 228.054 147.577C228.528 147.284 228.871 146.861 229.084 146.309L229.642 147.963C229.384 148.761 228.911 149.368 228.222 149.784C227.533 150.201 226.645 150.411 225.556 150.415ZM235.029 154.844C234.477 154.846 233.947 154.787 233.441 154.666C232.935 154.56 232.505 154.393 232.151 154.164L233.108 151.562C233.523 151.852 234.03 151.996 234.628 151.994C235.073 151.992 235.425 151.838 235.684 151.53C235.959 151.238 236.096 150.793 236.094 150.195L236.052 137.821L239.64 137.808L239.682 150.159C239.687 151.585 239.284 152.721 238.474 153.567C237.665 154.414 236.516 154.839 235.029 154.844ZM237.84 136.09C237.18 136.092 236.643 135.902 236.228 135.52C235.812 135.138 235.604 134.663 235.602 134.096C235.6 133.529 235.805 133.053 236.218 132.668C236.631 132.283 237.167 132.09 237.826 132.088C238.485 132.085 239.023 132.267 239.438 132.634C239.853 132.985 240.062 133.445 240.064 134.012C240.066 134.61 239.86 135.109 239.448 135.509C239.05 135.894 238.514 136.087 237.84 136.09ZM248.874 150.335C247.555 150.339 246.382 150.067 245.352 149.519C244.338 148.97 243.531 148.222 242.93 147.273C242.344 146.309 242.049 145.214 242.044 143.987C242.04 142.745 242.328 141.648 242.907 140.695C243.502 139.727 244.304 138.973 245.314 138.433C246.34 137.877 247.512 137.597 248.831 137.593C250.134 137.589 251.3 137.861 252.329 138.409C253.359 138.942 254.166 139.683 254.752 140.632C255.338 141.58 255.633 142.683 255.637 143.941C255.641 145.167 255.354 146.265 254.775 147.233C254.195 148.185 253.393 148.939 252.367 149.495C251.342 150.05 250.177 150.33 248.874 150.335ZM248.864 147.391C249.462 147.389 249.998 147.249 250.473 146.971C250.947 146.694 251.321 146.302 251.596 145.795C251.87 145.272 252.006 144.658 252.003 143.953C252.001 143.233 251.861 142.62 251.583 142.115C251.305 141.61 250.928 141.22 250.452 140.945C249.976 140.671 249.439 140.535 248.841 140.537C248.243 140.539 247.706 140.679 247.232 140.956C246.758 141.234 246.376 141.626 246.086 142.133C245.812 142.64 245.676 143.254 245.678 143.975C245.681 144.68 245.821 145.293 246.099 145.813C246.392 146.318 246.776 146.708 247.253 146.982C247.729 147.257 248.266 147.393 248.864 147.391ZM259.3 154.761C258.656 154.763 258.019 154.666 257.39 154.469C256.76 154.272 256.246 153.997 255.846 153.646L257.148 151.089C257.425 151.333 257.74 151.524 258.093 151.66C258.462 151.797 258.822 151.865 259.175 151.864C259.681 151.862 260.079 151.738 260.369 151.492C260.675 151.261 260.95 150.869 261.193 150.316L261.832 148.796L262.107 148.404L266.509 137.717L269.959 137.705L264.415 150.857C264.02 151.855 263.563 152.638 263.043 153.207C262.539 153.777 261.973 154.177 261.345 154.409C260.733 154.641 260.051 154.759 259.3 154.761ZM261.401 150.591L255.838 137.753L259.54 137.74L263.854 148.076L261.401 150.591ZM271.466 150.074L271.424 137.7L275.011 137.688L275.054 150.061L271.466 150.074ZM273.212 135.969C272.552 135.971 272.015 135.781 271.6 135.399C271.184 135.017 270.976 134.543 270.974 133.975C270.972 133.408 271.177 132.932 271.59 132.547C272.003 132.162 272.539 131.969 273.198 131.967C273.857 131.964 274.395 132.147 274.81 132.513C275.225 132.864 275.434 133.324 275.436 133.891C275.438 134.489 275.232 134.988 274.82 135.388C274.422 135.773 273.886 135.966 273.212 135.969ZM285.698 150.209C284.61 150.213 283.674 149.986 282.89 149.529C282.106 149.071 281.506 148.376 281.089 147.442C280.672 146.493 280.461 145.297 280.456 143.856C280.451 142.399 280.661 141.203 281.087 140.266C281.529 139.329 282.14 138.629 282.92 138.166C283.701 137.704 284.612 137.471 285.655 137.467C286.82 137.463 287.864 137.72 288.785 138.238C289.723 138.757 290.461 139.49 291.001 140.439C291.556 141.388 291.836 142.514 291.841 143.817C291.845 145.105 291.573 146.225 291.024 147.178C290.491 148.13 289.757 148.877 288.824 149.416C287.905 149.941 286.864 150.205 285.698 150.209ZM278.384 150.05L278.325 132.984L281.913 132.972L281.938 140.171L281.72 143.829L281.802 147.508L281.811 150.038L278.384 150.05ZM285.067 147.267C285.665 147.265 286.194 147.125 286.653 146.848C287.127 146.57 287.502 146.178 287.776 145.671C288.065 145.149 288.209 144.535 288.207 143.829C288.204 143.109 288.056 142.496 287.763 141.991C287.486 141.486 287.109 141.096 286.632 140.822C286.171 140.547 285.642 140.411 285.044 140.413C284.446 140.415 283.91 140.555 283.435 140.833C282.961 141.11 282.587 141.503 282.312 142.01C282.038 142.517 281.902 143.13 281.905 143.851C281.907 144.556 282.047 145.169 282.325 145.69C282.603 146.195 282.98 146.584 283.456 146.859C283.932 147.133 284.469 147.269 285.067 147.267ZM79.322 173.914C78.264 173.918 77.2439 173.799 76.2617 173.557C75.2948 173.3 74.5271 172.98 73.9584 172.599L75.1456 170.019C75.7142 170.369 76.3822 170.658 77.1496 170.886C77.9323 171.098 78.6994 171.203 79.4507 171.2C80.2787 171.197 80.861 171.095 81.1977 170.895C81.5496 170.694 81.725 170.418 81.7238 170.065C81.7228 169.774 81.5841 169.56 81.3076 169.423C81.0464 169.27 80.6934 169.156 80.2485 169.081C79.8035 169.006 79.3126 168.931 78.7757 168.856C78.2541 168.781 77.7247 168.684 77.1877 168.563C76.6505 168.427 76.1592 168.229 75.7136 167.97C75.2681 167.711 74.9065 167.359 74.629 166.915C74.3668 166.472 74.2345 165.897 74.2321 165.192C74.2295 164.41 74.4494 163.719 74.8921 163.12C75.35 162.52 76.0077 162.05 76.8652 161.71C77.7227 161.354 78.7494 161.174 79.9454 161.17C80.7887 161.167 81.6477 161.256 82.5223 161.437C83.397 161.618 84.1262 161.884 84.7101 162.235L83.5228 164.792C82.9236 164.441 82.3171 164.206 81.7034 164.085C81.1049 163.949 80.522 163.882 79.9547 163.884C79.1574 163.887 78.5751 163.996 78.2078 164.212C77.8405 164.428 77.6575 164.705 77.6586 165.042C77.6597 165.349 77.7908 165.578 78.052 165.731C78.3285 165.883 78.6893 166.005 79.1342 166.095C79.5792 166.186 80.0625 166.268 80.5841 166.343C81.121 166.403 81.658 166.5 82.1951 166.637C82.7322 166.773 83.2159 166.97 83.6461 167.23C84.0917 167.473 84.4532 167.817 84.7307 168.261C85.0081 168.689 85.1481 169.256 85.1505 169.961C85.1531 170.728 84.9254 171.411 84.4675 172.011C84.0095 172.595 83.3441 173.057 82.4712 173.398C81.6137 173.738 80.564 173.91 79.322 173.914ZM93.2656 173.867C91.947 173.871 90.773 173.599 89.7438 173.051C88.7299 172.502 87.9224 171.754 87.3211 170.805C86.7352 169.841 86.4401 168.746 86.4359 167.519C86.4317 166.277 86.7192 165.18 87.2987 164.227C87.8934 163.259 88.6958 162.505 89.7059 161.965C90.7314 161.409 91.9034 161.129 93.2221 161.125C94.5254 161.12 95.6917 161.392 96.7209 161.941C97.7501 162.474 98.5576 163.215 99.1435 164.164C99.7294 165.112 100.025 166.215 100.029 167.473C100.033 168.699 99.7454 169.797 99.1661 170.765C98.5867 171.717 97.7842 172.471 96.7588 173.027C95.7333 173.582 94.569 173.862 93.2656 173.867ZM93.2556 170.923C93.8536 170.921 94.3898 170.781 94.8641 170.503C95.3385 170.226 95.7129 169.833 95.9871 169.326C96.2614 168.804 96.3973 168.19 96.3948 167.485C96.3924 166.764 96.2523 166.152 95.9746 165.646C95.6968 165.141 95.3198 164.752 94.8436 164.477C94.3673 164.203 93.8301 164.067 93.2322 164.069C92.6342 164.071 92.098 164.211 91.6236 164.488C91.1492 164.766 90.7672 165.158 90.4776 165.665C90.2033 166.172 90.0674 166.786 90.0699 167.507C90.0723 168.212 90.2124 168.825 90.4902 169.345C90.7832 169.85 91.1679 170.24 91.6442 170.514C92.1204 170.789 92.6576 170.925 93.2556 170.923ZM105.469 173.641L100.229 161.285L103.932 161.272L108.292 171.906L106.452 171.913L110.901 161.248L114.351 161.237L109.172 173.628L105.469 173.641ZM115.857 173.606L115.815 161.232L119.242 161.22L119.254 164.716L118.768 163.706C119.133 162.83 119.721 162.169 120.532 161.722C121.343 161.259 122.331 161.025 123.496 161.021L123.508 164.333C123.354 164.319 123.216 164.311 123.094 164.312C122.971 164.297 122.841 164.29 122.703 164.29C121.721 164.293 120.925 164.58 120.313 165.149C119.717 165.703 119.421 166.571 119.425 167.751L119.445 173.593L115.857 173.606ZM125.695 173.572L125.653 161.198L129.241 161.186L129.283 173.56L125.695 173.572ZM127.441 159.467C126.782 159.469 126.244 159.279 125.829 158.897C125.414 158.516 125.205 158.041 125.203 157.474C125.201 156.906 125.407 156.43 125.819 156.045C126.232 155.661 126.768 155.467 127.427 155.465C128.087 155.463 128.624 155.645 129.039 156.011C129.454 156.363 129.663 156.822 129.665 157.389C129.667 157.987 129.462 158.486 129.049 158.886C128.652 159.271 128.116 159.465 127.441 159.467ZM140.091 160.965C141.072 160.961 141.947 161.158 142.715 161.554C143.498 161.934 144.114 162.53 144.561 163.341C145.009 164.137 145.235 165.164 145.239 166.421L145.263 173.505L141.675 173.517L141.653 166.985C141.649 165.989 141.424 165.253 140.978 164.78C140.547 164.306 139.933 164.07 139.136 164.073C138.568 164.075 138.055 164.199 137.596 164.446C137.152 164.678 136.801 165.039 136.542 165.531C136.298 166.022 136.178 166.651 136.18 167.418L136.201 173.536L132.613 173.548L132.571 161.174L135.998 161.163L136.01 164.59L135.362 163.557C135.804 162.727 136.438 162.089 137.264 161.641C138.091 161.194 139.033 160.968 140.091 160.965ZM148.515 173.494L148.457 156.428L152.045 156.416L152.103 173.482L148.515 173.494ZM163.023 173.444L163.015 171.029L162.783 170.501L162.768 166.177C162.766 165.411 162.526 164.813 162.049 164.386C161.588 163.958 160.874 163.746 159.908 163.749C159.249 163.751 158.597 163.861 157.954 164.078C157.326 164.279 156.79 164.557 156.347 164.911L155.05 162.409C155.724 161.931 156.535 161.56 157.485 161.296C158.434 161.032 159.4 160.899 160.381 160.895C162.267 160.889 163.733 161.329 164.779 162.214C165.825 163.1 166.351 164.486 166.357 166.372L166.381 173.433L163.023 173.444ZM159.252 173.641C158.286 173.645 157.457 173.486 156.766 173.167C156.075 172.832 155.545 172.381 155.175 171.815C154.805 171.249 154.619 170.613 154.616 169.908C154.614 169.172 154.788 168.528 155.138 167.974C155.505 167.421 156.078 166.99 156.859 166.68C157.64 166.356 158.659 166.191 159.916 166.187L163.205 166.176L163.213 168.269L160.315 168.279C159.471 168.282 158.889 168.422 158.568 168.699C158.262 168.976 158.11 169.321 158.112 169.735C158.113 170.195 158.291 170.563 158.644 170.837C159.013 171.097 159.512 171.225 160.141 171.223C160.739 171.221 161.275 171.081 161.749 170.804C162.224 170.511 162.567 170.088 162.78 169.535L163.338 171.189C163.08 171.988 162.606 172.595 161.918 173.011C161.229 173.428 160.341 173.638 159.252 173.641ZM169.629 173.422L169.586 161.048L173.013 161.036L173.025 164.532L172.539 163.522C172.904 162.647 173.492 161.985 174.303 161.538C175.114 161.075 176.102 160.842 177.268 160.838L177.279 164.15C177.125 164.135 176.987 164.128 176.865 164.128C176.742 164.113 176.612 164.106 176.474 164.106C175.492 164.11 174.696 164.396 174.085 164.966C173.489 165.52 173.192 166.387 173.197 167.568L173.216 173.41L169.629 173.422ZM186.944 160.805C187.926 160.801 188.8 160.998 189.568 161.394C190.352 161.774 190.967 162.37 191.415 163.181C191.862 163.977 192.088 165.004 192.092 166.261L192.116 173.345L188.528 173.357L188.506 166.825C188.503 165.829 188.278 165.093 187.831 164.62C187.4 164.146 186.786 163.91 185.989 163.913C185.422 163.915 184.908 164.039 184.449 164.286C184.005 164.518 183.654 164.879 183.395 165.371C183.151 165.862 183.031 166.491 183.033 167.258L183.054 173.376L179.466 173.388L179.424 161.014L182.851 161.003L182.863 164.43L182.215 163.397C182.657 162.567 183.291 161.929 184.118 161.481C184.944 161.034 185.886 160.808 186.944 160.805ZM195.369 173.334L195.326 160.96L198.914 160.948L198.957 173.322L195.369 173.334ZM197.114 159.229C196.455 159.231 195.918 159.041 195.502 158.659C195.087 158.277 194.879 157.803 194.877 157.235C194.875 156.668 195.08 156.192 195.493 155.807C195.905 155.423 196.441 155.229 197.101 155.227C197.76 155.225 198.297 155.407 198.713 155.773C199.128 156.125 199.336 156.584 199.338 157.151C199.34 157.749 199.135 158.248 198.722 158.648C198.325 159.033 197.789 159.227 197.114 159.229ZM214.068 173.454C212.902 173.458 211.851 173.201 210.914 172.683C209.977 172.165 209.231 171.431 208.676 170.482C208.136 169.534 207.863 168.407 207.859 167.104C207.855 165.816 208.119 164.696 208.653 163.743C209.201 162.791 209.942 162.052 210.876 161.528C211.809 160.988 212.859 160.716 214.024 160.712C215.113 160.708 216.041 160.935 216.81 161.393C217.593 161.85 218.193 162.545 218.611 163.479C219.028 164.413 219.239 165.609 219.244 167.065C219.249 168.507 219.038 169.703 218.612 170.655C218.186 171.592 217.583 172.292 216.802 172.755C216.022 173.217 215.11 173.45 214.068 173.454ZM214.679 170.508C215.261 170.506 215.79 170.366 216.264 170.088C216.739 169.811 217.113 169.419 217.387 168.912C217.677 168.389 217.82 167.775 217.818 167.07C217.815 166.349 217.668 165.737 217.375 165.232C217.097 164.727 216.72 164.337 216.244 164.062C215.767 163.788 215.238 163.652 214.655 163.654C214.057 163.656 213.521 163.796 213.047 164.073C212.572 164.351 212.19 164.743 211.901 165.25C211.626 165.757 211.491 166.371 211.493 167.092C211.495 167.797 211.635 168.41 211.913 168.93C212.206 169.435 212.591 169.825 213.067 170.099C213.544 170.374 214.081 170.51 214.679 170.508ZM217.785 177.719L217.762 170.75L217.979 167.093L217.897 163.413L217.889 160.883L221.316 160.871L221.373 177.707L217.785 177.719ZM230.569 173.398C229.25 173.402 228.076 173.13 227.047 172.582C226.033 172.033 225.225 171.284 224.624 170.336C224.038 169.372 223.743 168.277 223.739 167.05C223.735 165.808 224.022 164.711 224.602 163.758C225.196 162.79 225.999 162.036 227.009 161.496C228.034 160.94 229.206 160.66 230.525 160.656C231.828 160.651 232.995 160.923 234.024 161.472C235.053 162.005 235.86 162.746 236.446 163.694C237.032 164.643 237.327 165.746 237.332 167.003C237.336 168.23 237.048 169.327 236.469 170.295C235.89 171.248 235.087 172.002 234.062 172.558C233.036 173.113 231.872 173.393 230.569 173.398ZM230.558 170.454C231.156 170.452 231.693 170.312 232.167 170.034C232.641 169.756 233.016 169.364 233.29 168.857C233.564 168.335 233.7 167.721 233.698 167.016C233.695 166.295 233.555 165.682 233.277 165.177C233 164.672 232.623 164.283 232.146 164.008C231.67 163.734 231.133 163.598 230.535 163.6C229.937 163.602 229.401 163.742 228.926 164.019C228.452 164.297 228.07 164.689 227.78 165.196C227.506 165.703 227.37 166.317 227.373 167.037C227.375 167.743 227.515 168.356 227.793 168.876C228.086 169.381 228.471 169.771 228.947 170.045C229.423 170.319 229.96 170.456 230.558 170.454ZM239.083 163.616L238.83 157.085L241.889 157.075L241.659 163.608L239.083 163.616ZM244.715 173.165L244.657 156.099L248.245 156.087L248.303 173.153L244.715 173.165ZM257.468 177.768C256.302 177.772 255.175 177.63 254.085 177.342C253.011 177.07 252.113 176.651 251.39 176.086L252.807 173.506C253.33 173.933 253.99 174.268 254.789 174.511C255.602 174.769 256.4 174.896 257.182 174.894C258.455 174.889 259.374 174.602 259.939 174.033C260.52 173.464 260.808 172.62 260.804 171.5L260.798 169.637L261.017 166.531L260.961 163.404L260.952 160.736L264.356 160.724L264.391 171.028C264.399 173.328 263.806 175.024 262.614 176.117C261.422 177.21 259.706 177.76 257.468 177.768ZM256.898 172.526C255.748 172.53 254.704 172.288 253.767 171.8C252.846 171.297 252.1 170.602 251.529 169.715C250.974 168.812 250.695 167.763 250.69 166.567C250.686 165.355 250.959 164.304 251.508 163.413C252.072 162.506 252.813 161.806 253.731 161.312C254.665 160.819 255.707 160.57 256.857 160.566C257.9 160.562 258.82 160.774 259.619 161.2C260.418 161.612 261.041 162.261 261.489 163.149C261.936 164.021 262.163 165.148 262.167 166.528C262.172 167.892 261.954 169.02 261.512 169.911C261.07 170.786 260.451 171.44 259.656 171.872C258.86 172.304 257.94 172.522 256.898 172.526ZM257.601 169.579C258.229 169.577 258.789 169.452 259.278 169.205C259.768 168.943 260.15 168.581 260.425 168.121C260.699 167.66 260.835 167.13 260.833 166.532C260.831 165.919 260.691 165.39 260.414 164.947C260.136 164.487 259.752 164.136 259.26 163.892C258.769 163.633 258.209 163.505 257.58 163.507C256.951 163.509 256.392 163.642 255.902 163.904C255.413 164.151 255.023 164.505 254.733 164.966C254.458 165.412 254.322 165.941 254.324 166.554C254.326 167.152 254.466 167.681 254.744 168.14C255.037 168.599 255.429 168.958 255.921 169.217C256.412 169.461 256.972 169.581 257.601 169.579ZM275.327 173.061L275.319 170.646L275.087 170.117L275.072 165.793C275.07 165.027 274.83 164.43 274.353 164.002C273.892 163.574 273.178 163.362 272.212 163.365C271.553 163.367 270.901 163.477 270.258 163.694C269.63 163.895 269.095 164.173 268.651 164.527L267.354 162.025C268.028 161.547 268.839 161.176 269.789 160.912C270.738 160.649 271.704 160.515 272.685 160.512C274.571 160.505 276.037 160.945 277.083 161.831C278.129 162.716 278.655 164.102 278.661 165.988L278.685 173.049L275.327 173.061ZM271.556 173.258C270.59 173.261 269.761 173.103 269.07 172.783C268.379 172.448 267.849 171.998 267.479 171.431C267.109 170.865 266.923 170.23 266.92 169.524C266.918 168.788 267.092 168.144 267.443 167.591C267.809 167.037 268.382 166.606 269.163 166.297C269.944 165.972 270.963 165.808 272.22 165.803L275.509 165.792L275.517 167.885L272.619 167.895C271.775 167.898 271.193 168.038 270.872 168.315C270.566 168.592 270.414 168.937 270.416 169.351C270.417 169.811 270.595 170.179 270.948 170.454C271.317 170.713 271.816 170.842 272.445 170.839C273.043 170.837 273.579 170.698 274.053 170.42C274.528 170.127 274.871 169.704 275.084 169.151L275.642 170.806C275.384 171.604 274.91 172.211 274.222 172.627C273.533 173.044 272.645 173.254 271.556 173.258ZM140.906 193.99L140.983 189.62L146.737 184.126L151.015 184.111L145.491 189.765L143.634 191.29L140.906 193.99ZM137.948 196.53L137.889 179.464L141.477 179.452L141.536 196.518L137.948 196.53ZM147.17 196.499L142.967 191.315L145.211 188.524L151.517 196.484L147.17 196.499ZM153.131 196.478L153.089 184.104L156.677 184.092L156.719 196.466L153.131 196.478ZM154.877 182.373C154.218 182.376 153.68 182.186 153.265 181.804C152.85 181.422 152.641 180.947 152.639 180.38C152.637 179.813 152.842 179.337 153.255 178.952C153.668 178.567 154.204 178.374 154.863 178.371C155.522 178.369 156.06 178.551 156.475 178.918C156.89 179.269 157.099 179.728 157.101 180.296C157.103 180.894 156.897 181.393 156.485 181.793C156.088 182.177 155.551 182.371 154.877 182.373ZM160.049 196.455L160.007 184.081L163.434 184.069L163.446 187.565L162.959 186.555C163.324 185.679 163.912 185.018 164.723 184.571C165.534 184.108 166.523 183.875 167.688 183.871L167.699 187.183C167.546 187.168 167.408 187.16 167.285 187.161C167.163 187.146 167.032 187.139 166.894 187.139C165.913 187.143 165.116 187.429 164.505 187.998C163.909 188.552 163.613 189.42 163.617 190.6L163.637 196.442L160.049 196.455ZM169.887 196.421L169.845 184.047L173.432 184.035L173.475 196.409L169.887 196.421ZM171.633 182.316C170.973 182.318 170.436 182.128 170.021 181.747C169.605 181.365 169.397 180.89 169.395 180.323C169.393 179.755 169.598 179.279 170.011 178.895C170.424 178.51 170.96 178.316 171.619 178.314C172.278 178.312 172.816 178.494 173.231 178.861C173.646 179.212 173.855 179.671 173.857 180.238C173.859 180.836 173.653 181.335 173.241 181.736C172.843 182.12 172.307 182.314 171.633 182.316ZM181.865 196.564C180.409 196.569 179.273 196.205 178.458 195.472C177.642 194.723 177.232 193.613 177.227 192.141L177.19 181.285L180.778 181.273L180.815 192.083C180.817 192.604 180.956 193.01 181.233 193.3C181.51 193.575 181.886 193.712 182.362 193.71C182.929 193.708 183.411 193.554 183.809 193.245L184.784 195.772C184.417 196.034 183.973 196.235 183.452 196.375C182.946 196.499 182.417 196.562 181.865 196.564ZM175.301 187.065L175.291 184.305L183.87 184.275L183.88 187.035L175.301 187.065ZM186.8 196.363L186.757 183.989L190.345 183.977L190.388 196.351L186.8 196.363ZM188.546 182.258C187.886 182.26 187.349 182.071 186.934 181.689C186.518 181.307 186.31 180.832 186.308 180.265C186.306 179.698 186.511 179.222 186.924 178.837C187.337 178.452 187.873 178.259 188.532 178.256C189.191 178.254 189.729 178.436 190.144 178.803C190.559 179.154 190.768 179.613 190.769 180.181C190.772 180.779 190.566 181.278 190.154 181.678C189.756 182.062 189.22 182.256 188.546 182.258ZM201.196 183.756C202.177 183.753 203.052 183.949 203.82 184.345C204.603 184.726 205.218 185.322 205.666 186.133C206.113 186.929 206.339 187.955 206.343 189.212L206.368 196.296L202.78 196.309L202.757 189.777C202.754 188.78 202.529 188.045 202.083 187.571C201.652 187.097 201.038 186.862 200.24 186.864C199.673 186.866 199.16 186.991 198.701 187.238C198.257 187.469 197.905 187.831 197.646 188.322C197.403 188.814 197.282 189.443 197.285 190.209L197.306 196.327L193.718 196.34L193.675 183.966L197.102 183.954L197.114 187.381L196.467 186.348C196.908 185.519 197.543 184.88 198.369 184.433C199.196 183.985 200.138 183.76 201.196 183.756ZM215.545 200.911C214.379 200.915 213.252 200.773 212.162 200.486C211.088 200.213 210.189 199.795 209.467 199.23L210.884 196.649C211.407 197.077 212.067 197.412 212.865 197.654C213.679 197.912 214.477 198.04 215.259 198.037C216.531 198.033 217.45 197.746 218.016 197.177C218.597 196.607 218.885 195.763 218.881 194.644L218.875 192.781L219.094 189.675L219.038 186.547L219.028 183.879L222.432 183.867L222.468 194.171C222.476 196.471 221.883 198.168 220.691 199.26C219.499 200.353 217.783 200.903 215.545 200.911ZM214.975 195.669C213.825 195.673 212.781 195.431 211.844 194.944C210.922 194.441 210.176 193.746 209.606 192.858C209.051 191.956 208.771 190.906 208.767 189.71C208.763 188.499 209.036 187.448 209.585 186.556C210.149 185.65 210.89 184.95 211.808 184.456C212.742 183.962 213.784 183.713 214.934 183.709C215.977 183.706 216.897 183.917 217.696 184.344C218.495 184.755 219.118 185.404 219.566 186.292C220.013 187.165 220.24 188.291 220.244 189.671C220.249 191.036 220.03 192.163 219.589 193.054C219.147 193.93 218.528 194.584 217.732 195.016C216.937 195.448 216.017 195.665 214.975 195.669ZM215.678 192.723C216.306 192.72 216.866 192.596 217.355 192.349C217.845 192.087 218.227 191.725 218.502 191.264C218.776 190.803 218.912 190.274 218.91 189.676C218.908 189.062 218.768 188.534 218.491 188.09C218.213 187.631 217.829 187.28 217.337 187.036C216.846 186.777 216.286 186.648 215.657 186.651C215.028 186.653 214.469 186.785 213.979 187.047C213.489 187.294 213.1 187.648 212.81 188.109C212.535 188.555 212.399 189.084 212.401 189.698C212.403 190.296 212.543 190.824 212.821 191.283C213.114 191.742 213.506 192.101 213.997 192.36C214.489 192.604 215.049 192.725 215.678 192.723Z" fill="white"/>
<path d="M122.384 249.56C121.32 249.564 120.284 249.465 119.275 249.263C118.285 249.079 117.379 248.821 116.556 248.488C115.752 248.155 115.07 247.793 114.509 247.403L116.345 243.897C116.962 244.324 117.617 244.695 118.308 245.01C119.019 245.306 119.757 245.537 120.523 245.702C121.289 245.849 122.054 245.921 122.819 245.919C123.659 245.916 124.378 245.82 124.975 245.631C125.59 245.442 126.056 245.179 126.372 244.842C126.707 244.505 126.873 244.094 126.872 243.609C126.87 243.161 126.692 242.797 126.336 242.519C125.98 242.24 125.513 242.008 124.934 241.823C124.373 241.62 123.747 241.426 123.056 241.242C122.364 241.057 121.663 240.845 120.953 240.605C120.262 240.346 119.626 240.031 119.046 239.659C118.485 239.269 118.026 238.776 117.669 238.18C117.312 237.584 117.132 236.838 117.129 235.942C117.125 234.598 117.485 233.43 118.209 232.438C118.953 231.446 119.995 230.677 121.338 230.132C122.68 229.567 124.256 229.282 126.067 229.275C127.392 229.271 128.643 229.416 129.82 229.711C130.997 229.987 132.006 230.394 132.848 230.932L131.152 234.41C130.404 233.909 129.572 233.538 128.656 233.299C127.741 233.04 126.798 232.913 125.827 232.916C124.95 232.919 124.194 233.024 123.56 233.232C122.945 233.439 122.47 233.73 122.135 234.105C121.819 234.461 121.662 234.872 121.663 235.338C121.665 235.805 121.834 236.187 122.171 236.485C122.527 236.764 122.994 237.005 123.574 237.208C124.153 237.393 124.788 237.577 125.48 237.761C126.171 237.946 126.862 238.158 127.554 238.398C128.245 238.639 128.881 238.944 129.461 239.316C130.041 239.687 130.509 240.162 130.866 240.739C131.222 241.298 131.402 242.007 131.405 242.865C131.41 244.209 131.04 245.386 130.297 246.397C129.554 247.389 128.502 248.167 127.141 248.732C125.799 249.278 124.213 249.554 122.384 249.56ZM140.995 249.384C139.464 249.39 138.129 249.114 136.988 248.558C135.847 248.002 134.958 247.221 134.32 246.215C133.701 245.209 133.389 244.025 133.384 242.662C133.378 240.982 133.765 239.488 134.545 238.178C135.324 236.85 136.394 235.801 137.754 235.031C139.133 234.261 140.699 233.873 142.454 233.867C144.003 233.862 145.339 234.138 146.461 234.694C147.601 235.25 148.481 236.031 149.101 237.037C149.739 238.024 150.06 239.208 150.065 240.589C150.071 242.251 149.684 243.745 148.904 245.073C148.125 246.401 147.055 247.45 145.695 248.22C144.335 248.99 142.768 249.378 140.995 249.384ZM141.263 245.8C142.121 245.797 142.877 245.589 143.529 245.176C144.199 244.744 144.72 244.154 145.091 243.406C145.461 242.659 145.645 241.79 145.642 240.801C145.638 239.793 145.337 238.982 144.737 238.368C144.138 237.754 143.297 237.449 142.214 237.452C141.355 237.455 140.591 237.672 139.92 238.104C139.268 238.517 138.748 239.097 138.358 239.845C137.988 240.593 137.804 241.462 137.807 242.451C137.811 243.478 138.112 244.298 138.712 244.912C139.311 245.508 140.161 245.803 141.263 245.8ZM155.124 249.112L151.741 234.06L156.053 234.045L158.869 246.999L156.629 247.007L164.565 234.016L168.933 234.001L159.632 249.097L155.124 249.112ZM167.771 249.069L170.715 233.995L174.859 233.981L174.006 238.268L173.609 237.037C174.277 235.821 175.152 234.969 176.233 234.48C177.314 233.991 178.61 233.744 180.122 233.739L179.352 237.773C179.165 237.755 178.988 237.747 178.82 237.747C178.67 237.729 178.512 237.72 178.344 237.721C177.056 237.725 176.002 238.046 175.183 238.684C174.383 239.321 173.845 240.349 173.57 241.769L172.138 249.054L167.771 249.069ZM179.747 249.028L182.692 233.954L187.031 233.939L184.087 249.013L179.747 249.028ZM185.596 231.844C184.831 231.847 184.214 231.634 183.746 231.206C183.278 230.76 183.043 230.219 183.041 229.585C183.038 228.838 183.297 228.221 183.818 227.734C184.358 227.228 185.057 226.974 185.916 226.971C186.681 226.968 187.298 227.181 187.766 227.609C188.253 228.018 188.497 228.53 188.499 229.146C188.502 229.949 188.233 230.603 187.694 231.109C187.173 231.596 186.474 231.841 185.596 231.844ZM199.849 233.671C201.137 233.667 202.23 233.934 203.128 234.472C204.026 234.992 204.663 235.764 205.04 236.79C205.417 237.815 205.458 239.084 205.165 240.597L203.513 248.947L199.145 248.962L200.742 240.892C200.962 239.79 200.866 238.941 200.453 238.345C200.059 237.749 199.33 237.453 198.266 237.457C197.165 237.46 196.242 237.781 195.497 238.418C194.772 239.055 194.271 240.028 193.995 241.335L192.509 248.984L188.141 248.999L191.086 233.925L195.23 233.911L194.377 238.17L193.756 236.884C194.48 235.78 195.374 234.975 196.436 234.467C197.517 233.941 198.655 233.675 199.849 233.671ZM207.501 248.933L211.574 228.143L215.942 228.128L211.869 248.918L207.501 248.933ZM222.727 249.105C221.57 249.109 220.496 248.851 219.505 248.332C218.513 247.794 217.717 247.022 217.117 246.016C216.516 245.01 216.213 243.798 216.208 242.379C216.204 241.11 216.405 239.943 216.812 238.877C217.238 237.812 217.832 236.886 218.595 236.099C219.357 235.313 220.242 234.703 221.249 234.27C222.255 233.819 223.337 233.591 224.494 233.587C225.745 233.583 226.819 233.812 227.717 234.276C228.614 234.74 229.279 235.465 229.712 236.453C230.163 237.422 230.326 238.682 230.201 240.232C230.114 242.005 229.755 243.565 229.125 244.911C228.495 246.239 227.64 247.268 226.56 248C225.498 248.732 224.221 249.1 222.727 249.105ZM224.059 245.489C224.918 245.486 225.673 245.278 226.325 244.865C226.995 244.433 227.516 243.853 227.887 243.124C228.276 242.376 228.469 241.507 228.466 240.518C228.462 239.491 228.152 238.68 227.534 238.085C226.934 237.489 226.093 237.194 225.011 237.197C224.171 237.2 223.415 237.417 222.745 237.849C222.074 238.262 221.544 238.842 221.155 239.59C220.784 240.32 220.6 241.179 220.604 242.168C220.607 243.195 220.909 244.006 221.508 244.601C222.126 245.197 222.976 245.492 224.059 245.489ZM227.067 248.866L227.644 245.868L228.609 241.385L229.182 236.903L229.787 233.793L234.155 233.778L231.21 248.852L227.067 248.866ZM235.254 248.838L238.199 233.764L242.343 233.75L241.49 238.037L241.093 236.806C241.761 235.591 242.636 234.738 243.717 234.249C244.798 233.76 246.094 233.513 247.606 233.508L246.836 237.543C246.649 237.525 246.472 237.516 246.304 237.517C246.154 237.498 245.996 237.49 245.828 237.49C244.54 237.495 243.486 237.815 242.667 238.453C241.867 239.09 241.329 240.119 241.054 241.538L239.622 248.823L235.254 248.838Z" fill="#F84F9F"/>
<defs>
<filter id="filter0_f_174005_3461" x="47.8408" y="46.3972" width="273.434" height="279.375" filterUnits="userSpaceOnUse" color-interpolation-filters="sRGB">
<feFlood flood-opacity="0" result="BackgroundImageFix"/>
<feBlend mode="normal" in="SourceGraphic" in2="BackgroundImageFix" result="shape"/>
<feGaussianBlur stdDeviation="3.60785" result="effect1_foregroundBlur_174005_3461"/>
</filter>
</defs>
</svg>
