<svg width="355" height="354" viewBox="0 0 355 354" fill="none" xmlns="http://www.w3.org/2000/svg">
<g style="mix-blend-mode:multiply" filter="url(#filter0_f_174005_3443)">
<path d="M314.059 300.774L70.6429 318.556C66.5616 235.403 63.5375 153.883 55.0565 71.0336L293.524 53.6129C297.934 137.589 306.323 218.717 314.059 300.774Z" fill="#525252" fill-opacity="0.35"/>
</g>
<path d="M302.633 299.944L53.6934 301.156C55.3203 218.814 56.1974 136.492 53.326 54.1718L300.613 52.9681C299.263 136.127 300.464 218.455 302.633 299.944Z" fill="#EA2C86"/>
<mask id="mask0_174005_3443" style="mask-type:alpha" maskUnits="userSpaceOnUse" x="53" y="52" width="250" height="250">
<path d="M302.633 299.944L53.6934 301.156C55.3203 218.814 56.1974 136.492 53.326 54.1719L300.613 52.9683C299.263 136.127 300.464 218.456 302.633 299.944Z" fill="#EA2C86"/>
</mask>
<g mask="url(#mask0_174005_3443)">
<path d="M299.945 53.1045L54.0679 54.0397L54.2387 98.9447L300.116 98.0094L299.945 53.1045Z" fill="#DA1D76"/>
</g>
<mask id="mask1_174005_3443" style="mask-type:luminance" maskUnits="userSpaceOnUse" x="73" y="210" width="219" height="57">
<path d="M291.704 210.751H73.103V266.672H291.704V210.751Z" fill="white"/>
</mask>
<g mask="url(#mask1_174005_3443)">
<path d="M76.6542 228.688C87.4536 228.444 98.253 228.327 109.052 228.141C102.659 228.916 96.2724 229.743 89.8912 230.623C88.4087 230.833 87.6118 231.8 87.3716 232.913C86.6333 232.902 85.8832 232.884 85.139 232.872C82.3674 232.82 81.172 235.705 81.9514 237.587C81.5646 237.587 81.1837 237.587 80.797 237.587C76.9999 237.616 76.244 243.514 80.0997 243.496C82.2443 243.484 84.3831 243.519 86.5219 243.514C86.0942 244.126 85.8656 244.842 85.8656 245.571C84.3245 245.681 82.7834 245.746 81.2423 245.862C77.1464 246.159 78.125 252.436 82.2092 252.138C83.0764 252.074 83.9437 252.022 84.8168 251.964C84.137 253.863 85.4262 256.666 88.1744 256.544C89.8737 256.468 91.5847 256.433 93.284 256.363C91.7605 258.129 93.0262 261.882 96.1963 261.731C97.3916 261.678 98.5929 261.643 99.7824 261.591C98.6866 263.438 99.9816 266.754 102.964 266.661C146.894 265.262 190.848 264.522 234.807 264.458C240.854 264.446 246.902 264.446 252.949 264.47C259.142 264.481 265.776 265.163 271.899 264.19C274.782 263.729 274.882 260.087 272.655 258.939C273.598 258.869 274.542 258.834 275.473 258.712C278.643 258.298 278.374 253.782 275.38 253.281C275.063 253.228 274.747 253.217 274.436 253.17C275.579 252.366 275.837 250.874 275.245 249.702C275.673 249.714 276.1 249.737 276.522 249.749C277.723 249.772 278.573 249.137 278.983 248.31C280.718 248.31 282.446 248.321 284.169 248.298C287.134 248.246 286.952 243.444 284.081 243.158C282.376 242.989 280.659 242.931 278.954 242.797C279.657 242.686 280.372 242.581 281.069 242.412C283.788 241.736 283.917 237.902 280.976 237.418C279.569 237.185 278.151 237.092 276.721 237.045C276.71 236.439 276.505 235.85 276.1 235.39C280.56 235.303 285.019 235.238 289.478 235.035C292.472 234.9 292.39 229.889 289.384 229.755C282.927 229.475 276.458 229.358 269.995 229.306C269.801 228.583 269.344 227.96 268.53 227.744C267.112 227.36 265.647 227.132 264.182 226.87C266.432 226.87 268.676 226.888 270.92 226.87C274.155 226.841 274.94 222.016 271.53 221.748C271.495 221.748 271.459 221.748 271.418 221.748C271.043 221.095 270.463 220.553 269.438 220.413C265.623 219.929 261.797 219.562 257.959 219.242C257.801 218.012 257.015 216.87 255.562 216.777C249.228 216.375 242.876 216.276 236.524 216.217C236.987 214.603 236.225 212.558 234.204 212.459C222.197 211.882 210.062 212.604 198.049 212.82C186.271 213.035 174.493 213.251 162.715 213.473C158.526 213.554 154.336 213.624 150.146 213.706C144.058 213.426 137.97 213.181 131.882 212.855C120.18 212.225 108.472 211.526 96.7588 210.757C94.2684 210.594 93.032 212.872 93.3602 214.737C92.5457 214.755 91.7429 214.766 90.9284 214.784C89.4635 214.813 88.6724 215.64 88.4263 216.689C84.4242 216.847 80.4161 216.987 76.414 217.173C73.3376 217.325 73.1267 220.891 74.9315 222.587C71.8082 223.443 72.8864 228.776 76.6542 228.694V228.688Z" fill="white"/>
</g>
<path d="M73.0822 136.426L74.2019 133.745C74.8966 134.151 75.6362 134.465 76.4207 134.686C77.2204 134.892 77.9961 135.006 78.7477 135.028C79.5145 135.034 80.2036 134.95 80.815 134.774C81.4417 134.599 81.9372 134.34 82.3013 133.998C82.6808 133.657 82.8676 133.225 82.8617 132.704C82.8548 132.091 82.5966 131.641 82.0874 131.356C81.5779 131.055 80.9016 130.909 80.0583 130.919L76.1256 130.963L76.0938 128.157L79.7505 128.116C80.5018 128.107 81.0827 127.948 81.4932 127.636C81.9191 127.325 82.1289 126.901 82.1229 126.364C82.1177 125.904 81.9602 125.538 81.6504 125.265C81.3404 124.977 80.9164 124.768 80.3782 124.636C79.8553 124.504 79.2643 124.449 78.6052 124.472C77.9461 124.495 77.265 124.61 76.562 124.817C75.859 125.024 75.1875 125.308 74.5475 125.668L73.388 122.806C74.4245 122.257 75.5166 121.877 76.6643 121.665C77.8271 121.437 78.9458 121.37 80.0203 121.466C81.1099 121.545 82.0939 121.779 82.9724 122.168C83.8507 122.542 84.554 123.04 85.0825 123.662C85.6109 124.285 85.8799 125.026 85.8897 125.884C85.8984 126.651 85.7068 127.335 85.3149 127.938C84.923 128.54 84.3686 129.007 83.6516 129.337C82.95 129.667 82.1392 129.837 81.2192 129.847L81.3019 129.018C82.3751 129.006 83.3048 129.18 84.0909 129.539C84.8922 129.883 85.5111 130.374 85.9477 131.013C86.3995 131.637 86.6301 132.362 86.6394 133.19C86.6481 133.957 86.449 134.649 86.0419 135.267C85.6501 135.87 85.1038 136.382 84.4032 136.804C83.7026 137.226 82.9011 137.542 81.9988 137.751C81.0964 137.961 80.1315 138.056 79.1038 138.037C78.0916 138.018 77.0703 137.884 76.0401 137.635C75.0097 137.37 74.0237 136.967 73.0822 136.426ZM96.7696 137.584L96.7422 135.169L96.5063 134.643L96.4573 130.319C96.4486 129.552 96.2042 128.957 95.724 128.533C95.2592 128.109 94.5438 127.902 93.5779 127.913C92.9186 127.921 92.2682 128.036 91.6267 128.258C91.0003 128.464 90.4668 128.746 90.0261 129.104L88.7098 126.611C89.3791 126.128 90.1875 125.751 91.1352 125.48C92.0828 125.208 93.0473 125.067 94.0286 125.056C95.9144 125.035 97.3837 125.463 98.4364 126.34C99.4891 127.218 100.026 128.599 100.047 130.485L100.127 137.546L96.7696 137.584ZM92.9999 137.811C92.034 137.822 91.2042 137.67 90.5106 137.356C89.8168 137.026 89.2827 136.58 88.9083 136.017C88.5339 135.454 88.3428 134.819 88.3348 134.114C88.3264 133.378 88.4955 132.732 88.8419 132.176C89.2036 131.62 89.7737 131.184 90.5522 130.869C91.3305 130.538 92.3482 130.365 93.6055 130.351L96.8943 130.314L96.918 132.407L94.0202 132.44C93.1769 132.449 92.5958 132.594 92.277 132.873C91.9734 133.153 91.824 133.5 91.8287 133.914C91.8339 134.374 92.0144 134.74 92.3702 135.012C92.7411 135.268 93.2409 135.393 93.8695 135.386C94.4675 135.379 95.0025 135.235 95.4747 134.953C95.9467 134.657 96.2869 134.231 96.4953 133.677L97.0661 135.326C96.8144 136.127 96.346 136.738 95.6607 137.159C94.9755 137.581 94.0885 137.798 92.9999 137.811ZM103.244 137.511L103.104 125.137L113.016 125.025L113.05 127.969L105.897 128.05L106.693 127.259L106.809 137.47L103.244 137.511ZM122.35 137.478C121.308 137.49 120.393 137.27 119.606 136.819C118.819 136.368 118.197 135.677 117.742 134.747C117.302 133.801 117.074 132.608 117.058 131.167C117.041 129.71 117.234 128.512 117.638 127.572C118.041 126.632 118.631 125.928 119.408 125.459C120.185 124.99 121.117 124.749 122.206 124.737C123.371 124.724 124.417 124.98 125.343 125.507C126.284 126.017 127.028 126.745 127.576 127.689C128.139 128.634 128.427 129.75 128.442 131.038C128.457 132.341 128.193 133.471 127.652 134.428C127.126 135.385 126.399 136.129 125.469 136.661C124.555 137.193 123.516 137.465 122.35 137.478ZM115.085 141.839L114.895 125.004L118.321 124.965L118.35 127.495L118.323 131.175L118.594 134.83L118.673 141.798L115.085 141.839ZM121.696 134.541C122.294 134.535 122.821 134.391 123.278 134.109C123.75 133.828 124.122 133.433 124.392 132.924C124.677 132.399 124.816 131.784 124.808 131.079C124.8 130.358 124.647 129.747 124.35 129.244C124.069 128.741 123.688 128.354 123.21 128.084C122.747 127.813 122.216 127.681 121.618 127.688C121.02 127.695 120.485 127.839 120.013 128.12C119.541 128.401 119.17 128.797 118.9 129.306C118.629 129.815 118.498 130.43 118.506 131.15C118.514 131.856 118.659 132.467 118.941 132.986C119.223 133.488 119.603 133.875 120.081 134.146C120.56 134.416 121.098 134.548 121.696 134.541ZM132.421 141.826C131.777 141.834 131.14 141.741 130.509 141.549C129.878 141.357 129.361 141.087 128.959 140.739L130.241 138.171C130.519 138.413 130.836 138.601 131.19 138.735C131.56 138.869 131.921 138.934 132.273 138.93C132.779 138.924 133.176 138.797 133.465 138.548C133.769 138.315 134.041 137.921 134.28 137.366L134.906 135.841L135.178 135.447L139.496 124.725L142.946 124.686L137.506 137.882C137.118 138.883 136.667 139.67 136.152 140.243C135.653 140.816 135.09 141.221 134.464 141.458C133.853 141.695 133.172 141.818 132.421 141.826ZM134.49 137.64L128.825 124.846L132.527 124.804L136.922 135.105L134.49 137.64ZM159 136.879L155.645 131.052L158.523 129.294L163.255 136.831L159 136.879ZM153.543 132.249L153.51 129.374L157.811 129.325L157.843 132.2L153.543 132.249ZM158.912 131.107L155.527 130.777L159.021 124.504L162.816 124.461L158.912 131.107ZM146.765 137.018L142.533 137.066L147.07 129.424L149.988 131.116L146.765 137.018ZM154.654 136.928L151.112 136.968L150.972 124.595L154.514 124.555L154.654 136.928ZM152.117 132.265L147.839 132.313L147.806 129.438L152.084 129.39L152.117 132.265ZM146.723 131.245L142.669 124.689L146.464 124.646L150.076 130.839L146.723 131.245ZM172.301 136.729L172.274 134.314L172.038 133.787L171.989 129.464C171.98 128.697 171.735 128.102 171.255 127.678C170.79 127.254 170.075 127.047 169.109 127.058C168.45 127.066 167.799 127.18 167.158 127.402C166.532 127.609 165.998 127.891 165.557 128.248L164.241 125.756C164.91 125.273 165.719 124.896 166.666 124.625C167.614 124.353 168.579 124.212 169.56 124.201C171.446 124.179 172.915 124.607 173.968 125.485C175.02 126.362 175.557 127.744 175.579 129.63L175.659 136.691L172.301 136.729ZM168.531 136.955C167.565 136.966 166.735 136.815 166.042 136.5C165.348 136.171 164.814 135.725 164.44 135.161C164.065 134.598 163.874 133.964 163.866 133.259C163.858 132.523 164.027 131.877 164.373 131.321C164.735 130.765 165.305 130.329 166.083 130.014C166.862 129.683 167.88 129.51 169.137 129.496L172.426 129.459L172.449 131.552L169.551 131.584C168.708 131.594 168.127 131.738 167.808 132.018C167.505 132.298 167.355 132.644 167.36 133.058C167.365 133.518 167.546 133.884 167.901 134.156C168.272 134.413 168.772 134.537 169.401 134.53C169.999 134.523 170.534 134.379 171.006 134.098C171.478 133.801 171.818 133.376 172.027 132.821L172.597 134.471C172.346 135.271 171.877 135.882 171.192 136.304C170.507 136.726 169.62 136.943 168.531 136.955ZM178.775 136.655L178.635 124.282L182.2 124.242L182.283 131.601L188.226 124.173L191.514 124.136L191.654 136.509L188.09 136.55L188.006 129.19L182.087 136.618L178.775 136.655ZM184.83 122.878C183.48 122.893 182.465 122.613 181.784 122.038C181.103 121.448 180.747 120.555 180.719 119.359L183.064 119.333C183.086 119.854 183.236 120.266 183.515 120.57C183.795 120.873 184.218 121.022 184.786 121.015C185.338 121.009 185.757 120.851 186.045 120.541C186.348 120.231 186.497 119.815 186.491 119.294L188.883 119.267C188.897 120.463 188.562 121.363 187.879 121.969C187.195 122.56 186.179 122.863 184.83 122.878ZM209.359 131.571C208.857 131.852 208.3 132.081 207.688 132.257C207.077 132.432 206.403 132.524 205.667 132.532C204.042 132.551 202.788 132.197 201.906 131.471C201.023 130.73 200.573 129.546 200.555 127.921L200.511 124.034L204.098 123.994L204.14 127.65C204.148 128.417 204.354 128.967 204.756 129.3C205.159 129.617 205.72 129.772 206.441 129.764C206.962 129.758 207.46 129.691 207.934 129.563C208.423 129.434 208.889 129.253 209.331 129.018L209.359 131.571ZM209.16 136.311L209.02 123.938L212.608 123.897L212.748 136.271L209.16 136.311ZM222.244 136.347C220.833 136.363 219.588 136.101 218.508 135.561C217.444 135.021 216.615 134.279 216.022 133.335C215.428 132.376 215.125 131.283 215.111 130.056C215.097 128.814 215.368 127.715 215.925 126.758C216.496 125.785 217.277 125.025 218.268 124.477C219.258 123.914 220.382 123.625 221.639 123.611C222.851 123.597 223.942 123.846 224.914 124.356C225.901 124.851 226.684 125.578 227.262 126.538C227.84 127.482 228.136 128.621 228.152 129.955C228.153 130.093 228.147 130.254 228.134 130.438C228.121 130.607 228.107 130.768 228.093 130.921L218.043 131.035L218.019 128.942L226.184 128.85L224.811 129.486C224.804 128.843 224.667 128.284 224.401 127.812C224.135 127.34 223.771 126.976 223.308 126.72C222.845 126.45 222.306 126.318 221.693 126.325C221.08 126.332 220.537 126.476 220.065 126.757C219.608 127.023 219.252 127.403 218.997 127.896C218.741 128.374 218.617 128.943 218.625 129.603L218.631 130.154C218.639 130.829 218.791 131.425 219.088 131.943C219.401 132.446 219.827 132.832 220.367 133.102C220.922 133.356 221.567 133.479 222.303 133.471C222.962 133.464 223.536 133.357 224.024 133.153C224.528 132.948 224.985 132.643 225.394 132.24L227.327 134.288C226.767 134.939 226.059 135.445 225.205 135.807C224.35 136.154 223.363 136.334 222.244 136.347ZM239.734 135.965L235.527 130.147L238.429 128.389L243.965 135.917L239.734 135.965ZM230.971 136.064L230.831 123.691L234.419 123.65L234.559 136.024L230.971 136.064ZM233.448 131.344L233.415 128.469L237.739 128.42L237.772 131.295L233.448 131.344ZM238.794 130.202L235.432 129.872L239.709 123.59L243.526 123.547L238.794 130.202ZM250.455 130.484L250.429 128.253L273.428 127.993L273.453 130.224L250.455 130.484ZM78.1253 160.796L77.9851 148.423L90.2893 148.284L90.4295 160.657L86.8417 160.698L86.7258 150.463L87.5399 151.259L80.7783 151.336L81.5741 150.522L81.69 160.756L78.1253 160.796ZM99.6671 160.737C98.3485 160.751 97.1724 160.489 96.1389 159.948C95.1207 159.408 94.3073 158.666 93.6986 157.722C93.105 156.763 92.8013 155.67 92.7874 154.443C92.7733 153.201 93.0522 152.102 93.6241 151.144C94.2111 150.172 95.0075 149.411 96.0134 148.863C97.0344 148.3 98.2042 148.01 99.5228 147.995C100.826 147.981 101.994 148.243 103.028 148.784C104.061 149.309 104.875 150.043 105.468 150.987C106.061 151.931 106.365 153.032 106.379 154.289C106.393 155.516 106.114 156.615 105.543 157.588C104.971 158.545 104.174 159.305 103.153 159.869C102.132 160.433 100.97 160.722 99.6671 160.737ZM99.6337 157.793C100.232 157.786 100.767 157.642 101.239 157.361C101.711 157.079 102.082 156.684 102.353 156.175C102.623 155.65 102.754 155.036 102.746 154.33C102.738 153.61 102.593 152.998 102.311 152.495C102.029 151.992 101.649 151.606 101.171 151.335C100.692 151.064 100.154 150.932 99.5561 150.939C98.9582 150.946 98.4231 151.09 97.9509 151.371C97.4787 151.653 97.0999 152.048 96.8143 152.557C96.544 153.066 96.413 153.681 96.4211 154.402C96.4291 155.107 96.5741 155.719 96.8559 156.237C97.153 156.74 97.5407 157.126 98.0191 157.397C98.4976 157.668 99.0358 157.8 99.6337 157.793ZM107.173 160.445L107.324 157.499C107.416 157.513 107.508 157.527 107.601 157.542C107.693 157.54 107.777 157.54 107.854 157.539C108.283 157.534 108.619 157.407 108.861 157.159C109.104 156.911 109.284 156.579 109.402 156.164C109.52 155.733 109.599 155.249 109.639 154.712C109.694 154.175 109.734 153.615 109.758 153.032L109.885 148.062L120.465 147.942L120.605 160.315L117.017 160.356L116.9 150.053L117.715 150.918L112.288 150.979L113.036 150.05L112.91 153.157C112.877 154.262 112.796 155.275 112.669 156.196C112.556 157.117 112.358 157.917 112.075 158.595C111.791 159.258 111.406 159.776 110.919 160.149C110.433 160.507 109.806 160.691 109.039 160.699C108.763 160.703 108.472 160.683 108.165 160.64C107.857 160.598 107.527 160.533 107.173 160.445ZM125.786 164.903C125.142 164.91 124.505 164.818 123.874 164.626C123.243 164.433 122.727 164.163 122.324 163.815L123.606 161.248C123.885 161.49 124.201 161.678 124.555 161.812C124.925 161.946 125.286 162.011 125.639 162.007C126.145 162.001 126.542 161.874 126.83 161.625C127.134 161.392 127.406 160.997 127.645 160.443L128.272 158.918L128.543 158.523L132.861 147.802L136.311 147.763L130.871 160.958C130.484 161.959 130.033 162.747 129.518 163.32C129.018 163.893 128.455 164.298 127.829 164.535C127.219 164.772 126.538 164.895 125.786 164.903ZM127.855 160.716L122.19 147.923L125.893 147.881L130.288 158.182L127.855 160.716ZM145.925 155.29C145.422 155.572 144.865 155.801 144.253 155.976C143.642 156.152 142.968 156.244 142.232 156.252C140.607 156.271 139.353 155.917 138.471 155.191C137.589 154.449 137.138 153.266 137.12 151.641L137.076 147.754L140.664 147.713L140.705 151.37C140.714 152.137 140.919 152.687 141.322 153.019C141.724 153.337 142.286 153.491 143.006 153.483C143.527 153.477 144.025 153.41 144.499 153.282C144.988 153.154 145.454 152.973 145.896 152.738L145.925 155.29ZM145.725 160.031L145.585 147.658L149.173 147.617L149.313 159.99L145.725 160.031ZM160.164 159.867L160.136 157.453L159.9 156.926L159.851 152.603C159.843 151.836 159.598 151.241 159.118 150.817C158.653 150.393 157.938 150.186 156.972 150.197C156.313 150.204 155.662 150.319 155.021 150.541C154.394 150.748 153.861 151.03 153.42 151.387L152.104 148.895C152.773 148.412 153.582 148.035 154.529 147.763C155.477 147.492 156.441 147.351 157.423 147.34C159.309 147.318 160.778 147.746 161.83 148.624C162.883 149.501 163.42 150.883 163.442 152.769L163.521 159.829L160.164 159.867ZM156.394 160.094C155.428 160.105 154.598 159.953 153.905 159.639C153.211 159.31 152.677 158.864 152.302 158.3C151.928 157.737 151.737 157.103 151.729 156.398C151.721 155.662 151.89 155.016 152.236 154.46C152.598 153.904 153.168 153.468 153.946 153.152C154.725 152.822 155.742 152.649 157 152.635L160.288 152.598L160.312 154.69L157.414 154.723C156.571 154.733 155.99 154.877 155.671 155.157C155.368 155.436 155.218 155.783 155.223 156.197C155.228 156.657 155.409 157.023 155.764 157.295C156.135 157.552 156.635 157.676 157.264 157.669C157.862 157.662 158.397 157.518 158.869 157.237C159.341 156.94 159.681 156.515 159.889 155.96L160.46 157.61C160.209 158.41 159.74 159.021 159.055 159.443C158.37 159.865 157.483 160.082 156.394 160.094ZM166.638 159.794L166.498 147.421L170.063 147.381L170.146 154.74L176.088 147.312L179.377 147.275L179.517 159.648L175.953 159.689L175.869 152.329L169.95 159.757L166.638 159.794ZM172.693 146.017C171.343 146.032 170.328 145.752 169.647 145.177C168.965 144.587 168.61 143.694 168.581 142.498L170.927 142.471C170.948 142.993 171.099 143.405 171.378 143.708C171.658 144.012 172.081 144.161 172.648 144.154C173.2 144.148 173.62 143.99 173.908 143.68C174.211 143.37 174.36 142.954 174.354 142.433L176.746 142.406C176.759 143.601 176.425 144.502 175.741 145.108C175.058 145.699 174.042 146.001 172.693 146.017ZM204.359 159.367L201.004 153.54L203.883 151.782L208.614 159.319L204.359 159.367ZM198.902 154.736L198.869 151.862L203.17 151.813L203.202 154.688L198.902 154.736ZM204.271 153.595L200.886 153.265L204.38 146.992L208.175 146.949L204.271 153.595ZM192.124 159.506L187.893 159.553L192.429 151.912L195.347 153.604L192.124 159.506ZM200.013 159.416L196.471 159.456L196.331 147.083L199.873 147.043L200.013 159.416ZM197.476 154.753L193.198 154.801L193.166 151.926L197.443 151.878L197.476 154.753ZM192.082 153.733L188.028 147.177L191.823 147.134L195.436 153.327L192.082 153.733ZM210.479 159.298L210.339 146.924L213.904 146.884L213.987 154.244L219.929 146.816L223.218 146.779L223.358 159.152L219.793 159.192L219.71 151.833L213.791 159.26L210.479 159.298ZM230.883 159.297C229.933 159.307 228.981 159.218 228.028 159.03C227.09 158.841 226.221 158.552 225.419 158.162L226.357 155.645C226.989 155.944 227.674 156.174 228.411 156.334C229.164 156.479 229.924 156.547 230.691 156.539C231.243 156.532 231.718 156.473 232.115 156.361C232.528 156.234 232.84 156.062 233.052 155.845C233.264 155.628 233.369 155.366 233.365 155.059C233.361 154.661 233.189 154.364 232.849 154.168C232.509 153.957 232.018 153.855 231.374 153.863L228.844 153.891L228.819 151.661L231.049 151.635C231.463 151.631 231.816 151.581 232.106 151.485C232.396 151.39 232.609 151.257 232.745 151.087C232.897 150.901 232.971 150.686 232.968 150.44C232.965 150.18 232.871 149.959 232.684 149.777C232.498 149.595 232.229 149.46 231.875 149.372C231.521 149.268 231.076 149.22 230.539 149.226C229.926 149.233 229.29 149.317 228.633 149.477C227.975 149.623 227.303 149.838 226.616 150.121L225.714 147.647C226.523 147.301 227.325 147.023 228.12 146.815C228.915 146.607 229.703 146.491 230.485 146.466C231.634 146.423 232.671 146.534 233.594 146.799C234.517 147.065 235.242 147.455 235.769 147.971C236.312 148.486 236.587 149.119 236.596 149.87C236.603 150.468 236.425 151.007 236.062 151.486C235.715 151.966 235.228 152.347 234.603 152.63C233.977 152.898 233.273 153.036 232.491 153.045L232.575 152.331C233.94 152.316 235.016 152.579 235.805 153.123C236.593 153.65 236.992 154.382 237.002 155.317C237.012 156.114 236.743 156.815 236.198 157.419C235.668 158.008 234.937 158.469 234.006 158.801C233.089 159.118 232.048 159.283 230.883 159.297ZM239.609 158.968L239.469 146.595L243.034 146.554L243.088 151.384L248.47 151.323L248.415 146.493L252.003 146.453L252.143 158.826L248.555 158.866L248.503 154.244L243.121 154.305L243.174 158.927L239.609 158.968ZM255.578 158.787L255.438 146.414L259.002 146.373L259.086 153.733L265.028 146.305L268.317 146.268L268.457 158.641L264.892 158.681L264.809 151.322L258.89 158.749L255.578 158.787ZM138.678 183.112L138.538 170.739L144.863 170.667C146.411 170.65 147.626 170.92 148.506 171.477C149.386 172.019 149.832 172.796 149.844 173.808C149.855 174.82 149.45 175.622 148.629 176.214C147.823 176.791 146.745 177.087 145.396 177.102L145.754 176.27C147.257 176.253 148.379 176.516 149.121 177.06C149.879 177.603 150.264 178.404 150.276 179.462C150.288 180.55 149.884 181.414 149.063 182.052C148.242 182.69 146.981 183.018 145.279 183.037L138.678 183.112ZM141.939 180.637L144.952 180.603C145.611 180.596 146.101 180.483 146.42 180.264C146.755 180.031 146.92 179.684 146.915 179.224C146.909 178.748 146.752 178.405 146.443 178.194C146.134 177.967 145.649 177.858 144.99 177.865L141.908 177.9L141.939 180.637ZM141.884 175.784L144.598 175.754C145.227 175.747 145.693 175.626 145.997 175.393C146.317 175.159 146.474 174.828 146.469 174.398C146.464 173.954 146.299 173.626 145.975 173.415C145.666 173.204 145.197 173.102 144.568 173.109L141.854 173.14L141.884 175.784ZM159.498 182.876L159.358 170.503L162.923 170.463L163.006 177.822L168.948 170.395L172.237 170.357L172.377 182.731L168.813 182.771L168.729 175.411L162.81 182.839L159.498 182.876ZM175.826 182.692L175.686 170.318L185.598 170.206L185.632 173.15L178.479 173.231L179.275 172.44L179.391 182.651L175.826 182.692ZM194.933 182.659C193.89 182.671 192.975 182.451 192.188 182C191.401 181.549 190.78 180.858 190.324 179.928C189.884 178.982 189.656 177.789 189.64 176.348C189.623 174.891 189.817 173.693 190.22 172.753C190.623 171.813 191.213 171.109 191.99 170.64C192.767 170.171 193.7 169.93 194.788 169.918C195.953 169.905 196.999 170.161 197.925 170.688C198.866 171.198 199.611 171.926 200.158 172.87C200.721 173.815 201.009 174.931 201.024 176.219C201.039 177.522 200.776 178.652 200.234 179.609C199.708 180.566 198.981 181.31 198.051 181.842C197.137 182.374 196.098 182.646 194.933 182.659ZM187.667 187.02L187.477 170.185L190.904 170.146L190.932 172.676L190.905 176.356L191.176 180.011L191.255 186.979L187.667 187.02ZM194.278 179.722C194.876 179.716 195.404 179.572 195.86 179.29C196.333 179.009 196.704 178.614 196.974 178.105C197.259 177.58 197.398 176.965 197.39 176.26C197.382 175.539 197.229 174.928 196.932 174.425C196.651 173.922 196.271 173.535 195.792 173.265C195.329 172.994 194.799 172.862 194.201 172.869C193.603 172.876 193.068 173.02 192.595 173.301C192.123 173.582 191.752 173.978 191.482 174.487C191.212 174.996 191.08 175.611 191.089 176.331C191.097 177.037 191.242 177.648 191.523 178.167C191.805 178.669 192.185 179.056 192.664 179.327C193.142 179.597 193.68 179.729 194.278 179.722ZM209.659 182.492C208.249 182.508 207.004 182.246 205.924 181.707C204.86 181.167 204.031 180.425 203.438 179.481C202.844 178.521 202.541 177.428 202.527 176.202C202.513 174.96 202.784 173.86 203.34 172.903C203.912 171.931 204.693 171.171 205.684 170.623C206.674 170.059 207.798 169.771 209.055 169.756C210.266 169.743 211.358 169.991 212.33 170.501C213.317 170.996 214.099 171.723 214.678 172.683C215.256 173.627 215.552 174.766 215.567 176.1C215.569 176.238 215.563 176.399 215.55 176.583C215.536 176.752 215.523 176.913 215.509 177.067L205.459 177.181L205.435 175.088L213.6 174.995L212.227 175.632C212.219 174.988 212.083 174.43 211.817 173.957C211.551 173.485 211.186 173.121 210.723 172.866C210.26 172.595 209.722 172.463 209.109 172.47C208.495 172.477 207.953 172.621 207.481 172.902C207.024 173.168 206.667 173.548 206.412 174.042C206.157 174.52 206.033 175.089 206.041 175.748L206.047 176.3C206.055 176.975 206.207 177.571 206.504 178.089C206.817 178.591 207.243 178.978 207.782 179.247C208.337 179.502 208.983 179.625 209.719 179.617C210.378 179.609 210.952 179.503 211.44 179.298C211.944 179.093 212.401 178.789 212.81 178.386L214.742 180.434C214.182 181.084 213.475 181.591 212.62 181.953C211.766 182.3 210.779 182.48 209.659 182.492Z" fill="white"/>
<path d="M105.062 252.532C103.756 252.566 102.436 252.432 101.102 252.131C99.787 251.81 98.5597 251.292 97.4206 250.575L99.4071 247.274C100.224 247.812 101.121 248.2 102.098 248.436C103.094 248.671 104.068 248.776 105.02 248.752C105.71 248.734 106.371 248.651 107.002 248.504C107.633 248.357 108.188 248.146 108.666 247.872C109.144 247.598 109.518 247.271 109.789 246.89C110.059 246.51 110.188 246.086 110.176 245.62C110.16 245.004 109.905 244.544 109.411 244.239C108.917 243.916 108.185 243.767 107.215 243.793L102.373 243.919L102.955 240.487L107.49 240.368C108.161 240.351 108.737 240.233 109.217 240.015C109.715 239.797 110.091 239.516 110.343 239.173C110.614 238.811 110.743 238.397 110.731 237.931C110.719 237.464 110.55 237.077 110.225 236.768C109.917 236.44 109.491 236.208 108.946 236.073C108.419 235.918 107.81 235.85 107.12 235.868C106.318 235.889 105.444 236.024 104.498 236.273C103.552 236.522 102.6 236.901 101.642 237.412L100.879 233.903C102.022 233.35 103.178 232.928 104.347 232.636C105.516 232.344 106.641 232.184 107.723 232.155C109.142 232.118 110.425 232.29 111.574 232.671C112.723 233.033 113.643 233.588 114.334 234.336C115.044 235.064 115.413 235.951 115.44 236.996C115.466 237.985 115.191 238.888 114.615 239.706C114.039 240.524 113.243 241.18 112.229 241.673C111.215 242.166 110.074 242.429 108.805 242.463L109.086 241.447C110.187 241.418 111.153 241.589 111.985 241.959C112.815 242.311 113.473 242.826 113.958 243.504C114.442 244.164 114.696 244.951 114.72 245.865C114.745 246.836 114.497 247.729 113.977 248.546C113.457 249.344 112.746 250.034 111.847 250.618C110.946 251.183 109.913 251.639 108.745 251.987C107.577 252.317 106.35 252.498 105.062 252.532ZM113.109 251.986L125.249 232.062L129.756 231.944L135.082 251.412L130.547 251.53L126.287 234.276L128.079 234.229L117.951 251.859L113.109 251.986ZM118.234 247.65L119.991 244.159L130.096 243.895L130.717 247.324L118.234 247.65ZM135.709 251.395L139.116 231.7L152.915 231.34L152.256 235.054L141.843 235.326L143.048 234.258L140.187 251.279L135.709 251.395ZM150.216 251.017L153.623 231.321L161.544 231.114C163.989 231.05 165.888 231.542 167.241 232.59C168.612 233.619 169.323 235.094 169.373 237.016C169.416 238.658 169.071 240.105 168.338 241.356C167.605 242.589 166.528 243.551 165.108 244.242C163.707 244.932 162.027 245.302 160.068 245.354L153.714 245.52L156.067 243.385L154.778 250.898L150.216 251.017ZM155.969 243.92L154.317 241.807L160.167 241.654C161.66 241.615 162.808 241.249 163.611 240.556C164.433 239.843 164.827 238.834 164.793 237.528C164.768 236.576 164.433 235.885 163.786 235.453C163.14 235.003 162.238 234.793 161.081 234.824L155.567 234.968L157.916 232.693L155.969 243.92ZM169.252 246.766C169.93 246.973 170.548 247.059 171.108 247.026C171.686 246.992 172.233 246.838 172.748 246.563C173.282 246.269 173.775 245.836 174.227 245.264L175.425 243.944L175.916 243.455L184.681 230.51L189.216 230.392L178.204 246.337C177.233 247.744 176.178 248.817 175.039 249.556C173.901 250.296 172.716 250.709 171.486 250.797C170.256 250.886 169.037 250.675 167.829 250.165L169.252 246.766ZM175.427 247.249L169.371 230.91L174.101 230.786L178.363 243.84L175.427 247.249ZM192.267 250.255C190.961 250.289 189.641 250.155 188.307 249.854C186.992 249.534 185.764 249.015 184.625 248.298L186.612 244.997C187.429 245.536 188.326 245.923 189.303 246.159C190.299 246.394 191.273 246.5 192.224 246.475C192.915 246.457 193.575 246.374 194.206 246.227C194.837 246.08 195.392 245.869 195.871 245.595C196.349 245.321 196.723 244.994 196.993 244.614C197.263 244.233 197.392 243.81 197.38 243.343C197.364 242.727 197.109 242.267 196.616 241.963C196.122 241.639 195.39 241.49 194.42 241.516L189.577 241.642L190.16 238.21L194.694 238.091C195.366 238.074 195.942 237.956 196.422 237.738C196.92 237.52 197.296 237.239 197.548 236.897C197.819 236.535 197.948 236.121 197.936 235.654C197.924 235.187 197.755 234.8 197.429 234.491C197.122 234.163 196.696 233.931 196.151 233.796C195.624 233.642 195.015 233.574 194.325 233.592C193.522 233.612 192.648 233.747 191.702 233.996C190.757 234.245 189.805 234.625 188.847 235.135L188.083 231.626C189.227 231.073 190.383 230.651 191.551 230.359C192.72 230.067 193.846 229.907 194.928 229.879C196.346 229.842 197.63 230.013 198.779 230.394C199.927 230.756 200.847 231.311 201.539 232.059C202.249 232.787 202.618 233.674 202.645 234.719C202.671 235.708 202.396 236.611 201.819 237.429C201.243 238.247 200.448 238.903 199.434 239.396C198.42 239.889 197.278 240.153 196.009 240.186L196.291 239.17C197.392 239.141 198.358 239.312 199.189 239.683C200.02 240.034 200.678 240.549 201.162 241.228C201.646 241.887 201.9 242.674 201.924 243.589C201.95 244.559 201.702 245.452 201.182 246.269C200.661 247.067 199.951 247.758 199.051 248.341C198.151 248.906 197.117 249.363 195.95 249.711C194.782 250.04 193.554 250.221 192.267 250.255ZM202.553 249.65L205.96 229.955L210.439 229.838L208.169 242.669L219.731 229.595L224.042 229.483L220.635 249.178L216.156 249.295L218.455 236.491L206.864 249.538L202.553 249.65ZM227.74 248.993L230.629 231.971L231.468 232.986L224.274 233.174L224.906 229.46L241.896 229.016L241.265 232.73L233.903 232.922L235.108 231.855L232.219 248.876L227.74 248.993ZM250.945 235.222C255.293 235.109 257.513 236.834 257.606 240.398C257.647 241.966 257.291 243.347 256.538 244.544C255.785 245.74 254.69 246.683 253.251 247.374C251.831 248.046 250.15 248.408 248.21 248.458L239.365 248.689L242.772 228.994L247.25 228.877L246.131 235.348L250.945 235.222ZM248.514 245.089C249.428 245.065 250.217 244.886 250.881 244.551C251.562 244.197 252.082 243.717 252.439 243.11C252.797 242.503 252.966 241.808 252.945 241.024C252.922 240.147 252.654 239.519 252.14 239.14C251.644 238.761 250.856 238.586 249.773 238.614L245.547 238.724L244.427 245.196L248.514 245.089Z" fill="#EA2C86"/>
<defs>
<filter id="filter0_f_174005_3443" x="47.8408" y="46.3972" width="273.434" height="279.375" filterUnits="userSpaceOnUse" color-interpolation-filters="sRGB">
<feFlood flood-opacity="0" result="BackgroundImageFix"/>
<feBlend mode="normal" in="SourceGraphic" in2="BackgroundImageFix" result="shape"/>
<feGaussianBlur stdDeviation="3.60785" result="effect1_foregroundBlur_174005_3443"/>
</filter>
</defs>
</svg>
