<svg width="355" height="354" viewBox="0 0 355 354" fill="none" xmlns="http://www.w3.org/2000/svg">
<g style="mix-blend-mode:multiply" filter="url(#filter0_f_174005_3443)">
<path d="M314.059 300.774L70.6429 318.556C66.5616 235.403 63.5375 153.883 55.0565 71.0336L293.524 53.6129C297.934 137.589 306.323 218.717 314.059 300.774Z" fill="#525252" fill-opacity="0.35"/>
</g>
<path d="M302.633 299.944L53.6934 301.156C55.3203 218.814 56.1974 136.492 53.326 54.1718L300.613 52.9681C299.263 136.127 300.464 218.455 302.633 299.944Z" fill="#EA2C86"/>
<mask id="mask0_174005_3443" style="mask-type:alpha" maskUnits="userSpaceOnUse" x="53" y="52" width="250" height="250">
<path d="M302.633 299.944L53.6934 301.156C55.3203 218.814 56.1974 136.492 53.326 54.1719L300.613 52.9683C299.263 136.127 300.464 218.456 302.633 299.944Z" fill="#EA2C86"/>
</mask>
<g mask="url(#mask0_174005_3443)">
<path d="M299.945 53.1045L54.0679 54.0397L54.2387 98.9447L300.116 98.0094L299.945 53.1045Z" fill="#DA1D76"/>
</g>
<mask id="mask1_174005_3443" style="mask-type:luminance" maskUnits="userSpaceOnUse" x="73" y="210" width="219" height="57">
<path d="M291.704 210.751H73.103V266.672H291.704V210.751Z" fill="white"/>
</mask>
<g mask="url(#mask1_174005_3443)">
<path d="M76.6542 228.688C87.4536 228.444 98.253 228.327 109.052 228.141C102.659 228.916 96.2724 229.743 89.8912 230.623C88.4087 230.833 87.6118 231.8 87.3716 232.913C86.6333 232.902 85.8832 232.884 85.139 232.872C82.3674 232.82 81.172 235.705 81.9514 237.587C81.5646 237.587 81.1837 237.587 80.797 237.587C76.9999 237.616 76.244 243.514 80.0997 243.496C82.2443 243.484 84.3831 243.519 86.5219 243.514C86.0942 244.126 85.8656 244.842 85.8656 245.571C84.3245 245.681 82.7834 245.746 81.2423 245.862C77.1464 246.159 78.125 252.436 82.2092 252.138C83.0764 252.074 83.9437 252.022 84.8168 251.964C84.137 253.863 85.4262 256.666 88.1744 256.544C89.8737 256.468 91.5847 256.433 93.284 256.363C91.7605 258.129 93.0262 261.882 96.1963 261.731C97.3916 261.678 98.5929 261.643 99.7824 261.591C98.6866 263.438 99.9816 266.754 102.964 266.661C146.894 265.262 190.848 264.522 234.807 264.458C240.854 264.446 246.902 264.446 252.949 264.47C259.142 264.481 265.776 265.163 271.899 264.19C274.782 263.729 274.882 260.087 272.655 258.939C273.598 258.869 274.542 258.834 275.473 258.712C278.643 258.298 278.374 253.782 275.38 253.281C275.063 253.228 274.747 253.217 274.436 253.17C275.579 252.366 275.837 250.874 275.245 249.702C275.673 249.714 276.1 249.737 276.522 249.749C277.723 249.772 278.573 249.137 278.983 248.31C280.718 248.31 282.446 248.321 284.169 248.298C287.134 248.246 286.952 243.444 284.081 243.158C282.376 242.989 280.659 242.931 278.954 242.797C279.657 242.686 280.372 242.581 281.069 242.412C283.788 241.736 283.917 237.902 280.976 237.418C279.569 237.185 278.151 237.092 276.721 237.045C276.71 236.439 276.505 235.85 276.1 235.39C280.56 235.303 285.019 235.238 289.478 235.035C292.472 234.9 292.39 229.889 289.384 229.755C282.927 229.475 276.458 229.358 269.995 229.306C269.801 228.583 269.344 227.96 268.53 227.744C267.112 227.36 265.647 227.132 264.182 226.87C266.432 226.87 268.676 226.888 270.92 226.87C274.155 226.841 274.94 222.016 271.53 221.748C271.495 221.748 271.459 221.748 271.418 221.748C271.043 221.095 270.463 220.553 269.438 220.413C265.623 219.929 261.797 219.562 257.959 219.242C257.801 218.012 257.015 216.87 255.562 216.777C249.228 216.375 242.876 216.276 236.524 216.217C236.987 214.603 236.225 212.558 234.204 212.459C222.197 211.882 210.062 212.604 198.049 212.82C186.271 213.035 174.493 213.251 162.715 213.473C158.526 213.554 154.336 213.624 150.146 213.706C144.058 213.426 137.97 213.181 131.882 212.855C120.18 212.225 108.472 211.526 96.7588 210.757C94.2684 210.594 93.032 212.872 93.3602 214.737C92.5457 214.755 91.7429 214.766 90.9284 214.784C89.4635 214.813 88.6724 215.64 88.4263 216.689C84.4242 216.847 80.4161 216.987 76.414 217.173C73.3376 217.325 73.1267 220.891 74.9315 222.587C71.8082 223.443 72.8864 228.776 76.6542 228.694V228.688Z" fill="white"/>
</g>
<path d="M111.454 131.414C110.66 131.745 109.896 131.999 109.162 132.176C108.428 132.338 107.724 132.423 107.049 132.43C104.887 132.455 103.225 131.96 102.064 130.946C100.902 129.916 100.31 128.428 100.288 126.48L100.231 121.444L103.911 121.402L103.963 126.025C103.976 127.129 104.284 127.961 104.888 128.521C105.493 129.067 106.347 129.333 107.451 129.32C108.156 129.312 108.837 129.228 109.495 129.067C110.152 128.891 110.763 128.647 111.327 128.333L111.454 131.414ZM110.993 137.423L110.81 121.324L114.49 121.282L114.672 137.381L110.993 137.423ZM124.449 137.454C123.039 137.47 121.794 137.208 120.714 136.669C119.65 136.129 118.821 135.387 118.228 134.443C117.634 133.483 117.331 132.39 117.317 131.164C117.303 129.922 117.574 128.822 118.13 127.865C118.702 126.893 119.483 126.133 120.474 125.585C121.464 125.021 122.588 124.733 123.845 124.718C125.056 124.705 126.148 124.953 127.12 125.463C128.107 125.958 128.889 126.685 129.468 127.645C130.046 128.589 130.342 129.728 130.357 131.062C130.359 131.2 130.353 131.361 130.34 131.545C130.326 131.714 130.313 131.875 130.299 132.029L120.249 132.143L120.225 130.05L128.39 129.957L127.017 130.594C127.01 129.95 126.873 129.392 126.607 128.919C126.341 128.447 125.976 128.083 125.513 127.828C125.05 127.557 124.512 127.425 123.899 127.432C123.286 127.439 122.743 127.583 122.271 127.865C121.814 128.13 121.458 128.51 121.203 129.004C120.947 129.482 120.823 130.051 120.831 130.71L120.837 131.262C120.845 131.937 120.997 132.533 121.294 133.051C121.607 133.553 122.033 133.94 122.573 134.209C123.127 134.464 123.773 134.587 124.509 134.579C125.168 134.571 125.742 134.465 126.23 134.26C126.734 134.055 127.191 133.751 127.6 133.348L129.532 135.396C128.972 136.046 128.265 136.553 127.411 136.915C126.556 137.262 125.569 137.442 124.449 137.454ZM141.94 137.072L137.733 131.255L140.635 129.497L146.171 137.024L141.94 137.072ZM133.177 137.172L133.037 124.798L136.625 124.758L136.765 137.131L133.177 137.172ZM135.654 132.451L135.621 129.576L139.945 129.527L139.978 132.402L135.654 132.451ZM141 131.31L137.638 130.98L141.914 124.698L145.732 124.655L141 131.31ZM150.466 136.976L150.349 126.718L151.164 127.537L146.173 127.594L146.14 124.65L158.076 124.515L158.109 127.459L153.119 127.515L153.914 126.678L154.03 136.935L150.466 136.976ZM160.105 136.867L159.965 124.493L163.553 124.453L163.693 136.826L160.105 136.867ZM161.74 122.748C161.08 122.756 160.542 122.57 160.123 122.192C159.705 121.813 159.493 121.34 159.486 120.773C159.48 120.205 159.681 119.728 160.091 119.34C160.501 118.952 161.035 118.754 161.694 118.747C162.354 118.739 162.892 118.917 163.311 119.28C163.729 119.628 163.941 120.086 163.947 120.653C163.954 121.251 163.753 121.752 163.343 122.155C162.949 122.543 162.414 122.741 161.74 122.748ZM188.529 136.545L185.174 130.717L188.052 128.96L192.784 136.497L188.529 136.545ZM183.071 131.914L183.039 129.039L187.34 128.991L187.372 131.866L183.071 131.914ZM188.441 130.772L185.056 130.443L188.55 124.17L192.345 124.127L188.441 130.772ZM176.294 136.683L172.062 136.731L176.599 129.089L179.516 130.781L176.294 136.683ZM184.182 136.594L180.641 136.634L180.501 124.261L184.042 124.221L184.182 136.594ZM181.645 131.93L177.368 131.979L177.335 129.104L181.613 129.056L181.645 131.93ZM176.252 130.91L172.198 124.355L175.993 124.312L179.605 130.504L176.252 130.91ZM198.18 138.115L192.11 124.129L195.836 124.087L200.281 134.687L198.441 134.707L202.805 124.008L206.232 123.97L200.411 138.089L198.18 138.115ZM201.063 134.747L201.133 140.864L197.545 140.905L197.475 134.787L201.063 134.747ZM216.887 136.224L212.681 130.406L215.582 128.648L221.119 136.176L216.887 136.224ZM208.124 136.323L207.984 123.95L211.572 123.909L211.712 136.282L208.124 136.323ZM210.601 131.603L210.569 128.728L214.892 128.679L214.925 131.554L210.601 131.603ZM215.948 130.461L212.586 130.131L216.862 123.849L220.679 123.806L215.948 130.461ZM225.413 136.127L225.297 125.87L226.111 126.689L221.12 126.745L221.087 123.801L233.023 123.666L233.057 126.61L228.066 126.666L228.861 125.829L228.978 136.087L225.413 136.127ZM240.61 136.139C239.199 136.155 237.954 135.893 236.875 135.353C235.811 134.813 234.982 134.071 234.388 133.127C233.795 132.168 233.491 131.075 233.477 129.848C233.463 128.606 233.734 127.507 234.291 126.55C234.863 125.577 235.644 124.817 236.634 124.269C237.625 123.706 238.748 123.417 240.006 123.403C241.217 123.389 242.308 123.638 243.28 124.148C244.267 124.643 245.05 125.37 245.628 126.33C246.206 127.274 246.503 128.413 246.518 129.747C246.519 129.885 246.514 130.046 246.5 130.23C246.487 130.399 246.473 130.56 246.46 130.713L236.41 130.827L236.386 128.734L244.55 128.642L243.177 129.278C243.17 128.635 243.033 128.076 242.767 127.604C242.501 127.132 242.137 126.768 241.674 126.512C241.211 126.242 240.673 126.11 240.059 126.117C239.446 126.124 238.903 126.268 238.431 126.549C237.974 126.815 237.618 127.195 237.363 127.688C237.108 128.166 236.984 128.735 236.991 129.395L236.998 129.947C237.005 130.621 237.158 131.217 237.455 131.735C237.767 132.238 238.193 132.624 238.733 132.894C239.288 133.148 239.933 133.271 240.669 133.263C241.329 133.256 241.903 133.15 242.391 132.945C242.895 132.74 243.351 132.435 243.761 132.032L245.693 134.08C245.133 134.731 244.426 135.237 243.571 135.599C242.716 135.946 241.729 136.126 240.61 136.139ZM114.766 160.566C113.447 160.581 112.271 160.318 111.237 159.777C110.219 159.237 109.406 158.495 108.797 157.551C108.204 156.592 107.9 155.499 107.886 154.272C107.872 153.03 108.151 151.931 108.723 150.973C109.31 150.001 110.106 149.24 111.112 148.692C112.133 148.129 113.303 147.839 114.621 147.824C115.925 147.81 117.093 148.072 118.126 148.613C119.16 149.138 119.973 149.872 120.567 150.816C121.16 151.76 121.464 152.861 121.478 154.118C121.492 155.345 121.213 156.444 120.641 157.417C120.069 158.374 119.273 159.134 118.252 159.698C117.231 160.262 116.069 160.551 114.766 160.566ZM114.732 157.622C115.33 157.615 115.865 157.471 116.337 157.19C116.81 156.908 117.181 156.513 117.451 156.004C117.721 155.479 117.852 154.865 117.844 154.159C117.836 153.439 117.691 152.827 117.409 152.324C117.128 151.821 116.748 151.435 116.269 151.164C115.791 150.893 115.253 150.761 114.655 150.768C114.057 150.775 113.522 150.919 113.049 151.2C112.577 151.482 112.198 151.877 111.913 152.386C111.643 152.895 111.512 153.51 111.52 154.231C111.528 154.936 111.673 155.548 111.954 156.066C112.252 156.569 112.639 156.955 113.118 157.226C113.596 157.497 114.134 157.629 114.732 157.622ZM124.016 160.277L123.876 147.904L127.44 147.863L127.524 155.223L133.466 147.795L136.755 147.758L136.895 160.131L133.33 160.171L133.247 152.812L127.328 160.239L124.016 160.277ZM130.07 146.499C128.721 146.515 127.706 146.235 127.024 145.66C126.343 145.069 125.988 144.176 125.959 142.981L128.305 142.954C128.326 143.475 128.476 143.888 128.756 144.191C129.035 144.495 129.459 144.643 130.026 144.637C130.578 144.631 130.998 144.472 131.286 144.162C131.589 143.852 131.738 143.437 131.732 142.915L134.124 142.888C134.137 144.084 133.802 144.985 133.119 145.591C132.436 146.181 131.419 146.484 130.07 146.499ZM153.085 159.948L152.945 147.574L156.51 147.534L156.65 159.907L153.085 159.948ZM146.757 151.601C148.382 151.598 149.606 151.952 150.426 152.663C151.262 153.359 151.688 154.359 151.702 155.662C151.718 157.027 151.262 158.097 150.336 158.875C149.409 159.637 148.087 160.027 146.37 160.047L140.344 160.092L140.204 147.719L143.768 147.678L143.813 151.634L146.757 151.601ZM146.019 157.497C146.709 157.505 147.236 157.353 147.601 157.043C147.965 156.732 148.144 156.27 148.137 155.656C148.13 155.043 147.941 154.608 147.57 154.352C147.199 154.08 146.669 153.94 145.978 153.933L143.839 153.934L143.88 157.522L146.019 157.497ZM160.108 159.868L159.968 147.495L163.533 147.455L163.588 152.284L168.969 152.223L168.914 147.394L172.502 147.353L172.642 159.726L169.055 159.767L169.002 155.144L163.621 155.205L163.673 159.828L160.108 159.868ZM186.818 161.245L180.748 147.26L184.474 147.217L188.918 157.817L187.078 157.838L191.442 147.138L194.869 147.1L189.049 161.219L186.818 161.245ZM189.701 157.877L189.77 163.994L186.182 164.035L186.113 157.918L189.701 157.877ZM205.169 156.414L204.397 157.25L204.28 146.993L207.868 146.952L207.984 157.21L207.147 156.391L212.851 156.327L212.055 157.164L211.939 146.906L215.504 146.866L215.644 159.239L196.762 159.453L196.622 147.08L200.187 147.039L200.303 157.297L199.489 156.478L205.169 156.414ZM219.064 159.2L218.924 146.827L222.511 146.787L222.652 159.16L219.064 159.2ZM220.698 145.082C220.039 145.09 219.5 144.904 219.082 144.525C218.663 144.147 218.451 143.674 218.445 143.106C218.438 142.539 218.64 142.062 219.049 141.674C219.459 141.286 219.993 141.088 220.653 141.08C221.312 141.073 221.851 141.251 222.269 141.614C222.687 141.962 222.899 142.42 222.905 142.987C222.912 143.585 222.711 144.086 222.301 144.489C221.907 144.877 221.373 145.074 220.698 145.082ZM226.094 159.121L225.954 146.748L229.519 146.707L229.574 151.537L234.955 151.476L234.9 146.646L238.488 146.606L238.628 158.979L235.041 159.02L234.988 154.397L229.607 154.458L229.659 159.08L226.094 159.121ZM115.49 170.816C116.839 170.801 118.03 171.063 119.064 171.604C120.097 172.129 120.918 172.871 121.527 173.83C122.136 174.774 122.447 175.867 122.461 177.108C122.475 178.335 122.189 179.435 121.602 180.407C121.015 181.38 120.211 182.148 119.19 182.712C118.169 183.26 116.991 183.542 115.657 183.557C114.323 183.572 113.132 183.317 112.083 182.792C111.05 182.252 110.228 181.502 109.62 180.543C109.011 179.584 108.699 178.491 108.685 177.264C108.671 176.023 108.958 174.923 109.545 173.966C110.132 172.993 110.936 172.232 111.957 171.684C112.994 171.12 114.171 170.831 115.49 170.816ZM115.519 173.438C114.968 173.444 114.463 173.557 114.005 173.777C113.548 173.982 113.168 174.285 112.865 174.687C112.563 175.074 112.354 175.536 112.237 176.074L118.884 175.999C118.755 175.464 118.535 175.006 118.224 174.626C117.913 174.231 117.526 173.937 117.064 173.742C116.617 173.533 116.102 173.431 115.519 173.438ZM115.627 180.935C116.179 180.929 116.677 180.824 117.119 180.619C117.576 180.399 117.956 180.096 118.259 179.709C118.576 179.307 118.785 178.837 118.887 178.299L112.286 178.374C112.415 178.909 112.635 179.374 112.946 179.769C113.257 180.149 113.636 180.444 114.083 180.654C114.545 180.848 115.06 180.942 115.627 180.935ZM124.972 183.267L124.832 170.894L128.581 170.852L133.346 179.262L131.851 179.279L136.746 170.759L140.103 170.721L140.289 183.094L137.047 183.131L136.948 174.437L137.504 174.799L133.33 181.977L131.812 181.994L127.451 174.66L128.116 174.491L128.215 183.231L124.972 183.267ZM143.703 183.055L143.563 170.682L147.151 170.642L147.291 183.015L143.703 183.055ZM145.337 168.937C144.678 168.944 144.139 168.759 143.721 168.38C143.303 168.002 143.09 167.529 143.084 166.961C143.077 166.394 143.279 165.916 143.689 165.528C144.098 165.14 144.633 164.943 145.292 164.935C145.951 164.928 146.49 165.106 146.908 165.469C147.326 165.817 147.538 166.275 147.545 166.842C147.552 167.44 147.35 167.94 146.941 168.344C146.546 168.732 146.012 168.929 145.337 168.937ZM158.026 183.077C156.984 183.089 156.069 182.869 155.281 182.418C154.494 181.967 153.873 181.276 153.418 180.346C152.978 179.4 152.75 178.207 152.733 176.766C152.717 175.309 152.91 174.111 153.314 173.171C153.717 172.231 154.307 171.527 155.084 171.058C155.861 170.589 156.793 170.348 157.882 170.336C159.047 170.323 160.093 170.579 161.019 171.106C161.96 171.616 162.704 172.344 163.252 173.288C163.814 174.233 164.103 175.349 164.118 176.637C164.132 177.94 163.869 179.07 163.328 180.027C162.802 180.984 162.074 181.728 161.145 182.26C160.231 182.792 159.191 183.064 158.026 183.077ZM150.761 187.438L150.57 170.603L153.997 170.564L154.026 173.094L153.998 176.774L154.27 180.429L154.349 187.397L150.761 187.438ZM157.372 180.14C157.97 180.134 158.497 179.99 158.954 179.708C159.426 179.427 159.797 179.032 160.068 178.523C160.353 177.998 160.492 177.383 160.484 176.678C160.476 175.957 160.323 175.346 160.026 174.843C159.744 174.34 159.364 173.953 158.886 173.683C158.423 173.412 157.892 173.28 157.294 173.287C156.696 173.294 156.161 173.438 155.689 173.719C155.217 174 154.846 174.396 154.575 174.905C154.305 175.414 154.174 176.029 154.182 176.749C154.19 177.455 154.335 178.066 154.617 178.584C154.899 179.087 155.279 179.474 155.757 179.745C156.236 180.015 156.774 180.147 157.372 180.14ZM164.958 182.792L165.109 179.846C165.201 179.86 165.293 179.874 165.386 179.889C165.478 179.888 165.562 179.887 165.638 179.886C166.068 179.881 166.404 179.754 166.646 179.506C166.889 179.258 167.069 178.926 167.187 178.511C167.305 178.08 167.384 177.597 167.424 177.059C167.479 176.522 167.519 175.962 167.543 175.379L167.67 170.409L178.25 170.289L178.39 182.663L174.802 182.703L174.685 172.4L175.5 173.265L170.072 173.326L170.821 172.398L170.695 175.504C170.662 176.609 170.581 177.622 170.454 178.543C170.341 179.464 170.143 180.264 169.86 180.942C169.576 181.605 169.191 182.123 168.704 182.496C168.218 182.854 167.591 183.038 166.824 183.047C166.548 183.05 166.257 183.03 165.95 182.987C165.642 182.945 165.312 182.88 164.958 182.792ZM187.891 182.739C186.48 182.755 185.235 182.493 184.155 181.953C183.091 181.413 182.262 180.671 181.669 179.727C181.076 178.768 180.772 177.675 180.758 176.448C180.744 175.206 181.015 174.107 181.572 173.15C182.143 172.177 182.924 171.417 183.915 170.869C184.905 170.306 186.029 170.017 187.286 170.003C188.498 169.989 189.589 170.238 190.561 170.748C191.548 171.243 192.331 171.97 192.909 172.93C193.487 173.874 193.783 175.013 193.799 176.347C193.8 176.485 193.794 176.646 193.781 176.83C193.768 176.999 193.754 177.16 193.741 177.313L183.69 177.427L183.666 175.334L191.831 175.242L190.458 175.878C190.451 175.234 190.314 174.676 190.048 174.204C189.782 173.732 189.418 173.368 188.955 173.112C188.492 172.842 187.953 172.71 187.34 172.717C186.727 172.724 186.184 172.868 185.712 173.149C185.255 173.415 184.899 173.795 184.644 174.288C184.388 174.766 184.265 175.335 184.272 175.995L184.278 176.546C184.286 177.221 184.438 177.817 184.736 178.335C185.048 178.838 185.474 179.224 186.014 179.494C186.569 179.748 187.214 179.871 187.95 179.863C188.609 179.856 189.183 179.749 189.672 179.545C190.175 179.34 190.632 179.035 191.041 178.632L192.974 180.68C192.414 181.331 191.706 181.837 190.852 182.199C189.997 182.546 189.01 182.726 187.891 182.739ZM203.911 182.558C202.868 182.569 201.953 182.35 201.166 181.899C200.379 181.447 199.758 180.757 199.303 179.827C198.863 178.881 198.634 177.687 198.618 176.246C198.602 174.79 198.795 173.591 199.198 172.651C199.602 171.711 200.192 171.007 200.969 170.538C201.745 170.069 202.678 169.829 203.767 169.816C204.932 169.803 205.977 170.06 206.903 170.586C207.845 171.097 208.589 171.824 209.136 172.769C209.699 173.713 209.988 174.829 210.002 176.117C210.017 177.42 209.754 178.55 209.213 179.507C208.687 180.464 207.959 181.208 207.03 181.74C206.116 182.272 205.076 182.544 203.911 182.558ZM196.646 186.918L196.455 170.083L199.882 170.044L199.911 172.574L199.883 176.255L200.155 179.909L200.234 186.877L196.646 186.918ZM203.257 179.621C203.855 179.614 204.382 179.47 204.839 179.189C205.311 178.907 205.682 178.512 205.952 178.003C206.238 177.479 206.377 176.864 206.369 176.158C206.36 175.438 206.208 174.826 205.911 174.323C205.629 173.821 205.249 173.434 204.771 173.163C204.307 172.892 203.777 172.76 203.179 172.767C202.581 172.774 202.046 172.918 201.574 173.199C201.102 173.481 200.73 173.876 200.46 174.385C200.19 174.894 200.059 175.509 200.067 176.23C200.075 176.935 200.22 177.547 200.502 178.065C200.783 178.568 201.164 178.954 201.642 179.225C202.12 179.496 202.659 179.628 203.257 179.621ZM226.506 182.118L226.478 179.703L226.242 179.176L226.193 174.853C226.185 174.086 225.94 173.491 225.46 173.067C224.995 172.643 224.28 172.436 223.314 172.447C222.655 172.455 222.004 172.569 221.363 172.791C220.736 172.998 220.203 173.28 219.762 173.637L218.446 171.145C219.115 170.662 219.924 170.285 220.871 170.014C221.819 169.742 222.783 169.601 223.765 169.59C225.651 169.569 227.12 169.997 228.173 170.874C229.225 171.752 229.762 173.133 229.784 175.019L229.864 182.08L226.506 182.118ZM222.736 182.344C221.77 182.355 220.94 182.204 220.247 181.89C219.553 181.56 219.019 181.114 218.644 180.551C218.27 179.987 218.079 179.353 218.071 178.648C218.063 177.912 218.232 177.266 218.578 176.71C218.94 176.154 219.51 175.718 220.288 175.403C221.067 175.072 222.084 174.899 223.342 174.885L226.63 174.848L226.654 176.941L223.756 176.973C222.913 176.983 222.332 177.128 222.013 177.407C221.71 177.687 221.56 178.033 221.565 178.447C221.57 178.907 221.751 179.273 222.106 179.545C222.477 179.802 222.977 179.926 223.606 179.919C224.204 179.913 224.739 179.769 225.211 179.487C225.683 179.19 226.023 178.765 226.231 178.211L226.802 179.86C226.551 180.66 226.082 181.271 225.397 181.693C224.712 182.115 223.825 182.332 222.736 182.344ZM231.416 182.039L231.567 179.093C231.659 179.107 231.751 179.122 231.843 179.136C231.935 179.135 232.019 179.134 232.096 179.133C232.525 179.128 232.861 179.002 233.104 178.754C233.346 178.506 233.527 178.174 233.645 177.759C233.762 177.328 233.841 176.844 233.881 176.307C233.937 175.769 233.976 175.209 234 174.626L234.128 169.657L244.707 169.537L244.847 181.91L241.26 181.951L241.143 171.647L241.958 172.512L236.53 172.574L237.279 171.645L237.153 174.752C237.119 175.856 237.039 176.869 236.911 177.791C236.799 178.712 236.601 179.512 236.317 180.189C236.034 180.852 235.648 181.37 235.162 181.744C234.675 182.102 234.049 182.285 233.282 182.294C233.006 182.297 232.714 182.277 232.407 182.235C232.1 182.192 231.77 182.127 231.416 182.039Z" fill="white"/>
<path d="M150.814 251.001L147.181 241.657L151.294 239.337L155.965 250.867L150.814 251.001ZM143.555 243.292L144.212 239.493L150.314 239.334L149.657 243.133L143.555 243.292ZM151.271 241.69L147.06 241.296L154.193 231.306L159.092 231.178L151.271 241.69ZM131.837 251.497L126.463 251.637L135.144 239.758L138.7 241.878L131.837 251.497ZM143.509 251.192L139.058 251.308L142.465 231.612L146.916 231.496L143.509 251.192ZM141.763 243.339L135.633 243.499L136.29 239.7L142.42 239.54L141.763 243.339ZM134.645 242.124L130.374 231.928L135.048 231.806L138.747 241.513L134.645 242.124ZM164.548 248.71L163.229 256.111L158.863 256.225L160.182 248.824L164.548 248.71ZM160.192 252.437L156.06 235.795L160.371 235.682L163.483 248.654L161.243 248.712L168.88 235.46L173.247 235.346L163.327 252.355L160.192 252.437ZM181.443 250.201L177.841 243.125L181.409 241.379L186.481 250.07L181.443 250.201ZM170.751 250.481L173.38 235.343L177.747 235.229L175.117 250.367L170.751 250.481ZM174.856 244.659L175.408 241.144L180.699 241.006L180.118 244.522L174.856 244.659ZM181.624 243.194L177.496 242.798L184.129 235.062L188.887 234.938L181.624 243.194ZM189.738 249.985L191.847 237.438L192.657 238.425L186.639 238.582L187.273 234.98L201.8 234.601L201.166 238.203L195.036 238.363L196.213 237.324L194.104 249.871L189.738 249.985ZM206.909 249.761C205.342 249.802 203.972 249.557 202.8 249.028C201.648 248.497 200.741 247.737 200.08 246.746C199.419 245.755 199.071 244.578 199.036 243.216C198.992 241.536 199.326 240.034 200.038 238.708C200.769 237.363 201.786 236.291 203.091 235.491C204.415 234.691 205.944 234.269 207.68 234.223C209.154 234.185 210.43 234.431 211.508 234.964C212.586 235.477 213.427 236.221 214.031 237.194C214.654 238.149 214.983 239.308 215.019 240.67C215.029 241.062 215.011 241.454 214.965 241.848C214.938 242.24 214.892 242.615 214.827 242.972L202.371 243.297L202.752 240.738L212.717 240.478L210.946 241.308C211.073 240.465 211.008 239.766 210.751 239.213C210.493 238.641 210.09 238.212 209.541 237.928C208.992 237.625 208.334 237.483 207.569 237.503C206.618 237.528 205.812 237.782 205.152 238.267C204.511 238.731 204.033 239.369 203.718 240.181C203.403 240.992 203.259 241.901 203.285 242.909C203.315 244.066 203.655 244.925 204.305 245.487C204.972 246.03 205.959 246.284 207.266 246.25C208.031 246.23 208.765 246.09 209.467 245.828C210.17 245.567 210.767 245.206 211.26 244.745L213.154 247.581C212.295 248.294 211.32 248.833 210.227 249.198C209.153 249.543 208.047 249.731 206.909 249.761ZM215.661 254.966C214.896 254.986 214.137 254.884 213.384 254.661C212.613 254.439 211.998 254.137 211.54 253.757L213.474 250.57C213.798 250.841 214.159 251.056 214.555 251.214C214.97 251.371 215.42 251.443 215.905 251.43C216.465 251.416 216.946 251.263 217.35 250.973C217.771 250.681 218.179 250.195 218.572 249.512L219.726 247.577L220.106 247.119L227.716 233.924L232.027 233.812L222.426 250.14C221.71 251.335 221.015 252.277 220.343 252.967C219.689 253.675 218.983 254.179 218.225 254.479C217.486 254.778 216.632 254.941 215.661 254.966ZM218.86 249.813L214.84 234.26L219.207 234.146L222.279 246.67L218.86 249.813Z" fill="#EA2C86"/>
<defs>
<filter id="filter0_f_174005_3443" x="47.8408" y="46.3972" width="273.434" height="279.375" filterUnits="userSpaceOnUse" color-interpolation-filters="sRGB">
<feFlood flood-opacity="0" result="BackgroundImageFix"/>
<feBlend mode="normal" in="SourceGraphic" in2="BackgroundImageFix" result="shape"/>
<feGaussianBlur stdDeviation="3.60785" result="effect1_foregroundBlur_174005_3443"/>
</filter>
</defs>
</svg>
