<svg width="284" height="288" viewBox="0 0 284 288" fill="none" xmlns="http://www.w3.org/2000/svg">
<g style="mix-blend-mode:multiply" filter="url(#filter0_f_174001_2877)">
<path d="M273.385 263.899L35.4911 280.059C31.9179 198.802 29.3695 119.146 21.4965 38.1645L254.554 22.3328C258.443 104.395 266.235 183.695 273.385 263.899Z" fill="#525252" fill-opacity="0.35"/>
</g>
<path d="M262.226 263.031L19.0188 262.975C21.0182 182.539 22.2852 102.12 19.8899 21.6829L261.482 21.7383C259.749 102.973 260.513 183.41 262.226 263.031Z" fill="#FD6FAB"/>
<mask id="mask0_174001_2877" style="mask-type:alpha" maskUnits="userSpaceOnUse" x="20" y="20" width="244" height="242">
<path d="M263.228 261.683L20.0205 261.627C22.0199 181.191 23.2869 100.771 20.8916 20.3344L262.484 20.3898C260.751 101.625 261.515 182.062 263.228 261.683Z" fill="#FFF27C"/>
</mask>
<g mask="url(#mask0_174001_2877)">
<path d="M260.829 21.8678L20.6152 21.5571L20.5585 65.4278L260.772 65.7385L260.829 21.8678Z" fill="#F84F9F"/>
</g>
<mask id="mask1_174001_2877" style="mask-type:alpha" maskUnits="userSpaceOnUse" x="20" y="20" width="244" height="242">
<path d="M263.228 261.683L20.0205 261.627C22.0199 181.191 23.2869 100.771 20.8916 20.3344L262.484 20.3898C260.751 101.625 261.515 182.062 263.228 261.683Z" fill="#FFF27C"/>
</mask>
<g mask="url(#mask1_174001_2877)">
<path d="M260.829 21.8678L20.6152 21.5571L20.5585 65.4278L260.772 65.7385L260.829 21.8678Z" fill="#F84F9F"/>
</g>
<mask id="mask2_174001_2877" style="mask-type:luminance" maskUnits="userSpaceOnUse" x="28" y="179" width="232" height="55">
<path d="M259.798 179.349H28.8333V233.379H259.798V179.349Z" fill="white"/>
</mask>
<g mask="url(#mask2_174001_2877)">
<path d="M32.585 196.68C43.9952 196.443 55.4054 196.331 66.8156 196.15C60.0611 196.899 53.3128 197.699 46.5707 198.549C45.0043 198.752 44.1623 199.686 43.9085 200.762C43.1284 200.751 42.336 200.734 41.5497 200.722C38.6213 200.672 37.3583 203.459 38.1818 205.277C37.7731 205.277 37.3707 205.277 36.9621 205.277C32.9503 205.306 32.1516 211.004 36.2254 210.987C38.4913 210.976 40.7511 211.009 43.0108 211.004C42.5589 211.595 42.3174 212.287 42.3174 212.991C40.6891 213.098 39.0609 213.16 37.4326 213.273C33.1051 213.56 34.139 219.624 38.4542 219.337C39.3704 219.275 40.2867 219.224 41.2092 219.168C40.491 221.003 41.8531 223.712 44.7567 223.593C46.5521 223.52 48.3599 223.486 50.1553 223.419C48.5456 225.125 49.8829 228.751 53.2323 228.605C54.4953 228.554 55.7645 228.52 57.0212 228.469C55.8635 230.254 57.2317 233.458 60.383 233.368C106.798 232.017 153.237 231.302 199.683 231.24C206.072 231.228 212.461 231.228 218.85 231.251C225.394 231.262 232.402 231.921 238.872 230.981C241.918 230.536 242.023 227.017 239.671 225.908C240.668 225.84 241.664 225.806 242.649 225.688C245.998 225.288 245.713 220.925 242.55 220.44C242.215 220.39 241.881 220.378 241.553 220.333C242.76 219.556 243.033 218.115 242.407 216.983C242.859 216.995 243.311 217.017 243.757 217.028C245.026 217.051 245.924 216.437 246.357 215.638C248.19 215.638 250.016 215.649 251.836 215.626C254.969 215.576 254.777 210.936 251.743 210.66C249.942 210.497 248.128 210.441 246.326 210.311C247.069 210.204 247.825 210.103 248.561 209.939C251.434 209.286 251.57 205.581 248.462 205.114C246.976 204.889 245.478 204.799 243.967 204.754C243.955 204.168 243.738 203.6 243.311 203.155C248.023 203.07 252.734 203.008 257.445 202.811C260.609 202.682 260.522 197.84 257.346 197.71C250.524 197.44 243.689 197.327 236.86 197.276C236.656 196.578 236.173 195.976 235.312 195.768C233.814 195.396 232.266 195.176 230.719 194.923C233.096 194.923 235.467 194.94 237.838 194.923C241.256 194.895 242.085 190.233 238.482 189.974C238.445 189.974 238.408 189.974 238.365 189.974C237.968 189.343 237.355 188.819 236.272 188.684C232.242 188.217 228.199 187.862 224.144 187.553C223.976 186.365 223.147 185.261 221.611 185.171C214.919 184.782 208.208 184.687 201.497 184.63C201.986 183.071 201.181 181.094 199.045 180.999C186.359 180.441 173.538 181.139 160.846 181.348C148.402 181.556 135.958 181.764 123.514 181.978C119.087 182.057 114.66 182.125 110.234 182.204C103.801 181.933 97.3686 181.697 90.936 181.382C78.5724 180.773 66.2026 180.098 53.8266 179.355C51.1954 179.197 49.8891 181.398 50.2358 183.2C49.3752 183.217 48.5271 183.228 47.6665 183.245C46.1187 183.273 45.2829 184.073 45.0229 185.086C40.7944 185.238 36.5597 185.374 32.3312 185.554C29.0808 185.7 28.858 189.146 30.7648 190.784C27.465 191.612 28.6041 196.764 32.585 196.685V196.68Z" fill="white"/>
</g>
<path d="M68.1938 113.301L67.9674 97.2024L75.4647 97.097C77.3351 97.0706 78.7967 97.4105 79.8494 98.1164C80.9021 98.8223 81.4378 99.8422 81.4566 101.176C81.4751 102.495 80.999 103.529 80.0281 104.278C79.057 105.013 77.7588 105.392 76.1337 105.414L76.557 104.442C78.3662 104.417 79.7741 104.757 80.7808 105.464C81.7875 106.171 82.3005 107.206 82.3197 108.571C82.3395 109.981 81.8185 111.1 80.7567 111.928C79.71 112.74 78.1671 113.161 76.128 113.189L68.1938 113.301ZM71.8576 110.489L75.9512 110.431C76.8098 110.419 77.459 110.242 77.8989 109.898C78.3388 109.554 78.5537 109.03 78.5438 108.325C78.5343 107.65 78.305 107.155 77.8559 106.839C77.4065 106.508 76.7525 106.349 75.8939 106.361L71.8004 106.418L71.8576 110.489ZM71.7638 103.82L75.2365 103.771C76.0491 103.759 76.6601 103.59 77.0695 103.262C77.4787 102.919 77.6788 102.425 77.6697 101.781C77.6607 101.137 77.4469 100.657 77.0284 100.341C76.6097 100.01 75.9941 99.8498 75.1815 99.8612L71.7088 99.91L71.7638 103.82ZM97.7945 112.885L97.6205 100.512L101.185 100.462L101.359 112.834L97.7945 112.885ZM91.4438 104.555C93.0692 104.547 94.2932 104.898 95.1159 105.607C95.9538 106.301 96.3819 107.3 96.4002 108.603C96.4194 109.967 95.9667 111.039 95.0423 111.819C94.1176 112.584 92.7967 112.978 91.0795 113.002L85.0538 113.064L84.8798 100.691L88.4445 100.641L88.5001 104.596L91.4438 104.555ZM90.7217 110.454C91.4118 110.459 91.9387 110.306 92.3024 109.994C92.666 109.683 92.8435 109.22 92.8349 108.607C92.8263 107.994 92.6361 107.559 92.2645 107.304C91.8927 107.033 91.3617 106.895 90.6715 106.889L88.5324 106.896L88.5829 110.484L90.7217 110.454ZM104.817 112.786L104.643 100.413L108.208 100.363L108.312 107.722L114.234 100.278L117.522 100.232L117.696 112.605L114.132 112.655L114.028 105.296L108.129 112.739L104.817 112.786ZM121.145 112.556L120.971 100.183L130.883 100.044L130.924 102.988L123.772 103.088L124.566 102.295L124.71 112.506L121.145 112.556ZM140.251 112.472C139.209 112.486 138.293 112.269 137.505 111.82C136.716 111.371 136.093 110.682 135.635 109.753C135.193 108.809 134.961 107.616 134.941 106.175C134.921 104.718 135.111 103.519 135.512 102.578C135.912 101.637 136.5 100.931 137.276 100.46C138.051 99.9893 138.983 99.7461 140.072 99.7308C141.237 99.7144 142.283 99.9681 143.211 100.492C144.154 101 144.9 101.725 145.45 102.669C146.015 103.611 146.307 104.727 146.325 106.015C146.343 107.318 146.083 108.449 145.545 109.407C145.021 110.365 144.296 111.111 143.368 111.646C142.455 112.18 141.416 112.455 140.251 112.472ZM132.998 116.852L132.761 100.018L136.188 99.9695L136.223 102.499L136.206 106.18L136.488 109.833L136.586 116.802L132.998 116.852ZM139.589 109.537C140.187 109.528 140.714 109.383 141.17 109.1C141.641 108.818 142.011 108.421 142.28 107.912C142.564 107.386 142.701 106.771 142.691 106.066C142.681 105.345 142.527 104.734 142.228 104.232C141.945 103.73 141.564 103.344 141.085 103.075C140.621 102.805 140.09 102.675 139.492 102.683C138.894 102.692 138.36 102.837 137.888 103.12C137.417 103.403 137.047 103.799 136.778 104.309C136.509 104.818 136.38 105.434 136.39 106.154C136.4 106.859 136.546 107.471 136.83 107.988C137.113 108.49 137.494 108.876 137.973 109.145C138.452 109.415 138.991 109.545 139.589 109.537ZM161.667 111.986L161.493 99.6136L165.058 99.5635L165.232 111.936L161.667 111.986ZM155.316 103.657C156.942 103.649 158.166 104 158.989 104.709C159.826 105.403 160.254 106.401 160.273 107.705C160.292 109.069 159.839 110.141 158.915 110.921C157.99 111.685 156.669 112.08 154.952 112.104L148.926 112.166L148.752 99.7928L152.317 99.7427L152.373 103.698L155.316 103.657ZM154.594 109.556C155.284 109.561 155.811 109.408 156.175 109.096C156.539 108.785 156.716 108.322 156.707 107.709C156.699 107.095 156.509 106.661 156.137 106.406C155.765 106.135 155.234 105.997 154.544 105.991L152.405 105.998L152.455 109.586L154.594 109.556ZM168.69 111.888L168.516 99.5149L174.84 99.4259C176.389 99.4042 177.604 99.6708 178.486 100.226C179.368 100.765 179.816 101.541 179.83 102.553C179.844 103.565 179.441 104.368 178.622 104.962C177.817 105.541 176.74 105.84 175.391 105.859L175.747 105.026C177.25 105.005 178.373 105.265 179.117 105.806C179.876 106.348 180.263 107.147 180.277 108.205C180.293 109.294 179.891 110.158 179.072 110.799C178.253 111.439 176.992 111.771 175.29 111.795L168.69 111.888ZM171.944 109.404L174.957 109.361C175.616 109.352 176.106 109.238 176.424 109.019C176.759 108.784 176.922 108.437 176.916 107.977C176.909 107.501 176.751 107.159 176.441 106.948C176.131 106.723 175.647 106.614 174.988 106.624L171.906 106.667L171.944 109.404ZM171.876 104.551L174.59 104.513C175.219 104.504 175.685 104.383 175.988 104.148C176.307 103.914 176.463 103.582 176.457 103.153C176.451 102.708 176.285 102.381 175.96 102.17C175.65 101.96 175.181 101.859 174.553 101.868L171.839 101.906L171.876 104.551ZM190.402 111.582L190.368 109.168L190.13 108.642L190.069 104.318C190.059 103.552 189.813 102.957 189.331 102.535C188.865 102.112 188.149 101.907 187.183 101.921C186.524 101.93 185.874 102.046 185.233 102.27C184.607 102.478 184.075 102.762 183.635 103.121L182.312 100.632C182.98 100.147 183.787 99.7679 184.734 99.4939C185.681 99.2198 186.645 99.0759 187.626 99.0621C189.512 99.0356 190.982 99.4597 192.038 100.334C193.093 101.209 193.633 102.589 193.66 104.475L193.759 111.535L190.402 111.582ZM186.632 111.819C185.667 111.833 184.836 111.684 184.142 111.371C183.447 111.044 182.912 110.599 182.536 110.037C182.16 109.475 181.967 108.841 181.957 108.136C181.947 107.4 182.114 106.753 182.459 106.196C182.819 105.639 183.388 105.202 184.166 104.884C184.943 104.551 185.96 104.376 187.218 104.358L190.506 104.312L190.536 106.405L187.638 106.446C186.795 106.458 186.214 106.604 185.896 106.884C185.593 107.165 185.445 107.512 185.451 107.926C185.457 108.386 185.639 108.751 185.995 109.022C186.367 109.278 186.867 109.401 187.495 109.392C188.093 109.384 188.628 109.238 189.099 108.955C189.571 108.657 189.91 108.231 190.117 107.676L190.692 109.324C190.442 110.125 189.976 110.737 189.291 111.161C188.607 111.585 187.721 111.804 186.632 111.819ZM196.876 111.491L196.702 99.1185L200.266 99.0684L200.37 106.428L206.292 98.9837L209.58 98.9375L209.754 111.31L206.19 111.36L206.086 104.001L200.187 111.445L196.876 111.491ZM202.892 97.6974C201.543 97.7163 200.527 97.4393 199.844 96.8661C199.161 96.2777 198.804 95.3856 198.772 94.19L201.117 94.157C201.14 94.678 201.292 95.0899 201.572 95.3927C201.852 95.6955 202.276 95.8428 202.843 95.8349C203.395 95.8271 203.815 95.6679 204.102 95.3571C204.404 95.0462 204.551 94.6301 204.544 94.1088L206.936 94.0752C206.953 95.271 206.62 96.1728 205.939 96.7804C205.257 97.3728 204.242 97.6784 202.892 97.6974ZM60.3726 136.413L56.1506 130.607L59.047 128.841L64.6042 136.354L60.3726 136.413ZM51.6105 136.536L51.4365 124.163L55.0242 124.113L55.1981 136.486L51.6105 136.536ZM54.0743 131.809L54.0339 128.934L58.3574 128.874L58.3978 131.748L54.0743 131.809ZM59.4175 130.653L56.0547 130.332L60.3136 124.039L64.1313 123.985L59.4175 130.653ZM73.6587 136.41C72.6162 136.425 71.7007 136.208 70.9123 135.759C70.1239 135.31 69.5008 134.621 69.0431 133.692C68.6004 132.747 68.3689 131.554 68.3487 130.113C68.3282 128.657 68.5184 127.458 68.9192 126.517C69.32 125.576 69.9081 124.87 70.6836 124.399C71.459 123.928 72.391 123.685 73.4796 123.669C74.6448 123.653 75.6911 123.907 76.6186 124.43C77.5612 124.939 78.3074 125.664 78.8574 126.607C79.4227 127.55 79.7144 128.665 79.7325 129.953C79.7509 131.256 79.4907 132.387 78.9522 133.345C78.4289 134.304 77.7033 135.05 76.7754 135.584C75.8629 136.119 74.824 136.394 73.6587 136.41ZM66.4056 140.791L66.1689 123.956L69.5956 123.908L69.6311 126.438L69.6139 130.118L69.8953 133.772L69.9933 140.74L66.4056 140.791ZM72.9964 133.475C73.5943 133.467 74.1214 133.321 74.5774 133.039C75.0488 132.756 75.419 132.36 75.6878 131.85C75.9718 131.325 76.1088 130.71 76.0989 130.004C76.0888 129.284 75.9345 128.672 75.6361 128.171C75.353 127.669 74.9719 127.283 74.4927 127.014C74.0289 126.744 73.498 126.614 72.9 126.622C72.3021 126.63 71.7674 126.776 71.296 127.059C70.8246 127.341 70.4545 127.737 70.1856 128.247C69.9168 128.757 69.7874 129.372 69.7975 130.093C69.8074 130.798 69.9541 131.409 70.2374 131.927C70.5204 132.429 70.9016 132.815 71.3807 133.084C71.8599 133.353 72.3985 133.484 72.9964 133.475ZM83.7413 140.731C83.0974 140.74 82.4597 140.649 81.8283 140.459C81.1969 140.268 80.6794 140 80.2758 139.653L81.5508 137.081C81.8302 137.323 82.1472 137.51 82.5018 137.643C82.8717 137.776 83.2329 137.84 83.5856 137.835C84.0915 137.828 84.4884 137.699 84.7763 137.45C85.0797 137.216 85.3501 136.821 85.5877 136.265L86.2103 134.739L86.4808 134.344L90.7693 123.61L94.2189 123.562L88.8151 136.772C88.4305 137.774 87.9816 138.563 87.4683 139.137C86.9703 139.712 86.4086 140.118 85.7832 140.357C85.1732 140.596 84.4926 140.72 83.7413 140.731ZM85.7986 136.539L80.0983 123.76L83.801 123.708L88.2241 133.997L85.7986 136.539ZM98.8358 135.872L98.6916 125.615L99.5081 126.432L94.5176 126.502L94.4762 123.558L106.412 123.39L106.453 126.334L101.463 126.404L102.256 125.565L102.4 135.822L98.8358 135.872ZM121.239 135.557L121.065 123.184L124.63 123.134L124.804 135.507L121.239 135.557ZM114.888 127.228C116.514 127.22 117.738 127.571 118.561 128.28C119.398 128.974 119.826 129.972 119.845 131.275C119.864 132.64 119.411 133.712 118.487 134.492C117.562 135.256 116.241 135.65 114.524 135.675L108.498 135.736L108.324 123.364L111.889 123.313L111.945 127.269L114.888 127.228ZM114.166 133.126C114.856 133.132 115.383 132.979 115.747 132.667C116.111 132.355 116.288 131.893 116.28 131.279C116.271 130.666 116.081 130.232 115.709 129.976C115.337 129.706 114.806 129.567 114.116 129.562L111.977 129.569L112.027 133.156L114.166 133.126ZM134.313 135.557C132.903 135.577 131.657 135.319 130.576 134.782C129.51 134.245 128.679 133.505 128.083 132.563C127.487 131.605 127.18 130.513 127.163 129.286C127.146 128.044 127.414 126.944 127.968 125.986C128.537 125.012 129.316 124.249 130.305 123.699C131.294 123.133 132.417 122.841 133.674 122.823C134.885 122.806 135.977 123.051 136.951 123.559C137.939 124.051 138.724 124.776 139.304 125.734C139.885 126.677 140.185 127.815 140.204 129.149C140.205 129.287 140.2 129.448 140.187 129.632C140.174 129.801 140.161 129.962 140.148 130.116L130.098 130.257L130.069 128.164L138.233 128.049L136.862 128.69C136.853 128.046 136.715 127.488 136.447 127.016C136.18 126.545 135.814 126.182 135.351 125.928C134.887 125.658 134.348 125.528 133.735 125.536C133.122 125.545 132.58 125.691 132.108 125.973C131.652 126.24 131.297 126.621 131.043 127.115C130.789 127.594 130.667 128.164 130.676 128.823L130.684 129.375C130.693 130.049 130.847 130.645 131.146 131.162C131.46 131.664 131.887 132.049 132.427 132.318C132.983 132.57 133.629 132.692 134.365 132.681C135.024 132.672 135.597 132.564 136.085 132.358C136.588 132.152 137.044 131.846 137.453 131.442L139.39 133.485C138.832 134.137 138.126 134.645 137.273 135.01C136.419 135.359 135.432 135.542 134.313 135.557ZM149.553 135.159L149.379 122.786L161.683 122.613L161.857 134.986L158.269 135.036L158.125 124.802L158.941 125.596L152.18 125.691L152.974 124.875L153.118 135.109L149.553 135.159ZM172.589 135.019C171.547 135.034 170.631 134.817 169.843 134.368C169.055 133.919 168.431 133.23 167.974 132.301C167.531 131.356 167.3 130.163 167.279 128.722C167.259 127.266 167.449 126.067 167.85 125.126C168.251 124.185 168.839 123.479 169.614 123.008C170.39 122.537 171.322 122.294 172.41 122.278C173.575 122.262 174.622 122.516 175.549 123.039C176.492 123.547 177.238 124.273 177.788 125.216C178.353 126.159 178.645 127.274 178.663 128.562C178.682 129.865 178.421 130.996 177.883 131.954C177.36 132.913 176.634 133.659 175.706 134.193C174.793 134.727 173.755 135.003 172.589 135.019ZM165.336 139.4L165.1 122.565L168.526 122.517L168.562 125.047L168.545 128.727L168.826 132.381L168.924 139.349L165.336 139.4ZM171.927 132.084C172.525 132.076 173.052 131.93 173.508 131.648C173.979 131.365 174.35 130.969 174.618 130.459C174.902 129.934 175.039 129.318 175.03 128.613C175.019 127.893 174.865 127.281 174.567 126.779C174.284 126.277 173.903 125.892 173.423 125.622C172.959 125.353 172.429 125.222 171.831 125.231C171.233 125.239 170.698 125.385 170.227 125.667C169.755 125.95 169.385 126.346 169.116 126.856C168.847 127.366 168.718 127.981 168.728 128.702C168.738 129.407 168.885 130.018 169.168 130.536C169.451 131.038 169.832 131.424 170.311 131.693C170.791 131.962 171.329 132.093 171.927 132.084ZM181.265 134.713L181.091 122.34L184.655 122.29L184.759 129.649L190.681 122.205L193.969 122.159L194.143 134.532L190.579 134.582L190.475 127.223L184.576 134.667L181.265 134.713ZM201.669 134.656C200.718 134.67 199.766 134.583 198.813 134.397C197.875 134.211 197.004 133.924 196.201 133.537L197.132 131.017C197.765 131.314 198.451 131.542 199.189 131.701C199.942 131.844 200.702 131.91 201.469 131.899C202.021 131.891 202.495 131.831 202.892 131.718C203.305 131.589 203.617 131.416 203.828 131.199C204.04 130.981 204.144 130.719 204.139 130.412C204.134 130.013 203.961 129.717 203.621 129.522C203.28 129.312 202.788 129.212 202.144 129.221L199.615 129.257L199.583 127.026L201.814 126.994C202.228 126.989 202.58 126.938 202.87 126.842C203.16 126.745 203.373 126.612 203.508 126.442C203.659 126.255 203.733 126.04 203.729 125.794C203.726 125.534 203.63 125.313 203.444 125.131C203.257 124.95 202.987 124.816 202.633 124.729C202.279 124.626 201.834 124.579 201.297 124.586C200.684 124.595 200.049 124.681 199.391 124.843C198.734 124.991 198.062 125.207 197.376 125.493L196.468 123.021C197.275 122.672 198.077 122.393 198.871 122.182C199.665 121.972 200.454 121.853 201.235 121.827C202.385 121.78 203.421 121.888 204.345 122.151C205.269 122.414 205.995 122.803 206.524 123.317C207.068 123.831 207.345 124.463 207.355 125.214C207.364 125.812 207.187 126.351 206.826 126.832C206.48 127.312 205.995 127.695 205.37 127.98C204.745 128.249 204.042 128.389 203.26 128.4L203.342 127.686C204.706 127.667 205.783 127.928 206.573 128.469C207.363 128.994 207.764 129.725 207.777 130.66C207.788 131.457 207.522 132.159 206.979 132.764C206.45 133.355 205.721 133.817 204.79 134.152C203.874 134.472 202.834 134.64 201.669 134.656ZM223.134 134.124L222.96 121.752L226.525 121.701L226.699 134.074L223.134 134.124ZM216.784 125.795C218.409 125.787 219.633 126.138 220.456 126.847C221.294 127.541 221.722 128.539 221.74 129.843C221.759 131.207 221.307 132.279 220.382 133.059C219.457 133.823 218.136 134.218 216.419 134.242L210.394 134.304L210.22 121.931L213.784 121.881L213.84 125.836L216.784 125.795ZM216.061 131.694C216.752 131.699 217.279 131.546 217.642 131.234C218.006 130.922 218.183 130.46 218.175 129.847C218.166 129.233 217.976 128.799 217.604 128.544C217.232 128.273 216.701 128.135 216.011 128.129L213.872 128.136L213.923 131.724L216.061 131.694ZM97.1874 159.082C95.8688 159.1 94.6921 158.841 93.6571 158.303C92.6374 157.765 91.8219 157.026 91.2106 156.083C90.6144 155.126 90.3077 154.034 90.2905 152.807C90.273 151.565 90.5489 150.465 91.1181 149.506C91.7025 148.532 92.4968 147.769 93.5012 147.218C94.5207 146.652 95.6897 146.359 97.0082 146.341C98.3114 146.323 99.4805 146.582 100.516 147.12C101.55 147.642 102.366 148.374 102.962 149.316C103.558 150.259 103.864 151.359 103.882 152.616C103.899 153.842 103.623 154.943 103.054 155.917C102.485 156.876 101.691 157.638 100.671 158.205C99.6519 158.771 98.4906 159.063 97.1874 159.082ZM97.146 156.138C97.7439 156.13 98.2786 155.984 98.75 155.701C99.2214 155.419 99.5915 155.022 99.8604 154.513C100.129 153.987 100.258 153.372 100.248 152.667C100.238 151.946 100.092 151.335 99.8086 150.833C99.5256 150.331 99.1444 149.945 98.6653 149.676C98.1861 149.407 97.6475 149.276 97.0496 149.285C96.4517 149.293 95.917 149.439 95.4456 149.721C94.9742 150.004 94.5964 150.4 94.3122 150.91C94.0433 151.42 93.914 152.035 93.9241 152.756C93.934 153.461 94.0806 154.072 94.3639 154.59C94.6623 155.092 95.0511 155.477 95.5303 155.747C96.0095 156.016 96.548 156.146 97.146 156.138ZM108.632 158.737L108.488 148.48L109.305 149.296L104.314 149.366L104.273 146.423L116.208 146.255L116.25 149.199L111.259 149.269L112.053 148.43L112.197 158.687L108.632 158.737ZM132.815 158.673C131.542 158.691 130.359 158.5 129.265 158.102C128.186 157.703 127.242 157.133 126.434 156.393C125.642 155.653 125.016 154.78 124.557 153.774C124.114 152.768 123.884 151.668 123.867 150.472C123.85 149.276 124.049 148.169 124.464 147.151C124.895 146.133 125.503 145.242 126.29 144.48C127.076 143.718 128.004 143.122 129.071 142.693C130.138 142.264 131.301 142.04 132.558 142.023C133.83 142.005 134.999 142.195 136.062 142.594C137.141 142.993 138.077 143.563 138.87 144.303C139.677 145.043 140.311 145.916 140.77 146.922C141.228 147.912 141.466 149.013 141.483 150.224C141.5 151.42 141.293 152.535 140.863 153.568C140.433 154.586 139.824 155.476 139.037 156.239C138.266 156.986 137.346 157.574 136.279 158.003C135.227 158.432 134.072 158.655 132.815 158.673ZM132.747 155.499C133.468 155.489 134.126 155.357 134.72 155.104C135.33 154.85 135.861 154.489 136.315 154.023C136.768 153.557 137.113 153.007 137.35 152.375C137.602 151.743 137.722 151.044 137.711 150.277C137.701 149.51 137.561 148.815 137.291 148.19C137.037 147.565 136.677 147.025 136.21 146.572C135.759 146.118 135.225 145.773 134.608 145.536C133.992 145.299 133.323 145.186 132.602 145.196C131.882 145.206 131.217 145.339 130.607 145.592C130.012 145.846 129.488 146.206 129.035 146.673C128.581 147.139 128.229 147.688 127.977 148.321C127.741 148.953 127.628 149.652 127.638 150.419C127.649 151.17 127.781 151.866 128.036 152.506C128.305 153.131 128.666 153.671 129.117 154.124C129.583 154.578 130.125 154.923 130.741 155.159C131.358 155.396 132.027 155.509 132.747 155.499ZM144.143 158.237L143.969 145.865L147.396 145.816L147.445 149.312L146.948 148.307C147.304 147.428 147.885 146.76 148.691 146.304C149.497 145.833 150.483 145.589 151.648 145.573L151.694 148.884C151.541 148.871 151.403 148.865 151.28 148.867C151.157 148.853 151.027 148.848 150.889 148.85C149.908 148.863 149.114 149.158 148.509 149.734C147.919 150.294 147.632 151.165 147.649 152.345L147.731 158.187L144.143 158.237ZM161.296 158.18C160.207 158.195 159.269 157.979 158.481 157.53C157.692 157.081 157.084 156.392 156.657 155.462C156.23 154.517 156.006 153.324 155.986 151.883C155.965 150.427 156.163 149.228 156.579 148.287C157.011 147.345 157.614 146.639 158.39 146.168C159.165 145.697 160.074 145.454 161.117 145.439C162.282 145.423 163.328 145.669 164.256 146.177C165.198 146.686 165.944 147.411 166.494 148.354C167.06 149.297 167.352 150.42 167.37 151.723C167.388 153.011 167.128 154.134 166.589 155.092C166.066 156.051 165.34 156.805 164.413 157.354C163.5 157.888 162.461 158.164 161.296 158.18ZM153.98 158.099L153.74 141.035L157.328 140.984L157.429 148.183L157.251 151.842L157.371 155.521L157.407 158.051L153.98 158.099ZM160.634 155.245C161.232 155.237 161.759 155.091 162.215 154.809C162.686 154.526 163.056 154.13 163.325 153.62C163.609 153.095 163.746 152.48 163.736 151.774C163.726 151.054 163.572 150.442 163.273 149.941C162.99 149.438 162.609 149.053 162.13 148.784C161.666 148.514 161.135 148.383 160.537 148.392C159.939 148.4 159.405 148.546 158.933 148.828C158.462 149.111 158.092 149.507 157.823 150.017C157.554 150.527 157.425 151.142 157.435 151.863C157.445 152.568 157.591 153.179 157.875 153.697C158.158 154.199 158.539 154.585 159.018 154.854C159.497 155.123 160.036 155.254 160.634 155.245ZM169.858 157.876L169.684 145.503L173.272 145.453L173.446 157.825L169.858 157.876ZM171.454 143.753C170.795 143.762 170.255 143.578 169.836 143.201C169.417 142.823 169.203 142.351 169.195 141.784C169.187 141.216 169.387 140.738 169.796 140.349C170.205 139.96 170.739 139.761 171.398 139.751C172.057 139.742 172.596 139.918 173.015 140.281C173.434 140.627 173.648 141.084 173.656 141.652C173.664 142.25 173.464 142.751 173.056 143.155C172.663 143.544 172.129 143.743 171.454 143.753ZM181.838 157.891C180.381 157.912 179.242 157.56 178.419 156.835C177.596 156.095 177.174 154.99 177.153 153.518L177 142.663L180.588 142.612L180.74 153.421C180.747 153.943 180.891 154.347 181.171 154.634C181.451 154.906 181.828 155.039 182.304 155.033C182.871 155.025 183.352 154.864 183.746 154.552L184.748 157.068C184.383 157.334 183.941 157.54 183.422 157.685C182.918 157.815 182.39 157.884 181.838 157.891ZM175.173 148.462L175.134 145.702L183.712 145.582L183.751 148.341L175.173 148.462ZM190.328 149.629C189.638 149.638 188.997 149.523 188.405 149.283C187.813 149.043 187.293 148.705 186.845 148.27C186.397 147.825 186.045 147.31 185.788 146.725C185.541 146.14 185.412 145.507 185.403 144.826C185.393 144.145 185.509 143.509 185.749 142.916C185.989 142.324 186.326 141.804 186.762 141.356C187.197 140.9 187.707 140.543 188.292 140.286C188.887 140.029 189.529 139.896 190.219 139.886C190.909 139.877 191.55 139.992 192.142 140.232C192.744 140.463 193.264 140.796 193.702 141.231C194.15 141.667 194.497 142.177 194.745 142.762C195.001 143.338 195.135 143.971 195.144 144.661C195.154 145.351 195.039 145.997 194.799 146.598C194.559 147.191 194.217 147.715 193.772 148.172C193.337 148.62 192.826 148.972 192.241 149.229C191.656 149.486 191.018 149.619 190.328 149.629ZM191.387 147.378L190.062 145.395L191.787 145.371L193.112 147.354L191.387 147.378ZM190.314 148.58C190.856 148.572 191.352 148.469 191.8 148.269C192.257 148.06 192.653 147.783 192.989 147.438C193.324 147.084 193.581 146.671 193.758 146.199C193.945 145.727 194.034 145.22 194.027 144.677C194.019 144.134 193.92 143.634 193.729 143.177C193.539 142.71 193.276 142.309 192.94 141.973C192.604 141.638 192.204 141.381 191.742 141.204C191.288 141.017 190.786 140.927 190.234 140.935C189.691 140.943 189.191 141.046 188.734 141.246C188.277 141.446 187.88 141.723 187.545 142.077C187.209 142.431 186.953 142.84 186.775 143.302C186.598 143.765 186.513 144.267 186.521 144.81C186.528 145.344 186.627 145.844 186.818 146.31C187.008 146.777 187.272 147.183 187.608 147.528C187.953 147.863 188.357 148.124 188.819 148.311C189.282 148.498 189.78 148.587 190.314 148.58ZM188.117 147.424L188.043 142.153L190.43 142.119C191.184 142.109 191.771 142.275 192.19 142.619C192.618 142.953 192.836 143.415 192.844 144.004C192.853 144.629 192.648 145.11 192.229 145.448C191.82 145.775 191.243 145.945 190.498 145.955L189.794 145.965L189.814 147.4L188.117 147.424ZM189.777 144.751L190.37 144.742C190.619 144.739 190.811 144.676 190.947 144.555C191.093 144.424 191.164 144.248 191.161 144.027C191.157 143.797 191.081 143.624 190.932 143.506C190.793 143.388 190.599 143.331 190.35 143.335L189.757 143.343L189.777 144.751Z" fill="white"/>
<path d="M80.2688 217.312L83.8421 197.646L101.675 197.331L98.102 216.997L93.6227 217.076L96.6271 200.08L97.4572 201.102L86.5389 201.295L87.7804 200.237L84.7481 217.233L80.2688 217.312ZM102.848 216.913L106.421 197.247L114.344 197.107C116.789 197.064 118.684 197.572 120.028 198.631C121.39 199.671 122.089 201.152 122.123 203.075C122.152 204.717 121.794 206.161 121.051 207.406C120.307 208.633 119.222 209.586 117.797 210.264C116.39 210.942 114.707 211.299 112.747 211.333L106.392 211.446L108.763 209.331L107.411 216.833L102.848 216.913ZM108.66 209.865L107.027 207.738L112.878 207.635C114.371 207.608 115.522 207.252 116.331 206.565C117.159 205.86 117.561 204.854 117.538 203.548C117.521 202.596 117.192 201.901 116.549 201.465C115.906 201.009 115.006 200.792 113.849 200.812L108.334 200.91L110.703 198.656L108.66 209.865ZM123.219 216.553L126.792 196.887L131.272 196.808L128.894 209.62L140.566 196.644L144.878 196.568L141.304 216.234L136.825 216.313L139.232 203.529L127.53 216.477L123.219 216.553ZM152.321 216.375C151.014 216.399 149.695 216.254 148.364 215.941C147.052 215.61 145.829 215.081 144.696 214.354L146.71 211.07C147.522 211.615 148.416 212.01 149.391 212.255C150.385 212.498 151.358 212.612 152.31 212.595C153 212.583 153.662 212.506 154.294 212.364C154.926 212.222 155.483 212.016 155.963 211.746C156.444 211.477 156.821 211.152 157.094 210.774C157.368 210.396 157.5 209.974 157.492 209.507C157.481 208.891 157.23 208.429 156.74 208.12C156.248 207.793 155.517 207.638 154.547 207.655L149.704 207.74L150.315 204.313L154.851 204.233C155.522 204.221 156.099 204.108 156.581 203.894C157.081 203.68 157.459 203.403 157.714 203.062C157.988 202.703 158.121 202.289 158.113 201.823C158.104 201.356 157.939 200.967 157.616 200.655C157.311 200.325 156.887 200.09 156.343 199.95C155.818 199.791 155.21 199.718 154.519 199.73C153.716 199.744 152.841 199.872 151.893 200.112C150.945 200.353 149.991 200.725 149.029 201.227L148.294 197.712C149.442 197.169 150.602 196.756 151.773 196.474C152.944 196.192 154.071 196.041 155.154 196.022C156.572 195.997 157.854 196.18 159 196.57C160.145 196.942 161.061 197.505 161.746 198.258C162.45 198.993 162.811 199.882 162.829 200.927C162.847 201.917 162.564 202.818 161.981 203.631C161.398 204.444 160.597 205.093 159.579 205.578C158.561 206.062 157.417 206.316 156.148 206.338L156.438 205.325C157.539 205.306 158.504 205.485 159.332 205.862C160.16 206.221 160.813 206.741 161.292 207.424C161.77 208.087 162.018 208.876 162.034 209.791C162.051 210.761 161.796 211.653 161.269 212.465C160.742 213.258 160.026 213.943 159.121 214.519C158.216 215.076 157.178 215.524 156.008 215.862C154.838 216.182 153.608 216.353 152.321 216.375ZM176.305 202.454C180.654 202.377 182.859 204.121 182.922 207.686C182.95 209.253 182.582 210.632 181.819 211.822C181.056 213.011 179.952 213.946 178.508 214.625C177.082 215.285 175.399 215.632 173.458 215.666L164.611 215.822L168.184 196.156L172.664 196.077L171.49 202.539L176.305 202.454ZM173.79 212.3C174.705 212.284 175.495 212.111 176.162 211.782C176.846 211.434 177.37 210.958 177.733 210.354C178.095 209.75 178.27 209.056 178.256 208.272C178.24 207.395 177.977 206.765 177.466 206.382C176.974 205.998 176.187 205.816 175.104 205.835L170.877 205.91L169.703 212.372L173.79 212.3ZM184.768 215.466L188.341 195.8L192.905 195.72L189.331 215.386L184.768 215.466Z" fill="#F84F9F"/>
<defs>
<filter id="filter0_f_174001_2877" x="14.447" y="15.2834" width="265.987" height="271.825" filterUnits="userSpaceOnUse" color-interpolation-filters="sRGB">
<feFlood flood-opacity="0" result="BackgroundImageFix"/>
<feBlend mode="normal" in="SourceGraphic" in2="BackgroundImageFix" result="shape"/>
<feGaussianBlur stdDeviation="3.52473" result="effect1_foregroundBlur_174001_2877"/>
</filter>
</defs>
</svg>
