<svg width="284" height="288" viewBox="0 0 284 288" fill="none" xmlns="http://www.w3.org/2000/svg">
<g style="mix-blend-mode:multiply" filter="url(#filter0_f_174001_2900)">
<path d="M273.385 263.899L35.4912 280.059C31.918 198.802 29.3696 119.146 21.4966 38.1645L254.554 22.3328C258.443 104.395 266.235 183.695 273.385 263.899Z" fill="#525252" fill-opacity="0.35"/>
</g>
<path d="M262.226 263.031L19.019 262.975C21.0184 182.539 22.2854 102.12 19.8901 21.6829L261.482 21.7383C259.749 102.973 260.513 183.41 262.226 263.031Z" fill="#FD6FAB"/>
<mask id="mask0_174001_2900" style="mask-type:alpha" maskUnits="userSpaceOnUse" x="20" y="20" width="244" height="242">
<path d="M263.228 261.683L20.0205 261.627C22.0199 181.191 23.2869 100.771 20.8916 20.3344L262.484 20.3898C260.751 101.625 261.515 182.062 263.228 261.683Z" fill="#FFF27C"/>
</mask>
<g mask="url(#mask0_174001_2900)">
<path d="M260.829 21.8678L20.6152 21.5571L20.5585 65.4278L260.772 65.7385L260.829 21.8678Z" fill="#F84F9F"/>
</g>
<mask id="mask1_174001_2900" style="mask-type:alpha" maskUnits="userSpaceOnUse" x="20" y="20" width="244" height="242">
<path d="M263.228 261.683L20.0205 261.627C22.0199 181.191 23.2869 100.771 20.8916 20.3344L262.484 20.3898C260.751 101.625 261.515 182.062 263.228 261.683Z" fill="#FFF27C"/>
</mask>
<g mask="url(#mask1_174001_2900)">
<path d="M260.829 21.8678L20.6152 21.5571L20.5585 65.4278L260.772 65.7385L260.829 21.8678Z" fill="#F84F9F"/>
</g>
<mask id="mask2_174001_2900" style="mask-type:luminance" maskUnits="userSpaceOnUse" x="28" y="179" width="232" height="55">
<path d="M259.798 179.349H28.8335V233.379H259.798V179.349Z" fill="white"/>
</mask>
<g mask="url(#mask2_174001_2900)">
<path d="M32.585 196.68C43.9952 196.443 55.4054 196.331 66.8156 196.15C60.0611 196.899 53.3128 197.699 46.5707 198.549C45.0043 198.752 44.1623 199.686 43.9085 200.762C43.1284 200.751 42.336 200.734 41.5497 200.722C38.6213 200.672 37.3583 203.459 38.1818 205.277C37.7731 205.277 37.3707 205.277 36.9621 205.277C32.9503 205.306 32.1516 211.004 36.2254 210.987C38.4913 210.976 40.7511 211.009 43.0108 211.004C42.5589 211.595 42.3174 212.287 42.3174 212.991C40.6891 213.098 39.0609 213.16 37.4326 213.273C33.1051 213.56 34.139 219.624 38.4542 219.337C39.3704 219.275 40.2867 219.224 41.2092 219.168C40.491 221.003 41.8531 223.712 44.7567 223.593C46.5521 223.52 48.3599 223.486 50.1553 223.419C48.5456 225.125 49.8829 228.751 53.2323 228.605C54.4953 228.554 55.7645 228.52 57.0212 228.469C55.8635 230.254 57.2317 233.458 60.383 233.368C106.798 232.017 153.237 231.302 199.683 231.24C206.072 231.228 212.461 231.228 218.85 231.251C225.394 231.262 232.402 231.921 238.872 230.981C241.918 230.536 242.023 227.017 239.671 225.908C240.668 225.84 241.664 225.806 242.649 225.688C245.998 225.288 245.713 220.925 242.55 220.44C242.215 220.39 241.881 220.378 241.553 220.333C242.76 219.556 243.033 218.115 242.407 216.983C242.859 216.995 243.311 217.017 243.757 217.028C245.026 217.051 245.924 216.437 246.357 215.638C248.19 215.638 250.016 215.649 251.836 215.626C254.969 215.576 254.777 210.936 251.743 210.66C249.942 210.497 248.128 210.441 246.326 210.311C247.069 210.204 247.825 210.103 248.561 209.939C251.434 209.286 251.57 205.581 248.462 205.114C246.976 204.889 245.478 204.799 243.967 204.754C243.955 204.168 243.738 203.6 243.311 203.155C248.023 203.07 252.734 203.008 257.445 202.811C260.609 202.682 260.522 197.84 257.346 197.71C250.524 197.44 243.689 197.327 236.86 197.276C236.656 196.578 236.173 195.976 235.312 195.768C233.814 195.396 232.266 195.176 230.719 194.923C233.096 194.923 235.467 194.94 237.838 194.923C241.256 194.895 242.085 190.233 238.482 189.974C238.445 189.974 238.408 189.974 238.365 189.974C237.968 189.343 237.355 188.819 236.272 188.684C232.242 188.217 228.199 187.862 224.144 187.553C223.976 186.365 223.147 185.261 221.611 185.171C214.919 184.782 208.208 184.687 201.497 184.63C201.986 183.071 201.181 181.094 199.045 180.999C186.359 180.441 173.538 181.139 160.846 181.348C148.402 181.556 135.958 181.764 123.514 181.978C119.087 182.057 114.66 182.125 110.234 182.204C103.801 181.933 97.3686 181.697 90.936 181.382C78.5724 180.773 66.2026 180.098 53.8266 179.355C51.1954 179.197 49.8891 181.398 50.2358 183.2C49.3752 183.217 48.5271 183.228 47.6665 183.245C46.1187 183.273 45.2829 184.073 45.0229 185.086C40.7944 185.238 36.5597 185.374 32.3312 185.554C29.0808 185.7 28.858 189.146 30.7648 190.784C27.465 191.612 28.6041 196.764 32.585 196.685V196.68Z" fill="white"/>
</g>
<path d="M49.8954 106.847C48.6227 106.847 47.442 106.641 46.3531 106.227C45.2796 105.814 44.3441 105.231 43.5464 104.48C42.7641 103.729 42.1504 102.848 41.7054 101.836C41.2756 100.824 41.0605 99.7203 41.06 98.5243C41.0595 97.3283 41.2738 96.2242 41.7027 95.212C42.1469 94.1998 42.7676 93.3179 43.5646 92.5662C44.3616 91.8146 45.2967 91.2315 46.3699 90.8171C47.4431 90.4027 48.6083 90.1952 49.8657 90.1947C51.1383 90.1942 52.3037 90.4007 53.3619 90.8143C54.4354 91.2279 55.3633 91.8102 56.1456 92.5612C56.9433 93.3122 57.5646 94.1936 58.0097 95.2054C58.4547 96.2019 58.6775 97.3058 58.678 98.5172C58.6785 99.7132 58.4566 100.825 58.0124 101.852C57.5681 102.865 56.9475 103.747 56.1504 104.498C55.3687 105.234 54.4413 105.81 53.3681 106.224C52.3103 106.639 51.1527 106.846 49.8954 106.847ZM49.8711 103.673C50.5918 103.672 51.251 103.549 51.8489 103.304C52.4622 103.058 52.9987 102.705 53.4585 102.245C53.9183 101.785 54.2708 101.241 54.5159 100.612C54.7763 99.9831 54.9063 99.2853 54.906 98.5187C54.9057 97.752 54.7751 97.0544 54.5142 96.4258C54.2686 95.7973 53.9157 95.2531 53.4555 94.7933C53.0107 94.3334 52.4815 93.981 51.8681 93.7359C51.2547 93.4908 50.5876 93.3684 49.8669 93.3687C49.1463 93.369 48.4793 93.4919 47.8661 93.7375C47.2682 93.9831 46.7393 94.336 46.2795 94.7962C45.8197 95.2563 45.4596 95.8008 45.1992 96.4296C44.9541 97.0584 44.8317 97.7561 44.832 98.5227C44.8323 99.2741 44.9553 99.9717 45.2009 100.616C45.4618 101.244 45.8147 101.788 46.2595 102.248C46.7197 102.708 47.2565 103.06 47.8699 103.306C48.4834 103.551 49.1504 103.673 49.8711 103.673ZM61.4815 106.566L61.475 90.466L68.444 90.4632C69.8853 90.4626 71.1274 90.6998 72.1703 91.1747C73.2132 91.6343 74.0184 92.301 74.5861 93.1747C75.1538 94.0485 75.4379 95.0911 75.4384 96.3024C75.4389 97.4984 75.1556 98.5335 74.5886 99.4077C74.0216 100.267 73.2169 100.926 72.1744 101.387C71.1319 101.847 69.89 102.078 68.4487 102.078L63.5497 102.08L65.205 100.447L65.2075 106.565L61.4815 106.566ZM71.7165 106.562L67.6892 100.722L71.6682 100.72L75.7415 106.56L71.7165 106.562ZM65.2052 100.861L63.5485 99.1132L68.2405 99.1113C69.3905 99.1108 70.2491 98.8652 70.8162 98.3743C71.3833 97.868 71.6667 97.1779 71.6664 96.3039C71.666 95.4146 71.3821 94.7247 70.8145 94.2343C70.247 93.7438 69.3882 93.4988 68.2382 93.4993L63.5462 93.5012L65.2015 91.7295L65.2052 100.861ZM78.3946 106.559L78.3881 90.4592L86.2541 90.456C88.2781 90.4552 89.7963 90.8379 90.8086 91.6042C91.8362 92.3705 92.3503 93.3822 92.3508 94.6396C92.3511 95.4829 92.1444 96.219 91.7307 96.8478C91.3169 97.4613 90.7498 97.9369 90.0293 98.2745C89.3087 98.6121 88.4808 98.7811 87.5455 98.7815L87.9821 97.8383C88.9941 97.8379 89.8911 98.0062 90.6733 98.3433C91.4554 98.6649 92.0613 99.1477 92.4909 99.7915C92.9358 100.435 93.1584 101.225 93.1588 102.16C93.1594 103.54 92.6155 104.621 91.5271 105.404C90.4388 106.171 88.8366 106.555 86.7206 106.556L78.3946 106.559ZM82.0965 103.752L86.4435 103.75C87.4095 103.75 88.1377 103.596 88.6283 103.289C89.1341 102.967 89.3869 102.461 89.3867 101.771C89.3864 101.096 89.1332 100.598 88.6271 100.276C88.1363 99.9389 87.4079 99.7706 86.4419 99.771L81.8189 99.7728L81.8178 97.0588L85.7968 97.0572C86.7014 97.0569 87.3914 96.9032 87.8666 96.5964C88.3571 96.2742 88.6022 95.7911 88.602 95.1471C88.6017 94.5184 88.3562 94.0509 87.8654 93.7444C87.39 93.4226 86.6999 93.2619 85.7952 93.2622L82.0922 93.2637L82.0965 103.752ZM95.9815 106.552L95.975 90.4521L99.701 90.4506L99.7075 106.551L95.9815 106.552ZM106.863 106.548L106.858 93.4837L101.706 93.4858L101.705 90.4498L115.735 90.4442L115.736 93.4802L110.584 93.4822L110.589 106.546L106.863 106.548ZM124.606 106.61C123.456 106.61 122.39 106.403 121.408 105.99C120.427 105.576 119.568 105.002 118.832 104.266C118.095 103.515 117.52 102.649 117.106 101.668C116.707 100.686 116.507 99.6285 116.506 98.4938C116.506 97.3592 116.712 96.3011 117.126 95.3196C117.54 94.3381 118.114 93.4792 118.85 92.7429C119.586 91.9913 120.444 91.4083 121.425 90.9939C122.422 90.5795 123.495 90.372 124.645 90.3716C125.795 90.3711 126.861 90.5777 127.842 90.9913C128.839 91.3895 129.698 91.9565 130.419 92.6922C131.155 93.4279 131.723 94.2864 132.122 95.2675C132.536 96.2334 132.744 97.2913 132.744 98.4413C132.745 99.5913 132.538 100.665 132.125 101.662C131.711 102.643 131.129 103.51 130.378 104.261C129.642 104.998 128.783 105.573 127.802 105.987C126.821 106.402 125.756 106.609 124.606 106.61ZM126.766 102.952L124.557 99.5486L126.949 99.5476L129.158 102.951L126.766 102.952ZM124.605 105.115C125.54 105.114 126.407 104.945 127.204 104.608C128.001 104.255 128.698 103.779 129.296 103.181C129.894 102.582 130.354 101.877 130.675 101.064C131.012 100.251 131.181 99.3773 131.18 98.4419C131.18 97.5066 131.011 96.6403 130.673 95.8431C130.351 95.0306 129.898 94.3331 129.315 93.7507C128.748 93.1529 128.065 92.6932 127.268 92.3715C126.47 92.0345 125.596 91.8662 124.646 91.8666C123.71 91.8669 122.836 92.036 122.024 92.3736C121.227 92.7113 120.529 93.1869 119.931 93.8005C119.349 94.3987 118.897 95.0965 118.575 95.894C118.254 96.6915 118.093 97.5579 118.093 98.4932C118.094 99.4285 118.255 100.302 118.577 101.115C118.9 101.912 119.352 102.61 119.935 103.207C120.518 103.805 121.208 104.273 122.006 104.61C122.803 104.947 123.67 105.115 124.605 105.115ZM121.108 102.954L121.104 94.03L124.991 94.0284C126.203 94.0279 127.154 94.3112 127.844 94.8783C128.534 95.4453 128.879 96.2195 128.88 97.2009C128.88 98.2282 128.535 99.018 127.846 99.5703C127.156 100.107 126.205 100.376 124.994 100.376L123.499 100.377L123.5 102.953L121.108 102.954ZM123.475 98.583L124.832 98.5825C125.369 98.5823 125.783 98.4594 126.074 98.214C126.381 97.9685 126.534 97.6311 126.534 97.2018C126.534 96.7571 126.38 96.4122 126.073 96.167C125.782 95.9218 125.368 95.7993 124.831 95.7995L123.474 95.8L123.475 98.583ZM141.772 107.454L141.771 105.384L152.719 105.379L152.72 107.449L141.772 107.454ZM146.119 108.211L140.203 94.1603L143.929 94.1588L148.257 104.806L146.417 104.807L150.898 94.156L154.325 94.1546L148.35 108.21L146.119 108.211ZM149.039 104.875L149.042 110.993L145.454 110.994L145.451 104.876L149.039 104.875ZM161.634 106.71C160.3 106.71 159.111 106.442 158.068 105.906C157.026 105.355 156.205 104.596 155.607 103.63C155.024 102.664 154.732 101.568 154.731 100.341C154.731 99.0994 155.022 98.003 155.604 97.0521C156.202 96.0858 157.022 95.3342 158.064 94.7971C159.106 94.2447 160.295 93.9682 161.629 93.9676C162.932 93.9671 164.067 94.2427 165.033 94.7943C165.999 95.3306 166.713 96.1046 167.173 97.1164L164.391 98.6125C164.068 98.03 163.662 97.6008 163.171 97.325C162.696 97.0492 162.174 96.9114 161.607 96.9117C160.994 96.9119 160.442 97.0501 159.951 97.3263C159.46 97.6025 159.07 97.9937 158.778 98.4998C158.503 99.0059 158.365 99.6193 158.365 100.34C158.366 101.061 158.504 101.674 158.78 102.18C159.072 102.686 159.463 103.077 159.953 103.352C160.444 103.628 160.996 103.766 161.61 103.766C162.177 103.765 162.698 103.635 163.173 103.374C163.664 103.098 164.07 102.661 164.392 102.063L167.176 103.579C166.716 104.576 166.003 105.351 165.037 105.903C164.072 106.44 162.937 106.709 161.634 106.71ZM182.099 106.517L182.094 94.1434L185.659 94.142L185.664 106.516L182.099 106.517ZM175.863 98.1019C177.488 98.1166 178.707 98.4841 179.52 99.2044C180.348 99.9094 180.763 100.914 180.763 102.217C180.764 103.582 180.297 104.647 179.362 105.414C178.427 106.166 177.1 106.542 175.383 106.543L169.357 106.523L169.352 94.1485L172.917 94.1471L172.919 98.1031L175.863 98.1019ZM175.06 103.99C175.75 104.005 176.279 103.859 176.647 103.553C177.015 103.246 177.199 102.786 177.198 102.172C177.198 101.559 177.014 101.122 176.646 100.862C176.278 100.586 175.749 100.44 175.059 100.425L172.92 100.403L172.921 103.991L175.06 103.99ZM189.123 106.515L189.118 94.1406L192.683 94.1391L192.685 98.9691L198.067 98.967L198.065 94.137L201.653 94.1355L201.658 106.51L198.07 106.511L198.068 101.888L192.686 101.89L192.688 106.513L189.123 106.515ZM204.033 102.369L204.032 100.184L213.876 100.18L213.877 102.365L204.033 102.369ZM205.736 106.508L205.731 94.1339L215.644 94.1299L215.646 97.0739L208.493 97.0768L209.297 96.2944L209.301 106.506L205.736 106.508ZM225.121 106.5L225.12 104.085L224.89 103.556L224.889 99.2321C224.888 98.4655 224.65 97.8676 224.175 97.4384C223.715 97.0093 223.002 96.7949 222.036 96.7953C221.376 96.7956 220.725 96.9032 220.081 97.1181C219.452 97.3177 218.916 97.5939 218.471 97.9467L217.182 95.4403C217.856 94.9646 218.669 94.5963 219.62 94.3353C220.57 94.0742 221.536 93.9435 222.517 93.9431C224.403 93.9423 225.868 94.3864 226.911 95.2753C227.954 96.1642 228.476 97.5517 228.477 99.4377L228.479 106.499L225.121 106.5ZM221.35 106.686C220.384 106.686 219.555 106.525 218.865 106.204C218.175 105.867 217.646 105.414 217.278 104.847C216.91 104.28 216.725 103.644 216.725 102.938C216.725 102.202 216.901 101.558 217.253 101.006C217.621 100.454 218.196 100.025 218.978 99.7175C219.76 99.3952 220.779 99.2338 222.037 99.2333L225.326 99.232L225.326 101.325L222.428 101.326C221.585 101.326 221.002 101.465 220.681 101.741C220.374 102.017 220.221 102.362 220.221 102.776C220.221 103.236 220.398 103.604 220.75 103.88C221.118 104.14 221.617 104.27 222.246 104.27C222.844 104.27 223.38 104.132 223.855 103.856C224.331 103.564 224.675 103.142 224.89 102.59L225.443 104.246C225.182 105.043 224.707 105.649 224.017 106.063C223.327 106.478 222.438 106.685 221.35 106.686ZM231.596 106.497L231.591 94.1234L235.156 94.122L235.158 98.952L240.54 98.9498L240.538 94.1198L244.126 94.1184L244.131 106.492L240.543 106.494L240.541 101.871L235.159 101.873L235.161 106.496L231.596 106.497ZM40.938 129.574L36.7956 123.711L39.7159 121.985L45.1699 129.573L40.938 129.574ZM32.175 129.578L32.17 117.204L35.758 117.202L35.763 129.576L32.175 129.578ZM34.7031 124.885L34.7019 122.01L39.0259 122.008L39.0271 124.883L34.7031 124.885ZM40.0616 123.802L36.7035 123.435L41.048 117.2L44.866 117.199L40.0616 123.802ZM50.4452 131.249L44.5285 117.199L48.2545 117.197L52.5828 127.845L50.7428 127.845L55.2235 117.195L58.6505 117.193L52.6762 131.249L50.4452 131.249ZM53.3648 127.913L53.3673 134.031L49.7793 134.033L49.7768 127.915L53.3648 127.913ZM68.8482 126.619L68.0665 127.447L68.0624 117.189L71.6504 117.188L71.6545 127.446L70.8262 126.618L76.5302 126.616L75.7255 127.444L75.7214 117.186L79.2864 117.185L79.2913 129.559L60.4083 129.566L60.4034 117.192L63.9684 117.191L63.9725 127.449L63.1672 126.621L68.8482 126.619ZM85.3795 129.556L85.3754 119.298L86.1807 120.126L81.1897 120.128L81.1885 117.184L93.1255 117.179L93.1267 120.123L88.1357 120.125L88.9404 119.297L88.9445 129.555L85.3795 129.556ZM95.0201 129.552L95.0151 117.179L98.6031 117.177L98.6081 129.551L95.0201 129.552ZM96.8084 115.453C96.1491 115.453 95.6123 115.262 95.1982 114.878C94.784 114.495 94.5768 114.02 94.5766 113.453C94.5764 112.885 94.7832 112.41 95.197 112.026C95.6109 111.643 96.1475 111.451 96.8068 111.451C97.4661 111.451 98.0029 111.634 98.417 112.002C98.8312 112.355 99.0384 112.815 99.0386 113.382C99.0388 113.98 98.832 114.478 98.4182 114.877C98.0197 115.261 97.4831 115.453 96.8084 115.453ZM123.446 129.541L120.154 123.677L123.052 121.951L127.701 129.539L123.446 129.541ZM118.039 124.851L118.038 121.976L122.339 121.974L122.34 124.849L118.039 124.851ZM123.42 123.768L120.039 123.401L123.602 117.167L127.397 117.165L123.42 123.768ZM111.21 129.546L106.978 129.548L111.598 121.956L114.496 123.68L111.21 129.546ZM119.099 129.543L115.557 129.544L115.552 117.17L119.094 117.169L119.099 129.543ZM116.613 124.852L112.335 124.854L112.334 121.979L116.612 121.977L116.613 124.852ZM111.23 123.773L107.249 117.174L111.044 117.172L114.588 123.404L111.23 123.773ZM133.079 131.216L127.162 117.166L130.888 117.164L135.217 127.811L133.377 127.812L137.857 117.161L141.284 117.16L135.31 131.215L133.079 131.216ZM135.999 127.88L136.001 133.998L132.413 133.999L132.411 127.881L135.999 127.88ZM140.602 129.511L140.785 126.567C140.877 126.582 140.969 126.598 141.061 126.613C141.153 126.613 141.237 126.613 141.314 126.613C141.743 126.613 142.081 126.49 142.326 126.244C142.571 125.999 142.755 125.669 142.877 125.255C143 124.826 143.084 124.343 143.13 123.806C143.191 123.269 143.237 122.71 143.267 122.127L143.449 117.159L154.029 117.155L154.034 129.529L150.446 129.53L150.442 119.226L151.247 120.1L145.819 120.102L146.578 119.182L146.418 122.287C146.373 123.391 146.281 124.403 146.143 125.323C146.021 126.243 145.814 127.04 145.523 127.715C145.232 128.375 144.842 128.888 144.351 129.257C143.861 129.609 143.232 129.786 142.465 129.786C142.189 129.786 141.898 129.764 141.591 129.718C141.285 129.672 140.955 129.603 140.602 129.511ZM165.994 127.914L165.991 120.094L161.943 120.096L161.874 121.683C161.844 122.342 161.806 122.971 161.76 123.569C161.714 124.167 161.623 124.711 161.485 125.202C161.362 125.677 161.178 126.083 160.933 126.421C160.688 126.743 160.358 126.965 159.945 127.088L156.402 126.584C156.847 126.584 157.207 126.453 157.483 126.192C157.759 125.916 157.974 125.54 158.127 125.065C158.28 124.574 158.395 124.022 158.471 123.409C158.547 122.78 158.601 122.121 158.631 121.431L158.791 117.153L169.578 117.148L169.582 127.912L165.994 127.914ZM155.991 132.196L155.988 126.584L171.352 126.578L171.355 132.19L168.02 132.191L168.018 129.523L159.324 129.527L159.326 132.195L155.991 132.196ZM179.661 129.702C178.25 129.703 177.008 129.427 175.934 128.876C174.876 128.324 174.055 127.573 173.472 126.623C172.889 125.657 172.597 124.561 172.597 123.334C172.596 122.092 172.88 120.996 173.447 120.045C174.029 119.079 174.818 118.327 175.815 117.79C176.811 117.238 177.938 116.961 179.195 116.961C180.407 116.96 181.495 117.22 182.462 117.741C183.443 118.247 184.218 118.983 184.786 119.948C185.353 120.899 185.637 122.041 185.638 123.375C185.638 123.513 185.63 123.674 185.615 123.858C185.6 124.027 185.585 124.188 185.569 124.341L175.518 124.345L175.518 122.252L183.683 122.249L182.303 122.87C182.303 122.226 182.172 121.667 181.911 121.191C181.65 120.716 181.29 120.348 180.83 120.088C180.37 119.812 179.833 119.674 179.219 119.675C178.606 119.675 178.062 119.813 177.587 120.089C177.127 120.35 176.767 120.726 176.506 121.217C176.246 121.692 176.116 122.259 176.116 122.919L176.116 123.471C176.116 124.145 176.262 124.743 176.554 125.265C176.861 125.771 177.282 126.161 177.819 126.437C178.371 126.698 179.015 126.828 179.751 126.827C180.411 126.827 180.986 126.727 181.476 126.528C181.982 126.328 182.442 126.029 182.856 125.63L184.766 127.699C184.199 128.344 183.486 128.842 182.627 129.195C181.769 129.533 180.78 129.702 179.661 129.702ZM186.714 129.493L186.897 126.548C186.989 126.564 187.081 126.579 187.173 126.594C187.265 126.594 187.35 126.594 187.426 126.594C187.856 126.594 188.193 126.471 188.438 126.226C188.683 125.98 188.867 125.651 188.99 125.237C189.112 124.807 189.196 124.324 189.242 123.788C189.303 123.251 189.349 122.691 189.379 122.108L189.561 117.14L200.141 117.136L200.146 129.51L196.558 129.512L196.554 119.208L197.36 120.081L191.932 120.083L192.69 119.163L192.531 122.268C192.485 123.372 192.393 124.384 192.256 125.304C192.133 126.224 191.927 127.022 191.636 127.697C191.345 128.356 190.954 128.87 190.463 129.238C189.973 129.591 189.344 129.767 188.578 129.768C188.302 129.768 188.01 129.745 187.704 129.699C187.397 129.653 187.067 129.584 186.714 129.493ZM209.646 129.69C208.235 129.691 206.993 129.415 205.92 128.864C204.861 128.312 204.041 127.561 203.458 126.611C202.875 125.645 202.583 124.549 202.582 123.322C202.582 122.08 202.865 120.984 203.432 120.033C204.014 119.067 204.804 118.315 205.8 117.778C206.797 117.225 207.923 116.949 209.181 116.948C210.392 116.948 211.481 117.208 212.447 117.729C213.429 118.235 214.203 118.97 214.771 119.936C215.339 120.887 215.623 122.029 215.623 123.363C215.623 123.501 215.616 123.662 215.601 123.846C215.585 124.015 215.57 124.176 215.555 124.329L205.504 124.333L205.503 122.24L213.668 122.237L212.288 122.858C212.288 122.214 212.157 121.655 211.896 121.179C211.636 120.704 211.275 120.336 210.815 120.076C210.355 119.8 209.818 119.662 209.205 119.662C208.591 119.663 208.047 119.801 207.572 120.077C207.112 120.338 206.752 120.714 206.491 121.205C206.231 121.68 206.101 122.247 206.101 122.907L206.101 123.459C206.102 124.133 206.248 124.731 206.539 125.253C206.846 125.758 207.268 126.149 207.805 126.425C208.357 126.685 209.001 126.816 209.737 126.815C210.396 126.815 210.971 126.715 211.462 126.516C211.967 126.316 212.427 126.017 212.841 125.618L214.751 127.687C214.184 128.331 213.471 128.83 212.613 129.183C211.754 129.521 210.765 129.69 209.646 129.69ZM225.667 129.684C224.624 129.684 223.712 129.455 222.93 128.995C222.148 128.535 221.534 127.838 221.089 126.903C220.659 125.952 220.444 124.756 220.444 123.315C220.443 121.858 220.65 120.662 221.063 119.727C221.477 118.791 222.074 118.093 222.856 117.633C223.638 117.173 224.573 116.942 225.662 116.942C226.827 116.941 227.87 117.209 228.79 117.746C229.726 118.267 230.462 119.002 230.999 119.953C231.552 120.903 231.828 122.022 231.829 123.31C231.829 124.614 231.554 125.741 231.002 126.692C230.466 127.643 229.73 128.379 228.795 128.901C227.875 129.422 226.832 129.683 225.667 129.684ZM218.355 133.965L218.348 117.129L221.775 117.127L221.776 119.657L221.709 123.337L221.94 126.994L221.943 133.963L218.355 133.965ZM225.045 126.74C225.643 126.74 226.172 126.602 226.632 126.325C227.107 126.049 227.483 125.658 227.758 125.152C228.049 124.631 228.195 124.017 228.195 123.312C228.194 122.591 228.048 121.978 227.757 121.472C227.481 120.966 227.105 120.575 226.629 120.299C226.169 120.024 225.64 119.886 225.042 119.886C224.444 119.886 223.908 120.025 223.432 120.301C222.957 120.577 222.582 120.968 222.306 121.474C222.03 121.98 221.892 122.594 221.893 123.314C221.893 124.02 222.031 124.633 222.307 125.154C222.584 125.66 222.959 126.051 223.435 126.327C223.91 126.603 224.447 126.74 225.045 126.74ZM242.675 127.883L242.672 120.063L238.624 120.065L238.556 121.652C238.526 122.311 238.487 122.94 238.442 123.538C238.396 124.136 238.304 124.68 238.166 125.171C238.044 125.646 237.86 126.053 237.615 126.39C237.37 126.712 237.04 126.935 236.626 127.057L233.084 126.553C233.529 126.553 233.889 126.422 234.165 126.161C234.441 125.885 234.655 125.51 234.808 125.034C234.961 124.543 235.076 123.991 235.153 123.378C235.229 122.749 235.282 122.09 235.313 121.4L235.472 117.122L246.259 117.118L246.263 127.882L242.675 127.883ZM232.672 132.165L232.67 126.553L248.034 126.547L248.036 132.159L244.701 132.16L244.7 129.492L236.006 129.496L236.007 132.164L232.672 132.165ZM250.27 129.49L250.265 117.116L253.853 117.114L253.858 129.488L250.27 129.49ZM252.058 115.39C251.399 115.39 250.862 115.199 250.448 114.816C250.034 114.433 249.827 113.957 249.827 113.39C249.826 112.823 250.033 112.347 250.447 111.964C250.861 111.58 251.397 111.388 252.057 111.388C252.716 111.388 253.253 111.572 253.667 111.94C254.081 112.292 254.288 112.752 254.289 113.319C254.289 113.917 254.082 114.416 253.668 114.815C253.27 115.198 252.733 115.39 252.058 115.39ZM98.9802 153.471L98.9793 151.401L109.927 151.396L109.928 153.466L98.9802 153.471ZM103.327 154.228L97.4108 140.178L101.137 140.176L105.465 150.823L103.625 150.824L108.106 140.173L111.533 140.172L105.558 154.227L103.327 154.228ZM106.247 150.892L106.25 157.01L102.662 157.011L102.659 150.893L106.247 150.892ZM116.003 152.544L115.999 142.286L116.804 143.114L111.813 143.116L111.812 140.172L123.749 140.167L123.75 143.111L118.759 143.113L119.564 142.285L119.568 152.543L116.003 152.544ZM138.409 152.535L138.404 140.161L141.969 140.16L141.974 152.534L138.409 152.535ZM132.172 144.12C133.798 144.134 135.017 144.502 135.83 145.222C136.658 145.927 137.072 146.931 137.073 148.235C137.073 149.599 136.606 150.665 135.671 151.432C134.736 152.184 133.41 152.56 131.693 152.561L125.667 152.54L125.662 140.166L129.227 140.165L129.228 144.121L132.172 144.12ZM131.37 150.008C132.06 150.023 132.589 149.877 132.956 149.57C133.324 149.263 133.508 148.803 133.508 148.19C133.508 147.577 133.323 147.14 132.955 146.879C132.587 146.603 132.058 146.458 131.368 146.443L129.229 146.421L129.231 150.009L131.37 150.008ZM145.432 152.532L145.427 140.158L157.732 140.153L157.737 152.527L154.149 152.529L154.145 142.294L154.95 143.098L148.188 143.101L148.993 142.296L148.997 152.531L145.432 152.532ZM175.097 152.52L175.096 150.105L174.866 149.576L174.864 145.252C174.864 144.486 174.626 143.888 174.15 143.459C173.69 143.029 172.977 142.815 172.011 142.815C171.352 142.816 170.7 142.923 170.056 143.138C169.428 143.338 168.891 143.614 168.447 143.967L167.158 141.46C167.832 140.985 168.645 140.616 169.595 140.355C170.546 140.094 171.512 139.964 172.493 139.963C174.379 139.963 175.843 140.407 176.887 141.295C177.93 142.184 178.451 143.572 178.452 145.458L178.455 152.519L175.097 152.52ZM171.325 152.706C170.359 152.706 169.531 152.545 168.841 152.224C168.151 151.887 167.622 151.435 167.253 150.867C166.885 150.3 166.701 149.664 166.701 148.959C166.7 148.223 166.876 147.579 167.229 147.026C167.597 146.474 168.171 146.045 168.953 145.738C169.735 145.415 170.755 145.254 172.012 145.253L175.301 145.252L175.302 147.345L172.404 147.346C171.561 147.347 170.978 147.485 170.656 147.761C170.35 148.037 170.196 148.382 170.197 148.796C170.197 149.256 170.373 149.624 170.726 149.9C171.094 150.16 171.592 150.291 172.221 150.29C172.819 150.29 173.356 150.152 173.831 149.876C174.306 149.584 174.651 149.162 174.865 148.61L175.418 150.266C175.158 151.064 174.683 151.669 173.993 152.084C173.303 152.498 172.414 152.705 171.325 152.706ZM180.008 152.495L180.191 149.551C180.283 149.566 180.375 149.582 180.467 149.597C180.559 149.597 180.643 149.597 180.72 149.597C181.149 149.597 181.486 149.474 181.732 149.229C181.977 148.983 182.161 148.653 182.283 148.239C182.406 147.81 182.49 147.327 182.536 146.79C182.597 146.254 182.642 145.694 182.673 145.111L182.855 140.143L193.435 140.139L193.44 152.513L189.852 152.514L189.848 142.21L190.653 143.084L185.225 143.086L185.984 142.166L185.824 145.271C185.778 146.375 185.687 147.387 185.549 148.307C185.427 149.227 185.22 150.024 184.929 150.699C184.638 151.359 184.247 151.873 183.757 152.241C183.266 152.594 182.638 152.77 181.871 152.77C181.595 152.771 181.304 152.748 180.997 152.702C180.69 152.656 180.361 152.587 180.008 152.495Z" fill="white"/>
<path d="M85.2049 215.259L81.9232 205.786L86.1197 203.621L90.3566 215.317L85.2049 215.259ZM78.2381 207.284L79.0365 203.513L85.1401 203.582L84.3417 207.353L78.2381 207.284ZM86.0093 205.971L81.8152 205.42L89.3169 195.704L94.2166 195.759L86.0093 205.971ZM66.2221 215.046L60.8465 214.985L69.9648 203.439L73.4397 205.69L66.2221 215.046ZM77.8974 215.177L73.4457 215.127L77.5856 195.572L82.0373 195.622L77.8974 215.177ZM76.4462 207.264L70.3146 207.195L71.113 203.424L77.2446 203.493L76.4462 207.264ZM69.3784 205.785L65.4904 195.436L70.1661 195.489L73.4998 205.327L69.3784 205.785ZM101.015 213.505L99.4202 220.851L95.0525 220.802L96.6471 213.455L101.015 213.505ZM96.5225 217.066L93.0148 200.282L97.3266 200.33L99.9518 213.409L97.712 213.383L105.838 200.426L110.206 200.475L99.6583 217.101L96.5225 217.066ZM106.177 215.467L107.169 211.894C107.299 211.914 107.42 211.934 107.532 211.954C107.625 211.955 107.728 211.956 107.84 211.957C108.437 211.964 108.944 211.745 109.36 211.302C109.775 210.859 110.137 210.228 110.445 209.41C110.753 208.574 111.044 207.606 111.318 206.508L112.841 200.505L125.72 200.649L122.527 215.678L118.16 215.629L120.821 203.086L121.593 204.159L114.957 204.085L116.09 202.977L115.123 206.775C114.732 208.338 114.325 209.696 113.901 210.849C113.478 211.983 113.01 212.921 112.497 213.661C112.004 214.403 111.428 214.956 110.771 215.322C110.113 215.67 109.346 215.838 108.469 215.828C108.077 215.824 107.704 215.792 107.35 215.732C106.996 215.672 106.605 215.583 106.177 215.467ZM137.501 213.886L139.512 204.388L134.584 204.333L134.056 206.427C133.861 207.228 133.656 207.981 133.443 208.688C133.248 209.396 133.017 210.046 132.749 210.641C132.481 211.216 132.168 211.698 131.809 212.086C131.45 212.456 130.999 212.712 130.456 212.855L126.012 212.133C126.553 212.139 127.031 211.977 127.445 211.645C127.879 211.295 128.257 210.824 128.581 210.23C128.924 209.618 129.231 208.93 129.5 208.168C129.771 207.387 130.013 206.578 130.228 205.74L131.488 200.714L144.62 200.862L141.868 213.935L137.501 213.886ZM124.227 218.946L125.676 212.129L144.379 212.34L142.93 219.156L138.87 219.11L139.551 215.87L128.967 215.751L128.287 218.991L124.227 218.946ZM154.365 216.26C152.797 216.242 151.437 215.947 150.286 215.374C149.154 214.801 148.276 214.007 147.653 212.992C147.03 211.977 146.726 210.788 146.741 209.426C146.76 207.746 147.15 206.257 147.911 204.959C148.691 203.642 149.748 202.609 151.082 201.858C152.435 201.108 153.979 200.743 155.715 200.762C157.189 200.779 158.455 201.073 159.513 201.645C160.571 202.198 161.384 202.973 161.951 203.968C162.538 204.946 162.823 206.116 162.808 207.478C162.803 207.87 162.771 208.262 162.711 208.653C162.669 209.045 162.609 209.417 162.53 209.771L150.071 209.631L150.547 207.088L160.515 207.2L158.714 207.964C158.873 207.126 158.834 206.426 158.598 205.863C158.362 205.281 157.974 204.838 157.437 204.534C156.899 204.21 156.247 204.044 155.482 204.036C154.53 204.025 153.715 204.249 153.038 204.708C152.38 205.149 151.878 205.769 151.533 206.568C151.188 207.366 151.01 208.27 150.999 209.278C150.986 210.435 151.293 211.306 151.922 211.892C152.569 212.46 153.545 212.751 154.852 212.765C155.617 212.774 156.356 212.661 157.068 212.426C157.78 212.191 158.39 211.853 158.899 211.411L160.687 214.315C159.802 214.996 158.807 215.498 157.702 215.821C156.616 216.127 155.503 216.273 154.365 216.26ZM162.009 216.094L163.001 212.521C163.132 212.541 163.253 212.561 163.365 212.581C163.458 212.582 163.561 212.583 163.673 212.584C164.27 212.591 164.776 212.373 165.192 211.929C165.608 211.486 165.969 210.855 166.277 210.037C166.585 209.201 166.876 208.233 167.15 207.135L168.673 201.132L181.553 201.276L178.36 216.305L173.992 216.256L176.653 203.714L177.425 204.786L170.789 204.712L171.922 203.604L170.955 207.402C170.564 208.965 170.157 210.324 169.733 211.476C169.31 212.61 168.842 213.548 168.33 214.289C167.836 215.03 167.26 215.583 166.603 215.949C165.946 216.297 165.178 216.465 164.301 216.456C163.909 216.451 163.536 216.419 163.182 216.359C162.828 216.299 162.437 216.211 162.009 216.094ZM190.593 216.667C189.025 216.649 187.665 216.354 186.514 215.781C185.382 215.208 184.504 214.414 183.881 213.399C183.258 212.384 182.954 211.195 182.969 209.833C182.988 208.153 183.378 206.664 184.139 205.366C184.92 204.049 185.977 203.016 187.31 202.265C188.663 201.515 190.207 201.15 191.943 201.169C193.418 201.186 194.684 201.48 195.741 202.052C196.799 202.605 197.612 203.38 198.179 204.375C198.766 205.353 199.051 206.523 199.036 207.885C199.032 208.277 198.999 208.669 198.939 209.06C198.897 209.452 198.837 209.824 198.758 210.178L186.299 210.038L186.776 207.495L196.743 207.607L194.942 208.371C195.101 207.533 195.062 206.832 194.826 206.27C194.59 205.688 194.203 205.245 193.665 204.941C193.127 204.617 192.475 204.451 191.71 204.443C190.758 204.432 189.944 204.656 189.266 205.115C188.608 205.556 188.106 206.176 187.761 206.974C187.416 207.773 187.238 208.677 187.227 209.685C187.214 210.842 187.522 211.713 188.15 212.299C188.797 212.866 189.773 213.157 191.08 213.172C191.845 213.181 192.584 213.068 193.296 212.833C194.008 212.598 194.619 212.26 195.128 211.818L196.915 214.722C196.03 215.403 195.035 215.905 193.93 216.228C192.844 216.534 191.731 216.68 190.593 216.667ZM209.934 216.884C208.721 216.871 207.66 216.625 206.75 216.148C205.86 215.672 205.196 214.945 204.759 213.97C204.322 212.976 204.177 211.705 204.326 210.157C204.458 208.366 204.839 206.812 205.47 205.493C206.12 204.175 206.99 203.158 208.08 202.442C209.171 201.727 210.454 201.377 211.928 201.394C213.104 201.407 214.184 201.69 215.167 202.242C216.151 202.776 216.935 203.55 217.521 204.565C218.107 205.561 218.392 206.777 218.376 208.214C218.362 209.465 218.134 210.629 217.693 211.707C217.252 212.766 216.644 213.683 215.87 214.459C215.115 215.234 214.23 215.84 213.217 216.277C212.205 216.695 211.11 216.897 209.934 216.884ZM199.152 221.971L203.47 201.523L207.614 201.569L206.965 204.558L205.962 209.027L205.324 213.5L203.52 222.02L199.152 221.971ZM209.471 213.267C210.348 213.277 211.116 213.08 211.774 212.677C212.432 212.255 212.952 211.682 213.333 210.958C213.733 210.216 213.939 209.35 213.95 208.361C213.962 207.334 213.672 206.519 213.082 205.915C212.491 205.311 211.645 205.003 210.544 204.99C209.704 204.981 208.946 205.187 208.269 205.609C207.592 206.012 207.063 206.585 206.681 207.327C206.3 208.051 206.104 208.907 206.093 209.897C206.081 210.923 206.371 211.738 206.961 212.342C207.552 212.947 208.388 213.255 209.471 213.267Z" fill="#F84F9F"/>
<defs>
<filter id="filter0_f_174001_2900" x="14.4471" y="15.2834" width="265.988" height="271.825" filterUnits="userSpaceOnUse" color-interpolation-filters="sRGB">
<feFlood flood-opacity="0" result="BackgroundImageFix"/>
<feBlend mode="normal" in="SourceGraphic" in2="BackgroundImageFix" result="shape"/>
<feGaussianBlur stdDeviation="3.52473" result="effect1_foregroundBlur_174001_2900"/>
</filter>
</defs>
</svg>
