<svg width="355" height="354" viewBox="0 0 355 354" fill="none" xmlns="http://www.w3.org/2000/svg">
<g style="mix-blend-mode:multiply" filter="url(#filter0_f_171537_2499)">
<path d="M314.059 300.774L70.6429 318.556C66.5616 235.403 63.5375 153.883 55.0565 71.0336L293.524 53.6129C297.934 137.589 306.323 218.717 314.059 300.774Z" fill="#525252" fill-opacity="0.35"/>
</g>
<path d="M302.633 299.944L53.6934 301.156C55.3203 218.814 56.1975 136.492 53.3261 54.1718L300.613 52.9681C299.263 136.127 300.464 218.455 302.633 299.944Z" fill="#EA2C86"/>
<mask id="mask0_171537_2499" style="mask-type:alpha" maskUnits="userSpaceOnUse" x="53" y="52" width="250" height="250">
<path d="M302.633 299.944L53.6934 301.156C55.3203 218.814 56.1975 136.492 53.3261 54.1719L300.613 52.9683C299.263 136.127 300.464 218.456 302.633 299.944Z" fill="#EA2C86"/>
</mask>
<g mask="url(#mask0_171537_2499)">
<rect x="54.0679" y="54.0397" width="245.879" height="44.9053" transform="rotate(-0.217935 54.0679 54.0397)" fill="#DA1D76"/>
</g>
<path d="M116.172 132.21C117.123 132.668 117.682 133.323 117.85 134.174C118.046 135.226 117.562 136.224 116.398 137.168C115.26 138.112 114.149 138.409 113.066 138.059C112.009 137.722 111.358 137.261 111.113 136.677L110.847 136.059C110.766 135.9 110.757 135.733 110.823 135.559C110.901 135.385 111.02 135.264 111.179 135.196C111.352 135.114 111.525 135.106 111.699 135.171C111.873 135.236 111.994 135.355 112.062 135.528L112.328 136.145C112.355 136.185 112.402 136.238 112.469 136.304C112.537 136.357 112.657 136.429 112.831 136.521C113.006 136.612 113.22 136.704 113.474 136.795C114.089 136.989 114.781 136.769 115.548 136.136C116.302 135.515 116.63 134.946 116.532 134.427C116.434 133.907 115.957 133.512 115.101 133.24C114.887 133.175 114.7 133.117 114.54 133.065C114.192 132.948 113.951 132.87 113.818 132.831C113.777 132.819 113.737 132.806 113.697 132.793C113.697 132.793 113.684 132.819 113.658 132.873C113.605 132.887 113.497 132.774 113.335 132.536C113.199 132.297 113.184 132.104 113.289 131.956C113.408 131.809 113.574 131.7 113.787 131.632L114.105 131.509C114.239 131.508 114.458 131.466 114.764 131.383C114.844 131.369 114.931 131.348 115.024 131.32C115.516 131.169 115.997 130.585 116.468 129.567C116.677 129.112 116.727 128.765 116.618 128.526C116.522 128.273 116.227 128.049 115.732 127.854C114.648 127.397 113.813 127.298 113.229 127.557L112.073 128.047C111.914 128.129 111.748 128.137 111.574 128.072C111.4 127.994 111.272 127.875 111.19 127.715C111.122 127.543 111.121 127.369 111.186 127.195C111.264 127.021 111.383 126.9 111.542 126.832L112.698 126.322C113.641 125.913 114.828 126.009 116.26 126.609C117.037 126.935 117.548 127.41 117.794 128.035C118.053 128.659 118.019 129.353 117.693 130.116C117.235 131.093 116.728 131.791 116.172 132.21ZM125.706 131.242C125.368 130.752 125.026 130.515 124.679 130.531C124.626 130.532 124.533 130.599 124.401 130.734C124.269 130.855 124.071 131.11 123.808 131.499C123.545 131.875 123.289 132.331 123.041 132.867C122.348 134.353 122.344 135.4 123.03 136.007C123.151 136.112 123.258 136.191 123.352 136.244C123.527 136.389 123.694 136.427 123.853 136.359C124.026 136.291 124.224 136.062 124.447 135.674C125.077 134.588 125.447 133.558 125.558 132.583C125.633 131.996 125.682 131.549 125.706 131.242ZM127.041 130.67C127.054 130.71 127.068 130.783 127.083 130.889L127.651 131.764C127.746 131.923 127.774 132.096 127.736 132.283C127.697 132.457 127.605 132.598 127.46 132.706C127.393 132.733 127.32 132.761 127.24 132.788C127.341 133.64 127.53 134.512 127.804 135.403L128.32 137.098C128.362 137.271 128.337 137.445 128.245 137.619C128.166 137.78 128.041 137.887 127.868 137.942C127.695 137.984 127.521 137.966 127.347 137.887C127.186 137.795 127.078 137.663 127.024 137.49L126.508 135.795C126.425 135.529 126.35 135.256 126.28 134.977C126.098 135.432 125.869 135.887 125.593 136.343C125.252 136.946 124.829 137.35 124.324 137.555C123.819 137.76 123.272 137.711 122.683 137.41C122.508 137.305 122.327 137.173 122.139 137.015C120.956 135.959 120.848 134.387 121.816 132.298C122.3 131.293 122.746 130.536 123.155 130.025C123.577 129.502 124.054 129.224 124.587 129.192C125.36 129.158 126.037 129.499 126.617 130.214L127.041 130.67ZM131.466 130.589C131.397 130.43 131.396 130.27 131.461 130.109C131.54 129.935 131.658 129.814 131.818 129.746C131.843 129.585 131.908 129.451 132.014 129.344C132.133 129.223 132.272 129.161 132.432 129.16C132.632 129.145 132.806 129.203 132.954 129.335C133.473 129.184 134.232 129.057 135.231 128.954C136.456 128.81 137.196 128.763 137.45 128.814L137.75 128.891C137.937 128.916 138.078 129.008 138.173 129.167C138.281 129.326 138.316 129.499 138.278 129.686C138.239 129.86 138.14 130.001 137.981 130.109C137.836 130.204 137.669 130.232 137.482 130.194L137.202 130.136C136.988 130.111 136.382 130.157 135.383 130.273C134.411 130.388 133.685 130.515 133.206 130.653L133.278 131.892C133.371 133.318 133.422 134.544 133.432 135.571C133.428 136.584 133.434 137.318 133.452 137.771L133.458 138.451C133.473 138.637 133.415 138.798 133.282 138.933C133.15 139.067 132.991 139.135 132.804 139.137C132.631 139.152 132.477 139.093 132.343 138.961C132.208 138.829 132.133 138.676 132.118 138.503L132.112 137.823C132.095 137.357 132.088 136.61 132.092 135.583C132.082 134.57 132.038 133.37 131.958 131.984C131.929 131.651 131.906 131.318 131.889 130.985C131.675 130.92 131.534 130.788 131.466 130.589ZM143.571 140.738C143.773 140.936 143.828 141.162 143.737 141.416L143.66 141.697C143.647 141.711 143.634 141.737 143.621 141.778C143.608 141.818 143.575 141.878 143.522 141.958C143.47 142.052 143.41 142.126 143.344 142.18C143.278 142.234 143.178 142.255 143.045 142.243C142.911 142.244 142.771 142.192 142.623 142.087C142.409 141.955 142.267 141.81 142.199 141.651C142.145 141.504 142.136 141.305 142.174 141.051C142.211 140.797 142.23 140.657 142.23 140.63C142.21 139.87 142.15 138.491 142.052 136.492C142.035 136.065 142.011 135.659 141.981 135.272C141.82 135.234 141.693 135.142 141.598 134.996C141.503 134.85 141.469 134.697 141.494 134.537L141.588 133.896C141.639 133.615 141.716 133.315 141.82 132.994C141.789 132.567 141.752 132.181 141.709 131.835L141.493 130.117C141.478 129.943 141.523 129.783 141.629 129.635C141.747 129.488 141.893 129.406 142.066 129.391C142.253 129.363 142.42 129.408 142.568 129.527C142.715 129.632 142.803 129.778 142.832 129.964L142.941 130.963C143.178 130.668 143.462 130.359 143.792 130.035C144.215 129.605 144.666 129.321 145.145 129.183C145.623 129.045 146.124 129.081 146.646 129.289C147.583 129.694 148.167 130.829 148.397 132.693C148.641 134.571 148.088 136.009 146.737 137.009C145.399 137.994 144.301 138.158 143.441 137.499C143.508 138.938 143.551 139.971 143.57 140.598C143.57 140.625 143.57 140.671 143.571 140.738ZM143.344 135.62L144.191 136.392C144.527 136.696 145.112 136.537 145.947 135.916C146.874 135.241 147.251 134.224 147.079 132.865C146.992 132.146 146.854 131.594 146.663 131.209C146.487 130.824 146.304 130.592 146.117 130.514C145.689 130.331 145.23 130.489 144.741 130.987C144.081 131.646 143.626 132.237 143.378 132.759C143.312 132.907 143.247 133.047 143.181 133.181C143.241 133.901 143.296 134.714 143.344 135.62ZM157.306 128.331C157.465 128.223 157.632 128.188 157.806 128.226C157.992 128.251 158.133 128.343 158.228 128.503C158.336 128.648 158.378 128.808 158.353 128.981L158.2 129.803C158.112 130.337 157.94 131.259 157.685 132.568C157.431 133.877 157.132 135.46 156.789 137.316C156.789 137.316 156.789 137.323 156.789 137.336C156.816 137.376 156.857 137.442 156.911 137.535C156.965 137.628 157.013 137.701 157.053 137.754C157.148 137.9 157.176 138.066 157.138 138.253C157.1 138.44 157.001 138.581 156.842 138.676C156.749 138.73 156.642 138.764 156.523 138.779C156.32 139.901 156.181 140.749 156.106 141.323L155.937 142.564C155.926 142.751 155.841 142.898 155.681 143.007C155.536 143.128 155.37 143.176 155.183 143.151C155.009 143.126 154.862 143.041 154.74 142.895C154.632 142.75 154.591 142.583 154.616 142.396L154.764 141.155C154.864 140.407 155.067 139.225 155.372 137.609L155.311 137.53C154.905 136.88 154.362 135.852 153.683 134.445C153.03 133.077 152.534 132.082 152.195 131.458L151.666 130.523C151.572 130.364 151.55 130.197 151.602 130.024C151.653 129.836 151.759 129.702 151.918 129.621C152.077 129.526 152.244 129.504 152.418 129.556C152.605 129.608 152.746 129.713 152.84 129.872L153.369 130.807C153.722 131.444 154.231 132.466 154.897 133.873C155.21 134.524 155.495 135.095 155.753 135.586C155.982 134.33 156.185 133.242 156.363 132.32C156.618 131.011 156.789 130.089 156.878 129.555L157.03 128.754C157.069 128.567 157.161 128.426 157.306 128.331ZM161.555 130.012C161.514 129.826 161.539 129.652 161.631 129.491C161.723 129.33 161.855 129.229 162.028 129.188C162.214 129.146 162.388 129.171 162.549 129.263L163.675 129.932C164.372 130.339 165.029 130.787 165.647 131.274L165.444 128.696C165.428 128.51 165.48 128.349 165.599 128.215C165.731 128.067 165.884 127.985 166.057 127.97C166.243 127.955 166.404 128.014 166.539 128.146C166.686 128.265 166.768 128.411 166.783 128.584L166.986 131.182C167.016 131.448 167.038 131.702 167.053 131.941C167.395 131.392 167.755 130.662 168.133 129.751L168.916 127.844C168.981 127.683 169.1 127.569 169.273 127.501C169.445 127.419 169.612 127.418 169.773 127.496C169.947 127.561 170.068 127.68 170.136 127.853C170.217 128.012 170.219 128.179 170.141 128.353L169.358 130.26C168.824 131.598 168.293 132.597 167.766 133.255C167.66 133.389 167.581 133.503 167.529 133.597C167.877 133.807 168.42 134.116 169.157 134.522C170.122 135.073 170.72 135.481 170.949 135.746L171.232 136.063C171.339 136.195 171.388 136.355 171.376 136.542C171.364 136.729 171.286 136.883 171.14 137.004C171.008 137.125 170.849 137.18 170.662 137.168C170.475 137.157 170.328 137.078 170.22 136.932L169.937 136.615C169.802 136.47 169.319 136.161 168.488 135.688C167.912 135.36 167.449 135.098 167.101 134.901C167.089 135.101 167.078 135.288 167.066 135.461C166.982 136.502 166.934 137.116 166.923 137.303L166.925 137.583C166.914 137.77 166.835 137.93 166.69 138.065C166.558 138.186 166.398 138.248 166.211 138.249C166.038 138.238 165.884 138.166 165.749 138.034C165.628 137.888 165.573 137.722 165.585 137.535L165.582 137.255C165.594 137.055 165.641 136.421 165.725 135.354C165.738 135.327 165.744 135.3 165.744 135.274C165.572 135.435 165.387 135.597 165.189 135.759L164.097 136.689C163.951 136.797 163.785 136.845 163.598 136.833C163.425 136.822 163.278 136.743 163.156 136.597C163.035 136.452 162.98 136.292 162.992 136.119C163.017 135.932 163.095 135.778 163.227 135.657L164.319 134.747C164.967 134.194 165.376 133.717 165.546 133.315C165.638 133.115 165.475 132.849 165.059 132.52C164.414 131.992 163.723 131.512 162.985 131.079L161.859 130.409C161.698 130.317 161.597 130.185 161.555 130.012ZM179.064 130.751C178.726 130.261 178.384 130.024 178.038 130.04C177.984 130.041 177.892 130.108 177.759 130.243C177.627 130.364 177.43 130.619 177.166 131.008C176.903 131.384 176.647 131.84 176.399 132.375C175.706 133.862 175.702 134.909 176.388 135.516C176.509 135.621 176.616 135.7 176.71 135.753C176.885 135.898 177.052 135.936 177.211 135.868C177.384 135.8 177.582 135.571 177.805 135.183C178.435 134.097 178.805 133.067 178.917 132.092C178.991 131.505 179.04 131.058 179.064 130.751ZM180.399 130.179C180.413 130.218 180.427 130.292 180.441 130.398L181.009 131.273C181.104 131.432 181.132 131.605 181.094 131.792C181.055 131.966 180.963 132.107 180.818 132.215C180.751 132.242 180.678 132.269 180.598 132.297C180.7 133.149 180.888 134.021 181.163 134.912L181.678 136.607C181.72 136.78 181.695 136.954 181.603 137.128C181.524 137.288 181.399 137.396 181.226 137.451C181.053 137.493 180.879 137.474 180.705 137.396C180.545 137.304 180.437 137.172 180.382 136.999L179.866 135.304C179.784 135.038 179.708 134.765 179.639 134.486C179.456 134.941 179.227 135.396 178.951 135.852C178.61 136.455 178.187 136.859 177.682 137.064C177.177 137.268 176.63 137.22 176.041 136.919C175.867 136.814 175.685 136.682 175.497 136.524C174.314 135.468 174.206 133.896 175.174 131.807C175.658 130.802 176.104 130.045 176.513 129.534C176.935 129.01 177.412 128.733 177.945 128.701C178.718 128.667 179.395 129.008 179.975 129.722L180.399 130.179ZM185.484 125.792C185.496 125.605 185.561 125.451 185.68 125.33C185.812 125.195 185.971 125.134 186.158 125.145C186.345 125.144 186.505 125.209 186.64 125.341L187.145 125.856C187.374 126.081 187.588 126.205 187.788 126.23C187.908 126.243 187.988 126.222 188.028 126.168L188.324 125.805C188.443 125.671 188.596 125.596 188.782 125.581C188.969 125.566 189.129 125.618 189.264 125.737C189.411 125.842 189.493 125.988 189.508 126.174C189.523 126.361 189.471 126.528 189.352 126.676L189.056 127.039C188.713 127.455 188.241 127.633 187.641 127.572C187.12 127.51 186.631 127.248 186.173 126.785L185.669 126.27C185.547 126.138 185.486 125.978 185.484 125.792ZM184.926 128.117C185.058 127.982 185.217 127.914 185.404 127.912C185.59 127.897 185.751 127.956 185.885 128.088C186.02 128.207 186.094 128.353 186.109 128.526L186.182 129.865C186.23 130.758 186.32 131.864 186.452 133.183C186.54 134.022 186.607 134.768 186.653 135.421C187.111 134.51 187.608 133.486 188.145 132.347C188.825 130.888 189.369 129.923 189.778 129.452C190.174 128.995 190.471 128.686 190.67 128.524C190.841 128.376 191.001 128.294 191.147 128.279C191.307 128.265 191.441 128.303 191.548 128.396C191.656 128.488 191.75 128.594 191.831 128.713C191.912 128.819 191.974 128.959 192.015 129.132C192.07 129.291 192.104 129.411 192.118 129.491C192.146 129.557 192.16 129.617 192.16 129.67C192.273 130.309 192.423 131.455 192.612 133.106C192.8 134.745 192.918 136.004 192.967 136.883L193.059 138.202C193.06 138.376 193.002 138.53 192.883 138.664C192.764 138.812 192.612 138.893 192.425 138.908C192.239 138.923 192.071 138.865 191.924 138.733C191.789 138.614 191.721 138.461 191.719 138.275L191.627 136.975C191.579 136.109 191.461 134.864 191.273 133.239C191.127 131.88 191.004 130.868 190.905 130.202C190.865 130.256 190.832 130.296 190.806 130.323C190.476 130.699 189.997 131.564 189.37 132.916C188.703 134.322 188.101 135.555 187.564 136.613C187.551 136.626 187.518 136.693 187.466 136.814C187.413 136.921 187.367 137.008 187.328 137.075C187.289 137.142 187.23 137.236 187.151 137.357C187.085 137.464 187.012 137.551 186.933 137.619C186.854 137.686 186.761 137.747 186.655 137.801C186.562 137.842 186.449 137.863 186.315 137.864C186.195 137.852 186.068 137.807 185.934 137.728C185.84 137.689 185.76 137.636 185.693 137.57C185.625 137.491 185.571 137.425 185.531 137.372C185.504 137.318 185.476 137.245 185.449 137.152C185.435 137.059 185.421 136.999 185.407 136.973C185.407 136.933 185.406 136.859 185.405 136.753C185.404 136.646 185.404 136.593 185.404 136.593C185.342 135.727 185.246 134.634 185.113 133.315C184.981 131.97 184.891 130.844 184.842 129.938L184.77 128.598C184.755 128.412 184.807 128.251 184.926 128.117ZM213.609 130.393C213.653 130.766 213.704 131.252 213.763 131.851C213.779 132.118 213.801 132.404 213.831 132.711C213.907 133.764 213.97 134.783 214.019 135.769C214.068 136.756 214.1 137.329 214.115 137.488L214.137 137.748C214.152 137.921 214.093 138.075 213.961 138.21C213.843 138.358 213.69 138.439 213.504 138.454C213.33 138.469 213.17 138.417 213.022 138.299C212.888 138.18 212.813 138.027 212.798 137.841L212.775 137.581C212.761 137.408 212.729 136.828 212.679 135.842C212.647 135.189 212.607 134.516 212.561 133.823C211.955 134.602 211.152 134.982 210.151 134.965C209.058 134.935 208.288 134.575 207.841 133.886C207.476 133.316 207.167 132.339 206.914 130.954L206.556 128.998C206.528 128.811 206.566 128.644 206.672 128.497C206.777 128.336 206.916 128.241 207.089 128.213C207.275 128.184 207.442 128.223 207.59 128.328C207.751 128.433 207.852 128.572 207.894 128.745L208.232 130.702C208.457 131.927 208.704 132.745 208.975 133.156C209.164 133.447 209.559 133.604 210.159 133.625C210.772 133.632 211.25 133.395 211.592 132.911C211.829 132.549 211.999 132.194 212.103 131.847C212.181 131.633 212.225 131.412 212.237 131.185C212.261 130.892 212.272 130.645 212.27 130.445C212.296 130.418 212.323 130.385 212.349 130.344C212.388 130.304 212.454 130.23 212.547 130.123C212.652 130.002 212.752 129.907 212.844 129.84C212.95 129.759 213.05 129.691 213.142 129.637C213.249 129.583 213.335 129.575 213.402 129.615C213.482 129.641 213.543 129.72 213.584 129.853C213.612 129.973 213.62 130.153 213.609 130.393ZM220.055 131.334C220.241 131.318 220.434 131.303 220.634 131.288C221.807 131.211 222.6 131.17 223.013 131.166C223.093 131.166 223.18 131.165 223.273 131.164C223.232 131.031 223.177 130.891 223.109 130.745C222.986 130.4 222.817 130.095 222.601 129.83C222.493 129.724 222.2 129.734 221.721 129.858C221.122 129.997 220.626 130.375 220.232 130.992C220.166 131.099 220.107 131.213 220.055 131.334ZM219.867 132.675C219.87 132.995 219.913 133.342 219.997 133.714C220.234 134.925 220.622 135.755 221.16 136.204C221.711 136.665 222.106 136.908 222.346 136.933L222.907 136.968C223.094 136.992 223.248 137.078 223.369 137.223C223.49 137.356 223.538 137.515 223.514 137.702C223.502 137.875 223.423 138.023 223.278 138.144C223.145 138.265 222.986 138.32 222.799 138.309L222.239 138.274C221.718 138.225 221.075 137.878 220.309 137.231C219.516 136.585 218.973 135.504 218.679 133.986C218.595 133.547 218.545 133.134 218.528 132.748C218.488 132.748 218.461 132.748 218.448 132.748L217.948 132.773C217.761 132.788 217.594 132.73 217.446 132.598C217.312 132.466 217.244 132.313 217.242 132.139C217.24 131.953 217.299 131.792 217.418 131.658C217.55 131.523 217.702 131.449 217.876 131.434L218.395 131.409C218.462 131.408 218.542 131.407 218.635 131.407C218.738 130.992 218.895 130.618 219.105 130.282C219.696 129.343 220.464 128.763 221.409 128.541C222.447 128.305 223.188 128.451 223.633 128.981C223.943 129.351 224.187 129.782 224.365 130.274C224.543 130.739 224.653 131.105 224.695 131.371C224.737 131.584 224.693 131.818 224.562 132.072C224.431 132.327 224.205 132.462 223.885 132.478C223.739 132.493 223.459 132.502 223.046 132.506C222.646 132.51 221.873 132.55 220.727 132.627C220.407 132.644 220.12 132.66 219.867 132.675ZM227.981 127.96C228.1 127.813 228.246 127.731 228.419 127.716C228.605 127.688 228.772 127.733 228.92 127.852C229.068 127.957 229.156 128.103 229.184 128.289L229.442 130.287C229.486 130.66 229.529 131.006 229.572 131.326C230.007 130.775 230.448 130.198 230.896 129.594L231.766 128.446C231.871 128.298 232.017 128.217 232.203 128.202C232.39 128.173 232.55 128.212 232.684 128.317C232.832 128.422 232.92 128.568 232.948 128.755C232.977 128.941 232.938 129.108 232.833 129.256L231.964 130.404C231.384 131.183 230.818 131.921 230.264 132.62L230.106 132.801L230.207 132.9C230.637 133.35 231.332 134.203 232.29 135.461C233.221 136.679 233.855 137.453 234.192 137.784L234.736 138.299C234.858 138.431 234.919 138.59 234.921 138.777C234.923 138.964 234.857 139.118 234.725 139.239C234.606 139.373 234.454 139.441 234.267 139.443C234.08 139.445 233.92 139.386 233.785 139.267L233.26 138.732C232.87 138.363 232.196 137.542 231.238 136.271C230.617 135.476 230.111 134.841 229.72 134.365C229.725 134.858 229.736 135.351 229.754 135.844L229.784 137.004C229.786 137.191 229.721 137.351 229.589 137.486C229.47 137.62 229.317 137.689 229.131 137.69C228.944 137.692 228.783 137.633 228.649 137.515C228.514 137.383 228.446 137.223 228.445 137.037L228.414 135.877C228.394 135.13 228.38 134.384 228.373 133.637C228.198 133.385 228.189 133.125 228.346 132.857C228.313 132.204 228.233 131.405 228.104 130.459L227.846 128.462C227.831 128.275 227.876 128.108 227.981 127.96ZM238.149 136.527C238.254 136.326 238.406 136.198 238.605 136.143C238.805 136.074 238.998 136.086 239.186 136.178C239.373 136.269 239.501 136.415 239.57 136.614L239.631 136.794C239.714 137.033 239.723 137.333 239.66 137.693L239.603 138.074C239.578 138.274 239.48 138.435 239.308 138.557C239.136 138.692 238.943 138.74 238.729 138.702C238.529 138.677 238.361 138.579 238.226 138.407C238.105 138.234 238.056 138.041 238.081 137.828L238.138 137.467C238.163 137.374 238.169 137.3 238.156 137.247L238.114 137.108C238.046 136.908 238.057 136.715 238.149 136.527ZM138.719 152.423C138.545 152.358 138.418 152.246 138.336 152.087C138.255 151.914 138.246 151.741 138.312 151.567C138.377 151.393 138.489 151.265 138.648 151.184L139.265 150.878C139.411 150.81 139.564 150.755 139.724 150.714C139.843 150.619 139.976 150.578 140.123 150.59C140.163 150.59 140.203 150.589 140.243 150.589C140.642 150.519 141.175 150.474 141.841 150.454C142.988 150.404 143.854 150.409 144.442 150.47C144.989 150.519 145.329 150.549 145.463 150.561C145.929 150.583 146.232 150.874 146.371 151.433C146.426 151.699 146.507 152.458 146.612 153.71C146.703 154.936 146.766 155.989 146.801 156.869C146.835 157.749 146.855 158.375 146.858 158.748L146.863 159.308C146.852 159.495 146.78 159.656 146.648 159.79C146.515 159.912 146.356 159.973 146.169 159.975C145.996 159.976 145.842 159.911 145.707 159.779C145.573 159.647 145.511 159.488 145.523 159.301L145.518 158.761C145.515 158.401 145.496 157.788 145.461 156.921C145.426 156.055 145.364 155.022 145.273 153.823C145.197 152.85 145.131 152.197 145.075 151.865C144.888 151.853 144.634 151.829 144.314 151.792C143.793 151.743 142.987 151.744 141.894 151.794C141.481 151.811 141.108 151.841 140.775 151.884L140.765 153.064C140.755 153.358 140.744 153.665 140.734 153.985C140.724 154.411 140.702 154.878 140.667 155.385C140.669 155.625 140.678 155.879 140.694 156.145C140.721 157.625 140.638 158.792 140.446 159.648C140.459 159.661 140.466 159.681 140.467 159.707C140.467 159.734 140.467 159.794 140.468 159.887C140.469 159.967 140.456 160.041 140.43 160.108C140.417 160.161 140.391 160.228 140.352 160.308C140.313 160.389 140.253 160.449 140.174 160.49C140.107 160.517 140.021 160.538 139.914 160.552C139.808 160.58 139.668 160.561 139.494 160.496C139.293 160.445 139.139 160.346 139.031 160.201C138.936 160.041 138.888 159.855 138.886 159.642C138.884 159.415 138.895 159.202 138.92 159.002C138.945 158.801 138.983 158.574 139.034 158.32C139.085 158.053 139.116 157.86 139.128 157.74C139.214 156.885 139.28 156.098 139.327 155.378C139.292 154.485 139.254 153.952 139.212 153.779L139.108 153.36C139.038 153.04 139.143 152.793 139.421 152.617L139.438 152.296L139.239 152.398C139.067 152.48 138.893 152.488 138.719 152.423ZM152.318 153.078C151.871 153.789 151.571 154.498 151.418 155.206C151.251 155.955 151.312 156.727 151.599 157.525C151.872 158.256 152.317 158.738 152.932 158.973C153.561 159.22 154.321 159.133 155.21 158.712C156.126 158.29 156.695 157.811 156.917 157.276C157.138 156.714 157.151 155.94 156.956 154.955C156.76 153.97 156.453 153.247 156.036 152.784C155.685 152.4 155.284 152.231 154.831 152.275C154.245 152.334 153.786 152.464 153.454 152.667L152.838 153.013C152.678 153.108 152.505 153.13 152.318 153.078ZM156.342 151.321C156.597 151.478 156.825 151.67 157.027 151.895C157.607 152.529 158.022 153.465 158.273 154.703C158.525 155.941 158.481 156.968 158.142 157.785C157.803 158.641 157.016 159.355 155.781 159.926C154.547 160.511 153.434 160.615 152.444 160.237C151.454 159.846 150.753 159.093 150.343 157.976C149.96 156.94 149.884 155.92 150.115 154.918C150.319 153.956 150.744 153.006 151.389 152.066C151.731 151.57 152.034 151.18 152.298 150.898C152.562 150.616 152.84 150.413 153.133 150.29C153.624 150.086 154.237 150.04 154.971 150.153L155.893 150.305C156.066 150.33 156.207 150.422 156.315 150.581C156.437 150.727 156.478 150.893 156.44 151.08C156.427 151.16 156.395 151.24 156.342 151.321ZM162.179 160.327C161.992 160.289 161.844 160.197 161.736 160.052C161.641 159.892 161.606 159.719 161.631 159.532C161.67 159.345 161.768 159.205 161.928 159.11L162.722 158.542C163.146 158.245 163.646 157.487 164.221 156.269C164.836 154.996 165.239 153.859 165.43 152.857C165.608 151.909 165.696 151.341 165.694 151.155C165.679 150.902 165.717 150.695 165.809 150.534C165.914 150.373 166.04 150.272 166.186 150.23C166.345 150.175 166.499 150.141 166.645 150.126C166.805 150.098 166.931 150.097 167.025 150.122C167.385 150.159 167.692 150.156 167.945 150.114C168.637 150.001 169.066 150.184 169.23 150.662C169.257 150.742 169.278 150.828 169.292 150.922C169.32 151.015 169.334 151.135 169.336 151.281C169.337 151.428 169.338 151.555 169.339 151.661C169.354 151.768 169.355 151.954 169.344 152.221C169.347 152.488 169.349 152.701 169.35 152.861C169.361 154.048 169.392 155.188 169.442 156.28C169.492 157.333 169.64 158.272 169.888 159.096L170.3 160.413C170.355 160.586 170.336 160.752 170.244 160.913C170.166 161.087 170.04 161.202 169.868 161.257C169.695 161.312 169.521 161.293 169.347 161.202C169.186 161.123 169.078 160.991 169.023 160.805L168.611 159.488C168.323 158.558 168.153 157.512 168.102 156.353C168.052 155.233 168.021 154.073 168.01 152.873C168.005 152.274 167.994 151.807 167.978 151.474C167.684 151.503 167.358 151.499 166.997 151.463C166.961 151.823 166.879 152.371 166.752 153.105C166.536 154.227 166.101 155.478 165.447 156.857C164.767 158.29 164.109 159.223 163.473 159.656L162.678 160.203C162.532 160.311 162.366 160.352 162.179 160.327ZM179.133 150.131C179.293 150.023 179.459 149.988 179.633 150.026C179.819 150.051 179.96 150.143 180.055 150.303C180.163 150.448 180.205 150.608 180.18 150.781L180.027 151.603C179.939 152.137 179.767 153.059 179.513 154.368C179.258 155.677 178.959 157.26 178.616 159.116C178.616 159.116 178.616 159.123 178.616 159.136C178.643 159.176 178.684 159.242 178.738 159.335C178.792 159.428 178.84 159.501 178.88 159.554C178.975 159.7 179.003 159.866 178.965 160.053C178.927 160.24 178.828 160.381 178.669 160.476C178.576 160.53 178.469 160.564 178.35 160.579C178.147 161.701 178.008 162.549 177.933 163.123L177.764 164.364C177.753 164.551 177.668 164.698 177.509 164.807C177.363 164.928 177.197 164.976 177.01 164.951C176.836 164.926 176.689 164.841 176.567 164.695C176.459 164.55 176.418 164.383 176.443 164.196L176.591 162.955C176.691 162.207 176.894 161.025 177.199 159.409L177.138 159.33C176.732 158.68 176.189 157.652 175.51 156.245C174.857 154.877 174.361 153.882 174.022 153.258L173.493 152.323C173.399 152.164 173.377 151.997 173.429 151.824C173.48 151.636 173.586 151.502 173.745 151.421C173.904 151.326 174.071 151.304 174.245 151.356C174.432 151.408 174.573 151.513 174.667 151.672L175.196 152.607C175.549 153.244 176.058 154.266 176.724 155.673C177.037 156.324 177.322 156.895 177.58 157.386C177.809 156.13 178.012 155.042 178.19 154.12C178.445 152.811 178.616 151.889 178.705 151.355L178.857 150.554C178.896 150.367 178.988 150.226 179.133 150.131ZM190.41 152.607C190.454 152.98 190.505 153.466 190.564 154.066C190.579 154.332 190.602 154.619 190.631 154.925C190.708 155.978 190.771 156.998 190.82 157.984C190.869 158.97 190.901 159.543 190.915 159.703L190.938 159.963C190.953 160.136 190.894 160.29 190.762 160.424C190.643 160.572 190.491 160.654 190.304 160.669C190.131 160.684 189.971 160.632 189.823 160.513C189.688 160.394 189.614 160.242 189.599 160.055L189.576 159.795C189.561 159.622 189.529 159.042 189.48 158.056C189.448 157.403 189.408 156.73 189.362 156.037C188.755 156.816 187.952 157.197 186.952 157.179C185.858 157.149 185.088 156.79 184.642 156.101C184.277 155.531 183.968 154.553 183.715 153.169L183.357 151.212C183.329 151.026 183.367 150.859 183.472 150.711C183.578 150.55 183.717 150.455 183.89 150.427C184.076 150.399 184.243 150.437 184.391 150.543C184.552 150.648 184.653 150.787 184.695 150.96L185.033 152.917C185.257 154.141 185.505 154.959 185.775 155.37C185.965 155.662 186.359 155.818 186.96 155.839C187.573 155.847 188.051 155.609 188.393 155.126C188.63 154.764 188.8 154.409 188.903 154.061C188.981 153.847 189.026 153.627 189.037 153.4C189.061 153.106 189.072 152.86 189.071 152.66C189.097 152.633 189.123 152.599 189.15 152.559C189.189 152.519 189.255 152.445 189.348 152.337C189.453 152.216 189.552 152.122 189.645 152.054C189.751 151.973 189.85 151.906 189.943 151.852C190.049 151.797 190.136 151.79 190.203 151.829C190.283 151.855 190.344 151.935 190.385 152.068C190.413 152.187 190.421 152.367 190.41 152.607ZM198.587 152.572C198.249 152.082 197.907 151.845 197.56 151.861C197.507 151.862 197.414 151.929 197.282 152.064C197.15 152.185 196.952 152.44 196.689 152.83C196.426 153.205 196.17 153.661 195.921 154.197C195.228 155.683 195.225 156.73 195.91 157.337C196.031 157.442 196.139 157.521 196.233 157.574C196.407 157.719 196.574 157.757 196.734 157.689C196.906 157.621 197.104 157.393 197.327 157.004C197.957 155.918 198.328 154.888 198.439 153.913C198.514 153.326 198.563 152.879 198.587 152.572ZM199.921 152C199.935 152.04 199.949 152.113 199.963 152.219L200.531 153.094C200.626 153.253 200.655 153.426 200.616 153.613C200.578 153.787 200.486 153.928 200.34 154.036C200.274 154.063 200.201 154.091 200.121 154.118C200.222 154.97 200.41 155.842 200.685 156.733L201.201 158.428C201.242 158.601 201.217 158.775 201.125 158.949C201.047 159.11 200.921 159.218 200.748 159.272C200.575 159.314 200.402 159.296 200.228 159.217C200.067 159.125 199.959 158.993 199.904 158.82L199.389 157.125C199.306 156.859 199.23 156.586 199.161 156.307C198.978 156.762 198.749 157.217 198.474 157.673C198.132 158.276 197.709 158.68 197.205 158.885C196.7 159.09 196.153 159.041 195.563 158.74C195.389 158.635 195.208 158.503 195.02 158.345C193.836 157.289 193.729 155.717 194.696 153.628C195.18 152.623 195.627 151.866 196.035 151.355C196.457 150.832 196.935 150.554 197.468 150.522C198.241 150.488 198.917 150.829 199.497 151.544L199.921 152ZM205.007 147.613C205.018 147.426 205.083 147.272 205.202 147.151C205.334 147.016 205.494 146.955 205.681 146.967C205.867 146.965 206.028 147.03 206.162 147.162L206.667 147.677C206.896 147.902 207.11 148.027 207.311 148.052C207.431 148.064 207.511 148.043 207.55 147.989L207.847 147.627C207.966 147.492 208.118 147.417 208.305 147.402C208.491 147.387 208.652 147.439 208.786 147.558C208.934 147.663 209.015 147.809 209.03 147.996C209.045 148.182 208.994 148.349 208.875 148.497L208.578 148.86C208.235 149.276 207.764 149.454 207.163 149.393C206.642 149.331 206.153 149.069 205.696 148.606L205.191 148.091C205.07 147.959 205.008 147.799 205.007 147.613ZM204.448 149.938C204.58 149.803 204.739 149.735 204.926 149.734C205.113 149.719 205.273 149.777 205.408 149.909C205.542 150.028 205.617 150.174 205.632 150.347L205.704 151.686C205.752 152.579 205.843 153.685 205.975 155.004C206.062 155.843 206.129 156.589 206.175 157.242C206.634 156.331 207.131 155.307 207.667 154.169C208.347 152.709 208.891 151.744 209.3 151.273C209.696 150.816 209.993 150.507 210.192 150.345C210.364 150.197 210.523 150.115 210.67 150.101C210.83 150.086 210.963 150.125 211.071 150.217C211.178 150.309 211.273 150.415 211.354 150.534C211.435 150.64 211.496 150.78 211.538 150.953C211.592 151.112 211.627 151.232 211.641 151.312C211.668 151.378 211.682 151.438 211.683 151.491C211.795 152.13 211.946 153.276 212.134 154.927C212.323 156.566 212.441 157.825 212.489 158.704L212.581 160.024C212.583 160.197 212.524 160.351 212.405 160.485C212.287 160.633 212.134 160.714 211.948 160.729C211.761 160.744 211.594 160.686 211.446 160.554C211.312 160.435 211.243 160.283 211.242 160.096L211.15 158.797C211.102 157.93 210.984 156.685 210.795 155.06C210.65 153.701 210.527 152.689 210.427 152.023C210.388 152.077 210.355 152.117 210.329 152.144C209.999 152.52 209.52 153.385 208.892 154.737C208.225 156.143 207.623 157.376 207.086 158.434C207.073 158.448 207.04 158.514 206.988 158.635C206.936 158.742 206.89 158.829 206.851 158.896C206.811 158.963 206.752 159.057 206.673 159.178C206.607 159.285 206.535 159.373 206.455 159.44C206.376 159.507 206.283 159.568 206.177 159.622C206.084 159.663 205.971 159.684 205.838 159.686C205.718 159.673 205.591 159.628 205.456 159.549C205.363 159.51 205.282 159.457 205.215 159.391C205.148 159.312 205.094 159.246 205.053 159.193C205.026 159.14 204.999 159.067 204.971 158.974C204.957 158.88 204.943 158.82 204.929 158.794C204.929 158.754 204.928 158.681 204.927 158.574C204.926 158.467 204.926 158.414 204.926 158.414C204.865 157.548 204.768 156.455 204.636 155.136C204.503 153.791 204.413 152.665 204.365 151.759L204.292 150.419C204.277 150.233 204.329 150.072 204.448 149.938ZM117.462 174.42C117.42 174.233 117.445 174.06 117.537 173.899C117.629 173.738 117.761 173.637 117.934 173.595C118.12 173.554 118.294 173.579 118.455 173.671L119.581 174.34C120.278 174.747 120.935 175.194 121.553 175.682L121.35 173.104C121.335 172.917 121.386 172.757 121.505 172.622C121.637 172.475 121.79 172.393 121.963 172.378C122.149 172.363 122.31 172.422 122.445 172.554C122.592 172.672 122.674 172.818 122.689 172.992L122.893 175.59C122.922 175.856 122.944 176.109 122.96 176.349C123.301 175.799 123.661 175.069 124.039 174.159L124.822 172.252C124.887 172.091 125.006 171.977 125.179 171.909C125.351 171.827 125.518 171.825 125.679 171.904C125.853 171.969 125.974 172.088 126.042 172.261C126.123 172.42 126.125 172.587 126.047 172.761L125.264 174.668C124.73 176.006 124.199 177.004 123.672 177.663C123.566 177.797 123.487 177.911 123.435 178.005C123.783 178.215 124.326 178.523 125.063 178.93C126.028 179.481 126.626 179.889 126.855 180.153L127.138 180.471C127.246 180.603 127.294 180.763 127.282 180.95C127.27 181.136 127.192 181.29 127.046 181.412C126.914 181.533 126.755 181.588 126.568 181.576C126.381 181.565 126.234 181.486 126.126 181.34L125.843 181.023C125.708 180.877 125.225 180.568 124.394 180.096C123.818 179.768 123.355 179.506 123.007 179.309C122.995 179.509 122.984 179.696 122.972 179.869C122.888 180.91 122.84 181.524 122.829 181.711L122.831 181.991C122.82 182.177 122.741 182.338 122.596 182.473C122.464 182.594 122.304 182.655 122.118 182.657C121.944 182.645 121.79 182.574 121.656 182.441C121.534 182.296 121.479 182.13 121.491 181.943L121.488 181.663C121.5 181.463 121.547 180.829 121.631 179.762C121.644 179.735 121.65 179.708 121.65 179.681C121.478 179.843 121.293 180.005 121.095 180.166L120.003 181.097C119.857 181.205 119.691 181.253 119.504 181.241C119.331 181.229 119.184 181.151 119.062 181.005C118.941 180.86 118.886 180.7 118.898 180.527C118.923 180.34 119.001 180.186 119.134 180.065L120.225 179.154C120.873 178.602 121.282 178.125 121.452 177.723C121.544 177.522 121.381 177.257 120.965 176.928C120.32 176.4 119.629 175.92 118.891 175.487L117.765 174.817C117.604 174.725 117.503 174.593 117.462 174.42ZM130.555 173.559C130.687 173.411 130.84 173.33 131.013 173.315C131.2 173.3 131.36 173.352 131.495 173.47C131.642 173.589 131.724 173.742 131.739 173.928L131.829 174.987C131.875 175.72 131.904 176.72 131.916 177.987C131.921 178.493 131.925 178.96 131.929 179.387C132.44 178.449 132.985 177.477 133.562 176.472C134.284 175.198 134.822 174.293 135.177 173.757C135.388 173.448 135.613 173.253 135.852 173.17C136.024 173.075 136.184 173.054 136.331 173.106C136.479 173.158 136.599 173.217 136.693 173.283C136.787 173.335 136.874 173.428 136.956 173.56C137.037 173.693 137.091 173.806 137.119 173.899C137.159 173.978 137.194 174.065 137.221 174.158C137.455 174.889 137.651 176.001 137.812 177.493C137.972 178.931 138.129 180.05 138.283 180.848C138.437 181.674 138.528 182.153 138.556 182.286L138.598 182.485C138.626 182.659 138.588 182.819 138.482 182.967C138.377 183.128 138.231 183.222 138.045 183.251C137.872 183.292 137.705 183.26 137.544 183.155C137.396 183.05 137.308 182.911 137.28 182.738L137.238 182.538C137.21 182.405 137.119 181.926 136.965 181.1C136.797 180.275 136.64 179.123 136.493 177.645C136.362 176.459 136.214 175.54 136.048 174.889C135.719 175.425 135.28 176.176 134.728 177.141C134.007 178.401 133.331 179.607 132.702 180.76C132.675 180.8 132.636 180.874 132.584 180.981C132.531 181.088 132.479 181.188 132.426 181.282C132.387 181.376 132.328 181.483 132.249 181.604C132.171 181.725 132.085 181.825 131.992 181.906C131.913 181.987 131.82 182.061 131.714 182.129C131.608 182.183 131.488 182.204 131.355 182.192C131.235 182.18 131.101 182.134 130.954 182.056C130.86 182.003 130.779 181.944 130.712 181.878C130.658 181.799 130.617 181.732 130.59 181.679C130.563 181.613 130.542 181.54 130.528 181.46C130.514 181.38 130.507 181.32 130.506 181.28C130.506 181.227 130.512 181.167 130.525 181.1C130.537 181.033 130.544 180.993 130.544 180.98C130.577 180.219 130.587 179.226 130.576 177.999C130.565 176.759 130.536 175.793 130.489 175.1L130.4 174.041C130.385 173.854 130.437 173.694 130.555 173.559ZM143.086 174.564C142.925 174.472 142.817 174.34 142.762 174.167C142.721 173.981 142.746 173.807 142.838 173.646C142.929 173.485 143.069 173.384 143.255 173.342L144.472 173.011C145.549 172.721 146.485 172.986 147.279 173.805C147.724 174.268 147.915 174.766 147.853 175.3C147.805 175.82 147.536 176.296 147.046 176.727C146.887 176.862 146.729 176.99 146.57 177.112C146.623 177.138 146.67 177.158 146.71 177.171C147.192 177.406 147.529 177.75 147.72 178.201C147.911 178.653 147.928 179.139 147.773 179.661C147.489 180.65 146.855 181.323 145.872 181.678C144.915 181.994 144 181.909 143.129 181.424L142.104 180.833C141.943 180.741 141.835 180.609 141.78 180.436C141.738 180.25 141.757 180.076 141.835 179.916C141.927 179.755 142.06 179.653 142.233 179.612C142.419 179.557 142.592 179.575 142.753 179.667L143.799 180.258C144.321 180.546 144.868 180.594 145.44 180.402C145.972 180.211 146.321 179.841 146.49 179.293C146.567 179.025 146.579 178.832 146.524 178.712C146.47 178.593 146.336 178.481 146.121 178.376C145.585 178.101 145.224 177.958 145.037 177.946C145.037 177.946 144.889 177.781 144.593 177.45C144.309 177.053 144.293 176.793 144.546 176.67C144.638 176.63 144.705 176.602 144.745 176.589C144.785 176.575 144.805 176.568 144.805 176.568C144.818 176.568 144.838 176.574 144.865 176.588C144.891 176.587 144.925 176.587 144.965 176.587C145.177 176.505 145.575 176.214 146.157 175.716C146.435 175.473 146.58 175.292 146.592 175.172C146.604 175.051 146.516 174.912 146.328 174.754C145.897 174.305 145.396 174.156 144.824 174.308L143.587 174.639C143.414 174.681 143.247 174.656 143.086 174.564ZM151.307 178.068C151.16 177.95 151.072 177.804 151.043 177.631C151.028 177.444 151.074 177.277 151.179 177.129C151.297 176.982 151.443 176.894 151.616 176.865L152.375 176.758C152.429 176.758 152.489 176.751 152.555 176.737C152.545 175.603 152.538 174.897 152.536 174.617L152.551 174.077C152.549 173.89 152.614 173.736 152.747 173.615C152.879 173.48 153.031 173.412 153.205 173.411C153.391 173.409 153.552 173.474 153.687 173.606C153.821 173.738 153.889 173.898 153.891 174.084L153.876 174.625C153.878 174.891 153.885 175.584 153.895 176.704C154.295 176.701 154.768 176.71 155.315 176.731C156.716 176.772 157.75 176.822 158.417 176.883C158.59 176.895 158.75 176.906 158.897 176.918C158.977 175.491 159.081 174.45 159.208 173.795L159.42 172.833C159.458 172.646 159.55 172.506 159.696 172.411C159.855 172.303 160.021 172.268 160.195 172.306C160.382 172.345 160.523 172.443 160.618 172.602C160.726 172.748 160.76 172.914 160.722 173.101L160.531 174.083C160.403 174.658 160.306 175.639 160.238 177.026L160.719 177.062C160.905 177.073 161.059 177.152 161.181 177.297C161.302 177.43 161.357 177.589 161.345 177.776C161.333 177.949 161.255 178.103 161.109 178.238C160.977 178.359 160.818 178.407 160.631 178.382L160.191 178.367C160.16 179.34 160.153 180.04 160.17 180.467L160.198 181.387C160.213 181.573 160.155 181.734 160.023 181.868C159.891 182.003 159.731 182.078 159.545 182.093C159.372 182.094 159.218 182.036 159.083 181.917C158.949 181.785 158.874 181.625 158.859 181.439L158.83 180.519C158.813 180.039 158.819 179.286 158.85 178.259C158.676 178.247 158.496 178.235 158.309 178.224C157.655 178.163 156.641 178.113 155.268 178.072C154.761 178.05 154.307 178.041 153.907 178.044C153.922 179.618 153.944 180.604 153.975 181.004L154.001 181.664C154.016 181.85 153.964 182.017 153.845 182.165C153.727 182.3 153.574 182.374 153.387 182.389C153.201 182.391 153.033 182.333 152.886 182.214C152.751 182.082 152.683 181.929 152.681 181.756L152.635 181.096C152.605 180.67 152.582 179.67 152.568 178.097L152.548 178.097L151.809 178.184C151.622 178.212 151.455 178.174 151.307 178.068ZM164.633 173.245C164.765 173.098 164.917 173.016 165.09 173.001C165.277 172.986 165.437 173.038 165.572 173.157C165.72 173.275 165.801 173.428 165.816 173.615L165.906 174.674C165.953 175.407 165.982 176.406 165.993 177.673C165.998 178.18 166.002 178.646 166.006 179.073C166.518 178.135 167.062 177.163 167.64 176.158C168.361 174.885 168.9 173.98 169.255 173.443C169.465 173.134 169.69 172.939 169.929 172.857C170.102 172.762 170.262 172.74 170.409 172.792C170.556 172.844 170.676 172.903 170.77 172.969C170.864 173.021 170.952 173.114 171.033 173.247C171.114 173.379 171.168 173.492 171.196 173.585C171.237 173.665 171.271 173.751 171.298 173.844C171.532 174.575 171.729 175.687 171.889 177.179C172.049 178.617 172.206 179.736 172.36 180.535C172.514 181.36 172.605 181.839 172.633 181.972L172.675 182.172C172.703 182.345 172.665 182.505 172.56 182.653C172.454 182.814 172.309 182.909 172.122 182.937C171.949 182.979 171.782 182.947 171.621 182.842C171.474 182.736 171.386 182.597 171.357 182.424L171.316 182.224C171.288 182.091 171.197 181.612 171.042 180.787C170.875 179.962 170.717 178.81 170.57 177.331C170.44 176.145 170.291 175.227 170.125 174.575C169.797 175.111 169.357 175.862 168.806 176.827C168.084 178.087 167.408 179.293 166.779 180.446C166.753 180.486 166.713 180.56 166.661 180.667C166.609 180.774 166.556 180.875 166.504 180.969C166.465 181.062 166.406 181.169 166.327 181.29C166.248 181.411 166.162 181.512 166.07 181.593C165.99 181.673 165.898 181.747 165.792 181.815C165.685 181.869 165.566 181.891 165.432 181.878C165.312 181.866 165.178 181.821 165.031 181.742C164.937 181.69 164.856 181.63 164.789 181.564C164.735 181.485 164.695 181.419 164.667 181.365C164.64 181.299 164.619 181.226 164.605 181.146C164.591 181.066 164.584 181.006 164.584 180.966C164.583 180.913 164.589 180.853 164.602 180.786C164.615 180.719 164.621 180.679 164.621 180.666C164.654 179.906 164.665 178.912 164.653 177.685C164.642 176.445 164.613 175.479 164.567 174.786L164.477 173.727C164.462 173.54 164.514 173.38 164.633 173.245ZM186.306 174.286C186.211 174.127 186.183 173.96 186.222 173.787C186.273 173.6 186.372 173.459 186.518 173.364L186.876 173.161C186.994 172.906 187.186 172.778 187.452 172.775C187.479 172.775 187.499 172.775 187.512 172.775C188.215 172.382 188.981 172.241 189.809 172.354C190.343 172.429 190.758 172.672 191.055 173.082C191.366 173.493 191.564 174.004 191.649 174.617C191.708 175.15 191.626 175.637 191.403 176.079C191.194 176.521 190.864 176.871 190.413 177.128C190.774 177.338 191.07 177.622 191.3 177.98C191.557 178.351 191.668 178.75 191.631 179.177C191.609 179.591 191.439 179.952 191.121 180.262C190.58 180.787 189.822 181.067 188.849 181.103C188.756 181.104 188.569 181.112 188.289 181.128C188.264 181.288 188.185 181.422 188.053 181.53C187.934 181.638 187.794 181.693 187.634 181.694C187.448 181.696 187.287 181.631 187.153 181.499C187.018 181.366 186.95 181.207 186.948 181.02L186.967 180.88C186.806 180.802 186.698 180.676 186.643 180.503C186.602 180.317 186.62 180.15 186.699 180.003C186.751 179.882 186.837 179.788 186.956 179.72C186.949 178.88 186.924 177.634 186.882 175.981L186.849 174.601C186.596 174.59 186.415 174.485 186.306 174.286ZM188.297 179.768C188.457 179.766 188.623 179.765 188.797 179.763C189.423 179.744 189.882 179.587 190.172 179.291C190.278 179.196 190.331 179.122 190.33 179.069C190.343 179.016 190.295 178.896 190.187 178.71C189.944 178.339 189.555 178.123 189.021 178.061C188.728 178.077 188.474 178.02 188.259 177.888C188.28 178.635 188.292 179.255 188.297 179.748C188.297 179.748 188.297 179.755 188.297 179.768ZM188.227 176.588C188.307 176.521 188.4 176.46 188.506 176.406C188.612 176.352 188.705 176.311 188.785 176.283C188.864 176.256 188.971 176.228 189.104 176.2C189.237 176.159 189.323 176.132 189.363 176.118C189.775 175.981 190.047 175.818 190.179 175.63C190.31 175.429 190.354 175.149 190.311 174.789C190.254 174.376 190.171 174.097 190.063 173.951C189.955 173.792 189.808 173.7 189.621 173.675C189.1 173.6 188.614 173.691 188.163 173.949L188.222 175.948C188.224 176.162 188.225 176.375 188.227 176.588ZM205.382 172.87C205.514 172.722 205.666 172.641 205.839 172.626C206.026 172.611 206.187 172.663 206.321 172.782C206.469 172.9 206.55 173.053 206.565 173.239L206.655 174.299C206.702 175.032 206.731 176.031 206.743 177.298C206.747 177.805 206.751 178.271 206.755 178.698C207.267 177.76 207.811 176.788 208.389 175.783C209.11 174.509 209.649 173.604 210.004 173.068C210.214 172.759 210.439 172.564 210.678 172.482C210.851 172.387 211.011 172.365 211.158 172.417C211.305 172.469 211.425 172.528 211.519 172.594C211.613 172.646 211.701 172.739 211.782 172.871C211.863 173.004 211.918 173.117 211.945 173.21C211.986 173.29 212.02 173.376 212.048 173.469C212.281 174.2 212.478 175.312 212.638 176.804C212.798 178.242 212.955 179.361 213.109 180.16C213.263 180.985 213.354 181.464 213.382 181.597L213.424 181.797C213.452 181.97 213.414 182.13 213.309 182.278C213.203 182.439 213.058 182.533 212.871 182.562C212.698 182.603 212.531 182.572 212.37 182.466C212.223 182.361 212.135 182.222 212.106 182.049L212.065 181.849C212.037 181.716 211.946 181.237 211.791 180.412C211.624 179.587 211.467 178.435 211.32 176.956C211.189 175.77 211.04 174.852 210.874 174.2C210.546 174.736 210.106 175.487 209.555 176.452C208.833 177.712 208.158 178.918 207.528 180.071C207.502 180.111 207.462 180.185 207.41 180.292C207.358 180.399 207.305 180.5 207.253 180.593C207.214 180.687 207.155 180.794 207.076 180.915C206.997 181.036 206.911 181.137 206.819 181.217C206.739 181.298 206.647 181.372 206.541 181.44C206.434 181.494 206.315 181.515 206.181 181.503C206.061 181.491 205.927 181.446 205.78 181.367C205.686 181.315 205.606 181.255 205.538 181.189C205.484 181.11 205.444 181.043 205.416 180.99C205.389 180.924 205.369 180.851 205.354 180.771C205.34 180.691 205.333 180.631 205.333 180.591C205.332 180.538 205.338 180.478 205.351 180.411C205.364 180.344 205.37 180.304 205.37 180.291C205.403 179.53 205.414 178.537 205.403 177.31C205.391 176.07 205.362 175.104 205.316 174.411L205.226 173.352C205.211 173.165 205.263 173.005 205.382 172.87ZM216.572 173.807C216.504 173.648 216.502 173.488 216.567 173.327C216.646 173.153 216.765 173.032 216.924 172.964C216.949 172.804 217.015 172.67 217.12 172.562C217.239 172.441 217.379 172.38 217.539 172.378C217.739 172.363 217.912 172.422 218.06 172.554C218.579 172.402 219.338 172.275 220.337 172.173C221.562 172.028 222.302 171.981 222.556 172.032L222.856 172.109C223.043 172.134 223.184 172.226 223.279 172.386C223.387 172.545 223.422 172.718 223.384 172.905C223.345 173.078 223.247 173.219 223.088 173.327C222.942 173.422 222.775 173.45 222.588 173.412L222.308 173.355C222.094 173.33 221.488 173.375 220.489 173.491C219.517 173.607 218.791 173.734 218.312 173.871L218.384 175.111C218.477 176.537 218.528 177.763 218.538 178.79C218.534 179.803 218.541 180.536 218.558 180.989L218.564 181.669C218.579 181.856 218.521 182.016 218.389 182.151C218.257 182.286 218.097 182.354 217.911 182.355C217.737 182.37 217.583 182.312 217.449 182.18C217.314 182.048 217.24 181.895 217.225 181.722L217.218 181.042C217.201 180.575 217.194 179.829 217.198 178.802C217.188 177.789 217.144 176.589 217.065 175.203C217.035 174.87 217.012 174.537 216.995 174.204C216.782 174.139 216.64 174.007 216.572 173.807ZM228.677 183.956C228.879 184.155 228.934 184.381 228.843 184.635L228.766 184.916C228.753 184.929 228.74 184.956 228.727 184.996C228.714 185.036 228.681 185.096 228.628 185.177C228.576 185.271 228.517 185.345 228.45 185.399C228.384 185.452 228.284 185.473 228.151 185.461C228.018 185.463 227.877 185.41 227.73 185.305C227.515 185.174 227.374 185.028 227.306 184.869C227.251 184.723 227.242 184.523 227.28 184.269C227.318 184.016 227.336 183.875 227.336 183.849C227.316 183.089 227.256 181.709 227.158 179.71C227.141 179.284 227.117 178.877 227.087 178.491C226.926 178.452 226.799 178.36 226.704 178.214C226.61 178.069 226.575 177.915 226.6 177.755L226.694 177.114C226.745 176.834 226.822 176.533 226.926 176.212C226.895 175.786 226.858 175.399 226.815 175.053L226.599 173.335C226.584 173.162 226.63 173.001 226.735 172.854C226.854 172.706 226.999 172.625 227.173 172.61C227.359 172.581 227.526 172.627 227.674 172.745C227.822 172.85 227.91 172.996 227.938 173.183L228.047 174.182C228.284 173.886 228.568 173.577 228.899 173.254C229.321 172.823 229.772 172.539 230.251 172.401C230.73 172.264 231.23 172.299 231.752 172.508C232.689 172.912 233.273 174.047 233.503 175.912C233.747 177.789 233.194 179.228 231.843 180.227C230.505 181.213 229.407 181.376 228.547 180.717C228.614 182.157 228.657 183.19 228.676 183.816C228.676 183.843 228.677 183.89 228.677 183.956ZM228.45 178.838L229.297 179.611C229.633 179.914 230.219 179.755 231.053 179.134C231.98 178.459 232.357 177.442 232.185 176.084C232.098 175.365 231.96 174.812 231.77 174.428C231.593 174.042 231.411 173.811 231.223 173.733C230.795 173.55 230.336 173.707 229.847 174.205C229.187 174.865 228.732 175.456 228.484 175.978C228.418 176.125 228.353 176.266 228.288 176.4C228.348 177.119 228.402 177.932 228.45 178.838ZM239.526 175.156C239.712 175.141 239.906 175.126 240.105 175.111C241.278 175.033 242.071 174.993 242.484 174.989C242.564 174.988 242.651 174.987 242.744 174.987C242.703 174.854 242.649 174.714 242.58 174.568C242.457 174.222 242.288 173.917 242.072 173.653C241.964 173.547 241.671 173.556 241.192 173.681C240.594 173.82 240.097 174.198 239.703 174.815C239.637 174.922 239.578 175.036 239.526 175.156ZM239.338 176.498C239.341 176.818 239.384 177.164 239.468 177.537C239.706 178.748 240.093 179.578 240.631 180.026C241.182 180.488 241.577 180.731 241.817 180.755L242.378 180.79C242.565 180.815 242.719 180.9 242.84 181.046C242.961 181.178 243.009 181.338 242.985 181.525C242.973 181.698 242.894 181.845 242.749 181.967C242.616 182.088 242.457 182.143 242.27 182.131L241.71 182.096C241.189 182.048 240.546 181.7 239.78 181.054C238.987 180.408 238.444 179.326 238.15 177.809C238.066 177.37 238.016 176.957 237.999 176.57C237.959 176.571 237.932 176.571 237.919 176.571L237.419 176.596C237.232 176.611 237.065 176.552 236.917 176.42C236.783 176.288 236.715 176.135 236.713 175.962C236.711 175.775 236.77 175.615 236.889 175.48C237.021 175.346 237.173 175.271 237.347 175.256L237.866 175.231C237.933 175.231 238.013 175.23 238.106 175.229C238.209 174.815 238.366 174.44 238.576 174.105C239.167 173.166 239.935 172.586 240.88 172.364C241.918 172.127 242.659 172.274 243.104 172.803C243.414 173.174 243.658 173.605 243.836 174.096C244.014 174.561 244.124 174.927 244.166 175.193C244.208 175.406 244.164 175.64 244.033 175.895C243.902 176.149 243.676 176.285 243.356 176.301C243.21 176.316 242.93 176.325 242.517 176.329C242.117 176.332 241.344 176.373 240.198 176.45C239.878 176.466 239.591 176.482 239.338 176.498Z" fill="white"/>
<g clip-path="url(#clip0_171537_2499)">
<path d="M76.6542 228.688C87.4536 228.444 98.253 228.327 109.052 228.141C102.659 228.916 96.2724 229.743 89.8912 230.623C88.4087 230.833 87.6118 231.8 87.3716 232.913C86.6333 232.902 85.8832 232.884 85.139 232.872C82.3674 232.82 81.172 235.705 81.9514 237.587C81.5646 237.587 81.1837 237.587 80.797 237.587C76.9999 237.616 76.244 243.514 80.0997 243.496C82.2443 243.484 84.3831 243.519 86.5219 243.514C86.0942 244.126 85.8656 244.842 85.8656 245.571C84.3245 245.681 82.7834 245.746 81.2423 245.862C77.1464 246.159 78.125 252.436 82.2092 252.138C83.0764 252.074 83.9437 252.022 84.8168 251.964C84.137 253.863 85.4262 256.666 88.1744 256.544C89.8737 256.468 91.5847 256.433 93.284 256.363C91.7605 258.129 93.0262 261.882 96.1963 261.731C97.3916 261.678 98.5929 261.643 99.7824 261.591C98.6866 263.438 99.9816 266.754 102.964 266.661C146.894 265.262 190.848 264.522 234.807 264.458C240.854 264.446 246.902 264.446 252.949 264.47C259.142 264.481 265.776 265.163 271.899 264.19C274.782 263.729 274.882 260.087 272.655 258.939C273.598 258.869 274.542 258.834 275.473 258.712C278.643 258.298 278.374 253.782 275.38 253.281C275.063 253.228 274.747 253.217 274.436 253.17C275.579 252.366 275.837 250.874 275.245 249.702C275.673 249.714 276.1 249.737 276.522 249.749C277.723 249.772 278.573 249.137 278.983 248.31C280.718 248.31 282.446 248.321 284.169 248.298C287.134 248.246 286.952 243.444 284.081 243.158C282.376 242.989 280.659 242.931 278.954 242.797C279.657 242.686 280.372 242.581 281.069 242.412C283.788 241.736 283.917 237.902 280.976 237.418C279.569 237.185 278.151 237.092 276.721 237.045C276.71 236.439 276.505 235.85 276.1 235.39C280.56 235.303 285.019 235.238 289.478 235.035C292.472 234.9 292.39 229.889 289.384 229.755C282.927 229.475 276.458 229.358 269.995 229.306C269.801 228.583 269.344 227.96 268.53 227.744C267.112 227.36 265.647 227.132 264.182 226.87C266.432 226.87 268.676 226.888 270.92 226.87C274.155 226.841 274.94 222.016 271.53 221.748C271.495 221.748 271.459 221.748 271.418 221.748C271.043 221.095 270.463 220.553 269.438 220.413C265.623 219.929 261.797 219.562 257.959 219.242C257.801 218.012 257.015 216.87 255.562 216.777C249.228 216.375 242.876 216.276 236.524 216.217C236.987 214.603 236.225 212.558 234.204 212.459C222.197 211.882 210.062 212.604 198.049 212.82C186.271 213.035 174.493 213.251 162.715 213.473C158.526 213.554 154.336 213.624 150.146 213.706C144.058 213.426 137.97 213.181 131.882 212.855C120.18 212.225 108.472 211.526 96.7588 210.757C94.2684 210.594 93.032 212.872 93.3602 214.737C92.5457 214.755 91.7429 214.766 90.9284 214.784C89.4635 214.813 88.6724 215.64 88.4263 216.689C84.4242 216.847 80.4161 216.987 76.414 217.173C73.3376 217.325 73.1267 220.891 74.9315 222.587C71.8082 223.443 72.8864 228.776 76.6542 228.694L76.6542 228.688Z" fill="white"/>
</g>
<path d="M124.608 239.217C126.217 239.991 127.163 241.099 127.447 242.54C127.779 244.319 126.96 246.007 124.99 247.604C123.065 249.201 121.186 249.703 119.353 249.111C117.566 248.541 116.465 247.761 116.05 246.773L115.6 245.728C115.463 245.459 115.449 245.177 115.559 244.883C115.691 244.588 115.893 244.383 116.162 244.268C116.454 244.13 116.747 244.116 117.041 244.226C117.336 244.336 117.541 244.537 117.656 244.83L118.106 245.874C118.151 245.941 118.231 246.031 118.345 246.143C118.458 246.232 118.663 246.354 118.957 246.509C119.252 246.664 119.614 246.819 120.044 246.973C121.085 247.302 122.254 246.93 123.553 245.858C124.829 244.809 125.384 243.845 125.218 242.967C125.052 242.089 124.245 241.419 122.797 240.959C122.435 240.85 122.118 240.751 121.847 240.663C121.259 240.466 120.851 240.334 120.625 240.268C120.557 240.247 120.49 240.225 120.422 240.203C120.422 240.203 120.4 240.248 120.355 240.339C120.265 240.362 120.083 240.172 119.809 239.768C119.579 239.365 119.554 239.038 119.732 238.788C119.933 238.538 120.213 238.355 120.573 238.239L121.112 238.031C121.338 238.029 121.709 237.958 122.227 237.818C122.362 237.794 122.508 237.759 122.666 237.712C123.498 237.456 124.312 236.468 125.108 234.746C125.462 233.976 125.547 233.389 125.363 232.984C125.201 232.557 124.701 232.179 123.863 231.848C122.029 231.075 120.618 230.908 119.63 231.346L117.675 232.176C117.406 232.313 117.124 232.327 116.829 232.217C116.535 232.085 116.319 231.883 116.181 231.614C116.066 231.322 116.063 231.029 116.173 230.734C116.306 230.44 116.507 230.235 116.776 230.12L118.731 229.256C120.326 228.565 122.335 228.727 124.758 229.742C126.071 230.294 126.935 231.098 127.351 232.154C127.789 233.21 127.733 234.384 127.181 235.674C126.406 237.328 125.549 238.509 124.608 239.217ZM138.187 231.073C138.461 231.522 138.785 232.398 139.158 233.703C139.601 235.301 140.195 237.337 140.94 239.811L141.007 239.81C141.323 239.807 141.595 239.918 141.823 240.141C142.05 240.342 142.165 240.6 142.168 240.916C142.172 241.367 141.983 241.696 141.602 241.902C142.206 243.837 142.692 245.152 143.059 245.848L143.817 247.295C143.955 247.565 143.969 247.847 143.859 248.141C143.771 248.435 143.593 248.662 143.323 248.822C143.054 248.96 142.761 248.986 142.444 248.898C142.15 248.788 141.934 248.598 141.796 248.329L141.073 246.915C140.591 245.994 139.989 244.387 139.269 242.093L139.134 242.094C137.871 242.106 136.664 242.14 135.515 242.195L134.635 242.237C134.459 242.735 134.295 243.233 134.141 243.73C133.834 244.635 133.571 245.439 133.352 246.14C133.309 246.388 133.255 246.626 133.189 246.852C133.189 246.852 132.913 247.441 132.359 248.619C131.405 250.297 130.742 250.506 130.369 249.246C130.321 248.953 130.286 248.751 130.262 248.638C130.238 248.526 130.259 248.322 130.324 248.029C130.412 247.735 130.477 247.508 130.521 247.35C130.587 247.192 130.686 246.931 130.818 246.569C130.95 246.185 131.071 245.845 131.181 245.551C131.549 243.901 132.06 241.821 132.714 239.311C133.084 237.932 133.423 236.733 133.729 235.716C134.102 234.517 134.443 233.566 134.752 232.864C135.194 231.868 135.571 231.187 135.884 230.824L136.179 229.84C136.266 229.546 136.445 229.33 136.714 229.192C137.006 229.054 137.299 229.029 137.593 229.116C137.887 229.204 138.103 229.394 138.241 229.686C138.402 229.955 138.438 230.236 138.351 230.53L138.187 231.073ZM135.392 239.93L135.426 239.929C136.418 239.898 137.467 239.865 138.572 239.833C137.967 237.808 137.466 236.087 137.069 234.67C136.741 235.756 136.379 236.887 135.984 238.063C135.787 238.674 135.589 239.296 135.392 239.93ZM146.248 230.052C146.222 229.691 146.366 229.385 146.679 229.134C146.902 228.794 147.227 228.633 147.656 228.652C147.859 228.65 148.051 228.716 148.233 228.849C148.819 228.799 149.777 228.7 151.106 228.552C152.909 228.355 153.945 228.255 154.216 228.253L154.622 228.249C154.915 228.224 155.175 228.323 155.403 228.546C155.653 228.747 155.779 229.005 155.782 229.321C155.808 229.637 155.709 229.908 155.485 230.136C155.262 230.363 155.004 230.49 154.711 230.515L154.338 230.519C154.09 230.521 153.087 230.62 151.33 230.817C150.113 230.941 149.234 231.028 148.693 231.078L148.673 232.499C148.599 234.259 148.636 237.056 148.784 240.889C148.909 244.745 148.989 247.27 149.022 248.466L149.038 250.191C149.041 250.507 148.931 250.778 148.708 251.006C148.484 251.234 148.214 251.349 147.899 251.352C147.606 251.354 147.345 251.244 147.117 251.021C146.89 250.797 146.775 250.539 146.772 250.246L146.756 248.486C146.722 247.314 146.643 244.811 146.518 240.977C146.369 237.099 146.332 234.246 146.405 232.419L146.456 230.659C146.319 230.48 146.25 230.277 146.248 230.052ZM159.021 230.34C158.883 230.071 158.858 229.789 158.945 229.495C159.033 229.178 159.222 228.951 159.514 228.813L160.221 228.401C160.356 228.354 160.48 228.308 160.592 228.262C160.816 228.057 161.063 227.953 161.333 227.95C161.559 227.948 161.763 228.014 161.944 228.148C162.508 228.188 163.56 228.437 165.098 228.897C166.387 229.291 167.397 229.947 168.127 230.865C168.88 231.761 169.284 232.851 169.341 234.136C169.398 235.399 169.149 236.495 168.593 237.425C168.061 238.354 167.255 239.027 166.176 239.443C164.895 239.929 163.736 240.244 162.7 240.389C162.704 240.885 162.709 241.437 162.715 242.046C162.775 246.128 162.83 248.451 162.881 249.015L162.957 249.927C163.005 250.243 162.928 250.514 162.727 250.742C162.527 250.992 162.269 251.129 161.953 251.155C161.638 251.203 161.355 251.126 161.105 250.926C160.878 250.725 160.751 250.467 160.726 250.151L160.616 249.238C160.565 248.607 160.509 246.217 160.448 242.067C160.444 241.549 160.439 241.03 160.434 240.511L159.52 240.486C159.227 240.488 158.967 240.378 158.739 240.154C158.511 239.931 158.396 239.673 158.394 239.379C158.391 239.064 158.501 238.792 158.724 238.564C158.948 238.337 159.217 238.222 159.533 238.219L160.413 238.244C160.369 235.922 160.329 234.016 160.293 232.528L160.278 230.904C159.715 231.022 159.296 230.834 159.021 230.34ZM162.679 238.088C163.489 237.945 164.389 237.689 165.378 237.319C166.008 237.088 166.455 236.734 166.722 236.258C166.988 235.782 167.106 235.115 167.076 234.258C167.045 233.401 166.825 232.727 166.414 232.234C166.004 231.742 165.346 231.353 164.441 231.068C163.762 230.872 163.118 230.708 162.508 230.579L162.559 232.473C162.595 233.961 162.635 235.833 162.679 238.088ZM182.43 228.399C182.699 228.216 182.98 228.168 183.274 228.256C183.591 228.321 183.829 228.488 183.99 228.757C184.173 229.026 184.22 229.307 184.133 229.601L183.906 230.652C183.731 231.331 183.356 233.477 182.781 237.091C182.183 240.773 181.534 243.802 180.834 246.176C180.441 247.533 180.101 248.563 179.814 249.265C179.527 249.944 179.193 250.477 178.814 250.864L178.11 251.581C177.886 251.786 177.616 251.89 177.3 251.893C176.985 251.896 176.713 251.786 176.485 251.562C176.28 251.339 176.176 251.069 176.173 250.753C176.193 250.437 176.304 250.177 176.505 249.972L177.209 249.255C177.276 249.209 177.365 249.05 177.475 248.779C177.608 248.507 177.784 248.077 178.004 247.488C178.247 246.9 178.467 246.255 178.663 245.554C178.707 245.44 178.74 245.339 178.762 245.248L178.694 245.181C178.375 244.891 178.067 244.488 177.769 243.972C177.471 243.456 177.069 242.647 176.562 241.547C175.666 239.683 174.664 237.459 173.557 234.875L171.932 230.999C171.794 230.73 171.78 230.448 171.89 230.154C172.023 229.86 172.224 229.655 172.493 229.539C172.785 229.401 173.078 229.399 173.373 229.531C173.667 229.641 173.872 229.842 173.987 230.135L175.647 233.976C176.731 236.538 177.709 238.739 178.584 240.581C178.883 241.21 179.181 241.793 179.479 242.332C179.848 240.682 180.203 238.818 180.544 236.74C181.142 233.08 181.528 230.877 181.702 230.131L181.929 229.08C181.994 228.787 182.161 228.559 182.43 228.399ZM195.937 238.56C197.546 239.335 198.492 240.443 198.776 241.884C199.108 243.662 198.289 245.35 196.319 246.947C194.394 248.544 192.515 249.046 190.682 248.454C188.895 247.884 187.794 247.105 187.379 246.116L186.929 245.072C186.792 244.802 186.778 244.52 186.888 244.226C187.02 243.932 187.222 243.727 187.491 243.612C187.783 243.473 188.076 243.46 188.371 243.57C188.665 243.68 188.87 243.881 188.985 244.173L189.435 245.218C189.48 245.285 189.56 245.374 189.674 245.486C189.787 245.575 189.992 245.697 190.286 245.853C190.581 246.008 190.943 246.162 191.373 246.316C192.414 246.645 193.583 246.273 194.882 245.201C196.158 244.152 196.713 243.188 196.547 242.31C196.381 241.432 195.574 240.763 194.126 240.302C193.764 240.193 193.447 240.094 193.176 240.007C192.588 239.809 192.18 239.677 191.954 239.612C191.886 239.59 191.819 239.568 191.751 239.546C191.751 239.546 191.729 239.591 191.684 239.682C191.594 239.705 191.412 239.515 191.138 239.112C190.908 238.708 190.883 238.381 191.061 238.131C191.262 237.881 191.542 237.698 191.902 237.582L192.441 237.374C192.667 237.372 193.038 237.301 193.556 237.161C193.691 237.137 193.837 237.102 193.995 237.056C194.827 236.8 195.641 235.811 196.437 234.09C196.791 233.319 196.876 232.732 196.692 232.328C196.53 231.901 196.03 231.522 195.192 231.191C193.358 230.419 191.947 230.251 190.959 230.689L189.004 231.519C188.735 231.657 188.453 231.671 188.158 231.561C187.864 231.428 187.648 231.227 187.51 230.958C187.395 230.665 187.392 230.372 187.502 230.078C187.635 229.783 187.836 229.579 188.105 229.463L190.06 228.6C191.655 227.908 193.664 228.07 196.087 229.085C197.4 229.637 198.264 230.441 198.68 231.498C199.118 232.554 199.062 233.727 198.51 235.018C197.735 236.672 196.878 237.852 195.937 238.56ZM201.645 228.087C201.845 227.837 202.092 227.699 202.385 227.674C202.701 227.626 202.983 227.702 203.233 227.903C203.483 228.104 203.632 228.351 203.68 228.643L204.083 232.057C204.353 234.378 204.505 237.455 204.541 241.289C204.551 242.394 204.582 243.319 204.634 244.063C205.189 243.088 205.876 241.751 206.695 240.051C208.465 236.404 209.806 233.786 210.716 232.199C211.604 230.657 212.137 229.716 212.314 229.376C212.314 229.376 212.325 229.353 212.347 229.308C212.37 229.263 212.38 229.229 212.38 229.206C212.402 229.161 212.436 229.104 212.48 229.036C212.547 228.968 212.614 228.911 212.682 228.865C212.749 228.819 212.839 228.773 212.951 228.727C213.063 228.681 213.187 228.646 213.322 228.622C213.885 228.549 214.281 228.67 214.51 228.983C214.738 229.275 214.831 229.59 214.789 229.928L214.726 230.436C214.732 231.068 214.823 232.398 215 234.426C215.176 236.455 215.413 238.922 215.711 241.829C216.008 244.714 216.285 246.673 216.543 247.709L216.93 249.363C217.001 249.678 216.947 249.961 216.769 250.21C216.614 250.482 216.378 250.654 216.063 250.724C215.771 250.795 215.488 250.752 215.216 250.597C214.967 250.441 214.807 250.206 214.736 249.891L214.349 248.236C214.067 247.089 213.767 245.039 213.446 242.087C213.149 239.157 212.911 236.667 212.735 234.616C212.686 234.188 212.648 233.782 212.622 233.399C211.734 234.941 210.449 237.491 208.768 241.047C208.701 241.138 208.623 241.285 208.535 241.489C207.871 242.871 207.384 243.868 207.074 244.48C206.763 245.069 206.408 245.659 206.007 246.249C205.607 246.839 205.238 247.238 204.902 247.444C204.453 247.651 204.047 247.688 203.685 247.556C203.345 247.402 203.095 247.178 202.934 246.887C202.659 246.415 202.484 245.785 202.409 244.997C202.334 244.208 202.289 242.979 202.274 241.31C202.239 237.566 202.088 234.579 201.819 232.348L201.416 228.935C201.39 228.619 201.467 228.337 201.645 228.087ZM219.846 230.322C219.574 230.166 219.391 229.942 219.298 229.65C219.228 229.357 219.259 229.075 219.392 228.803C219.547 228.531 219.782 228.348 220.097 228.255L221.042 227.976C221.807 227.766 223.138 227.742 225.034 227.905C225.213 227.791 225.416 227.733 225.641 227.731C225.934 227.728 226.183 227.816 226.388 227.994C227.788 228.117 228.95 228.163 229.874 228.132C231.047 228.121 231.814 228.102 232.174 228.077L232.749 228.037C233.065 228.012 233.336 228.111 233.564 228.334C233.814 228.535 233.94 228.793 233.943 229.109C233.968 229.402 233.881 229.674 233.68 229.924C233.479 230.151 233.221 230.277 232.905 230.303L232.33 230.342C231.925 230.368 231.113 230.387 229.895 230.398C229.038 230.429 228 230.404 226.782 230.325C226.789 231.137 226.8 232.276 226.813 233.742C226.83 235.547 226.881 237.463 226.967 239.493C227.054 241.522 227.162 243.438 227.291 245.241C227.398 247.113 227.444 248.398 227.428 249.097L227.404 250.112C227.384 250.406 227.251 250.655 227.004 250.86C226.781 251.088 226.511 251.192 226.195 251.172C225.902 251.175 225.642 251.053 225.414 250.807C225.209 250.584 225.116 250.325 225.136 250.032L225.16 249.017C225.177 248.385 225.132 247.178 225.026 245.398C224.896 243.572 224.788 241.633 224.701 239.581C224.615 237.529 224.563 235.59 224.546 233.763C224.532 232.162 224.521 230.955 224.513 230.143C223.046 230.021 222.099 230.03 221.671 230.169L220.693 230.449C220.4 230.519 220.118 230.477 219.846 230.322ZM240.709 248.061C240.419 248.402 240.059 248.541 239.63 248.477C239.61 248.771 239.488 249.02 239.265 249.225C239.064 249.452 238.817 249.556 238.523 249.536C238.207 249.539 237.936 249.429 237.708 249.206C237.481 248.982 237.377 248.712 237.396 248.396L237.391 247.855C237.388 247.472 237.381 246.727 237.371 245.622C237.383 244.539 237.25 242.353 236.972 239.062C236.971 238.927 236.958 238.792 236.934 238.657C236.934 238.589 236.922 238.521 236.899 238.454C236.898 238.386 236.909 238.318 236.931 238.251C236.678 235.343 236.535 233.303 236.502 232.131L236.451 230.27C236.448 229.954 236.547 229.683 236.748 229.455C236.972 229.228 237.23 229.113 237.523 229.11C237.839 229.085 238.11 229.184 238.338 229.407C238.588 229.608 238.714 229.866 238.717 230.182L238.768 232.076C238.8 233.091 238.918 234.826 239.121 237.283C239.211 237.282 239.867 237.423 241.087 237.705C242.782 238.073 244.222 238.86 245.406 240.067C246.704 241.431 247.145 242.803 246.729 244.183C246.335 245.472 245.386 246.451 243.881 247.119C242.712 247.648 241.655 247.962 240.709 248.061ZM239.64 245.872C239.82 245.848 240.012 245.835 240.215 245.833C240.981 245.803 241.892 245.547 242.948 245.063C243.824 244.672 244.361 244.159 244.558 243.526C244.711 242.983 244.446 242.354 243.762 241.639C242.92 240.744 241.877 240.167 240.634 239.908C240.137 239.8 239.696 239.714 239.312 239.65C239.542 242.557 239.65 244.541 239.637 245.601C239.638 245.646 239.638 245.703 239.639 245.771C239.639 245.816 239.64 245.849 239.64 245.872Z" fill="#EA2C86"/>
<defs>
<filter id="filter0_f_171537_2499" x="47.8407" y="46.3972" width="273.434" height="279.375" filterUnits="userSpaceOnUse" color-interpolation-filters="sRGB">
<feFlood flood-opacity="0" result="BackgroundImageFix"/>
<feBlend mode="normal" in="SourceGraphic" in2="BackgroundImageFix" result="shape"/>
<feGaussianBlur stdDeviation="3.60785" result="effect1_foregroundBlur_171537_2499"/>
</filter>
<clipPath id="clip0_171537_2499">
<rect width="218.601" height="55.9213" fill="white" transform="translate(73.103 210.751)"/>
</clipPath>
</defs>
</svg>
