<svg width="284" height="288" viewBox="0 0 284 288" fill="none" xmlns="http://www.w3.org/2000/svg">
<g style="mix-blend-mode:multiply" filter="url(#filter0_f_174001_2877)">
<path d="M273.385 263.899L35.4912 280.059C31.918 198.802 29.3696 119.146 21.4966 38.1645L254.554 22.3328C258.443 104.395 266.235 183.695 273.385 263.899Z" fill="#525252" fill-opacity="0.35"/>
</g>
<path d="M262.226 263.031L19.019 262.975C21.0184 182.539 22.2854 102.12 19.8901 21.6829L261.482 21.7383C259.749 102.973 260.513 183.41 262.226 263.031Z" fill="#FD6FAB"/>
<mask id="mask0_174001_2877" style="mask-type:alpha" maskUnits="userSpaceOnUse" x="20" y="20" width="244" height="242">
<path d="M263.228 261.683L20.0205 261.627C22.0199 181.191 23.2869 100.771 20.8916 20.3344L262.484 20.3898C260.751 101.625 261.515 182.062 263.228 261.683Z" fill="#FFF27C"/>
</mask>
<g mask="url(#mask0_174001_2877)">
<path d="M260.829 21.8678L20.6152 21.5571L20.5585 65.4278L260.772 65.7385L260.829 21.8678Z" fill="#F84F9F"/>
</g>
<mask id="mask1_174001_2877" style="mask-type:alpha" maskUnits="userSpaceOnUse" x="20" y="20" width="244" height="242">
<path d="M263.228 261.683L20.0205 261.627C22.0199 181.191 23.2869 100.771 20.8916 20.3344L262.484 20.3898C260.751 101.625 261.515 182.062 263.228 261.683Z" fill="#FFF27C"/>
</mask>
<g mask="url(#mask1_174001_2877)">
<path d="M260.829 21.8678L20.6152 21.5571L20.5585 65.4278L260.772 65.7385L260.829 21.8678Z" fill="#F84F9F"/>
</g>
<mask id="mask2_174001_2877" style="mask-type:luminance" maskUnits="userSpaceOnUse" x="28" y="179" width="232" height="55">
<path d="M259.798 179.349H28.8335V233.379H259.798V179.349Z" fill="white"/>
</mask>
<g mask="url(#mask2_174001_2877)">
<path d="M32.585 196.68C43.9952 196.443 55.4054 196.331 66.8156 196.15C60.0611 196.899 53.3128 197.699 46.5707 198.549C45.0043 198.752 44.1623 199.686 43.9085 200.762C43.1284 200.751 42.336 200.734 41.5497 200.722C38.6213 200.672 37.3583 203.459 38.1818 205.277C37.7731 205.277 37.3707 205.277 36.9621 205.277C32.9503 205.306 32.1516 211.004 36.2254 210.987C38.4913 210.976 40.7511 211.009 43.0108 211.004C42.5589 211.595 42.3174 212.287 42.3174 212.991C40.6891 213.098 39.0609 213.16 37.4326 213.273C33.1051 213.56 34.139 219.624 38.4542 219.337C39.3704 219.275 40.2867 219.224 41.2092 219.168C40.491 221.003 41.8531 223.712 44.7567 223.593C46.5521 223.52 48.3599 223.486 50.1553 223.419C48.5456 225.125 49.8829 228.751 53.2323 228.605C54.4953 228.554 55.7645 228.52 57.0212 228.469C55.8635 230.254 57.2317 233.458 60.383 233.368C106.798 232.017 153.237 231.302 199.683 231.24C206.072 231.228 212.461 231.228 218.85 231.251C225.394 231.262 232.402 231.921 238.872 230.981C241.918 230.536 242.023 227.017 239.671 225.908C240.668 225.84 241.664 225.806 242.649 225.688C245.998 225.288 245.713 220.925 242.55 220.44C242.215 220.39 241.881 220.378 241.553 220.333C242.76 219.556 243.033 218.115 242.407 216.983C242.859 216.995 243.311 217.017 243.757 217.028C245.026 217.051 245.924 216.437 246.357 215.638C248.19 215.638 250.016 215.649 251.836 215.626C254.969 215.576 254.777 210.936 251.743 210.66C249.942 210.497 248.128 210.441 246.326 210.311C247.069 210.204 247.825 210.103 248.561 209.939C251.434 209.286 251.57 205.581 248.462 205.114C246.976 204.889 245.478 204.799 243.967 204.754C243.955 204.168 243.738 203.6 243.311 203.155C248.023 203.07 252.734 203.008 257.445 202.811C260.609 202.682 260.522 197.84 257.346 197.71C250.524 197.44 243.689 197.327 236.86 197.276C236.656 196.578 236.173 195.976 235.312 195.768C233.814 195.396 232.266 195.176 230.719 194.923C233.096 194.923 235.467 194.94 237.838 194.923C241.256 194.895 242.085 190.233 238.482 189.974C238.445 189.974 238.408 189.974 238.365 189.974C237.968 189.343 237.355 188.819 236.272 188.684C232.242 188.217 228.199 187.862 224.144 187.553C223.976 186.365 223.147 185.261 221.611 185.171C214.919 184.782 208.208 184.687 201.497 184.63C201.986 183.071 201.181 181.094 199.045 180.999C186.359 180.441 173.538 181.139 160.846 181.348C148.402 181.556 135.958 181.764 123.514 181.978C119.087 182.057 114.66 182.125 110.234 182.204C103.801 181.933 97.3686 181.697 90.936 181.382C78.5724 180.773 66.2026 180.098 53.8266 179.355C51.1954 179.197 49.8891 181.398 50.2358 183.2C49.3752 183.217 48.5271 183.228 47.6665 183.245C46.1187 183.273 45.2829 184.073 45.0229 185.086C40.7944 185.238 36.5597 185.374 32.3312 185.554C29.0808 185.7 28.858 189.146 30.7648 190.784C27.465 191.612 28.6041 196.764 32.585 196.685V196.68Z" fill="white"/>
</g>
<path d="M39.2948 113.983C38.0223 114.001 36.8388 113.811 35.7444 113.412C34.6654 113.013 33.722 112.444 32.9141 111.704C32.1216 110.963 31.496 110.09 31.0371 109.085C30.5936 108.079 30.3634 106.978 30.3466 105.782C30.3298 104.586 30.5289 103.479 30.944 102.461C31.3744 101.443 31.9829 100.553 32.7696 99.7905C33.5563 99.028 34.4834 98.4323 35.5508 98.0032C36.6182 97.5742 37.7805 97.3508 39.0377 97.3331C40.3102 97.3152 41.4784 97.5058 42.5421 97.9049C43.6211 98.3038 44.5569 98.8733 45.3494 99.6136C46.1572 100.354 46.7905 101.227 47.2494 102.232C47.708 103.222 47.9458 104.323 47.9629 105.534C47.9797 106.73 47.773 107.845 47.3428 108.878C46.9124 109.897 46.3039 110.787 45.5172 111.549C44.7456 112.296 43.8261 112.884 42.7587 113.313C41.7067 113.742 40.552 113.965 39.2948 113.983ZM39.2272 110.81C39.9478 110.8 40.6053 110.668 41.1998 110.414C41.8096 110.16 42.3413 109.8 42.7948 109.333C43.2483 108.867 43.5932 108.318 43.8297 107.686C44.0815 107.054 44.202 106.354 44.1913 105.587C44.1805 104.821 44.0403 104.125 43.7709 103.5C43.5167 102.875 43.1564 102.336 42.69 101.882C42.2389 101.429 41.705 101.083 41.0883 100.847C40.4716 100.61 39.8029 100.497 39.0823 100.507C38.3617 100.517 37.6965 100.649 37.0867 100.903C36.4922 101.157 35.9682 101.517 35.5147 101.983C35.0612 102.45 34.7086 102.999 34.4568 103.631C34.2203 104.263 34.1075 104.963 34.1182 105.729C34.1288 106.48 34.2613 107.176 34.5156 107.817C34.7851 108.442 35.1454 108.981 35.5965 109.435C36.0629 109.888 36.6045 110.233 37.2212 110.47C37.8379 110.707 38.5066 110.82 39.2272 110.81ZM50.876 113.544L50.6497 97.4459L57.618 97.3479C59.0592 97.3276 60.3044 97.5478 61.3536 98.0084C62.4027 98.4537 63.217 99.1093 63.7965 99.9753C64.3761 100.841 64.6744 101.88 64.6914 103.091C64.7082 104.287 64.4392 105.326 63.8842 106.208C63.329 107.074 62.5333 107.745 61.4972 108.219C60.4611 108.694 59.2225 108.941 57.7813 108.962L52.8828 109.031L54.5156 107.375L54.6017 113.492L50.876 113.544ZM61.11 113.4L57.0033 107.616L60.9819 107.56L65.1346 113.344L61.11 113.4ZM54.5215 107.788L52.8411 106.064L57.5326 105.998C58.6825 105.982 59.5376 105.724 60.098 105.226C60.6581 104.712 60.9321 104.018 60.9198 103.144C60.9073 102.255 60.614 101.569 60.0398 101.086C59.4656 100.604 58.6036 100.37 57.4537 100.387L52.7621 100.452L54.3931 98.6584L54.5215 107.788ZM67.7874 113.306L67.5611 97.2081L75.4263 97.0975C77.4501 97.069 78.9733 97.431 79.996 98.1833C81.034 98.9355 81.5619 99.9402 81.5796 101.197C81.5914 102.041 81.3948 102.779 80.9897 103.414C80.5843 104.033 80.0237 104.516 79.3079 104.864C78.592 105.211 77.7665 105.391 76.8312 105.405L77.2549 104.455C78.2668 104.441 79.1661 104.597 79.9528 104.924C80.7392 105.235 81.3516 105.709 81.79 106.347C82.2437 106.985 82.4771 107.771 82.4902 108.706C82.5096 110.086 81.9805 111.175 80.903 111.972C79.8252 112.754 78.2284 113.16 76.1126 113.189L67.7874 113.306ZM71.4506 110.449L75.7972 110.388C76.7631 110.374 77.4892 110.21 77.9755 109.897C78.4769 109.568 78.7228 109.058 78.7131 108.368C78.7036 107.694 78.4436 107.199 77.9331 106.884C77.4378 106.554 76.7072 106.395 75.7413 106.409L71.1187 106.474L71.0805 103.76L75.0592 103.704C75.9637 103.692 76.6515 103.529 77.1225 103.215C77.6086 102.886 77.8471 102.4 77.838 101.756C77.8292 101.127 77.5773 100.663 77.0824 100.364C76.6026 100.048 75.9104 99.8969 75.0058 99.9097L71.3032 99.9617L71.4506 110.449ZM85.3726 113.059L85.1463 96.9608L88.8719 96.9084L89.0982 113.007L85.3726 113.059ZM96.2534 112.906L96.0697 99.8435L90.9182 99.9159L90.8756 96.8802L104.904 96.683L104.947 99.7187L99.7954 99.7911L99.979 112.854L96.2534 112.906ZM113.995 112.726C112.845 112.742 111.776 112.55 110.789 112.15C109.802 111.75 108.936 111.187 108.189 110.461C107.443 109.72 106.856 108.862 106.428 107.887C106.016 106.911 105.801 105.856 105.785 104.721C105.769 103.587 105.962 102.526 106.362 101.539C106.762 100.552 107.325 99.6852 108.05 98.939C108.776 98.1774 109.626 97.5827 110.602 97.1549C111.592 96.7269 112.663 96.5049 113.812 96.4887C114.962 96.4725 116.031 96.6645 117.018 97.0647C118.02 97.4493 118.887 98.0045 119.618 98.7303C120.364 99.4559 120.943 100.306 121.356 101.282C121.783 102.242 122.005 103.297 122.021 104.447C122.037 105.597 121.845 106.673 121.446 107.675C121.045 108.663 120.475 109.537 119.734 110.299C119.009 111.045 118.158 111.632 117.183 112.06C116.207 112.488 115.145 112.71 113.995 112.726ZM116.105 109.039L113.85 105.666L116.241 105.632L118.497 109.005L116.105 109.039ZM113.974 111.231C114.909 111.218 115.773 111.037 116.565 110.688C117.358 110.325 118.049 109.839 118.638 109.233C119.228 108.627 119.678 107.915 119.988 107.098C120.314 106.281 120.47 105.404 120.457 104.469C120.444 103.534 120.263 102.67 119.915 101.877C119.581 101.069 119.119 100.378 118.529 99.8037C117.953 99.2138 117.264 98.7634 116.462 98.4526C115.66 98.1266 114.784 97.9702 113.834 97.9836C112.898 97.9967 112.027 98.1776 111.219 98.5264C110.426 98.8749 109.735 99.36 109.146 99.9817C108.572 100.588 108.129 101.292 107.819 102.094C107.508 102.895 107.359 103.764 107.372 104.699C107.385 105.634 107.559 106.506 107.892 107.314C108.225 108.107 108.687 108.798 109.278 109.388C109.869 109.977 110.566 110.435 111.368 110.761C112.17 111.088 113.039 111.244 113.974 111.231ZM110.448 109.118L110.322 100.195L114.209 100.14C115.42 100.123 116.375 100.394 117.073 100.951C117.77 101.509 118.126 102.278 118.14 103.26C118.155 104.287 117.821 105.081 117.139 105.643C116.456 106.189 115.509 106.471 114.298 106.488L112.803 106.509L112.839 109.085L110.448 109.118ZM112.755 104.715L114.112 104.696C114.649 104.689 115.061 104.56 115.349 104.311C115.652 104.061 115.8 103.722 115.794 103.293C115.788 102.848 115.63 102.505 115.32 102.264C115.025 102.023 114.609 101.906 114.073 101.914L112.716 101.933L112.755 104.715ZM136.542 112.524C135.377 112.54 134.323 112.294 133.381 111.786C132.438 111.263 131.684 110.529 131.119 109.587C130.569 108.644 130.285 107.528 130.266 106.24C130.248 104.937 130.501 103.806 131.024 102.848C131.562 101.89 132.296 101.144 133.224 100.609C134.152 100.075 135.198 99.7993 136.363 99.783C137.406 99.7683 138.321 99.9855 139.11 100.434C139.898 100.883 140.514 101.572 140.956 102.502C141.398 103.431 141.63 104.624 141.65 106.08C141.671 107.521 141.48 108.72 141.08 109.677C140.679 110.618 140.091 111.324 139.315 111.795C138.555 112.265 137.631 112.508 136.542 112.524ZM137.122 109.571C137.705 109.563 138.232 109.418 138.703 109.135C139.174 108.852 139.545 108.456 139.813 107.946C140.097 107.421 140.234 106.806 140.224 106.1C140.214 105.38 140.06 104.768 139.762 104.267C139.479 103.765 139.097 103.379 138.618 103.11C138.139 102.84 137.608 102.71 137.026 102.718C136.428 102.726 135.893 102.872 135.422 103.155C134.95 103.437 134.572 103.834 134.288 104.344C134.019 104.853 133.89 105.469 133.9 106.189C133.91 106.894 134.057 107.506 134.34 108.023C134.638 108.525 135.027 108.911 135.506 109.18C135.985 109.449 136.524 109.58 137.122 109.571ZM140.403 112.285L140.368 109.756L140.385 106.075L140.104 102.422L140.003 95.2233L143.59 95.1729L143.83 112.237L140.403 112.285ZM154.74 112.084L154.706 109.669L154.468 109.143L154.408 104.82C154.397 104.053 154.151 103.459 153.67 103.036C153.204 102.613 152.488 102.409 151.522 102.422C150.862 102.431 150.212 102.548 149.571 102.772C148.946 102.98 148.413 103.263 147.973 103.622L146.65 101.133C147.318 100.649 148.125 100.269 149.072 99.9953C150.019 99.7213 150.983 99.5774 151.965 99.5636C153.85 99.5371 155.321 99.9611 156.376 100.836C157.431 101.71 157.972 103.09 157.998 104.976L158.098 112.037L154.74 112.084ZM150.971 112.321C150.005 112.334 149.175 112.185 148.48 111.873C147.786 111.545 147.25 111.1 146.874 110.538C146.498 109.976 146.305 109.342 146.296 108.637C146.285 107.901 146.452 107.255 146.797 106.698C147.158 106.141 147.726 105.703 148.504 105.386C149.281 105.053 150.299 104.878 151.556 104.86L154.845 104.814L154.874 106.906L151.976 106.947C151.133 106.959 150.552 107.105 150.234 107.386C149.932 107.666 149.783 108.013 149.789 108.427C149.795 108.887 149.977 109.252 150.333 109.524C150.705 109.779 151.205 109.902 151.834 109.893C152.432 109.885 152.966 109.74 153.438 109.457C153.909 109.159 154.248 108.732 154.455 108.177L155.03 109.825C154.781 110.626 154.314 111.239 153.63 111.662C152.946 112.086 152.059 112.306 150.971 112.321ZM168.688 99.3284C169.669 99.3146 170.546 99.5017 171.318 99.8895C172.106 100.262 172.727 100.851 173.183 101.657C173.639 102.448 173.876 103.473 173.894 104.73L173.993 111.813L170.406 111.864L170.314 105.332C170.3 104.336 170.067 103.603 169.616 103.134C169.18 102.665 168.563 102.435 167.766 102.447C167.199 102.455 166.687 102.585 166.23 102.836C165.789 103.073 165.441 103.438 165.188 103.932C164.949 104.426 164.835 105.056 164.846 105.823L164.932 111.94L161.345 111.991L161.171 99.6182L164.597 99.57L164.645 102.997L163.987 101.971C164.42 101.137 165.047 100.491 165.869 100.035C166.691 99.5789 167.63 99.3433 168.688 99.3284ZM191.348 111.569L191.314 109.154L191.076 108.629L191.015 104.305C191.005 103.538 190.759 102.944 190.277 102.521C189.811 102.098 189.095 101.894 188.129 101.907C187.47 101.917 186.82 102.033 186.179 102.257C185.553 102.465 185.021 102.748 184.581 103.107L183.258 100.619C183.926 100.134 184.733 99.7545 185.68 99.4805C186.627 99.2065 187.591 99.0626 188.572 99.0488C190.458 99.0223 191.929 99.4463 192.984 100.321C194.039 101.196 194.579 102.576 194.606 104.462L194.705 111.522L191.348 111.569ZM187.579 111.806C186.613 111.82 185.782 111.67 185.088 111.358C184.393 111.03 183.858 110.586 183.482 110.023C183.106 109.461 182.913 108.828 182.903 108.122C182.893 107.387 183.06 106.74 183.405 106.183C183.765 105.626 184.334 105.189 185.112 104.871C185.889 104.538 186.906 104.363 188.164 104.345L191.452 104.299L191.482 106.392L188.584 106.432C187.741 106.444 187.16 106.59 186.842 106.871C186.539 107.151 186.391 107.498 186.397 107.912C186.403 108.372 186.585 108.738 186.941 109.009C187.313 109.264 187.813 109.388 188.441 109.379C189.039 109.37 189.574 109.225 190.045 108.942C190.517 108.644 190.856 108.218 191.063 107.663L191.638 109.311C191.388 110.112 190.922 110.724 190.238 111.148C189.553 111.571 188.667 111.791 187.579 111.806ZM197.098 116.135C196.546 116.142 196.016 116.089 195.508 115.973C195.001 115.873 194.569 115.71 194.213 115.485L195.143 112.873C195.561 113.158 196.069 113.297 196.667 113.288C197.111 113.282 197.462 113.124 197.718 112.814C197.99 112.518 198.122 112.072 198.113 111.474L197.939 99.1011L201.527 99.0507L201.701 111.4C201.721 112.826 201.33 113.967 200.53 114.821C199.729 115.676 198.585 116.114 197.098 116.135ZM199.709 97.3511C199.05 97.3604 198.51 97.1762 198.091 96.7988C197.672 96.4213 197.458 95.9489 197.45 95.3816C197.442 94.8144 197.642 94.3362 198.051 93.9471C198.459 93.5579 198.993 93.3587 199.653 93.3495C200.312 93.3402 200.851 93.5166 201.27 93.8788C201.689 94.2256 201.902 94.6826 201.91 95.2499C201.919 95.8479 201.719 96.3491 201.311 96.7535C200.917 97.1424 200.383 97.3416 199.709 97.3511ZM210.894 111.478C209.576 111.497 208.399 111.237 207.364 110.7C206.344 110.162 205.529 109.422 204.918 108.48C204.321 107.522 204.015 106.43 203.997 105.204C203.98 103.962 204.256 102.861 204.825 101.903C205.409 100.928 206.204 100.166 207.208 99.6149C208.228 99.0485 209.397 98.756 210.715 98.7375C212.018 98.7191 213.187 98.9787 214.222 99.5162C215.257 100.038 216.073 100.771 216.669 101.713C217.265 102.655 217.571 103.755 217.589 105.012C217.606 106.239 217.33 107.339 216.761 108.313C216.192 109.272 215.398 110.035 214.378 110.601C213.359 111.168 212.197 111.46 210.894 111.478ZM210.853 108.534C211.451 108.526 211.985 108.381 212.457 108.098C212.928 107.815 213.298 107.419 213.567 106.909C213.836 106.384 213.965 105.769 213.955 105.064C213.945 104.343 213.799 103.732 213.516 103.23C213.232 102.727 212.851 102.342 212.372 102.072C211.893 101.803 211.354 101.673 210.757 101.681C210.159 101.69 209.624 101.835 209.152 102.118C208.681 102.4 208.303 102.797 208.019 103.307C207.75 103.817 207.621 104.432 207.631 105.152C207.641 105.858 207.788 106.469 208.071 106.986C208.369 107.488 208.758 107.874 209.237 108.143C209.716 108.412 210.255 108.543 210.853 108.534ZM221.366 115.793C220.722 115.802 220.085 115.712 219.453 115.521C218.822 115.331 218.304 115.062 217.901 114.715L219.176 112.144C219.455 112.385 219.772 112.572 220.127 112.706C220.497 112.838 220.858 112.902 221.211 112.897C221.717 112.89 222.113 112.762 222.401 112.513C222.705 112.278 222.975 111.883 223.213 111.328L223.835 109.801L224.106 109.406L228.394 98.6729L231.844 98.6244L226.44 111.835C226.056 112.837 225.607 113.625 225.093 114.2C224.595 114.774 224.034 115.181 223.408 115.42C222.798 115.658 222.118 115.783 221.366 115.793ZM223.424 111.601L217.723 98.8229L221.426 98.7709L225.849 109.06L223.424 111.601ZM233.482 110.977L233.308 98.6038L236.896 98.5533L237.07 110.926L233.482 110.977ZM235.077 96.8537C234.418 96.863 233.879 96.6789 233.46 96.3014C233.04 95.924 232.827 95.4516 232.819 94.8843C232.811 94.317 233.011 93.8388 233.419 93.4497C233.828 93.0606 234.362 92.8614 235.021 92.8521C235.68 92.8429 236.22 93.0193 236.639 93.3814C237.058 93.7283 237.271 94.1853 237.279 94.7526C237.288 95.3505 237.088 95.8517 236.679 96.2562C236.286 96.6451 235.752 96.8443 235.077 96.8537ZM247.715 110.96C246.626 110.976 245.688 110.759 244.9 110.31C244.111 109.861 243.503 109.172 243.076 108.242C242.649 107.298 242.425 106.105 242.405 104.663C242.385 103.207 242.582 102.008 242.998 101.067C243.43 100.125 244.033 99.4191 244.809 98.9481C245.584 98.4772 246.493 98.2344 247.536 98.2197C248.701 98.2033 249.747 98.4493 250.675 98.9577C251.617 99.4658 252.363 100.191 252.913 101.134C253.479 102.077 253.771 103.2 253.789 104.503C253.807 105.791 253.547 106.914 253.008 107.873C252.485 108.831 251.759 109.585 250.832 110.135C249.919 110.669 248.88 110.944 247.715 110.96ZM240.399 110.879L240.159 93.815L243.747 93.7645L243.848 100.963L243.67 104.623L243.79 108.301L243.826 110.831L240.399 110.879ZM247.053 108.025C247.651 108.017 248.178 107.872 248.634 107.589C249.105 107.307 249.475 106.91 249.744 106.4C250.028 105.875 250.165 105.26 250.155 104.555C250.145 103.834 249.991 103.223 249.692 102.721C249.409 102.219 249.028 101.833 248.549 101.564C248.085 101.294 247.554 101.164 246.956 101.172C246.358 101.181 245.824 101.326 245.352 101.609C244.881 101.891 244.511 102.288 244.242 102.797C243.973 103.307 243.844 103.923 243.854 104.643C243.864 105.348 244.01 105.96 244.294 106.477C244.577 106.979 244.958 107.365 245.437 107.634C245.916 107.903 246.455 108.034 247.053 108.025ZM41.6027 136.861C40.5448 136.876 39.5235 136.768 38.5388 136.536C37.5693 136.289 36.7981 135.978 36.2255 135.602L37.3851 133.01C37.9574 133.355 38.6284 133.636 39.3982 133.856C40.1832 134.059 40.9513 134.156 41.7025 134.145C42.5304 134.134 43.1117 134.026 43.4462 133.822C43.796 133.617 43.9684 133.339 43.9635 132.986C43.9594 132.695 43.8184 132.482 43.5404 132.348C43.2776 132.199 42.9234 132.089 42.4777 132.018C42.032 131.948 41.5403 131.878 41.0026 131.809C40.4802 131.74 39.9499 131.647 39.4116 131.532C38.873 131.402 38.3796 131.209 37.9313 130.955C37.483 130.701 37.1178 130.353 36.8355 129.912C36.5686 129.471 36.4302 128.898 36.4203 128.193C36.4093 127.411 36.6219 126.718 37.0581 126.114C37.5097 125.509 38.1624 125.033 39.0162 124.683C39.8698 124.318 40.8946 124.128 42.0905 124.111C42.9337 124.099 43.7936 124.179 44.6701 124.351C45.5466 124.522 46.2786 124.78 46.8662 125.125L45.7062 127.694C45.1033 127.35 44.4944 127.121 43.8794 127.007C43.2795 126.877 42.6959 126.817 42.1286 126.825C41.3314 126.836 40.7503 126.951 40.3853 127.171C40.0204 127.391 39.8403 127.67 39.845 128.007C39.8493 128.313 39.9829 128.542 40.2457 128.691C40.5238 128.841 40.8859 128.958 41.3318 129.044C41.7777 129.13 42.2618 129.207 42.7842 129.277C43.3217 129.33 43.8597 129.422 44.3982 129.553C44.9368 129.683 45.4225 129.876 45.8555 130.131C46.3036 130.37 46.6687 130.709 46.9509 131.15C47.2329 131.576 47.3789 132.141 47.3888 132.846C47.3996 133.613 47.1792 134.298 46.7277 134.903C46.2759 135.492 45.6154 135.961 44.7463 136.311C43.8924 136.66 42.8446 136.844 41.6027 136.861ZM55.5451 136.665C54.2265 136.683 53.0498 136.424 52.0148 135.886C50.9951 135.349 50.1796 134.609 49.5683 133.667C48.9721 132.709 48.6654 131.617 48.6482 130.39C48.6307 129.148 48.9066 128.048 49.4758 127.089C50.0602 126.115 50.8546 125.352 51.8589 124.802C52.8784 124.235 54.0474 123.943 55.3659 123.924C56.6691 123.906 57.8382 124.165 58.8732 124.703C59.908 125.225 60.7234 125.957 61.3193 126.9C61.9153 127.842 62.2221 128.942 62.2398 130.199C62.2571 131.426 61.9812 132.526 61.4122 133.5C60.8429 134.459 60.0486 135.221 59.0291 135.788C58.0096 136.354 56.8483 136.647 55.5451 136.665ZM55.5037 133.721C56.1016 133.713 56.6363 133.567 57.1077 133.285C57.5791 133.002 57.9492 132.606 58.2181 132.096C58.4867 131.571 58.6161 130.956 58.6062 130.25C58.596 129.53 58.4494 128.918 58.1664 128.416C57.8833 127.914 57.5021 127.528 57.023 127.259C56.5438 126.99 56.0052 126.859 55.4073 126.868C54.8094 126.876 54.2747 127.022 53.8033 127.304C53.3319 127.587 52.9541 127.983 52.6699 128.494C52.401 129.003 52.2717 129.619 52.2818 130.339C52.2917 131.044 52.4383 131.656 52.7216 132.173C53.0201 132.675 53.4088 133.061 53.888 133.33C54.3672 133.599 54.9057 133.73 55.5037 133.721ZM67.7456 136.309L62.3742 124.01L66.0768 123.958L70.5501 134.545L68.7103 134.571L73.0451 123.86L76.4948 123.811L71.4483 136.257L67.7456 136.309ZM78.1327 136.163L77.9587 123.791L81.3854 123.742L81.4346 127.238L80.9374 126.233C81.293 125.354 81.874 124.686 82.6804 124.23C83.4865 123.759 84.4722 123.515 85.6374 123.499L85.684 126.81C85.5304 126.797 85.3923 126.791 85.2697 126.793C85.1468 126.779 85.0164 126.774 84.8784 126.776C83.8972 126.789 83.1039 127.084 82.4986 127.66C81.9084 128.22 81.6216 129.091 81.6382 130.271L81.7204 136.113L78.1327 136.163ZM87.9696 136.025L87.7957 123.652L91.3833 123.602L91.5573 135.975L87.9696 136.025ZM89.5652 121.902C88.906 121.911 88.3666 121.727 87.9473 121.35C87.5279 120.972 87.3143 120.5 87.3063 119.933C87.2983 119.365 87.4986 118.887 87.9072 118.498C88.3158 118.109 88.8497 117.91 89.509 117.901C90.1682 117.891 90.7074 118.068 91.1266 118.43C91.5455 118.777 91.7589 119.234 91.7669 119.801C91.7753 120.399 91.5753 120.9 91.167 121.305C90.7737 121.693 90.2398 121.893 89.5652 121.902ZM102.231 123.265C103.212 123.251 104.089 123.438 104.861 123.826C105.648 124.199 106.27 124.788 106.726 125.594C107.182 126.385 107.418 127.409 107.436 128.667L107.536 135.75L103.948 135.8L103.856 129.269C103.842 128.272 103.61 127.54 103.158 127.071C102.722 126.601 102.106 126.372 101.308 126.383C100.741 126.391 100.229 126.521 99.7727 126.773C99.3313 127.009 98.9837 127.375 98.73 127.869C98.4916 128.363 98.3778 128.993 98.3885 129.76L98.4746 135.877L94.8869 135.928L94.7129 123.555L98.1396 123.507L98.1878 126.933L97.5293 125.908C97.9623 125.073 98.5896 124.428 99.4113 123.972C100.233 123.516 101.173 123.28 102.231 123.265ZM110.788 135.704L110.548 118.64L114.135 118.589L114.375 135.654L110.788 135.704ZM125.294 135.5L125.26 133.085L125.023 132.56L124.962 128.236C124.951 127.469 124.705 126.875 124.224 126.452C123.758 126.029 123.042 125.825 122.076 125.838C121.417 125.848 120.767 125.964 120.126 126.188C119.5 126.396 118.967 126.68 118.528 127.038L117.204 124.55C117.872 124.065 118.68 123.686 119.627 123.412C120.574 123.138 121.538 122.994 122.519 122.98C124.405 122.953 125.875 123.377 126.93 124.252C127.985 125.127 128.526 126.507 128.553 128.393L128.652 135.453L125.294 135.5ZM121.525 135.737C120.559 135.751 119.729 135.601 119.035 135.289C118.34 134.962 117.805 134.517 117.429 133.955C117.053 133.392 116.86 132.759 116.85 132.054C116.84 131.318 117.007 130.671 117.352 130.114C117.712 129.557 118.281 129.12 119.058 128.802C119.836 128.469 120.853 128.294 122.11 128.276L125.399 128.23L125.428 130.323L122.531 130.363C121.687 130.375 121.107 130.522 120.789 130.802C120.486 131.082 120.337 131.429 120.343 131.843C120.35 132.303 120.531 132.669 120.888 132.94C121.259 133.195 121.76 133.319 122.388 133.31C122.986 133.301 123.521 133.156 123.992 132.873C124.463 132.575 124.802 132.149 125.009 131.594L125.584 133.242C125.335 134.043 124.868 134.655 124.184 135.079C123.5 135.502 122.614 135.722 121.525 135.737ZM131.899 135.407L131.725 123.034L135.152 122.986L135.201 126.482L134.704 125.477C135.059 124.598 135.64 123.93 136.447 123.474C137.253 123.003 138.238 122.759 139.404 122.742L139.45 126.054C139.297 126.041 139.158 126.035 139.036 126.037C138.913 126.023 138.783 126.018 138.645 126.019C137.663 126.033 136.87 126.328 136.265 126.904C135.675 127.464 135.388 128.335 135.404 129.515L135.487 135.357L131.899 135.407ZM149.079 122.606C150.061 122.593 150.937 122.78 151.71 123.168C152.497 123.54 153.119 124.129 153.575 124.935C154.031 125.726 154.267 126.751 154.285 128.008L154.385 135.091L150.797 135.142L150.705 128.61C150.691 127.614 150.458 126.881 150.007 126.412C149.571 125.943 148.954 125.713 148.157 125.725C147.59 125.733 147.078 125.863 146.622 126.114C146.18 126.351 145.833 126.716 145.579 127.21C145.34 127.704 145.227 128.334 145.237 129.101L145.323 135.218L141.736 135.269L141.562 122.896L144.988 122.848L145.037 126.275L144.378 125.249C144.811 124.415 145.438 123.769 146.26 123.313C147.082 122.857 148.022 122.621 149.079 122.606ZM157.637 135.045L157.463 122.673L161.05 122.622L161.224 134.995L157.637 135.045ZM159.232 120.923C158.573 120.932 158.034 120.748 157.614 120.37C157.195 119.993 156.981 119.52 156.973 118.953C156.965 118.386 157.166 117.908 157.574 117.518C157.983 117.129 158.517 116.93 159.176 116.921C159.835 116.912 160.374 117.088 160.793 117.45C161.212 117.797 161.426 118.254 161.434 118.821C161.442 119.419 161.242 119.92 160.834 120.325C160.441 120.714 159.907 120.913 159.232 120.923ZM176.336 134.966C175.171 134.983 174.117 134.737 173.174 134.229C172.232 133.721 171.478 132.995 170.912 132.052C170.362 131.109 170.078 129.986 170.06 128.683C170.042 127.395 170.294 126.272 170.818 125.314C171.356 124.356 172.09 123.609 173.017 123.075C173.945 122.525 174.992 122.242 176.157 122.226C177.245 122.21 178.176 122.427 178.949 122.876C179.738 123.325 180.345 124.015 180.772 124.944C181.2 125.873 181.423 127.066 181.444 128.523C181.464 129.964 181.266 131.163 180.85 132.12C180.434 133.061 179.838 133.767 179.063 134.238C178.288 134.709 177.379 134.952 176.336 134.966ZM176.915 132.014C177.498 132.006 178.025 131.86 178.497 131.578C178.968 131.295 179.338 130.899 179.607 130.389C179.891 129.864 180.028 129.248 180.018 128.543C180.008 127.822 179.854 127.211 179.555 126.709C179.272 126.207 178.891 125.822 178.412 125.552C177.933 125.283 177.402 125.152 176.819 125.161C176.221 125.169 175.687 125.315 175.215 125.597C174.744 125.88 174.366 126.276 174.082 126.786C173.813 127.296 173.683 127.911 173.694 128.632C173.704 129.337 173.85 129.949 174.133 130.466C174.432 130.968 174.821 131.353 175.3 131.623C175.779 131.892 176.318 132.022 176.915 132.014ZM180.099 139.192L180.001 132.224L180.179 128.564L180.059 124.885L180.023 122.355L183.45 122.307L183.686 139.141L180.099 139.192ZM192.835 134.734C191.517 134.753 190.34 134.493 189.305 133.956C188.285 133.418 187.47 132.678 186.858 131.736C186.262 130.778 185.956 129.686 185.938 128.46C185.921 127.218 186.197 126.118 186.766 125.159C187.35 124.184 188.145 123.422 189.149 122.871C190.168 122.305 191.337 122.012 192.656 121.994C193.959 121.975 195.128 122.235 196.163 122.772C197.198 123.295 198.013 124.027 198.609 124.969C199.205 125.912 199.512 127.011 199.53 128.269C199.547 129.495 199.271 130.596 198.702 131.57C198.133 132.528 197.339 133.291 196.319 133.857C195.3 134.424 194.138 134.716 192.835 134.734ZM192.794 131.791C193.392 131.782 193.926 131.637 194.398 131.354C194.869 131.071 195.239 130.675 195.508 130.165C195.777 129.64 195.906 129.025 195.896 128.32C195.886 127.599 195.74 126.988 195.456 126.486C195.173 125.984 194.792 125.598 194.313 125.329C193.834 125.059 193.295 124.929 192.697 124.937C192.099 124.946 191.565 125.091 191.093 125.374C190.622 125.657 190.244 126.053 189.96 126.563C189.691 127.073 189.562 127.688 189.572 128.409C189.582 129.114 189.728 129.725 190.012 130.243C190.31 130.745 190.699 131.13 191.178 131.399C191.657 131.669 192.196 131.799 192.794 131.791ZM201.245 124.863L200.923 118.335L203.981 118.292L203.82 124.827L201.245 124.863ZM206.978 134.352L206.738 117.287L210.326 117.237L210.566 134.301L206.978 134.352ZM219.779 138.818C218.614 138.834 217.485 138.705 216.393 138.429C215.315 138.168 214.413 137.759 213.684 137.202L215.074 134.606C215.601 135.028 216.265 135.356 217.066 135.59C217.882 135.839 218.681 135.958 219.463 135.947C220.736 135.929 221.651 135.633 222.211 135.057C222.785 134.482 223.065 133.635 223.049 132.515L223.023 130.653L223.209 127.545L223.119 124.418L223.082 121.75L226.485 121.702L226.63 132.005C226.663 134.305 226.088 136.007 224.908 137.113C223.727 138.218 222.018 138.787 219.779 138.818ZM219.154 133.582C218.004 133.598 216.958 133.368 216.016 132.89C215.089 132.397 214.335 131.71 213.755 130.829C213.191 129.932 212.9 128.886 212.883 127.69C212.866 126.479 213.127 125.425 213.667 124.528C214.221 123.615 214.955 122.907 215.868 122.403C216.797 121.9 217.836 121.64 218.986 121.623C220.028 121.609 220.951 121.81 221.754 122.229C222.557 122.631 223.188 123.274 223.645 124.157C224.102 125.025 224.34 126.149 224.359 127.528C224.378 128.893 224.172 130.023 223.74 130.919C223.307 131.799 222.696 132.459 221.904 132.9C221.113 133.34 220.196 133.568 219.154 133.582ZM219.825 130.629C220.454 130.62 221.012 130.489 221.499 130.237C221.986 129.969 222.364 129.604 222.634 129.14C222.903 128.676 223.034 128.145 223.025 127.547C223.017 126.934 222.871 126.407 222.589 125.966C222.307 125.51 221.918 125.163 221.424 124.924C220.93 124.671 220.368 124.548 219.74 124.557C219.111 124.566 218.553 124.704 218.067 124.972C217.579 125.224 217.193 125.582 216.909 126.046C216.639 126.495 216.508 127.025 216.517 127.639C216.525 128.237 216.671 128.764 216.953 129.22C217.251 129.676 217.647 130.03 218.141 130.284C218.635 130.523 219.197 130.637 219.825 130.629ZM237.588 133.921L237.554 131.506L237.316 130.981L237.256 126.657C237.245 125.89 236.999 125.296 236.517 124.873C236.051 124.45 235.336 124.246 234.37 124.259C233.71 124.269 233.06 124.385 232.419 124.609C231.794 124.817 231.261 125.101 230.821 125.459L229.498 122.971C230.166 122.486 230.973 122.107 231.92 121.833C232.867 121.559 233.831 121.415 234.812 121.401C236.698 121.374 238.169 121.798 239.224 122.673C240.279 123.548 240.82 124.928 240.846 126.814L240.945 133.874L237.588 133.921ZM233.819 134.158C232.853 134.172 232.023 134.022 231.328 133.71C230.634 133.382 230.098 132.938 229.722 132.376C229.346 131.813 229.153 131.18 229.143 130.474C229.133 129.739 229.3 129.092 229.645 128.535C230.005 127.978 230.574 127.541 231.352 127.223C232.129 126.89 233.147 126.715 234.404 126.697L237.693 126.651L237.722 128.744L234.824 128.784C233.981 128.796 233.4 128.942 233.082 129.223C232.78 129.503 232.631 129.85 232.637 130.264C232.643 130.724 232.825 131.09 233.181 131.361C233.553 131.616 234.053 131.74 234.682 131.731C235.28 131.722 235.814 131.577 236.286 131.294C236.757 130.996 237.096 130.57 237.303 130.015L237.878 131.663C237.629 132.464 237.162 133.076 236.478 133.5C235.794 133.923 234.907 134.143 233.819 134.158ZM103.397 156.28L103.427 151.909L109.123 146.355L113.4 146.294L107.937 152.007L106.096 153.551L103.397 156.28ZM100.466 158.852L100.226 141.787L103.813 141.737L104.053 158.801L100.466 158.852ZM109.688 158.722L105.429 153.583L107.644 150.769L114.034 158.661L109.688 158.722ZM115.648 158.638L115.474 146.265L119.061 146.215L119.235 158.588L115.648 158.638ZM117.243 144.515C116.584 144.524 116.045 144.34 115.625 143.963C115.206 143.585 114.992 143.113 114.984 142.546C114.976 141.978 115.177 141.5 115.585 141.111C115.994 140.722 116.528 140.523 117.187 140.514C117.846 140.504 118.386 140.681 118.805 141.043C119.224 141.39 119.437 141.847 119.445 142.414C119.453 143.012 119.253 143.513 118.845 143.918C118.452 144.307 117.918 144.506 117.243 144.515ZM122.565 158.541L122.391 146.168L125.818 146.12L125.867 149.615L125.37 148.61C125.725 147.731 126.306 147.064 127.113 146.608C127.919 146.136 128.904 145.892 130.07 145.876L130.116 149.188C129.963 149.174 129.825 149.169 129.702 149.17C129.579 149.157 129.449 149.151 129.311 149.153C128.329 149.167 127.536 149.462 126.931 150.038C126.341 150.598 126.054 151.468 126.071 152.649L126.153 158.49L122.565 158.541ZM132.402 158.402L132.228 146.03L135.816 145.979L135.99 158.352L132.402 158.402ZM133.998 144.28C133.338 144.289 132.799 144.105 132.38 143.727C131.96 143.35 131.747 142.877 131.739 142.31C131.731 141.743 131.931 141.265 132.339 140.876C132.748 140.486 133.282 140.287 133.941 140.278C134.601 140.269 135.14 140.445 135.559 140.807C135.978 141.154 136.191 141.611 136.199 142.178C136.208 142.776 136.008 143.278 135.599 143.682C135.206 144.071 134.672 144.27 133.998 144.28ZM144.381 158.418C142.925 158.438 141.785 158.086 140.962 157.362C140.139 156.622 139.717 155.516 139.696 154.044L139.544 143.19L143.131 143.139L143.283 153.948C143.291 154.469 143.434 154.874 143.714 155.161C143.994 155.433 144.372 155.566 144.847 155.559C145.414 155.551 145.895 155.391 146.29 155.079L147.291 157.595C146.927 157.861 146.485 158.066 145.966 158.212C145.461 158.341 144.933 158.41 144.381 158.418ZM137.716 148.989L137.677 146.229L146.255 146.108L146.294 148.868L137.716 148.989ZM149.313 158.165L149.139 145.792L152.727 145.741L152.901 158.114L149.313 158.165ZM150.909 144.042C150.25 144.051 149.71 143.867 149.291 143.49C148.872 143.112 148.658 142.64 148.65 142.072C148.642 141.505 148.842 141.027 149.251 140.638C149.659 140.249 150.193 140.049 150.853 140.04C151.512 140.031 152.051 140.207 152.47 140.57C152.889 140.916 153.103 141.373 153.111 141.941C153.119 142.539 152.919 143.04 152.511 143.444C152.117 143.833 151.584 144.032 150.909 144.042ZM163.574 145.405C164.556 145.391 165.432 145.578 166.204 145.966C166.992 146.338 167.613 146.928 168.07 147.734C168.525 148.525 168.762 149.549 168.78 150.806L168.879 157.89L165.292 157.94L165.2 151.409C165.186 150.412 164.953 149.679 164.502 149.21C164.066 148.741 163.449 148.512 162.652 148.523C162.085 148.531 161.573 148.661 161.116 148.913C160.675 149.149 160.327 149.514 160.074 150.009C159.835 150.503 159.721 151.133 159.732 151.9L159.818 158.017L156.231 158.067L156.057 145.695L159.483 145.646L159.531 149.073L158.873 148.047C159.306 147.213 159.933 146.568 160.755 146.112C161.577 145.655 162.516 145.42 163.574 145.405ZM178.105 162.406C176.94 162.423 175.811 162.293 174.718 162.017C173.641 161.756 172.738 161.347 172.01 160.79L173.399 158.194C173.927 158.616 174.591 158.944 175.391 159.178C176.208 159.427 177.007 159.546 177.789 159.535C179.061 159.518 179.977 159.221 180.536 158.646C181.111 158.07 181.39 157.223 181.375 156.104L181.348 154.241L181.535 151.133L181.445 148.006L181.407 145.338L184.811 145.29L184.956 155.593C184.988 157.893 184.414 159.596 183.234 160.701C182.053 161.806 180.343 162.375 178.105 162.406ZM177.479 157.171C176.329 157.187 175.283 156.956 174.341 156.479C173.414 155.986 172.661 155.298 172.081 154.417C171.516 153.52 171.226 152.474 171.209 151.278C171.192 150.067 171.453 149.013 171.992 148.116C172.547 147.203 173.281 146.495 174.194 145.992C175.122 145.488 176.161 145.228 177.311 145.212C178.354 145.197 179.277 145.399 180.08 145.817C180.883 146.22 181.513 146.862 181.97 147.745C182.427 148.613 182.665 149.737 182.685 151.117C182.704 152.481 182.497 153.611 182.065 154.507C181.633 155.387 181.021 156.047 180.23 156.488C179.439 156.928 178.522 157.156 177.479 157.171ZM178.151 154.217C178.779 154.208 179.337 154.077 179.824 153.825C180.311 153.558 180.69 153.192 180.959 152.728C181.229 152.264 181.359 151.733 181.351 151.136C181.342 150.522 181.197 149.995 180.915 149.554C180.632 149.098 180.244 148.751 179.75 148.513C179.256 148.259 178.694 148.137 178.065 148.145C177.437 148.154 176.879 148.292 176.392 148.56C175.905 148.812 175.519 149.17 175.234 149.634C174.964 150.083 174.834 150.614 174.842 151.227C174.851 151.825 174.996 152.352 175.279 152.808C175.577 153.264 175.973 153.619 176.467 153.872C176.961 154.111 177.522 154.226 178.151 154.217Z" fill="white"/>
<path d="M86.9657 217.53C85.9018 217.548 84.8642 217.464 83.8527 217.277C82.8602 217.107 81.9504 216.862 81.1233 216.541C80.3148 216.219 79.6272 215.867 79.0603 215.485L80.8462 211.953C81.4697 212.371 82.1296 212.733 82.8257 213.038C83.5402 213.324 84.2816 213.544 85.0497 213.699C85.8176 213.835 86.5841 213.896 87.3493 213.882C88.1892 213.867 88.9061 213.761 89.5 213.564C90.1127 213.367 90.5746 213.097 90.886 212.756C91.216 212.414 91.3767 212 91.3682 211.515C91.3602 211.067 91.1765 210.706 90.817 210.433C90.4574 210.159 89.9867 209.934 89.4048 209.757C88.8413 209.562 88.2126 209.377 87.5187 209.203C86.8249 209.028 86.1212 208.826 85.4077 208.596C84.7125 208.347 84.0723 208.041 83.4872 207.678C82.9203 207.296 82.4543 206.809 82.0892 206.218C81.724 205.627 81.5335 204.884 81.5177 203.988C81.494 202.644 81.8373 201.471 82.5477 200.469C83.2768 199.467 84.3085 198.683 85.6427 198.118C86.9766 197.534 88.5487 197.227 90.3591 197.195C91.6842 197.171 92.9374 197.298 94.1184 197.576C95.2992 197.835 96.3143 198.228 97.1637 198.755L95.5173 202.256C94.7619 201.766 93.9247 201.407 93.0059 201.18C92.0868 200.935 91.142 200.821 90.1714 200.838C89.2942 200.854 88.5402 200.97 87.9092 201.186C87.2969 201.403 86.8261 201.7 86.4968 202.08C86.1858 202.44 86.0344 202.853 86.0426 203.32C86.0508 203.786 86.2256 204.166 86.5668 204.459C86.9264 204.732 87.3972 204.967 87.9794 205.162C88.5613 205.338 89.1992 205.514 89.893 205.688C90.5869 205.863 91.2812 206.065 91.9761 206.295C92.6709 206.526 93.3109 206.823 93.8961 207.186C94.4813 207.549 94.9563 208.016 95.3211 208.589C95.6856 209.142 95.8754 209.848 95.8906 210.707C95.9143 212.051 95.5618 213.233 94.8331 214.254C94.104 215.257 93.0632 216.05 91.7106 216.634C90.3764 217.199 88.7947 217.497 86.9657 217.53ZM105.572 217.089C104.042 217.116 102.702 216.86 101.554 216.32C100.406 215.78 99.5053 215.012 98.8529 214.015C98.2192 213.018 97.8904 211.839 97.8663 210.476C97.8366 208.796 98.2022 207.296 98.963 205.976C99.7235 204.637 100.778 203.573 102.127 202.784C103.495 201.994 105.056 201.584 106.81 201.553C108.359 201.525 109.699 201.782 110.828 202.322C111.977 202.862 112.868 203.63 113.501 204.627C114.153 205.605 114.492 206.785 114.516 208.166C114.545 209.827 114.18 211.327 113.419 212.666C112.659 214.005 111.604 215.069 110.255 215.858C108.906 216.647 107.345 217.058 105.572 217.089ZM105.789 213.501C106.647 213.485 107.4 213.267 108.046 212.845C108.71 212.404 109.222 211.806 109.582 211.053C109.942 210.3 110.114 209.429 110.096 208.44C110.078 207.432 109.765 206.625 109.157 206.02C108.549 205.415 107.704 205.122 106.621 205.141C105.763 205.156 105.001 205.384 104.337 205.825C103.691 206.247 103.179 206.835 102.8 207.589C102.44 208.342 102.269 209.213 102.286 210.202C102.304 211.229 102.617 212.044 103.226 212.65C103.833 213.236 104.688 213.52 105.789 213.501ZM119.696 216.616L116.099 201.613L120.41 201.537L123.411 214.45L121.171 214.489L128.921 201.386L133.288 201.309L124.204 216.536L119.696 216.616ZM132.341 216.392L135.07 201.278L139.214 201.205L138.421 205.503L138.008 204.278C138.658 203.053 139.52 202.189 140.594 201.684C141.668 201.18 142.961 200.914 144.473 200.888L143.76 204.933C143.573 204.917 143.396 204.911 143.228 204.914C143.078 204.898 142.919 204.892 142.751 204.895C141.463 204.917 140.415 205.253 139.605 205.902C138.813 206.551 138.29 207.587 138.035 209.011L136.708 216.315L132.341 216.392ZM144.315 216.181L147.045 201.066L151.384 200.99L148.655 216.104L144.315 216.181ZM149.919 198.915C149.154 198.929 148.534 198.725 148.06 198.304C147.586 197.864 147.343 197.327 147.332 196.692C147.319 195.946 147.569 195.325 148.083 194.831C148.615 194.317 149.311 194.053 150.169 194.038C150.934 194.024 151.554 194.228 152.028 194.649C152.521 195.051 152.773 195.56 152.783 196.176C152.798 196.979 152.539 197.637 152.006 198.15C151.492 198.645 150.797 198.9 149.919 198.915ZM164.197 200.539C165.485 200.517 166.581 200.768 167.487 201.293C168.392 201.8 169.04 202.563 169.431 203.583C169.823 204.603 169.882 205.872 169.611 207.389L168.078 215.761L163.711 215.838L165.192 207.747C165.397 206.642 165.288 205.794 164.867 205.204C164.465 204.614 163.732 204.328 162.668 204.347C161.567 204.366 160.648 204.7 159.913 205.348C159.196 205.995 158.71 206.974 158.453 208.286L157.076 215.955L152.709 216.033L155.438 200.918L159.581 200.845L158.789 205.115L158.15 203.839C158.859 202.725 159.74 201.906 160.795 201.383C161.868 200.842 163.002 200.56 164.197 200.539ZM172.065 215.691L175.841 194.845L180.209 194.768L176.432 215.614L172.065 215.691ZM187.292 215.646C186.135 215.666 185.057 215.424 184.059 214.919C183.06 214.395 182.253 213.634 181.638 212.637C181.023 211.64 180.703 210.432 180.678 209.014C180.656 207.744 180.841 206.574 181.232 205.503C181.643 204.432 182.224 203.497 182.975 202.7C183.726 201.903 184.602 201.28 185.603 200.833C186.602 200.368 187.681 200.124 188.838 200.104C190.089 200.082 191.166 200.296 192.07 200.747C192.974 201.198 193.65 201.914 194.096 202.896C194.561 203.858 194.742 205.115 194.639 206.667C194.577 208.441 194.241 210.006 193.63 211.361C193.019 212.698 192.178 213.739 191.109 214.486C190.058 215.233 188.785 215.619 187.292 215.646ZM188.572 212.011C189.431 211.995 190.183 211.777 190.829 211.355C191.493 210.914 192.006 210.326 192.366 209.591C192.745 208.838 192.926 207.966 192.908 206.977C192.89 205.951 192.568 205.144 191.941 204.558C191.334 203.971 190.488 203.687 189.406 203.707C188.566 203.721 187.814 203.949 187.15 204.391C186.485 204.813 185.963 205.401 185.585 206.154C185.224 206.889 185.053 207.751 185.07 208.74C185.088 209.766 185.401 210.573 186.009 211.16C186.635 211.746 187.49 212.03 188.572 212.011ZM191.628 215.345L192.163 212.339L193.063 207.843L193.572 203.353L194.133 200.235L198.501 200.157L195.771 215.272L191.628 215.345ZM199.815 215.201L202.544 200.086L206.687 200.013L205.895 204.312L205.481 203.087C206.132 201.862 206.994 200.997 208.068 200.493C209.142 199.988 210.435 199.723 211.947 199.696L211.234 203.741C211.047 203.726 210.869 203.72 210.702 203.723C210.552 203.707 210.393 203.7 210.225 203.703C208.937 203.726 207.888 204.062 207.078 204.711C206.287 205.359 205.764 206.395 205.509 207.819L204.182 215.123L199.815 215.201Z" fill="#F84F9F"/>
<defs>
<filter id="filter0_f_174001_2877" x="14.4471" y="15.2834" width="265.988" height="271.825" filterUnits="userSpaceOnUse" color-interpolation-filters="sRGB">
<feFlood flood-opacity="0" result="BackgroundImageFix"/>
<feBlend mode="normal" in="SourceGraphic" in2="BackgroundImageFix" result="shape"/>
<feGaussianBlur stdDeviation="3.52473" result="effect1_foregroundBlur_174001_2877"/>
</filter>
</defs>
</svg>
