<svg width="284" height="288" viewBox="0 0 284 288" fill="none" xmlns="http://www.w3.org/2000/svg">
<g style="mix-blend-mode:multiply" filter="url(#filter0_f_171537_2449)">
<path d="M273.385 263.899L35.4911 280.059C31.9179 198.802 29.3695 119.146 21.4965 38.1645L254.554 22.3328C258.443 104.395 266.235 183.695 273.385 263.899Z" fill="#525252" fill-opacity="0.35"/>
</g>
<path d="M262.226 263.031L19.0188 262.975C21.0182 182.539 22.2852 102.12 19.8899 21.6829L261.482 21.7383C259.749 102.973 260.513 183.41 262.226 263.031Z" fill="#FD6FAB"/>
<mask id="mask0_171537_2449" style="mask-type:alpha" maskUnits="userSpaceOnUse" x="20" y="20" width="244" height="242">
<path d="M263.228 261.683L20.0205 261.627C22.0199 181.191 23.2869 100.771 20.8916 20.3344L262.484 20.3898C260.751 101.625 261.515 182.062 263.228 261.683Z" fill="#FFF27C"/>
</mask>
<g mask="url(#mask0_171537_2449)">
<rect x="20.6152" y="21.5571" width="240.214" height="43.8707" transform="rotate(0.0740982 20.6152 21.5571)" fill="#F84F9F"/>
</g>
<g clip-path="url(#clip0_171537_2449)">
<path d="M32.585 196.68C43.9952 196.443 55.4054 196.331 66.8156 196.15C60.0611 196.899 53.3128 197.699 46.5707 198.549C45.0043 198.752 44.1623 199.686 43.9085 200.762C43.1284 200.751 42.336 200.734 41.5497 200.722C38.6213 200.672 37.3583 203.459 38.1818 205.277C37.7731 205.277 37.3707 205.277 36.9621 205.277C32.9503 205.306 32.1516 211.004 36.2254 210.987C38.4913 210.976 40.7511 211.009 43.0108 211.004C42.5589 211.595 42.3174 212.287 42.3174 212.991C40.6891 213.098 39.0609 213.16 37.4326 213.273C33.1051 213.56 34.139 219.624 38.4542 219.337C39.3704 219.275 40.2867 219.224 41.2092 219.168C40.491 221.003 41.8531 223.712 44.7567 223.593C46.5521 223.52 48.3599 223.486 50.1553 223.419C48.5456 225.125 49.8829 228.751 53.2323 228.605C54.4953 228.554 55.7645 228.52 57.0212 228.469C55.8635 230.254 57.2317 233.458 60.383 233.368C106.798 232.017 153.237 231.302 199.683 231.24C206.072 231.228 212.461 231.228 218.85 231.251C225.394 231.262 232.402 231.921 238.872 230.981C241.918 230.536 242.023 227.017 239.671 225.908C240.668 225.84 241.664 225.806 242.649 225.688C245.998 225.288 245.713 220.925 242.55 220.44C242.215 220.39 241.881 220.378 241.553 220.333C242.76 219.556 243.033 218.115 242.407 216.983C242.859 216.995 243.311 217.017 243.757 217.028C245.026 217.051 245.924 216.437 246.357 215.638C248.19 215.638 250.016 215.649 251.836 215.626C254.969 215.576 254.777 210.936 251.743 210.66C249.942 210.497 248.128 210.441 246.326 210.311C247.069 210.204 247.825 210.103 248.561 209.939C251.434 209.286 251.57 205.581 248.462 205.114C246.976 204.889 245.478 204.799 243.967 204.754C243.955 204.168 243.738 203.6 243.311 203.155C248.023 203.07 252.734 203.008 257.445 202.811C260.609 202.682 260.522 197.84 257.346 197.71C250.524 197.44 243.689 197.327 236.86 197.276C236.656 196.578 236.173 195.976 235.312 195.768C233.814 195.396 232.266 195.176 230.719 194.923C233.096 194.923 235.467 194.94 237.838 194.923C241.256 194.895 242.085 190.233 238.482 189.974C238.445 189.974 238.408 189.974 238.365 189.974C237.968 189.343 237.355 188.819 236.272 188.684C232.242 188.217 228.199 187.862 224.144 187.553C223.976 186.365 223.147 185.261 221.611 185.171C214.919 184.782 208.208 184.687 201.497 184.63C201.986 183.071 201.181 181.094 199.045 180.999C186.359 180.441 173.538 181.139 160.846 181.348C148.402 181.556 135.958 181.764 123.514 181.978C119.087 182.057 114.66 182.125 110.234 182.204C103.801 181.933 97.3686 181.697 90.936 181.382C78.5724 180.773 66.2026 180.098 53.8266 179.355C51.1954 179.197 49.8891 181.398 50.2358 183.2C49.3752 183.217 48.5271 183.228 47.6665 183.245C46.1187 183.273 45.2829 184.073 45.0229 185.086C40.7944 185.238 36.5597 185.374 32.3312 185.554C29.0808 185.7 28.858 189.146 30.7648 190.784C27.465 191.612 28.6041 196.764 32.585 196.685L32.585 196.68Z" fill="white"/>
</g>
<path d="M54.1132 112.706C54.2198 112.706 54.3265 112.732 54.4331 112.786C54.7132 112.639 55.2 112.507 55.8934 112.387C56.7869 112.268 57.6598 112.735 58.5122 113.789C58.9518 114.336 59.1446 114.91 59.0907 115.51C59.0369 116.097 58.7498 116.63 58.2294 117.109C57.749 117.535 57.2954 117.875 56.8685 118.128C56.9884 118.195 57.1084 118.262 57.2283 118.328C58.3478 118.929 58.8604 119.736 58.7662 120.75C58.6587 121.763 57.8714 122.469 56.4044 122.868L55.0841 123.226C55.0973 123.373 55.0638 123.513 54.9837 123.646C54.9036 123.766 54.7902 123.853 54.6435 123.906C54.4835 123.973 54.3168 123.966 54.1435 123.886C53.9703 123.806 53.8504 123.685 53.7838 123.525L53.724 123.325C53.6841 123.245 53.6575 123.159 53.6442 123.065C53.631 122.972 53.6178 122.852 53.6045 122.705C53.6047 122.559 53.5981 122.432 53.5849 122.325C53.585 122.219 53.5851 122.039 53.5853 121.785C53.5856 121.519 53.5858 121.305 53.5859 121.145C53.5736 119.959 53.568 118.752 53.569 117.525C53.5834 116.325 53.5709 115.339 53.5316 114.565L53.4726 113.405C53.4594 113.232 53.5128 113.078 53.633 112.945C53.7664 112.799 53.9265 112.719 54.1132 112.706ZM54.9453 121.866L56.0455 121.567C56.9257 121.328 57.386 121.008 57.4264 120.609C57.4667 120.195 57.187 119.822 56.5873 119.488C55.801 119.06 55.2812 118.84 55.0279 118.826C55.0012 118.826 54.9612 118.826 54.9079 118.826C54.9072 119.6 54.9132 120.366 54.9259 121.126C54.9257 121.393 54.9321 121.64 54.9453 121.866ZM54.9092 117.286C55.0026 117.273 55.1092 117.267 55.2292 117.267C55.3492 117.267 55.4226 117.267 55.4492 117.267C55.9693 117.161 56.5963 116.781 57.3302 116.128C57.6238 115.849 57.7773 115.609 57.7908 115.409C57.8177 115.196 57.7046 114.929 57.4515 114.609C56.9321 113.955 56.479 113.661 56.0923 113.727C55.5322 113.807 55.1721 113.893 55.0121 113.986L54.852 114.066L54.8716 114.506C54.8976 115.24 54.9102 116.166 54.9092 117.286ZM71.1297 114.94C71.2365 114.78 71.3766 114.681 71.5499 114.641C71.7366 114.601 71.9033 114.634 72.0498 114.741C72.2098 114.835 72.3096 114.975 72.3495 115.161L72.5488 116.002C72.6815 116.642 72.6805 117.842 72.5457 119.602C72.4242 121.281 72.3432 122.495 72.3025 123.241L72.2615 124.381C72.2614 124.555 72.1879 124.701 72.0412 124.821C71.9077 124.954 71.7477 125.014 71.561 125.001C71.3877 125.001 71.2344 124.934 71.1012 124.8C70.9813 124.667 70.9214 124.507 70.9216 124.32L70.9626 123.18C71.0032 122.42 71.0843 121.194 71.2057 119.5C71.3272 117.86 71.3347 116.794 71.2285 116.3L71.0492 115.44C71.0094 115.267 71.0362 115.1 71.1297 114.94ZM62.2652 120.093C62.1987 119.919 62.1989 119.753 62.2657 119.593C62.3458 119.419 62.4726 119.3 62.646 119.233L62.9861 119.093C62.9604 117.933 62.9146 116.973 62.8486 116.213L62.6899 114.673C62.6767 114.486 62.7302 114.326 62.8503 114.193C62.9704 114.047 63.1172 113.967 63.2905 113.954C63.4772 113.927 63.6438 113.974 63.7904 114.094C63.937 114.214 64.0168 114.368 64.03 114.554L64.1687 116.094C64.248 116.828 64.3006 117.714 64.3264 118.754C64.5131 118.741 64.7197 118.721 64.9464 118.695C65.8665 118.629 66.7462 118.983 67.5855 119.757C68.4648 120.545 68.8642 121.345 68.7835 122.158C68.7161 122.985 68.2289 123.631 67.3218 124.097C66.5615 124.47 65.8279 124.696 65.1212 124.775C64.4411 124.855 63.9944 124.881 63.7811 124.854L63.5411 124.834C63.3545 124.82 63.2012 124.74 63.0814 124.593C62.9615 124.46 62.9149 124.3 62.9418 124.113C62.9419 123.967 62.9887 123.84 63.0821 123.733C63.0821 123.707 63.0821 123.687 63.0821 123.673L63.0625 123.293C63.0627 123.053 63.0501 122.127 63.0249 120.513C62.8648 120.54 62.7115 120.513 62.5649 120.433C62.4317 120.353 62.3318 120.239 62.2652 120.093ZM64.4223 123.495C64.5956 123.481 64.7757 123.468 64.9623 123.455C65.5091 123.389 66.0892 123.203 66.7028 122.896C67.1697 122.657 67.4233 122.37 67.4636 122.037C67.4905 121.664 67.2309 121.23 66.6847 120.736C66.1251 120.229 65.5787 119.996 65.0453 120.035C64.7919 120.062 64.5652 120.088 64.3652 120.114C64.3652 120.168 64.3651 120.228 64.3651 120.294C64.3769 122.028 64.3894 123.008 64.4025 123.235L64.4223 123.495ZM75.933 115.264C76.0664 115.118 76.2199 115.038 76.3932 115.025C76.5799 115.012 76.7398 115.065 76.8731 115.185C77.0196 115.305 77.0995 115.459 77.1127 115.645L77.1917 116.706C77.2311 117.439 77.2503 118.439 77.2492 119.706C77.2487 120.212 77.2483 120.679 77.248 121.106C77.7688 120.173 78.3229 119.207 78.9105 118.207C79.6449 116.941 80.1923 116.041 80.5528 115.508C80.7664 115.202 80.9932 115.009 81.2333 114.929C81.4067 114.836 81.5667 114.816 81.7133 114.869C81.86 114.923 81.9799 114.983 82.0732 115.05C82.1665 115.103 82.253 115.197 82.3329 115.33C82.4128 115.463 82.4661 115.577 82.4926 115.67C82.5326 115.75 82.5658 115.837 82.5924 115.93C82.8185 116.664 83.0042 117.777 83.1495 119.271C83.295 120.711 83.4407 121.831 83.5866 122.631C83.7326 123.458 83.8189 123.938 83.8454 124.071L83.8852 124.271C83.9117 124.445 83.8716 124.605 83.7648 124.751C83.658 124.911 83.5113 125.004 83.3246 125.031C83.1512 125.071 82.9846 125.037 82.8247 124.93C82.6781 124.824 82.5915 124.684 82.565 124.51L82.5252 124.31C82.4986 124.177 82.4124 123.697 82.2664 122.87C82.1072 122.043 81.9615 120.89 81.8294 119.41C81.7104 118.223 81.5712 117.303 81.4118 116.649C81.078 117.182 80.6307 117.928 80.0699 118.888C79.3355 120.141 78.6478 121.34 78.0068 122.486C77.9801 122.526 77.94 122.6 77.8866 122.706C77.8332 122.813 77.7797 122.913 77.7263 123.006C77.6862 123.099 77.6261 123.206 77.546 123.326C77.4659 123.446 77.3792 123.546 77.2858 123.626C77.2057 123.706 77.1123 123.779 77.0056 123.845C76.8989 123.899 76.7789 123.919 76.6455 123.905C76.5256 123.892 76.3923 123.845 76.2457 123.765C76.1524 123.711 76.0724 123.651 76.0058 123.585C75.9526 123.504 75.9126 123.438 75.886 123.384C75.8594 123.318 75.8394 123.244 75.8262 123.164C75.8129 123.084 75.8063 123.024 75.8063 122.984C75.8064 122.931 75.8131 122.871 75.8265 122.804C75.8399 122.738 75.8466 122.698 75.8466 122.684C75.8873 121.924 75.9081 120.931 75.9092 119.704C75.9102 118.464 75.8911 117.498 75.8517 116.804L75.7726 115.744C75.7594 115.558 75.8129 115.398 75.933 115.264ZM87.0705 116.314C87.004 116.154 87.0041 115.994 87.0709 115.834C87.1511 115.661 87.2712 115.541 87.4312 115.474C87.458 115.314 87.5248 115.181 87.6316 115.075C87.7517 114.955 87.8917 114.895 88.0517 114.895C88.2518 114.882 88.425 114.942 88.5716 115.075C89.0917 114.929 89.8518 114.81 90.8519 114.717C92.0787 114.585 92.8187 114.546 93.072 114.599L93.3719 114.679C93.5586 114.706 93.6985 114.8 93.7917 114.96C93.8982 115.12 93.9314 115.293 93.8912 115.48C93.8511 115.653 93.751 115.793 93.5909 115.9C93.4441 115.993 93.2774 116.019 93.0908 115.979L92.8109 115.919C92.5976 115.892 91.9909 115.932 90.9908 116.037C90.0173 116.143 89.2906 116.263 88.8105 116.396L88.8694 117.636C88.9482 119.062 88.9871 120.289 88.9862 121.316C88.972 122.329 88.9714 123.062 88.9843 123.516L88.9837 124.196C88.9969 124.382 88.9368 124.542 88.8033 124.676C88.6699 124.809 88.5098 124.875 88.3231 124.875C88.1498 124.888 87.9965 124.828 87.8633 124.695C87.7301 124.561 87.6569 124.408 87.6437 124.235L87.6443 123.555C87.6314 123.088 87.632 122.341 87.6462 121.315C87.6471 120.301 87.6148 119.101 87.5493 117.714C87.5229 117.381 87.5032 117.048 87.4902 116.714C87.2769 116.648 87.137 116.514 87.0705 116.314ZM99.0306 126.584C99.2304 126.785 99.2835 127.011 99.19 127.264L99.1098 127.544C99.0964 127.558 99.0831 127.584 99.0697 127.624C99.0563 127.664 99.0229 127.724 98.9695 127.804C98.9161 127.898 98.8561 127.971 98.7893 128.024C98.7226 128.077 98.6226 128.097 98.4893 128.084C98.356 128.084 98.216 128.03 98.0694 127.924C97.8562 127.79 97.7163 127.643 97.6498 127.483C97.5966 127.336 97.5901 127.136 97.6303 126.883C97.6705 126.63 97.6907 126.49 97.6907 126.463C97.678 125.703 97.6325 124.323 97.5543 122.323C97.5413 121.896 97.5216 121.49 97.4953 121.103C97.3353 121.063 97.2088 120.969 97.1155 120.823C97.0223 120.676 96.9891 120.523 97.0159 120.363L97.1165 119.723C97.1701 119.443 97.2503 119.143 97.3573 118.823C97.331 118.396 97.298 118.01 97.2583 117.663L97.0598 115.943C97.0466 115.769 97.0934 115.609 97.2002 115.463C97.3203 115.316 97.467 115.236 97.6404 115.223C97.8271 115.197 97.9937 115.243 98.1402 115.364C98.2868 115.47 98.3734 115.617 98.3999 115.804L98.499 116.804C98.7393 116.511 99.0262 116.204 99.3598 115.885C99.7868 115.458 100.24 115.179 100.721 115.046C101.201 114.913 101.701 114.953 102.22 115.167C103.153 115.581 103.726 116.722 103.937 118.589C104.163 120.469 103.595 121.902 102.234 122.887C100.886 123.859 99.7861 124.012 98.9334 123.344C98.9855 124.784 99.0179 125.818 99.0307 126.444C99.0307 126.471 99.0306 126.518 99.0306 126.584ZM98.855 121.464L99.6943 122.245C100.027 122.552 100.614 122.399 101.455 121.786C102.389 121.121 102.776 120.108 102.617 118.747C102.538 118.027 102.405 117.474 102.219 117.087C102.046 116.7 101.866 116.467 101.679 116.387C101.253 116.2 100.793 116.353 100.299 116.845C99.6317 117.498 99.1712 118.084 98.9175 118.604C98.8507 118.751 98.7839 118.891 98.7171 119.024C98.7698 119.744 98.8158 120.558 98.855 121.464ZM116.007 114.979C116.114 114.819 116.254 114.719 116.427 114.679C116.614 114.64 116.781 114.673 116.927 114.78C117.087 114.873 117.187 115.013 117.227 115.2L117.426 116.04C117.559 116.68 117.558 117.88 117.423 119.64C117.302 121.32 117.221 122.533 117.18 123.28L117.139 124.42C117.139 124.593 117.065 124.74 116.919 124.86C116.785 124.993 116.625 125.053 116.438 125.039C116.265 125.039 116.112 124.972 115.979 124.839C115.859 124.706 115.799 124.545 115.799 124.359L115.84 123.219C115.881 122.459 115.962 121.232 116.083 119.539C116.205 117.899 116.212 116.832 116.106 116.339L115.927 115.479C115.887 115.306 115.914 115.139 116.007 114.979ZM107.143 120.131C107.076 119.958 107.076 119.791 107.143 119.631C107.223 119.458 107.35 119.338 107.523 119.272L107.864 119.132C107.838 117.972 107.792 117.012 107.726 116.252L107.567 114.712C107.554 114.525 107.608 114.365 107.728 114.232C107.848 114.085 107.995 114.005 108.168 113.992C108.355 113.966 108.521 114.013 108.668 114.133C108.814 114.253 108.894 114.406 108.907 114.593L109.046 116.133C109.126 116.866 109.178 117.753 109.204 118.793C109.391 118.78 109.597 118.76 109.824 118.734C110.744 118.668 111.624 119.022 112.463 119.796C113.342 120.583 113.742 121.384 113.661 122.197C113.594 123.024 113.106 123.67 112.199 124.136C111.439 124.508 110.705 124.734 109.999 124.814C109.319 124.893 108.872 124.92 108.659 124.893L108.419 124.872C108.232 124.859 108.079 124.779 107.959 124.632C107.839 124.499 107.792 124.339 107.819 124.152C107.819 124.005 107.866 123.879 107.96 123.772C107.96 123.745 107.96 123.725 107.96 123.712L107.94 123.332C107.94 123.092 107.928 122.165 107.902 120.552C107.742 120.579 107.589 120.552 107.442 120.472C107.309 120.391 107.209 120.278 107.143 120.131ZM109.3 123.533C109.473 123.52 109.653 123.507 109.84 123.494C110.387 123.427 110.967 123.241 111.58 122.935C112.047 122.696 112.301 122.409 112.341 122.076C112.368 121.703 112.108 121.269 111.562 120.775C111.003 120.268 110.456 120.034 109.923 120.074C109.669 120.1 109.443 120.127 109.243 120.153C109.243 120.206 109.243 120.266 109.243 120.333C109.254 122.066 109.267 123.047 109.28 123.273L109.3 123.533ZM120.749 116.543C120.656 116.383 120.63 116.216 120.67 116.043C120.723 115.856 120.823 115.716 120.97 115.623L121.33 115.424C121.451 115.17 121.644 115.044 121.911 115.044C121.937 115.044 121.957 115.044 121.971 115.044C122.678 114.658 123.444 114.525 124.271 114.646C124.804 114.727 125.217 114.974 125.51 115.387C125.817 115.801 126.01 116.314 126.089 116.928C126.142 117.461 126.055 117.948 125.828 118.387C125.614 118.827 125.28 119.174 124.827 119.427C125.187 119.64 125.48 119.927 125.706 120.287C125.959 120.661 126.065 121.061 126.025 121.488C125.998 121.901 125.824 122.261 125.504 122.567C124.957 123.087 124.197 123.359 123.223 123.385C123.13 123.385 122.943 123.392 122.663 123.405C122.637 123.565 122.557 123.698 122.423 123.805C122.303 123.911 122.163 123.964 122.003 123.964C121.816 123.964 121.656 123.897 121.523 123.764C121.39 123.63 121.323 123.47 121.324 123.284L121.344 123.144C121.184 123.063 121.077 122.937 121.024 122.763C120.984 122.577 121.004 122.41 121.084 122.263C121.138 122.143 121.225 122.05 121.345 121.984C121.345 121.144 121.333 119.897 121.308 118.244L121.289 116.864C121.036 116.85 120.856 116.743 120.749 116.543ZM122.685 122.045C122.845 122.045 123.011 122.045 123.185 122.045C123.811 122.032 124.271 121.879 124.565 121.586C124.672 121.493 124.725 121.42 124.725 121.366C124.739 121.313 124.692 121.193 124.586 121.006C124.346 120.633 123.959 120.413 123.426 120.345C123.133 120.358 122.879 120.298 122.666 120.165C122.679 120.911 122.685 121.531 122.685 122.025C122.685 122.025 122.685 122.031 122.685 122.045ZM122.647 118.865C122.727 118.798 122.821 118.738 122.928 118.685C123.034 118.632 123.128 118.592 123.208 118.565C123.288 118.539 123.394 118.512 123.528 118.485C123.661 118.446 123.748 118.419 123.788 118.406C124.201 118.273 124.475 118.113 124.608 117.926C124.742 117.727 124.789 117.447 124.749 117.087C124.696 116.673 124.616 116.393 124.51 116.246C124.403 116.086 124.257 115.993 124.07 115.966C123.55 115.885 123.063 115.972 122.61 116.225L122.648 118.225C122.648 118.438 122.648 118.651 122.647 118.865ZM133.772 116.954C133.439 116.461 133.099 116.22 132.753 116.233C132.699 116.233 132.606 116.3 132.473 116.433C132.339 116.553 132.139 116.806 131.872 117.193C131.605 117.566 131.345 118.019 131.091 118.552C130.383 120.031 130.369 121.078 131.048 121.692C131.168 121.799 131.275 121.879 131.368 121.932C131.541 122.079 131.708 122.119 131.868 122.053C132.041 121.986 132.241 121.76 132.468 121.373C133.109 120.294 133.49 119.267 133.611 118.294C133.692 117.708 133.745 117.261 133.772 116.954ZM135.113 116.395C135.126 116.435 135.139 116.509 135.152 116.615L135.712 117.496C135.805 117.656 135.831 117.829 135.791 118.016C135.751 118.189 135.658 118.329 135.511 118.436C135.444 118.462 135.371 118.489 135.291 118.516C135.383 119.369 135.563 120.242 135.829 121.136L136.327 122.836C136.367 123.01 136.34 123.183 136.247 123.356C136.167 123.516 136.04 123.623 135.866 123.676C135.693 123.716 135.52 123.696 135.346 123.616C135.187 123.522 135.08 123.389 135.027 123.215L134.528 121.515C134.448 121.248 134.375 120.975 134.309 120.695C134.122 121.148 133.888 121.601 133.608 122.054C133.261 122.654 132.834 123.053 132.327 123.253C131.82 123.453 131.273 123.399 130.687 123.092C130.514 122.985 130.334 122.851 130.147 122.691C128.975 121.623 128.883 120.05 129.871 117.971C130.365 116.971 130.819 116.218 131.233 115.712C131.66 115.192 132.141 114.92 132.674 114.893C133.447 114.867 134.12 115.215 134.693 115.935L135.113 116.395ZM140.199 112.06C140.213 111.873 140.279 111.72 140.4 111.6C140.533 111.467 140.693 111.407 140.88 111.42C141.066 111.421 141.226 111.487 141.36 111.621L141.859 112.141C142.086 112.368 142.299 112.495 142.499 112.522C142.619 112.535 142.699 112.515 142.739 112.462L143.039 112.102C143.159 111.969 143.313 111.896 143.499 111.883C143.686 111.869 143.846 111.923 143.979 112.043C144.126 112.15 144.206 112.297 144.219 112.483C144.232 112.67 144.179 112.837 144.058 112.983L143.758 113.343C143.411 113.756 142.938 113.929 142.338 113.862C141.818 113.795 141.331 113.527 140.878 113.06L140.379 112.54C140.259 112.407 140.199 112.246 140.199 112.06ZM139.617 114.379C139.751 114.246 139.911 114.18 140.097 114.18C140.284 114.167 140.444 114.227 140.577 114.36C140.71 114.48 140.784 114.627 140.797 114.8L140.856 116.14C140.895 117.034 140.974 118.14 141.093 119.461C141.172 120.301 141.231 121.047 141.271 121.701C141.738 120.794 142.246 119.775 142.794 118.642C143.488 117.189 144.042 116.23 144.456 115.763C144.856 115.311 145.157 115.004 145.357 114.844C145.53 114.698 145.69 114.618 145.837 114.605C145.997 114.591 146.13 114.632 146.237 114.725C146.343 114.818 146.437 114.925 146.517 115.045C146.597 115.152 146.656 115.292 146.696 115.465C146.749 115.625 146.783 115.745 146.796 115.826C146.823 115.892 146.836 115.952 146.836 116.006C146.942 116.646 147.081 117.792 147.253 119.446C147.425 121.086 147.53 122.346 147.57 123.226L147.648 124.546C147.648 124.72 147.588 124.873 147.468 125.006C147.348 125.153 147.195 125.233 147.008 125.246C146.821 125.259 146.655 125.199 146.508 125.065C146.375 124.945 146.308 124.792 146.308 124.605L146.23 123.305C146.19 122.438 146.085 121.192 145.913 119.565C145.781 118.205 145.668 117.191 145.575 116.524C145.535 116.578 145.502 116.618 145.475 116.644C145.142 117.017 144.654 117.877 144.013 119.223C143.332 120.623 142.717 121.849 142.17 122.902C142.157 122.915 142.123 122.981 142.07 123.101C142.016 123.208 141.97 123.295 141.929 123.361C141.889 123.428 141.829 123.521 141.749 123.641C141.682 123.748 141.609 123.834 141.529 123.901C141.449 123.968 141.356 124.027 141.249 124.081C141.155 124.121 141.042 124.141 140.909 124.14C140.789 124.127 140.662 124.08 140.529 124C140.436 123.96 140.356 123.907 140.289 123.84C140.222 123.76 140.169 123.693 140.129 123.64C140.103 123.586 140.076 123.513 140.049 123.42C140.036 123.326 140.023 123.266 140.01 123.24C140.01 123.2 140.01 123.126 140.01 123.02C140.01 122.913 140.01 122.86 140.01 122.86C139.957 121.993 139.872 120.9 139.753 119.579C139.634 118.233 139.555 117.106 139.516 116.199L139.457 114.859C139.444 114.673 139.497 114.513 139.617 114.379ZM161.294 114.638C161.414 114.491 161.56 114.412 161.734 114.398C161.92 114.372 162.087 114.419 162.234 114.539C162.38 114.646 162.467 114.792 162.493 114.979L162.732 116.979C162.771 117.353 162.811 117.699 162.851 118.019C163.291 117.473 163.738 116.9 164.192 116.301L165.073 115.161C165.18 115.015 165.327 114.935 165.513 114.922C165.7 114.895 165.86 114.935 165.993 115.042C166.14 115.149 166.226 115.296 166.253 115.482C166.279 115.669 166.239 115.836 166.132 115.982L165.251 117.121C164.664 117.894 164.09 118.627 163.529 119.32L163.369 119.5L163.469 119.6C163.896 120.054 164.581 120.914 165.527 122.182C166.446 123.409 167.072 124.19 167.405 124.523L167.945 125.044C168.064 125.177 168.124 125.337 168.124 125.524C168.124 125.711 168.057 125.864 167.924 125.984C167.804 126.117 167.65 126.183 167.464 126.183C167.277 126.183 167.117 126.123 166.984 126.003L166.464 125.462C166.078 125.089 165.412 124.262 164.466 122.981C163.854 122.18 163.354 121.54 162.968 121.059C162.968 121.553 162.974 122.046 162.987 122.539L163.006 123.699C163.006 123.886 162.939 124.046 162.805 124.179C162.685 124.313 162.532 124.379 162.345 124.379C162.158 124.379 161.999 124.319 161.865 124.198C161.732 124.065 161.666 123.905 161.666 123.718L161.647 122.558C161.634 121.812 161.628 121.065 161.629 120.318C161.456 120.065 161.449 119.805 161.609 119.538C161.583 118.885 161.511 118.085 161.391 117.138L161.153 115.138C161.14 114.951 161.187 114.785 161.294 114.638ZM173.269 126.648C173.469 126.848 173.522 127.075 173.429 127.328L173.348 127.608C173.335 127.622 173.322 127.648 173.308 127.688C173.295 127.728 173.262 127.788 173.208 127.868C173.155 127.962 173.095 128.035 173.028 128.088C172.961 128.141 172.861 128.161 172.728 128.148C172.595 128.148 172.455 128.094 172.308 127.987C172.095 127.854 171.955 127.707 171.889 127.547C171.835 127.4 171.829 127.2 171.869 126.947C171.909 126.694 171.929 126.554 171.929 126.527C171.917 125.767 171.871 124.387 171.793 122.387C171.78 121.96 171.76 121.554 171.734 121.167C171.574 121.127 171.447 121.033 171.354 120.887C171.261 120.74 171.228 120.587 171.255 120.427L171.355 119.787C171.409 119.507 171.489 119.207 171.596 118.887C171.57 118.46 171.537 118.073 171.497 117.727L171.298 116.007C171.285 115.833 171.332 115.673 171.439 115.527C171.559 115.38 171.706 115.3 171.879 115.287C172.066 115.261 172.232 115.307 172.379 115.428C172.526 115.534 172.612 115.681 172.639 115.868L172.738 116.868C172.978 116.575 173.265 116.268 173.599 115.949C174.026 115.522 174.479 115.243 174.959 115.11C175.439 114.977 175.939 115.017 176.459 115.231C177.392 115.645 177.964 116.786 178.176 118.653C178.401 120.533 177.833 121.966 176.472 122.951C175.125 123.923 174.025 124.076 173.172 123.408C173.224 124.848 173.257 125.882 173.269 126.508C173.269 126.535 173.269 126.582 173.269 126.648ZM173.094 121.528L173.933 122.309C174.266 122.616 174.853 122.463 175.693 121.85C176.627 121.185 177.015 120.172 176.856 118.811C176.777 118.091 176.644 117.538 176.457 117.151C176.284 116.764 176.105 116.531 175.918 116.451C175.492 116.264 175.031 116.417 174.538 116.909C173.87 117.562 173.41 118.148 173.156 118.668C173.089 118.815 173.023 118.955 172.956 119.088C173.009 119.808 173.054 120.621 173.094 121.528ZM187.086 114.38C187.247 114.274 187.413 114.241 187.587 114.281C187.773 114.307 187.913 114.401 188.006 114.561C188.113 114.708 188.153 114.868 188.126 115.041L187.965 115.861C187.871 116.394 187.691 117.314 187.423 118.621C187.155 119.927 186.84 121.507 186.479 123.36C186.479 123.36 186.479 123.366 186.479 123.38C186.505 123.42 186.545 123.486 186.598 123.58C186.652 123.673 186.698 123.747 186.738 123.8C186.832 123.947 186.858 124.113 186.818 124.3C186.778 124.487 186.678 124.627 186.518 124.72C186.424 124.773 186.317 124.806 186.197 124.819C185.983 125.939 185.836 126.786 185.755 127.359L185.574 128.599C185.561 128.786 185.474 128.932 185.314 129.039C185.167 129.159 185 129.205 184.814 129.178C184.64 129.151 184.494 129.065 184.374 128.918C184.267 128.771 184.228 128.604 184.254 128.418L184.415 127.178C184.523 126.431 184.737 125.252 185.058 123.638L184.999 123.558C184.599 122.905 184.067 121.871 183.401 120.457C182.762 119.083 182.277 118.083 181.944 117.456L181.425 116.515C181.331 116.355 181.312 116.189 181.365 116.015C181.419 115.829 181.525 115.695 181.685 115.616C181.845 115.522 182.012 115.503 182.185 115.556C182.372 115.61 182.512 115.716 182.605 115.876L183.124 116.817C183.47 117.457 183.97 118.484 184.622 119.898C184.928 120.552 185.207 121.125 185.46 121.619C185.701 120.366 185.916 119.279 186.103 118.359C186.371 117.053 186.552 116.133 186.645 115.6L186.806 114.8C186.846 114.613 186.94 114.473 187.086 114.38ZM191.436 115.584C191.316 115.451 191.256 115.29 191.257 115.104C191.257 114.917 191.324 114.764 191.457 114.644C191.604 114.511 191.764 114.444 191.937 114.444L192.637 114.465C193.104 114.479 193.764 114.486 194.617 114.487C195.484 114.501 196.177 114.508 196.697 114.509L197.497 114.489C197.684 114.489 197.844 114.556 197.977 114.69C198.11 114.823 198.177 114.983 198.177 115.17C198.176 115.343 198.11 115.496 197.976 115.63C197.856 115.763 197.703 115.829 197.516 115.829L196.716 115.849C196.609 115.848 196.496 115.848 196.376 115.848L196.375 117.288C196.36 118.528 196.379 119.742 196.432 120.928C196.47 122.195 196.43 123.108 196.309 123.668L196.129 124.448C196.088 124.621 195.988 124.755 195.828 124.848C195.668 124.954 195.501 124.987 195.328 124.947C195.155 124.907 195.015 124.807 194.908 124.647C194.815 124.5 194.789 124.334 194.829 124.147L194.989 123.387C195.096 122.934 195.131 122.134 195.092 120.987C195.039 119.774 195.02 118.54 195.035 117.287L195.036 115.847C194.903 115.847 194.763 115.84 194.616 115.827C193.749 115.826 193.083 115.819 192.616 115.805L191.916 115.784C191.729 115.784 191.569 115.717 191.436 115.584ZM210.185 115.06C210.291 114.9 210.431 114.8 210.605 114.76C210.792 114.721 210.958 114.754 211.105 114.861C211.265 114.954 211.365 115.094 211.404 115.281L211.604 116.121C211.736 116.761 211.735 117.961 211.601 119.721C211.479 121.401 211.398 122.615 211.357 123.361L211.316 124.501C211.316 124.674 211.243 124.821 211.096 124.941C210.963 125.074 210.803 125.134 210.616 125.121C210.443 125.12 210.289 125.054 210.156 124.92C210.036 124.787 209.976 124.627 209.976 124.44L210.017 123.3C210.058 122.54 210.139 121.313 210.261 119.62C210.382 117.98 210.39 116.914 210.283 116.42L210.104 115.56C210.064 115.387 210.091 115.22 210.185 115.06ZM201.32 120.212C201.254 120.039 201.254 119.872 201.321 119.712C201.401 119.539 201.527 119.419 201.701 119.353L202.041 119.213C202.015 118.053 201.969 117.093 201.903 116.333L201.745 114.793C201.732 114.606 201.785 114.446 201.905 114.313C202.025 114.166 202.172 114.087 202.345 114.073C202.532 114.047 202.699 114.094 202.845 114.214C202.992 114.334 203.072 114.487 203.085 114.674L203.224 116.214C203.303 116.948 203.356 117.834 203.381 118.874C203.568 118.861 203.775 118.841 204.001 118.815C204.921 118.749 205.801 119.103 206.64 119.877C207.52 120.665 207.919 121.465 207.838 122.278C207.771 123.105 207.284 123.751 206.377 124.217C205.616 124.59 204.883 124.816 204.176 124.895C203.496 124.974 203.049 125.001 202.836 124.974L202.596 124.954C202.409 124.94 202.256 124.86 202.136 124.713C202.016 124.58 201.97 124.42 201.997 124.233C201.997 124.086 202.044 123.96 202.137 123.853C202.137 123.827 202.137 123.807 202.137 123.793L202.117 123.413C202.118 123.173 202.105 122.247 202.08 120.633C201.92 120.66 201.766 120.633 201.62 120.553C201.487 120.473 201.387 120.359 201.32 120.212ZM203.477 123.614C203.651 123.601 203.831 123.588 204.017 123.575C204.564 123.509 205.144 123.322 205.758 123.016C206.225 122.777 206.478 122.49 206.518 122.157C206.545 121.784 206.286 121.35 205.74 120.856C205.18 120.349 204.634 120.115 204.1 120.155C203.847 120.181 203.62 120.208 203.42 120.234C203.42 120.288 203.42 120.348 203.42 120.414C203.432 122.148 203.444 123.128 203.457 123.354L203.477 123.614ZM217.646 117.987C217.832 117.973 218.026 117.96 218.226 117.947C219.399 117.881 220.192 117.849 220.606 117.849C220.686 117.849 220.772 117.849 220.866 117.849C220.826 117.716 220.773 117.576 220.706 117.429C220.586 117.082 220.42 116.776 220.207 116.509C220.1 116.402 219.807 116.408 219.327 116.528C218.727 116.661 218.226 117.034 217.826 117.647C217.759 117.753 217.699 117.867 217.646 117.987ZM217.445 119.326C217.444 119.646 217.484 119.993 217.564 120.366C217.789 121.58 218.169 122.414 218.701 122.867C219.248 123.335 219.641 123.582 219.881 123.608L220.441 123.649C220.627 123.676 220.781 123.763 220.901 123.909C221.02 124.043 221.067 124.203 221.04 124.389C221.027 124.563 220.947 124.709 220.8 124.829C220.666 124.949 220.506 125.002 220.32 124.989L219.76 124.948C219.24 124.895 218.6 124.541 217.841 123.887C217.054 123.233 216.522 122.146 216.243 120.625C216.164 120.185 216.117 119.772 216.104 119.385C216.064 119.385 216.038 119.385 216.024 119.385L215.524 119.405C215.338 119.418 215.171 119.358 215.025 119.224C214.891 119.091 214.825 118.937 214.825 118.764C214.825 118.577 214.885 118.418 215.005 118.284C215.139 118.151 215.292 118.078 215.466 118.065L215.986 118.045C216.052 118.045 216.132 118.045 216.226 118.045C216.333 117.632 216.493 117.259 216.707 116.926C217.307 115.993 218.081 115.42 219.028 115.208C220.068 114.982 220.808 115.136 221.248 115.67C221.554 116.043 221.794 116.477 221.967 116.97C222.139 117.437 222.246 117.804 222.286 118.071C222.325 118.284 222.279 118.517 222.145 118.77C222.011 119.024 221.785 119.157 221.465 119.17C221.318 119.183 221.038 119.189 220.625 119.189C220.225 119.189 219.451 119.221 218.305 119.287C217.985 119.3 217.698 119.313 217.445 119.326ZM67.0548 137.197C66.8815 137.13 66.755 137.017 66.6751 136.856C66.5952 136.683 66.5887 136.51 66.6555 136.336C66.7224 136.163 66.8358 136.037 66.9959 135.957L67.6161 135.657C67.7628 135.591 67.9162 135.538 68.0763 135.498C68.1963 135.404 68.3297 135.365 68.4764 135.378C68.5164 135.378 68.5564 135.378 68.5964 135.378C68.9964 135.312 69.5298 135.272 70.1965 135.26C71.3432 135.22 72.2098 135.235 72.7964 135.302C73.343 135.356 73.683 135.389 73.8163 135.403C74.283 135.43 74.5827 135.723 74.7156 136.283C74.7687 136.55 74.8414 137.31 74.9336 138.564C75.0126 139.79 75.065 140.844 75.0909 141.724C75.1168 142.604 75.1296 143.23 75.1293 143.604L75.1288 144.164C75.1153 144.35 75.0418 144.51 74.9084 144.644C74.7749 144.763 74.6149 144.823 74.4282 144.823C74.2549 144.823 74.1016 144.756 73.9684 144.623C73.8352 144.489 73.7753 144.329 73.7888 144.143L73.7893 143.603C73.7896 143.243 73.7768 142.629 73.7509 141.763C73.7249 140.896 73.6725 139.863 73.5935 138.662C73.5277 137.689 73.4683 137.036 73.4152 136.702C73.2286 136.689 72.9753 136.662 72.6553 136.622C72.1353 136.568 71.3287 136.56 70.2353 136.6C69.822 136.613 69.4486 136.639 69.1152 136.679L69.0942 137.859C69.0806 138.152 69.067 138.459 69.0534 138.779C69.0397 139.205 69.0127 139.672 68.9722 140.178C68.972 140.418 68.9785 140.672 68.9916 140.938C69.0036 142.418 68.9093 143.585 68.7086 144.438C68.7219 144.452 68.7285 144.472 68.7285 144.498C68.7285 144.525 68.7284 144.585 68.7283 144.678C68.7283 144.758 68.7149 144.832 68.6882 144.898C68.6748 144.952 68.6481 145.018 68.608 145.098C68.5679 145.178 68.5079 145.238 68.4278 145.278C68.3611 145.305 68.2745 145.325 68.1678 145.338C68.0611 145.364 67.9211 145.344 67.7478 145.277C67.5479 145.224 67.3946 145.124 67.2881 144.977C67.1949 144.817 67.1484 144.63 67.1486 144.417C67.1488 144.19 67.1623 143.977 67.1891 143.777C67.216 143.577 67.2562 143.35 67.3097 143.097C67.3633 142.83 67.3968 142.637 67.4102 142.517C67.5043 141.664 67.5783 140.877 67.6322 140.157C67.6063 139.264 67.5735 138.731 67.5336 138.557L67.434 138.137C67.3676 137.817 67.4745 137.57 67.7546 137.397L67.7749 137.077L67.5748 137.177C67.4014 137.257 67.2281 137.264 67.0548 137.197ZM80.2554 147.568C80.4552 147.768 80.5084 147.995 80.4148 148.248L80.3346 148.528C80.3212 148.542 80.3079 148.568 80.2945 148.608C80.2811 148.648 80.2477 148.708 80.1943 148.788C80.1409 148.881 80.0809 148.955 80.0141 149.008C79.9474 149.061 79.8474 149.081 79.7141 149.068C79.5808 149.068 79.4408 149.014 79.2942 148.907C79.081 148.774 78.9411 148.627 78.8746 148.467C78.8214 148.32 78.8149 148.12 78.8551 147.867C78.8954 147.614 78.9155 147.474 78.9155 147.447C78.9028 146.687 78.8573 145.307 78.7791 143.307C78.7661 142.88 78.7464 142.474 78.7201 142.087C78.5601 142.047 78.4336 141.953 78.3404 141.807C78.2471 141.66 78.2139 141.506 78.2408 141.346L78.3413 140.707C78.3949 140.427 78.4751 140.127 78.5821 139.807C78.5558 139.38 78.5228 138.993 78.4831 138.647L78.2846 136.926C78.2714 136.753 78.3182 136.593 78.425 136.447C78.5451 136.3 78.6918 136.22 78.8652 136.207C79.0519 136.18 79.2185 136.227 79.3651 136.347C79.5116 136.454 79.5982 136.601 79.6247 136.788L79.7238 137.788C79.9641 137.495 80.251 137.188 80.5846 136.868C81.0116 136.442 81.4652 136.163 81.9453 136.03C82.4254 135.897 82.9254 135.937 83.4452 136.151C84.3782 136.565 84.9506 137.706 85.1623 139.572C85.3873 141.453 84.8194 142.885 83.4586 143.871C82.1111 144.843 81.0109 144.995 80.1582 144.328C80.2103 145.768 80.2427 146.802 80.2555 147.428C80.2555 147.455 80.2554 147.502 80.2554 147.568ZM80.0798 142.448L80.9191 143.229C81.2522 143.536 81.839 143.383 82.6795 142.77C83.6134 142.104 84.001 141.091 83.8421 139.731C83.7628 139.011 83.6299 138.458 83.4436 138.071C83.2706 137.684 83.0908 137.451 82.9042 137.37C82.4777 137.183 82.0175 137.336 81.5238 137.829C80.8566 138.482 80.396 139.068 80.1423 139.588C80.0755 139.735 80.0087 139.875 79.9419 140.008C79.9946 140.728 80.0406 141.541 80.0798 142.448ZM88.4917 136.275C88.6251 136.129 88.7785 136.049 88.9519 136.036C89.1386 136.022 89.2985 136.076 89.4318 136.196C89.5783 136.316 89.6582 136.47 89.6714 136.656L89.7504 137.716C89.7898 138.45 89.8089 139.45 89.8079 140.716C89.8074 141.223 89.807 141.69 89.8067 142.116C90.3275 141.184 90.8816 140.217 91.4691 139.218C92.2036 137.952 92.751 137.052 93.1115 136.519C93.3251 136.213 93.5519 136.02 93.792 135.94C93.9654 135.847 94.1254 135.827 94.272 135.88C94.4186 135.934 94.5386 135.994 94.6319 136.061C94.7252 136.114 94.8117 136.207 94.8916 136.341C94.9715 136.474 95.0248 136.588 95.0513 136.681C95.0913 136.761 95.1245 136.848 95.1511 136.941C95.3771 137.675 95.5629 138.788 95.7082 140.281C95.8537 141.722 95.9994 142.842 96.1453 143.642C96.2913 144.469 96.3775 144.949 96.4041 145.082L96.4439 145.282C96.4704 145.455 96.4303 145.615 96.3235 145.762C96.2167 145.922 96.07 146.015 95.8833 146.042C95.7099 146.081 95.5433 146.048 95.3834 145.941C95.2368 145.834 95.1502 145.694 95.1237 145.521L95.0839 145.321C95.0573 145.188 94.9711 144.708 94.8251 143.881C94.6658 143.054 94.5202 141.9 94.3881 140.42C94.2691 139.234 94.1299 138.313 93.9705 137.66C93.6367 138.193 93.1894 138.939 92.6286 139.899C91.8942 141.152 91.2064 142.351 90.5655 143.497C90.5388 143.537 90.4987 143.61 90.4453 143.717C90.3918 143.824 90.3384 143.924 90.285 144.017C90.2449 144.11 90.1848 144.217 90.1047 144.337C90.0246 144.457 89.9379 144.557 89.8445 144.636C89.7644 144.716 89.671 144.79 89.5643 144.856C89.4576 144.909 89.3376 144.929 89.2042 144.916C89.0843 144.902 88.951 144.856 88.8044 144.776C88.7111 144.722 88.6311 144.662 88.5645 144.595C88.5113 144.515 88.4713 144.449 88.4447 144.395C88.4181 144.329 88.3981 144.255 88.3849 144.175C88.3716 144.095 88.365 144.035 88.365 143.995C88.3651 143.942 88.3718 143.882 88.3852 143.815C88.3986 143.749 88.4053 143.709 88.4053 143.695C88.4459 142.935 88.4668 141.942 88.4679 140.715C88.4689 139.475 88.4498 138.509 88.4104 137.815L88.3313 136.755C88.3181 136.568 88.3716 136.409 88.4917 136.275ZM100.969 137.406C100.809 137.313 100.703 137.179 100.649 137.006C100.61 136.819 100.636 136.646 100.73 136.486C100.823 136.326 100.963 136.226 101.15 136.186L102.37 135.867C103.451 135.588 104.384 135.862 105.17 136.69C105.609 137.157 105.796 137.657 105.728 138.19C105.675 138.71 105.401 139.183 104.907 139.609C104.747 139.743 104.587 139.869 104.427 139.989C104.48 140.016 104.527 140.036 104.567 140.049C105.047 140.29 105.38 140.636 105.566 141.09C105.752 141.543 105.765 142.03 105.605 142.55C105.311 143.536 104.67 144.203 103.683 144.548C102.723 144.854 101.809 144.76 100.943 144.266L99.9238 143.665C99.7638 143.572 99.6573 143.438 99.6041 143.265C99.5643 143.078 99.5844 142.905 99.6645 142.745C99.758 142.585 99.8914 142.485 100.065 142.445C100.252 142.392 100.425 142.412 100.585 142.506L101.624 143.107C102.144 143.4 102.691 143.454 103.264 143.268C103.798 143.082 104.151 142.715 104.325 142.169C104.405 141.902 104.419 141.709 104.366 141.589C104.312 141.469 104.179 141.355 103.966 141.249C103.433 140.968 103.073 140.821 102.886 140.808C102.886 140.808 102.74 140.641 102.447 140.307C102.167 139.907 102.154 139.647 102.407 139.527C102.501 139.487 102.567 139.461 102.607 139.447C102.647 139.434 102.667 139.427 102.667 139.427C102.681 139.428 102.701 139.434 102.727 139.448C102.754 139.448 102.787 139.448 102.827 139.448C103.041 139.368 103.441 139.081 104.028 138.589C104.308 138.349 104.455 138.169 104.469 138.049C104.482 137.929 104.395 137.789 104.209 137.629C103.783 137.175 103.283 137.021 102.709 137.168L101.469 137.486C101.296 137.526 101.129 137.499 100.969 137.406ZM117.757 135.98C117.863 135.821 118.004 135.721 118.177 135.681C118.364 135.641 118.53 135.674 118.677 135.781C118.837 135.875 118.937 136.015 118.976 136.202L119.176 137.042C119.308 137.682 119.307 138.882 119.173 140.642C119.051 142.322 118.97 143.535 118.929 144.282L118.888 145.421C118.888 145.595 118.815 145.741 118.668 145.861C118.535 145.994 118.375 146.054 118.188 146.041C118.015 146.041 117.861 145.974 117.728 145.84C117.608 145.707 117.548 145.547 117.549 145.36L117.59 144.22C117.63 143.46 117.711 142.234 117.833 140.541C117.954 138.901 117.962 137.834 117.855 137.341L117.676 136.48C117.636 136.307 117.663 136.14 117.757 135.98ZM108.892 141.133C108.826 140.959 108.826 140.793 108.893 140.633C108.973 140.46 109.1 140.34 109.273 140.273L109.613 140.133C109.587 138.973 109.542 138.013 109.476 137.253L109.317 135.713C109.304 135.527 109.357 135.367 109.477 135.233C109.597 135.087 109.744 135.007 109.917 134.994C110.104 134.967 110.271 135.014 110.417 135.134C110.564 135.254 110.644 135.408 110.657 135.594L110.796 137.134C110.875 137.868 110.928 138.755 110.953 139.795C111.14 139.781 111.347 139.762 111.573 139.735C112.493 139.669 113.373 140.023 114.212 140.797C115.092 141.585 115.491 142.385 115.41 143.198C115.343 144.025 114.856 144.671 113.949 145.137C113.188 145.51 112.455 145.736 111.748 145.815C111.068 145.895 110.621 145.921 110.408 145.894L110.168 145.874C109.981 145.86 109.828 145.78 109.708 145.634C109.588 145.5 109.542 145.34 109.569 145.153C109.569 145.007 109.616 144.88 109.709 144.774C109.709 144.747 109.709 144.727 109.709 144.714L109.689 144.334C109.69 144.094 109.677 143.167 109.652 141.554C109.492 141.58 109.338 141.553 109.192 141.473C109.059 141.393 108.959 141.28 108.892 141.133ZM111.049 144.535C111.223 144.522 111.403 144.508 111.589 144.495C112.136 144.429 112.716 144.243 113.33 143.937C113.797 143.697 114.05 143.411 114.091 143.077C114.118 142.704 113.858 142.27 113.312 141.777C112.752 141.27 112.206 141.036 111.672 141.075C111.419 141.102 111.192 141.128 110.992 141.155C110.992 141.208 110.992 141.268 110.992 141.335C111.004 143.068 111.016 144.048 111.029 144.275L111.049 144.535ZM135.138 138.035C134.684 138.742 134.377 139.448 134.216 140.155C134.042 140.901 134.095 141.675 134.374 142.475C134.64 143.208 135.08 143.695 135.693 143.936C136.319 144.19 137.079 144.11 137.973 143.698C138.893 143.285 139.467 142.813 139.694 142.279C139.921 141.72 139.942 140.946 139.756 139.959C139.571 138.973 139.271 138.246 138.858 137.779C138.512 137.392 138.112 137.218 137.659 137.258C137.072 137.31 136.612 137.437 136.278 137.636L135.658 137.976C135.498 138.069 135.325 138.089 135.138 138.035ZM139.179 136.319C139.433 136.479 139.659 136.673 139.859 136.9C140.432 137.54 140.838 138.48 141.077 139.721C141.315 140.961 141.261 141.987 140.914 142.8C140.566 143.653 139.773 144.359 138.532 144.918C137.292 145.491 136.178 145.583 135.192 145.196C134.205 144.795 133.513 144.034 133.114 142.914C132.741 141.873 132.676 140.853 132.916 139.854C133.131 138.894 133.565 137.947 134.219 137.015C134.566 136.522 134.873 136.135 135.14 135.855C135.407 135.576 135.687 135.376 135.98 135.256C136.474 135.057 137.087 135.017 137.82 135.138L138.74 135.299C138.914 135.325 139.054 135.419 139.16 135.579C139.28 135.726 139.32 135.892 139.28 136.079C139.266 136.159 139.233 136.239 139.179 136.319ZM144.53 136.544C144.41 136.41 144.35 136.25 144.351 136.063C144.351 135.877 144.418 135.723 144.551 135.604C144.698 135.47 144.858 135.404 145.031 135.404L145.731 135.425C146.198 135.438 146.858 135.446 147.711 135.446C148.578 135.46 149.271 135.468 149.791 135.468L150.591 135.449C150.778 135.449 150.938 135.516 151.071 135.649C151.204 135.783 151.271 135.943 151.271 136.129C151.27 136.303 151.204 136.456 151.07 136.589C150.95 136.722 150.797 136.789 150.61 136.789L149.81 136.808C149.703 136.808 149.59 136.808 149.47 136.808L149.469 138.248C149.454 139.488 149.473 140.701 149.526 141.888C149.565 143.155 149.524 144.068 149.403 144.628L149.223 145.408C149.182 145.581 149.082 145.714 148.922 145.807C148.762 145.914 148.595 145.947 148.422 145.907C148.249 145.867 148.109 145.767 148.002 145.607C147.909 145.46 147.883 145.293 147.923 145.106L148.083 144.347C148.191 143.893 148.225 143.093 148.186 141.947C148.133 140.733 148.114 139.5 148.129 138.247L148.13 136.807C147.997 136.807 147.857 136.8 147.71 136.786C146.843 136.786 146.177 136.778 145.71 136.765L145.01 136.744C144.823 136.744 144.663 136.677 144.53 136.544ZM169.901 132.805C169.408 132.525 168.868 132.598 168.281 133.024C167.347 133.69 166.719 134.936 166.398 136.762C166.049 138.709 166.001 140.442 166.253 141.962C166.492 143.349 167.031 144.256 167.871 144.684C168.244 144.884 168.577 144.944 168.871 144.865C169.177 144.785 169.491 144.545 169.811 144.145C170.532 143.226 170.973 142.02 171.134 140.526C171.296 138.967 171.25 137.66 170.998 136.606C170.732 135.499 170.486 134.639 170.26 134.026L169.941 133.085C169.914 133.005 169.901 132.912 169.901 132.805ZM171.919 134.807C172.039 135.261 172.165 135.754 172.298 136.287C172.59 137.501 172.642 138.961 172.454 140.668C172.266 142.414 171.738 143.847 170.87 144.966C170.39 145.579 169.836 145.965 169.209 146.125C168.583 146.284 167.936 146.204 167.27 145.883C166.017 145.255 165.238 144.028 164.933 142.201C164.654 140.508 164.703 138.621 165.078 136.541C165.466 134.342 166.274 132.802 167.502 131.923C168.169 131.457 168.842 131.258 169.522 131.325C170.202 131.392 170.822 131.726 171.381 132.327L172.78 133.808C172.9 133.941 172.953 134.101 172.94 134.288C172.939 134.475 172.873 134.628 172.739 134.748C172.633 134.854 172.499 134.914 172.339 134.928C172.179 134.941 172.039 134.901 171.919 134.807ZM176.216 135.011C176.336 134.864 176.483 134.784 176.656 134.771C176.843 134.745 177.01 134.792 177.156 134.912C177.303 135.018 177.389 135.165 177.416 135.352L177.634 137.252C177.674 137.159 177.721 137.072 177.774 136.992C178.122 136.379 178.462 135.893 178.796 135.533C179.143 135.173 179.523 134.947 179.936 134.854C180.67 134.655 181.363 134.755 182.016 135.156L182.736 135.596C182.882 135.69 182.975 135.83 183.015 136.017C183.068 136.203 183.048 136.377 182.955 136.537C182.861 136.683 182.721 136.776 182.535 136.816C182.348 136.856 182.181 136.829 182.035 136.736L181.295 136.295C180.975 136.095 180.635 136.041 180.275 136.134C180.128 136.174 179.935 136.321 179.695 136.574C179.454 136.827 179.201 137.187 178.934 137.653C178.667 138.12 178.44 138.606 178.253 139.113C178.119 139.473 178.005 139.846 177.912 140.232C177.964 141.046 177.997 141.866 178.009 142.692C178.009 142.799 178.023 142.966 178.049 143.192C178.075 143.419 178.089 143.612 178.089 143.772C178.102 143.919 178.095 144.086 178.068 144.272C178.055 144.459 177.994 144.619 177.888 144.752C177.794 144.872 177.661 144.965 177.487 145.032C177.274 145.112 177.101 145.138 176.967 145.112C176.834 145.085 176.727 145.025 176.648 144.931C176.581 144.825 176.528 144.724 176.488 144.631C176.461 144.524 176.441 144.424 176.428 144.331L176.428 144.211C176.176 143.331 176.17 142.191 176.411 140.791C176.451 140.578 176.498 140.358 176.552 140.131C176.525 139.691 176.492 139.264 176.453 138.851C176.426 138.531 176.393 138.211 176.354 137.891L176.076 135.491C176.062 135.317 176.109 135.157 176.216 135.011ZM187.355 143.58C187.435 143.621 187.502 143.681 187.555 143.761L187.635 143.861C187.862 143.861 188.222 143.821 188.715 143.742C189.422 143.609 190.056 142.883 190.617 141.563C191.191 140.23 191.292 139.251 190.92 138.624C190.746 138.33 190.573 138.15 190.4 138.083C190.227 138.016 189.993 138.043 189.7 138.162C188.993 138.429 188.473 138.915 188.139 139.621C188.045 139.808 187.965 140.001 187.898 140.201C187.751 140.667 187.664 141.201 187.637 141.801C187.636 142.614 187.636 143.047 187.636 143.101C187.582 143.447 187.149 143.247 186.336 142.5C186.296 142.46 186.276 142.44 186.276 142.44C186.276 142.213 186.283 141.993 186.297 141.78C186.284 141.393 186.278 140.906 186.278 140.32L186.258 139.84C186.234 137.426 186.209 135.439 186.184 133.879L186.166 131.379C186.166 131.206 186.226 131.053 186.346 130.92C186.48 130.786 186.64 130.72 186.826 130.72C187.013 130.707 187.173 130.767 187.306 130.9C187.439 131.034 187.506 131.194 187.506 131.381L187.524 133.861C187.536 135.007 187.555 136.401 187.58 138.041C188.034 137.534 188.581 137.155 189.221 136.902C189.795 136.689 190.335 136.676 190.841 136.863C191.348 137.051 191.754 137.404 192.06 137.925C192.659 138.952 192.591 140.338 191.857 142.084C191.108 143.844 190.141 144.836 188.954 145.062C188.901 145.062 188.767 145.088 188.554 145.142C188.341 145.181 188.194 145.208 188.114 145.221C188.034 145.234 187.907 145.248 187.734 145.261C187.56 145.261 187.427 145.247 187.334 145.22C187.241 145.194 187.134 145.147 187.014 145.08C186.894 145.013 186.787 144.927 186.694 144.82L186.514 144.58C186.395 144.433 186.341 144.273 186.355 144.1C186.382 143.913 186.468 143.76 186.615 143.64C186.629 143.64 186.635 143.633 186.635 143.62L187.355 143.58ZM197.467 132.569C197.614 132.756 197.647 132.963 197.567 133.189L197.507 133.389C197.507 133.403 197.466 133.443 197.386 133.509C197.306 133.562 197.2 133.622 197.066 133.689C196.946 133.742 196.82 133.782 196.686 133.809C196.553 133.835 196.433 133.815 196.326 133.748C196.22 133.668 196.153 133.535 196.127 133.348C196.087 133.201 196.08 132.988 196.107 132.708L196.147 132.388C196.161 132.201 196.234 132.048 196.368 131.928C196.515 131.808 196.675 131.762 196.848 131.789C197.035 131.802 197.188 131.882 197.308 132.029C197.428 132.162 197.481 132.323 197.467 132.509L197.467 132.569ZM196.425 135.148C196.572 135.015 196.732 134.955 196.905 134.969C197.092 134.969 197.245 135.042 197.365 135.189C197.498 135.323 197.558 135.483 197.545 135.669L197.484 136.849C197.443 137.622 197.402 138.769 197.361 140.289C197.319 141.862 197.232 143.036 197.098 143.809L196.917 144.949C196.876 145.122 196.776 145.269 196.616 145.388C196.469 145.495 196.303 145.528 196.116 145.488C195.943 145.461 195.803 145.374 195.696 145.228C195.59 145.068 195.55 144.901 195.577 144.728L195.778 143.588C195.898 142.868 195.979 141.761 196.021 140.268C196.062 138.735 196.103 137.568 196.144 136.768L196.205 135.588C196.218 135.415 196.292 135.268 196.425 135.148ZM201.029 136.992C200.869 136.885 200.769 136.745 200.729 136.572C200.702 136.385 200.736 136.219 200.829 136.072C200.936 135.912 201.083 135.812 201.27 135.772L203.21 135.374C203.33 135.348 203.45 135.328 203.57 135.314L203.574 131.214C203.574 131.028 203.634 130.874 203.754 130.755C203.887 130.621 204.047 130.555 204.234 130.555C204.421 130.542 204.581 130.602 204.714 130.735C204.847 130.869 204.914 131.029 204.914 131.216L204.91 135.036C205.31 134.943 205.617 134.876 205.83 134.836L206.531 134.677C206.717 134.637 206.891 134.671 207.05 134.777C207.21 134.871 207.31 135.004 207.35 135.178C207.39 135.351 207.357 135.518 207.25 135.678C207.156 135.838 207.016 135.937 206.829 135.977L206.129 136.137C205.863 136.203 205.463 136.289 204.929 136.396C204.927 138.756 204.932 140.836 204.944 142.636L204.941 145.816C204.941 146.002 204.874 146.162 204.741 146.295C204.607 146.429 204.447 146.495 204.26 146.495C204.087 146.495 203.934 146.428 203.801 146.295C203.667 146.161 203.601 146.008 203.601 145.834L203.604 142.634C203.592 140.861 203.587 138.874 203.589 136.674C203.562 136.674 203.522 136.681 203.469 136.694L201.528 137.093C201.355 137.133 201.188 137.099 201.029 136.992ZM214.119 142.204C214.025 142.35 213.885 142.443 213.698 142.483C213.525 142.523 213.358 142.49 213.198 142.383C213.052 142.276 212.959 142.136 212.919 141.962L212.74 141.062C212.62 140.422 212.574 139.536 212.602 138.402C212.616 138.002 212.649 137.669 212.703 137.402C212.77 137.069 212.903 136.776 213.104 136.523C213.304 136.256 213.604 136.156 214.004 136.223C214.11 136.25 214.21 136.284 214.304 136.324C214.544 136.444 214.703 136.611 214.783 136.824C214.863 137.038 214.883 137.238 214.843 137.424C214.816 137.611 214.762 137.784 214.682 137.944C214.575 138.144 214.475 138.324 214.382 138.484C214.462 138.55 214.555 138.631 214.662 138.724C215.301 139.271 215.861 139.765 216.34 140.205L216.9 140.706C217.314 140.213 217.561 139.74 217.641 139.287C217.802 138.393 217.709 137.433 217.364 136.406C217.044 135.433 216.612 134.786 216.065 134.465L215.046 133.864C214.979 133.824 214.919 133.778 214.866 133.724C214.412 134.07 213.905 134.59 213.345 135.283C212.143 136.802 211.655 138.408 211.88 140.102C211.986 140.955 212.146 141.615 212.359 142.082C212.585 142.549 212.811 142.836 213.038 142.943C213.598 143.183 214.445 142.857 215.579 141.965C215.712 141.872 215.839 141.772 215.959 141.665L215.439 141.185C215.013 140.798 214.52 140.364 213.961 139.883C213.974 140.243 214.007 140.55 214.06 140.803L214.239 141.704C214.266 141.877 214.225 142.044 214.119 142.204ZM218.424 135.427C218.504 135.614 218.577 135.801 218.644 135.987C219.056 137.241 219.162 138.421 218.961 139.528C218.747 140.688 217.899 141.853 216.418 143.026C214.857 144.237 213.557 144.616 212.517 144.162C211.477 143.708 210.818 142.414 210.54 140.28C210.275 138.2 210.864 136.254 212.305 134.442C213.026 133.549 213.7 132.883 214.327 132.444C214.967 132.004 215.601 131.831 216.227 131.925C216.547 131.966 216.847 132.046 217.127 132.166C217.767 132.433 218.287 132.867 218.686 133.467L219.385 134.528C219.492 134.675 219.525 134.842 219.485 135.028C219.445 135.215 219.351 135.355 219.204 135.448C218.951 135.621 218.691 135.614 218.424 135.427Z" fill="white"/>
<path d="M93.5977 198.676C93.3119 198.588 93.0922 198.412 92.9385 198.148C92.7848 197.884 92.7411 197.609 92.8073 197.323L92.8735 197.026C92.9397 196.762 93.0498 196.543 93.2039 196.367C93.358 196.169 93.545 196.037 93.7649 195.972C94.0069 195.884 94.2158 195.829 94.3917 195.807C94.5676 195.785 94.7875 195.774 95.0514 195.775C95.3372 195.753 95.5131 195.742 95.5791 195.742C96.7445 195.611 98.1518 195.569 99.8008 195.614C101.45 195.659 102.967 195.793 104.352 196.014C105.715 196.257 106.583 196.422 106.957 196.511C107.682 196.709 108.133 197.061 108.308 197.567C108.396 197.787 108.44 198.018 108.44 198.26C108.439 198.502 108.428 198.722 108.406 198.919C108.384 199.095 108.329 199.414 108.24 199.876C108.152 200.315 108.086 200.7 108.041 201.03C107.754 202.701 107.676 204.416 107.806 206.175C107.914 208.044 107.891 210.045 107.735 212.177C107.579 214.244 107.49 215.519 107.468 216.003L107.434 216.728C107.412 217.036 107.28 217.289 107.038 217.487C106.818 217.706 106.554 217.805 106.246 217.783C105.96 217.761 105.707 217.628 105.488 217.386C105.29 217.166 105.202 216.913 105.225 216.628L105.258 215.869C105.281 215.385 105.37 214.099 105.525 212.011C105.681 209.988 105.694 208.064 105.563 206.239C105.455 204.37 105.556 202.512 105.865 200.665C105.998 199.764 106.097 199.071 106.164 198.588C105.724 198.499 104.998 198.367 103.987 198.19C102.69 197.991 101.272 197.869 99.7329 197.824C98.8315 197.801 98.0069 197.8 97.2593 197.821L97.4545 201.021C97.6059 203.857 97.6031 207.111 97.4461 210.783C97.2891 214.367 97.2324 216.335 97.2761 216.687L97.3415 217.313C97.3632 217.621 97.275 217.885 97.077 218.105C96.8789 218.346 96.6259 218.478 96.318 218.5C96.0322 218.544 95.7684 218.466 95.5267 218.268C95.285 218.07 95.1533 217.817 95.1316 217.509L95.0662 216.883C95.0226 216.421 95.0793 214.354 95.2364 210.682C95.3934 207.077 95.3962 203.899 95.2446 201.151L95.0824 198.017C95.0164 198.039 94.9505 198.05 94.8845 198.05C94.7524 198.292 94.5653 198.468 94.3234 198.578C94.1034 198.687 93.8615 198.72 93.5977 198.676ZM113.217 197.868C113.085 197.604 113.063 197.329 113.151 197.044C113.24 196.736 113.427 196.516 113.713 196.384L114.405 195.989C114.537 195.945 114.658 195.902 114.768 195.858C114.988 195.66 115.23 195.561 115.494 195.561C115.714 195.562 115.912 195.628 116.088 195.76C116.637 195.804 117.66 196.058 119.154 196.521C120.407 196.918 121.385 197.567 122.088 198.47C122.813 199.35 123.197 200.416 123.24 201.67C123.282 202.901 123.029 203.967 122.478 204.868C121.95 205.769 121.158 206.417 120.102 206.812C118.848 207.273 117.716 207.569 116.704 207.7C116.704 208.183 116.703 208.722 116.703 209.316C116.721 213.295 116.752 215.56 116.796 216.11L116.861 217C116.905 217.308 116.828 217.572 116.629 217.792C116.431 218.033 116.178 218.165 115.871 218.187C115.563 218.231 115.288 218.153 115.046 217.955C114.826 217.757 114.706 217.504 114.684 217.196L114.586 216.306C114.542 215.69 114.511 213.359 114.493 209.314C114.493 208.808 114.494 208.302 114.494 207.797L113.604 207.763C113.318 207.763 113.065 207.652 112.846 207.432C112.626 207.212 112.516 206.959 112.516 206.674C112.517 206.366 112.627 206.102 112.847 205.882C113.067 205.663 113.331 205.553 113.639 205.553L114.496 205.587C114.476 203.322 114.456 201.464 114.435 200.013L114.436 198.43C113.887 198.539 113.48 198.352 113.217 197.868ZM116.706 205.457C117.498 205.326 118.377 205.085 119.345 204.734C119.961 204.514 120.401 204.174 120.665 203.712C120.93 203.251 121.051 202.602 121.03 201.767C121.008 200.931 120.8 200.271 120.405 199.787C120.009 199.303 119.372 198.918 118.493 198.631C117.833 198.433 117.207 198.267 116.613 198.135L116.645 199.982C116.666 201.433 116.686 203.258 116.706 205.457ZM127.579 196.067C127.777 195.825 128.019 195.693 128.305 195.671C128.612 195.628 128.887 195.705 129.129 195.903C129.371 196.101 129.513 196.343 129.557 196.629L129.917 199.96C130.157 202.225 130.275 205.227 130.272 208.965C130.271 210.042 130.292 210.943 130.336 211.669C130.886 210.724 131.569 209.427 132.384 207.779C134.146 204.241 135.478 201.702 136.381 200.164C137.262 198.669 137.79 197.757 137.967 197.428C137.967 197.428 137.978 197.406 138 197.362C138.022 197.318 138.033 197.285 138.033 197.263C138.055 197.219 138.088 197.164 138.132 197.098C138.198 197.032 138.264 196.977 138.33 196.933C138.396 196.889 138.484 196.846 138.594 196.802C138.704 196.758 138.825 196.725 138.957 196.703C139.506 196.638 139.891 196.759 140.111 197.067C140.33 197.353 140.418 197.661 140.374 197.991L140.307 198.485C140.307 199.101 140.383 200.398 140.535 202.377C140.687 204.356 140.894 206.764 141.155 209.601C141.417 212.415 141.668 214.328 141.909 215.34L142.27 216.956C142.336 217.264 142.281 217.539 142.105 217.781C141.95 218.044 141.719 218.209 141.412 218.275C141.126 218.341 140.851 218.296 140.587 218.142C140.345 217.988 140.192 217.757 140.126 217.449L139.765 215.833C139.502 214.711 139.229 212.71 138.945 209.83C138.684 206.971 138.477 204.541 138.325 202.54C138.281 202.122 138.249 201.727 138.227 201.353C137.346 202.847 136.069 205.32 134.395 208.77C134.329 208.858 134.252 209.001 134.164 209.199C133.503 210.539 133.018 211.507 132.71 212.1C132.402 212.671 132.049 213.243 131.653 213.814C131.257 214.385 130.894 214.77 130.564 214.967C130.124 215.165 129.728 215.198 129.376 215.065C129.047 214.911 128.805 214.691 128.651 214.405C128.388 213.943 128.223 213.327 128.158 212.558C128.093 211.788 128.061 210.59 128.062 208.963C128.065 205.313 127.947 202.399 127.707 200.222L127.347 196.891C127.325 196.583 127.402 196.308 127.579 196.067ZM155.318 206.249C156.879 207.02 157.79 208.109 158.053 209.516C158.359 211.253 157.544 212.891 155.608 214.428C153.716 215.966 151.88 216.437 150.099 215.842C148.363 215.269 147.297 214.498 146.902 213.53L146.474 212.508C146.342 212.244 146.332 211.969 146.442 211.683C146.574 211.397 146.772 211.2 147.036 211.09C147.322 210.958 147.608 210.947 147.893 211.058C148.179 211.168 148.377 211.366 148.487 211.652L148.914 212.675C148.958 212.741 149.035 212.829 149.145 212.939C149.255 213.027 149.453 213.148 149.738 213.302C150.024 213.456 150.376 213.61 150.793 213.765C151.805 214.095 152.948 213.744 154.224 212.712C155.479 211.702 156.029 210.768 155.876 209.91C155.723 209.052 154.943 208.392 153.536 207.929C153.184 207.819 152.876 207.72 152.613 207.632C152.041 207.433 151.646 207.301 151.426 207.235C151.36 207.213 151.294 207.191 151.228 207.169C151.228 207.169 151.206 207.213 151.162 207.301C151.074 207.322 150.898 207.135 150.635 206.739C150.415 206.343 150.393 206.025 150.569 205.783C150.768 205.541 151.043 205.366 151.394 205.256L151.922 205.058C152.142 205.059 152.505 204.993 153.011 204.862C153.143 204.84 153.286 204.807 153.44 204.763C154.253 204.522 155.057 203.566 155.85 201.896C156.202 201.148 156.291 200.577 156.115 200.181C155.962 199.763 155.478 199.389 154.665 199.058C152.885 198.287 151.511 198.11 150.543 198.527L148.629 199.317C148.365 199.449 148.09 199.459 147.805 199.349C147.519 199.217 147.31 199.019 147.178 198.755C147.069 198.469 147.069 198.183 147.179 197.897C147.311 197.612 147.509 197.414 147.773 197.304L149.687 196.481C151.249 195.823 153.205 196.001 155.557 197.014C156.832 197.565 157.667 198.357 158.062 199.391C158.479 200.425 158.412 201.568 157.861 202.821C157.09 204.425 156.242 205.568 155.318 206.249ZM179.454 196.177C179.718 195.98 179.993 195.903 180.279 195.947C180.587 195.991 180.829 196.145 181.004 196.409C181.202 196.652 181.279 196.915 181.234 197.201L181.069 198.256C180.958 198.894 180.824 200.994 180.667 204.556C180.51 208.139 180.409 210.965 180.363 213.031C180.34 215.054 180.328 216.187 180.327 216.428L180.36 216.791C180.382 217.099 180.283 217.363 180.063 217.583C179.864 217.824 179.612 217.945 179.304 217.945C179.018 217.966 178.754 217.878 178.512 217.68C178.293 217.482 178.172 217.229 178.15 216.921L178.118 216.591C178.118 216.328 178.13 215.129 178.154 212.997C178.199 210.908 178.301 208.061 178.458 204.455C178.615 200.827 178.76 198.65 178.892 197.925L179.025 196.87C179.069 196.584 179.212 196.353 179.454 196.177ZM162.426 208.003C162.338 207.717 162.36 207.442 162.493 207.178C162.647 206.893 162.867 206.706 163.153 206.618C162.869 203.584 162.75 201.286 162.796 199.725L162.831 197.185C162.831 196.878 162.941 196.625 163.161 196.427C163.403 196.207 163.667 196.098 163.953 196.098C164.261 196.098 164.514 196.208 164.712 196.428C164.931 196.648 165.041 196.912 165.041 197.22L165.005 199.793C164.982 201.178 165.09 203.256 165.33 206.026C166.166 205.873 167.166 205.863 168.331 205.996C170.2 206.196 171.584 207.56 172.483 210.089C172.922 211.277 173.009 212.431 172.744 213.553C172.501 214.652 171.907 215.597 170.961 216.387C169.134 217.947 167.441 218.561 165.88 218.23C165.88 218.23 165.748 218.219 165.484 218.197C165.242 218.174 165.023 218.141 164.825 218.097C164.737 218.097 164.66 218.086 164.594 218.064C164.484 218.042 164.374 217.998 164.264 217.932C163.363 217.601 163.045 217.029 163.309 216.216L163.408 215.952C163.475 215.71 163.618 215.513 163.838 215.359C163.838 215.161 163.838 214.952 163.838 214.732C163.817 213.809 163.665 211.819 163.382 208.762C162.898 208.696 162.579 208.443 162.426 208.003ZM166.08 216.02C166.168 216.043 166.245 216.065 166.311 216.087C167.168 216.263 168.235 215.802 169.511 214.704C170.127 214.199 170.501 213.65 170.634 213.056C170.788 212.441 170.712 211.693 170.405 210.813C169.813 209.164 169.044 208.294 168.098 208.206C167.087 208.073 166.23 208.083 165.526 208.236C165.853 211.513 166.027 213.668 166.048 214.701C166.069 215.383 166.08 215.823 166.08 216.02Z" fill="#F84F9F"/>
<defs>
<filter id="filter0_f_171537_2449" x="14.4471" y="15.2834" width="265.987" height="271.825" filterUnits="userSpaceOnUse" color-interpolation-filters="sRGB">
<feFlood flood-opacity="0" result="BackgroundImageFix"/>
<feBlend mode="normal" in="SourceGraphic" in2="BackgroundImageFix" result="shape"/>
<feGaussianBlur stdDeviation="3.52473" result="effect1_foregroundBlur_171537_2449"/>
</filter>
<clipPath id="clip0_171537_2449">
<rect width="230.965" height="54.0304" fill="white" transform="translate(28.8333 179.349)"/>
</clipPath>
</defs>
</svg>
