<svg width="283" height="731" viewBox="0 0 283 731" fill="none" xmlns="http://www.w3.org/2000/svg">
<g clip-path="url(#clip0_171094_439)">
<path d="M78.8099 544.322C102.116 544.322 120.993 563.183 120.993 586.468C120.993 609.752 102.116 628.613 78.8099 628.613C55.5043 628.613 36.6265 609.752 36.6265 586.468C36.6265 563.183 55.5043 544.322 78.8099 544.322Z" fill="#2A2B81" fill-opacity="0.41"/>
<path d="M-213.729 351.908C-213.729 408.628 -167.564 454.751 -110.793 454.751C-54.0218 454.751 -7.8568 408.628 -7.8568 351.908C-7.8568 295.189 -54.0218 249.065 -110.793 249.065C-167.564 249.065 -213.729 295.189 -213.729 351.908ZM3.98477 351.908C3.98477 415.143 -47.5004 466.582 -110.793 466.582C-174.085 466.582 -225.57 415.143 -225.57 351.908C-225.57 288.673 -174.085 237.234 -110.793 237.234C-47.5004 237.234 3.98477 288.673 3.98477 351.908Z" fill="#2A2B81" fill-opacity="0.41"/>
<path d="M13.1492 233.016C13.1492 281.266 53.9941 320.531 104.244 320.531C154.493 320.531 195.304 281.266 195.304 233.016C195.304 193.203 167.33 158.362 127.275 148.314C119.792 146.428 112.035 145.468 104.209 145.468C53.9941 145.468 13.1149 184.733 13.1149 232.982L13.1492 233.016ZM203.37 233.016C203.37 285.724 158.887 328.589 104.244 328.589C49.6007 328.589 5.08325 285.724 5.08325 233.016C5.08325 180.309 49.5664 137.444 104.244 137.444C112.722 137.444 121.131 138.472 129.265 140.53C172.89 151.469 203.37 189.499 203.37 233.016Z" fill="#2A2B81" fill-opacity="0.41"/>
<path d="M-29.3432 501.388C-29.3432 526.628 -7.95968 547.169 18.2977 547.169C44.5552 547.169 65.9387 526.628 65.9387 501.388C65.9387 480.573 51.3169 462.329 30.3453 457.083C26.4324 456.088 22.3822 455.608 18.2977 455.608C-7.95968 455.608 -29.3432 476.149 -29.3432 501.388ZM70.1605 501.388C70.1605 528.959 46.8892 551.387 18.2977 551.387C-10.2937 551.387 -33.5649 528.959 -33.5649 501.388C-33.5649 473.817 -10.2937 451.39 18.2977 451.39C22.7255 451.39 27.1189 451.939 31.375 453.002C54.2001 458.729 70.1605 478.618 70.1605 501.388Z" fill="#2A2B81" fill-opacity="0.41"/>
<path d="M37.3815 233.016C37.3815 268.406 67.3802 297.212 104.244 297.212C141.107 297.212 171.071 268.406 171.071 233.016C171.071 197.627 141.073 168.821 104.244 168.821C67.4146 168.821 37.3815 197.627 37.3815 233.016ZM179.137 233.016C179.137 272.864 145.535 305.27 104.244 305.27C62.9525 305.27 29.3499 272.864 29.3499 233.016C29.3499 193.169 62.9525 160.762 104.244 160.762C145.535 160.762 179.137 193.169 179.137 233.016Z" fill="#2A2B81" fill-opacity="0.41"/>
<path d="M65.9043 233.017C65.9043 253.283 83.1004 269.778 104.244 269.778C125.387 269.778 142.549 253.283 142.549 233.017C142.549 212.75 125.353 196.255 104.244 196.255C83.1347 196.255 65.9043 212.75 65.9043 233.017ZM150.168 233.017C150.168 257.467 129.574 277.357 104.244 277.357C78.9129 277.357 58.3188 257.467 58.3188 233.017C58.3188 208.566 78.9129 188.677 104.244 188.677C129.574 188.677 150.168 208.566 150.168 233.017Z" fill="#2A2B81" fill-opacity="0.41"/>
<path d="M36.2145 72.254C36.2145 87.7541 49.3604 100.374 65.5267 100.374C81.6931 100.374 94.8389 87.7541 94.8389 72.254C94.8389 56.7539 81.6931 44.1686 65.5267 44.1686C49.3604 44.1686 36.2145 56.7881 36.2145 72.254ZM100.64 72.254C100.64 90.9433 84.8851 106.169 65.5267 106.169C46.1683 106.169 30.4138 90.9433 30.4138 72.254C30.4138 53.5647 46.1683 38.3389 65.5267 38.3389C84.8851 38.3389 100.64 53.5647 100.64 72.254Z" fill="#2A2B81" fill-opacity="0.41"/>
<path d="M128.682 558.725C128.682 576.386 143.681 590.789 162.113 590.789C180.544 590.789 195.544 576.42 195.544 558.725C195.544 541.03 180.544 526.662 162.113 526.662C143.681 526.662 128.682 541.03 128.682 558.725ZM202.168 558.725C202.168 580.055 184.183 597.407 162.113 597.407C140.043 597.407 122.057 580.055 122.057 558.725C122.057 537.395 140.043 520.043 162.113 520.043C184.183 520.043 202.168 537.395 202.168 558.725Z" fill="#2A2B81" fill-opacity="0.41"/>
<path d="M68.5129 333.699C82.8258 333.699 94.3927 345.29 94.3927 359.555C94.3927 373.821 82.7914 385.412 68.5129 385.412C54.2344 385.412 42.6331 373.821 42.6331 359.555C42.6331 345.29 54.2344 333.699 68.5129 333.699Z" fill="#2A2B81" fill-opacity="0.41"/>
<path d="M112.172 472.446C112.172 472.446 116.12 502.554 149.516 509.653C149.516 509.653 119.037 513.837 112.516 547.032C112.413 547.58 109.289 516.923 74.9314 509.962C74.9314 509.962 105.823 505.778 112.172 472.446Z" fill="#2A2B81" fill-opacity="0.41"/>
<path d="M9.78543 434.244C13.3551 426.185 19.4989 421.899 24.3042 419.704C16.2039 416.103 11.9135 409.999 9.68246 405.233C6.14715 413.326 -0.031086 417.612 -4.87069 419.841C3.26396 423.373 7.55441 429.34 9.78543 434.278V434.244ZM33.7089 419.704V419.773C33.6745 420.836 32.8508 421.727 31.7868 421.899C31.1346 422.002 15.4488 424.436 11.9821 442.028C11.7762 443.091 10.8495 443.812 9.78543 443.812C8.7214 443.812 7.76035 442.817 7.58873 441.788C6.86794 437.982 3.26398 425.294 -12.6278 422.07C-13.6918 421.864 -14.4126 420.767 -14.4126 419.841C-14.4126 418.744 -13.5888 417.852 -12.4905 417.715C-11.804 417.612 4.08776 415.177 7.45146 397.517C7.6574 396.454 8.58411 395.699 9.68246 395.734C10.7808 395.734 11.6732 396.591 11.8105 397.654C11.9135 398.306 14.2132 413.806 31.9584 417.578C32.9881 417.784 33.7089 418.71 33.7089 419.738V419.704Z" fill="#2A2B81" fill-opacity="0.41"/>
<path d="M29.59 315.25C29.59 315.25 31.3062 329.481 45.6533 332.841C45.6533 332.841 32.5761 334.796 29.8302 350.433C29.7959 350.708 28.423 336.202 13.6982 332.91C13.6982 332.91 26.9471 330.99 29.6243 315.215L29.59 315.25Z" fill="#2A2B81" fill-opacity="0.41"/>
<path d="M152.537 486.265C156.518 477.727 162.628 472.789 167.776 469.977C159.813 465.724 155.111 459.243 152.399 453.653C148.418 462.226 142.308 467.199 137.125 470.011C145.123 474.195 149.825 480.573 152.571 486.265H152.537ZM181.162 469.977V470.114C181.094 471.794 179.824 473.166 178.176 473.44C177.387 473.577 159.882 476.629 156.038 498.474C155.729 500.154 154.287 501.388 152.571 501.388C150.855 501.388 149.345 499.879 149.07 498.199C148.006 492.095 143.647 477.452 126.245 473.543C124.597 473.166 123.43 471.76 123.499 469.977C123.568 468.296 124.838 466.89 126.485 466.65C127.206 466.547 144.985 463.495 148.761 441.548C149.036 439.834 150.546 438.599 152.296 438.633C154.047 438.633 155.488 439.971 155.694 441.685C155.797 442.508 158.475 461.884 178.416 466.582C179.995 466.959 181.128 468.365 181.128 469.977H181.162Z" fill="#2A2B81" fill-opacity="0.41"/>
<path d="M-6.70128 595.678L-9.58618 600.667L4.56008 608.833L7.44498 603.845L-6.70128 595.678Z" fill="#2A2B81" fill-opacity="0.41"/>
<path d="M10.9183 586.193H-5.41968V591.954H10.9183V586.193Z" fill="#2A2B81" fill-opacity="0.41"/>
<path d="M5.06726 569.13L-9.08325 577.289L-6.20097 582.279L7.94955 574.119L5.06726 569.13Z" fill="#2A2B81" fill-opacity="0.41"/>
<path d="M41.4661 122.527H34.1208V127.225H41.4661V122.527Z" fill="#2A2B81" fill-opacity="0.41"/>
<path d="M43.3963 130.95L39.7214 137.304L43.8227 139.672L47.4975 133.318L43.3963 130.95Z" fill="#2A2B81" fill-opacity="0.41"/>
<path d="M55.7517 131.131L51.6533 133.504L55.3359 139.853L59.4342 137.481L55.7517 131.131Z" fill="#2A2B81" fill-opacity="0.41"/>
<path d="M55.6817 110.491L52.0046 116.844L56.105 119.213L59.7821 112.86L55.6817 110.491Z" fill="#2A2B81" fill-opacity="0.41"/>
<path d="M44.1309 110.301L40.0598 112.652L43.7358 119.006L47.8069 116.654L44.1309 110.301Z" fill="#2A2B81" fill-opacity="0.41"/>
<path d="M64.6001 122.527H57.2549V127.225H64.6001V122.527Z" fill="#2A2B81" fill-opacity="0.41"/>
<path d="M67.5518 431.055H49.8752V435.89H67.5518V431.055Z" fill="#2A2B81" fill-opacity="0.41"/>
<path d="M68.7526 441.487L53.4412 450.312L55.8595 454.5L71.171 445.675L68.7526 441.487Z" fill="#2A2B81" fill-opacity="0.41"/>
<path d="M74.9989 449.797L66.1606 465.091L70.3519 467.509L79.1901 452.214L74.9989 449.797Z" fill="#2A2B81" fill-opacity="0.41"/>
<path d="M89.4158 453.928H84.5762V471.588H89.4158V453.928Z" fill="#2A2B81" fill-opacity="0.41"/>
<path d="M99.1458 450.315L94.9546 452.733L103.793 468.027L107.984 465.609L99.1458 450.315Z" fill="#2A2B81" fill-opacity="0.41"/>
<path d="M105.769 442.36L103.349 446.547L118.655 455.38L121.076 451.193L105.769 442.36Z" fill="#2A2B81" fill-opacity="0.41"/>
<path d="M125.147 432.083H107.47V436.919H125.147V432.083Z" fill="#2A2B81" fill-opacity="0.41"/>
<path d="M119.147 413.566L103.837 422.394L106.256 426.582L121.566 417.754L119.147 413.566Z" fill="#2A2B81" fill-opacity="0.41"/>
<path d="M104.664 400.429L95.8259 415.724L100.017 418.141L108.855 402.847L104.664 400.429Z" fill="#2A2B81" fill-opacity="0.41"/>
<path d="M90.4456 396.385H85.606V414.046H90.4456V396.385Z" fill="#2A2B81" fill-opacity="0.41"/>
<path d="M71.2235 399.918L67.0327 402.336L75.8737 417.629L80.0645 415.211L71.2235 399.918Z" fill="#2A2B81" fill-opacity="0.41"/>
<path d="M56.3576 412.594L53.9377 416.781L69.2461 425.612L71.6659 421.424L56.3576 412.594Z" fill="#2A2B81" fill-opacity="0.41"/>
<path d="M3.16115 120.435H-0.683105V134.495H3.16115V120.435Z" fill="#2A2B81" fill-opacity="0.41"/>
<path d="M10.9327 117.545L7.60181 119.462L14.6275 131.644L17.9583 129.727L10.9327 117.545Z" fill="#2A2B81" fill-opacity="0.41"/>
<path d="M16.1852 111.211L14.262 114.536L26.4467 121.571L28.37 118.245L16.1852 111.211Z" fill="#2A2B81" fill-opacity="0.41"/>
<path d="M26.8528 88.2658L14.6655 95.2958L16.5876 98.622L28.7749 91.592L26.8528 88.2658Z" fill="#2A2B81" fill-opacity="0.41"/>
<path d="M15.3393 77.9093L8.30518 90.0867L11.6347 92.0065L18.6689 79.8291L15.3393 77.9093Z" fill="#2A2B81" fill-opacity="0.41"/>
<path d="M3.98483 74.6201H0.140625V88.68H3.98483V74.6201Z" fill="#2A2B81" fill-opacity="0.41"/>
<path d="M30.1735 102.26H16.1008V106.101H30.1735V102.26Z" fill="#2A2B81" fill-opacity="0.41"/>
<path d="M23.4119 167.244C32.0614 167.244 39.0977 174.274 39.0977 182.915C39.0977 191.557 32.0614 198.587 23.4119 198.587C14.7624 198.587 7.72607 191.557 7.72607 182.915C7.72607 174.274 14.7624 167.244 23.4119 167.244Z" fill="#2A2B81" fill-opacity="0.41"/>
<path d="M22.2105 381.399C22.2105 392.099 30.9287 400.809 41.6376 400.809C52.3465 400.809 61.0647 392.099 61.0647 381.399C61.0647 370.7 52.3465 361.99 41.6376 361.99C30.9287 361.99 22.2105 370.7 22.2105 381.399ZM66.6251 381.399C66.6251 395.151 55.4356 406.364 41.6376 406.364C27.8396 406.364 16.6501 395.185 16.6501 381.399C16.6501 367.614 27.8396 356.435 41.6376 356.435C55.4356 356.435 66.6251 367.614 66.6251 381.399Z" fill="#2A2B81" fill-opacity="0.41"/>
<path d="M181.059 331.813C182.467 332.876 184.457 332.602 185.487 331.196C186.551 329.79 186.277 327.801 184.869 326.772C183.462 325.709 181.471 325.983 180.442 327.389C179.378 328.795 179.652 330.784 181.059 331.813Z" fill="#2A2B81" fill-opacity="0.41"/>
<path d="M202.786 327.835C204.193 328.898 206.184 328.623 207.214 327.217C208.278 325.812 208.003 323.823 206.596 322.794C205.189 321.731 203.198 322.005 202.168 323.411C201.104 324.817 201.379 326.806 202.786 327.835Z" fill="#2A2B81" fill-opacity="0.41"/>
<path d="M193.004 340.797C194.411 341.86 196.402 341.586 197.432 340.18C198.496 338.774 198.221 336.819 196.814 335.756C195.407 334.693 193.416 334.968 192.386 336.374C191.322 337.78 191.597 339.769 193.004 340.797Z" fill="#2A2B81" fill-opacity="0.41"/>
<path d="M172.135 343.609C173.543 344.672 175.533 344.398 176.563 342.992C177.627 341.586 177.353 339.597 175.945 338.568C174.538 337.505 172.547 337.78 171.518 339.186C170.453 340.592 170.728 342.546 172.135 343.609Z" fill="#2A2B81" fill-opacity="0.41"/>
<path d="M204.262 349.302C205.669 350.365 207.626 350.091 208.69 348.685C209.754 347.279 209.479 345.29 208.072 344.261C206.665 343.198 204.674 343.506 203.644 344.878C202.58 346.284 202.855 348.239 204.262 349.302Z" fill="#2A2B81" fill-opacity="0.41"/>
<path d="M223.861 323.308C225.268 324.371 227.259 324.097 228.288 322.691C229.352 321.285 229.078 319.296 227.671 318.267C226.263 317.204 224.273 317.478 223.243 318.884C222.179 320.29 222.453 322.279 223.861 323.308Z" fill="#2A2B81" fill-opacity="0.41"/>
<path d="M214.079 336.305C215.486 337.368 217.477 337.094 218.506 335.688C219.536 334.282 219.296 332.293 217.889 331.264C216.481 330.201 214.491 330.475 213.461 331.881C212.397 333.287 212.671 335.242 214.079 336.305Z" fill="#2A2B81" fill-opacity="0.41"/>
<path d="M190.841 318.816C192.249 319.879 194.239 319.605 195.269 318.199C196.333 316.793 196.059 314.838 194.651 313.775C193.244 312.712 191.253 312.986 190.224 314.392C189.16 315.798 189.434 317.787 190.841 318.816Z" fill="#2A2B81" fill-opacity="0.41"/>
<path d="M244.935 318.816C246.342 319.879 248.333 319.57 249.363 318.199C250.427 316.793 250.152 314.804 248.745 313.775C247.338 312.712 245.347 312.986 244.317 314.392C243.253 315.798 243.528 317.787 244.935 318.816Z" fill="#2A2B81" fill-opacity="0.41"/>
<path d="M151.679 305.716C152.743 304.31 152.468 302.321 151.061 301.293C149.653 300.229 147.697 300.504 146.633 301.91C145.569 303.316 145.844 305.305 147.251 306.334C148.658 307.397 150.649 307.122 151.679 305.716Z" fill="#2A2B81" fill-opacity="0.41"/>
<path d="M265.358 309.9C264.294 311.306 264.568 313.295 265.976 314.324C267.246 315.284 268.962 315.078 270.06 314.015C268.996 312.266 267.863 310.586 266.662 308.94C266.182 309.145 265.701 309.454 265.323 309.9H265.358Z" fill="#2A2B81" fill-opacity="0.41"/>
<path d="M158.509 314.838C159.916 315.901 161.907 315.627 162.937 314.221C164.001 312.815 163.726 310.826 162.319 309.797C160.912 308.734 158.921 309.008 157.891 310.414C156.827 311.82 157.102 313.809 158.509 314.838Z" fill="#2A2B81" fill-opacity="0.41"/>
<path d="M179.584 310.346C180.991 311.409 182.982 311.134 184.011 309.728C185.075 308.322 184.801 306.334 183.393 305.305C181.986 304.242 179.995 304.516 178.966 305.922C177.902 307.328 178.176 309.317 179.584 310.346Z" fill="#2A2B81" fill-opacity="0.41"/>
<path d="M236.595 353.28C238.002 354.343 239.993 354.068 241.023 352.662C242.087 351.256 241.812 349.267 240.405 348.239C238.997 347.176 237.007 347.45 235.977 348.856C234.913 350.262 235.188 352.251 236.595 353.28Z" fill="#2A2B81" fill-opacity="0.41"/>
<path d="M139.803 339.631C141.21 340.694 143.201 340.42 144.231 339.014C145.295 337.608 145.02 335.619 143.613 334.59C142.205 333.527 140.215 333.802 139.185 335.208C138.121 336.614 138.396 338.603 139.803 339.631Z" fill="#2A2B81" fill-opacity="0.41"/>
<path d="M118.728 344.124C120.135 345.187 122.126 344.912 123.156 343.506C124.22 342.1 123.945 340.111 122.538 339.083C121.131 338.02 119.14 338.294 118.11 339.7C117.046 341.106 117.321 343.095 118.728 344.124Z" fill="#2A2B81" fill-opacity="0.41"/>
<path d="M160.877 335.139C162.285 336.202 164.275 335.928 165.305 334.522C166.369 333.116 166.094 331.127 164.687 330.098C163.28 329.035 161.289 329.309 160.259 330.715C159.195 332.121 159.47 334.11 160.877 335.139Z" fill="#2A2B81" fill-opacity="0.41"/>
<path d="M128.545 331.127C129.952 332.19 131.908 331.916 132.972 330.51C134.036 329.104 133.762 327.115 132.354 326.086C130.947 325.023 128.956 325.297 127.927 326.703C126.863 328.109 127.137 330.098 128.545 331.127Z" fill="#2A2B81" fill-opacity="0.41"/>
<path d="M184.08 352.628C185.487 353.691 187.478 353.417 188.508 352.011C189.572 350.605 189.297 348.65 187.89 347.587C186.483 346.524 184.492 346.799 183.462 348.205C182.398 349.61 182.673 351.599 184.08 352.628Z" fill="#2A2B81" fill-opacity="0.41"/>
<path d="M151.061 348.102C152.468 349.165 154.459 348.89 155.488 347.484C156.552 346.078 156.278 344.089 154.871 343.061C153.463 341.998 151.472 342.272 150.443 343.678C149.379 345.084 149.653 347.073 151.061 348.102Z" fill="#2A2B81" fill-opacity="0.41"/>
<path d="M131.496 309.043C132.56 307.637 132.286 305.648 130.878 304.619C130.81 304.585 130.741 304.585 130.707 304.516C129.368 306.128 128.167 307.808 126.966 309.523C127 309.557 127.034 309.626 127.103 309.66C128.51 310.723 130.501 310.449 131.531 309.043H131.496Z" fill="#2A2B81" fill-opacity="0.41"/>
<path d="M278.126 339.837C277.062 341.243 277.337 343.232 278.744 344.261C279.636 344.947 280.769 345.015 281.73 344.638C281.387 342.615 280.941 340.592 280.46 338.603C279.568 338.637 278.675 339.048 278.092 339.803L278.126 339.837Z" fill="#2A2B81" fill-opacity="0.41"/>
<path d="M212.603 314.838C214.01 315.901 216.001 315.592 217.03 314.221C218.094 312.815 217.82 310.86 216.413 309.797C215.005 308.734 213.049 309.008 211.985 310.414C210.921 311.82 211.195 313.809 212.603 314.838Z" fill="#2A2B81" fill-opacity="0.41"/>
<path d="M268.961 357.258C270.369 358.321 272.36 358.046 273.389 356.64C274.419 355.234 274.179 353.245 272.771 352.217C271.364 351.154 269.373 351.428 268.344 352.834C267.28 354.24 267.554 356.229 268.961 357.258Z" fill="#2A2B81" fill-opacity="0.41"/>
<path d="M142.754 317.547C143.819 316.141 143.544 314.152 142.137 313.123C140.729 312.06 138.739 312.335 137.709 313.741C136.645 315.147 136.919 317.136 138.327 318.164C139.734 319.227 141.725 318.953 142.754 317.547Z" fill="#2A2B81" fill-opacity="0.41"/>
<path d="M149.585 326.635C150.992 327.698 152.983 327.423 154.013 326.017C155.077 324.611 154.802 322.622 153.395 321.594C151.987 320.531 149.997 320.839 148.967 322.211C147.903 323.617 148.178 325.571 149.585 326.635Z" fill="#2A2B81" fill-opacity="0.41"/>
<path d="M169.767 323.308C171.174 324.371 173.165 324.097 174.195 322.691C175.259 321.285 174.984 319.296 173.577 318.267C172.17 317.204 170.179 317.478 169.149 318.884C168.085 320.29 168.36 322.279 169.767 323.308Z" fill="#2A2B81" fill-opacity="0.41"/>
<path d="M236.629 288.261C237.693 286.855 237.418 284.866 236.011 283.838C234.604 282.775 232.613 283.049 231.583 284.455C230.519 285.861 230.794 287.85 232.201 288.879C233.609 289.942 235.565 289.667 236.629 288.261Z" fill="#2A2B81" fill-opacity="0.41"/>
<path d="M235.119 331.813C236.526 332.876 238.517 332.602 239.547 331.196C240.611 329.79 240.336 327.801 238.929 326.772C237.521 325.709 235.531 325.983 234.501 327.389C233.437 328.795 233.746 330.784 235.119 331.813Z" fill="#2A2B81" fill-opacity="0.41"/>
<path d="M260.655 326.703C261.719 325.297 261.445 323.308 260.038 322.279C258.63 321.216 256.639 321.491 255.61 322.897C254.546 324.303 254.82 326.292 256.228 327.32C257.635 328.383 259.626 328.109 260.655 326.703Z" fill="#2A2B81" fill-opacity="0.41"/>
<path d="M250.221 335.242C248.814 334.179 246.857 334.488 245.793 335.859C244.729 337.265 245.004 339.22 246.411 340.283C247.818 341.346 249.809 341.072 250.839 339.666C251.903 338.26 251.628 336.271 250.221 335.242Z" fill="#2A2B81" fill-opacity="0.41"/>
<path d="M257.669 348.787C259.077 349.85 261.067 349.576 262.097 348.17C263.161 346.764 262.886 344.775 261.479 343.746C260.072 342.683 258.081 342.958 257.051 344.364C255.987 345.77 256.262 347.759 257.669 348.787Z" fill="#2A2B81" fill-opacity="0.41"/>
<path d="M140.386 297.246C141.038 296.354 141.141 295.257 140.798 294.297C139.357 295.566 137.915 296.8 136.542 298.172C137.881 298.789 139.494 298.481 140.386 297.28V297.246Z" fill="#2A2B81" fill-opacity="0.41"/>
<path d="M267.486 335.791C268.893 336.854 270.884 336.579 271.914 335.173C272.978 333.767 272.703 331.778 271.296 330.75C269.889 329.687 267.898 329.961 266.868 331.367C265.838 332.773 266.079 334.762 267.486 335.791Z" fill="#2A2B81" fill-opacity="0.41"/>
<path d="M266.799 406.947C265.392 405.884 263.436 406.159 262.372 407.564C261.307 408.97 261.582 410.959 262.989 411.988C263.401 412.297 263.916 412.468 264.397 412.537C265.564 411.097 266.662 409.622 267.726 408.079C267.52 407.633 267.211 407.222 266.799 406.913V406.947Z" fill="#2A2B81" fill-opacity="0.41"/>
<path d="M233.643 310.346C235.05 311.409 237.041 311.134 238.071 309.728C239.135 308.322 238.86 306.334 237.453 305.305C236.046 304.242 234.055 304.516 233.025 305.922C231.961 307.328 232.236 309.317 233.643 310.346Z" fill="#2A2B81" fill-opacity="0.41"/>
<path d="M192.901 273.481C190.807 273.584 188.748 273.687 186.723 273.962C186.86 274.716 187.238 275.402 187.89 275.882C189.297 276.945 191.288 276.671 192.318 275.265C192.729 274.716 192.867 274.099 192.901 273.481Z" fill="#2A2B81" fill-opacity="0.41"/>
<path d="M245.759 411.474C244.352 410.411 242.361 410.685 241.331 412.091C240.267 413.497 240.542 415.486 241.949 416.515C243.357 417.578 245.347 417.304 246.377 415.898C247.441 414.492 247.166 412.503 245.759 411.474Z" fill="#2A2B81" fill-opacity="0.41"/>
<path d="M230.622 361.201C229.215 360.138 227.224 360.413 226.195 361.819C225.131 363.225 225.405 365.179 226.813 366.242C228.22 367.305 230.211 367.031 231.24 365.625C232.304 364.219 232.03 362.23 230.622 361.201Z" fill="#2A2B81" fill-opacity="0.41"/>
<path d="M251.697 356.709C250.29 355.646 248.299 355.92 247.269 357.326C246.205 358.732 246.48 360.721 247.887 361.75C249.294 362.813 251.285 362.539 252.315 361.133C253.379 359.727 253.104 357.738 251.697 356.709Z" fill="#2A2B81" fill-opacity="0.41"/>
<path d="M259.145 370.254C260.552 371.318 262.509 371.043 263.573 369.637C264.637 368.231 264.362 366.242 262.955 365.213C261.548 364.15 259.557 364.425 258.527 365.831C257.463 367.237 257.738 369.226 259.145 370.254Z" fill="#2A2B81" fill-opacity="0.41"/>
<path d="M229.146 339.734C227.739 338.671 225.748 338.945 224.719 340.351C223.655 341.757 223.929 343.746 225.337 344.775C226.744 345.838 228.7 345.564 229.764 344.158C230.828 342.752 230.554 340.763 229.146 339.734Z" fill="#2A2B81" fill-opacity="0.41"/>
<path d="M171.277 279.757C171.895 278.968 171.998 277.974 171.758 277.082C169.767 277.699 167.845 278.454 165.888 279.174C166.094 279.62 166.403 280.066 166.815 280.374C168.222 281.437 170.213 281.163 171.243 279.757H171.277Z" fill="#2A2B81" fill-opacity="0.41"/>
<path d="M254.718 305.819C256.125 306.882 258.116 306.608 259.145 305.202C260.209 303.796 259.935 301.807 258.528 300.778C257.12 299.715 255.129 299.989 254.1 301.395C253.036 302.801 253.31 304.79 254.718 305.819Z" fill="#2A2B81" fill-opacity="0.41"/>
<path d="M222.385 301.841C223.792 302.904 225.783 302.63 226.813 301.224C227.877 299.818 227.602 297.829 226.195 296.8C224.788 295.737 222.797 296.012 221.767 297.418C220.703 298.824 220.978 300.812 222.385 301.841Z" fill="#2A2B81" fill-opacity="0.41"/>
<path d="M168.291 301.841C169.698 302.904 171.689 302.63 172.719 301.224C173.783 299.818 173.508 297.829 172.101 296.8C170.694 295.737 168.703 296.012 167.673 297.418C166.609 298.824 166.884 300.812 168.291 301.841Z" fill="#2A2B81" fill-opacity="0.41"/>
<path d="M200.658 305.853C202.065 306.917 204.056 306.642 205.086 305.236C206.15 303.83 205.875 301.876 204.468 300.812C203.061 299.749 201.07 300.024 200.04 301.43C198.976 302.836 199.285 304.825 200.658 305.853Z" fill="#2A2B81" fill-opacity="0.41"/>
<path d="M189.366 297.349C190.773 298.412 192.764 298.138 193.794 296.732C194.858 295.326 194.583 293.337 193.176 292.308C191.768 291.245 189.778 291.519 188.748 292.925C187.684 294.331 187.959 296.32 189.366 297.349Z" fill="#2A2B81" fill-opacity="0.41"/>
<path d="M210.44 292.857C211.848 293.92 213.838 293.645 214.868 292.239C215.932 290.833 215.657 288.844 214.25 287.816C212.843 286.753 210.852 287.027 209.822 288.433C208.758 289.839 209.033 291.828 210.44 292.857Z" fill="#2A2B81" fill-opacity="0.41"/>
<path d="M243.459 297.349C244.867 298.412 246.857 298.138 247.887 296.732C248.951 295.326 248.676 293.337 247.269 292.308C245.862 291.245 243.906 291.519 242.841 292.925C241.777 294.331 242.052 296.32 243.459 297.349Z" fill="#2A2B81" fill-opacity="0.41"/>
<path d="M220.222 279.86C221.63 280.923 223.62 280.649 224.65 279.243C224.925 278.9 225.096 278.488 225.199 278.077C223.243 277.391 221.218 276.808 219.193 276.259C218.712 277.528 219.09 279.003 220.222 279.86Z" fill="#2A2B81" fill-opacity="0.41"/>
<path d="M215.554 357.772C216.962 358.835 218.952 358.561 219.982 357.155C221.046 355.749 220.771 353.76 219.364 352.731C217.957 351.668 215.966 351.942 214.936 353.348C213.872 354.754 214.147 356.743 215.554 357.772Z" fill="#2A2B81" fill-opacity="0.41"/>
<path d="M199.148 284.352C200.555 285.415 202.546 285.141 203.576 283.735C204.64 282.329 204.365 280.34 202.958 279.311C201.55 278.248 199.56 278.522 198.53 279.928C197.466 281.334 197.741 283.323 199.148 284.352Z" fill="#2A2B81" fill-opacity="0.41"/>
<path d="M157.033 293.371C158.44 294.434 160.431 294.16 161.461 292.754C162.525 291.348 162.25 289.359 160.843 288.33C159.436 287.267 157.445 287.541 156.415 288.947C155.351 290.353 155.626 292.342 157.033 293.371Z" fill="#2A2B81" fill-opacity="0.41"/>
<path d="M178.107 288.879C179.515 289.942 181.506 289.667 182.535 288.261C183.599 286.855 183.325 284.866 181.917 283.838C180.51 282.775 178.519 283.049 177.49 284.455C176.426 285.861 176.7 287.816 178.107 288.879Z" fill="#2A2B81" fill-opacity="0.41"/>
<path d="M238.07 374.747C239.478 375.81 241.468 375.535 242.498 374.129C243.562 372.723 243.288 370.735 241.88 369.706C240.473 368.643 238.482 368.917 237.453 370.323C236.389 371.729 236.663 373.718 238.07 374.747Z" fill="#2A2B81" fill-opacity="0.41"/>
<path d="M199.8 425.534C201.207 426.597 203.198 426.322 204.228 424.916C205.292 423.51 205.017 421.522 203.61 420.493C202.203 419.43 200.212 419.704 199.182 421.11C198.118 422.516 198.393 424.505 199.8 425.534Z" fill="#2A2B81" fill-opacity="0.41"/>
<path d="M188.508 417.029C189.915 418.092 191.906 417.818 192.935 416.412C193.999 415.006 193.725 413.017 192.318 411.988C190.91 410.925 188.92 411.2 187.89 412.606C186.826 414.011 187.1 415.966 188.508 417.029Z" fill="#2A2B81" fill-opacity="0.41"/>
<path d="M220.875 421.007C222.282 422.07 224.238 421.796 225.302 420.39C226.366 418.984 226.092 416.995 224.684 415.966C223.277 414.903 221.286 415.177 220.257 416.583C219.193 417.989 219.467 419.978 220.875 421.007Z" fill="#2A2B81" fill-opacity="0.41"/>
<path d="M232.133 429.512C233.54 430.575 235.531 430.3 236.56 428.894C237.624 427.488 237.35 425.499 235.943 424.471C234.535 423.408 232.579 423.682 231.515 425.088C230.451 426.494 230.725 428.483 232.133 429.512Z" fill="#2A2B81" fill-opacity="0.41"/>
<path d="M114.232 373.512C113.614 373.066 112.927 372.895 112.207 372.929C112.55 374.987 112.927 376.976 113.374 378.965C113.923 378.759 114.472 378.45 114.849 377.936C115.913 376.53 115.639 374.541 114.232 373.512Z" fill="#2A2B81" fill-opacity="0.41"/>
<path d="M211.058 434.004C212.465 435.067 214.456 434.793 215.486 433.387C216.55 431.981 216.275 429.992 214.868 428.963C213.461 427.9 211.47 428.174 210.44 429.58C209.376 430.986 209.651 432.975 211.058 434.004Z" fill="#2A2B81" fill-opacity="0.41"/>
<path d="M257.017 419.944C255.61 418.881 253.619 419.155 252.589 420.561C251.663 421.796 251.834 423.476 252.83 424.574C254.408 423.236 255.953 421.864 257.429 420.39C257.292 420.253 257.189 420.047 257.017 419.944Z" fill="#2A2B81" fill-opacity="0.41"/>
<path d="M132.972 395.562C134.379 396.625 136.37 396.351 137.4 394.945C138.464 393.539 138.155 391.584 136.782 390.521C135.375 389.458 133.418 389.732 132.354 391.138C131.29 392.544 131.565 394.533 132.972 395.562Z" fill="#2A2B81" fill-opacity="0.41"/>
<path d="M165.991 400.054C167.399 401.118 169.389 400.843 170.419 399.437C171.483 398.031 171.208 396.042 169.801 395.013C168.394 393.95 166.403 394.259 165.373 395.631C164.309 397.037 164.584 398.991 165.991 400.054Z" fill="#2A2B81" fill-opacity="0.41"/>
<path d="M154.699 391.584C156.106 392.647 158.097 392.373 159.127 390.967C160.191 389.561 159.916 387.606 158.509 386.543C157.102 385.48 155.111 385.755 154.081 387.161C153.017 388.567 153.292 390.556 154.699 391.584Z" fill="#2A2B81" fill-opacity="0.41"/>
<path d="M198.324 404.032C199.731 405.095 201.722 404.821 202.752 403.415C203.816 402.009 203.541 400.054 202.134 398.991C200.727 397.928 198.736 398.203 197.706 399.609C196.642 401.015 196.917 403.004 198.324 404.032Z" fill="#2A2B81" fill-opacity="0.41"/>
<path d="M209.582 412.537C210.989 413.6 212.98 413.326 214.01 411.92C215.074 410.514 214.799 408.525 213.392 407.496C211.985 406.433 209.994 406.707 208.964 408.113C207.9 409.519 208.175 411.508 209.582 412.537Z" fill="#2A2B81" fill-opacity="0.41"/>
<path d="M230.657 408.045C232.064 409.108 234.021 408.833 235.085 407.427C236.149 406.021 235.874 404.032 234.467 403.004C233.059 401.941 231.069 402.215 230.039 403.621C228.975 405.027 229.25 407.016 230.657 408.045Z" fill="#2A2B81" fill-opacity="0.41"/>
<path d="M178.725 430.026C180.133 431.089 182.123 430.815 183.153 429.409C184.217 428.003 183.943 426.014 182.535 424.985C181.128 423.922 179.137 424.196 178.108 425.602C177.044 427.008 177.318 428.997 178.725 430.026Z" fill="#2A2B81" fill-opacity="0.41"/>
<path d="M149.345 403.93C150.409 402.524 150.134 400.535 148.727 399.506C147.319 398.443 145.329 398.717 144.299 400.123C143.235 401.529 143.51 403.518 144.917 404.547C146.324 405.61 148.315 405.336 149.345 403.93Z" fill="#2A2B81" fill-opacity="0.41"/>
<path d="M200.075 445.012C202.168 444.943 204.228 444.875 206.287 444.669C206.356 443.64 205.978 442.611 205.086 441.96C203.679 440.897 201.722 441.171 200.658 442.577C200.109 443.297 199.937 444.189 200.075 445.046V445.012Z" fill="#2A2B81" fill-opacity="0.41"/>
<path d="M121.714 322.039C122.641 320.805 122.503 319.193 121.508 318.096C120.581 319.776 119.792 321.525 119.002 323.24C120.032 323.308 121.028 322.931 121.714 322.039Z" fill="#2A2B81" fill-opacity="0.41"/>
<path d="M126.966 403.484C125.867 402.661 124.426 402.695 123.327 403.381C124.426 405.164 125.524 406.947 126.725 408.662C127.034 408.456 127.343 408.216 127.584 407.907C128.648 406.501 128.373 404.547 126.966 403.484Z" fill="#2A2B81" fill-opacity="0.41"/>
<path d="M157.651 434.518C159.058 435.581 161.049 435.307 162.079 433.901C163.143 432.495 162.868 430.506 161.461 429.477C160.054 428.414 158.063 428.689 157.033 430.095C156.003 431.501 156.244 433.49 157.651 434.518Z" fill="#2A2B81" fill-opacity="0.41"/>
<path d="M172.753 437.948C171.346 436.885 169.355 437.159 168.325 438.565C168.016 438.976 167.845 439.456 167.776 439.937C169.698 440.622 171.655 441.274 173.645 441.857C174.298 440.52 173.989 438.873 172.787 437.948H172.753Z" fill="#2A2B81" fill-opacity="0.41"/>
<path d="M221.527 441.583C223.518 441 225.44 440.279 227.396 439.559C227.293 438.736 226.881 437.982 226.16 437.433C224.753 436.37 222.762 436.644 221.733 438.05C220.943 439.114 220.909 440.485 221.527 441.583Z" fill="#2A2B81" fill-opacity="0.41"/>
<path d="M156.175 413.051C157.582 414.114 159.539 413.84 160.603 412.434C161.667 411.028 161.392 409.039 159.985 408.01C158.578 406.947 156.587 407.222 155.557 408.628C154.493 410.034 154.802 412.023 156.175 413.051Z" fill="#2A2B81" fill-opacity="0.41"/>
<path d="M177.25 408.559C178.657 409.622 180.648 409.348 181.677 407.942C182.741 406.536 182.467 404.547 181.059 403.518C179.652 402.455 177.661 402.729 176.632 404.135C175.568 405.541 175.842 407.53 177.25 408.559Z" fill="#2A2B81" fill-opacity="0.41"/>
<path d="M135.135 417.544C136.542 418.607 138.533 418.332 139.562 416.926C140.626 415.52 140.352 413.531 138.945 412.503C137.537 411.44 135.546 411.714 134.517 413.12C133.453 414.526 133.727 416.515 135.135 417.544Z" fill="#2A2B81" fill-opacity="0.41"/>
<path d="M146.393 426.048C147.8 427.111 149.791 426.837 150.82 425.431C151.884 424.025 151.61 422.036 150.203 421.007C148.795 419.944 146.805 420.218 145.775 421.624C144.711 423.03 144.985 425.019 146.393 426.048Z" fill="#2A2B81" fill-opacity="0.41"/>
<path d="M121.68 387.058C123.087 388.121 125.078 387.846 126.107 386.44C127.172 385.034 126.897 383.045 125.49 382.017C124.082 380.954 122.092 381.228 121.062 382.634C119.998 384.04 120.273 386.029 121.68 387.058Z" fill="#2A2B81" fill-opacity="0.41"/>
<path d="M167.467 421.522C168.875 422.585 170.865 422.31 171.895 420.904C172.959 419.498 172.685 417.509 171.277 416.481C169.87 415.417 167.914 415.692 166.85 417.098C165.786 418.504 166.06 420.493 167.467 421.522Z" fill="#2A2B81" fill-opacity="0.41"/>
<path d="M190.018 438.496C191.425 439.559 193.381 439.285 194.445 437.879C195.51 436.473 195.235 434.484 193.828 433.455C192.42 432.392 190.43 432.666 189.4 434.072C188.336 435.478 188.645 437.467 190.018 438.496Z" fill="#2A2B81" fill-opacity="0.41"/>
<path d="M260.621 391.721C262.028 392.785 264.019 392.51 265.049 391.104C266.113 389.698 265.838 387.709 264.431 386.68C263.024 385.617 261.033 385.892 260.003 387.298C258.974 388.704 259.214 390.693 260.621 391.721Z" fill="#2A2B81" fill-opacity="0.41"/>
<path d="M229.181 386.543C230.588 387.606 232.579 387.332 233.609 385.926C234.673 384.52 234.398 382.531 232.991 381.502C231.584 380.439 229.593 380.714 228.563 382.12C227.533 383.526 227.774 385.514 229.181 386.543Z" fill="#2A2B81" fill-opacity="0.41"/>
<path d="M240.439 395.048C241.846 396.111 243.837 395.836 244.867 394.43C245.931 393.024 245.656 391.036 244.249 390.007C242.842 388.944 240.851 389.218 239.821 390.624C238.757 392.03 239.032 394.019 240.439 395.048Z" fill="#2A2B81" fill-opacity="0.41"/>
<path d="M142.754 382.565C144.162 383.628 146.152 383.354 147.182 381.948C148.246 380.542 147.972 378.553 146.564 377.524C145.157 376.461 143.166 376.736 142.137 378.142C141.073 379.548 141.347 381.537 142.754 382.565Z" fill="#2A2B81" fill-opacity="0.41"/>
<path d="M249.363 383.251C250.77 384.314 252.761 384.04 253.791 382.634C254.855 381.228 254.58 379.239 253.173 378.21C251.766 377.147 249.775 377.422 248.745 378.828C247.681 380.234 247.956 382.222 249.363 383.251Z" fill="#2A2B81" fill-opacity="0.41"/>
<path d="M279.602 361.304C278.538 362.71 278.813 364.699 280.22 365.728C280.975 366.277 281.867 366.448 282.691 366.311C282.863 364.288 282.966 362.264 283 360.207C281.764 359.864 280.391 360.207 279.568 361.304H279.602Z" fill="#2A2B81" fill-opacity="0.41"/>
<path d="M134.448 352.011C135.512 350.605 135.237 348.616 133.83 347.587C132.423 346.524 130.432 346.799 129.403 348.205C128.339 349.61 128.613 351.565 130.02 352.628C131.428 353.691 133.418 353.417 134.448 352.011Z" fill="#2A2B81" fill-opacity="0.41"/>
<path d="M162.353 356.606C163.76 357.669 165.751 357.395 166.781 355.989C167.845 354.583 167.57 352.594 166.163 351.565C164.756 350.502 162.765 350.776 161.735 352.182C160.671 353.588 160.946 355.577 162.353 356.606Z" fill="#2A2B81" fill-opacity="0.41"/>
<path d="M270.438 378.725C271.845 379.788 273.836 379.513 274.865 378.107C275.929 376.701 275.62 374.712 274.248 373.684C272.84 372.621 270.884 372.895 269.82 374.301C268.756 375.707 269.03 377.696 270.438 378.725Z" fill="#2A2B81" fill-opacity="0.41"/>
<path d="M195.372 361.098C196.779 362.161 198.77 361.887 199.8 360.481C200.864 359.075 200.589 357.086 199.182 356.057C197.775 354.994 195.784 355.269 194.754 356.675C193.69 358.081 193.965 360.07 195.372 361.098Z" fill="#2A2B81" fill-opacity="0.41"/>
<path d="M145.706 360.481C146.77 359.075 146.496 357.086 145.088 356.057C143.681 354.994 141.69 355.269 140.661 356.675C139.597 358.081 139.871 360.07 141.278 361.098C142.686 362.127 144.676 361.887 145.706 360.481Z" fill="#2A2B81" fill-opacity="0.41"/>
<path d="M174.297 365.591C175.705 366.654 177.695 366.379 178.725 364.973C179.789 363.567 179.515 361.579 178.107 360.55C176.7 359.487 174.744 359.761 173.68 361.167C172.616 362.573 172.89 364.562 174.297 365.591Z" fill="#2A2B81" fill-opacity="0.41"/>
<path d="M206.63 369.569C208.038 370.632 210.028 370.357 211.058 368.951C212.122 367.545 211.848 365.556 210.44 364.528C209.033 363.465 207.042 363.739 206.013 365.145C204.949 366.551 205.223 368.54 206.63 369.569Z" fill="#2A2B81" fill-opacity="0.41"/>
<path d="M113.373 356.503C114.437 355.097 114.163 353.108 112.756 352.08C112.344 351.771 111.863 351.599 111.417 351.531C111.245 353.588 111.142 355.646 111.108 357.738C111.966 357.669 112.824 357.258 113.408 356.503H113.373Z" fill="#2A2B81" fill-opacity="0.41"/>
<path d="M251.731 403.518C253.139 404.581 255.095 404.307 256.159 402.901C257.223 401.495 256.948 399.506 255.541 398.477C254.134 397.414 252.143 397.688 251.113 399.094C250.049 400.5 250.324 402.489 251.731 403.518Z" fill="#2A2B81" fill-opacity="0.41"/>
<path d="M219.399 399.54C220.806 400.603 222.797 400.329 223.826 398.923C224.891 397.517 224.616 395.528 223.209 394.499C221.801 393.436 219.811 393.71 218.781 395.116C217.717 396.522 217.992 398.511 219.399 399.54Z" fill="#2A2B81" fill-opacity="0.41"/>
<path d="M271.261 395.768C270.197 397.174 270.472 399.163 271.879 400.192C272.051 400.329 272.257 400.363 272.463 400.466C273.458 398.649 274.316 396.762 275.209 394.876C273.87 394.191 272.222 394.499 271.261 395.734V395.768Z" fill="#2A2B81" fill-opacity="0.41"/>
<path d="M187.066 395.562C188.473 396.625 190.43 396.351 191.494 394.945C192.558 393.539 192.283 391.55 190.876 390.521C189.469 389.458 187.478 389.732 186.448 391.138C185.384 392.544 185.659 394.533 187.066 395.562Z" fill="#2A2B81" fill-opacity="0.41"/>
<path d="M164.515 378.587C165.923 379.651 167.913 379.342 168.943 377.97C170.007 376.564 169.733 374.575 168.325 373.546C166.918 372.483 164.927 372.758 163.898 374.164C162.868 375.57 163.108 377.559 164.515 378.587Z" fill="#2A2B81" fill-opacity="0.41"/>
<path d="M135.924 373.478C136.988 372.072 136.714 370.083 135.306 369.054C133.899 367.991 131.908 368.266 130.879 369.672C129.815 371.078 130.089 373.066 131.496 374.095C132.904 375.158 134.894 374.884 135.924 373.478Z" fill="#2A2B81" fill-opacity="0.41"/>
<path d="M152.571 369.603C153.978 370.666 155.935 370.392 156.999 368.986C158.063 367.58 157.788 365.591 156.381 364.562C154.974 363.499 152.983 363.773 151.953 365.179C150.889 366.585 151.164 368.574 152.571 369.603Z" fill="#2A2B81" fill-opacity="0.41"/>
<path d="M185.556 374.095C186.963 375.158 188.954 374.884 189.983 373.478C191.047 372.072 190.773 370.083 189.366 369.054C187.958 367.991 185.968 368.266 184.938 369.672C183.874 371.078 184.149 373.066 185.556 374.095Z" fill="#2A2B81" fill-opacity="0.41"/>
<path d="M208.106 391.07C209.514 392.133 211.504 391.859 212.534 390.453C213.598 389.047 213.323 387.058 211.916 386.029C210.509 384.966 208.552 385.24 207.488 386.646C206.424 388.052 206.699 390.041 208.106 391.07Z" fill="#2A2B81" fill-opacity="0.41"/>
<path d="M120.204 365.591C121.611 366.654 123.602 366.379 124.632 364.973C125.696 363.567 125.421 361.579 124.014 360.55C122.607 359.487 120.616 359.761 119.586 361.167C118.522 362.573 118.797 364.562 120.204 365.591Z" fill="#2A2B81" fill-opacity="0.41"/>
<path d="M217.923 378.073C219.33 379.136 221.286 378.862 222.35 377.456C223.414 376.05 223.14 374.061 221.733 373.032C220.325 371.969 218.335 372.243 217.305 373.649C216.241 375.055 216.515 377.01 217.923 378.073Z" fill="#2A2B81" fill-opacity="0.41"/>
<path d="M175.774 387.058C177.181 388.121 179.172 387.846 180.201 386.44C181.265 385.034 180.991 383.045 179.583 382.017C178.176 380.954 176.185 381.228 175.156 382.634C174.092 384.04 174.366 385.995 175.774 387.058Z" fill="#2A2B81" fill-opacity="0.41"/>
<path d="M196.848 382.565C198.255 383.628 200.246 383.354 201.276 381.948C202.34 380.542 202.065 378.553 200.658 377.524C199.251 376.461 197.26 376.736 196.23 378.142C195.166 379.548 195.441 381.537 196.848 382.565Z" fill="#2A2B81" fill-opacity="0.41"/>
<path d="M49.9439 625.835C51.2482 626.795 53.0673 626.555 54.0627 625.252C55.0237 623.949 54.7835 622.132 53.4792 621.137C52.1749 620.177 50.3558 620.417 49.3604 621.72C48.3993 623.023 48.6396 624.841 49.9439 625.835Z" fill="#2A2B81" fill-opacity="0.41"/>
<path d="M70.0916 622.132C71.3959 623.092 73.215 622.852 74.2104 621.549C75.1715 620.246 74.9312 618.428 73.6269 617.434C72.3226 616.473 70.5035 616.713 69.5081 618.017C68.547 619.32 68.7873 621.137 70.0916 622.132Z" fill="#2A2B81" fill-opacity="0.41"/>
<path d="M60.9959 634.168C62.3002 635.163 64.1193 634.888 65.1147 633.585C66.0757 632.282 65.8355 630.465 64.5312 629.47C63.2269 628.51 61.4078 628.75 60.4124 630.053C59.4513 631.356 59.6916 633.174 60.9959 634.168Z" fill="#2A2B81" fill-opacity="0.41"/>
<path d="M41.7063 636.774C43.0106 637.735 44.8298 637.495 45.8251 636.191C46.8205 634.888 46.5459 633.071 45.2416 632.076C43.9374 631.116 42.1182 631.356 41.1228 632.659C40.1618 633.962 40.402 635.78 41.7063 636.774Z" fill="#2A2B81" fill-opacity="0.41"/>
<path d="M71.4646 642.021C72.7689 643.016 74.5881 642.741 75.5834 641.438C76.5445 640.135 76.3042 638.318 74.9999 637.323C73.6957 636.363 71.8765 636.603 70.8811 637.906C69.9201 639.209 70.1604 641.027 71.4646 642.021Z" fill="#2A2B81" fill-opacity="0.41"/>
<path d="M89.5874 617.982C90.8917 618.942 92.7109 618.702 93.7062 617.399C94.6673 616.096 94.427 614.279 93.1228 613.284C91.8185 612.324 89.9993 612.564 89.004 613.867C88.0429 615.17 88.2832 616.988 89.5874 617.982Z" fill="#2A2B81" fill-opacity="0.41"/>
<path d="M80.5262 629.985C81.8305 630.945 83.6839 630.705 84.645 629.402C85.6403 628.099 85.3658 626.281 84.0615 625.287C82.7572 624.292 80.9381 624.567 79.9427 625.87C78.9816 627.173 79.2219 628.99 80.5262 629.985Z" fill="#2A2B81" fill-opacity="0.41"/>
<path d="M59.0052 613.799C60.3095 614.759 62.1286 614.519 63.124 613.216C64.085 611.913 63.8448 610.095 62.5405 609.101C61.2362 608.106 59.4171 608.38 58.4217 609.684C57.4606 610.987 57.7009 612.804 59.0052 613.799Z" fill="#2A2B81" fill-opacity="0.41"/>
<path d="M109.117 613.799C110.422 614.793 112.241 614.519 113.236 613.216C114.197 611.913 113.957 610.095 112.653 609.101C111.348 608.14 109.529 608.38 108.534 609.684C107.573 610.987 107.813 612.804 109.117 613.799Z" fill="#2A2B81" fill-opacity="0.41"/>
<path d="M22.7256 601.659C23.6866 600.356 23.4464 598.539 22.1421 597.544C20.8378 596.584 19.0186 596.824 18.0232 598.127C17.0622 599.43 17.3025 601.248 18.6068 602.242C19.9111 603.202 21.7302 602.962 22.7256 601.659Z" fill="#2A2B81" fill-opacity="0.41"/>
<path d="M128.03 605.534C127.069 606.837 127.309 608.655 128.613 609.649C129.78 610.541 131.393 610.369 132.423 609.341C131.428 607.729 130.364 606.151 129.265 604.643C128.785 604.848 128.373 605.088 128.03 605.534Z" fill="#2A2B81" fill-opacity="0.41"/>
<path d="M29.0408 610.095C30.3451 611.055 32.1642 610.815 33.1596 609.512C34.1207 608.209 33.8804 606.391 32.5761 605.397C31.2718 604.437 29.4527 604.677 28.4573 605.98C27.4963 607.283 27.7365 609.101 29.0408 610.095Z" fill="#2A2B81" fill-opacity="0.41"/>
<path d="M48.5708 605.946C49.8751 606.906 51.6943 606.666 52.6896 605.363C53.6507 604.06 53.4104 602.242 52.1062 601.248C50.8019 600.253 48.9827 600.527 47.9873 601.831C47.0263 603.134 47.2666 604.951 48.5708 605.946Z" fill="#2A2B81" fill-opacity="0.41"/>
<path d="M101.395 645.725C102.699 646.685 104.518 646.445 105.514 645.142C106.475 643.839 106.234 642.021 104.93 641.027C103.626 640.032 101.807 640.307 100.811 641.61C99.8503 642.913 100.091 644.73 101.395 645.725Z" fill="#2A2B81" fill-opacity="0.41"/>
<path d="M11.742 633.071C13.0463 634.031 14.8654 633.791 15.8608 632.488C16.8219 631.185 16.5816 629.367 15.2773 628.373C13.973 627.413 12.1539 627.653 11.1585 628.956C10.1974 630.259 10.4377 632.076 11.742 633.071Z" fill="#2A2B81" fill-opacity="0.41"/>
<path d="M31.2376 628.922C32.5419 629.882 34.361 629.642 35.3564 628.339C36.3174 627.035 36.0772 625.218 34.7729 624.224C33.4686 623.263 31.6495 623.503 30.6541 624.806C29.693 626.11 29.9333 627.927 31.2376 628.922Z" fill="#2A2B81" fill-opacity="0.41"/>
<path d="M1.30766 625.218C2.61195 626.178 4.43108 625.938 5.42646 624.635C6.38752 623.332 6.14726 621.515 4.84297 620.52C3.53868 619.56 1.71955 619.8 0.724166 621.103C-0.23689 622.406 0.00336799 624.224 1.30766 625.218Z" fill="#2A2B81" fill-opacity="0.41"/>
<path d="M52.7586 645.108C54.0629 646.068 55.882 645.828 56.8774 644.525C57.8384 643.222 57.5982 641.404 56.2939 640.41C54.9896 639.449 53.1705 639.689 52.1751 640.993C51.214 642.296 51.4543 644.113 52.7586 645.108Z" fill="#2A2B81" fill-opacity="0.41"/>
<path d="M22.1761 640.924C23.4804 641.884 25.2995 641.644 26.2949 640.341C27.2559 639.038 27.0157 637.22 25.7114 636.226C24.4071 635.231 22.588 635.506 21.5926 636.809C20.6315 638.112 20.8718 639.929 22.1761 640.924Z" fill="#2A2B81" fill-opacity="0.41"/>
<path d="M4.01918 604.745C5.01456 603.442 4.73993 601.625 3.43564 600.63C3.36699 600.596 3.33271 600.596 3.26406 600.562C2.02842 602.036 0.895713 603.614 -0.202637 605.191C-0.168313 605.225 -0.133994 605.294 -0.0996706 605.328C1.20462 606.289 3.0238 606.049 4.01918 604.745Z" fill="#2A2B81" fill-opacity="0.41"/>
<path d="M139.871 633.277C138.876 634.58 139.15 636.397 140.455 637.392C141.278 638.009 142.308 638.078 143.235 637.735C142.926 635.849 142.514 633.997 142.068 632.145C141.244 632.179 140.42 632.557 139.906 633.277H139.871Z" fill="#2A2B81" fill-opacity="0.41"/>
<path d="M79.1532 610.095C80.4574 611.055 82.2766 610.815 83.272 609.512C84.233 608.209 83.9928 606.391 82.6885 605.397C81.3842 604.437 79.565 604.677 78.5696 605.98C77.6086 607.283 77.8489 609.101 79.1532 610.095Z" fill="#2A2B81" fill-opacity="0.41"/>
<path d="M131.359 649.429C132.663 650.389 134.482 650.149 135.478 648.846C136.439 647.542 136.199 645.725 134.894 644.73C133.59 643.77 131.771 644.01 130.775 645.313C129.814 646.617 130.055 648.434 131.359 649.429Z" fill="#2A2B81" fill-opacity="0.41"/>
<path d="M14.4877 612.599C15.4488 611.295 15.2085 609.478 13.9042 608.483C12.6 607.489 10.7808 607.763 9.78545 609.066C8.82439 610.37 9.06465 612.187 10.3689 613.181C11.6732 614.142 13.4924 613.902 14.4877 612.599Z" fill="#2A2B81" fill-opacity="0.41"/>
<path d="M20.8033 621.035C22.1076 621.995 23.9267 621.755 24.9221 620.451C25.9175 619.148 25.6429 617.331 24.3386 616.336C23.0343 615.376 21.2151 615.616 20.2198 616.919C19.2587 618.223 19.499 620.04 20.8033 621.035Z" fill="#2A2B81" fill-opacity="0.41"/>
<path d="M39.5096 617.982C40.8139 618.942 42.6331 618.702 43.6284 617.399C44.5895 616.096 44.3492 614.279 43.0449 613.284C41.7406 612.324 39.9215 612.564 38.9261 613.867C37.9308 615.17 38.2053 616.988 39.5096 617.982Z" fill="#2A2B81" fill-opacity="0.41"/>
<path d="M101.429 585.473C102.39 584.17 102.15 582.353 100.846 581.358C99.5414 580.364 97.6879 580.638 96.7269 581.941C95.7658 583.244 96.0061 585.062 97.3103 586.056C98.6146 587.051 100.434 586.776 101.429 585.473Z" fill="#2A2B81" fill-opacity="0.41"/>
<path d="M100.022 625.835C101.326 626.795 103.18 626.555 104.141 625.252C105.102 623.949 104.861 622.132 103.557 621.137C102.253 620.143 100.434 620.417 99.4383 621.72C98.4772 623.023 98.7175 624.841 100.022 625.835Z" fill="#2A2B81" fill-opacity="0.41"/>
<path d="M123.671 621.103C124.632 619.8 124.391 617.982 123.087 616.988C121.783 616.028 119.964 616.268 118.968 617.571C118.007 618.874 118.248 620.691 119.552 621.686C120.856 622.646 122.675 622.406 123.671 621.103Z" fill="#2A2B81" fill-opacity="0.41"/>
<path d="M114.026 628.99C112.722 628.03 110.902 628.27 109.907 629.573C108.946 630.876 109.186 632.694 110.491 633.688C111.795 634.648 113.614 634.408 114.609 633.105C115.57 631.802 115.33 629.985 114.026 628.99Z" fill="#2A2B81" fill-opacity="0.41"/>
<path d="M120.925 641.541C122.229 642.501 124.048 642.261 125.044 640.958C126.005 639.655 125.764 637.838 124.46 636.843C123.156 635.883 121.337 636.123 120.341 637.426C119.38 638.729 119.621 640.547 120.925 641.541Z" fill="#2A2B81" fill-opacity="0.41"/>
<path d="M12.291 593.806C12.9089 592.983 12.9775 591.955 12.6686 591.063C11.33 592.229 9.9914 593.395 8.72144 594.629C9.95708 595.212 11.433 594.938 12.291 593.806Z" fill="#2A2B81" fill-opacity="0.41"/>
<path d="M129.986 629.539C131.29 630.533 133.144 630.259 134.105 628.956C135.066 627.653 134.826 625.835 133.521 624.841C132.217 623.881 130.398 624.121 129.403 625.424C128.442 626.727 128.682 628.544 129.986 629.539Z" fill="#2A2B81" fill-opacity="0.41"/>
<path d="M129.403 695.449C128.098 694.489 126.245 694.729 125.284 696.032C124.323 697.335 124.563 699.152 125.867 700.147C126.279 700.455 126.725 700.593 127.172 700.661C128.236 699.324 129.265 697.952 130.261 696.546C130.055 696.135 129.814 695.757 129.403 695.449Z" fill="#2A2B81" fill-opacity="0.41"/>
<path d="M98.6831 605.946C99.9874 606.906 101.807 606.666 102.802 605.363C103.763 604.06 103.523 602.242 102.218 601.248C100.914 600.287 99.095 600.528 98.0997 601.831C97.1386 603.134 97.3789 604.951 98.6831 605.946Z" fill="#2A2B81" fill-opacity="0.41"/>
<path d="M60.9273 571.791C59.0052 571.893 57.0831 571.996 55.1953 572.236C55.3326 572.922 55.6759 573.574 56.2937 574.02C57.598 575.014 59.4171 574.74 60.4125 573.437C60.79 572.956 60.9274 572.373 60.9617 571.791H60.9273Z" fill="#2A2B81" fill-opacity="0.41"/>
<path d="M109.873 699.598C108.568 698.638 106.749 698.878 105.754 700.181C104.793 701.484 105.033 703.302 106.337 704.296C107.641 705.256 109.461 705.016 110.456 703.713C111.417 702.41 111.177 700.593 109.873 699.598Z" fill="#2A2B81" fill-opacity="0.41"/>
<path d="M95.8687 653.063C94.5644 652.103 92.7452 652.343 91.7499 653.646C90.7545 654.949 91.0291 656.767 92.3334 657.761C93.6377 658.756 95.4911 658.481 96.4522 657.178C97.4132 655.875 97.173 654.058 95.8687 653.063Z" fill="#2A2B81" fill-opacity="0.41"/>
<path d="M115.364 648.914C114.06 647.954 112.241 648.194 111.245 649.497C110.284 650.8 110.525 652.618 111.829 653.612C113.133 654.572 114.952 654.332 115.948 653.029C116.909 651.726 116.668 649.909 115.364 648.914Z" fill="#2A2B81" fill-opacity="0.41"/>
<path d="M122.298 661.431C123.602 662.391 125.455 662.151 126.416 660.848C127.378 659.545 127.137 657.727 125.833 656.733C124.529 655.772 122.71 656.013 121.714 657.316C120.753 658.619 120.993 660.436 122.298 661.431Z" fill="#2A2B81" fill-opacity="0.41"/>
<path d="M94.4956 633.174C93.1913 632.214 91.3378 632.454 90.3768 633.757C89.4157 635.06 89.656 636.877 90.9602 637.872C92.2645 638.832 94.0837 638.592 95.0791 637.289C96.0402 635.986 95.7998 634.168 94.4956 633.174Z" fill="#2A2B81" fill-opacity="0.41"/>
<path d="M40.8824 577.62C41.4316 576.866 41.5689 575.974 41.3286 575.117C39.4752 575.7 37.6903 576.386 35.9055 577.072C36.1115 577.483 36.3517 577.895 36.7636 578.203C38.0679 579.163 39.887 578.923 40.8824 577.62Z" fill="#2A2B81" fill-opacity="0.41"/>
<path d="M118.179 601.762C119.483 602.757 121.302 602.482 122.298 601.179C123.259 599.876 123.018 598.058 121.714 597.064C120.41 596.07 118.591 596.344 117.595 597.647C116.634 598.95 116.874 600.768 118.179 601.762Z" fill="#2A2B81" fill-opacity="0.41"/>
<path d="M88.2144 598.093C89.5187 599.053 91.3722 598.813 92.3332 597.51C93.2943 596.207 93.054 594.389 91.7497 593.395C90.4454 592.435 88.6263 592.675 87.6309 593.978C86.6698 595.281 86.9101 597.098 88.2144 598.093Z" fill="#2A2B81" fill-opacity="0.41"/>
<path d="M38.1366 598.093C39.4409 599.053 41.2601 598.813 42.2554 597.51C43.2165 596.207 42.9762 594.389 41.6719 593.395C40.3676 592.4 38.5485 592.675 37.5531 593.978C36.5577 595.281 36.8323 597.098 38.1366 598.093Z" fill="#2A2B81" fill-opacity="0.41"/>
<path d="M68.1009 601.762C69.4052 602.756 71.2243 602.482 72.2197 601.179C73.2151 599.876 72.9405 598.058 71.6362 597.064C70.3319 596.104 68.5128 596.344 67.5174 597.647C66.5563 598.95 66.7966 600.768 68.1009 601.762Z" fill="#2A2B81" fill-opacity="0.41"/>
<path d="M57.6324 593.909C58.9367 594.869 60.7558 594.629 61.7512 593.326C62.7465 592.023 62.472 590.206 61.1677 589.211C59.8634 588.251 58.0443 588.491 57.0489 589.794C56.0878 591.097 56.3281 592.915 57.6324 593.909Z" fill="#2A2B81" fill-opacity="0.41"/>
<path d="M77.1624 589.726C78.4667 590.72 80.2858 590.446 81.2812 589.143C82.2423 587.839 82.002 586.022 80.6977 585.027C79.3934 584.067 77.5743 584.307 76.5789 585.61C75.6178 586.914 75.8581 588.731 77.1624 589.726Z" fill="#2A2B81" fill-opacity="0.41"/>
<path d="M107.744 593.909C109.049 594.869 110.868 594.629 111.863 593.326C112.824 592.023 112.584 590.206 111.28 589.211C109.975 588.251 108.156 588.491 107.161 589.794C106.2 591.097 106.44 592.915 107.744 593.909Z" fill="#2A2B81" fill-opacity="0.41"/>
<path d="M86.2239 577.723C87.5282 578.683 89.3473 578.443 90.3427 577.14C90.583 576.797 90.7546 576.454 90.8576 576.077C89.0384 575.46 87.185 574.877 85.2972 574.397C84.851 575.563 85.1942 576.934 86.2582 577.723H86.2239Z" fill="#2A2B81" fill-opacity="0.41"/>
<path d="M81.899 649.874C83.2033 650.869 85.0568 650.594 86.0178 649.291C86.9789 647.988 86.7386 646.171 85.4343 645.176C84.13 644.216 82.3109 644.456 81.3155 645.759C80.3544 647.062 80.5947 648.88 81.899 649.874Z" fill="#2A2B81" fill-opacity="0.41"/>
<path d="M66.7281 581.872C68.0324 582.833 69.8515 582.593 70.8469 581.29C71.8079 579.986 71.5677 578.169 70.2634 577.174C68.9591 576.214 67.14 576.454 66.1446 577.757C65.1835 579.061 65.4238 580.878 66.7281 581.872Z" fill="#2A2B81" fill-opacity="0.41"/>
<path d="M27.7024 590.206C29.0067 591.166 30.8259 590.926 31.8212 589.623C32.7823 588.319 32.542 586.502 31.2377 585.508C29.9335 584.513 28.1143 584.787 27.1189 586.09C26.1579 587.394 26.3981 589.211 27.7024 590.206Z" fill="#2A2B81" fill-opacity="0.41"/>
<path d="M47.198 586.056C48.5023 587.016 50.3215 586.776 51.3169 585.473C52.2779 584.17 52.0376 582.353 50.7333 581.358C49.4291 580.398 47.6099 580.638 46.6145 581.941C45.6535 583.244 45.8937 585.062 47.198 586.056Z" fill="#2A2B81" fill-opacity="0.41"/>
<path d="M102.768 665.614C104.072 666.575 105.891 666.335 106.886 665.031C107.847 663.728 107.607 661.911 106.303 660.916C104.999 659.956 103.145 660.196 102.184 661.499C101.223 662.802 101.463 664.62 102.768 665.614Z" fill="#2A2B81" fill-opacity="0.41"/>
<path d="M67.3116 712.629C68.6159 713.589 70.435 713.349 71.4304 712.046C72.4258 710.743 72.1512 708.926 70.8469 707.931C69.5426 706.937 67.7235 707.211 66.7281 708.514C65.767 709.817 66.0073 711.635 67.3116 712.629Z" fill="#2A2B81" fill-opacity="0.41"/>
<path d="M56.8772 704.776C58.1815 705.736 60.0007 705.496 60.996 704.193C61.9914 702.89 61.7168 701.073 60.4125 700.078C59.1083 699.118 57.2891 699.358 56.2937 700.661C55.3327 701.964 55.5729 703.782 56.8772 704.776Z" fill="#2A2B81" fill-opacity="0.41"/>
<path d="M86.8072 708.48C88.1115 709.474 89.9649 709.2 90.926 707.897C91.887 706.594 91.6468 704.776 90.3425 703.782C89.0382 702.822 87.2191 703.062 86.2237 704.365C85.2626 705.668 85.5029 707.485 86.8072 708.48Z" fill="#2A2B81" fill-opacity="0.41"/>
<path d="M97.2759 716.333C98.5802 717.327 100.399 717.053 101.395 715.75C102.356 714.447 102.116 712.629 100.811 711.635C99.5069 710.675 97.6535 710.915 96.6924 712.218C95.7314 713.521 95.9716 715.338 97.2759 716.333Z" fill="#2A2B81" fill-opacity="0.41"/>
<path d="M77.7459 720.482C79.0502 721.442 80.8693 721.202 81.8647 719.899C82.8257 718.596 82.5855 716.779 81.2812 715.784C79.9769 714.824 78.1235 715.064 77.1624 716.367C76.2013 717.67 76.4416 719.488 77.7459 720.482Z" fill="#2A2B81" fill-opacity="0.41"/>
<path d="M120.307 707.485C119.003 706.525 117.184 706.765 116.188 708.068C115.33 709.2 115.467 710.743 116.394 711.772C117.87 710.537 119.277 709.234 120.65 707.897C120.513 707.76 120.444 707.588 120.273 707.485H120.307Z" fill="#2A2B81" fill-opacity="0.41"/>
<path d="M5.39213 684.887C6.69642 685.847 8.51555 685.607 9.51093 684.304C10.472 683.001 10.2317 681.183 8.92744 680.189C7.62315 679.229 5.80402 679.469 4.80864 680.772C3.84758 682.075 4.08784 683.892 5.39213 684.887Z" fill="#2A2B81" fill-opacity="0.41"/>
<path d="M35.9742 689.036C37.2785 689.996 39.0976 689.756 40.093 688.453C41.054 687.15 40.8138 685.332 39.5095 684.338C38.2052 683.343 36.386 683.618 35.3907 684.921C34.4296 686.224 34.6699 688.042 35.9742 689.036Z" fill="#2A2B81" fill-opacity="0.41"/>
<path d="M25.5398 681.183C26.8441 682.143 28.6633 681.903 29.6586 680.6C30.6197 679.297 30.3794 677.48 29.0751 676.485C27.7709 675.491 25.9517 675.765 24.9563 677.068C23.9953 678.371 24.2355 680.189 25.5398 681.183Z" fill="#2A2B81" fill-opacity="0.41"/>
<path d="M65.9385 692.74C67.2428 693.7 69.0619 693.46 70.0573 692.157C71.0184 690.853 70.7781 689.036 69.4738 688.042C68.1695 687.081 66.3504 687.321 65.355 688.624C64.394 689.928 64.6342 691.745 65.9385 692.74Z" fill="#2A2B81" fill-opacity="0.41"/>
<path d="M76.3728 700.593C77.6771 701.587 79.4963 701.313 80.4917 700.01C81.4528 698.707 81.2124 696.889 79.9082 695.895C78.6039 694.934 76.7847 695.174 75.7894 696.478C74.8283 697.781 75.0686 699.598 76.3728 700.593Z" fill="#2A2B81" fill-opacity="0.41"/>
<path d="M95.9031 696.443C97.2074 697.404 99.0265 697.164 100.022 695.86C100.983 694.557 100.743 692.74 99.4384 691.745C98.1341 690.785 96.315 691.025 95.3196 692.328C94.3586 693.631 94.5988 695.449 95.9031 696.443Z" fill="#2A2B81" fill-opacity="0.41"/>
<path d="M47.7816 716.813C49.0859 717.807 50.905 717.533 51.9004 716.23C52.8614 714.927 52.6212 713.109 51.3169 712.115C50.0126 711.155 48.1934 711.395 47.198 712.698C46.237 714.001 46.4773 715.818 47.7816 716.813Z" fill="#2A2B81" fill-opacity="0.41"/>
<path d="M20.5629 692.637C21.524 691.334 21.2837 689.516 19.9794 688.522C18.6752 687.562 16.856 687.802 15.8606 689.105C14.8996 690.408 15.1398 692.225 16.4441 693.22C17.7484 694.214 19.5676 693.94 20.5629 692.637Z" fill="#2A2B81" fill-opacity="0.41"/>
<path d="M67.5518 730.701C69.4739 730.633 71.396 730.564 73.3181 730.358C73.3868 729.398 73.0092 728.472 72.2198 727.855C70.9155 726.895 69.0964 727.135 68.101 728.438C67.5861 729.124 67.4488 729.947 67.5861 730.701H67.5518Z" fill="#2A2B81" fill-opacity="0.41"/>
<path d="M-0.133877 692.225C-1.16358 691.471 -2.50218 691.471 -3.49756 692.123C-2.50218 693.803 -1.47248 695.415 -0.339809 697.026C-0.0652218 696.855 0.209351 696.615 0.449615 696.34C1.41067 695.037 1.17041 693.22 -0.133877 692.225Z" fill="#2A2B81" fill-opacity="0.41"/>
<path d="M28.2859 720.962C29.5902 721.922 31.4094 721.682 32.4047 720.379C33.3658 719.076 33.1255 717.259 31.8212 716.264C30.5169 715.304 28.6978 715.544 27.7024 716.847C26.7414 718.15 26.9816 719.968 28.2859 720.962Z" fill="#2A2B81" fill-opacity="0.41"/>
<path d="M42.2555 724.151C40.9512 723.191 39.132 723.431 38.1367 724.734C37.8277 725.112 37.6905 725.557 37.6218 726.003C39.4066 726.655 41.2258 727.272 43.0449 727.786C43.6628 726.552 43.3882 725.009 42.2212 724.151H42.2555Z" fill="#2A2B81" fill-opacity="0.41"/>
<path d="M87.4251 727.512C89.2785 726.963 91.0634 726.312 92.8482 725.626C92.7452 724.872 92.3676 724.151 91.7155 723.671C90.4112 722.711 88.5921 722.951 87.5967 724.254C86.8416 725.249 86.8416 726.518 87.4251 727.512Z" fill="#2A2B81" fill-opacity="0.41"/>
<path d="M26.9129 701.073C28.2172 702.067 30.0363 701.793 31.0317 700.49C31.9927 699.187 31.7525 697.369 30.4482 696.375C29.1439 695.415 27.3248 695.655 26.3294 696.958C25.3683 698.261 25.6086 700.078 26.9129 701.073Z" fill="#2A2B81" fill-opacity="0.41"/>
<path d="M46.4085 696.923C47.7128 697.884 49.5319 697.644 50.5273 696.34C51.4883 695.037 51.2481 693.22 49.9438 692.225C48.6395 691.231 46.8204 691.505 45.825 692.808C44.8639 694.111 45.1042 695.929 46.4085 696.923Z" fill="#2A2B81" fill-opacity="0.41"/>
<path d="M7.38285 705.256C8.68714 706.217 10.5063 705.977 11.5017 704.674C12.4627 703.37 12.2225 701.553 10.9182 700.558C9.61387 699.564 7.79474 699.838 6.79936 701.141C5.83831 702.445 6.07856 704.262 7.38285 705.256Z" fill="#2A2B81" fill-opacity="0.41"/>
<path d="M17.8172 713.109C19.1215 714.069 20.9406 713.829 21.936 712.526C22.897 711.223 22.6568 709.406 21.3525 708.411C20.0482 707.451 18.2291 707.691 17.2337 708.994C16.2726 710.297 16.5129 712.115 17.8172 713.109Z" fill="#2A2B81" fill-opacity="0.41"/>
<path d="M-5.0422 677.034C-3.7379 677.994 -1.91872 677.754 -0.923342 676.451C0.037714 675.148 -0.202544 673.33 -1.50683 672.336C-2.81112 671.376 -4.63031 671.616 -5.62569 672.919C-6.58674 674.222 -6.34649 676.039 -5.0422 677.034Z" fill="#2A2B81" fill-opacity="0.41"/>
<path d="M37.3472 708.926C38.6515 709.92 40.4706 709.646 41.466 708.343C42.4271 707.04 42.1868 705.222 40.8825 704.228C39.5782 703.267 37.7591 703.507 36.7637 704.811C35.8027 706.114 36.0429 707.931 37.3472 708.926Z" fill="#2A2B81" fill-opacity="0.41"/>
<path d="M58.2159 724.666C59.5202 725.626 61.3393 725.386 62.3347 724.083C63.2957 722.78 63.0555 720.962 61.7512 719.968C60.4469 719.008 58.6277 719.248 57.6324 720.551C56.6713 721.854 56.9116 723.671 58.2159 724.666Z" fill="#2A2B81" fill-opacity="0.41"/>
<path d="M123.671 681.32C124.975 682.281 126.794 682.04 127.79 680.737C128.751 679.434 128.51 677.617 127.206 676.622C125.902 675.662 124.083 675.902 123.087 677.205C122.126 678.508 122.366 680.326 123.671 681.32Z" fill="#2A2B81" fill-opacity="0.41"/>
<path d="M94.5301 676.554C95.8344 677.514 97.6535 677.274 98.6489 675.971C99.6099 674.668 99.3697 672.85 98.0654 671.856C96.7611 670.895 94.942 671.135 93.9466 672.439C92.9855 673.742 93.2258 675.559 94.5301 676.554Z" fill="#2A2B81" fill-opacity="0.41"/>
<path d="M104.964 684.407C106.269 685.367 108.122 685.127 109.083 683.824C110.044 682.52 109.804 680.703 108.5 679.708C107.195 678.748 105.376 678.988 104.381 680.291C103.42 681.595 103.66 683.412 104.964 684.407Z" fill="#2A2B81" fill-opacity="0.41"/>
<path d="M14.4534 672.85C15.7577 673.81 17.5768 673.57 18.5722 672.267C19.5333 670.964 19.293 669.147 17.9887 668.152C16.6844 667.158 14.8653 667.432 13.8699 668.735C12.9089 670.038 13.1491 671.856 14.4534 672.85Z" fill="#2A2B81" fill-opacity="0.41"/>
<path d="M113.202 673.467C114.506 674.462 116.325 674.187 117.321 672.884C118.282 671.581 118.042 669.764 116.737 668.769C115.433 667.809 113.614 668.049 112.618 669.352C111.657 670.655 111.898 672.473 113.202 673.467Z" fill="#2A2B81" fill-opacity="0.41"/>
<path d="M141.21 653.166C140.249 654.469 140.489 656.287 141.793 657.281C142.48 657.796 143.304 657.933 144.093 657.796C144.23 655.91 144.368 654.058 144.368 652.137C143.235 651.794 141.965 652.137 141.21 653.166Z" fill="#2A2B81" fill-opacity="0.41"/>
<path d="M6.76508 644.525C7.76046 643.222 7.48588 641.404 6.18159 640.41C4.8773 639.449 3.05817 639.689 2.06279 640.993C1.10173 642.296 1.34199 644.113 2.64628 645.108C3.95057 646.068 5.7697 645.828 6.76508 644.525Z" fill="#2A2B81" fill-opacity="0.41"/>
<path d="M32.6106 648.811C33.9149 649.771 35.7341 649.531 36.7295 648.228C37.6905 646.925 37.4502 645.108 36.1459 644.113C34.8417 643.153 33.0225 643.393 32.0271 644.696C31.0661 645.999 31.3063 647.817 32.6106 648.811Z" fill="#2A2B81" fill-opacity="0.41"/>
<path d="M132.732 669.318C134.036 670.278 135.855 670.038 136.851 668.735C137.812 667.432 137.572 665.614 136.267 664.62C134.963 663.66 133.11 663.9 132.148 665.203C131.187 666.506 131.428 668.323 132.732 669.318Z" fill="#2A2B81" fill-opacity="0.41"/>
<path d="M63.1927 652.961C64.497 653.921 66.3161 653.681 67.3115 652.378C68.2725 651.074 68.0323 649.257 66.728 648.262C65.4237 647.302 63.6046 647.542 62.6092 648.845C61.6481 650.149 61.8884 651.966 63.1927 652.961Z" fill="#2A2B81" fill-opacity="0.41"/>
<path d="M17.1994 652.378C18.1605 651.074 17.9202 649.257 16.616 648.262C15.3117 647.302 13.4925 647.542 12.4971 648.845C11.536 650.149 11.7764 651.966 13.0806 652.961C14.3849 653.921 16.2041 653.681 17.1994 652.378Z" fill="#2A2B81" fill-opacity="0.41"/>
<path d="M43.6971 657.144C45.0014 658.104 46.8206 657.864 47.8159 656.561C48.777 655.258 48.5367 653.441 47.2324 652.446C45.9281 651.486 44.109 651.726 43.1136 653.029C42.1183 654.332 42.3928 656.15 43.6971 657.144Z" fill="#2A2B81" fill-opacity="0.41"/>
<path d="M73.627 660.814C74.9313 661.774 76.7848 661.534 77.7458 660.231C78.7069 658.927 78.4666 657.11 77.1623 656.115C75.858 655.155 74.0045 655.395 73.0435 656.698C72.0824 658.002 72.3227 659.819 73.627 660.814Z" fill="#2A2B81" fill-opacity="0.41"/>
<path d="M115.399 692.26C116.703 693.22 118.522 692.98 119.518 691.677C120.513 690.373 120.238 688.556 118.934 687.562C117.63 686.601 115.776 686.841 114.815 688.144C113.854 689.448 114.094 691.265 115.399 692.26Z" fill="#2A2B81" fill-opacity="0.41"/>
<path d="M85.4344 688.59C86.7387 689.551 88.5578 689.311 89.5532 688.007C90.5143 686.704 90.274 684.887 88.9697 683.892C87.6654 682.932 85.8119 683.172 84.8509 684.475C83.8898 685.778 84.1301 687.596 85.4344 688.59Z" fill="#2A2B81" fill-opacity="0.41"/>
<path d="M133.521 685.093C132.56 686.396 132.8 688.213 134.105 689.208C134.276 689.345 134.482 689.379 134.654 689.482C135.581 687.802 136.37 686.053 137.194 684.304C135.958 683.687 134.414 683.961 133.556 685.093H133.521Z" fill="#2A2B81" fill-opacity="0.41"/>
<path d="M55.5042 684.887C56.8085 685.881 58.6276 685.607 59.623 684.304C60.5841 683.001 60.3438 681.183 59.0395 680.189C57.7352 679.229 55.9161 679.469 54.9207 680.772C53.9596 682.075 54.1999 683.892 55.5042 684.887Z" fill="#2A2B81" fill-opacity="0.41"/>
<path d="M34.6014 669.147C35.9056 670.141 37.7248 669.867 38.7202 668.564C39.6812 667.261 39.441 665.443 38.1367 664.448C36.8324 663.488 35.0132 663.728 34.0179 665.031C33.0568 666.335 33.2971 668.152 34.6014 669.147Z" fill="#2A2B81" fill-opacity="0.41"/>
<path d="M8.13792 664.414C9.09897 663.111 8.85872 661.294 7.55443 660.299C6.25014 659.305 4.43095 659.579 3.43557 660.882C2.47452 662.185 2.71483 664.003 4.01912 664.997C5.32341 665.957 7.14254 665.717 8.13792 664.414Z" fill="#2A2B81" fill-opacity="0.41"/>
<path d="M23.5491 660.814C24.8534 661.774 26.6726 661.534 27.668 660.231C28.6633 658.927 28.3887 657.11 27.0844 656.115C25.7801 655.155 23.961 655.395 22.9656 656.698C22.0046 658.002 22.2448 659.819 23.5491 660.814Z" fill="#2A2B81" fill-opacity="0.41"/>
<path d="M54.1314 664.997C55.4357 665.957 57.2548 665.717 58.2502 664.414C59.2456 663.111 58.971 661.294 57.6667 660.299C56.3624 659.339 54.5433 659.579 53.5479 660.882C52.5868 662.185 52.8271 664.003 54.1314 664.997Z" fill="#2A2B81" fill-opacity="0.41"/>
<path d="M74.9999 680.703C76.3042 681.663 78.1233 681.423 79.1187 680.12C80.0797 678.817 79.8395 676.999 78.5352 676.005C77.2309 675.045 75.4118 675.285 74.4164 676.588C73.421 677.891 73.6956 679.709 74.9999 680.703Z" fill="#2A2B81" fill-opacity="0.41"/>
<path d="M84.0957 668.701C85.4 669.661 87.2192 669.421 88.2146 668.118C89.1757 666.815 88.9353 664.997 87.6311 664.003C86.3268 663.043 84.5076 663.283 83.5123 664.586C82.5512 665.889 82.7915 667.706 84.0957 668.701Z" fill="#2A2B81" fill-opacity="0.41"/>
<path d="M45.0699 677.034C46.3742 677.994 48.1933 677.754 49.1887 676.451C50.1497 675.148 49.9095 673.33 48.6052 672.336C47.3009 671.376 45.4818 671.616 44.4864 672.919C43.5253 674.222 43.7656 676.039 45.0699 677.034Z" fill="#2A2B81" fill-opacity="0.41"/>
<path d="M64.5657 672.85C65.87 673.81 67.6892 673.57 68.6845 672.267C69.6456 670.964 69.4053 669.146 68.1011 668.152C66.7968 667.192 64.9776 667.432 63.9822 668.735C63.0211 670.038 63.2615 671.856 64.5657 672.85Z" fill="#2A2B81" fill-opacity="0.41"/>
<path d="M-2.19353 172.148C-2.91432 173.108 -2.70835 174.445 -1.78161 175.165C-1.26676 175.543 -0.683298 175.645 -0.0998001 175.543C0.00317025 174.171 0.106132 172.799 0.106132 171.393C-0.71763 171.153 -1.64434 171.393 -2.22784 172.148H-2.19353Z" fill="#2A2B81" fill-opacity="0.41"/>
<path d="M18.4692 468.296C36.9696 468.296 51.9346 483.282 51.9346 501.731C51.9346 520.181 36.9353 535.166 18.4692 535.166C0.0032444 535.166 -14.9961 520.181 -14.9961 501.731C-14.9961 483.282 0.0032444 468.296 18.4692 468.296Z" fill="#2A2B81" fill-opacity="0.41"/>
</g>
<defs>
<clipPath id="clip0_171094_439">
<rect width="728" height="730.701" fill="white" transform="translate(-445)"/>
</clipPath>
</defs>
</svg>
