<svg width="824" height="599" viewBox="0 0 824 599" fill="none" xmlns="http://www.w3.org/2000/svg">
<g clip-path="url(#clip0_171403_3224)">
<path d="M414.479 22.5422C346.342 22.5422 290.896 78.0392 290.896 146.238C290.896 214.436 346.342 269.933 414.479 269.933C470.726 269.933 519.942 231.943 534.061 177.533C536.691 167.407 538.062 156.879 538.062 146.238C538.062 78.0392 482.616 22.5422 414.479 22.5422ZM414.479 281.09C340.169 281.09 279.749 220.558 279.749 146.238C279.749 71.9174 340.169 11.3284 414.479 11.3284C488.789 11.3284 549.209 71.8602 549.209 146.18C549.209 157.738 547.723 169.18 544.865 180.28C529.431 239.61 475.813 281.033 414.479 281.033V281.09Z" fill="white" fill-opacity="0.11"/>
<path d="M417.852 57.614C369.036 55.726 327.822 93.9446 325.936 142.805C324.049 191.665 362.233 232.916 411.049 234.804C459.865 236.692 501.079 198.474 502.965 149.613C504.852 100.753 466.668 59.5021 417.852 57.614ZM410.478 250.137C353.202 247.906 308.387 199.503 310.616 142.175C312.846 84.8476 361.204 40.0495 418.48 42.2236C475.756 44.4549 520.571 92.8575 518.342 150.185C516.112 207.513 467.754 252.369 410.478 250.137Z" fill="white" fill-opacity="0.11"/>
<path d="M199.894 299.284C139.703 299.284 90.7154 348.316 90.7154 408.619C90.7154 468.921 139.703 517.896 199.894 517.896C249.625 517.896 293.068 484.312 305.586 436.195C307.93 427.213 309.13 417.944 309.13 408.561C309.13 348.316 260.142 299.226 199.951 299.226L199.894 299.284ZM199.894 528.71C133.701 528.71 79.8547 474.814 79.8547 408.561C79.8547 342.308 133.701 288.413 199.894 288.413C266.087 288.413 319.934 342.308 319.934 408.561C319.934 418.86 318.619 429.044 316.047 438.942C302.271 491.807 254.541 528.71 199.894 528.71Z" fill="white" fill-opacity="0.11"/>
<path d="M236.306 279.316C210.012 279.144 188.748 257.518 188.919 231.2C189.148 204.881 210.698 183.598 236.992 183.77C263.286 183.941 284.551 205.568 284.379 231.886C284.208 258.204 262.6 279.488 236.306 279.316Z" fill="white" fill-opacity="0.11"/>
<path d="M91.6301 712.594C42.6426 712.25 3.02963 672.029 3.42976 622.997C3.77274 573.965 43.9573 534.374 92.9448 534.717C141.932 535.06 181.488 575.281 181.145 624.313C180.802 673.345 140.618 712.937 91.6301 712.594Z" fill="white" fill-opacity="0.11"/>
<path d="M400.932 338.646C400.932 358.27 385.041 374.176 365.434 374.176C345.828 374.176 329.937 358.27 329.937 338.646C329.937 319.022 345.828 303.117 365.434 303.117C385.041 303.117 400.932 319.022 400.932 338.646Z" fill="white" fill-opacity="0.11"/>
<path d="M836.618 68.084C836.618 105.673 806.151 136.168 768.595 136.168C731.04 136.168 700.573 105.673 700.573 68.084C700.573 30.4948 731.04 0 768.595 0C806.151 0 836.618 30.4948 836.618 68.084Z" fill="white" fill-opacity="0.11"/>
<path d="M386.012 643.537C386.012 668.939 365.434 689.479 340.112 689.479C314.789 689.479 294.211 668.882 294.211 643.537C294.211 618.191 314.789 597.594 340.112 597.594C365.434 597.594 386.012 618.191 386.012 643.537Z" fill="white" fill-opacity="0.11"/>
<path d="M631.407 385.504C536.862 385.504 459.98 462.456 459.98 557.087C459.98 651.718 536.862 728.671 631.407 728.671C725.953 728.671 802.835 651.718 802.835 557.087C802.835 462.456 725.953 385.504 631.407 385.504ZM631.407 748.409C526.001 748.409 440.259 662.589 440.259 557.087C440.259 451.586 526.001 365.766 631.407 365.766C736.813 365.766 822.556 451.586 822.556 557.087C822.556 662.589 736.813 748.409 631.407 748.409Z" fill="white" fill-opacity="0.11"/>
<path d="M194.385 380.239L191.209 374.025L169.428 385.176L172.604 391.39L194.385 380.239Z" fill="white" fill-opacity="0.11"/>
<path d="M204.974 389.847L199.114 386.064L185.854 406.643L191.714 410.426L204.974 389.847Z" fill="white" fill-opacity="0.11"/>
<path d="M218.924 392.876L211.959 392.524L210.726 416.98L217.691 417.332L218.924 392.876Z" fill="white" fill-opacity="0.11"/>
<path d="M243.684 410.142L232.535 388.345L226.328 391.526L237.476 413.323L243.684 410.142Z" fill="white" fill-opacity="0.11"/>
<path d="M262.831 391.041L242.287 377.744L238.5 383.605L259.044 396.902L262.831 391.041Z" fill="white" fill-opacity="0.11"/>
<path d="M269.82 364.944L245.385 363.709L245.034 370.68L269.468 371.915L269.82 364.944Z" fill="white" fill-opacity="0.11"/>
<path d="M265.773 345.091L262.596 338.877L240.817 350.032L243.994 356.246L265.773 345.091Z" fill="white" fill-opacity="0.11"/>
<path d="M249.321 323.647L243.461 319.864L230.201 340.442L236.061 344.226L249.321 323.647Z" fill="white" fill-opacity="0.11"/>
<path d="M224.402 313.277L217.437 312.931L216.225 337.388L223.19 337.734L224.402 313.277Z" fill="white" fill-opacity="0.11"/>
<path d="M208.716 338.612L197.567 316.815L191.36 319.996L202.509 341.793L208.716 338.612Z" fill="white" fill-opacity="0.11"/>
<path d="M196.596 346.564L176.052 333.267L172.265 339.128L192.809 352.426L196.596 346.564Z" fill="white" fill-opacity="0.11"/>
<path d="M190.332 359.536L165.897 358.31L165.548 365.281L189.983 366.507L190.332 359.536Z" fill="white" fill-opacity="0.11"/>
<path d="M215.597 465.623L213.441 458.028L200.739 461.64L202.895 469.235L215.597 465.623Z" fill="white" fill-opacity="0.11"/>
<path d="M228.684 473.431L221.089 471.522L217.872 484.34L225.467 486.25L228.684 473.431Z" fill="white" fill-opacity="0.11"/>
<path d="M251.543 475.054L242.103 465.895L236.612 471.564L246.052 480.723L251.543 475.054Z" fill="white" fill-opacity="0.11"/>
<path d="M257.074 454.577L254.919 446.982L242.272 450.579L244.428 458.174L257.074 454.577Z" fill="white" fill-opacity="0.11"/>
<path d="M239.978 431.911L232.383 430.001L229.167 442.82L236.762 444.729L239.978 431.911Z" fill="white" fill-opacity="0.11"/>
<path d="M221.237 444.615L211.801 435.452L206.308 441.119L215.745 450.282L221.237 444.615Z" fill="white" fill-opacity="0.11"/>
<path d="M247.91 572.478C264.544 580.431 273.919 593.189 279.12 603.659C287.123 586.953 299.756 577.513 310.216 572.249C293.525 564.354 284.093 551.595 278.892 540.953C271.003 557.774 258.599 567.214 247.91 572.421V572.478ZM279.177 628.604C279.177 628.604 279.063 628.604 278.949 628.604C275.976 628.49 273.576 626.316 273.118 623.398C272.89 621.91 267.345 586.381 227.503 578.543C224.645 577.97 222.587 575.453 222.587 572.535C222.587 569.617 225.217 566.985 228.075 566.471C239.164 564.411 265.687 555.714 272.833 520.585C273.404 517.667 275.805 515.722 279.006 515.722C281.978 515.837 284.436 518.011 284.836 520.986C285.065 522.531 290.61 558.518 330.623 566.127C333.538 566.699 335.653 569.274 335.596 572.306C335.482 575.281 333.252 577.799 330.28 578.142C328.794 578.371 293.697 583.635 285.179 623.798C284.551 626.602 282.093 628.604 279.235 628.604H279.177Z" fill="white" fill-opacity="0.11"/>
<path d="M222.473 561.493C222.473 561.493 201.152 564.296 196.122 587.925C196.122 587.925 193.149 566.356 169.656 561.721C169.256 561.664 190.977 559.433 195.893 535.117C195.893 535.117 198.865 556.973 222.473 561.493Z" fill="white" fill-opacity="0.11"/>
<path d="M242.194 614.93C242.194 614.93 226.36 616.99 222.587 634.611C222.587 634.611 220.415 618.592 202.924 615.102C202.638 615.102 218.758 613.385 222.473 595.306C222.473 595.306 224.645 611.554 242.251 614.93H242.194Z" fill="white" fill-opacity="0.11"/>
<path d="M706.689 247.048C718.579 252.598 725.152 261.637 728.639 269.018C734.241 257.06 743.216 250.481 750.532 246.876C738.585 241.384 732.012 232.287 728.468 224.849C722.98 236.864 714.12 243.443 706.632 247.048H706.689ZM728.696 285.324H728.582C726.696 285.266 725.095 283.836 724.81 281.948C724.638 280.918 720.808 256.374 693.313 250.996C691.484 250.652 690.112 248.993 690.112 247.105C690.112 245.217 691.827 243.501 693.656 243.157C699.658 242.013 719.493 236.406 724.524 211.518C724.924 209.63 726.696 208.6 728.525 208.372C730.469 208.429 732.012 209.859 732.298 211.747C732.469 212.834 736.299 237.665 763.908 242.929C765.794 243.272 767.166 244.988 767.109 246.876C767.109 248.822 765.623 250.423 763.679 250.652C762.65 250.767 738.414 254.428 732.526 282.177C732.126 284.008 730.526 285.266 728.696 285.266V285.324Z" fill="white" fill-opacity="0.11"/>
<path d="M585.049 88.6808C585.049 88.6808 570.359 90.4544 566.872 105.273C566.872 105.273 564.871 91.7703 548.695 88.9096C548.409 88.9096 563.385 87.4793 566.815 72.2605C566.815 72.2605 568.815 85.9345 585.049 88.738V88.6808Z" fill="white" fill-opacity="0.11"/>
<path d="M822.727 293.963V255.287H812.152V293.963H822.727Z" fill="white" fill-opacity="0.11"/>
<path d="M790.945 301.915L771.625 268.388L780.771 263.125L800.091 296.652L790.945 301.915Z" fill="white" fill-opacity="0.11"/>
<path d="M781.766 310.31L748.305 290.966L743.044 300.082L776.505 319.426L781.766 310.31Z" fill="white" fill-opacity="0.11"/>
<path d="M772.768 341.85V331.266H734.127V341.85H772.768Z" fill="white" fill-opacity="0.11"/>
<path d="M780.692 363.049L775.442 353.927L741.958 373.23L747.207 382.352L780.692 363.049Z" fill="white" fill-opacity="0.11"/>
<path d="M798.172 377.49L789.064 372.225L769.737 405.716L778.845 410.982L798.172 377.49Z" fill="white" fill-opacity="0.11"/>
<path d="M820.555 419.947V381.271H809.98V419.947H820.555Z" fill="white" fill-opacity="0.11"/>
<path d="M487.303 309.41V283.207H480.158V309.41H487.303Z" fill="white" fill-opacity="0.11"/>
<path d="M471.887 311.156L458.793 288.465L452.606 292.042L465.7 314.733L471.887 311.156Z" fill="white" fill-opacity="0.11"/>
<path d="M459.497 320.459L436.827 307.354L433.253 313.546L455.924 326.652L459.497 320.459Z" fill="white" fill-opacity="0.11"/>
<path d="M453.406 341.793V334.642H427.226V341.793H453.406Z" fill="white" fill-opacity="0.11"/>
<path d="M458.776 356.176L455.204 349.983L432.531 363.085L436.104 369.278L458.776 356.176Z" fill="white" fill-opacity="0.11"/>
<path d="M470.735 365.992L464.547 362.416L451.457 385.109L457.645 388.685L470.735 365.992Z" fill="white" fill-opacity="0.11"/>
<path d="M485.817 394.773V368.569H478.671V394.773H485.817Z" fill="white" fill-opacity="0.11"/>
<path d="M513.253 385.828L500.163 363.135L493.975 366.711L507.065 389.404L513.253 385.828Z" fill="white" fill-opacity="0.11"/>
<path d="M532.595 364.453L509.929 351.339L506.353 357.531L529.019 370.644L532.595 364.453Z" fill="white" fill-opacity="0.11"/>
<path d="M538.691 343.281V336.129H512.511V343.281H538.691Z" fill="white" fill-opacity="0.11"/>
<path d="M533.41 314.832L529.838 308.638L507.165 321.74L510.738 327.934L533.41 314.832Z" fill="white" fill-opacity="0.11"/>
<path d="M514.647 292.816L508.46 289.238L495.363 311.927L501.549 315.505L514.647 292.816Z" fill="white" fill-opacity="0.11"/>
<path d="M307.244 271.421V258.605H303.757V271.421H307.244Z" fill="white" fill-opacity="0.11"/>
<path d="M306.729 270.906V259.177H304.329V270.906H306.729ZM303.242 271.993V258.147H307.815V271.993H303.242Z" fill="white" fill-opacity="0.11"/>
<path d="M299.721 272.296L293.315 261.199L290.296 262.945L296.702 274.042L299.721 272.296Z" fill="white" fill-opacity="0.11"/>
<path d="M291.067 263.182L296.955 273.308L299.012 272.107L293.182 261.98L291.067 263.182ZM296.554 274.796L296.269 274.338L289.581 262.781L293.525 260.493L293.811 260.95L300.441 272.508L296.497 274.796H296.554Z" fill="white" fill-opacity="0.11"/>
<path d="M293.772 276.833L282.685 270.423L280.941 273.445L292.028 279.855L293.772 276.833Z" fill="white" fill-opacity="0.11"/>
<path d="M281.635 273.251L291.753 279.087L292.953 276.97L282.779 271.135L281.578 273.251H281.635ZM292.153 280.575L291.696 280.289L280.149 273.595L282.436 269.647L282.893 269.933L294.439 276.627L292.153 280.575Z" fill="white" fill-opacity="0.11"/>
<path d="M290.724 287.212V283.722H277.92V287.212H290.724Z" fill="white" fill-opacity="0.11"/>
<path d="M290.21 286.697V284.294H278.492V286.697H290.21ZM277.405 287.784V283.207H291.239V287.784H277.405Z" fill="white" fill-opacity="0.11"/>
<path d="M293.319 294.272L291.574 291.25L280.489 297.664L282.234 300.685L293.319 294.272Z" fill="white" fill-opacity="0.11"/>
<path d="M281.235 297.853L282.436 299.97L292.553 294.134L291.353 292.017L281.235 297.853ZM282.036 301.4L279.749 297.453L280.206 297.167L291.753 290.53L294.04 294.478L293.582 294.764L282.036 301.4Z" fill="white" fill-opacity="0.11"/>
<path d="M299.11 299.04L296.09 297.295L289.688 308.394L292.708 310.139L299.11 299.04Z" fill="white" fill-opacity="0.11"/>
<path d="M290.438 308.151L292.553 309.353L298.384 299.226L296.326 298.025L290.438 308.151ZM292.953 310.84L289.009 308.552L295.926 296.537L299.87 298.826L299.584 299.283L292.953 310.84Z" fill="white" fill-opacity="0.11"/>
<path d="M306.5 313.129V300.313H303.014V313.129H306.5Z" fill="white" fill-opacity="0.11"/>
<path d="M305.986 312.557V300.828H303.585V312.557H305.986ZM302.499 313.644V299.798H307.072V313.644H302.499Z" fill="white" fill-opacity="0.11"/>
<path d="M319.896 308.748L313.494 297.649L310.474 299.394L316.876 310.493L319.896 308.748Z" fill="white" fill-opacity="0.11"/>
<path d="M311.245 299.627L317.133 309.754L319.19 308.552L313.303 298.426L311.245 299.627ZM316.733 311.241L316.447 310.784L309.759 299.227L313.703 296.938L313.989 297.396L320.677 308.953L316.733 311.241Z" fill="white" fill-opacity="0.11"/>
<path d="M329.441 298.268L318.354 291.856L316.61 294.878L327.697 301.29L329.441 298.268Z" fill="white" fill-opacity="0.11"/>
<path d="M317.304 294.706L327.422 300.542L328.622 298.425L318.505 292.59L317.304 294.706ZM327.822 302.03L327.365 301.744L315.818 295.05L318.105 291.102L318.562 291.388L330.108 298.082L327.822 302.03Z" fill="white" fill-opacity="0.11"/>
<path d="M332.338 287.955V284.465H319.534V287.955H332.338Z" fill="white" fill-opacity="0.11"/>
<path d="M331.823 287.44V285.037H320.105V287.44H331.823ZM319.019 288.527V283.95H332.852V288.527H319.019Z" fill="white" fill-opacity="0.11"/>
<path d="M329.664 274.052L327.919 271.031L316.834 277.444L318.579 280.466L329.664 274.052Z" fill="white" fill-opacity="0.11"/>
<path d="M317.647 277.657L318.848 279.774L328.965 273.938L327.765 271.821L317.647 277.657ZM318.448 281.204L316.161 277.256L316.618 276.97L328.165 270.333L330.451 274.281L329.994 274.567L318.448 281.204Z" fill="white" fill-opacity="0.11"/>
<path d="M320.634 263.392L317.615 261.646L311.209 272.743L314.228 274.489L320.634 263.392Z" fill="white" fill-opacity="0.11"/>
<path d="M311.874 272.45L313.932 273.652L319.819 263.525L317.704 262.323L311.874 272.45ZM314.332 275.139L310.388 272.851L310.673 272.393L317.304 260.836L321.248 263.124L314.332 275.139Z" fill="white" fill-opacity="0.11"/>
<path d="M589.336 216.095C564.7 217.011 545.436 237.836 546.351 262.61C547.265 287.383 568.015 306.778 592.595 305.863C617.231 304.948 636.495 284.122 635.58 259.349C634.666 234.575 613.916 215.18 589.336 216.095ZM592.995 316.39C562.585 317.477 536.919 293.505 535.833 262.953C534.747 232.401 558.583 206.598 588.993 205.511C619.403 204.424 645.069 228.396 646.155 258.948C647.241 289.5 623.405 315.246 592.995 316.39Z" fill="white" fill-opacity="0.11"/>
<path d="M682.624 300.428V282.52H674.736V300.428H682.624Z" fill="white" fill-opacity="0.11"/>
<path d="M671.826 300.911L662.883 285.4L656.051 289.347L664.994 304.857L671.826 300.911Z" fill="white" fill-opacity="0.11"/>
<path d="M662.831 306.711L647.335 297.76L643.421 304.549L658.917 313.5L662.831 306.711Z" fill="white" fill-opacity="0.11"/>
<path d="M657.93 324.057V316.219H640.039V324.057H657.93Z" fill="white" fill-opacity="0.11"/>
<path d="M662.407 333.744L658.452 326.913L642.972 335.891L646.926 342.722L662.407 333.744Z" fill="white" fill-opacity="0.11"/>
<path d="M662.046 355.41L655.244 351.52L664.218 335.958L671.02 339.905L662.046 355.41Z" fill="white" fill-opacity="0.11"/>
<path d="M681.538 358.843V340.935H673.707V358.843H681.538Z" fill="white" fill-opacity="0.11"/>
<path d="M700.18 352.023L691.226 336.519L684.446 340.442L693.4 355.946L700.18 352.023Z" fill="white" fill-opacity="0.11"/>
<path d="M712.823 336.754L697.333 327.792L693.386 334.628L708.875 343.59L712.823 336.754Z" fill="white" fill-opacity="0.11"/>
<path d="M716.292 325.087V317.249H698.401V325.087H716.292Z" fill="white" fill-opacity="0.11"/>
<path d="M713.357 305.422L709.439 298.635L693.948 307.594L697.866 314.381L713.357 305.422Z" fill="white" fill-opacity="0.11"/>
<path d="M692.113 305.405L685.311 301.457L694.228 285.953L701.03 289.843L692.113 305.405Z" fill="white" fill-opacity="0.11"/>
<path d="M401.389 399.922C380.525 399.922 363.605 416.915 363.605 437.74C363.605 458.566 380.582 475.558 401.389 475.558C422.196 475.558 439.173 458.566 439.173 437.74C439.173 416.915 422.196 399.922 401.389 399.922ZM401.389 484.369C375.723 484.369 354.802 463.429 354.802 437.74C354.802 412.051 375.723 391.111 401.389 391.111C427.054 391.111 447.976 412.051 447.976 437.74C447.976 463.429 427.112 484.369 401.389 484.369Z" fill="white" fill-opacity="0.11"/>
<path d="M387.213 516.58V498.958H379.382V516.58H387.213Z" fill="white" fill-opacity="0.11"/>
<path d="M376.616 517.039L367.819 501.775L360.986 505.72L369.783 520.984L376.616 517.039Z" fill="white" fill-opacity="0.11"/>
<path d="M367.787 522.731L352.54 513.92L348.624 520.708L363.871 529.519L367.787 522.731Z" fill="white" fill-opacity="0.11"/>
<path d="M362.919 539.923V532.085H345.313V539.923H362.919Z" fill="white" fill-opacity="0.11"/>
<path d="M367.321 549.418L363.371 542.583L348.132 551.408L352.082 558.242L367.321 549.418Z" fill="white" fill-opacity="0.11"/>
<path d="M375.872 555.431L369.043 551.48L360.232 566.736L367.062 570.688L375.872 555.431Z" fill="white" fill-opacity="0.11"/>
<path d="M386.241 574.023V556.401H378.41V574.023H386.241Z" fill="white" fill-opacity="0.11"/>
<path d="M404.445 567.218L395.639 551.958L388.808 555.907L397.614 571.167L404.445 567.218Z" fill="white" fill-opacity="0.11"/>
<path d="M417.016 552.287L401.767 543.479L397.824 550.317L413.073 559.126L417.016 552.287Z" fill="white" fill-opacity="0.11"/>
<path d="M420.31 540.896V533.058H402.704V540.896H420.31Z" fill="white" fill-opacity="0.11"/>
<path d="M417.487 521.593L413.537 514.758L398.298 523.582L402.248 530.417L417.487 521.593Z" fill="white" fill-opacity="0.11"/>
<path d="M405.325 506.235L398.496 502.283L389.683 517.537L396.511 521.49L405.325 506.235Z" fill="white" fill-opacity="0.11"/>
<path d="M633.351 666.308V445.121C693.999 445.464 743.215 494.954 743.215 555.714C743.215 616.475 693.999 665.965 633.351 666.308ZM632.722 422.292C559.212 422.292 499.421 482.138 499.421 555.714C499.421 629.291 559.212 689.136 632.722 689.136C706.232 689.136 766.023 629.291 766.023 555.714C766.023 482.138 706.232 422.292 632.722 422.292Z" fill="white" fill-opacity="0.11"/>
<path d="M165.197 416.113C163.597 414.855 161.996 413.653 160.281 412.509C160.11 413.71 160.51 415.026 161.596 415.77C162.682 416.571 164.054 416.628 165.197 416.113Z" fill="white" fill-opacity="0.11"/>
<path d="M128.785 402.153C127.642 402.096 126.556 401.981 125.412 401.981C124.555 401.981 123.698 402.096 122.84 402.096C121.983 403.583 122.269 405.529 123.698 406.616C125.241 407.76 127.413 407.474 128.556 405.929C129.414 404.785 129.471 403.297 128.785 402.153Z" fill="white" fill-opacity="0.11"/>
<path d="M142.161 411.822C140.618 410.678 138.446 410.964 137.302 412.509C136.159 414.054 136.445 416.228 137.988 417.372C139.532 418.516 141.704 418.23 142.847 416.686C143.99 415.141 143.704 412.967 142.161 411.822Z" fill="white" fill-opacity="0.11"/>
<path d="M156.451 422.578C154.908 421.434 152.736 421.72 151.593 423.265C150.449 424.81 150.735 426.984 152.279 428.128C153.822 429.272 155.994 428.986 157.137 427.441C158.281 425.897 157.995 423.723 156.451 422.578Z" fill="white" fill-opacity="0.11"/>
<path d="M170.742 433.392C169.198 432.248 167.026 432.534 165.883 434.078C164.74 435.623 165.026 437.797 166.569 438.942C168.112 440.086 170.284 439.8 171.428 438.255C172.571 436.71 172.285 434.536 170.742 433.392Z" fill="white" fill-opacity="0.11"/>
<path d="M186.175 448.038C185.775 446.722 185.375 445.407 184.918 444.148C183.374 443.061 181.259 443.347 180.116 444.892C178.973 446.436 179.259 448.61 180.802 449.755C182.345 450.899 184.518 450.613 185.661 449.068C185.889 448.725 186.061 448.382 186.175 448.038Z" fill="white" fill-opacity="0.11"/>
<path d="M105.577 405.186C103.462 405.872 101.462 406.673 99.4611 407.589C99.6326 407.817 99.804 408.046 100.033 408.275C101.576 409.419 103.748 409.133 104.891 407.589C105.406 406.902 105.635 406.044 105.577 405.243V405.186Z" fill="white" fill-opacity="0.11"/>
<path d="M118.496 413.425C116.953 412.28 114.781 412.566 113.637 414.111C112.494 415.656 112.78 417.83 114.323 418.974C115.867 420.119 118.039 419.832 119.182 418.288C120.325 416.743 120.039 414.569 118.496 413.425Z" fill="white" fill-opacity="0.11"/>
<path d="M132.787 424.238C131.243 423.093 129.071 423.379 127.928 424.924C126.785 426.469 127.07 428.643 128.614 429.787C130.157 430.932 132.329 430.645 133.473 429.101C134.616 427.556 134.33 425.382 132.787 424.238Z" fill="white" fill-opacity="0.11"/>
<path d="M147.077 434.994C145.534 433.85 143.361 434.136 142.218 435.68C141.075 437.225 141.361 439.399 142.904 440.544C144.447 441.688 146.62 441.402 147.763 439.857C148.906 438.312 148.62 436.138 147.077 434.994Z" fill="white" fill-opacity="0.11"/>
<path d="M156.508 446.494C155.365 448.039 155.651 450.213 157.194 451.357C158.738 452.501 160.91 452.215 162.053 450.67C163.196 449.126 162.911 446.952 161.367 445.807C159.824 444.663 157.652 444.949 156.508 446.494Z" fill="white" fill-opacity="0.11"/>
<path d="M175.658 456.563C174.114 455.419 171.942 455.705 170.799 457.25C169.656 458.795 169.942 460.969 171.485 462.113C173.028 463.257 175.2 462.971 176.344 461.426C177.487 459.882 177.201 457.707 175.658 456.563Z" fill="white" fill-opacity="0.11"/>
<path d="M188.576 466.747C187.319 466.518 185.947 466.919 185.089 468.063C183.946 469.608 184.232 471.782 185.775 472.926C186.461 473.441 187.261 473.613 188.005 473.556C188.29 471.324 188.462 469.036 188.519 466.747H188.576Z" fill="white" fill-opacity="0.11"/>
<path d="M94.8882 415.084C93.3449 413.939 91.1727 414.225 90.0295 415.77C88.8862 417.315 89.172 419.489 90.7154 420.633C92.2587 421.778 94.4309 421.492 95.5741 419.947C96.7174 418.402 96.4316 416.228 94.8882 415.084Z" fill="white" fill-opacity="0.11"/>
<path d="M109.179 425.84C107.635 424.695 105.463 424.981 104.32 426.526C103.177 428.071 103.463 430.245 105.006 431.389C106.549 432.534 108.721 432.247 109.865 430.703C111.008 429.158 110.722 426.984 109.179 425.84Z" fill="white" fill-opacity="0.11"/>
<path d="M118.553 437.34C117.41 438.884 117.696 441.058 119.239 442.203C120.782 443.347 122.955 443.061 124.098 441.516C125.241 439.971 124.955 437.797 123.412 436.653C121.868 435.509 119.696 435.795 118.553 437.34Z" fill="white" fill-opacity="0.11"/>
<path d="M132.843 448.095C131.7 449.64 131.986 451.814 133.529 452.959C135.073 454.103 137.245 453.817 138.388 452.272C139.531 450.727 139.246 448.553 137.702 447.409C136.159 446.265 133.987 446.551 132.843 448.095Z" fill="white" fill-opacity="0.11"/>
<path d="M147.191 458.909C146.048 460.454 146.334 462.628 147.877 463.772C149.42 464.916 151.593 464.63 152.736 463.086C153.879 461.541 153.593 459.367 152.05 458.222C150.506 457.078 148.334 457.364 147.191 458.909Z" fill="white" fill-opacity="0.11"/>
<path d="M167.026 473.842C168.17 472.297 167.884 470.123 166.34 468.979C164.797 467.834 162.625 468.121 161.482 469.665C160.338 471.21 160.624 473.384 162.168 474.528C163.711 475.673 165.883 475.387 167.026 473.842Z" fill="white" fill-opacity="0.11"/>
<path d="M175.772 480.478C174.629 482.023 174.915 484.197 176.458 485.341C178.001 486.486 180.174 486.2 181.317 484.655C182.46 483.11 182.174 480.936 180.631 479.792C179.088 478.647 176.915 478.934 175.772 480.478Z" fill="white" fill-opacity="0.11"/>
<path d="M84.9422 428.242C83.3988 427.098 81.2266 427.384 80.0834 428.929C78.9402 430.474 79.226 432.648 80.7694 433.792C82.3128 434.936 84.4849 434.65 85.6281 433.106C86.7713 431.561 86.4856 429.387 84.9422 428.242Z" fill="white" fill-opacity="0.11"/>
<path d="M99.2325 438.999C97.6891 437.854 95.5169 438.141 94.3737 439.685C93.2305 441.23 93.5163 443.404 95.0597 444.548C96.6031 445.693 98.7752 445.407 99.9184 443.862C101.062 442.317 100.776 440.143 99.2325 438.999Z" fill="white" fill-opacity="0.11"/>
<path d="M108.664 450.499C107.521 452.044 107.807 454.218 109.35 455.362C110.894 456.506 113.066 456.22 114.209 454.675C115.352 453.131 115.066 450.956 113.523 449.812C111.98 448.668 109.807 448.954 108.664 450.499Z" fill="white" fill-opacity="0.11"/>
<path d="M127.871 460.568C126.327 459.424 124.155 459.71 123.012 461.255C121.869 462.799 122.154 464.974 123.698 466.118C125.241 467.262 127.413 466.976 128.557 465.431C129.7 463.886 129.414 461.712 127.871 460.568Z" fill="white" fill-opacity="0.11"/>
<path d="M142.847 476.245C143.99 474.7 143.704 472.526 142.161 471.382C140.618 470.237 138.446 470.523 137.302 472.068C136.159 473.613 136.445 475.787 137.988 476.931C139.532 478.076 141.704 477.789 142.847 476.245Z" fill="white" fill-opacity="0.11"/>
<path d="M157.137 487.001C158.281 485.456 157.995 483.282 156.451 482.137C154.908 480.993 152.736 481.279 151.593 482.824C150.449 484.369 150.735 486.543 152.279 487.687C153.822 488.831 155.994 488.545 157.137 487.001Z" fill="white" fill-opacity="0.11"/>
<path d="M166.512 498.501C168.055 499.645 170.227 499.359 171.371 497.814C172.514 496.269 172.228 494.095 170.685 492.951C169.141 491.807 166.969 492.093 165.826 493.637C164.683 495.182 164.968 497.356 166.512 498.501Z" fill="white" fill-opacity="0.11"/>
<path d="M75.625 440.658C74.0816 439.514 71.9095 439.8 70.7663 441.344C69.6231 442.889 69.9089 445.063 71.4522 446.208C72.9956 447.352 75.1678 447.066 76.311 445.521C77.4542 443.976 77.1684 441.802 75.625 440.658Z" fill="white" fill-opacity="0.11"/>
<path d="M85.0566 452.101C83.9134 453.646 84.1991 455.82 85.7425 456.964C87.2859 458.108 89.458 457.822 90.6013 456.277C91.7445 454.733 91.4586 452.559 89.9153 451.414C88.3719 450.27 86.1998 450.556 85.0566 452.101Z" fill="white" fill-opacity="0.11"/>
<path d="M104.206 462.17C102.662 461.026 100.49 461.312 99.3469 462.857C98.2036 464.401 98.4894 466.576 100.033 467.72C101.576 468.864 103.748 468.578 104.892 467.033C106.035 465.488 105.749 463.314 104.206 462.17Z" fill="white" fill-opacity="0.11"/>
<path d="M119.182 477.847C120.325 476.302 120.039 474.128 118.496 472.984C116.953 471.839 114.781 472.125 113.637 473.67C112.494 475.215 112.78 477.389 114.323 478.533C115.867 479.678 118.039 479.391 119.182 477.847Z" fill="white" fill-opacity="0.11"/>
<path d="M133.473 488.66C134.616 487.115 134.33 484.941 132.787 483.797C131.243 482.653 129.071 482.939 127.928 484.484C126.785 486.028 127.07 488.203 128.614 489.347C130.157 490.491 132.329 490.205 133.473 488.66Z" fill="white" fill-opacity="0.11"/>
<path d="M142.904 500.103C144.447 501.247 146.62 500.961 147.763 499.416C148.906 497.871 148.62 495.697 147.077 494.553C145.534 493.409 143.361 493.695 142.218 495.239C141.075 496.784 141.361 498.958 142.904 500.103Z" fill="white" fill-opacity="0.11"/>
<path d="M157.194 510.916C158.738 512.06 160.91 511.774 162.053 510.23C163.196 508.685 162.911 506.511 161.367 505.366C159.824 504.222 157.652 504.508 156.508 506.053C155.365 507.598 155.651 509.772 157.194 510.916Z" fill="white" fill-opacity="0.11"/>
<path d="M66.2505 453.016C65.3931 452.387 64.3641 452.215 63.3924 452.444C62.9923 454.504 62.6493 456.621 62.4207 458.795C63.9069 459.653 65.8504 459.367 66.9365 457.936C68.0797 456.392 67.7938 454.218 66.2505 453.073V453.016Z" fill="white" fill-opacity="0.11"/>
<path d="M75.6818 464.516C74.5386 466.061 74.8244 468.235 76.3677 469.379C77.9111 470.523 80.0833 470.237 81.2265 468.692C82.3698 467.148 82.0839 464.974 80.5405 463.829C78.9972 462.685 76.8251 462.971 75.6818 464.516Z" fill="white" fill-opacity="0.11"/>
<path d="M95.5741 479.506C96.7174 477.961 96.4316 475.787 94.8882 474.643C93.3449 473.499 91.1727 473.785 90.0295 475.329C88.8862 476.874 89.172 479.048 90.7154 480.192C92.2587 481.337 94.4309 481.051 95.5741 479.506Z" fill="white" fill-opacity="0.11"/>
<path d="M109.865 490.262C111.008 488.717 110.722 486.543 109.179 485.399C107.635 484.254 105.463 484.54 104.32 486.085C103.177 487.63 103.463 489.804 105.006 490.948C106.549 492.093 108.721 491.807 109.865 490.262Z" fill="white" fill-opacity="0.11"/>
<path d="M119.239 501.762C120.782 502.906 122.955 502.62 124.098 501.075C125.241 499.531 124.955 497.356 123.412 496.212C121.868 495.068 119.696 495.354 118.553 496.899C117.41 498.443 117.696 500.618 119.239 501.762Z" fill="white" fill-opacity="0.11"/>
<path d="M133.529 512.518C135.073 513.662 137.245 513.376 138.388 511.832C139.531 510.287 139.246 508.113 137.702 506.968C136.159 505.824 133.987 506.11 132.843 507.655C131.7 509.2 131.986 511.374 133.529 512.518Z" fill="white" fill-opacity="0.11"/>
<path d="M147.877 523.331C148.277 523.617 148.677 523.846 149.135 523.903C150.449 523.388 151.707 522.759 152.964 522.13C153.765 520.642 153.479 518.754 152.05 517.724C150.506 516.58 148.334 516.866 147.191 518.411C146.048 519.956 146.334 522.13 147.877 523.274V523.331Z" fill="white" fill-opacity="0.11"/>
<path d="M66.3647 476.931C65.2214 478.476 65.5072 480.65 67.0506 481.795C68.5939 482.939 70.7661 482.653 71.9093 481.108C73.0526 479.563 72.7668 477.389 71.2234 476.245C69.6801 475.101 67.5079 475.387 66.3647 476.931Z" fill="white" fill-opacity="0.11"/>
<path d="M81.3409 492.608C82.8842 493.752 85.0564 493.466 86.1996 491.921C87.3429 490.376 87.0571 488.202 85.5137 487.058C83.9704 485.914 81.7982 486.2 80.6549 487.744C79.5117 489.289 79.7975 491.463 81.3409 492.608Z" fill="white" fill-opacity="0.11"/>
<path d="M95.6314 503.364C97.1748 504.508 99.3469 504.222 100.49 502.677C101.633 501.133 101.348 498.958 99.8042 497.814C98.2609 496.67 96.0887 496.956 94.9455 498.501C93.8022 500.045 94.088 502.22 95.6314 503.364Z" fill="white" fill-opacity="0.11"/>
<path d="M109.922 514.12C111.465 515.264 113.637 514.978 114.781 513.434C115.924 511.889 115.638 509.715 114.095 508.571C112.551 507.426 110.379 507.712 109.236 509.257C108.093 510.802 108.379 512.976 109.922 514.12Z" fill="white" fill-opacity="0.11"/>
<path d="M124.212 524.933C125.756 526.077 127.928 525.791 129.071 524.247C130.214 522.702 129.928 520.528 128.385 519.384C126.842 518.239 124.67 518.525 123.526 520.07C122.383 521.615 122.669 523.789 124.212 524.933Z" fill="white" fill-opacity="0.11"/>
<path d="M72.1378 499.359C73.3954 501.304 74.7102 503.192 76.1392 504.966C76.3679 504.794 76.6536 504.566 76.8822 504.337C78.0255 502.792 77.7397 500.618 76.1963 499.474C74.9959 498.558 73.3382 498.615 72.1378 499.416V499.359Z" fill="white" fill-opacity="0.11"/>
<path d="M85.1137 514.063C86.0854 514.864 87.1715 515.608 88.2004 516.409C89.2865 516.409 90.4297 516.008 91.1156 515.093C92.2589 513.548 91.9731 511.374 90.4297 510.23C88.8864 509.085 86.7142 509.372 85.571 510.916C84.8279 511.889 84.7707 513.033 85.1137 514.12V514.063Z" fill="white" fill-opacity="0.11"/>
<path d="M99.2899 522.874C101.348 523.789 103.463 524.647 105.692 525.391C106.492 523.903 106.149 522.015 104.777 520.986C103.234 519.841 101.062 520.127 99.9186 521.672C99.6328 522.015 99.4614 522.473 99.3471 522.874H99.2899Z" fill="white" fill-opacity="0.11"/>
<path d="M461.695 197.1C463.295 195.67 464.839 194.182 466.325 192.638L461.695 197.1Z" fill="white" fill-opacity="0.11"/>
<path d="M399.617 212.491C402.018 213.063 404.476 213.521 406.991 213.864L399.617 212.491Z" fill="white" fill-opacity="0.11"/>
<path d="M366.692 96.2329C365.149 97.7777 363.662 99.4369 362.29 101.153L366.692 96.2329Z" fill="white" fill-opacity="0.11"/>
<path d="M472.555 184.971C473.87 183.083 475.128 181.081 476.271 179.021L472.555 184.971Z" fill="white" fill-opacity="0.11"/>
<path d="M380.468 85.5342C378.696 86.6212 376.924 87.7655 375.266 88.967L380.468 85.5342Z" fill="white" fill-opacity="0.11"/>
<path d="M357.089 181.71C355.831 179.65 354.631 177.533 353.602 175.359L357.089 181.71Z" fill="white" fill-opacity="0.11"/>
<path d="M477.986 114.427C478.443 115.4 478.957 116.372 479.415 117.345L477.986 114.427Z" fill="white" fill-opacity="0.11"/>
<path d="M349.143 126.613C348.858 127.586 348.629 128.501 348.4 129.474L349.143 126.613Z" fill="white" fill-opacity="0.11"/>
<path d="M356.288 109.85C355.088 111.91 353.945 114.026 352.973 116.201L356.288 109.85Z" fill="white" fill-opacity="0.11"/>
<path d="M347.028 152.874C347.028 152.874 347.085 153.275 347.143 153.504L347.028 152.874Z" fill="white" fill-opacity="0.11"/>
<path d="M432.942 212.319C430.656 212.891 428.312 213.349 425.911 213.692L432.942 212.319Z" fill="white" fill-opacity="0.11"/>
<path d="M430.884 78.8973C429.169 77.6386 426.769 77.9819 425.511 79.641C424.254 81.3574 424.597 83.7604 426.254 85.0191C427.912 86.2778 430.313 85.9345 431.627 84.2753C432.885 82.5589 432.542 80.156 430.884 78.8973Z" fill="white" fill-opacity="0.11"/>
<path d="M446.547 90.7405C444.832 89.4818 442.488 89.8251 441.173 91.4843C439.916 93.2007 440.259 95.5465 441.917 96.8624C443.631 98.1211 446.032 97.7778 447.29 96.1186C448.547 94.4022 448.204 91.9992 446.547 90.7405Z" fill="white" fill-opacity="0.11"/>
<path d="M463.009 107.904C464.267 106.188 463.924 103.785 462.266 102.526C460.551 101.268 458.208 101.611 456.893 103.27C455.635 104.987 455.978 107.332 457.636 108.648C459.351 109.907 461.694 109.564 463.009 107.904Z" fill="white" fill-opacity="0.11"/>
<path d="M477.985 114.427C477.985 114.427 477.985 114.427 477.928 114.37C476.271 113.111 473.87 113.454 472.555 115.113C471.297 116.83 471.64 119.176 473.298 120.492C475.013 121.75 477.414 121.407 478.671 119.748C479.243 119.061 479.414 118.203 479.357 117.345L477.928 114.427H477.985Z" fill="white" fill-opacity="0.11"/>
<path d="M404.933 80.6709C403.218 79.4123 400.875 79.7555 399.56 81.4147C398.302 83.1311 398.645 85.5341 400.303 86.7928C402.018 88.0515 404.361 87.7082 405.676 86.049C406.934 84.3326 406.591 81.9296 404.933 80.6709Z" fill="white" fill-opacity="0.11"/>
<path d="M420.652 92.5142C418.937 91.2555 416.537 91.5988 415.279 93.258C414.022 94.9744 414.365 97.3774 416.022 98.636C417.737 99.8947 420.081 99.5515 421.395 97.8923C422.653 96.2331 422.31 93.8301 420.652 92.5142Z" fill="white" fill-opacity="0.11"/>
<path d="M436.315 104.357C434.6 103.099 432.199 103.442 430.941 105.101C429.684 106.817 430.027 109.163 431.685 110.479C433.399 111.738 435.743 111.394 437.058 109.735C438.315 108.019 437.972 105.673 436.315 104.357Z" fill="white" fill-opacity="0.11"/>
<path d="M451.977 116.143C450.262 114.885 447.861 115.228 446.604 116.887C445.346 118.604 445.689 121.007 447.347 122.265C449.062 123.524 451.463 123.181 452.72 121.521C453.978 119.805 453.635 117.459 451.977 116.143Z" fill="white" fill-opacity="0.11"/>
<path d="M468.44 133.364C469.697 131.648 469.354 129.302 467.697 127.986C465.982 126.728 463.581 127.071 462.323 128.73C461.066 130.447 461.409 132.85 463.066 134.108C464.781 135.367 467.182 135.024 468.44 133.364Z" fill="white" fill-opacity="0.11"/>
<path d="M478.786 145.951C480.5 147.21 482.844 146.867 484.159 145.208C485.416 143.491 485.073 141.088 483.416 139.83C481.701 138.571 479.3 138.914 478.043 140.573C476.785 142.29 477.128 144.693 478.786 145.951Z" fill="white" fill-opacity="0.11"/>
<path d="M375.266 88.967C376.867 89.6535 378.696 89.2531 379.782 87.8227C380.296 87.1362 380.468 86.3352 380.468 85.5342L375.266 88.967Z" fill="white" fill-opacity="0.11"/>
<path d="M394.701 94.2876C392.986 93.0289 390.643 93.3722 389.328 95.0314C388.07 96.7478 388.413 99.0936 390.071 100.409C391.786 101.668 394.13 101.325 395.444 99.6657C396.702 97.9493 396.359 95.6036 394.701 94.2876Z" fill="white" fill-opacity="0.11"/>
<path d="M410.363 106.131C408.648 104.872 406.305 105.215 404.99 106.875C403.733 108.591 404.075 110.937 405.733 112.253C407.448 113.511 409.792 113.168 411.106 111.509C412.364 109.793 412.021 107.447 410.363 106.131Z" fill="white" fill-opacity="0.11"/>
<path d="M420.71 118.718C419.452 120.434 419.795 122.78 421.453 124.096C423.167 125.355 425.568 125.011 426.826 123.352C428.083 121.636 427.74 119.29 426.083 117.974C424.368 116.715 422.024 117.059 420.71 118.718Z" fill="white" fill-opacity="0.11"/>
<path d="M436.429 130.504C435.171 132.22 435.514 134.623 437.172 135.882C438.887 137.141 441.288 136.797 442.545 135.138C443.803 133.422 443.46 131.019 441.802 129.76C440.145 128.501 437.744 128.845 436.429 130.504Z" fill="white" fill-opacity="0.11"/>
<path d="M458.208 146.981C459.465 145.322 459.122 142.919 457.465 141.603C455.75 140.345 453.349 140.688 452.091 142.347C450.834 144.063 451.177 146.409 452.834 147.725C454.549 148.984 456.95 148.641 458.208 146.981Z" fill="white" fill-opacity="0.11"/>
<path d="M468.497 159.568C470.212 160.827 472.612 160.484 473.87 158.825C475.128 157.108 474.785 154.762 473.127 153.447C471.412 152.188 469.068 152.531 467.754 154.19C466.496 155.907 466.839 158.253 468.497 159.568Z" fill="white" fill-opacity="0.11"/>
<path d="M366.692 96.2329C367.206 96.3473 367.721 96.5762 368.121 96.9195C369.836 98.1782 370.121 100.581 368.864 102.298C367.606 103.957 365.206 104.3 363.491 103.041C362.862 102.526 362.462 101.897 362.233 101.153L366.635 96.2329H366.692Z" fill="white" fill-opacity="0.11"/>
<path d="M383.84 108.706C382.125 107.447 379.782 107.79 378.467 109.449C377.21 111.166 377.552 113.512 379.21 114.827C380.925 116.086 383.326 115.743 384.583 114.084C385.841 112.424 385.498 110.022 383.84 108.706Z" fill="white" fill-opacity="0.11"/>
<path d="M394.187 121.292C392.929 123.009 393.272 125.355 394.93 126.67C396.645 127.929 399.045 127.586 400.303 125.927C401.56 124.21 401.218 121.865 399.56 120.549C397.845 119.29 395.501 119.633 394.187 121.292Z" fill="white" fill-opacity="0.11"/>
<path d="M409.849 133.136C408.591 134.852 408.934 137.255 410.592 138.514C412.307 139.772 414.651 139.429 415.965 137.77C417.223 136.054 416.88 133.708 415.222 132.392C413.507 131.133 411.164 131.476 409.849 133.136Z" fill="white" fill-opacity="0.11"/>
<path d="M426.311 150.3C427.969 151.558 430.37 151.215 431.684 149.556C432.942 147.839 432.599 145.436 430.941 144.178C429.227 142.919 426.826 143.262 425.568 144.922C424.311 146.638 424.654 149.041 426.311 150.3Z" fill="white" fill-opacity="0.11"/>
<path d="M447.347 161.399C448.604 159.683 448.261 157.28 446.604 156.021C444.946 154.762 442.545 155.106 441.231 156.765C439.973 158.481 440.316 160.827 441.974 162.143C443.689 163.402 446.032 163.058 447.347 161.399Z" fill="white" fill-opacity="0.11"/>
<path d="M457.636 173.986C459.351 175.245 461.694 174.901 463.009 173.242C464.267 171.526 463.924 169.18 462.266 167.864C460.608 166.605 458.208 166.949 456.893 168.608C455.635 170.324 455.978 172.67 457.636 173.986Z" fill="white" fill-opacity="0.11"/>
<path d="M472.555 184.971C471.583 183.655 471.526 181.824 472.555 180.451C473.47 179.25 474.899 178.792 476.271 179.021L472.555 184.971Z" fill="white" fill-opacity="0.11"/>
<path d="M352.916 116.2C352.916 116.2 353.144 116.486 353.259 116.601C354.974 117.86 357.374 117.516 358.632 115.857C359.89 114.141 359.547 111.795 357.889 110.479C357.374 110.079 356.803 109.907 356.231 109.792L352.916 116.143V116.2Z" fill="white" fill-opacity="0.11"/>
<path d="M373.608 122.322C371.894 121.064 369.493 121.407 368.235 123.066C366.978 124.725 367.321 127.128 368.978 128.444C370.693 129.703 373.094 129.36 374.351 127.7C375.609 125.984 375.266 123.638 373.608 122.322Z" fill="white" fill-opacity="0.11"/>
<path d="M383.898 134.909C382.64 136.626 382.983 139.029 384.641 140.287C386.356 141.546 388.756 141.203 390.014 139.544C391.271 137.827 390.928 135.424 389.271 134.166C387.556 132.907 385.155 133.25 383.898 134.909Z" fill="white" fill-opacity="0.11"/>
<path d="M400.36 152.13C402.018 153.389 404.419 153.046 405.733 151.387C406.991 149.727 406.648 147.325 404.99 146.009C403.275 144.75 400.875 145.093 399.617 146.752C398.359 148.469 398.702 150.872 400.36 152.13Z" fill="white" fill-opacity="0.11"/>
<path d="M421.395 163.173C422.653 161.456 422.31 159.053 420.652 157.795C418.937 156.536 416.594 156.879 415.279 158.538C414.022 160.255 414.365 162.601 416.022 163.917C417.68 165.175 420.081 164.832 421.395 163.173Z" fill="white" fill-opacity="0.11"/>
<path d="M437.058 175.016C438.315 173.3 437.972 170.954 436.315 169.638C434.6 168.379 432.256 168.723 430.941 170.382C429.684 172.098 430.027 174.444 431.685 175.76C433.342 177.019 435.743 176.675 437.058 175.016Z" fill="white" fill-opacity="0.11"/>
<path d="M447.404 187.603C449.119 188.862 451.463 188.519 452.777 186.859C454.035 185.143 453.692 182.797 452.034 181.481C450.319 180.223 447.976 180.566 446.661 182.225C445.403 183.884 445.746 186.287 447.404 187.603Z" fill="white" fill-opacity="0.11"/>
<path d="M461.695 197.1C461.466 196.07 461.695 194.983 462.323 194.068C463.295 192.809 464.839 192.294 466.268 192.638L461.637 197.1H461.695Z" fill="white" fill-opacity="0.11"/>
<path d="M363.319 135.939C361.604 134.681 359.261 135.024 357.946 136.683C356.689 138.399 357.032 140.745 358.689 142.061C360.404 143.32 362.748 142.977 364.062 141.317C365.32 139.601 364.977 137.198 363.319 135.939Z" fill="white" fill-opacity="0.11"/>
<path d="M379.782 153.16C381.039 151.444 380.696 149.098 379.039 147.782C377.381 146.524 374.98 146.867 373.666 148.526C372.408 150.242 372.751 152.645 374.409 153.904C376.124 155.163 378.524 154.82 379.782 153.16Z" fill="white" fill-opacity="0.11"/>
<path d="M395.444 164.946C396.702 163.23 396.359 160.884 394.701 159.568C392.986 158.309 390.585 158.653 389.328 160.312C388.07 162.028 388.413 164.374 390.071 165.69C391.786 166.949 394.13 166.605 395.444 164.946Z" fill="white" fill-opacity="0.11"/>
<path d="M411.163 176.789C412.421 175.073 412.078 172.67 410.42 171.411C408.763 170.153 406.362 170.496 405.047 172.155C403.79 173.814 404.133 176.217 405.79 177.533C407.505 178.792 409.906 178.449 411.163 176.789Z" fill="white" fill-opacity="0.11"/>
<path d="M421.453 189.377C423.167 190.635 425.568 190.292 426.826 188.633C428.083 186.916 427.74 184.571 426.083 183.255C424.368 181.996 421.967 182.339 420.71 183.998C419.452 185.715 419.795 188.118 421.453 189.377Z" fill="white" fill-opacity="0.11"/>
<path d="M437.172 201.22C438.887 202.478 441.288 202.135 442.545 200.476C443.803 198.76 443.46 196.357 441.802 195.098C440.087 193.839 437.744 194.183 436.429 195.842C435.171 197.558 435.514 199.961 437.172 201.22Z" fill="white" fill-opacity="0.11"/>
<path d="M347.028 152.874C347.028 152.016 347.143 151.101 347.714 150.357C348.972 148.64 351.373 148.354 353.087 149.613C354.802 150.872 355.088 153.275 353.831 154.991C352.573 156.708 350.172 156.994 348.457 155.735C347.714 155.163 347.257 154.362 347.085 153.504L346.971 152.874H347.028Z" fill="white" fill-opacity="0.11"/>
<path d="M364.177 167.521C365.892 168.78 368.235 168.436 369.55 166.777C370.808 165.061 370.465 162.715 368.807 161.399C367.092 160.141 364.748 160.484 363.434 162.143C362.176 163.859 362.519 166.262 364.177 167.521Z" fill="white" fill-opacity="0.11"/>
<path d="M379.839 179.307C381.554 180.565 383.955 180.222 385.212 178.563C386.47 176.847 386.127 174.501 384.469 173.185C382.812 171.926 380.411 172.269 379.096 173.929C377.839 175.588 378.181 177.991 379.839 179.307Z" fill="white" fill-opacity="0.11"/>
<path d="M395.558 191.15C397.273 192.409 399.674 192.065 400.932 190.406C402.189 188.69 401.846 186.287 400.188 185.028C398.531 183.769 396.13 184.113 394.815 185.772C393.558 187.488 393.901 189.891 395.558 191.15Z" fill="white" fill-opacity="0.11"/>
<path d="M411.221 202.993C412.936 204.252 415.279 203.909 416.594 202.249C417.851 200.59 417.508 198.187 415.851 196.871C414.136 195.613 411.735 195.956 410.478 197.615C409.22 199.332 409.563 201.677 411.221 202.993Z" fill="white" fill-opacity="0.11"/>
<path d="M432.942 212.319C433.114 211.003 432.656 209.573 431.513 208.715C429.798 207.456 427.397 207.799 426.14 209.458C425.168 210.717 425.111 212.376 425.911 213.692L432.942 212.319Z" fill="white" fill-opacity="0.11"/>
<path d="M357.089 181.71C357.946 181.538 358.746 181.08 359.318 180.337C360.576 178.62 360.233 176.217 358.575 174.959C357.032 173.814 354.974 174.043 353.602 175.359L357.089 181.71Z" fill="white" fill-opacity="0.11"/>
<path d="M369.607 192.924C371.265 194.183 373.666 193.839 374.98 192.18C376.238 190.521 375.895 188.118 374.237 186.802C372.522 185.543 370.179 185.887 368.864 187.546C367.606 189.262 367.949 191.608 369.607 192.924Z" fill="white" fill-opacity="0.11"/>
<path d="M385.269 204.767C386.984 206.026 389.328 205.683 390.642 204.023C391.9 202.307 391.557 199.904 389.899 198.645C388.185 197.387 385.841 197.73 384.526 199.389C383.269 201.105 383.612 203.451 385.269 204.767Z" fill="white" fill-opacity="0.11"/>
<path d="M406.991 213.864C407.105 212.605 406.648 211.289 405.562 210.488C403.847 209.229 401.503 209.573 400.188 211.232C399.903 211.632 399.731 212.033 399.56 212.491L406.934 213.864H406.991Z" fill="white" fill-opacity="0.11"/>
<path d="M807.465 81.4148C806.265 82.6163 805.122 83.875 804.036 85.1909L807.465 81.4148Z" fill="white" fill-opacity="0.11"/>
<path d="M818.097 73.176C816.725 73.977 815.354 74.8924 814.096 75.8078L818.097 73.176Z" fill="white" fill-opacity="0.11"/>
<path d="M800.034 147.325C799.062 145.723 798.148 144.121 797.348 142.404L800.034 147.325Z" fill="white" fill-opacity="0.11"/>
<path d="M793.918 104.815C793.689 105.559 793.518 106.302 793.346 107.046L793.918 104.815Z" fill="white" fill-opacity="0.11"/>
<path d="M799.405 91.8848C798.491 93.4867 797.576 95.0887 796.833 96.8051L799.405 91.8848Z" fill="white" fill-opacity="0.11"/>
<path d="M792.26 125.069C792.26 125.069 792.26 125.412 792.317 125.526V125.069H792.26Z" fill="white" fill-opacity="0.11"/>
<path d="M814.039 75.8079C815.239 76.3229 816.668 76.0368 817.526 74.8925C817.926 74.3776 818.097 73.7482 818.097 73.1189L814.096 75.7507L814.039 75.8079Z" fill="white" fill-opacity="0.11"/>
<path d="M829.072 79.8701C827.758 78.8974 825.928 79.1263 824.957 80.4422C823.985 81.7581 824.214 83.5889 825.528 84.5616C826.843 85.5342 828.672 85.3053 829.644 83.9894C830.616 82.6735 830.387 80.8427 829.072 79.8701Z" fill="white" fill-opacity="0.11"/>
<path d="M807.465 81.4148C807.865 81.5292 808.265 81.6436 808.551 81.9297C809.866 82.9023 810.095 84.7904 809.123 86.0491C808.151 87.365 806.265 87.5939 805.007 86.6212C804.493 86.2207 804.207 85.7058 804.036 85.1909L807.465 81.4148Z" fill="white" fill-opacity="0.11"/>
<path d="M820.67 91.0266C819.355 90.0539 817.526 90.2828 816.554 91.5987C815.582 92.9146 815.811 94.7454 817.126 95.7181C818.44 96.6907 820.269 96.4618 821.241 95.1459C822.213 93.83 821.927 91.9992 820.67 91.0266Z" fill="white" fill-opacity="0.11"/>
<path d="M796.833 96.805C796.833 96.805 797.005 97.0339 797.119 97.1483C798.434 98.1209 800.263 97.8921 801.235 96.5762C802.206 95.2603 801.921 93.4294 800.663 92.4568C800.263 92.1707 799.863 91.9991 799.405 91.9419L796.833 96.8623V96.805Z" fill="white" fill-opacity="0.11"/>
<path d="M812.781 101.497C811.466 100.524 809.637 100.753 808.665 102.069C807.694 103.385 807.922 105.215 809.237 106.188C810.552 107.161 812.381 106.932 813.353 105.616C814.324 104.3 814.039 102.469 812.781 101.497Z" fill="white" fill-opacity="0.11"/>
<path d="M820.727 111.223C819.755 112.539 819.984 114.37 821.298 115.342C822.613 116.315 824.442 116.086 825.414 114.77C826.386 113.454 826.157 111.623 824.842 110.651C823.528 109.678 821.698 109.907 820.727 111.223Z" fill="white" fill-opacity="0.11"/>
<path d="M804.836 112.024C803.521 111.051 801.692 111.28 800.72 112.596C799.748 113.912 799.977 115.743 801.292 116.715C802.606 117.688 804.436 117.459 805.407 116.143C806.379 114.827 806.15 112.997 804.836 112.024Z" fill="white" fill-opacity="0.11"/>
<path d="M817.526 125.298C818.497 123.982 818.269 122.151 816.954 121.178C815.639 120.206 813.81 120.434 812.838 121.75C811.867 123.066 812.095 124.897 813.41 125.87C814.725 126.842 816.554 126.613 817.526 125.298Z" fill="white" fill-opacity="0.11"/>
<path d="M829.644 134.394C830.616 133.079 830.387 131.248 829.072 130.275C827.758 129.302 825.928 129.531 824.957 130.847C823.985 132.163 824.214 133.994 825.528 134.967C826.843 135.939 828.672 135.71 829.644 134.394Z" fill="white" fill-opacity="0.11"/>
<path d="M792.26 125.069C792.26 124.382 792.374 123.695 792.832 123.123C793.804 121.807 795.69 121.579 796.947 122.551C798.262 123.524 798.491 125.355 797.519 126.671C796.547 127.986 794.661 128.215 793.403 127.243C792.832 126.785 792.489 126.213 792.317 125.526V125.069H792.26Z" fill="white" fill-opacity="0.11"/>
<path d="M805.522 136.34C806.836 137.312 808.666 137.083 809.637 135.768C810.609 134.452 810.38 132.621 809.066 131.648C807.751 130.676 805.922 130.904 804.95 132.22C803.978 133.536 804.207 135.367 805.522 136.34Z" fill="white" fill-opacity="0.11"/>
<path d="M817.583 145.494C818.897 146.466 820.727 146.237 821.698 144.922C822.67 143.606 822.441 141.775 821.127 140.802C819.812 139.83 817.983 140.058 817.011 141.374C816.039 142.69 816.268 144.521 817.583 145.494Z" fill="white" fill-opacity="0.11"/>
<path d="M800.034 147.324C800.663 147.153 801.292 146.81 801.749 146.237C802.721 144.922 802.492 143.091 801.177 142.118C799.977 141.203 798.376 141.431 797.348 142.404L800.034 147.324Z" fill="white" fill-opacity="0.11"/>
<path d="M809.695 155.964C811.009 156.937 812.838 156.708 813.81 155.392C814.782 154.076 814.553 152.245 813.239 151.272C811.924 150.3 810.095 150.529 809.123 151.845C808.151 153.16 808.38 154.991 809.695 155.964Z" fill="white" fill-opacity="0.11"/>
<path d="M821.813 165.118C823.127 166.091 824.957 165.862 825.928 164.546C826.9 163.23 826.671 161.399 825.357 160.426C824.042 159.454 822.213 159.683 821.241 160.999C820.269 162.315 820.498 164.145 821.813 165.118Z" fill="white" fill-opacity="0.11"/>
<path d="M648.156 96.2331V69.686H639.696V96.2331H648.156ZM611.915 79.0118L625.177 102.012L632.55 97.7778L619.289 74.778L611.915 79.0118ZM646.669 182.74V156.193H638.152V182.74H646.669ZM653.815 154.705L667.076 177.705L674.45 173.471L661.188 150.471L653.815 154.705ZM673.135 122.78V131.248H699.658V122.78H673.135ZM666.619 145.608L689.598 158.882L693.828 151.501L670.849 138.228L666.619 145.608ZM610.658 172.727L618.031 176.961L631.293 153.961L623.919 149.728L610.658 172.727ZM619.803 106.989L596.824 93.7157L592.594 101.096L615.573 114.37L619.803 106.989ZM671.649 115.686L694.628 102.412L690.398 95.0316L667.419 108.305L671.649 115.686ZM675.765 79.87L668.391 75.6362L655.129 98.636L662.503 102.87L675.765 79.87ZM614.773 136.969L591.794 150.243L596.024 157.623L619.003 144.35L614.773 136.969ZM586.707 129.817V121.293H613.23V129.817H586.707Z" fill="white" fill-opacity="0.11"/>
</g>
<defs>
<clipPath id="clip0_171403_3224">
<rect width="1213.5" height="1218" fill="white" transform="matrix(0 1 -1 0 1218 0)"/>
</clipPath>
</defs>
</svg>
