<svg width="91" height="101" viewBox="0 0 91 101" fill="none" xmlns="http://www.w3.org/2000/svg">
<path d="M40.1028 65.5573C40.1028 62.6506 40.5432 60.0963 41.424 57.8943C42.3929 55.6043 43.582 53.5784 44.9912 51.8168C46.4005 50.0552 47.8979 48.4698 49.4833 47.0605C51.1568 45.5632 52.6982 44.1539 54.1075 42.8327C55.5168 41.4234 56.6618 40.0141 57.5426 38.6049C58.5115 37.1956 58.9959 35.6542 58.9959 33.9807C58.9959 31.3383 57.8949 29.2684 55.6929 27.771C53.579 26.2737 50.8045 25.525 47.3694 25.525C43.8462 25.525 40.6313 26.3618 37.7247 28.0353C34.9061 29.7088 32.616 32.0429 30.8544 35.0376L11.1686 24.468C14.6037 18.5667 19.5802 13.8544 26.0981 10.3312C32.616 6.71996 40.7194 4.91433 50.4082 4.91433C57.1903 4.91433 63.1797 5.88321 68.3764 7.82096C73.6612 9.67064 77.801 12.4452 80.7957 16.1445C83.7904 19.8439 85.2878 24.38 85.2878 29.7528C85.2878 33.1879 84.7593 36.1827 83.7023 38.737C82.6454 41.2913 81.2801 43.5373 79.6066 45.4751C78.0212 47.4128 76.3036 49.2185 74.4539 50.892C72.6043 52.4774 70.8427 54.0188 69.1692 55.5162C67.5837 57.0135 66.2625 58.5549 65.2056 60.1404C64.1486 61.7258 63.6201 63.5314 63.6201 65.5573H40.1028ZM51.8615 100.437C47.5456 100.437 43.9783 99.0716 41.1598 96.3412C38.3412 93.6107 36.9319 90.3517 36.9319 86.5643C36.9319 82.6888 38.3412 79.4739 41.1598 76.9196C43.9783 74.2772 47.5456 72.956 51.8615 72.956C56.3535 72.956 59.9648 74.2772 62.6953 76.9196C65.5138 79.4739 66.9231 82.6888 66.9231 86.5643C66.9231 90.3517 65.5138 93.6107 62.6953 96.3412C59.9648 99.0716 56.3535 100.437 51.8615 100.437Z" fill="#2A2B81"/>
<mask id="path-2-outside-1_171367_9867" maskUnits="userSpaceOnUse" x="-2" y="-0.881104" width="78" height="99" fill="black">
<rect fill="white" x="-2" y="-0.881104" width="78" height="99"/>
<path d="M29.0928 61.4284C29.0928 58.5217 29.5332 55.9674 30.414 53.7654C31.3829 51.4754 32.572 49.4495 33.9812 47.6879C35.3905 45.9263 36.8879 44.3409 38.4733 42.9316C40.1468 41.4343 41.6882 40.025 43.0975 38.7038C44.5068 37.2945 45.6518 35.8852 46.5326 34.4759C47.5015 33.0667 47.9859 31.5253 47.9859 29.8518C47.9859 27.2094 46.8849 25.1395 44.6829 23.6421C42.569 22.1448 39.7945 21.3961 36.3594 21.3961C32.8362 21.3961 29.6213 22.2329 26.7147 23.9064C23.8961 25.5799 21.606 27.914 19.8444 30.9087L0.158589 20.3391C3.5937 14.4378 8.57021 9.72552 15.0881 6.20233C21.606 2.59106 29.7094 0.785421 39.3981 0.785421C46.1803 0.785421 52.1697 1.7543 57.3664 3.69206C62.6512 5.54173 66.791 8.31625 69.7857 12.0156C72.7804 15.715 74.2777 20.2511 74.2777 25.6239C74.2777 29.059 73.7493 32.0538 72.6923 34.6081C71.6354 37.1624 70.2701 39.4084 68.5966 41.3462C67.0112 43.2839 65.2936 45.0896 63.4439 46.7631C61.5943 48.3485 59.8327 49.8899 58.1591 51.3873C56.5737 52.8846 55.2525 54.426 54.1956 56.0115C53.1386 57.5969 52.6101 59.4025 52.6101 61.4284H29.0928ZM40.8515 96.308C36.5355 96.308 32.9683 94.9427 30.1498 92.2123C27.3312 89.4818 25.9219 86.2228 25.9219 82.4354C25.9219 78.5599 27.3312 75.345 30.1498 72.7907C32.9683 70.1483 36.5355 68.8271 40.8515 68.8271C45.3435 68.8271 48.9548 70.1483 51.6853 72.7907C54.5038 75.345 55.9131 78.5599 55.9131 82.4354C55.9131 86.2228 54.5038 89.4818 51.6853 92.2123C48.9548 94.9427 45.3435 96.308 40.8515 96.308Z"/>
</mask>
<path d="M29.0928 61.4284C29.0928 58.5217 29.5332 55.9674 30.414 53.7654C31.3829 51.4754 32.572 49.4495 33.9812 47.6879C35.3905 45.9263 36.8879 44.3409 38.4733 42.9316C40.1468 41.4343 41.6882 40.025 43.0975 38.7038C44.5068 37.2945 45.6518 35.8852 46.5326 34.4759C47.5015 33.0667 47.9859 31.5253 47.9859 29.8518C47.9859 27.2094 46.8849 25.1395 44.6829 23.6421C42.569 22.1448 39.7945 21.3961 36.3594 21.3961C32.8362 21.3961 29.6213 22.2329 26.7147 23.9064C23.8961 25.5799 21.606 27.914 19.8444 30.9087L0.158589 20.3391C3.5937 14.4378 8.57021 9.72552 15.0881 6.20233C21.606 2.59106 29.7094 0.785421 39.3981 0.785421C46.1803 0.785421 52.1697 1.7543 57.3664 3.69206C62.6512 5.54173 66.791 8.31625 69.7857 12.0156C72.7804 15.715 74.2777 20.2511 74.2777 25.6239C74.2777 29.059 73.7493 32.0538 72.6923 34.6081C71.6354 37.1624 70.2701 39.4084 68.5966 41.3462C67.0112 43.2839 65.2936 45.0896 63.4439 46.7631C61.5943 48.3485 59.8327 49.8899 58.1591 51.3873C56.5737 52.8846 55.2525 54.426 54.1956 56.0115C53.1386 57.5969 52.6101 59.4025 52.6101 61.4284H29.0928ZM40.8515 96.308C36.5355 96.308 32.9683 94.9427 30.1498 92.2123C27.3312 89.4818 25.9219 86.2228 25.9219 82.4354C25.9219 78.5599 27.3312 75.345 30.1498 72.7907C32.9683 70.1483 36.5355 68.8271 40.8515 68.8271C45.3435 68.8271 48.9548 70.1483 51.6853 72.7907C54.5038 75.345 55.9131 78.5599 55.9131 82.4354C55.9131 86.2228 54.5038 89.4818 51.6853 92.2123C48.9548 94.9427 45.3435 96.308 40.8515 96.308Z" fill="#18A5DF"/>
<path d="M29.0928 61.4284H27.7166V62.8046H29.0928V61.4284ZM30.414 53.7654L29.1465 53.2292L29.1412 53.2417L29.1362 53.2543L30.414 53.7654ZM33.9812 47.6879L32.9066 46.8282H32.9066L33.9812 47.6879ZM38.4733 42.9316L39.3876 43.9602L39.391 43.9572L38.4733 42.9316ZM43.0975 38.7038L44.0388 39.7078L44.055 39.6926L44.0706 39.6769L43.0975 38.7038ZM46.5326 34.4759L45.3985 33.6963L45.3815 33.721L45.3656 33.7465L46.5326 34.4759ZM44.6829 23.6421L43.8874 24.7652L43.8982 24.7728L43.9091 24.7802L44.6829 23.6421ZM26.7147 23.9064L26.028 22.7137L26.02 22.7183L26.012 22.723L26.7147 23.9064ZM19.8444 30.9087L19.1934 32.1212L20.3596 32.7474L21.0307 31.6065L19.8444 30.9087ZM0.158589 20.3391L-1.03083 19.6468L-1.74741 20.8779L-0.492433 21.5517L0.158589 20.3391ZM15.0881 6.20233L15.7425 7.41302L15.7488 7.40962L15.7551 7.40615L15.0881 6.20233ZM57.3664 3.69206L56.8856 4.98157L56.8986 4.98644L56.9118 4.99104L57.3664 3.69206ZM69.7857 12.0156L70.8554 11.1497L69.7857 12.0156ZM72.6923 34.6081L73.964 35.1343V35.1343L72.6923 34.6081ZM68.5966 41.3462L67.555 40.4466L67.5431 40.4605L67.5314 40.4747L68.5966 41.3462ZM63.4439 46.7631L64.3396 47.808L64.3536 47.796L64.3673 47.7836L63.4439 46.7631ZM58.1591 51.3873L57.2415 50.3616L57.2277 50.374L57.2142 50.3867L58.1591 51.3873ZM54.1955 56.0115L53.0504 55.2481L54.1955 56.0115ZM52.6101 61.4284V62.8046H53.9864V61.4284H52.6101ZM30.1498 92.2123L31.1074 91.2238H31.1073L30.1498 92.2123ZM30.1498 72.7907L31.0739 73.8104L31.0826 73.8026L31.091 73.7947L30.1498 72.7907ZM51.6853 72.7907L50.7282 73.7796L50.7444 73.7953L50.7611 73.8104L51.6853 72.7907ZM51.6853 92.2123L50.7277 91.2238L50.7198 91.2314L50.7121 91.2391L51.6853 92.2123ZM30.4691 61.4284C30.4691 58.6585 30.8889 56.2838 31.6918 54.2766L29.1362 53.2543C28.1775 55.651 27.7166 58.385 27.7166 61.4284H30.4691ZM31.6815 54.3017C32.6062 52.116 33.733 50.2013 35.0559 48.5477L32.9066 46.8282C31.4109 48.6977 30.1596 50.8347 29.1465 53.2292L31.6815 54.3017ZM35.0559 48.5477C36.4197 46.843 37.8639 45.3147 39.3876 43.9602L37.559 41.903C35.9119 43.3671 34.3614 45.0097 32.9066 46.8282L35.0559 48.5477ZM39.391 43.9572C41.0712 42.4539 42.6206 41.0373 44.0388 39.7078L42.1562 37.6998C40.7559 39.0126 39.2224 40.4146 37.5556 41.906L39.391 43.9572ZM44.0706 39.6769C45.5395 38.2081 46.754 36.7184 47.6997 35.2054L45.3656 33.7465C44.5496 35.0521 43.4741 36.3809 42.1243 37.7306L44.0706 39.6769ZM47.6667 35.2556C48.7896 33.6223 49.3622 31.8101 49.3622 29.8518H46.6097C46.6097 31.2404 46.2134 32.511 45.3985 33.6963L47.6667 35.2556ZM49.3622 29.8518C49.3622 26.7494 48.0321 24.2553 45.4568 22.5041L43.9091 24.7802C45.7377 26.0237 46.6097 27.6693 46.6097 29.8518H49.3622ZM45.4784 22.5191C43.0668 20.8109 39.9876 20.0199 36.3594 20.0199V22.7723C39.6014 22.7723 42.0712 23.4787 43.8874 24.7652L45.4784 22.5191ZM36.3594 20.0199C32.6078 20.0199 29.1542 20.9137 26.028 22.7137L27.4013 25.0991C30.0884 23.552 33.0646 22.7723 36.3594 22.7723V20.0199ZM26.012 22.723C22.9819 24.5221 20.5302 27.0286 18.6582 30.2109L21.0307 31.6065C22.6819 28.7994 24.8103 26.6376 27.4173 25.0897L26.012 22.723ZM20.4954 29.6962L0.809612 19.1266L-0.492433 21.5517L19.1934 32.1212L20.4954 29.6962ZM1.34801 21.0315C4.64506 15.3673 9.4276 10.8265 15.7425 7.41302L14.4337 4.99164C7.71282 8.62454 2.54235 13.5083 -1.03083 19.6468L1.34801 21.0315ZM15.7551 7.40615C22.0166 3.93693 29.8746 2.16167 39.3981 2.16167V-0.590826C29.5441 -0.590826 21.1954 1.24519 14.4211 4.99851L15.7551 7.40615ZM39.3981 2.16167C46.0515 2.16167 51.8727 3.11236 56.8856 4.98157L57.8473 2.40254C52.4667 0.396238 46.3091 -0.590826 39.3981 -0.590826V2.16167ZM56.9118 4.99104C61.9984 6.77137 65.9086 9.41359 68.716 12.8815L70.8554 11.1497C67.6733 7.21891 63.304 4.3121 57.8211 2.39307L56.9118 4.99104ZM68.716 12.8815C71.4869 16.3044 72.9015 20.5233 72.9015 25.6239H75.654C75.654 19.9788 74.0739 15.1255 70.8554 11.1497L68.716 12.8815ZM72.9015 25.6239C72.9015 28.9209 72.394 31.7295 71.4206 34.0819L73.964 35.1343C75.1045 32.378 75.654 29.1972 75.654 25.6239H72.9015ZM71.4206 34.0819C70.4155 36.5111 69.125 38.6288 67.555 40.4466L69.6382 42.2457C71.4152 40.1881 72.8553 37.8137 73.964 35.1343L71.4206 34.0819ZM67.5314 40.4747C65.9893 42.3595 64.3192 44.1153 62.5206 45.7425L64.3673 47.7836C66.2681 46.0639 68.033 44.2084 69.6618 42.2177L67.5314 40.4747ZM62.5483 45.7182C60.6918 47.3094 58.9228 48.8573 57.2415 50.3616L59.0768 52.4129C60.7425 50.9226 62.4967 49.3876 64.3396 47.808L62.5483 45.7182ZM57.2142 50.3867C55.5639 51.9453 54.1725 53.5649 53.0504 55.2481L55.3407 56.7749C56.3325 55.2871 57.5835 53.8239 59.1041 52.3878L57.2142 50.3867ZM53.0504 55.2481C51.8331 57.0741 51.2339 59.1489 51.2339 61.4284H53.9864C53.9864 59.6562 54.4441 58.1197 55.3407 56.7749L53.0504 55.2481ZM52.6101 60.0521H29.0928V62.8046H52.6101V60.0521ZM40.8515 94.9317C36.854 94.9317 33.6425 93.6797 31.1074 91.2238L29.1922 93.2007C32.2942 96.2058 36.2171 97.6842 40.8515 97.6842V94.9317ZM31.1073 91.2238C28.5455 88.742 27.2982 85.8354 27.2982 82.4354H24.5457C24.5457 86.6103 26.1169 90.2215 29.1922 93.2007L31.1073 91.2238ZM27.2982 82.4354C27.2982 78.94 28.5494 76.0983 31.0739 73.8104L29.2256 71.7709C26.113 74.5916 24.5457 78.1797 24.5457 82.4354H27.2982ZM31.091 73.7947C33.6239 71.4201 36.8409 70.2033 40.8515 70.2033V67.4508C36.2302 67.4508 32.3127 68.8764 29.2085 71.7866L31.091 73.7947ZM40.8515 70.2033C45.056 70.2033 48.3004 71.4302 50.7282 73.7796L52.6423 71.8017C49.6092 68.8664 45.6311 67.4508 40.8515 67.4508V70.2033ZM50.7611 73.8104C53.2857 76.0983 54.5369 78.94 54.5369 82.4354H57.2894C57.2894 78.1797 55.722 74.5916 52.6095 71.7709L50.7611 73.8104ZM54.5369 82.4354C54.5369 85.8354 53.2895 88.742 50.7277 91.2238L52.6429 93.2007C55.7182 90.2215 57.2894 86.6103 57.2894 82.4354H54.5369ZM50.7121 91.2391C48.282 93.6693 45.0429 94.9317 40.8515 94.9317V97.6842C45.6441 97.6842 49.6276 96.2162 52.6584 93.1854L50.7121 91.2391Z" fill="#2A2B81" mask="url(#path-2-outside-1_171367_9867)"/>
</svg>
