<svg width="940" height="85" viewBox="0 0 940 85" fill="none" xmlns="http://www.w3.org/2000/svg">
<g id="&#208;&#159;&#208;&#158;&#208;&#154;&#208;&#163;&#208;&#159;&#208;&#144;&#208;&#153; ORBIT&#194;&#174;, &#208;&#152;&#208;&#147;&#208;&#160;&#208;&#144;&#208;&#153; &#208;&#152; &#208;&#146;&#208;&#171;&#208;&#152;&#208;&#147;&#208;&#160;&#208;&#171;&#208;&#146;&#208;&#144;&#208;&#153;">
<mask id="path-1-outside-1_171902_715" maskUnits="userSpaceOnUse" x="8" y="0" width="439" height="78" fill="black">
<rect fill="white" x="8" width="439" height="78"/>
<path d="M10.7269 33L15.5399 8.93455H38.0927L33.2796 33H26.5757L30.5293 12.8194L31.7326 14.3321H19.5623L21.3844 12.8194L17.4308 33H10.7269ZM51.282 33.4813C48.8067 33.4813 46.6752 33.0344 44.8874 32.1405C43.0997 31.2237 41.7245 29.9746 40.7619 28.3932C39.7993 26.8117 39.318 24.9782 39.318 22.8925C39.318 20.7839 39.6847 18.8587 40.4181 17.1168C41.1516 15.352 42.1829 13.8279 43.5123 12.5444C44.8416 11.238 46.423 10.2295 48.2566 9.519C50.1131 8.80849 52.1414 8.45324 54.3417 8.45324C56.817 8.45324 58.9485 8.91163 60.7363 9.82841C62.524 10.7223 63.8991 11.9599 64.8618 13.5414C65.8244 15.1228 66.3057 16.9564 66.3057 19.042C66.3057 21.1506 65.939 23.0873 65.2055 24.8521C64.4721 26.594 63.4407 28.1182 62.1114 29.4246C60.7821 30.7081 59.1892 31.705 57.3327 32.4156C55.4992 33.1261 53.4822 33.4813 51.282 33.4813ZM51.8664 27.8431C53.0582 27.8431 54.1125 27.6254 55.0293 27.1899C55.969 26.7544 56.7597 26.1471 57.4015 25.3678C58.0661 24.5656 58.5704 23.6603 58.9142 22.6519C59.2579 21.6434 59.4298 20.5776 59.4298 19.4546C59.4298 18.3774 59.2006 17.4377 58.7423 16.6355C58.3068 15.8333 57.665 15.2145 56.817 14.779C55.9919 14.3206 54.972 14.0914 53.7573 14.0914C52.5884 14.0914 51.5341 14.3092 50.5944 14.7446C49.6547 15.1801 48.8525 15.7989 48.1878 16.6011C47.5461 17.3804 47.0533 18.2742 46.7095 19.2827C46.3657 20.2912 46.1938 21.3569 46.1938 22.48C46.1938 23.5343 46.4116 24.474 46.847 25.2991C47.3054 26.1012 47.9472 26.7315 48.7723 27.1899C49.6203 27.6254 50.6517 27.8431 51.8664 27.8431ZM67.4996 33L72.3126 8.93455H79.1197L74.3066 33H67.4996ZM74.1691 23.7864L75.2693 18.2857H84.0016L82.9358 23.7864H74.1691ZM83.2109 33L78.7072 21.5517L84.311 18.3888L90.4305 33H83.2109ZM84.5173 21.6892L77.9508 21.0017L87.7489 8.93455H95.3123L84.5173 21.6892ZM95.3811 27.6368C96.252 27.889 97.0313 28.0036 97.7189 27.9806C98.4065 27.9577 99.0482 27.7858 99.6441 27.4649C100.263 27.1441 100.847 26.6628 101.397 26.021L102.876 24.5427L103.632 23.8895L114.187 8.93455H120.959L107.276 27.74C105.924 29.5735 104.48 30.9716 102.945 31.9342C101.409 32.8739 99.816 33.3782 98.1658 33.4469C96.5156 33.5386 94.8539 33.2177 93.1808 32.4843L95.3811 27.6368ZM102.738 29.3558L95.7249 8.93455H102.773L107.242 24.5427L102.738 29.3558ZM118.397 33L123.21 8.93455H145.763L140.95 33H134.246L138.199 12.8194L139.403 14.3321H127.232L129.054 12.8194L125.101 33H118.397ZM143.722 33L159.158 8.93455H165.862L171.672 33H164.9L160.602 12.1662H163.284L150.907 33H143.722ZM150.46 28.3244L153.211 23.3051H164.968L165.725 28.3244H150.46ZM174.465 33L179.278 8.93455H185.982L183.059 23.0644L195.814 8.93455H202.312L197.499 33H190.795L193.717 18.9045L180.962 33H174.465ZM191.104 7.59376C188.743 7.59376 187.036 7.12391 185.982 6.18421C184.927 5.2216 184.538 3.80059 184.813 1.92119H189.076C188.961 2.72337 189.11 3.33074 189.523 3.74329C189.935 4.15584 190.565 4.36211 191.414 4.36211C192.262 4.36211 192.938 4.1673 193.442 3.77767C193.946 3.38804 194.267 2.76921 194.405 1.92119H198.771C198.45 3.86935 197.671 5.30181 196.433 6.21859C195.195 7.13537 193.419 7.59376 191.104 7.59376ZM225.495 33.4813C223.019 33.4813 220.888 33.0344 219.1 32.1405C217.312 31.2237 215.937 29.9746 214.975 28.3932C214.012 26.8117 213.531 24.9782 213.531 22.8925C213.531 20.7839 213.897 18.8587 214.631 17.1168C215.364 15.352 216.396 13.8279 217.725 12.5444C219.054 11.238 220.636 10.2295 222.469 9.519C224.326 8.80849 226.354 8.45324 228.554 8.45324C231.03 8.45324 233.161 8.91163 234.949 9.82841C236.737 10.7223 238.112 11.9599 239.074 13.5414C240.037 15.1228 240.518 16.9564 240.518 19.042C240.518 21.1506 240.152 23.0873 239.418 24.8521C238.685 26.594 237.653 28.1182 236.324 29.4246C234.995 30.7081 233.402 31.705 231.545 32.4156C229.712 33.1261 227.695 33.4813 225.495 33.4813ZM226.079 27.8431C227.271 27.8431 228.325 27.6254 229.242 27.1899C230.182 26.7544 230.972 26.1471 231.614 25.3678C232.279 24.5656 232.783 23.6603 233.127 22.6519C233.471 21.6434 233.642 20.5776 233.642 19.4546C233.642 18.3774 233.413 17.4377 232.955 16.6355C232.519 15.8333 231.878 15.2145 231.03 14.779C230.205 14.3206 229.185 14.0914 227.97 14.0914C226.801 14.0914 225.747 14.3092 224.807 14.7446C223.867 15.1801 223.065 15.7989 222.4 16.6011C221.759 17.3804 221.266 18.2742 220.922 19.2827C220.578 20.2912 220.406 21.3569 220.406 22.48C220.406 23.5343 220.624 24.474 221.06 25.2991C221.518 26.1012 222.16 26.7315 222.985 27.1899C223.833 27.6254 224.864 27.8431 226.079 27.8431ZM241.574 33L246.387 8.93455H256.666C259.76 8.93455 262.144 9.61068 263.817 10.9629C265.513 12.3152 266.361 14.1946 266.361 16.6011C266.361 18.618 265.868 20.3828 264.883 21.8955C263.92 23.3853 262.545 24.5427 260.757 25.3678C258.97 26.1929 256.861 26.6055 254.432 26.6055H246.628L250.237 23.6832L248.381 33H241.574ZM256.666 33L251.75 24.2333H258.798L263.783 33H256.666ZM250.066 24.474L247.693 21.3454H254.741C256.254 21.3454 257.423 20.9902 258.248 20.2797C259.073 19.5692 259.485 18.5607 259.485 17.2543C259.485 16.2459 259.153 15.501 258.488 15.0197C257.824 14.5384 256.896 14.2977 255.704 14.2977H249.137L252.781 11.0661L250.066 24.474ZM267.023 33L271.836 8.93455H284.006C286.733 8.93455 288.808 9.42732 290.229 10.4129C291.65 11.3755 292.36 12.7621 292.36 14.5727C292.36 16.0625 291.947 17.3231 291.122 18.3545C290.297 19.3858 289.186 20.1766 287.788 20.7266C286.389 21.2538 284.82 21.5173 283.078 21.5173L284.04 19.8671C286.263 19.8671 288.028 20.3484 289.335 21.3111C290.641 22.2737 291.294 23.6259 291.294 25.3678C291.294 27.1097 290.801 28.5422 289.816 29.6652C288.853 30.7883 287.535 31.6248 285.862 32.1749C284.212 32.725 282.344 33 280.259 33H267.023ZM274.723 28.0838H280.637C281.829 28.0838 282.768 27.8431 283.456 27.3618C284.166 26.8805 284.522 26.17 284.522 25.2303C284.522 24.5198 284.258 24.0041 283.731 23.6832C283.204 23.3624 282.528 23.2019 281.702 23.2019H275.136L276.064 18.492H281.531C282.333 18.492 283.009 18.3888 283.559 18.1826C284.132 17.9763 284.556 17.6669 284.831 17.2543C285.106 16.8418 285.244 16.3375 285.244 15.7416C285.244 15.077 284.991 14.5957 284.487 14.2977C283.983 13.9998 283.284 13.8508 282.39 13.8508H277.577L274.723 28.0838ZM293.445 33L298.258 8.93455H305.065L300.252 33H293.445ZM310.183 33L313.93 14.3321H306.539L307.639 8.93455H329.195L328.095 14.3321H320.737L316.99 33H310.183ZM339.852 33.1031C338.133 33.1031 336.54 32.7937 335.074 32.1749C333.607 31.5561 332.323 30.6966 331.223 29.5965C330.123 28.4734 329.263 27.1785 328.645 25.7116C328.049 24.2448 327.751 22.6633 327.751 20.9673C327.751 19.2712 328.06 17.6898 328.679 16.2229C329.298 14.7561 330.157 13.4726 331.257 12.3725C332.358 11.2494 333.641 10.3785 335.108 9.75965C336.598 9.14083 338.202 8.83141 339.921 8.83141C341.64 8.83141 343.233 9.14083 344.7 9.75965C346.189 10.3556 347.473 11.2036 348.55 12.3037C349.65 13.4038 350.498 14.6873 351.094 16.1542C351.713 17.5981 352.022 19.1796 352.022 20.8985C352.022 22.6175 351.713 24.2218 351.094 25.7116C350.475 27.1785 349.604 28.4734 348.481 29.5965C347.381 30.6966 346.098 31.5561 344.631 32.1749C343.164 32.7937 341.571 33.1031 339.852 33.1031ZM342.568 27.5337L339.337 22.5487H343.634L346.866 27.5337H342.568ZM339.818 30.4903C341.17 30.4903 342.419 30.2497 343.565 29.7684C344.711 29.2641 345.708 28.588 346.556 27.74C347.404 26.869 348.057 25.8491 348.516 24.6802C348.997 23.5113 349.238 22.2508 349.238 20.8985C349.238 19.5463 349.009 18.2972 348.55 17.1512C348.092 15.9823 347.45 14.9738 346.625 14.1258C345.8 13.2778 344.814 12.6246 343.668 12.1662C342.522 11.6849 341.273 11.4442 339.921 11.4442C338.569 11.4442 337.32 11.6849 336.174 12.1662C335.028 12.6475 334.031 13.3236 333.183 14.1946C332.335 15.0655 331.681 16.074 331.223 17.2199C330.765 18.3659 330.535 19.615 330.535 20.9673C330.535 22.2966 330.765 23.5457 331.223 24.7146C331.681 25.8835 332.323 26.9034 333.148 27.7744C333.996 28.6224 334.982 29.287 336.105 29.7684C337.251 30.2497 338.489 30.4903 339.818 30.4903ZM334.386 27.5337V14.4008H340.368C342.247 14.4008 343.703 14.8363 344.734 15.7073C345.788 16.5553 346.316 17.7127 346.316 19.1796C346.316 20.7381 345.788 21.9299 344.734 22.755C343.703 23.5572 342.247 23.9583 340.368 23.9583H338.649V27.5337H334.386ZM338.615 20.9329H340.093C340.735 20.9329 341.227 20.7839 341.571 20.486C341.938 20.1651 342.121 19.7296 342.121 19.1796C342.121 18.6066 341.938 18.1711 341.571 17.8731C341.227 17.5752 340.735 17.4262 340.093 17.4262H338.615V20.9329ZM350.436 38.3975L354.802 29.4589L355.49 33.3094C354.39 33.3094 353.496 32.9771 352.808 32.3124C352.121 31.6248 351.777 30.7654 351.777 29.734C351.777 28.4734 352.19 27.4649 353.015 26.7086C353.84 25.9523 354.825 25.5741 355.971 25.5741C357.071 25.5741 357.954 25.9064 358.618 26.5711C359.306 27.2358 359.65 28.0952 359.65 29.1495C359.65 29.7225 359.547 30.2611 359.34 30.7654C359.134 31.2696 358.767 31.8999 358.24 32.6562L354.527 38.3975H350.436ZM10.7269 76L15.5399 51.9346H22.2439L19.3217 66.0644L32.0763 51.9346H38.574L33.7609 76H27.057L29.9792 61.9045L17.2245 76H10.7269ZM38.9285 76L43.7416 51.9346H61.3438L60.278 57.3321H47.764L49.5517 55.8194L45.6325 76H38.9285ZM59.4715 76L64.2846 51.9346H74.4608C77.5779 51.9346 79.9844 52.6107 81.6804 53.9629C83.3765 55.3152 84.2245 57.2175 84.2245 59.6699C84.2245 61.6868 83.7432 63.4516 82.7806 64.9643C81.818 66.477 80.4428 67.6459 78.6551 68.471C76.8674 69.2961 74.7588 69.7086 72.3293 69.7086H64.5252L68.135 66.6832L66.2786 76H59.4715ZM67.9631 67.474L65.591 64.3454H72.6387C74.1285 64.3454 75.2859 63.9902 76.111 63.2797C76.9361 62.5692 77.3487 61.5607 77.3487 60.2543C77.3487 59.2459 77.0163 58.501 76.3517 58.0197C75.687 57.5384 74.7588 57.2977 73.5669 57.2977H67.0349L70.6447 54.0661L67.9631 67.474ZM81.0404 76L96.4767 51.9346H103.181L108.991 76H102.218L97.9206 55.1662H100.602L88.2256 76H81.0404ZM87.7787 71.3244L90.5291 66.3051H102.287L103.043 71.3244H87.7787ZM111.783 76L116.596 51.9346H123.3L120.378 66.0644L133.132 51.9346H139.63L134.817 76H128.113L131.035 61.9045L118.281 76H111.783ZM128.422 50.5938C126.062 50.5938 124.354 50.1239 123.3 49.1842C122.246 48.2216 121.856 46.8006 122.131 44.9212H126.394C126.279 45.7234 126.428 46.3307 126.841 46.7433C127.254 47.1558 127.884 47.3621 128.732 47.3621C129.58 47.3621 130.256 47.1673 130.76 46.7777C131.264 46.388 131.585 45.7692 131.723 44.9212H136.089C135.768 46.8693 134.989 48.3018 133.751 49.2186C132.514 50.1354 130.737 50.5938 128.422 50.5938ZM149.99 76L154.803 51.9346H161.507L158.584 66.0644L171.339 51.9346H177.837L173.024 76H166.32L169.242 61.9045L156.487 76H149.99ZM188.024 76L192.837 51.9346H205.008C207.735 51.9346 209.809 52.4273 211.23 53.4129C212.651 54.3755 213.362 55.7621 213.362 57.5727C213.362 59.0625 212.949 60.3231 212.124 61.3545C211.299 62.3858 210.187 63.1766 208.789 63.7266C207.391 64.2538 205.821 64.5173 204.079 64.5173L205.042 62.8671C207.265 62.8671 209.03 63.3484 210.336 64.3111C211.643 65.2737 212.296 66.6259 212.296 68.3678C212.296 70.1097 211.803 71.5422 210.818 72.6652C209.855 73.7883 208.537 74.6248 206.864 75.1749C205.214 75.725 203.346 76 201.26 76H188.024ZM195.725 71.0838H201.638C202.83 71.0838 203.77 70.8431 204.457 70.3618C205.168 69.8805 205.523 69.17 205.523 68.2303C205.523 67.5198 205.26 67.0041 204.733 66.6832C204.205 66.3624 203.529 66.2019 202.704 66.2019H196.138L197.066 61.492H202.532C203.334 61.492 204.011 61.3888 204.561 61.1826C205.134 60.9763 205.558 60.6669 205.833 60.2543C206.108 59.8418 206.245 59.3375 206.245 58.7416C206.245 58.077 205.993 57.5957 205.489 57.2977C204.985 56.9998 204.286 56.8508 203.392 56.8508H198.579L195.725 71.0838ZM230.055 59.6011C235.395 59.6011 238.065 61.8014 238.065 66.2019C238.065 68.173 237.572 69.892 236.587 71.3588C235.601 72.8257 234.203 73.9716 232.392 74.7967C230.582 75.5989 228.473 76 226.067 76H214.618L219.431 51.9346H226.135L224.588 59.6011H230.055ZM226.514 71.1182C227.43 71.1182 228.221 70.9463 228.886 70.6025C229.573 70.2587 230.112 69.7659 230.502 69.1242C230.891 68.4824 231.086 67.7604 231.086 66.9583C231.086 66.0873 230.834 65.457 230.33 65.0674C229.848 64.6549 229.081 64.4486 228.026 64.4486H223.626L222.285 71.1182H226.514ZM239.509 76L244.322 51.9346H251.129L246.316 76H239.509ZM251.348 76L256.161 51.9346H262.865L259.943 66.0644L272.697 51.9346H279.195L274.382 76H267.678L270.6 61.9045L257.845 76H251.348ZM279.549 76L284.363 51.9346H301.965L300.899 57.3321H288.385L290.173 55.8194L286.253 76H279.549ZM300.092 76L304.905 51.9346H315.082C318.199 51.9346 320.605 52.6107 322.301 53.9629C323.997 55.3152 324.845 57.2175 324.845 59.6699C324.845 61.6868 324.364 63.4516 323.401 64.9643C322.439 66.477 321.064 67.6459 319.276 68.471C317.488 69.2961 315.38 69.7086 312.95 69.7086H305.146L308.756 66.6832L306.899 76H300.092ZM308.584 67.474L306.212 64.3454H313.26C314.749 64.3454 315.907 63.9902 316.732 63.2797C317.557 62.5692 317.97 61.5607 317.97 60.2543C317.97 59.2459 317.637 58.501 316.973 58.0197C316.308 57.5384 315.38 57.2977 314.188 57.2977H307.656L311.266 54.0661L308.584 67.474ZM340.713 59.6011C346.053 59.6011 348.723 61.8014 348.723 66.2019C348.723 68.173 348.23 69.892 347.245 71.3588C346.259 72.8257 344.861 73.9716 343.051 74.7967C341.24 75.5989 339.131 76 336.725 76H325.276L330.09 51.9346H336.794L335.246 59.6011H340.713ZM337.172 71.1182C338.088 71.1182 338.879 70.9463 339.544 70.6025C340.231 70.2587 340.77 69.7659 341.16 69.1242C341.549 68.4824 341.744 67.7604 341.744 66.9583C341.744 66.0873 341.492 65.457 340.988 65.0674C340.506 64.6549 339.739 64.4486 338.684 64.4486H334.284L332.943 71.1182H337.172ZM350.167 76L354.98 51.9346H361.787L356.974 76H350.167ZM361.834 76L366.647 51.9346H378.817C381.545 51.9346 383.619 52.4273 385.04 53.4129C386.461 54.3755 387.171 55.7621 387.171 57.5727C387.171 59.0625 386.759 60.3231 385.934 61.3545C385.109 62.3858 383.997 63.1766 382.599 63.7266C381.201 64.2538 379.631 64.5173 377.889 64.5173L378.852 62.8671C381.075 62.8671 382.84 63.3484 384.146 64.3111C385.452 65.2737 386.106 66.6259 386.106 68.3678C386.106 70.1097 385.613 71.5422 384.627 72.6652C383.665 73.7883 382.347 74.6248 380.674 75.1749C379.024 75.725 377.156 76 375.07 76H361.834ZM369.535 71.0838H375.448C376.64 71.0838 377.58 70.8431 378.267 70.3618C378.978 69.8805 379.333 69.17 379.333 68.2303C379.333 67.5198 379.069 67.0041 378.542 66.6832C378.015 66.3624 377.339 66.2019 376.514 66.2019H369.947L370.876 61.492H376.342C377.144 61.492 377.82 61.3888 378.37 61.1826C378.943 60.9763 379.367 60.6669 379.642 60.2543C379.917 59.8418 380.055 59.3375 380.055 58.7416C380.055 58.077 379.803 57.5957 379.299 57.2977C378.794 56.9998 378.095 56.8508 377.201 56.8508H372.388L369.535 71.0838ZM386.022 76L401.458 51.9346H408.162L413.972 76H407.199L402.902 55.1662H405.583L393.207 76H386.022ZM392.76 71.3244L395.51 66.3051H407.268L408.024 71.3244H392.76ZM416.764 76L421.577 51.9346H428.281L425.359 66.0644L438.114 51.9346H444.611L439.798 76H433.094L436.016 61.9045L423.262 76H416.764ZM433.404 50.5938C431.043 50.5938 429.335 50.1239 428.281 49.1842C427.227 48.2216 426.837 46.8006 427.112 44.9212H431.375C431.261 45.7234 431.41 46.3307 431.822 46.7433C432.235 47.1558 432.865 47.3621 433.713 47.3621C434.561 47.3621 435.237 47.1673 435.741 46.7777C436.246 46.388 436.567 45.7692 436.704 44.9212H441.07C440.749 46.8693 439.97 48.3018 438.732 49.2186C437.495 50.1354 435.719 50.5938 433.404 50.5938Z"/>
</mask>
<path d="M10.7269 33L8.95256 32.6451L8.5197 34.8094H10.7269V33ZM15.5399 8.93455V7.12512H14.0566L13.7656 8.57969L15.5399 8.93455ZM38.0927 8.93455L39.867 9.28941L40.2999 7.12512H38.0927V8.93455ZM33.2796 33V34.8094H34.763L35.0539 33.3549L33.2796 33ZM26.5757 33L24.8 32.6521L24.3774 34.8094H26.5757V33ZM30.5293 12.8194L31.9453 11.693L29.5067 8.62731L28.7536 12.4715L30.5293 12.8194ZM31.7326 14.3321V16.1415H35.4839L33.1486 13.2057L31.7326 14.3321ZM19.5623 14.3321L18.4065 12.9399L14.55 16.1415H19.5623V14.3321ZM21.3844 12.8194L23.1601 13.1673L24.1366 8.18286L20.2286 11.4272L21.3844 12.8194ZM17.4308 33V34.8094H18.9201L19.2065 33.3479L17.4308 33ZM12.5011 33.3549L17.3142 9.28941L13.7656 8.57969L8.95256 32.6451L12.5011 33.3549ZM15.5399 10.744H38.0927V7.12512H15.5399V10.744ZM36.3184 8.57969L31.5053 32.6451L35.0539 33.3549L39.867 9.28941L36.3184 8.57969ZM33.2796 31.1906H26.5757V34.8094H33.2796V31.1906ZM28.3513 33.3479L32.305 13.1673L28.7536 12.4715L24.8 32.6521L28.3513 33.3479ZM29.1132 13.9458L30.3165 15.4585L33.1486 13.2057L31.9453 11.693L29.1132 13.9458ZM31.7326 12.5227H19.5623V16.1415H31.7326V12.5227ZM20.7181 15.7243L22.5402 14.2116L20.2286 11.4272L18.4065 12.9399L20.7181 15.7243ZM19.6087 12.4715L15.6551 32.6521L19.2065 33.3479L23.1601 13.1673L19.6087 12.4715ZM17.4308 31.1906H10.7269V34.8094H17.4308V31.1906ZM44.8874 32.1405L44.0618 33.7506L44.07 33.7548L44.0782 33.7589L44.8874 32.1405ZM40.7619 28.3932L39.2163 29.334L39.2163 29.334L40.7619 28.3932ZM40.4181 17.1168L42.0858 17.819L42.089 17.8112L40.4181 17.1168ZM43.5123 12.5444L44.7691 13.8461L44.7748 13.8405L44.7806 13.8349L43.5123 12.5444ZM48.2566 9.519L47.6098 7.82908L47.6028 7.83181L48.2566 9.519ZM60.7363 9.82841L59.9106 11.4385L59.9188 11.4427L59.927 11.4468L60.7363 9.82841ZM64.8618 13.5414L66.4074 12.6006L66.4074 12.6006L64.8618 13.5414ZM65.2055 24.8521L66.8732 25.5543L66.8764 25.5465L65.2055 24.8521ZM62.1114 29.4246L63.3682 30.7263L63.374 30.7207L63.3797 30.7151L62.1114 29.4246ZM57.3327 32.4156L56.686 30.7256L56.6789 30.7284L57.3327 32.4156ZM55.0293 27.1899L54.2685 25.5482L54.2607 25.5518L54.253 25.5555L55.0293 27.1899ZM57.4015 25.3678L56.0082 24.2134L56.0047 24.2175L57.4015 25.3678ZM58.9142 22.6519L60.6268 23.2357L60.6268 23.2357L58.9142 22.6519ZM58.7423 16.6355L57.152 17.4988L57.1614 17.5161L57.1712 17.5332L58.7423 16.6355ZM56.817 14.779L55.9383 16.3607L55.9641 16.3751L55.9905 16.3886L56.817 14.779ZM48.1878 16.6011L46.7945 15.4467L46.7911 15.4508L48.1878 16.6011ZM46.7095 19.2827L44.9969 18.6988L44.9969 18.6988L46.7095 19.2827ZM46.847 25.2991L45.2468 26.1436L45.261 26.1705L45.276 26.1968L46.847 25.2991ZM48.7723 27.1899L47.8935 28.7716L47.9194 28.786L47.9457 28.7995L48.7723 27.1899ZM51.282 31.6719C49.0219 31.6719 47.1803 31.264 45.6966 30.5221L44.0782 33.7589C46.17 34.8048 48.5914 35.2907 51.282 35.2907V31.6719ZM45.7131 30.5305C44.1963 29.7526 43.0818 28.7244 42.3075 27.4524L39.2163 29.334C40.3673 31.2249 42.0031 32.6949 44.0618 33.7506L45.7131 30.5305ZM42.3075 27.4524C41.5386 26.1891 41.1274 24.6894 41.1274 22.8925H37.5086C37.5086 25.267 38.0601 27.4344 39.2163 29.334L42.3075 27.4524ZM41.1274 22.8925C41.1274 20.9972 41.4562 19.3142 42.0858 17.819L38.7505 16.4146C37.9132 18.4031 37.5086 20.5707 37.5086 22.8925H41.1274ZM42.089 17.8112C42.7308 16.267 43.624 14.9517 44.7691 13.8461L42.2554 11.2427C40.7419 12.7041 39.5724 14.437 38.7472 16.4224L42.089 17.8112ZM44.7806 13.8349C45.9246 12.7106 47.2937 11.8327 48.9104 11.2062L47.6028 7.83181C45.5524 8.62634 43.7586 9.76534 42.244 11.2538L44.7806 13.8349ZM48.9033 11.2089C50.5324 10.5854 52.3389 10.2627 54.3417 10.2627V6.64381C51.944 6.64381 49.6937 7.03156 47.6098 7.8291L48.9033 11.2089ZM54.3417 10.2627C56.5954 10.2627 58.4309 10.6797 59.9106 11.4385L61.5619 8.21835C59.4662 7.14359 57.0386 6.64381 54.3417 6.64381V10.2627ZM59.927 11.4468C61.4357 12.2011 62.5445 13.2145 63.3161 14.4822L66.4074 12.6006C65.2538 10.7053 63.6123 9.24341 61.5455 8.21001L59.927 11.4468ZM63.3161 14.4822C64.0851 15.7455 64.4963 17.2452 64.4963 19.042H68.1151C68.1151 16.6676 67.5636 14.5001 66.4074 12.6006L63.3161 14.4822ZM64.4963 19.042C64.4963 20.937 64.1676 22.6347 63.5347 24.1577L66.8764 25.5465C67.7103 23.5399 68.1151 21.3643 68.1151 19.042H64.4963ZM63.5379 24.15C62.896 25.6744 61.9993 26.9978 60.8431 28.134L63.3797 30.7151C64.8822 29.2385 66.0482 27.5136 66.8732 25.5543L63.5379 24.15ZM60.8546 28.1229C59.7134 29.2247 58.3325 30.0955 56.686 30.7257L57.9795 34.1055C60.0459 33.3146 61.8508 32.1914 63.3682 30.7263L60.8546 28.1229ZM56.6789 30.7284C55.0772 31.349 53.2851 31.6719 51.282 31.6719V35.2907C53.6794 35.2907 55.9211 34.9031 57.9865 34.1027L56.6789 30.7284ZM51.8664 29.6526C53.2803 29.6526 54.6075 29.3934 55.8057 28.8243L54.253 25.5555C53.6175 25.8573 52.8361 26.0337 51.8664 26.0337V29.6526ZM55.7901 28.8316C56.9694 28.2851 57.9795 27.5123 58.7982 26.5181L56.0047 24.2175C55.54 24.7818 54.9686 25.2237 54.2685 25.5482L55.7901 28.8316ZM58.7948 26.5223C59.6029 25.547 60.2137 24.4474 60.6268 23.2357L57.2015 22.068C56.927 22.8733 56.5294 23.5843 56.0082 24.2134L58.7948 26.5223ZM60.6268 23.2357C61.0381 22.0293 61.2393 20.7654 61.2393 19.4546H57.6204C57.6204 20.3898 57.4778 21.2575 57.2015 22.068L60.6268 23.2357ZM61.2393 19.4546C61.2393 18.1152 60.9521 16.8557 60.3133 15.7378L57.1712 17.5332C57.4492 18.0196 57.6204 18.6395 57.6204 19.4546H61.2393ZM60.3325 15.7722C59.7153 14.6354 58.8002 13.7633 57.6436 13.1694L55.9905 16.3886C56.5299 16.6656 56.8982 17.0312 57.152 17.4988L60.3325 15.7722ZM57.6958 13.1973C56.5355 12.5527 55.1934 12.282 53.7573 12.282V15.9009C54.7506 15.9009 55.4483 16.0886 55.9383 16.3607L57.6958 13.1973ZM53.7573 12.282C52.3595 12.282 51.0406 12.5436 49.8336 13.1029L51.3552 16.3864C52.0275 16.0748 52.8172 15.9009 53.7573 15.9009V12.282ZM49.8336 13.1029C48.6479 13.6524 47.6301 14.4383 46.7945 15.4467L49.5811 17.7556C50.0749 17.1596 50.6614 16.7078 51.3552 16.3864L49.8336 13.1029ZM46.7911 15.4508C46.0032 16.4075 45.4071 17.4956 44.9969 18.6988L48.4222 19.8666C48.6996 19.0528 49.089 18.3532 49.5846 17.7514L46.7911 15.4508ZM44.9969 18.6988C44.5856 19.9052 44.3844 21.1691 44.3844 22.48H48.0033C48.0033 21.5447 48.1459 20.6771 48.4222 19.8666L44.9969 18.6988ZM44.3844 22.48C44.3844 23.7899 44.6569 25.026 45.2468 26.1436L48.4473 24.4545C48.1662 23.9219 48.0033 23.2786 48.0033 22.48H44.3844ZM45.276 26.1968C45.9021 27.2924 46.7861 28.1564 47.8935 28.7716L49.651 25.6082C49.1082 25.3066 48.7088 24.9101 48.4181 24.4013L45.276 26.1968ZM47.9457 28.7995C49.1099 29.3974 50.4409 29.6526 51.8664 29.6526V26.0337C50.8625 26.0337 50.1307 25.8534 49.5988 25.5803L47.9457 28.7995ZM67.4996 33L65.7253 32.6451L65.2924 34.8094H67.4996V33ZM72.3126 8.93455V7.12512H70.8293L70.5383 8.57969L72.3126 8.93455ZM79.1197 8.93455L80.894 9.28941L81.3269 7.12512H79.1197V8.93455ZM74.3066 33V34.8094H75.79L76.0809 33.3549L74.3066 33ZM74.1691 23.7864L72.3948 23.4315L71.962 25.5958H74.1691V23.7864ZM75.2693 18.2857V16.4763H73.7859L73.495 17.9308L75.2693 18.2857ZM84.0016 18.2857L85.778 18.6299L86.1952 16.4763H84.0016V18.2857ZM82.9358 23.7864V25.5958H84.4283L84.7122 24.1305L82.9358 23.7864ZM83.2109 33L81.527 33.6624L81.9783 34.8094H83.2109V33ZM78.7072 21.5517L77.8178 19.976L76.4472 20.7495L77.0234 22.2141L78.7072 21.5517ZM84.311 18.3888L85.98 17.6898L85.1938 15.8128L83.4216 16.8131L84.311 18.3888ZM90.4305 33V34.8094H93.15L92.0995 32.301L90.4305 33ZM84.5173 21.6892L84.3288 23.4888L85.2803 23.5885L85.8984 22.8582L84.5173 21.6892ZM77.9508 21.0017L76.5461 19.8611L74.4412 22.4535L77.7624 22.8012L77.9508 21.0017ZM87.7489 8.93455V7.12512H86.8873L86.3442 7.79399L87.7489 8.93455ZM95.3123 8.93455L96.6935 10.1035L99.2143 7.12512H95.3123V8.93455ZM69.2738 33.3549L74.0869 9.28941L70.5383 8.57969L65.7253 32.6451L69.2738 33.3549ZM72.3126 10.744H79.1197V7.12512H72.3126V10.744ZM77.3454 8.57969L72.5323 32.6451L76.0809 33.3549L80.894 9.28941L77.3454 8.57969ZM74.3066 31.1906H67.4996V34.8094H74.3066V31.1906ZM75.9434 24.1412L77.0435 18.6406L73.495 17.9308L72.3948 23.4315L75.9434 24.1412ZM75.2693 20.0951H84.0016V16.4763H75.2693V20.0951ZM82.2252 17.9415L81.1594 23.4422L84.7122 24.1305L85.778 18.6299L82.2252 17.9415ZM82.9358 21.9769H74.1691V25.5958H82.9358V21.9769ZM84.8947 32.3376L80.391 20.8893L77.0234 22.2141L81.527 33.6624L84.8947 32.3376ZM79.5966 23.1275L85.2004 19.9646L83.4216 16.8131L77.8178 19.976L79.5966 23.1275ZM82.642 19.0878L88.7615 33.699L92.0995 32.301L85.98 17.6898L82.642 19.0878ZM90.4305 31.1906H83.2109V34.8094H90.4305V31.1906ZM84.7057 19.8896L78.1393 19.2021L77.7624 22.8012L84.3288 23.4888L84.7057 19.8896ZM79.3555 22.1422L89.1536 10.0751L86.3442 7.79399L76.5461 19.8611L79.3555 22.1422ZM87.7489 10.744H95.3123V7.12512H87.7489V10.744ZM93.9312 7.76559L83.1361 20.5203L85.8984 22.8582L96.6935 10.1035L93.9312 7.76559ZM95.3811 27.6368L95.8842 25.8988L94.3805 25.4635L93.7334 26.889L95.3811 27.6368ZM97.7189 27.9806L97.6586 26.1722L97.6586 26.1722L97.7189 27.9806ZM99.6441 27.4649L98.8112 25.8586L98.7987 25.8651L98.7863 25.8718L99.6441 27.4649ZM101.397 26.021L100.118 24.7416L100.069 24.7907L100.024 24.8435L101.397 26.021ZM102.876 24.5427L101.693 23.1733L101.643 23.2165L101.596 23.2633L102.876 24.5427ZM103.632 23.8895L104.815 25.2589L104.983 25.114L105.11 24.9328L103.632 23.8895ZM114.187 8.93455V7.12512H113.249L112.708 7.89121L114.187 8.93455ZM120.959 8.93455L122.422 9.99913L124.513 7.12512H120.959V8.93455ZM107.276 27.74L108.733 28.814L108.739 28.8046L107.276 27.74ZM102.945 31.9342L103.889 33.4776L103.897 33.4725L103.906 33.4674L102.945 31.9342ZM98.1658 33.4469L98.0905 31.6391L98.078 31.6396L98.0654 31.6403L98.1658 33.4469ZM93.1808 32.4843L91.5332 31.7364L90.7755 33.4056L92.4544 34.1415L93.1808 32.4843ZM102.738 29.3558L101.027 29.9435L102.004 32.7887L104.059 30.5921L102.738 29.3558ZM95.7249 8.93455V7.12512H93.1903L94.0136 9.52228L95.7249 8.93455ZM102.773 8.93455L104.512 8.43645L104.137 7.12512H102.773V8.93455ZM107.242 24.5427L108.563 25.779L109.264 25.0303L108.981 24.0446L107.242 24.5427ZM94.878 29.3749C95.8772 29.6642 96.8517 29.82 97.7792 29.7891L97.6586 26.1722C97.2109 26.1871 96.6269 26.1137 95.8842 25.8988L94.878 29.3749ZM97.7792 29.7891C98.7409 29.757 99.6562 29.5135 100.502 29.0581L98.7863 25.8718C98.4402 26.0581 98.0721 26.1584 97.6586 26.1722L97.7792 29.7891ZM100.477 29.0713C101.341 28.6234 102.101 27.9801 102.771 27.1986L100.024 24.8435C99.5934 25.3454 99.1851 25.6647 98.8112 25.8586L100.477 29.0713ZM102.677 27.3005L104.155 25.8222L101.596 23.2633L100.118 24.7416L102.677 27.3005ZM104.058 25.9121L104.815 25.2589L102.449 22.5201L101.693 23.1733L104.058 25.9121ZM105.11 24.9328L115.665 9.97789L112.708 7.89121L102.154 22.8462L105.11 24.9328ZM114.187 10.744H120.959V7.12512H114.187V10.744ZM119.496 7.86998L105.813 26.6754L108.739 28.8046L122.422 9.99913L119.496 7.86998ZM105.82 26.666C104.569 28.362 103.284 29.5857 101.983 30.4011L103.906 33.4674C105.676 32.3575 107.279 30.7851 108.733 28.814L105.82 26.666ZM102 30.3909C100.703 31.1848 99.406 31.5843 98.0905 31.6391L98.2411 35.2548C100.226 35.1721 102.115 34.5631 103.889 33.4776L102 30.3909ZM98.0654 31.6403C96.7276 31.7146 95.3481 31.4587 93.9073 30.8271L92.4544 34.1415C94.3598 34.9768 96.3036 35.3626 98.2662 35.2536L98.0654 31.6403ZM94.8285 33.2322L97.0287 28.3847L93.7334 26.889L91.5332 31.7364L94.8285 33.2322ZM104.45 28.7681L97.4362 8.34682L94.0136 9.52228L101.027 29.9435L104.45 28.7681ZM95.7249 10.744H102.773V7.12512H95.7249V10.744ZM101.033 9.43265L105.502 25.0408L108.981 24.0446L104.512 8.43645L101.033 9.43265ZM105.921 23.3064L101.417 28.1195L104.059 30.5921L108.563 25.779L105.921 23.3064ZM118.397 33L116.623 32.6451L116.19 34.8094H118.397V33ZM123.21 8.93455V7.12512H121.727L121.436 8.57969L123.21 8.93455ZM145.763 8.93455L147.537 9.28941L147.97 7.12512H145.763V8.93455ZM140.95 33V34.8094H142.433L142.724 33.3549L140.95 33ZM134.246 33L132.47 32.6521L132.047 34.8094H134.246V33ZM138.199 12.8194L139.615 11.693L137.177 8.62731L136.424 12.4715L138.199 12.8194ZM139.403 14.3321V16.1415H143.154L140.819 13.2057L139.403 14.3321ZM127.232 14.3321L126.077 12.9399L122.22 16.1415H127.232V14.3321ZM129.054 12.8194L130.83 13.1673L131.807 8.18286L127.899 11.4272L129.054 12.8194ZM125.101 33V34.8094H126.59L126.877 33.3479L125.101 33ZM120.171 33.3549L124.984 9.28941L121.436 8.57969L116.623 32.6451L120.171 33.3549ZM123.21 10.744H145.763V7.12512H123.21V10.744ZM143.988 8.57969L139.175 32.6451L142.724 33.3549L147.537 9.28941L143.988 8.57969ZM140.95 31.1906H134.246V34.8094H140.95V31.1906ZM136.021 33.3479L139.975 13.1673L136.424 12.4715L132.47 32.6521L136.021 33.3479ZM136.783 13.9458L137.987 15.4585L140.819 13.2057L139.615 11.693L136.783 13.9458ZM139.403 12.5227H127.232V16.1415H139.403V12.5227ZM128.388 15.7243L130.21 14.2116L127.899 11.4272L126.077 12.9399L128.388 15.7243ZM127.279 12.4715L123.325 32.6521L126.877 33.3479L130.83 13.1673L127.279 12.4715ZM125.101 31.1906H118.397V34.8094H125.101V31.1906ZM143.722 33L142.199 32.0231L140.412 34.8094H143.722V33ZM159.158 8.93455V7.12512H158.169L157.635 7.95763L159.158 8.93455ZM165.862 8.93455L167.621 8.5099L167.287 7.12512H165.862V8.93455ZM171.672 33V34.8094H173.971L173.431 32.5754L171.672 33ZM164.9 33L163.127 33.3655L163.425 34.8094H164.9V33ZM160.602 12.1662V10.3568H158.381L158.83 12.5317L160.602 12.1662ZM163.284 12.1662L164.839 13.0903L166.463 10.3568H163.284V12.1662ZM150.907 33V34.8094H151.937L152.463 33.9241L150.907 33ZM150.46 28.3244L148.874 27.4549L147.406 30.1339H150.46V28.3244ZM153.211 23.3051V21.4956H152.139L151.624 22.4356L153.211 23.3051ZM164.968 23.3051L166.758 23.0355L166.526 21.4956H164.968V23.3051ZM165.725 28.3244V30.1339H167.827L167.514 28.0548L165.725 28.3244ZM145.245 33.9769L160.681 9.91147L157.635 7.95763L142.199 32.0231L145.245 33.9769ZM159.158 10.744H165.862V7.12512H159.158V10.744ZM164.103 9.3592L169.913 33.4246L173.431 32.5754L167.621 8.5099L164.103 9.3592ZM171.672 31.1906H164.9V34.8094H171.672V31.1906ZM166.672 32.6345L162.374 11.8007L158.83 12.5317L163.127 33.3655L166.672 32.6345ZM160.602 13.9756H163.284V10.3568H160.602V13.9756ZM161.728 11.2421L149.352 32.0759L152.463 33.9241L164.839 13.0903L161.728 11.2421ZM150.907 31.1906H143.722V34.8094H150.907V31.1906ZM152.047 29.1939L154.798 24.1746L151.624 22.4356L148.874 27.4549L152.047 29.1939ZM153.211 25.1145H164.968V21.4956H153.211V25.1145ZM163.179 23.5747L163.935 28.594L167.514 28.0548L166.758 23.0355L163.179 23.5747ZM165.725 26.515H150.46V30.1339H165.725V26.515ZM174.465 33L172.69 32.6451L172.257 34.8094H174.465V33ZM179.278 8.93455V7.12512H177.794L177.503 8.57969L179.278 8.93455ZM185.982 8.93455L187.754 9.30101L188.204 7.12512H185.982V8.93455ZM183.059 23.0644L181.287 22.6979L179.938 29.2227L184.403 24.2768L183.059 23.0644ZM195.814 8.93455V7.12512H195.01L194.471 7.72212L195.814 8.93455ZM202.312 8.93455L204.086 9.28941L204.519 7.12512H202.312V8.93455ZM197.499 33V34.8094H198.982L199.273 33.3549L197.499 33ZM190.795 33L189.023 32.6327L188.572 34.8094H190.795V33ZM193.717 18.9045L195.489 19.2718L196.839 12.7572L192.375 17.6905L193.717 18.9045ZM180.962 33V34.8094H181.765L182.304 34.2141L180.962 33ZM185.982 6.18421L184.762 7.52045L184.77 7.52776L184.778 7.53498L185.982 6.18421ZM184.813 1.92119V0.111759H183.249L183.022 1.65919L184.813 1.92119ZM189.076 1.92119L190.867 2.17708L191.162 0.111759H189.076V1.92119ZM189.523 3.74329L188.243 5.02275L188.243 5.02275L189.523 3.74329ZM193.442 3.77767L194.548 5.20945L194.548 5.20945L193.442 3.77767ZM194.405 1.92119V0.111759H192.865L192.618 1.63155L194.405 1.92119ZM198.771 1.92119L200.556 2.21525L200.903 0.111759H198.771V1.92119ZM176.239 33.3549L181.052 9.28941L177.503 8.57969L172.69 32.6451L176.239 33.3549ZM179.278 10.744H185.982V7.12512H179.278V10.744ZM184.21 8.56809L181.287 22.6979L184.831 23.4309L187.754 9.30101L184.21 8.56809ZM184.403 24.2768L197.157 10.147L194.471 7.72212L181.716 21.852L184.403 24.2768ZM195.814 10.744H202.312V7.12512H195.814V10.744ZM200.537 8.57969L195.724 32.6451L199.273 33.3549L204.086 9.28941L200.537 8.57969ZM197.499 31.1906H190.795V34.8094H197.499V31.1906ZM192.566 33.3673L195.489 19.2718L191.945 18.5372L189.023 32.6327L192.566 33.3673ZM192.375 17.6905L179.621 31.7859L182.304 34.2141L195.059 20.1186L192.375 17.6905ZM180.962 31.1906H174.465V34.8094H180.962V31.1906ZM191.104 5.78433C188.91 5.78433 187.748 5.33451 187.186 4.83345L184.778 7.53498C186.324 8.91332 188.576 9.40319 191.104 9.40319V5.78433ZM187.202 4.84797C186.732 4.41887 186.383 3.68546 186.603 2.1832L183.022 1.65919C182.692 3.91572 183.123 6.02432 184.762 7.52045L187.202 4.84797ZM184.813 3.73062H189.076V0.111759H184.813V3.73062ZM187.284 1.6653C187.123 2.79706 187.286 4.06532 188.243 5.02275L190.802 2.46383C190.819 2.48094 190.836 2.50251 190.848 2.52467C190.86 2.5461 190.861 2.5564 190.859 2.54731C190.853 2.524 190.833 2.41369 190.867 2.17708L187.284 1.6653ZM188.243 5.02275C189.123 5.90259 190.303 6.17155 191.414 6.17155V2.55268C190.828 2.55268 190.747 2.40909 190.802 2.46383L188.243 5.02275ZM191.414 6.17155C192.53 6.17155 193.636 5.91399 194.548 5.20945L192.336 2.34589C192.239 2.42061 191.993 2.55268 191.414 2.55268V6.17155ZM194.548 5.20945C195.527 4.45328 196.006 3.35127 196.191 2.21083L192.618 1.63155C192.528 2.18716 192.365 2.3228 192.336 2.34589L194.548 5.20945ZM194.405 3.73062H198.771V0.111759H194.405V3.73062ZM196.985 1.62713C196.718 3.24764 196.118 4.20042 195.356 4.76461L197.51 7.67257C199.224 6.4032 200.181 4.49106 200.556 2.21525L196.985 1.62713ZM195.356 4.76461C194.551 5.36052 193.216 5.78433 191.104 5.78433V9.40319C193.622 9.40319 195.839 8.91022 197.51 7.67257L195.356 4.76461ZM219.1 32.1405L218.274 33.7506L218.283 33.7548L218.291 33.7589L219.1 32.1405ZM214.975 28.3932L213.429 29.334L213.429 29.334L214.975 28.3932ZM214.631 17.1168L216.298 17.819L216.302 17.8112L214.631 17.1168ZM217.725 12.5444L218.982 13.8461L218.987 13.8405L218.993 13.8349L217.725 12.5444ZM222.469 9.519L221.822 7.82908L221.815 7.83181L222.469 9.519ZM234.949 9.82841L234.123 11.4385L234.131 11.4427L234.14 11.4468L234.949 9.82841ZM239.074 13.5414L240.62 12.6006L240.62 12.6006L239.074 13.5414ZM239.418 24.8521L241.086 25.5543L241.089 25.5465L239.418 24.8521ZM236.324 29.4246L237.581 30.7263L237.587 30.7207L237.592 30.7151L236.324 29.4246ZM231.545 32.4156L230.899 30.7256L230.892 30.7284L231.545 32.4156ZM229.242 27.1899L228.481 25.5482L228.473 25.5518L228.466 25.5555L229.242 27.1899ZM231.614 25.3678L230.221 24.2134L230.217 24.2175L231.614 25.3678ZM233.127 22.6519L234.839 23.2357L234.839 23.2357L233.127 22.6519ZM232.955 16.6355L231.365 17.4988L231.374 17.5161L231.384 17.5332L232.955 16.6355ZM231.03 14.779L230.151 16.3607L230.177 16.3751L230.203 16.3886L231.03 14.779ZM222.4 16.6011L221.007 15.4467L221.004 15.4508L222.4 16.6011ZM220.922 19.2827L219.21 18.6988L219.21 18.6988L220.922 19.2827ZM221.06 25.2991L219.459 26.1436L219.474 26.1705L219.489 26.1968L221.06 25.2991ZM222.985 27.1899L222.106 28.7716L222.132 28.786L222.158 28.7995L222.985 27.1899ZM225.495 31.6719C223.235 31.6719 221.393 31.264 219.909 30.5221L218.291 33.7589C220.383 34.8048 222.804 35.2907 225.495 35.2907V31.6719ZM219.926 30.5305C218.409 29.7526 217.294 28.7244 216.52 27.4524L213.429 29.334C214.58 31.2249 216.216 32.6949 218.274 33.7506L219.926 30.5305ZM216.52 27.4524C215.751 26.1891 215.34 24.6894 215.34 22.8925H211.721C211.721 25.267 212.273 27.4344 213.429 29.334L216.52 27.4524ZM215.34 22.8925C215.34 20.9972 215.669 19.3142 216.298 17.819L212.963 16.4146C212.126 18.4031 211.721 20.5707 211.721 22.8925H215.34ZM216.302 17.8112C216.943 16.267 217.837 14.9517 218.982 13.8461L216.468 11.2427C214.954 12.7041 213.785 14.437 212.96 16.4224L216.302 17.8112ZM218.993 13.8349C220.137 12.7106 221.506 11.8327 223.123 11.2062L221.815 7.83181C219.765 8.62634 217.971 9.76534 216.457 11.2538L218.993 13.8349ZM223.116 11.2089C224.745 10.5854 226.552 10.2627 228.554 10.2627V6.64381C226.157 6.64381 223.906 7.03156 221.822 7.8291L223.116 11.2089ZM228.554 10.2627C230.808 10.2627 232.644 10.6797 234.123 11.4385L235.775 8.21835C233.679 7.14359 231.251 6.64381 228.554 6.64381V10.2627ZM234.14 11.4468C235.648 12.2011 236.757 13.2145 237.529 14.4822L240.62 12.6006C239.466 10.7053 237.825 9.24341 235.758 8.21001L234.14 11.4468ZM237.529 14.4822C238.298 15.7455 238.709 17.2452 238.709 19.042H242.328C242.328 16.6676 241.776 14.5001 240.62 12.6006L237.529 14.4822ZM238.709 19.042C238.709 20.937 238.38 22.6347 237.747 24.1577L241.089 25.5465C241.923 23.5399 242.328 21.3643 242.328 19.042H238.709ZM237.751 24.15C237.109 25.6744 236.212 26.9978 235.056 28.134L237.592 30.7151C239.095 29.2385 240.261 27.5136 241.086 25.5543L237.751 24.15ZM235.067 28.1229C233.926 29.2247 232.545 30.0955 230.899 30.7257L232.192 34.1055C234.259 33.3146 236.063 32.1914 237.581 30.7263L235.067 28.1229ZM230.892 30.7284C229.29 31.349 227.498 31.6719 225.495 31.6719V35.2907C227.892 35.2907 230.134 34.9031 232.199 34.1027L230.892 30.7284ZM226.079 29.6526C227.493 29.6526 228.82 29.3934 230.018 28.8243L228.466 25.5555C227.83 25.8573 227.049 26.0337 226.079 26.0337V29.6526ZM230.003 28.8316C231.182 28.2851 232.192 27.5123 233.011 26.5181L230.217 24.2175C229.753 24.7818 229.181 25.2237 228.481 25.5482L230.003 28.8316ZM233.007 26.5223C233.815 25.547 234.426 24.4474 234.839 23.2357L231.414 22.068C231.14 22.8733 230.742 23.5843 230.221 24.2134L233.007 26.5223ZM234.839 23.2357C235.251 22.0293 235.452 20.7654 235.452 19.4546H231.833C231.833 20.3898 231.69 21.2575 231.414 22.068L234.839 23.2357ZM235.452 19.4546C235.452 18.1152 235.165 16.8557 234.526 15.7378L231.384 17.5332C231.662 18.0196 231.833 18.6395 231.833 19.4546H235.452ZM234.545 15.7722C233.928 14.6354 233.013 13.7633 231.856 13.1694L230.203 16.3886C230.743 16.6656 231.111 17.0312 231.365 17.4988L234.545 15.7722ZM231.908 13.1973C230.748 12.5527 229.406 12.282 227.97 12.282V15.9009C228.963 15.9009 229.661 16.0886 230.151 16.3607L231.908 13.1973ZM227.97 12.282C226.572 12.282 225.253 12.5436 224.046 13.1029L225.568 16.3864C226.24 16.0748 227.03 15.9009 227.97 15.9009V12.282ZM224.046 13.1029C222.861 13.6524 221.843 14.4383 221.007 15.4467L223.794 17.7556C224.288 17.1596 224.874 16.7078 225.568 16.3864L224.046 13.1029ZM221.004 15.4508C220.216 16.4075 219.62 17.4956 219.21 18.6988L222.635 19.8666C222.912 19.0528 223.302 18.3532 223.797 17.7514L221.004 15.4508ZM219.21 18.6988C218.798 19.9052 218.597 21.1691 218.597 22.48H222.216C222.216 21.5447 222.359 20.6771 222.635 19.8666L219.21 18.6988ZM218.597 22.48C218.597 23.7899 218.87 25.026 219.459 26.1436L222.66 24.4545C222.379 23.9219 222.216 23.2786 222.216 22.48H218.597ZM219.489 26.1968C220.115 27.2924 220.999 28.1564 222.106 28.7716L223.864 25.6082C223.321 25.3066 222.921 24.9101 222.631 24.4013L219.489 26.1968ZM222.158 28.7995C223.323 29.3974 224.654 29.6526 226.079 29.6526V26.0337C225.075 26.0337 224.343 25.8534 223.811 25.5803L222.158 28.7995ZM241.574 33L239.8 32.6451L239.367 34.8094H241.574V33ZM246.387 8.93455V7.12512H244.904L244.613 8.57969L246.387 8.93455ZM263.817 10.9629L262.68 12.3702L262.689 12.3777L263.817 10.9629ZM264.883 21.8955L263.367 20.9078L263.363 20.9135L264.883 21.8955ZM260.757 25.3678L259.999 23.7249L259.999 23.7249L260.757 25.3678ZM246.628 26.6055L245.489 25.1991L241.517 28.4149H246.628V26.6055ZM250.237 23.6832L252.012 24.0368L252.99 19.1266L249.099 22.2769L250.237 23.6832ZM248.381 33V34.8094H249.865L250.155 33.3536L248.381 33ZM256.666 33L255.088 33.885L255.607 34.8094H256.666V33ZM251.75 24.2333V22.4239H248.661L250.172 25.1183L251.75 24.2333ZM258.798 24.2333L260.371 23.3389L259.85 22.4239H258.798V24.2333ZM263.783 33V34.8094H266.893L265.356 32.1056L263.783 33ZM250.066 24.474L248.624 25.5672L251.044 28.7588L251.839 24.8332L250.066 24.474ZM247.693 21.3454V19.536H244.051L246.252 22.4387L247.693 21.3454ZM258.248 20.2797L259.428 21.6508L259.428 21.6508L258.248 20.2797ZM258.488 15.0197L257.427 16.4852L257.427 16.4852L258.488 15.0197ZM249.137 14.2977L247.937 12.9439L244.37 16.1071H249.137V14.2977ZM252.781 11.0661L254.555 11.4253L255.629 6.12243L251.581 9.71227L252.781 11.0661ZM243.348 33.3549L248.161 9.28941L244.613 8.57969L239.8 32.6451L243.348 33.3549ZM246.387 10.744H256.666V7.12512H246.387V10.744ZM256.666 10.744C259.523 10.744 261.444 11.371 262.68 12.3702L264.955 9.55566C262.845 7.85032 259.998 7.12512 256.666 7.12512V10.744ZM262.689 12.3777C263.904 13.346 264.552 14.6767 264.552 16.6011H268.171C268.171 13.7125 267.123 11.2843 264.945 9.54813L262.689 12.3777ZM264.552 16.6011C264.552 18.3098 264.139 19.7226 263.367 20.9078L266.399 22.8832C267.598 21.043 268.171 18.9262 268.171 16.6011H264.552ZM263.363 20.9135C262.607 22.0842 261.511 23.0272 259.999 23.7249L261.516 27.0107C263.579 26.0583 265.234 24.6864 266.403 22.8775L263.363 20.9135ZM259.999 23.7249C258.498 24.4178 256.659 24.796 254.432 24.796V28.4149C257.063 28.4149 259.441 27.9681 261.516 27.0107L259.999 23.7249ZM254.432 24.796H246.628V28.4149H254.432V24.796ZM247.766 28.0118L251.376 25.0896L249.099 22.2769L245.489 25.1991L247.766 28.0118ZM248.463 23.3296L246.606 32.6464L250.155 33.3536L252.012 24.0368L248.463 23.3296ZM248.381 31.1906H241.574V34.8094H248.381V31.1906ZM258.245 32.115L253.328 23.3483L250.172 25.1183L255.088 33.885L258.245 32.115ZM251.75 26.0427H258.798V22.4239H251.75V26.0427ZM257.225 25.1277L262.21 33.8944L265.356 32.1056L260.371 23.3389L257.225 25.1277ZM263.783 31.1906H256.666V34.8094H263.783V31.1906ZM251.507 23.3807L249.135 20.2522L246.252 22.4387L248.624 25.5672L251.507 23.3807ZM247.693 23.1549H254.741V19.536H247.693V23.1549ZM254.741 23.1549C256.519 23.1549 258.167 22.7372 259.428 21.6508L257.067 18.9086C256.678 19.2432 255.988 19.536 254.741 19.536V23.1549ZM259.428 21.6508C260.733 20.5278 261.295 18.972 261.295 17.2543H257.676C257.676 18.1494 257.413 18.6106 257.067 18.9086L259.428 21.6508ZM261.295 17.2543C261.295 15.8147 260.793 14.4547 259.55 13.5541L257.427 16.4852C257.513 16.5473 257.676 16.677 257.676 17.2543H261.295ZM259.55 13.5541C258.465 12.7687 257.111 12.4883 255.704 12.4883V16.1071C256.68 16.1071 257.182 16.308 257.427 16.4852L259.55 13.5541ZM255.704 12.4883H249.137V16.1071H255.704V12.4883ZM250.338 15.6515L253.982 12.4199L251.581 9.71227L247.937 12.9439L250.338 15.6515ZM251.008 10.7068L248.292 24.1147L251.839 24.8332L254.555 11.4253L251.008 10.7068ZM267.023 33L265.248 32.6451L264.815 34.8094H267.023V33ZM271.836 8.93455V7.12512H270.352L270.061 8.57969L271.836 8.93455ZM290.229 10.4129L289.197 11.8997L289.205 11.9054L289.214 11.9109L290.229 10.4129ZM291.122 18.3545L289.709 17.2241L289.709 17.2241L291.122 18.3545ZM287.788 20.7266L288.426 22.4197L288.438 22.4151L288.45 22.4104L287.788 20.7266ZM283.078 21.5173L281.515 20.6056L279.927 23.3268H283.078V21.5173ZM284.04 19.8671V18.0577H283.001L282.477 18.9554L284.04 19.8671ZM289.335 21.3111L288.261 22.7678L288.261 22.7678L289.335 21.3111ZM289.816 29.6652L288.456 28.4717L288.449 28.4797L288.442 28.4877L289.816 29.6652ZM285.862 32.1749L285.297 30.456L285.29 30.4583L285.862 32.1749ZM274.723 28.0838L272.949 27.7281L272.515 29.8932H274.723V28.0838ZM283.456 27.3618L282.441 25.8637L282.43 25.8715L282.418 25.8795L283.456 27.3618ZM283.731 23.6832L284.672 22.1376L284.672 22.1376L283.731 23.6832ZM275.136 23.2019L273.361 22.8521L272.935 25.0114H275.136V23.2019ZM276.064 18.492V16.6825H274.577L274.289 18.1421L276.064 18.492ZM283.559 18.1826L282.946 16.4801L282.935 16.4841L282.924 16.4883L283.559 18.1826ZM284.831 17.2543L286.337 18.258L286.337 18.258L284.831 17.2543ZM284.487 14.2977L285.408 12.7399L285.408 12.7399L284.487 14.2977ZM277.577 13.8508V12.0413H276.094L275.803 13.4951L277.577 13.8508ZM268.797 33.3549L273.61 9.28941L270.061 8.57969L265.248 32.6451L268.797 33.3549ZM271.836 10.744H284.006V7.12512H271.836V10.744ZM284.006 10.744C286.561 10.744 288.208 11.2136 289.197 11.8997L291.26 8.92602C289.407 7.64101 286.905 7.12512 284.006 7.12512V10.744ZM289.214 11.9109C290.106 12.5155 290.551 13.3231 290.551 14.5727H294.169C294.169 12.2011 293.193 10.2355 291.243 8.9148L289.214 11.9109ZM290.551 14.5727C290.551 15.7072 290.245 16.5544 289.709 17.2241L292.535 19.4848C293.65 18.0918 294.169 16.4179 294.169 14.5727H290.551ZM289.709 17.2241C289.108 17.9762 288.27 18.5923 287.125 19.0428L288.45 22.4104C290.101 21.7608 291.487 20.7954 292.535 19.4848L289.709 17.2241ZM287.149 19.0335C285.986 19.4721 284.637 19.7079 283.078 19.7079V23.3268C285.002 23.3268 286.793 23.0354 288.426 22.4197L287.149 19.0335ZM284.641 22.4291L285.603 20.7789L282.477 18.9554L281.515 20.6056L284.641 22.4291ZM284.04 21.6766C286.017 21.6766 287.362 22.1054 288.261 22.7678L290.408 19.8544C288.694 18.5915 286.509 18.0577 284.04 18.0577V21.6766ZM288.261 22.7678C289.067 23.3612 289.485 24.1517 289.485 25.3678H293.104C293.104 23.1002 292.216 21.1862 290.408 19.8544L288.261 22.7678ZM289.485 25.3678C289.485 26.7476 289.105 27.7325 288.456 28.4717L291.176 30.8587C292.498 29.3518 293.104 27.4718 293.104 25.3678H289.485ZM288.442 28.4877C287.732 29.3156 286.717 29.9893 285.297 30.456L286.427 33.8938C288.354 33.2604 289.974 32.2609 291.19 30.8428L288.442 28.4877ZM285.29 30.4583C283.857 30.9361 282.187 31.1906 280.259 31.1906V34.8094C282.501 34.8094 284.567 34.5139 286.435 33.8915L285.29 30.4583ZM280.259 31.1906H267.023V34.8094H280.259V31.1906ZM274.723 29.8932H280.637V26.2743H274.723V29.8932ZM280.637 29.8932C282.05 29.8932 283.398 29.6107 284.493 28.8442L282.418 25.8795C282.138 26.0755 281.607 26.2743 280.637 26.2743V29.8932ZM284.471 28.8599C285.731 28.0059 286.331 26.7031 286.331 25.2303H282.712C282.712 25.6369 282.601 25.7551 282.441 25.8637L284.471 28.8599ZM286.331 25.2303C286.331 24.0015 285.828 22.8417 284.672 22.1376L282.79 25.2288C282.794 25.2313 282.781 25.224 282.762 25.2033C282.742 25.1821 282.725 25.1574 282.713 25.1341C282.701 25.1118 282.701 25.1023 282.703 25.1142C282.706 25.1273 282.712 25.1639 282.712 25.2303H286.331ZM284.672 22.1376C283.781 21.5954 282.751 21.3925 281.702 21.3925V25.0114C282.304 25.0114 282.627 25.1294 282.79 25.2288L284.672 22.1376ZM281.702 21.3925H275.136V25.0114H281.702V21.3925ZM276.911 23.5518L277.84 18.8418L274.289 18.1421L273.361 22.8521L276.911 23.5518ZM276.064 20.3014H281.531V16.6825H276.064V20.3014ZM281.531 20.3014C282.476 20.3014 283.382 20.1815 284.194 19.8768L282.924 16.4883C282.636 16.5962 282.19 16.6825 281.531 16.6825V20.3014ZM284.172 19.885C285.025 19.578 285.801 19.0608 286.337 18.258L283.325 16.2506C283.311 16.2729 283.239 16.3746 282.946 16.4801L284.172 19.885ZM286.337 18.258C286.847 17.4927 287.053 16.6216 287.053 15.7416H283.434C283.434 16.0535 283.365 16.1908 283.325 16.2506L286.337 18.258ZM287.053 15.7416C287.053 14.5403 286.546 13.4127 285.408 12.7399L283.567 15.8555C283.565 15.8545 283.546 15.8426 283.52 15.8158C283.493 15.7883 283.469 15.7554 283.452 15.7217C283.415 15.6517 283.434 15.6373 283.434 15.7416H287.053ZM285.408 12.7399C284.515 12.2124 283.451 12.0413 282.39 12.0413V15.6602C283.117 15.6602 283.451 15.7871 283.567 15.8555L285.408 12.7399ZM282.39 12.0413H277.577V15.6602H282.39V12.0413ZM275.803 13.4951L272.949 27.7281L276.498 28.4395L279.351 14.2065L275.803 13.4951ZM293.445 33L291.671 32.6451L291.238 34.8094H293.445V33ZM298.258 8.93455V7.12512H296.775L296.484 8.57969L298.258 8.93455ZM305.065 8.93455L306.839 9.28941L307.272 7.12512H305.065V8.93455ZM300.252 33V34.8094H301.735L302.026 33.3549L300.252 33ZM295.219 33.3549L300.032 9.28941L296.484 8.57969L291.671 32.6451L295.219 33.3549ZM298.258 10.744H305.065V7.12512H298.258V10.744ZM303.291 8.57969L298.478 32.6451L302.026 33.3549L306.839 9.28941L303.291 8.57969ZM300.252 31.1906H293.445V34.8094H300.252V31.1906ZM310.183 33L308.409 32.6439L307.974 34.8094H310.183V33ZM313.93 14.3321L315.704 14.6882L316.139 12.5227H313.93V14.3321ZM306.539 14.3321L304.766 13.9707L304.323 16.1415H306.539V14.3321ZM307.639 8.93455V7.12512H306.161L305.866 8.57318L307.639 8.93455ZM329.195 8.93455L330.968 9.29592L331.41 7.12512H329.195V8.93455ZM328.095 14.3321V16.1415H329.572L329.867 14.6935L328.095 14.3321ZM320.737 14.3321V12.5227H319.255L318.963 13.976L320.737 14.3321ZM316.99 33V34.8094H318.472L318.764 33.3561L316.99 33ZM311.957 33.3561L315.704 14.6882L312.156 13.976L308.409 32.6439L311.957 33.3561ZM313.93 12.5227H306.539V16.1415H313.93V12.5227ZM308.312 14.6935L309.412 9.29592L305.866 8.57318L304.766 13.9707L308.312 14.6935ZM307.639 10.744H329.195V7.12512H307.639V10.744ZM327.422 8.57318L326.322 13.9707L329.867 14.6935L330.968 9.29592L327.422 8.57318ZM328.095 12.5227H320.737V16.1415H328.095V12.5227ZM318.963 13.976L315.216 32.6439L318.764 33.3561L322.511 14.6882L318.963 13.976ZM316.99 31.1906H310.183V34.8094H316.99V31.1906ZM335.074 32.1749L334.37 33.842L334.37 33.842L335.074 32.1749ZM331.223 29.5965L329.93 30.8627L329.937 30.8693L329.944 30.8759L331.223 29.5965ZM328.645 25.7116L326.968 26.3926L326.973 26.4038L326.977 26.4149L328.645 25.7116ZM328.679 16.2229L330.346 16.9263L330.346 16.9263L328.679 16.2229ZM331.257 12.3725L332.537 13.6519L332.543 13.6453L332.55 13.6387L331.257 12.3725ZM335.108 9.75965L334.414 8.08862L334.405 8.09251L335.108 9.75965ZM344.7 9.75965L343.996 11.4268L344.012 11.4334L344.028 11.4397L344.7 9.75965ZM348.55 12.3037L347.257 13.5696L347.264 13.5764L347.271 13.5832L348.55 12.3037ZM351.094 16.1542L349.418 16.8352L349.424 16.8511L349.431 16.867L351.094 16.1542ZM351.094 25.7116L352.761 26.4149L352.765 26.4057L351.094 25.7116ZM348.481 29.5965L349.761 30.8759L349.761 30.8759L348.481 29.5965ZM344.631 32.1749L343.928 30.5078L343.928 30.5078L344.631 32.1749ZM342.568 27.5337L341.05 28.518L341.585 29.3431H342.568V27.5337ZM339.337 22.5487V20.7393H336.007L337.818 23.533L339.337 22.5487ZM343.634 22.5487L345.152 21.5644L344.617 20.7393H343.634V22.5487ZM346.866 27.5337V29.3431H350.195L348.384 26.5494L346.866 27.5337ZM343.565 29.7684L344.266 31.4366L344.28 31.4307L344.294 31.4246L343.565 29.7684ZM346.556 27.74L347.836 29.0194L347.844 29.0109L347.853 29.0023L346.556 27.74ZM348.516 24.6802L346.843 23.9913L346.837 24.0054L346.831 24.0196L348.516 24.6802ZM348.55 17.1512L346.866 17.8118L346.87 17.8232L348.55 17.1512ZM343.668 12.1662L342.968 13.8345L342.982 13.8405L342.996 13.8462L343.668 12.1662ZM336.174 12.1662L336.874 13.8345L336.874 13.8345L336.174 12.1662ZM333.183 14.1946L331.886 12.9323L331.886 12.9323L333.183 14.1946ZM331.223 17.2199L329.543 16.5479L329.543 16.5479L331.223 17.2199ZM331.223 24.7146L329.538 25.3752L329.538 25.3752L331.223 24.7146ZM333.148 27.7744L331.835 29.0188L331.852 29.0365L331.869 29.0538L333.148 27.7744ZM336.105 29.7684L335.392 31.4315L335.404 31.4366L336.105 29.7684ZM334.386 27.5337H332.576V29.3431H334.386V27.5337ZM334.386 14.4008V12.5914H332.576V14.4008H334.386ZM344.734 15.7073L343.567 17.0897L343.583 17.1037L343.6 17.1172L344.734 15.7073ZM344.734 22.755L345.845 24.1833L345.849 24.1799L344.734 22.755ZM338.649 23.9583V22.1488H336.84V23.9583H338.649ZM338.649 27.5337V29.3431H340.458V27.5337H338.649ZM338.615 20.9329H336.805V22.7423H338.615V20.9329ZM341.571 20.486L342.756 21.8533L342.763 21.8477L341.571 20.486ZM341.571 17.8731L340.386 19.2405L340.408 19.2593L340.43 19.2775L341.571 17.8731ZM338.615 17.4262V15.6168H336.805V17.4262H338.615ZM339.852 31.2937C338.355 31.2937 337.004 31.0254 335.777 30.5078L334.37 33.842C336.077 34.5621 337.911 34.9126 339.852 34.9126V31.2937ZM335.777 30.5078C334.52 29.9776 333.434 29.248 332.502 28.317L329.944 30.8759C331.213 32.1452 332.693 33.1346 334.37 33.842L335.777 30.5078ZM332.516 28.3303C331.577 27.3717 330.843 26.2684 330.312 25.0083L326.977 26.4149C327.684 28.0886 328.669 29.5751 329.93 30.8627L332.516 28.3303ZM330.321 25.0306C329.819 23.7951 329.56 22.4466 329.56 20.9673H325.941C325.941 22.88 326.278 24.6945 326.968 26.3926L330.321 25.0306ZM329.56 20.9673C329.56 19.4968 329.827 18.1562 330.346 16.9263L327.012 15.5196C326.293 17.2233 325.941 19.0456 325.941 20.9673H329.56ZM330.346 16.9263C330.876 15.6696 331.606 14.583 332.537 13.6519L329.978 11.093C328.709 12.3622 327.719 13.8426 327.012 15.5196L330.346 16.9263ZM332.55 13.6387C333.48 12.6892 334.563 11.9536 335.811 11.4268L334.405 8.09251C332.72 8.80338 331.235 9.80961 329.965 11.1063L332.55 13.6387ZM335.802 11.4307C337.058 10.9091 338.424 10.6408 339.921 10.6408V7.02198C337.98 7.02198 336.138 7.37256 334.414 8.08865L335.802 11.4307ZM339.921 10.6408C341.418 10.6408 342.769 10.9092 343.996 11.4268L345.403 8.0925C343.696 7.3725 341.862 7.02198 339.921 7.02198V10.6408ZM344.028 11.4397C345.294 11.9462 346.363 12.6567 347.257 13.5696L349.843 11.0378C348.582 9.75041 347.085 8.76491 345.372 8.07964L344.028 11.4397ZM347.271 13.5832C348.197 14.5093 348.911 15.5883 349.418 16.8352L352.771 15.4732C352.085 13.7864 351.104 12.2984 349.83 11.0243L347.271 13.5832ZM349.431 16.867C349.945 18.0652 350.213 19.4013 350.213 20.8985H353.832C353.832 18.9578 353.481 17.131 352.757 15.4414L349.431 16.867ZM350.213 20.8985C350.213 22.3951 349.945 23.7619 349.423 25.0175L352.765 26.4057C353.481 24.6818 353.832 22.8399 353.832 20.8985H350.213ZM349.427 25.0083C348.899 26.2604 348.159 27.3596 347.202 28.317L349.761 30.8759C351.05 29.5872 352.052 28.0965 352.761 26.4149L349.427 25.0083ZM347.202 28.317C346.271 29.248 345.184 29.9776 343.928 30.5078L345.334 33.842C347.011 33.1346 348.492 32.1452 349.761 30.8759L347.202 28.317ZM343.928 30.5078C342.701 31.0254 341.349 31.2937 339.852 31.2937V34.9126C341.793 34.9126 343.628 34.5621 345.334 33.842L343.928 30.5078ZM344.086 26.5494L340.855 21.5644L337.818 23.533L341.05 28.518L344.086 26.5494ZM339.337 24.3582H343.634V20.7393H339.337V24.3582ZM342.116 23.533L345.347 28.518L348.384 26.5494L345.152 21.5644L342.116 23.533ZM346.866 25.7243H342.568V29.3431H346.866V25.7243ZM339.818 32.2997C341.389 32.2997 342.879 32.019 344.266 31.4366L342.864 28.1001C341.959 28.4803 340.951 28.6809 339.818 28.6809V32.2997ZM344.294 31.4246C345.636 30.834 346.822 30.033 347.836 29.0194L345.277 26.4605C344.594 27.143 343.786 27.6942 342.836 28.1122L344.294 31.4246ZM347.853 29.0023C348.874 27.9529 349.657 26.7266 350.2 25.3408L346.831 24.0196C346.458 24.9716 345.934 25.7852 345.26 26.4777L347.853 29.0023ZM350.189 25.3692C350.766 23.9668 351.047 22.4704 351.047 20.8985H347.428C347.428 22.0311 347.228 23.0558 346.843 23.9913L350.189 25.3692ZM351.047 20.8985C351.047 19.3382 350.782 17.8585 350.23 16.4792L346.87 17.8232C347.235 18.7358 347.428 19.7544 347.428 20.8985H351.047ZM350.235 16.4906C349.694 15.1114 348.925 13.895 347.922 12.864L345.328 15.3876C345.975 16.0526 346.49 16.8532 346.866 17.8118L350.235 16.4906ZM347.922 12.864C346.912 11.8265 345.711 11.0345 344.34 10.4862L342.996 13.8462C343.917 14.2146 344.687 14.7291 345.328 15.3876L347.922 12.864ZM344.369 10.4979C342.982 9.91553 341.493 9.6348 339.921 9.6348V13.2537C341.054 13.2537 342.062 13.4542 342.968 13.8345L344.369 10.4979ZM339.921 9.6348C338.349 9.6348 336.86 9.91553 335.473 10.4979L336.874 13.8345C337.78 13.4542 338.788 13.2537 339.921 13.2537V9.6348ZM335.473 10.4979C334.108 11.0711 332.907 11.8835 331.886 12.9323L334.479 15.4569C335.154 14.7638 335.947 14.2239 336.874 13.8345L335.473 10.4979ZM331.886 12.9323C330.87 13.9756 330.088 15.1854 329.543 16.5479L332.903 17.8919C333.275 16.9625 333.799 16.1554 334.479 15.4569L331.886 12.9323ZM329.543 16.5479C328.991 17.9272 328.726 19.4069 328.726 20.9673H332.345C332.345 19.8231 332.538 18.8046 332.903 17.8919L329.543 16.5479ZM328.726 20.9673C328.726 22.5092 328.993 23.9837 329.538 25.3752L332.908 24.054C332.536 23.1077 332.345 22.084 332.345 20.9673H328.726ZM329.538 25.3752C330.078 26.7505 330.842 27.9711 331.835 29.0188L334.462 26.5299C333.804 25.8357 333.285 25.0165 332.908 24.054L329.538 25.3752ZM331.869 29.0538C332.883 30.0677 334.062 30.8612 335.392 31.4315L336.818 28.1052C335.902 27.7128 335.11 27.177 334.428 26.4949L331.869 29.0538ZM335.404 31.4366C336.787 32.0174 338.265 32.2997 339.818 32.2997V28.6809C338.712 28.6809 337.715 28.4819 336.806 28.1001L335.404 31.4366ZM336.195 27.5337V14.4008H332.576V27.5337H336.195ZM334.386 16.2103H340.368V12.5914H334.386V16.2103ZM340.368 16.2103C341.986 16.2103 342.97 16.5856 343.567 17.0897L345.901 14.3248C344.436 13.0871 342.508 12.5914 340.368 12.5914V16.2103ZM343.6 17.1172C344.188 17.59 344.506 18.208 344.506 19.1796H348.125C348.125 17.2175 347.389 15.5206 345.868 14.2973L343.6 17.1172ZM344.506 19.1796C344.506 20.2845 344.16 20.9067 343.619 21.3301L345.849 24.1799C347.417 22.9531 348.125 21.1917 348.125 19.1796H344.506ZM343.623 21.3267C343.022 21.7941 342.016 22.1488 340.368 22.1488V25.7677C342.479 25.7677 344.383 25.3202 345.845 24.1833L343.623 21.3267ZM340.368 22.1488H338.649V25.7677H340.368V22.1488ZM336.84 23.9583V27.5337H340.458V23.9583H336.84ZM338.649 25.7243H334.386V29.3431H338.649V25.7243ZM338.615 22.7423H340.093V19.1235H338.615V22.7423ZM340.093 22.7423C340.993 22.7423 341.971 22.5342 342.756 21.8533L340.386 19.1186C340.43 19.0802 340.455 19.0786 340.42 19.0892C340.379 19.1015 340.278 19.1235 340.093 19.1235V22.7423ZM342.763 21.8477C343.575 21.1368 343.931 20.1765 343.931 19.1796H340.312C340.312 19.2526 340.3 19.2545 340.316 19.2165C340.324 19.1986 340.335 19.1787 340.348 19.1596C340.362 19.1407 340.374 19.129 340.38 19.1242L342.763 21.8477ZM343.931 19.1796C343.931 18.1897 343.592 17.1837 342.712 16.4688L340.43 19.2775C340.411 19.2615 340.387 19.2383 340.364 19.2081C340.342 19.1778 340.326 19.1486 340.316 19.1254C340.297 19.0789 340.312 19.0842 340.312 19.1796H343.931ZM342.756 16.5058C341.971 15.8249 340.993 15.6168 340.093 15.6168V19.2356C340.278 19.2356 340.379 19.2576 340.42 19.27C340.455 19.2805 340.43 19.2789 340.386 19.2405L342.756 16.5058ZM340.093 15.6168H338.615V19.2356H340.093V15.6168ZM336.805 17.4262V20.9329H340.424V17.4262H336.805ZM350.436 38.3975L348.81 37.6034L347.539 40.207H350.436V38.3975ZM354.802 29.4589L356.584 29.1409L355.609 23.6844L353.176 28.6648L354.802 29.4589ZM355.49 33.3094V35.1188H357.651L357.271 32.9913L355.49 33.3094ZM352.808 32.3124L351.529 33.5919L351.54 33.6027L351.551 33.6134L352.808 32.3124ZM353.015 26.7086L351.792 25.3748L351.792 25.3748L353.015 26.7086ZM358.618 26.5711L357.339 27.8505L357.35 27.8614L357.361 27.872L358.618 26.5711ZM359.34 30.7654L357.666 30.0802L357.666 30.0802L359.34 30.7654ZM358.24 32.6562L356.756 31.6216L356.738 31.6473L356.721 31.6736L358.24 32.6562ZM354.527 38.3975V40.207H355.512L356.047 39.3801L354.527 38.3975ZM352.062 39.1917L356.428 30.2531L353.176 28.6648L348.81 37.6034L352.062 39.1917ZM353.021 29.777L353.709 33.6275L357.271 32.9913L356.584 29.1409L353.021 29.777ZM355.49 31.5C354.783 31.5 354.365 31.3006 354.066 31.0115L351.551 33.6134C352.627 34.6535 353.997 35.1188 355.49 35.1188V31.5ZM354.088 31.033C353.762 30.7069 353.586 30.3178 353.586 29.734H349.968C349.968 31.2129 350.48 32.5428 351.529 33.5919L354.088 31.033ZM353.586 29.734C353.586 28.9098 353.835 28.4109 354.237 28.0424L351.792 25.3748C350.544 26.519 349.968 28.037 349.968 29.734H353.586ZM354.237 28.0424C354.72 27.6 355.266 27.3835 355.971 27.3835V23.7647C354.384 23.7647 352.959 24.3046 351.792 25.3748L354.237 28.0424ZM355.971 27.3835C356.68 27.3835 357.071 27.5829 357.339 27.8505L359.898 25.2916C358.836 24.23 357.463 23.7647 355.971 23.7647V27.3835ZM357.361 27.872C357.658 28.1591 357.84 28.5303 357.84 29.1495H361.459C361.459 27.6602 360.954 26.3124 359.876 25.2701L357.361 27.872ZM357.84 29.1495C357.84 29.4999 357.778 29.8046 357.666 30.0802L361.015 31.4505C361.315 30.7176 361.459 29.9451 361.459 29.1495H357.84ZM357.666 30.0802C357.533 30.4057 357.251 30.9105 356.756 31.6216L359.725 33.6908C360.283 32.8892 360.736 32.1335 361.015 31.4505L357.666 30.0802ZM356.721 31.6736L353.008 37.4149L356.047 39.3801L359.76 33.6388L356.721 31.6736ZM354.527 36.5881H350.436V40.207H354.527V36.5881ZM10.7269 76L8.95256 75.6451L8.5197 77.8094H10.7269V76ZM15.5399 51.9346V50.1251H14.0566L13.7656 51.5797L15.5399 51.9346ZM22.2439 51.9346L24.0158 52.301L24.4658 50.1251H22.2439V51.9346ZM19.3217 66.0644L17.5497 65.6979L16.2003 72.2227L20.6648 67.2768L19.3217 66.0644ZM32.0763 51.9346V50.1251H31.2721L30.7332 50.7221L32.0763 51.9346ZM38.574 51.9346L40.3483 52.2894L40.7812 50.1251H38.574V51.9346ZM33.7609 76V77.8094H35.2443L35.5352 76.3549L33.7609 76ZM27.057 76L25.2852 75.6327L24.8339 77.8094H27.057V76ZM29.9792 61.9045L31.751 62.2718L33.1016 55.7572L28.6375 60.6905L29.9792 61.9045ZM17.2245 76V77.8094H18.0275L18.5662 77.2141L17.2245 76ZM12.5011 76.3549L17.3142 52.2894L13.7656 51.5797L8.95256 75.6451L12.5011 76.3549ZM15.5399 53.744H22.2439V50.1251H15.5399V53.744ZM20.472 51.5681L17.5497 65.6979L21.0936 66.4309L24.0158 52.301L20.472 51.5681ZM20.6648 67.2768L33.4195 53.147L30.7332 50.7221L17.9785 64.852L20.6648 67.2768ZM32.0763 53.744H38.574V50.1251H32.0763V53.744ZM36.7997 51.5797L31.9866 75.6451L35.5352 76.3549L40.3483 52.2894L36.7997 51.5797ZM33.7609 74.1906H27.057V77.8094H33.7609V74.1906ZM28.8287 76.3673L31.751 62.2718L28.2075 61.5372L25.2852 75.6327L28.8287 76.3673ZM28.6375 60.6905L15.8828 74.7859L18.5662 77.2141L31.3209 63.1186L28.6375 60.6905ZM17.2245 74.1906H10.7269V77.8094H17.2245V74.1906ZM38.9285 76L37.1543 75.6451L36.7214 77.8094H38.9285V76ZM43.7416 51.9346V50.1251H42.2583L41.9673 51.5797L43.7416 51.9346ZM61.3438 51.9346L63.119 52.2851L63.5454 50.1251H61.3438V51.9346ZM60.278 57.3321V59.1415H61.7651L62.0532 57.6826L60.278 57.3321ZM47.764 57.3321L46.5952 55.9508L42.8244 59.1415H47.764V57.3321ZM49.5517 55.8194L51.328 56.1644L52.3083 51.1167L48.3829 54.4381L49.5517 55.8194ZM45.6325 76V77.8094H47.1243L47.4087 76.345L45.6325 76ZM40.7028 76.3549L45.5159 52.2894L41.9673 51.5797L37.1543 75.6451L40.7028 76.3549ZM43.7416 53.744H61.3438V50.1251H43.7416V53.744ZM59.5686 51.584L58.5029 56.9816L62.0532 57.6826L63.119 52.2851L59.5686 51.584ZM60.278 55.5227H47.764V59.1415H60.278V55.5227ZM48.9328 58.7134L50.7205 57.2007L48.3829 54.4381L46.5952 55.9508L48.9328 58.7134ZM47.7755 55.4744L43.8562 75.655L47.4087 76.345L51.328 56.1644L47.7755 55.4744ZM45.6325 74.1906H38.9285V77.8094H45.6325V74.1906ZM59.4715 76L57.6972 75.6451L57.2643 77.8094H59.4715V76ZM64.2846 51.9346V50.1251H62.8012L62.5103 51.5797L64.2846 51.9346ZM81.6804 53.9629L82.8085 52.5481L82.8085 52.5481L81.6804 53.9629ZM82.7806 64.9643L81.254 63.9928L81.254 63.9928L82.7806 64.9643ZM78.6551 68.471L79.4133 70.1138L78.6551 68.471ZM64.5252 69.7086L63.363 68.3218L59.5493 71.518H64.5252V69.7086ZM68.135 66.6832L69.9096 67.0368L70.9147 61.9928L66.9728 65.2964L68.135 66.6832ZM66.2786 76V77.8094H67.763L68.0531 76.3536L66.2786 76ZM67.9631 67.474L66.5213 68.5672L68.9493 71.7694L69.7374 67.8288L67.9631 67.474ZM65.591 64.3454V62.536H61.9482L64.1491 65.4387L65.591 64.3454ZM76.111 63.2797L77.2917 64.6508L77.2917 64.6508L76.111 63.2797ZM76.3517 58.0197L75.2904 59.4852L75.2904 59.4852L76.3517 58.0197ZM67.0349 57.2977L65.828 55.9496L62.3009 59.1071H67.0349V57.2977ZM70.6447 54.0661L72.419 54.4209L73.4841 49.0956L69.4378 52.7179L70.6447 54.0661ZM61.2458 76.3549L66.0589 52.2894L62.5103 51.5797L57.6972 75.6451L61.2458 76.3549ZM64.2846 53.744H74.4608V50.1251H64.2846V53.744ZM74.4608 53.744C77.3424 53.744 79.2908 54.3718 80.5524 55.3777L82.8085 52.5481C80.678 50.8496 77.8133 50.1251 74.4608 50.1251V53.744ZM80.5524 55.3777C81.758 56.3389 82.4151 57.6868 82.4151 59.6699H86.0339C86.0339 56.7482 84.995 54.2915 82.8085 52.5481L80.5524 55.3777ZM82.4151 59.6699C82.4151 61.3869 82.0095 62.8057 81.254 63.9928L84.3071 65.9357C85.4769 64.0975 86.0339 61.9867 86.0339 59.6699H82.4151ZM81.254 63.9928C80.4959 65.1842 79.4014 66.1336 77.8968 66.8281L79.4133 70.1138C81.4841 69.1581 83.14 67.7698 84.3071 65.9357L81.254 63.9928ZM77.8968 66.8281C76.3957 67.5209 74.5567 67.8992 72.3293 67.8992V71.518C74.9608 71.518 77.339 71.0712 79.4133 70.1138L77.8968 66.8281ZM72.3293 67.8992H64.5252V71.518H72.3293V67.8992ZM65.6875 71.0954L69.2973 68.07L66.9728 65.2964L63.363 68.3218L65.6875 71.0954ZM66.3605 66.3296L64.504 75.6464L68.0531 76.3536L69.9096 67.0368L66.3605 66.3296ZM66.2786 74.1906H59.4715V77.8094H66.2786V74.1906ZM69.405 66.3807L67.0328 63.2522L64.1491 65.4387L66.5213 68.5672L69.405 66.3807ZM65.591 66.1549H72.6387V62.536H65.591V66.1549ZM72.6387 66.1549C74.402 66.1549 76.0346 65.7333 77.2917 64.6508L74.9303 61.9086C74.5372 62.247 73.8549 62.536 72.6387 62.536V66.1549ZM77.2917 64.6508C78.5959 63.5278 79.1581 61.972 79.1581 60.2543H75.5392C75.5392 61.1494 75.2763 61.6106 74.9303 61.9086L77.2917 64.6508ZM79.1581 60.2543C79.1581 58.8147 78.6565 57.4547 77.4129 56.5541L75.2904 59.4852C75.3762 59.5473 75.5392 59.677 75.5392 60.2543H79.1581ZM77.4129 56.5541C76.3283 55.7687 74.9747 55.4883 73.5669 55.4883V59.1071C74.5429 59.1071 75.0457 59.308 75.2904 59.4852L77.4129 56.5541ZM73.5669 55.4883H67.0349V59.1071H73.5669V55.4883ZM68.2418 58.6458L71.8516 55.4142L69.4378 52.7179L65.828 55.9496L68.2418 58.6458ZM68.8704 53.7112L66.1888 67.1191L69.7374 67.8288L72.419 54.4209L68.8704 53.7112ZM81.0404 76L79.5173 75.0231L77.7301 77.8094H81.0404V76ZM96.4767 51.9346V50.1251H95.4876L94.9536 50.9576L96.4767 51.9346ZM103.181 51.9346L104.94 51.5099L104.605 50.1251H103.181V51.9346ZM108.991 76V77.8094H111.289L110.75 75.5754L108.991 76ZM102.218 76L100.446 76.3655L100.744 77.8094H102.218V76ZM97.9206 55.1662V53.3568H95.6998L96.1485 55.5317L97.9206 55.1662ZM100.602 55.1662L102.158 56.0903L103.782 53.3568H100.602V55.1662ZM88.2256 76V77.8094H89.2554L89.7813 76.9241L88.2256 76ZM87.7787 71.3244L86.1919 70.4549L84.724 73.1339H87.7787V71.3244ZM90.5291 66.3051V64.4956H89.4573L88.9422 65.4356L90.5291 66.3051ZM102.287 66.3051L104.076 66.0355L103.844 64.4956H102.287V66.3051ZM103.043 71.3244V73.1339H105.146L104.832 71.0548L103.043 71.3244ZM82.5634 76.9769L97.9997 52.9115L94.9536 50.9576L79.5173 75.0231L82.5634 76.9769ZM96.4767 53.744H103.181V50.1251H96.4767V53.744ZM101.422 52.3592L107.232 76.4246L110.75 75.5754L104.94 51.5099L101.422 52.3592ZM108.991 74.1906H102.218V77.8094H108.991V74.1906ZM103.99 75.6345L99.6927 54.8007L96.1485 55.5317L100.446 76.3655L103.99 75.6345ZM97.9206 56.9756H100.602V53.3568H97.9206V56.9756ZM99.0465 54.2421L86.67 75.0759L89.7813 76.9241L102.158 56.0903L99.0465 54.2421ZM88.2256 74.1906H81.0404V77.8094H88.2256V74.1906ZM89.3655 72.1939L92.1159 67.1746L88.9422 65.4356L86.1919 70.4549L89.3655 72.1939ZM90.5291 68.1145H102.287V64.4956H90.5291V68.1145ZM100.498 66.5747L101.254 71.594L104.832 71.0548L104.076 66.0355L100.498 66.5747ZM103.043 69.515H87.7787V73.1339H103.043V69.515ZM111.783 76L110.009 75.6451L109.576 77.8094H111.783V76ZM116.596 51.9346V50.1251H115.113L114.822 51.5797L116.596 51.9346ZM123.3 51.9346L125.072 52.301L125.522 50.1251H123.3V51.9346ZM120.378 66.0644L118.606 65.6979L117.256 72.2227L121.721 67.2768L120.378 66.0644ZM133.132 51.9346V50.1251H132.328L131.789 50.7221L133.132 51.9346ZM139.63 51.9346L141.404 52.2894L141.837 50.1251H139.63V51.9346ZM134.817 76V77.8094H136.3L136.591 76.3549L134.817 76ZM128.113 76L126.341 75.6327L125.89 77.8094H128.113V76ZM131.035 61.9045L132.807 62.2718L134.158 55.7572L129.694 60.6905L131.035 61.9045ZM118.281 76V77.8094H119.084L119.622 77.2141L118.281 76ZM123.3 49.1842L122.08 50.5205L122.088 50.5278L122.096 50.535L123.3 49.1842ZM122.131 44.9212V43.1118H120.567L120.341 44.6592L122.131 44.9212ZM126.394 44.9212L128.185 45.1771L128.48 43.1118H126.394V44.9212ZM126.841 46.7433L125.562 48.0228L125.562 48.0228L126.841 46.7433ZM130.76 46.7777L131.867 48.2094L131.867 48.2094L130.76 46.7777ZM131.723 44.9212V43.1118H130.183L129.937 44.6316L131.723 44.9212ZM136.089 44.9212L137.874 45.2153L138.221 43.1118H136.089V44.9212ZM113.557 76.3549L118.37 52.2894L114.822 51.5797L110.009 75.6451L113.557 76.3549ZM116.596 53.744H123.3V50.1251H116.596V53.744ZM121.528 51.5681L118.606 65.6979L122.15 66.4309L125.072 52.301L121.528 51.5681ZM121.721 67.2768L134.476 53.147L131.789 50.7221L119.035 64.852L121.721 67.2768ZM133.132 53.744H139.63V50.1251H133.132V53.744ZM137.856 51.5797L133.043 75.6451L136.591 76.3549L141.404 52.2894L137.856 51.5797ZM134.817 74.1906H128.113V77.8094H134.817V74.1906ZM129.885 76.3673L132.807 62.2718L129.264 61.5372L126.341 75.6327L129.885 76.3673ZM129.694 60.6905L116.939 74.7859L119.622 77.2141L132.377 63.1186L129.694 60.6905ZM118.281 74.1906H111.783V77.8094H118.281V74.1906ZM128.422 48.7843C126.229 48.7843 125.066 48.3345 124.504 47.8334L122.096 50.535C123.642 51.9133 125.895 52.4032 128.422 52.4032V48.7843ZM124.52 47.848C124.05 47.4189 123.702 46.6855 123.921 45.1832L120.341 44.6592C120.01 46.9157 120.441 49.0243 122.08 50.5205L124.52 47.848ZM122.131 46.7306H126.394V43.1118H122.131V46.7306ZM124.603 44.6653C124.441 45.7971 124.604 47.0653 125.562 48.0228L128.12 45.4638C128.138 45.4809 128.154 45.5025 128.166 45.5247C128.178 45.5461 128.179 45.5564 128.177 45.5473C128.172 45.524 128.152 45.4137 128.185 45.1771L124.603 44.6653ZM125.562 48.0228C126.441 48.9026 127.622 49.1715 128.732 49.1715V45.5527C128.146 45.5527 128.066 45.4091 128.12 45.4638L125.562 48.0228ZM128.732 49.1715C129.848 49.1715 130.955 48.914 131.867 48.2094L129.654 45.3459C129.557 45.4206 129.312 45.5527 128.732 45.5527V49.1715ZM131.867 48.2094C132.845 47.4533 133.324 46.3513 133.509 45.2108L129.937 44.6316C129.847 45.1872 129.684 45.3228 129.654 45.3459L131.867 48.2094ZM131.723 46.7306H136.089V43.1118H131.723V46.7306ZM134.304 44.6271C134.037 46.2476 133.436 47.2004 132.674 47.7646L134.828 50.6726C136.542 49.4032 137.5 47.4911 137.874 45.2153L134.304 44.6271ZM132.674 47.7646C131.87 48.3605 130.534 48.7843 128.422 48.7843V52.4032C130.94 52.4032 133.157 51.9102 134.828 50.6726L132.674 47.7646ZM149.99 76L148.215 75.6451L147.782 77.8094H149.99V76ZM154.803 51.9346V50.1251H153.319L153.028 51.5797L154.803 51.9346ZM161.507 51.9346L163.278 52.301L163.728 50.1251H161.507V51.9346ZM158.584 66.0644L156.812 65.6979L155.463 72.2227L159.927 67.2768L158.584 66.0644ZM171.339 51.9346V50.1251H170.535L169.996 50.7221L171.339 51.9346ZM177.837 51.9346L179.611 52.2894L180.044 50.1251H177.837V51.9346ZM173.024 76V77.8094H174.507L174.798 76.3549L173.024 76ZM166.32 76L164.548 75.6327L164.097 77.8094H166.32V76ZM169.242 61.9045L171.014 62.2718L172.364 55.7572L167.9 60.6905L169.242 61.9045ZM156.487 76V77.8094H157.29L157.829 77.2141L156.487 76ZM151.764 76.3549L156.577 52.2894L153.028 51.5797L148.215 75.6451L151.764 76.3549ZM154.803 53.744H161.507V50.1251H154.803V53.744ZM159.735 51.5681L156.812 65.6979L160.356 66.4309L163.278 52.301L159.735 51.5681ZM159.927 67.2768L172.682 53.147L169.996 50.7221L157.241 64.852L159.927 67.2768ZM171.339 53.744H177.837V50.1251H171.339V53.744ZM176.062 51.5797L171.249 75.6451L174.798 76.3549L179.611 52.2894L176.062 51.5797ZM173.024 74.1906H166.32V77.8094H173.024V74.1906ZM168.091 76.3673L171.014 62.2718L167.47 61.5372L164.548 75.6327L168.091 76.3673ZM167.9 60.6905L155.146 74.7859L157.829 77.2141L170.584 63.1186L167.9 60.6905ZM156.487 74.1906H149.99V77.8094H156.487V74.1906ZM188.024 76L186.25 75.6451L185.817 77.8094H188.024V76ZM192.837 51.9346V50.1251H191.354L191.063 51.5797L192.837 51.9346ZM211.23 53.4129L210.199 54.8997L210.207 54.9054L210.215 54.9109L211.23 53.4129ZM212.124 61.3545L210.711 60.2241L210.711 60.2241L212.124 61.3545ZM208.789 63.7266L209.428 65.4197L209.44 65.4151L209.452 65.4104L208.789 63.7266ZM204.079 64.5173L202.516 63.6056L200.929 66.3268H204.079V64.5173ZM205.042 62.8671V61.0577H204.003L203.479 61.9554L205.042 62.8671ZM210.336 64.3111L209.263 65.7678L209.263 65.7678L210.336 64.3111ZM210.818 72.6652L209.458 71.4717L209.451 71.4797L209.444 71.4877L210.818 72.6652ZM206.864 75.1749L206.299 73.456L206.292 73.4583L206.864 75.1749ZM195.725 71.0838L193.951 70.7281L193.517 72.8932H195.725V71.0838ZM204.457 70.3618L203.443 68.8637L203.431 68.8715L203.42 68.8795L204.457 70.3618ZM204.733 66.6832L205.673 65.1376L205.673 65.1376L204.733 66.6832ZM196.138 66.2019L194.362 65.8521L193.937 68.0114H196.138V66.2019ZM197.066 61.492V59.6825H195.578L195.291 61.1421L197.066 61.492ZM204.561 61.1826L203.948 59.4801L203.936 59.4841L203.925 59.4883L204.561 61.1826ZM205.833 60.2543L207.338 61.258L207.338 61.258L205.833 60.2543ZM205.489 57.2977L206.409 55.7399L206.409 55.7399L205.489 57.2977ZM198.579 56.8508V55.0413H197.096L196.804 56.4951L198.579 56.8508ZM189.798 76.3549L194.612 52.2894L191.063 51.5797L186.25 75.6451L189.798 76.3549ZM192.837 53.744H205.008V50.1251H192.837V53.744ZM205.008 53.744C207.563 53.744 209.21 54.2136 210.199 54.8997L212.261 51.926C210.409 50.641 207.907 50.1251 205.008 50.1251V53.744ZM210.215 54.9109C211.108 55.5155 211.552 56.3231 211.552 57.5727H215.171C215.171 55.2011 214.195 53.2355 212.245 51.9148L210.215 54.9109ZM211.552 57.5727C211.552 58.7072 211.247 59.5544 210.711 60.2241L213.537 62.4848C214.651 61.0918 215.171 59.4179 215.171 57.5727H211.552ZM210.711 60.2241C210.109 60.9762 209.272 61.5923 208.127 62.0428L209.452 65.4104C211.103 64.7608 212.488 63.7954 213.537 62.4848L210.711 60.2241ZM208.151 62.0335C206.988 62.4721 205.639 62.7079 204.079 62.7079V66.3268C206.004 66.3268 207.795 66.0354 209.428 65.4197L208.151 62.0335ZM205.642 65.4291L206.605 63.7789L203.479 61.9554L202.516 63.6056L205.642 65.4291ZM205.042 64.6766C207.019 64.6766 208.364 65.1054 209.263 65.7678L211.41 62.8544C209.696 61.5915 207.511 61.0577 205.042 61.0577V64.6766ZM209.263 65.7678C210.068 66.3612 210.486 67.1517 210.486 68.3678H214.105C214.105 66.1002 213.217 64.1862 211.41 62.8544L209.263 65.7678ZM210.486 68.3678C210.486 69.7476 210.106 70.7325 209.458 71.4717L212.178 73.8587C213.5 72.3518 214.105 70.4718 214.105 68.3678H210.486ZM209.444 71.4877C208.734 72.3156 207.718 72.9893 206.299 73.456L207.429 76.8938C209.356 76.2604 210.976 75.2609 212.191 73.8428L209.444 71.4877ZM206.292 73.4583C204.859 73.9361 203.189 74.1906 201.26 74.1906V77.8094C203.503 77.8094 205.569 77.5139 207.436 76.8915L206.292 73.4583ZM201.26 74.1906H188.024V77.8094H201.26V74.1906ZM195.725 72.8932H201.638V69.2743H195.725V72.8932ZM201.638 72.8932C203.051 72.8932 204.4 72.6107 205.495 71.8442L203.42 68.8795C203.14 69.0755 202.609 69.2743 201.638 69.2743V72.8932ZM205.472 71.8599C206.733 71.0059 207.333 69.7031 207.333 68.2303H203.714C203.714 68.6369 203.603 68.7551 203.443 68.8637L205.472 71.8599ZM207.333 68.2303C207.333 67.0015 206.83 65.8417 205.673 65.1376L203.792 68.2288C203.796 68.2313 203.783 68.224 203.763 68.2033C203.743 68.1821 203.726 68.1574 203.714 68.1341C203.703 68.1118 203.702 68.1023 203.705 68.1142C203.708 68.1273 203.714 68.1639 203.714 68.2303H207.333ZM205.673 65.1376C204.782 64.5954 203.753 64.3925 202.704 64.3925V68.0114C203.306 68.0114 203.628 68.1294 203.792 68.2288L205.673 65.1376ZM202.704 64.3925H196.138V68.0114H202.704V64.3925ZM197.913 66.5518L198.841 61.8418L195.291 61.1421L194.362 65.8521L197.913 66.5518ZM197.066 63.3014H202.532V59.6825H197.066V63.3014ZM202.532 63.3014C203.477 63.3014 204.383 63.1815 205.196 62.8768L203.925 59.4883C203.638 59.5962 203.191 59.6825 202.532 59.6825V63.3014ZM205.173 62.885C206.026 62.578 206.803 62.0608 207.338 61.258L204.327 59.2506C204.312 59.2729 204.241 59.3746 203.948 59.4801L205.173 62.885ZM207.338 61.258C207.848 60.4927 208.055 59.6216 208.055 58.7416H204.436C204.436 59.0535 204.367 59.1908 204.327 59.2506L207.338 61.258ZM208.055 58.7416C208.055 57.5403 207.548 56.4127 206.409 55.7399L204.568 58.8555C204.567 58.8545 204.547 58.8426 204.521 58.8158C204.495 58.7883 204.471 58.7554 204.453 58.7217C204.417 58.6517 204.436 58.6373 204.436 58.7416H208.055ZM206.409 55.7399C205.517 55.2124 204.452 55.0413 203.392 55.0413V58.6602C204.119 58.6602 204.453 58.7871 204.568 58.8555L206.409 55.7399ZM203.392 55.0413H198.579V58.6602H203.392V55.0413ZM196.804 56.4951L193.951 70.7281L197.499 71.4395L200.353 57.2065L196.804 56.4951ZM236.587 71.3588L238.089 72.3679L238.089 72.3679L236.587 71.3588ZM232.392 74.7967L233.125 76.4511L233.134 76.4472L233.143 76.4433L232.392 74.7967ZM214.618 76L212.844 75.6451L212.411 77.8094H214.618V76ZM219.431 51.9346V50.1251H217.948L217.657 51.5797L219.431 51.9346ZM226.135 51.9346L227.909 52.2925L228.346 50.1251H226.135V51.9346ZM224.588 59.6011L222.815 59.2432L222.377 61.4105H224.588V59.6011ZM228.886 70.6025L228.077 68.9841L228.065 68.9896L228.054 68.9953L228.886 70.6025ZM230.502 69.1242L232.048 70.0632L232.048 70.0632L230.502 69.1242ZM230.33 65.0674L229.152 66.4412L229.187 66.4711L229.223 66.4992L230.33 65.0674ZM223.626 64.4486V62.6392H222.144L221.852 64.092L223.626 64.4486ZM222.285 71.1182L220.511 70.7615L220.076 72.9276H222.285V71.1182ZM239.509 76L237.735 75.6451L237.302 77.8094H239.509V76ZM244.322 51.9346V50.1251H242.839L242.548 51.5797L244.322 51.9346ZM251.129 51.9346L252.903 52.2894L253.336 50.1251H251.129V51.9346ZM246.316 76V77.8094H247.799L248.09 76.3549L246.316 76ZM230.055 61.4105C232.522 61.4105 234.036 61.926 234.912 62.6477C235.721 63.3142 236.256 64.3828 236.256 66.2019H239.874C239.874 63.6205 239.074 61.3887 237.213 59.8549C235.419 58.3764 232.928 57.7917 230.055 57.7917V61.4105ZM236.256 66.2019C236.256 67.8566 235.847 69.2151 235.085 70.3497L238.089 72.3679C239.297 70.5689 239.874 68.4894 239.874 66.2019H236.256ZM235.085 70.3497C234.309 71.5048 233.187 72.446 231.642 73.1502L233.143 76.4433C235.219 75.4973 236.894 74.1465 238.089 72.3679L235.085 70.3497ZM231.66 73.1424C230.124 73.8228 228.274 74.1906 226.067 74.1906V77.8094C228.673 77.8094 231.04 77.375 233.125 76.4511L231.66 73.1424ZM226.067 74.1906H214.618V77.8094H226.067V74.1906ZM216.393 76.3549L221.206 52.2894L217.657 51.5797L212.844 75.6451L216.393 76.3549ZM219.431 53.744H226.135V50.1251H219.431V53.744ZM224.362 51.5766L222.815 59.2432L226.362 59.959L227.909 52.2925L224.362 51.5766ZM224.588 61.4105H230.055V57.7917H224.588V61.4105ZM226.514 72.9276C227.655 72.9276 228.744 72.713 229.717 72.2096L228.054 68.9953C227.698 69.1795 227.205 69.3087 226.514 69.3087V72.9276ZM229.695 72.2209C230.68 71.7285 231.477 71.0036 232.048 70.0632L228.955 68.1851C228.747 68.5282 228.467 68.7889 228.077 68.9841L229.695 72.2209ZM232.048 70.0632C232.622 69.1189 232.895 68.068 232.895 66.9583H229.277C229.277 67.4529 229.161 67.8459 228.955 68.1851L232.048 70.0632ZM232.895 66.9583C232.895 65.7467 232.533 64.483 231.436 63.6356L229.223 66.4992C229.203 66.4835 229.203 66.4688 229.217 66.5044C229.237 66.5547 229.277 66.6907 229.277 66.9583H232.895ZM231.507 63.6936C230.541 62.8655 229.247 62.6392 228.026 62.6392V66.258C228.443 66.258 228.733 66.2996 228.923 66.3508C229.111 66.4011 229.162 66.4497 229.152 66.4412L231.507 63.6936ZM228.026 62.6392H223.626V66.258H228.026V62.6392ZM221.852 64.092L220.511 70.7615L224.059 71.4748L225.4 64.8052L221.852 64.092ZM222.285 72.9276H226.514V69.3087H222.285V72.9276ZM241.283 76.3549L246.096 52.2894L242.548 51.5797L237.735 75.6451L241.283 76.3549ZM244.322 53.744H251.129V50.1251H244.322V53.744ZM249.355 51.5797L244.542 75.6451L248.09 76.3549L252.903 52.2894L249.355 51.5797ZM246.316 74.1906H239.509V77.8094H246.316V74.1906ZM251.348 76L249.573 75.6451L249.141 77.8094H251.348V76ZM256.161 51.9346V50.1251H254.677L254.387 51.5797L256.161 51.9346ZM262.865 51.9346L264.637 52.301L265.087 50.1251H262.865V51.9346ZM259.943 66.0644L258.171 65.6979L256.821 72.2227L261.286 67.2768L259.943 66.0644ZM272.697 51.9346V50.1251H271.893L271.354 50.7221L272.697 51.9346ZM279.195 51.9346L280.969 52.2894L281.402 50.1251H279.195V51.9346ZM274.382 76V77.8094H275.865L276.156 76.3549L274.382 76ZM267.678 76L265.906 75.6327L265.455 77.8094H267.678V76ZM270.6 61.9045L272.372 62.2718L273.722 55.7572L269.258 60.6905L270.6 61.9045ZM257.845 76V77.8094H258.648L259.187 77.2141L257.845 76ZM253.122 76.3549L257.935 52.2894L254.387 51.5797L249.573 75.6451L253.122 76.3549ZM256.161 53.744H262.865V50.1251H256.161V53.744ZM261.093 51.5681L258.171 65.6979L261.714 66.4309L264.637 52.301L261.093 51.5681ZM261.286 67.2768L274.04 53.147L271.354 50.7221L258.599 64.852L261.286 67.2768ZM272.697 53.744H279.195V50.1251H272.697V53.744ZM277.421 51.5797L272.608 75.6451L276.156 76.3549L280.969 52.2894L277.421 51.5797ZM274.382 74.1906H267.678V77.8094H274.382V74.1906ZM269.45 76.3673L272.372 62.2718L268.828 61.5372L265.906 75.6327L269.45 76.3673ZM269.258 60.6905L256.504 74.7859L259.187 77.2141L271.942 63.1186L269.258 60.6905ZM257.845 74.1906H251.348V77.8094H257.845V74.1906ZM279.549 76L277.775 75.6451L277.342 77.8094H279.549V76ZM284.363 51.9346V50.1251H282.879L282.588 51.5797L284.363 51.9346ZM301.965 51.9346L303.74 52.2851L304.166 50.1251H301.965V51.9346ZM300.899 57.3321V59.1415H302.386L302.674 57.6826L300.899 57.3321ZM288.385 57.3321L287.216 55.9508L283.445 59.1415H288.385V57.3321ZM290.173 55.8194L291.949 56.1644L292.929 51.1167L289.004 54.4381L290.173 55.8194ZM286.253 76V77.8094H287.745L288.03 76.345L286.253 76ZM281.324 76.3549L286.137 52.2894L282.588 51.5797L277.775 75.6451L281.324 76.3549ZM284.363 53.744H301.965V50.1251H284.363V53.744ZM300.19 51.584L299.124 56.9816L302.674 57.6826L303.74 52.2851L300.19 51.584ZM300.899 55.5227H288.385V59.1415H300.899V55.5227ZM289.554 58.7134L291.341 57.2007L289.004 54.4381L287.216 55.9508L289.554 58.7134ZM288.396 55.4744L284.477 75.655L288.03 76.345L291.949 56.1644L288.396 55.4744ZM286.253 74.1906H279.549V77.8094H286.253V74.1906ZM300.092 76L298.318 75.6451L297.885 77.8094H300.092V76ZM304.905 51.9346V50.1251H303.422L303.131 51.5797L304.905 51.9346ZM322.301 53.9629L323.429 52.5481L323.429 52.5481L322.301 53.9629ZM323.401 64.9643L321.875 63.9928L321.875 63.9928L323.401 64.9643ZM319.276 68.471L320.034 70.1138L319.276 68.471ZM305.146 69.7086L303.984 68.3218L300.17 71.518H305.146V69.7086ZM308.756 66.6832L310.53 67.0368L311.536 61.9928L307.594 65.2964L308.756 66.6832ZM306.899 76V77.8094H308.384L308.674 76.3536L306.899 76ZM308.584 67.474L307.142 68.5672L309.57 71.7694L310.358 67.8288L308.584 67.474ZM306.212 64.3454V62.536H302.569L304.77 65.4387L306.212 64.3454ZM316.732 63.2797L317.913 64.6508L317.913 64.6508L316.732 63.2797ZM316.973 58.0197L315.911 59.4852L315.911 59.4852L316.973 58.0197ZM307.656 57.2977L306.449 55.9496L302.922 59.1071H307.656V57.2977ZM311.266 54.0661L313.04 54.4209L314.105 49.0956L310.059 52.7179L311.266 54.0661ZM301.867 76.3549L306.68 52.2894L303.131 51.5797L298.318 75.6451L301.867 76.3549ZM304.905 53.744H315.082V50.1251H304.905V53.744ZM315.082 53.744C317.963 53.744 319.912 54.3718 321.173 55.3777L323.429 52.5481C321.299 50.8496 318.434 50.1251 315.082 50.1251V53.744ZM321.173 55.3777C322.379 56.3389 323.036 57.6868 323.036 59.6699H326.655C326.655 56.7482 325.616 54.2915 323.429 52.5481L321.173 55.3777ZM323.036 59.6699C323.036 61.3869 322.63 62.8057 321.875 63.9928L324.928 65.9357C326.098 64.0975 326.655 61.9867 326.655 59.6699H323.036ZM321.875 63.9928C321.117 65.1842 320.022 66.1336 318.518 66.8281L320.034 70.1138C322.105 69.1581 323.761 67.7698 324.928 65.9357L321.875 63.9928ZM318.518 66.8281C317.017 67.5209 315.178 67.8992 312.95 67.8992V71.518C315.582 71.518 317.96 71.0712 320.034 70.1138L318.518 66.8281ZM312.95 67.8992H305.146V71.518H312.95V67.8992ZM306.308 71.0954L309.918 68.07L307.594 65.2964L303.984 68.3218L306.308 71.0954ZM306.981 66.3296L305.125 75.6464L308.674 76.3536L310.53 67.0368L306.981 66.3296ZM306.899 74.1906H300.092V77.8094H306.899V74.1906ZM310.026 66.3807L307.654 63.2522L304.77 65.4387L307.142 68.5672L310.026 66.3807ZM306.212 66.1549H313.26V62.536H306.212V66.1549ZM313.26 66.1549C315.023 66.1549 316.655 65.7333 317.913 64.6508L315.551 61.9086C315.158 62.247 314.476 62.536 313.26 62.536V66.1549ZM317.913 64.6508C319.217 63.5278 319.779 61.972 319.779 60.2543H316.16C316.16 61.1494 315.897 61.6106 315.551 61.9086L317.913 64.6508ZM319.779 60.2543C319.779 58.8147 319.277 57.4547 318.034 56.5541L315.911 59.4852C315.997 59.5473 316.16 59.677 316.16 60.2543H319.779ZM318.034 56.5541C316.949 55.7687 315.596 55.4883 314.188 55.4883V59.1071C315.164 59.1071 315.667 59.308 315.911 59.4852L318.034 56.5541ZM314.188 55.4883H307.656V59.1071H314.188V55.4883ZM308.863 58.6458L312.473 55.4142L310.059 52.7179L306.449 55.9496L308.863 58.6458ZM309.491 53.7112L306.81 67.1191L310.358 67.8288L313.04 54.4209L309.491 53.7112ZM347.245 71.3588L348.747 72.3679L348.747 72.3679L347.245 71.3588ZM343.051 74.7967L343.783 76.4511L343.792 76.4472L343.801 76.4433L343.051 74.7967ZM325.276 76L323.502 75.6451L323.069 77.8094H325.276V76ZM330.09 51.9346V50.1251H328.606L328.315 51.5797L330.09 51.9346ZM336.794 51.9346L338.567 52.2925L339.005 50.1251H336.794V51.9346ZM335.246 59.6011L333.473 59.2432L333.035 61.4105H335.246V59.6011ZM339.544 70.6025L338.735 68.9841L338.724 68.9896L338.713 68.9953L339.544 70.6025ZM341.16 69.1242L342.706 70.0632L342.706 70.0632L341.16 69.1242ZM340.988 65.0674L339.81 66.4412L339.845 66.4711L339.881 66.4992L340.988 65.0674ZM334.284 64.4486V62.6392H332.802L332.51 64.092L334.284 64.4486ZM332.943 71.1182L331.169 70.7615L330.734 72.9276H332.943V71.1182ZM350.167 76L348.393 75.6451L347.96 77.8094H350.167V76ZM354.98 51.9346V50.1251H353.497L353.206 51.5797L354.98 51.9346ZM361.787 51.9346L363.562 52.2894L363.994 50.1251H361.787V51.9346ZM356.974 76V77.8094H358.458L358.748 76.3549L356.974 76ZM340.713 61.4105C343.18 61.4105 344.694 61.926 345.57 62.6477C346.379 63.3142 346.914 64.3828 346.914 66.2019H350.533C350.533 63.6205 349.732 61.3887 347.871 59.8549C346.077 58.3764 343.586 57.7917 340.713 57.7917V61.4105ZM346.914 66.2019C346.914 67.8566 346.505 69.2151 345.743 70.3497L348.747 72.3679C349.955 70.5689 350.533 68.4894 350.533 66.2019H346.914ZM345.743 70.3497C344.967 71.5048 343.846 72.446 342.3 73.1502L343.801 76.4433C345.877 75.4973 347.552 74.1465 348.747 72.3679L345.743 70.3497ZM342.318 73.1424C340.782 73.8228 338.932 74.1906 336.725 74.1906V77.8094C339.331 77.8094 341.698 77.375 343.783 76.4511L342.318 73.1424ZM336.725 74.1906H325.276V77.8094H336.725V74.1906ZM327.051 76.3549L331.864 52.2894L328.315 51.5797L323.502 75.6451L327.051 76.3549ZM330.09 53.744H336.794V50.1251H330.09V53.744ZM335.02 51.5766L333.473 59.2432L337.02 59.959L338.567 52.2925L335.02 51.5766ZM335.246 61.4105H340.713V57.7917H335.246V61.4105ZM337.172 72.9276C338.314 72.9276 339.402 72.713 340.375 72.2096L338.713 68.9953C338.356 69.1795 337.863 69.3087 337.172 69.3087V72.9276ZM340.353 72.2209C341.338 71.7285 342.135 71.0036 342.706 70.0632L339.613 68.1851C339.405 68.5282 339.125 68.7889 338.735 68.9841L340.353 72.2209ZM342.706 70.0632C343.28 69.1189 343.554 68.068 343.554 66.9583H339.935C339.935 67.4529 339.819 67.8459 339.613 68.1851L342.706 70.0632ZM343.554 66.9583C343.554 65.7467 343.191 64.483 342.094 63.6356L339.881 66.4992C339.861 66.4835 339.861 66.4688 339.875 66.5044C339.895 66.5547 339.935 66.6907 339.935 66.9583H343.554ZM342.165 63.6936C341.199 62.8655 339.905 62.6392 338.684 62.6392V66.258C339.101 66.258 339.391 66.2996 339.581 66.3508C339.769 66.4011 339.82 66.4497 339.81 66.4412L342.165 63.6936ZM338.684 62.6392H334.284V66.258H338.684V62.6392ZM332.51 64.092L331.169 70.7615L334.717 71.4748L336.058 64.8052L332.51 64.092ZM332.943 72.9276H337.172V69.3087H332.943V72.9276ZM351.941 76.3549L356.754 52.2894L353.206 51.5797L348.393 75.6451L351.941 76.3549ZM354.98 53.744H361.787V50.1251H354.98V53.744ZM360.013 51.5797L355.2 75.6451L358.748 76.3549L363.562 52.2894L360.013 51.5797ZM356.974 74.1906H350.167V77.8094H356.974V74.1906ZM361.834 76L360.06 75.6451L359.627 77.8094H361.834V76ZM366.647 51.9346V50.1251H365.164L364.873 51.5797L366.647 51.9346ZM385.04 53.4129L384.009 54.8997L384.017 54.9054L384.025 54.9109L385.04 53.4129ZM385.934 61.3545L384.521 60.2241L384.521 60.2241L385.934 61.3545ZM382.599 63.7266L383.237 65.4197L383.249 65.4151L383.261 65.4104L382.599 63.7266ZM377.889 64.5173L376.326 63.6056L374.739 66.3268H377.889V64.5173ZM378.852 62.8671V61.0577H377.812L377.289 61.9554L378.852 62.8671ZM384.146 64.3111L383.073 65.7678L383.073 65.7678L384.146 64.3111ZM384.627 72.6652L383.267 71.4717L383.26 71.4797L383.254 71.4877L384.627 72.6652ZM380.674 75.1749L380.109 73.456L380.102 73.4583L380.674 75.1749ZM369.535 71.0838L367.761 70.7281L367.327 72.8932H369.535V71.0838ZM378.267 70.3618L377.252 68.8637L377.241 68.8715L377.23 68.8795L378.267 70.3618ZM378.542 66.6832L379.483 65.1376L379.483 65.1376L378.542 66.6832ZM369.947 66.2019L368.172 65.8521L367.747 68.0114H369.947V66.2019ZM370.876 61.492V59.6825H369.388L369.1 61.1421L370.876 61.492ZM378.37 61.1826L377.757 59.4801L377.746 59.4841L377.735 59.4883L378.37 61.1826ZM379.642 60.2543L381.148 61.258L381.148 61.258L379.642 60.2543ZM379.299 57.2977L380.219 55.7399L380.219 55.7399L379.299 57.2977ZM372.388 56.8508V55.0413H370.906L370.614 56.4951L372.388 56.8508ZM363.608 76.3549L368.421 52.2894L364.873 51.5797L360.06 75.6451L363.608 76.3549ZM366.647 53.744H378.817V50.1251H366.647V53.744ZM378.817 53.744C381.373 53.744 383.02 54.2136 384.009 54.8997L386.071 51.926C384.218 50.641 381.717 50.1251 378.817 50.1251V53.744ZM384.025 54.9109C384.918 55.5155 385.362 56.3231 385.362 57.5727H388.981C388.981 55.2011 388.004 53.2355 386.055 51.9148L384.025 54.9109ZM385.362 57.5727C385.362 58.7072 385.057 59.5544 384.521 60.2241L387.347 62.4848C388.461 61.0918 388.981 59.4179 388.981 57.5727H385.362ZM384.521 60.2241C383.919 60.9762 383.082 61.5923 381.937 62.0428L383.261 65.4104C384.913 64.7608 386.298 63.7954 387.347 62.4848L384.521 60.2241ZM381.961 62.0335C380.797 62.4721 379.448 62.7079 377.889 62.7079V66.3268C379.813 66.3268 381.604 66.0354 383.237 65.4197L381.961 62.0335ZM379.452 65.4291L380.415 63.7789L377.289 61.9554L376.326 63.6056L379.452 65.4291ZM378.852 64.6766C380.829 64.6766 382.174 65.1054 383.073 65.7678L385.219 62.8544C383.505 61.5915 381.321 61.0577 378.852 61.0577V64.6766ZM383.073 65.7678C383.878 66.3612 384.296 67.1517 384.296 68.3678H387.915C387.915 66.1002 387.027 64.1862 385.219 62.8544L383.073 65.7678ZM384.296 68.3678C384.296 69.7476 383.916 70.7325 383.267 71.4717L385.987 73.8587C387.31 72.3518 387.915 70.4718 387.915 68.3678H384.296ZM383.254 71.4877C382.544 72.3156 381.528 72.9893 380.109 73.456L381.239 76.8938C383.166 76.2604 384.786 75.2609 386.001 73.8428L383.254 71.4877ZM380.102 73.4583C378.668 73.9361 376.999 74.1906 375.07 74.1906V77.8094C377.313 77.8094 379.379 77.5139 381.246 76.8915L380.102 73.4583ZM375.07 74.1906H361.834V77.8094H375.07V74.1906ZM369.535 72.8932H375.448V69.2743H369.535V72.8932ZM375.448 72.8932C376.861 72.8932 378.21 72.6107 379.305 71.8442L377.23 68.8795C376.95 69.0755 376.419 69.2743 375.448 69.2743V72.8932ZM379.282 71.8599C380.543 71.0059 381.142 69.7031 381.142 68.2303H377.524C377.524 68.6369 377.413 68.7551 377.252 68.8637L379.282 71.8599ZM381.142 68.2303C381.142 67.0015 380.64 65.8417 379.483 65.1376L377.601 68.2288C377.605 68.2313 377.593 68.224 377.573 68.2033C377.553 68.1821 377.536 68.1574 377.524 68.1341C377.513 68.1118 377.512 68.1023 377.515 68.1142C377.517 68.1273 377.524 68.1639 377.524 68.2303H381.142ZM379.483 65.1376C378.592 64.5954 377.562 64.3925 376.514 64.3925V68.0114C377.116 68.0114 377.438 68.1294 377.601 68.2288L379.483 65.1376ZM376.514 64.3925H369.947V68.0114H376.514V64.3925ZM371.723 66.5518L372.651 61.8418L369.1 61.1421L368.172 65.8521L371.723 66.5518ZM370.876 63.3014H376.342V59.6825H370.876V63.3014ZM376.342 63.3014C377.287 63.3014 378.193 63.1815 379.006 62.8768L377.735 59.4883C377.447 59.5962 377.001 59.6825 376.342 59.6825V63.3014ZM378.983 62.885C379.836 62.578 380.613 62.0608 381.148 61.258L378.137 59.2506C378.122 59.2729 378.051 59.3746 377.757 59.4801L378.983 62.885ZM381.148 61.258C381.658 60.4927 381.864 59.6216 381.864 58.7416H378.245C378.245 59.0535 378.177 59.1908 378.137 59.2506L381.148 61.258ZM381.864 58.7416C381.864 57.5403 381.358 56.4127 380.219 55.7399L378.378 58.8555C378.376 58.8545 378.357 58.8426 378.331 58.8158C378.304 58.7883 378.281 58.7554 378.263 58.7217C378.226 58.6517 378.245 58.6373 378.245 58.7416H381.864ZM380.219 55.7399C379.326 55.2124 378.262 55.0413 377.201 55.0413V58.6602C377.928 58.6602 378.262 58.7871 378.378 58.8555L380.219 55.7399ZM377.201 55.0413H372.388V58.6602H377.201V55.0413ZM370.614 56.4951L367.761 70.7281L371.309 71.4395L374.162 57.2065L370.614 56.4951ZM386.022 76L384.499 75.0231L382.711 77.8094H386.022V76ZM401.458 51.9346V50.1251H400.469L399.935 50.9576L401.458 51.9346ZM408.162 51.9346L409.921 51.5099L409.586 50.1251H408.162V51.9346ZM413.972 76V77.8094H416.27L415.731 75.5754L413.972 76ZM407.199 76L405.427 76.3655L405.725 77.8094H407.199V76ZM402.902 55.1662V53.3568H400.681L401.13 55.5317L402.902 55.1662ZM405.583 55.1662L407.139 56.0903L408.763 53.3568H405.583V55.1662ZM393.207 76V77.8094H394.237L394.762 76.9241L393.207 76ZM392.76 71.3244L391.173 70.4549L389.705 73.1339H392.76V71.3244ZM395.51 66.3051V64.4956H394.438L393.923 65.4356L395.51 66.3051ZM407.268 66.3051L409.057 66.0355L408.825 64.4956H407.268V66.3051ZM408.024 71.3244V73.1339H410.127L409.814 71.0548L408.024 71.3244ZM387.545 76.9769L402.981 52.9115L399.935 50.9576L384.499 75.0231L387.545 76.9769ZM401.458 53.744H408.162V50.1251H401.458V53.744ZM406.403 52.3592L412.213 76.4246L415.731 75.5754L409.921 51.5099L406.403 52.3592ZM413.972 74.1906H407.199V77.8094H413.972V74.1906ZM408.971 75.6345L404.674 54.8007L401.13 55.5317L405.427 76.3655L408.971 75.6345ZM402.902 56.9756H405.583V53.3568H402.902V56.9756ZM404.028 54.2421L391.651 75.0759L394.762 76.9241L407.139 56.0903L404.028 54.2421ZM393.207 74.1906H386.022V77.8094H393.207V74.1906ZM394.347 72.1939L397.097 67.1746L393.923 65.4356L391.173 70.4549L394.347 72.1939ZM395.51 68.1145H407.268V64.4956H395.51V68.1145ZM405.479 66.5747L406.235 71.594L409.814 71.0548L409.057 66.0355L405.479 66.5747ZM408.024 69.515H392.76V73.1339H408.024V69.515ZM416.764 76L414.99 75.6451L414.557 77.8094H416.764V76ZM421.577 51.9346V50.1251H420.094L419.803 51.5797L421.577 51.9346ZM428.281 51.9346L430.053 52.301L430.503 50.1251H428.281V51.9346ZM425.359 66.0644L423.587 65.6979L422.238 72.2227L426.702 67.2768L425.359 66.0644ZM438.114 51.9346V50.1251H437.309L436.77 50.7221L438.114 51.9346ZM444.611 51.9346L446.386 52.2894L446.818 50.1251H444.611V51.9346ZM439.798 76V77.8094H441.282L441.573 76.3549L439.798 76ZM433.094 76L431.323 75.6327L430.871 77.8094H433.094V76ZM436.016 61.9045L437.788 62.2718L439.139 55.7572L434.675 60.6905L436.016 61.9045ZM423.262 76V77.8094H424.065L424.603 77.2141L423.262 76ZM428.281 49.1842L427.061 50.5205L427.069 50.5278L427.077 50.535L428.281 49.1842ZM427.112 44.9212V43.1118H425.548L425.322 44.6592L427.112 44.9212ZM431.375 44.9212L433.167 45.1771L433.462 43.1118H431.375V44.9212ZM431.822 46.7433L430.543 48.0228L430.543 48.0228L431.822 46.7433ZM435.741 46.7777L436.848 48.2094L436.848 48.2094L435.741 46.7777ZM436.704 44.9212V43.1118H435.164L434.918 44.6316L436.704 44.9212ZM441.07 44.9212L442.856 45.2153L443.202 43.1118H441.07V44.9212ZM418.538 76.3549L423.352 52.2894L419.803 51.5797L414.99 75.6451L418.538 76.3549ZM421.577 53.744H428.281V50.1251H421.577V53.744ZM426.509 51.5681L423.587 65.6979L427.131 66.4309L430.053 52.301L426.509 51.5681ZM426.702 67.2768L439.457 53.147L436.77 50.7221L424.016 64.852L426.702 67.2768ZM438.114 53.744H444.611V50.1251H438.114V53.744ZM442.837 51.5797L438.024 75.6451L441.573 76.3549L446.386 52.2894L442.837 51.5797ZM439.798 74.1906H433.094V77.8094H439.798V74.1906ZM434.866 76.3673L437.788 62.2718L434.245 61.5372L431.323 75.6327L434.866 76.3673ZM434.675 60.6905L421.92 74.7859L424.603 77.2141L437.358 63.1186L434.675 60.6905ZM423.262 74.1906H416.764V77.8094H423.262V74.1906ZM433.404 48.7843C431.21 48.7843 430.047 48.3345 429.485 47.8334L427.077 50.535C428.624 51.9133 430.876 52.4032 433.404 52.4032V48.7843ZM429.501 47.848C429.031 47.4189 428.683 46.6855 428.903 45.1832L425.322 44.6592C424.992 46.9157 425.423 49.0243 427.061 50.5205L429.501 47.848ZM427.112 46.7306H431.375V43.1118H427.112V46.7306ZM429.584 44.6653C429.422 45.7971 429.585 47.0653 430.543 48.0228L433.102 45.4638C433.119 45.4809 433.135 45.5025 433.147 45.5247C433.159 45.5461 433.161 45.5564 433.158 45.5473C433.153 45.524 433.133 45.4137 433.167 45.1771L429.584 44.6653ZM430.543 48.0228C431.423 48.9026 432.603 49.1715 433.713 49.1715V45.5527C433.127 45.5527 433.047 45.4091 433.102 45.4638L430.543 48.0228ZM433.713 49.1715C434.829 49.1715 435.936 48.914 436.848 48.2094L434.635 45.3459C434.538 45.4206 434.293 45.5527 433.713 45.5527V49.1715ZM436.848 48.2094C437.826 47.4533 438.305 46.3513 438.49 45.2108L434.918 44.6316C434.828 45.1872 434.665 45.3228 434.635 45.3459L436.848 48.2094ZM436.704 46.7306H441.07V43.1118H436.704V46.7306ZM439.285 44.6271C439.018 46.2476 438.417 47.2004 437.655 47.7646L439.809 50.6726C441.523 49.4032 442.481 47.4911 442.856 45.2153L439.285 44.6271ZM437.655 47.7646C436.851 48.3605 435.516 48.7843 433.404 48.7843V52.4032C435.921 52.4032 438.139 51.9102 439.809 50.6726L437.655 47.7646Z" fill="white" mask="url(#path-1-outside-1_171902_715)"/>
</g>
</svg>
