<svg width="480" height="94" viewBox="0 0 480 94" fill="none" xmlns="http://www.w3.org/2000/svg">
<path d="M17.8229 41.6333C14.5659 41.6333 11.7613 41.0452 9.40905 39.8691C7.05679 38.6628 5.24735 37.0192 3.98075 34.9384C2.71415 32.8576 2.08085 30.445 2.08085 27.7007C2.08085 24.9262 2.56336 22.393 3.52839 20.1011C4.49342 17.779 5.8505 15.7735 7.59962 14.0847C9.34873 12.3657 11.4296 11.0388 13.8422 10.1039C16.2849 9.16907 18.9538 8.70163 21.8489 8.70163C25.1059 8.70163 27.9105 9.30478 30.2628 10.5111C32.615 11.6872 34.4244 13.3157 35.6911 15.3965C36.9577 17.4774 37.591 19.89 37.591 22.6343C37.591 25.4087 37.1084 27.957 36.1434 30.2791C35.1784 32.5711 33.8213 34.5765 32.0722 36.2955C30.3231 37.9843 28.2271 39.2961 25.7844 40.231C23.3718 41.1659 20.718 41.6333 17.8229 41.6333ZM18.5919 34.2146C20.1601 34.2146 21.5473 33.9281 22.7536 33.3551C23.9901 32.7822 25.0305 31.983 25.8749 30.9577C26.7494 29.9021 27.4129 28.7109 27.8653 27.384C28.3176 26.0571 28.5438 24.6548 28.5438 23.1771C28.5438 21.7597 28.2422 20.5233 27.6391 19.4678C27.0661 18.4123 26.2217 17.598 25.1059 17.025C24.0202 16.4219 22.6782 16.1203 21.0799 16.1203C19.5419 16.1203 18.1546 16.4068 16.9182 16.9798C15.6817 17.5528 14.6262 18.367 13.7517 19.4225C12.9073 20.4479 12.2589 21.624 11.8065 22.9509C11.3542 24.2778 11.128 25.6801 11.128 27.1578C11.128 28.5451 11.4145 29.7815 11.9875 30.8672C12.5906 31.9227 13.435 32.752 14.5207 33.3551C15.6365 33.9281 16.9936 34.2146 18.5919 34.2146ZM45.6864 41L50.8885 14.4466L52.4718 16.437H40.9366L42.3389 9.33493H70.5661L69.1638 16.437H57.3572L59.7095 14.4466L54.5074 41H45.6864ZM68.3619 41L74.6949 9.33493H83.6516L77.3186 41H68.3619ZM77.1376 28.8768L78.5852 21.6391H90.0751L88.6728 28.8768H77.1376ZM89.0347 41L83.1088 25.9365L90.4822 21.7748L98.5342 41H89.0347ZM90.7536 26.1174L82.1136 25.2127L95.0058 9.33493H104.958L90.7536 26.1174ZM101.356 41L107.689 9.33493H121.079C125.18 9.33493 128.346 10.2246 130.578 12.0038C132.81 13.7831 133.926 16.2862 133.926 19.513C133.926 22.1668 133.292 24.4889 132.026 26.4793C130.759 28.4697 128.95 30.0077 126.597 31.0934C124.245 32.179 121.471 32.7218 118.274 32.7218H108.005L112.755 28.7411L110.312 41H101.356ZM112.529 29.7815L109.408 25.6651H118.681C120.641 25.6651 122.164 25.1976 123.25 24.2628C124.336 23.3279 124.878 22.001 124.878 20.282C124.878 18.9551 124.441 17.975 123.567 17.3417C122.692 16.7084 121.471 16.3917 119.902 16.3917H111.308L116.057 12.1396L112.529 29.7815ZM151.807 41.6333C148.55 41.6333 145.746 41.0452 143.394 39.8691C141.041 38.6628 139.232 37.0192 137.965 34.9384C136.699 32.8576 136.065 30.445 136.065 27.7007C136.065 24.9262 136.548 22.393 137.513 20.1011C138.478 17.779 139.835 15.7735 141.584 14.0847C143.333 12.3657 145.414 11.0388 147.827 10.1039C150.269 9.16907 152.938 8.70163 155.833 8.70163C159.09 8.70163 161.895 9.30478 164.247 10.5111C166.6 11.6872 168.409 13.3157 169.676 15.3965C170.942 17.4774 171.576 19.89 171.576 22.6343C171.576 25.4087 171.093 27.957 170.128 30.2791C169.163 32.5711 167.806 34.5765 166.057 36.2955C164.308 37.9843 162.212 39.2961 159.769 40.231C157.356 41.1659 154.703 41.6333 151.807 41.6333ZM152.576 34.2146C154.145 34.2146 155.532 33.9281 156.738 33.3551C157.975 32.7822 159.015 31.983 159.859 30.9577C160.734 29.9021 161.397 28.7109 161.85 27.384C162.302 26.0571 162.528 24.6548 162.528 23.1771C162.528 21.7597 162.227 20.5233 161.624 19.4678C161.051 18.4123 160.206 17.598 159.09 17.025C158.005 16.4219 156.663 16.1203 155.064 16.1203C153.526 16.1203 152.139 16.4068 150.903 16.9798C149.666 17.5528 148.611 18.367 147.736 19.4225C146.892 20.4479 146.243 21.624 145.791 22.9509C145.339 24.2778 145.113 25.6801 145.113 27.1578C145.113 28.5451 145.399 29.7815 145.972 30.8672C146.575 31.9227 147.42 32.752 148.505 33.3551C149.621 33.9281 150.978 34.2146 152.576 34.2146ZM173.146 41L179.479 9.33493H188.3L184.455 27.9269L201.238 9.33493H209.787L203.454 41H194.633L198.478 22.4533L181.696 41H173.146ZM195.041 7.57074C191.934 7.57074 189.688 6.95252 188.3 5.71607C186.913 4.44947 186.401 2.57972 186.762 0.10683H192.372C192.221 1.16233 192.417 1.9615 192.96 2.50433C193.503 3.04716 194.332 3.31857 195.448 3.31857C196.563 3.31857 197.453 3.06224 198.117 2.54956C198.78 2.03689 199.202 1.22265 199.383 0.10683H205.128C204.706 2.67019 203.681 4.55502 202.052 5.76131C200.424 6.96759 198.086 7.57074 195.041 7.57074ZM0.723773 87L7.05679 55.3349H23.0703C26.659 55.3349 29.3882 55.9833 31.2579 57.2801C33.1277 58.5467 34.0626 60.3712 34.0626 62.7536C34.0626 64.7138 33.5197 66.3725 32.4341 67.7295C31.3484 69.0866 29.8858 70.127 28.0462 70.8508C26.2066 71.5444 24.1408 71.8912 21.8489 71.8912L23.1155 69.7199C26.0407 69.7199 28.3629 70.3532 30.0818 71.6198C31.8008 72.8864 32.6603 74.6657 32.6603 76.9577C32.6603 79.2496 32.0119 81.1344 30.7151 82.6121C29.4485 84.0898 27.7145 85.1906 25.513 85.9143C23.3417 86.6381 20.8839 87 18.1396 87H0.723773ZM10.8566 80.5313H18.6372C20.2053 80.5313 21.4418 80.2146 22.3465 79.5813C23.2814 78.948 23.7488 78.0132 23.7488 76.7767C23.7488 75.8418 23.402 75.1633 22.7084 74.7411C22.0148 74.3189 21.1251 74.1078 20.0395 74.1078H11.3994L12.6208 67.9105H19.8133C20.8688 67.9105 21.7584 67.7748 22.4822 67.5034C23.2361 67.232 23.794 66.8248 24.1559 66.282C24.5178 65.7392 24.6987 65.0757 24.6987 64.2916C24.6987 63.4171 24.367 62.7838 23.7036 62.3917C23.0401 61.9997 22.1203 61.8037 20.9442 61.8037H14.6112L10.8566 80.5313ZM42.2407 87L47.4428 60.4466L49.0261 62.437H37.4909L38.8933 55.3349H67.1204L65.7181 62.437H53.9115L56.2638 60.4466L51.0617 87H42.2407ZM81.3474 87.6333C78.0904 87.6333 75.2858 87.0452 72.9335 85.8691C70.5813 84.6628 68.7719 83.0192 67.5053 80.9384C66.2387 78.8576 65.6053 76.445 65.6053 73.7007C65.6053 70.9262 66.0879 68.393 67.0529 66.1011C68.0179 63.779 69.375 61.7735 71.1241 60.0847C72.8732 58.3657 74.9541 57.0388 77.3667 56.1039C79.8094 55.1691 82.4783 54.7016 85.3734 54.7016C88.6304 54.7016 91.435 55.3048 93.7873 56.5111C96.1395 57.6872 97.949 59.3157 99.2156 61.3965C100.482 63.4774 101.115 65.89 101.115 68.6343C101.115 71.4087 100.633 73.957 99.6679 76.2791C98.7029 78.5711 97.3458 80.5765 95.5967 82.2955C93.8476 83.9843 91.7516 85.2961 89.3089 86.231C86.8963 87.1659 84.2425 87.6333 81.3474 87.6333ZM82.1164 80.2146C83.6846 80.2146 85.0718 79.9281 86.2781 79.3551C87.5146 78.7822 88.555 77.983 89.3994 76.9577C90.2739 75.9021 90.9374 74.7109 91.3898 73.384C91.8421 72.0571 92.0683 70.6548 92.0683 69.1771C92.0683 67.7597 91.7667 66.5233 91.1636 65.4678C90.5906 64.4123 89.7462 63.598 88.6304 63.025C87.5447 62.4219 86.2027 62.1203 84.6044 62.1203C83.0664 62.1203 81.6791 62.4068 80.4427 62.9798C79.2062 63.5528 78.1507 64.367 77.2762 65.4225C76.4318 66.4479 75.7834 67.624 75.331 68.9509C74.8787 70.2778 74.6525 71.6801 74.6525 73.1578C74.6525 74.5451 74.939 75.7815 75.512 76.8672C76.1151 77.9227 76.9595 78.752 78.0452 79.3551C79.161 79.9281 80.5181 80.2146 82.1164 80.2146ZM102.46 87L108.793 55.3349H122.183C126.284 55.3349 129.451 56.2246 131.682 58.0038C133.914 59.7831 135.03 62.2862 135.03 65.513C135.03 68.1668 134.397 70.4889 133.13 72.4793C131.863 74.4697 130.054 76.0077 127.702 77.0934C125.349 78.179 122.575 78.7218 119.378 78.7218H109.11L113.86 74.7411L111.417 87H102.46ZM113.633 75.7815L110.512 71.6651H119.785C121.746 71.6651 123.269 71.1976 124.354 70.2628C125.44 69.3279 125.983 68.001 125.983 66.282C125.983 64.9551 125.546 63.975 124.671 63.3417C123.796 62.7084 122.575 62.3917 121.007 62.3917H112.412L117.162 58.1396L113.633 75.7815ZM152.912 87.6333C149.655 87.6333 146.85 87.0452 144.498 85.8691C142.146 84.6628 140.336 83.0192 139.07 80.9384C137.803 78.8576 137.17 76.445 137.17 73.7007C137.17 70.9262 137.652 68.393 138.617 66.1011C139.582 63.779 140.939 61.7735 142.689 60.0847C144.438 58.3657 146.519 57.0388 148.931 56.1039C151.374 55.1691 154.043 54.7016 156.938 54.7016C160.195 54.7016 162.999 55.3048 165.352 56.5111C167.704 57.6872 169.513 59.3157 170.78 61.3965C172.047 63.4774 172.68 65.89 172.68 68.6343C172.68 71.4087 172.197 73.957 171.232 76.2791C170.267 78.5711 168.91 80.5765 167.161 82.2955C165.412 83.9843 163.316 85.2961 160.873 86.231C158.461 87.1659 155.807 87.6333 152.912 87.6333ZM153.681 80.2146C155.249 80.2146 156.636 79.9281 157.843 79.3551C159.079 78.7822 160.119 77.983 160.964 76.9577C161.838 75.9021 162.502 74.7109 162.954 73.384C163.407 72.0571 163.633 70.6548 163.633 69.1771C163.633 67.7597 163.331 66.5233 162.728 65.4678C162.155 64.4123 161.311 63.598 160.195 63.025C159.109 62.4219 157.767 62.1203 156.169 62.1203C154.631 62.1203 153.244 62.4068 152.007 62.9798C150.771 63.5528 149.715 64.367 148.841 65.4225C147.996 66.4479 147.348 67.624 146.896 68.9509C146.443 70.2778 146.217 71.6801 146.217 73.1578C146.217 74.5451 146.503 75.7815 147.076 76.8672C147.68 77.9227 148.524 78.752 149.61 79.3551C150.725 79.9281 152.083 80.2146 153.681 80.2146ZM186.329 67.5938H201.03L199.719 74.2887H185.017L186.329 67.5938ZM184.474 80.0789H201.076L199.628 87H174.251L180.584 55.3349H205.373L203.971 62.256H188.002L184.474 80.0789ZM239.563 83.1097L243.725 62.437H234.632L233.728 66.2368C233.306 68.0462 232.868 69.7501 232.416 71.3484C231.964 72.9467 231.466 74.3943 230.923 75.691C230.41 76.9878 229.837 78.1187 229.204 79.0837C228.571 80.0488 227.862 80.7725 227.078 81.2551L217.307 79.898C218.333 79.9281 219.282 79.5662 220.157 78.8123C221.032 78.0282 221.816 76.9577 222.509 75.6006C223.233 74.2133 223.897 72.5999 224.5 70.7603C225.103 68.9208 225.661 66.9304 226.173 64.7892L228.435 55.3349H253.948L248.384 83.1097H239.563ZM213.96 93.3782L216.674 79.898H253.36L250.646 93.3782H242.458L243.725 87H223.459L222.193 93.3782H213.96ZM276.507 65.4225C283.534 65.4225 287.047 68.3176 287.047 74.1078C287.047 76.7013 286.399 78.9631 285.102 80.8932C283.805 82.8232 281.966 84.3311 279.583 85.4167C277.201 86.4722 274.427 87 271.26 87H256.197L262.53 55.3349H271.351L269.315 65.4225H276.507ZM271.848 80.5765C273.054 80.5765 274.095 80.3503 274.969 79.898C275.874 79.4456 276.583 78.7972 277.095 77.9528C277.608 77.1084 277.864 76.1585 277.864 75.103C277.864 73.957 277.533 73.1277 276.869 72.615C276.236 72.0722 275.226 71.8008 273.838 71.8008H268.048L266.284 80.5765H271.848ZM288.947 87L295.28 55.3349H304.237L297.904 87H288.947ZM308.641 55.2897H318.729L322.528 63.8845L329.992 55.2897H340.578L327.097 70.4437L334.923 87H324.609L320.221 77.6362L311.943 87H301.403L315.969 70.8508L308.641 55.2897ZM333.739 87L354.05 55.3349H362.871L370.516 87H361.604L355.95 59.5871H359.478L343.193 87H333.739ZM342.605 80.8479L346.224 74.2435H361.695L362.69 80.8479H342.605ZM401.648 55.3349H410.604L404.271 87H395.315L401.648 55.3349ZM383.146 87H374.19L380.523 55.3349H389.479L383.146 87ZM398.436 74.6506H385.001L386.494 67.232H399.929L398.436 74.6506ZM411.12 87L417.453 55.3349H426.274L422.429 73.9269L439.212 55.3349H447.761L441.428 87H432.607L436.452 68.4533L419.67 87H411.12ZM460.306 67.5938H475.007L473.696 74.2887H458.994L460.306 67.5938ZM458.451 80.0789H475.053L473.605 87H448.228L454.561 55.3349H479.35L477.948 62.256H461.98L458.451 80.0789Z" fill="white"/>
</svg>
