<svg width="99" height="84" viewBox="0 0 99 84" fill="none" xmlns="http://www.w3.org/2000/svg">
<path d="M97.5723 68.0303L58.4979 5.04701C57.5524 3.50681 56.2316 2.23485 54.6606 1.35163C53.0895 0.468413 51.3202 0.00318183 49.5203 1.62633e-05C47.7204 -0.0031493 45.9496 0.455855 44.3754 1.33354C42.8013 2.21123 41.4761 3.47854 40.5253 5.01541L1.38803 68.104C0.478039 69.7089 -0.000354503 71.5246 1.97098e-07 73.372C0.000354897 75.2195 0.479445 77.035 1.39005 78.6395C2.30065 80.2441 3.61133 81.5823 5.19289 82.5223C6.77446 83.4623 8.57231 83.9716 10.4092 84H88.593C90.4367 83.9705 92.2407 83.4567 93.826 82.5096C95.4113 81.5625 96.7227 80.2151 97.6303 78.601C98.5379 76.9868 99.01 75.1621 98.9998 73.3079C98.9897 71.4536 98.4975 69.6342 97.5723 68.0303ZM49.5325 70.257C48.4312 70.2508 47.3736 69.8228 46.5749 69.0602C45.7762 68.2976 45.2965 67.2576 45.2333 66.1519C45.1701 65.0461 45.5282 63.9577 46.2348 63.1081C46.9413 62.2585 47.9432 61.7115 49.0366 61.5785C49.6241 61.507 50.22 61.5574 50.7874 61.7265C51.3549 61.8957 51.8818 62.18 52.3357 62.5619C52.7896 62.9438 53.1609 63.4152 53.4265 63.947C53.6922 64.4788 53.8467 65.0597 53.8804 65.6539C53.9141 66.2481 53.8264 66.8429 53.6226 67.4017C53.4188 67.9604 53.1033 68.4712 52.6955 68.9026C52.2877 69.3339 51.7964 69.6767 51.2518 69.9096C50.7072 70.1426 50.1209 70.2608 49.529 70.257H49.5325ZM53.6747 36.7582L52.4313 51.1334C52.3779 52.4863 52.0833 53.8187 51.5617 55.067C51.3564 55.4709 51.0451 55.8106 50.6615 56.0494C50.2779 56.2882 49.8367 56.4169 49.3856 56.4216C48.9345 56.4263 48.4907 56.3068 48.1023 56.0761C47.7139 55.8454 47.3957 55.5122 47.1821 55.1126C46.6846 53.8203 46.3923 52.4573 46.3159 51.0737L45.3869 37.1094C45.2053 34.2997 44.2518 29.7585 46.3858 27.4756C48.0098 25.7195 51.8551 25.4174 53.0216 27.8514C54.0182 30.7102 54.2458 33.7837 53.6747 36.7582Z" fill="#18A5DF"/>
</svg>
