<svg width="30" height="23" viewBox="0 0 30 23" fill="none" xmlns="http://www.w3.org/2000/svg">
<path d="M27.9833 3.83333H22.5511L21.3935 0.746197C21.2252 0.297313 20.7961 0 20.3167 0H9.58333C9.10394 0 8.67483 0.297313 8.50655 0.746197L7.34888 3.83333H1.91667C0.85813 3.83333 0 4.69146 0 5.75V21.0833C0 22.1419 0.85813 23 1.91667 23H27.9833C29.0419 23 29.9 22.1419 29.9 21.0833V5.75C29.9 4.69146 29.0419 3.83333 27.9833 3.83333ZM14.95 6.13333C18.966 6.13333 22.2333 9.40064 22.2333 13.4167C22.2333 17.4327 18.966 20.7 14.95 20.7C10.934 20.7 7.66667 17.4327 7.66667 13.4167C7.66667 9.40064 10.934 6.13333 14.95 6.13333Z" fill="#2A2B81"/>
<path d="M9.9668 13.4167C9.9668 16.1645 12.2023 18.4 14.9501 18.4C17.6979 18.4 19.9335 16.1645 19.9335 13.4167C19.9335 10.6689 17.6979 8.43335 14.9501 8.43335C12.2023 8.43335 9.9668 10.6689 9.9668 13.4167Z" fill="#2A2B81"/>
</svg>
