<svg width="32" height="32" viewBox="0 0 32 32" fill="none" xmlns="http://www.w3.org/2000/svg">
<circle cx="16" cy="16" r="16" fill="#18A5DF"/>
<path d="M12.4074 8.92507C11.6378 8.15551 10.3902 8.15551 9.62061 8.92507C8.85107 9.69464 8.85107 10.9423 9.62061 11.712L13.6742 15.7656L9.84735 19.5926C9.0778 20.3621 9.0778 21.6098 9.84735 22.3794C10.6169 23.149 11.8646 23.149 12.6342 22.3794L16.461 18.5525L20.1511 22.2428C20.9207 23.0123 22.1684 23.0123 22.9379 22.2428C23.7075 21.4732 23.7075 20.2254 22.9379 19.4559L19.2477 15.7656L23.075 11.9383C23.8445 11.1687 23.8445 9.92098 23.075 9.15142C22.3054 8.38185 21.0577 8.38185 20.2882 9.15142L16.461 12.9787L12.4074 8.92507Z" fill="#F2F2F2"/>
</svg>
