<svg width="32" height="32" viewBox="0 0 32 32" fill="none" xmlns="http://www.w3.org/2000/svg">
<circle cx="16" cy="16" r="16" fill="white"/>
<path d="M12.4074 8.925C11.6378 8.15544 10.3902 8.15544 9.62061 8.925C8.85107 9.69456 8.85107 10.9423 9.62061 11.7119L13.6742 15.7655L9.84735 19.5925C9.0778 20.362 9.0778 21.6098 9.84735 22.3793C10.6169 23.1489 11.8646 23.1489 12.6342 22.3793L16.461 18.5524L20.1511 22.2427C20.9207 23.0122 22.1684 23.0122 22.9379 22.2427C23.7075 21.4731 23.7075 20.2254 22.9379 19.4558L19.2477 15.7655L23.075 11.9382C23.8445 11.1687 23.8445 9.92091 23.075 9.15134C22.3054 8.38178 21.0577 8.38178 20.2882 9.15134L16.461 12.9787L12.4074 8.925Z" fill="#18A5DF"/>
</svg>
