<svg width="25" height="25" viewBox="0 0 25 25" fill="none" xmlns="http://www.w3.org/2000/svg">
<path d="M20.4342 0.812014L12.0298 9.21644L3.62536 0.812012C2.79992 -0.0134227 1.44921 -0.0134211 0.623777 0.812014C-0.201657 1.63745 -0.201656 2.98816 0.623778 3.81359L9.0282 12.218L0.623778 20.6224C-0.201656 21.4479 -0.201657 22.7986 0.623777 23.624C1.44921 24.4495 2.79992 24.4495 3.62536 23.624L12.0298 15.2196L20.4342 23.624C21.2596 24.4495 22.6104 24.4495 23.4358 23.624C24.2612 22.7986 24.2612 21.4479 23.4358 20.6224L15.0314 12.218L23.4358 3.81359C24.2612 2.98816 24.2612 1.63745 23.4358 0.812014C22.6104 -0.0134205 21.2596 -0.0134211 20.4342 0.812014Z" fill="white"/>
</svg>
