<svg width="28" height="34" viewBox="0 0 28 34" fill="none" xmlns="http://www.w3.org/2000/svg">
<path d="M6.80581 15.264C5.65381 15.264 4.71781 14.916 3.99781 14.22C3.27781 13.5 2.91781 12.6 2.91781 11.52C2.91781 10.2 3.34981 9.144 4.21381 8.352C5.07781 7.56 6.10981 7.164 7.30981 7.164C8.46181 7.164 9.38581 7.512 10.0818 8.208C10.8018 8.904 11.1618 9.804 11.1618 10.908C11.1618 11.772 10.9578 12.528 10.5498 13.176C10.1658 13.824 9.63781 14.34 8.96581 14.724C8.31781 15.084 7.59781 15.264 6.80581 15.264ZM4.39381 27.324C3.24181 27.324 2.30581 26.976 1.58581 26.28C0.865813 25.56 0.505812 24.66 0.505812 23.58C0.505812 22.26 0.937813 21.204 1.80181 20.412C2.66581 19.62 3.69781 19.224 4.89781 19.224C6.04981 19.224 6.97381 19.572 7.66981 20.268C8.38981 20.964 8.74981 21.864 8.74981 22.968C8.74981 23.832 8.54581 24.588 8.13781 25.236C7.75381 25.884 7.22581 26.4 6.55381 26.784C5.90581 27.144 5.18581 27.324 4.39381 27.324ZM14.6611 33.984C14.2771 33.192 13.9291 32.208 13.6171 31.032C13.3051 29.88 13.0531 28.632 12.8611 27.288C12.6691 25.968 12.5731 24.624 12.5731 23.256C12.5731 21.12 12.7531 19.008 13.1131 16.92C13.4971 14.832 14.0371 12.804 14.7331 10.836C15.4291 8.868 16.2931 6.996 17.3251 5.22C18.3571 3.444 19.5451 1.8 20.8891 0.287998H27.6571C26.2411 2.16 25.0051 4.044 23.9491 5.94C22.8931 7.812 22.0051 9.72 21.2851 11.664C20.5891 13.584 20.0611 15.54 19.7011 17.532C19.3651 19.524 19.1971 21.552 19.1971 23.616C19.1971 25.368 19.3411 27.096 19.6291 28.8C19.9171 30.504 20.3491 32.232 20.9251 33.984H14.6611Z" fill="#2A2B81"/>
</svg>
